<svg xmlns="http://www.w3.org/2000/svg" xmlns:xlink="http://www.w3.org/1999/xlink" viewBox="0 0 438.37 429.8"><defs><style>.cls-1{fill:#fff;}.cls-2{clip-path:url(#clip-path);}.cls-3{clip-path:url(#clip-path-2);}.cls-4{clip-path:url(#clip-path-3);}</style><clipPath id="clip-path"><path class="cls-1" d="M260.58,222.49c3.57,5,8.69,15.8,2.24,32-12.93,32.54-82,52.85-144.06,42.26-1.28.36-2,.54-2,.54,63.6,13.12,136.93-7.45,150.3-41.09,9.13-23-4.93-35.14-4.93-35.14l-1.55,1.4"/></clipPath><clipPath id="clip-path-2"><path class="cls-1" d="M291.54,119c7.2,10.94,4.58,32.49-13.79,55.82-46.45,59-115.71,96.35-147.68,111.43C122,292.45,117,295.6,117,295.6s102.89-40.19,165-119.07c18.37-23.32,21-44.87,13.79-55.82-3.91-5.93-9.92-10.07-17.31-12.59A30.88,30.88,0,0,1,291.54,119"/></clipPath><clipPath id="clip-path-3"><path class="cls-1" d="M219,111.87c-16.16,81.9-68.24,142.6-92.73,167.36-2.71,4.61-5.59,9.26-8.72,14,0,0,85.85-72.55,106.29-182.53a42.41,42.41,0,0,0-4.84,1.17"/></clipPath></defs><g id="Layer_2" data-name="Layer 2"><g id="Layer_1-2" data-name="Layer 1"><path class="cls-1" d="M262.13,221.09s14.05,12.17,4.92,35.14c-13.36,33.64-86.69,54.21-150.29,41.09,0,0,87.84-22.69,145.37-76.23"/><path class="cls-1" d="M117,295.6s102.9-40.19,165-119.06c18.37-23.34,21-44.88,13.79-55.83C286.62,106.81,266,102.64,243,106.6c0,0-2.83,38.16-31.64,87.45C172.11,261.1,117,295.6,117,295.6"/><path class="cls-1" d="M157.7,201.91c-6,24.86-17.14,56.42-40.2,91.32,0,0,85.85-72.56,106.29-182.53,0,0-16,2.53-38.38,17.55a165.35,165.35,0,0,0-20.78,17s.86,24.14-6.93,56.68"/><path class="cls-1" d="M260.58,222.49c3.57,5,8.69,15.8,2.24,32-12.93,32.54-82,52.85-144.06,42.26-1.28.36-2,.54-2,.54,63.6,13.12,136.93-7.45,150.3-41.09,9.13-23-4.93-35.14-4.93-35.14l-1.55,1.4"/><g class="cls-2"><polygon class="cls-1" points="192.22 123.37 80.42 268.15 200.73 408.16 312.53 263.38 192.22 123.37"/></g><path class="cls-1" d="M291.54,119c7.2,10.94,4.58,32.49-13.79,55.82-46.45,59-115.71,96.35-147.68,111.43C122,292.45,117,295.6,117,295.6s102.89-40.19,165-119.07c18.37-23.32,21-44.87,13.79-55.82-3.91-5.93-9.92-10.07-17.31-12.59A30.88,30.88,0,0,1,291.54,119"/><g class="cls-3"><polygon class="cls-1" points="180.13 0 44.67 231.96 239.84 403.72 375.3 171.77 180.13 0"/></g><path class="cls-1" d="M219,111.87c-16.16,81.9-68.24,142.6-92.73,167.36-2.71,4.61-5.59,9.26-8.72,14,0,0,85.85-72.55,106.29-182.53a42.41,42.41,0,0,0-4.84,1.17"/><g class="cls-4"><polygon class="cls-1" points="167.81 45.55 43.26 206.83 173.48 358.38 298.03 197.09 167.81 45.55"/></g><path class="cls-1" d="M11.84,429.7C5.58,429.7,0,424.31,0,416.38V334.05H57.77q17,0,25.44,6t8.47,17.88a22.09,22.09,0,0,1-3.47,12.32A24.85,24.85,0,0,1,78,378.87c5.81,1.76,10.5,4.64,13.46,8.63s4.42,9,4.42,14.91q0,12.73-8.71,20t-24,7.28Zm35.93-77.09h-22v18.9h22q10.08,0,13.82-2.11c2.49-1.4,3.75-3.82,3.75-7.25a7.73,7.73,0,0,0-4.05-7.31q-4.07-2.23-13.52-2.23m-22,58H51.51q10.22,0,13.89-2.22t3.68-7.75q0-5.53-4.09-8t-13.48-2.46H25.82Z"/><path class="cls-1" d="M115.47,429.7c-7.71,0-11.39-4.52-11.39-13.85v-81.8h26V429.7Z"/><path class="cls-1" d="M228.92,353.39s-.1-9.32-.1-11.55c0-4.6-5.24-7.79-9.29-7.79H145c-6.91,0-10,4.38-10,7.79,0,5.74,0,11.55,0,11.55h34.11v62.46c0,9.34,4,13.85,11.46,13.85h14.58V353.39Z"/><path class="cls-1" d="M260.21,409.58V390.23h48.92V370.77H260.21V353.39h57.93a50.89,50.89,0,0,0-2.92-10.68c-2.86-6.77-6.89-8.66-12.53-8.66H234.26v81.8c0,9.33,3.58,13.85,11.09,13.85h57.52c4.09,0,8-2,11.07-7.16s4.8-13,4.8-13Z"/><path class="cls-1" d="M416.25,333.89H393.64a12.54,12.54,0,0,0-7,1.76,20.59,20.59,0,0,0-5.28,5.17l-15,20.57-15-20.57a20.59,20.59,0,0,0-5.28-5.17,12.54,12.54,0,0,0-7-1.76H316.39l35,47.95-35,48h23.37a11.87,11.87,0,0,0,6.7-2,21,21,0,0,0,4.25-4.07l15.61-21.39,15.61,21.39a21,21,0,0,0,4.25,4.07,11.87,11.87,0,0,0,6.7,2h23.37l-35-48Z"/><path class="cls-1" d="M422.93,318.64c7.25.11,12.92-7.29,12.89-15.91,0-8.89-5.95-15.8-12.95-15.75S410,294,410,302.89c0,8.72,5.8,15.77,12.92,15.75m0,3.22c-8.94-.33-15.45-8.46-15.48-19,0-10.81,6.69-18.94,15.46-19,8.6,0,15.46,7.95,15.45,18.95,0,10.73-6.6,18.74-15.43,19.06"/><path class="cls-1" d="M420.24,301.3c1.52,0,3,.06,4.47,0,1.16-.06,1.53-1.1,1.54-2.57a2,2,0,0,0-1.61-2.16c-1.45-.12-2.91,0-4.4,0Zm0,10.27h-3.07V293.45a1.08,1.08,0,0,1,.29-.09c2.67,0,5.34,0,8,.13a3.72,3.72,0,0,1,3.49,2.73,5.74,5.74,0,0,1-.61,5.63,9.61,9.61,0,0,1-1.12,1.09.72.72,0,0,0,.2.16,3.08,3.08,0,0,1,1.48,2.86c0,1.18.08,2.35.11,3.53a2.06,2.06,0,0,0,.53,1.64c.06.05.05.22.11.48-1.13,0-2.2,0-3.27,0-.13,0-.33-.44-.36-.7-.08-1-.1-2-.15-3.05,0-.45-.05-.91-.09-1.37-.08-1.31-.63-1.84-1.67-1.91-1.26-.09-2.54,0-3.88,0Z"/></g></g></svg>