<?xml version="1.0" encoding="utf-8"?>
<svg version="1.1" xmlns:xlink="http://www.w3.org/1999/xlink" width="12px" height="13px" xmlns="http://www.w3.org/2000/svg">
  <g transform="matrix(1 0 0 1 -47 -201 )">
    <path d="M 4.28693181818182 4.951171875  C 4.33806818181818 5.001953125  4.36363636363636 5.06684027777778  4.36363636363636 5.14583333333333  L 4.36363636363636 10.0208333333333  C 4.36363636363636 10.0998263888889  4.33806818181818 10.1647135416667  4.28693181818182 10.2154947916667  C 4.23579545454545 10.2662760416667  4.17045454545455 10.2916666666667  4.09090909090909 10.2916666666667  L 3.54545454545455 10.2916666666667  C 3.46590909090909 10.2916666666667  3.40056818181818 10.2662760416667  3.34943181818182 10.2154947916667  C 3.29829545454545 10.1647135416667  3.27272727272727 10.0998263888889  3.27272727272727 10.0208333333333  L 3.27272727272727 5.14583333333333  C 3.27272727272727 5.06684027777778  3.29829545454545 5.001953125  3.34943181818182 4.951171875  C 3.40056818181818 4.900390625  3.46590909090909 4.875  3.54545454545455 4.875  L 4.09090909090909 4.875  C 4.17045454545455 4.875  4.23579545454545 4.900390625  4.28693181818182 4.951171875  Z M 6.46875 4.951171875  C 6.51988636363636 5.001953125  6.54545454545455 5.06684027777778  6.54545454545455 5.14583333333333  L 6.54545454545455 10.0208333333333  C 6.54545454545455 10.0998263888889  6.51988636363636 10.1647135416667  6.46875 10.2154947916667  C 6.41761363636364 10.2662760416667  6.35227272727273 10.2916666666667  6.27272727272727 10.2916666666667  L 5.72727272727273 10.2916666666667  C 5.64772727272727 10.2916666666667  5.58238636363636 10.2662760416667  5.53125 10.2154947916667  C 5.48011363636364 10.1647135416667  5.45454545454545 10.0998263888889  5.45454545454545 10.0208333333333  L 5.45454545454545 5.14583333333333  C 5.45454545454545 5.06684027777778  5.48011363636364 5.001953125  5.53125 4.951171875  C 5.58238636363636 4.900390625  5.64772727272727 4.875  5.72727272727273 4.875  L 6.27272727272727 4.875  C 6.35227272727273 4.875  6.41761363636364 4.900390625  6.46875 4.951171875  Z M 8.65056818181818 4.951171875  C 8.70170454545455 5.001953125  8.72727272727273 5.06684027777778  8.72727272727273 5.14583333333333  L 8.72727272727273 10.0208333333333  C 8.72727272727273 10.0998263888889  8.70170454545455 10.1647135416667  8.65056818181818 10.2154947916667  C 8.59943181818182 10.2662760416667  8.53409090909091 10.2916666666667  8.45454545454546 10.2916666666667  L 7.90909090909091 10.2916666666667  C 7.82954545454546 10.2916666666667  7.76420454545455 10.2662760416667  7.71306818181818 10.2154947916667  C 7.66193181818182 10.1647135416667  7.63636363636364 10.0998263888889  7.63636363636364 10.0208333333333  L 7.63636363636364 5.14583333333333  C 7.63636363636364 5.06684027777778  7.66193181818182 5.001953125  7.71306818181818 4.951171875  C 7.76420454545455 4.900390625  7.82954545454546 4.875  7.90909090909091 4.875  L 8.45454545454546 4.875  C 8.53409090909091 4.875  8.59943181818182 4.900390625  8.65056818181818 4.951171875  Z M 9.75852272727273 11.6162109375  C 9.79829545454546 11.5118272569444  9.81818181818182 11.3975694444444  9.81818181818182 11.2734375  L 9.81818181818182 3.25  L 2.18181818181818 3.25  L 2.18181818181818 11.2734375  C 2.18181818181818 11.3975694444444  2.20170454545455 11.5118272569444  2.24147727272727 11.6162109375  C 2.28125 11.7205946180556  2.32244318181818 11.7967664930556  2.36505681818182 11.8447265625  C 2.40767045454545 11.8926866319444  2.4375 11.9166666666667  2.45454545454545 11.9166666666667  L 9.54545454545455 11.9166666666667  C 9.5625 11.9166666666667  9.59232954545455 11.8926866319444  9.63494318181818 11.8447265625  C 9.67755681818182 11.7967664930556  9.71875 11.7205946180556  9.75852272727273 11.6162109375  Z M 4.50852272727273 1.17643229166667  L 4.09090909090909 2.16666666666667  L 7.90909090909091 2.16666666666667  L 7.5 1.17643229166667  C 7.46022727272727 1.12565104166667  7.41193181818182 1.09461805555555  7.35511363636364 1.08333333333333  L 4.65340909090909 1.08333333333333  C 4.59659090909091 1.09461805555555  4.54829545454546 1.12565104166667  4.50852272727273 1.17643229166667  Z M 11.9232954545455 2.24283854166667  C 11.9744318181818 2.29361979166667  12 2.35850694444444  12 2.4375  L 12 2.97916666666667  C 12 3.05815972222222  11.9744318181818 3.123046875  11.9232954545455 3.173828125  C 11.8721590909091 3.224609375  11.8068181818182 3.25  11.7272727272727 3.25  L 10.9090909090909 3.25  L 10.9090909090909 11.2734375  C 10.9090909090909 11.7417534722222  10.7755681818182 12.1465928819444  10.5085227272727 12.4879557291667  C 10.2414772727273 12.8293185763889  9.92045454545455 13  9.54545454545455 13  L 2.45454545454545 13  C 2.07954545454545 13  1.75852272727273 12.8349609375  1.49147727272727 12.5048828125  C 1.22443181818182 12.1748046875  1.09090909090909 11.7756076388889  1.09090909090909 11.3072916666667  L 1.09090909090909 3.25  L 0.272727272727273 3.25  C 0.193181818181818 3.25  0.127840909090909 3.224609375  0.0767045454545455 3.173828125  C 0.0255681818181818 3.123046875  0 3.05815972222222  0 2.97916666666667  L 0 2.4375  C 0 2.35850694444444  0.0255681818181818 2.29361979166667  0.0767045454545455 2.24283854166667  C 0.127840909090909 2.19205729166667  0.193181818181818 2.16666666666667  0.272727272727273 2.16666666666667  L 2.90625 2.16666666666667  L 3.50284090909091 0.753255208333334  C 3.58806818181818 0.544487847222221  3.74147727272727 0.366753472222221  3.96306818181818 0.220052083333334  C 4.18465909090909 0.0733506944444436  4.40909090909091 0  4.63636363636364 0  L 7.36363636363636 0  C 7.59090909090909 0  7.81534090909091 0.0733506944444436  8.03693181818182 0.220052083333334  C 8.25852272727273 0.366753472222221  8.41193181818182 0.544487847222221  8.49715909090909 0.753255208333334  L 9.09375 2.16666666666667  L 11.7272727272727 2.16666666666667  C 11.8068181818182 2.16666666666667  11.8721590909091 2.19205729166667  11.9232954545455 2.24283854166667  Z " fill-rule="nonzero" fill="#d41414" stroke="none" transform="matrix(1 0 0 1 47 201 )" />
  </g>
</svg>