<?xml version="1.0" encoding="UTF-8" standalone="no"?>
<!DOCTYPE svg PUBLIC "-//W3C//DTD SVG 1.1//EN"
"http://www.w3.org/Graphics/SVG/1.1/DTD/svg11.dtd">


<!-- Page 1 -->
<svg x="0" y="0" width="935" height="1210" viewBox="0 0 935 1210" version="1.1" xmlns="http://www.w3.org/2000/svg" xmlns:xlink="http://www.w3.org/1999/xlink"
style="display: block;margin-left: auto;margin-right: auto;">
<defs>
<clipPath id="c_1"><path d="M0,0H935V1210H0Z"/></clipPath>
<clipPath id="c0_1"><path d="M0,1210V0H935V1210Z"/></clipPath>
<clipPath id="c1_1"><path d="M65.4,417.8V405.1h54.3v12.7Z"/></clipPath>
<clipPath id="c2_1"><path d="M119.8,417.8V405.1H174v12.7Z"/></clipPath>
<clipPath id="c3_1"><path d="M174.1,417.8V405.1h54.4v12.7Z"/></clipPath>
<clipPath id="c4_1"><path d="M228.6,417.8V405.1h54.2v12.7Z"/></clipPath>
<clipPath id="c5_1"><path d="M282.9,417.8V405.1h54.4v12.7Z"/></clipPath>
<clipPath id="c6_1"><path d="M337.3,417.8V405.1h54.3v12.7Z"/></clipPath>
<clipPath id="c7_1"><path d="M391.6,417.8V405.1H446v12.7Z"/></clipPath>
<clipPath id="c8_1"><path d="M446.1,417.8V405.1h54.2v12.7Z"/></clipPath>
<clipPath id="c9_1"><path d="M500.4,417.8V405.1h54.4v12.7Z"/></clipPath>
<clipPath id="ca_1"><path d="M554.9,417.8V405.1h54.2v12.7Z"/></clipPath>
<clipPath id="cb_1"><path d="M609.2,417.8V405.1h54.4v12.7Z"/></clipPath>
<clipPath id="cc_1"><path d="M663.7,417.8V405.1H718v12.7Z"/></clipPath>
<clipPath id="cd_1"><path d="M718.1,417.8V405.1h54.2v12.7Z"/></clipPath>
<clipPath id="ce_1"><path d="M772.4,417.8V405.1h54.4v12.7Z"/></clipPath>
<clipPath id="cf_1"><path d="M826.9,417.8V405.1h54.4v12.7Z"/></clipPath>

<style type="text/css"><![CDATA[
text { white-space: pre; }
path, image { pointer-events: none; }

.s1_1{
font-size: 33.61px;
font-family: LiberationSerif-Bold_e;
fill: #000;
}
.s2_1{
font-size: 19.86px;
font-family: LiberationSerif_o;
fill: #000;
}
.s3_1{
font-size: 15.28px;
font-family: LiberationSerif-Bold_e;
fill: #000;
}
.s4_1{
font-size: 16.81px;
font-family: LiberationSerif_o;
fill: #000;
}
.s5_1{
font-size: 18.33px;
font-family: LiberationSerif_o;
fill: #000;
}
.s6_1{
font-size: 15.28px;
font-family: LiberationSerif_o;
fill: #000;
}
.s7_1{
font-size: 18.33px;
font-family: OpenSymbol_t;
fill: #000;
}
.s8_1{
font-size: 12.22px;
font-family: LiberationSerif_o;
fill: #000;
}
.s9_1{
font-size: 15.28px;
font-family: LiberationSerif-Italic_j;
fill: #000;
}
.sa_1{
font-size: 18.33px;
font-family: LiberationSerif-Bold_e;
fill: #000;
}

.g0_1{
fill: #000;
}
.g1_1{
fill: #FFF;
}
.g2_1{
fill: none;
stroke: #000;
stroke-width: 0.763;
stroke-linejoin: round;
}
.g3_1{
fill: none;
stroke: #000;
stroke-width: 1.069;
stroke-miterlimit: 10;
}

]]></style>

</defs>
<path d="M0,0
L0,1210
L935,1210
L935,0 Z " 
fill="#FFFFFF" stroke="none"/>
<g clip-path="url(#c_1)">
<path fill-rule="evenodd" d="M65.4,241.2H83.3V227.6H65.4v13.6Z" class="g0_1"/>
<path fill-rule="evenodd" d="M863.2,241.2h18.1V227.6H863.2v13.6Z" class="g0_1"/>
<path fill-rule="evenodd" d="M446.1,309.1h27.1V282H446.1v27.1Z" class="g0_1"/>
<path fill-rule="evenodd" d="M473.3,336.3h27.1V309.2H473.3v27.1Z" class="g1_1"/>
<path fill-rule="evenodd" d="M446.1,363.5h27.1V336.4H446.1v27.1Z" class="g1_1"/>
<path fill-rule="evenodd" d="M473.3,363.5h27.1V336.4H473.3v27.1Z" class="g0_1"/>
<path fill-rule="evenodd" d="M473.3,390.7h27.1V363.6H473.3v27.1Z" class="g1_1"/>
<path fill-rule="evenodd" d="M65.4,567.6H83.3V554H65.4v13.6Z" class="g0_1"/>
<path fill-rule="evenodd" d="M863.2,567.6h18.1V554H863.2v13.6Z" class="g0_1"/>
<path fill-rule="evenodd" d="M65.4,241.2H83.3V227.6H65.4v13.6Z" class="g0_1"/>
<path fill-rule="evenodd" d="M863.2,241.2h18.1V227.6H863.2v13.6Z" class="g0_1"/>
<path fill-rule="evenodd" d="M446.1,309.1h27.1V282H446.1v27.1Z" class="g0_1"/>
<path fill-rule="evenodd" d="M473.3,336.3h27.1V309.2H473.3v27.1Z" class="g1_1"/>
<path fill-rule="evenodd" d="M446.1,363.5h27.1V336.4H446.1v27.1Z" class="g1_1"/>
<path fill-rule="evenodd" d="M473.3,363.5h27.1V336.4H473.3v27.1Z" class="g0_1"/>
<path fill-rule="evenodd" d="M473.3,390.7h27.1V363.6H473.3v27.1Z" class="g1_1"/>
<path fill-rule="evenodd" d="M65.4,567.6H83.3V554H65.4v13.6Z" class="g0_1"/>
<path fill-rule="evenodd" d="M863.2,567.6h18.1V554H863.2v13.6Z" class="g0_1"/>
<g clip-path="url(#c0_1)">
<text x="113.7" y="86.5" dx="0,0,0,0,0,0,0,-.1,0,0,0,0,0,0,0,-.1,0,0,0,0,0,0,0,-.1,0,0,0,0,0,0,0,0,0,-.1,0,0" class="s1_1">PHIẾU TRẢ LỜI TRẮC NGHIỆM VÀ TỰ LUẬN </text>
<text x="86.8" y="141.2" dx="0,0,0,-.1,0,0,0,.1" class="s2_1">Kì thi: </text>
<text x="143" y="141.2" dx="0,.1,-.1,.1,-.1,.1,-.1,.1,-.1,.1,-.1,.1,-.1,.1,-.1,.1,-.1,.1,-.1,.1,-.1,.1,-.1,.1,-.1,.1,-.1,.1,-.1,.1,-.1,.1,-.1,.1,-.1,.1,-.1,.1,-.1,.1,-.1,.1,-.1,.1,-.1,.1,-.1,.1,-.1,.1,-.1,.1,-.1,.1,-.1,.1,-.1,.1,-.1,.1,-.1,.1,-.1,.1,-.1,.1,-.1,.1,-.1,.1,-.1,.1,-.1,.1,-.1,.1,-.1,.1,-.1,.1,-.1,.1,-.1,.1,-.1,.1,-.1,.1,-.1,.1,-.1,.1,-.1,.1,-.1,.1,-.1,.1,-.1,.1,-.1,.1,-.1,.1,-.1,.1,-.1,.1,-.1,.1,-.1,.1,-.1,.1,-.1,.1,-.1,.1,-.1,.1,-.1,.1,-.1,.1,-.1" class="s2_1">............................................................................................................................. </text>
<text x="86.8" y="167.1" dx="0,-.1,0,0,.1,0,0,0,0" class="s2_1">Bài thi: </text>
<text x="150.8" y="167.1" dx="0,-.1,.1,-.1,.1,-.1,.1,-.1,.1,-.1,.1,-.1,.1,-.1,.1,-.1,.1,-.1,.1,-.1,.1,-.1,.1,-.1,.1,-.1,.1,-.1,.1,-.1,.1,-.1,.1,-.1,.1,-.1,.1,-.1,.1,-.1,.1,-.1,.1,-.1,.1,-.1,.1,-.1,.1,-.1,.1,-.1,.1,-.1,.1,-.1,.1,-.1,.1,-.1,.1,-.1,.1,-.1,.1,-.1,.1,-.1,.1,-.1,.1,-.1,.1,-.1,.1,-.1,.1,-.1,.1,-.1,.1,-.1,.1,-.1,.1,-.1,.1,-.1,.1,-.1,.1,-.1,.1,-.1,.1,-.1,.1,-.1,.1,-.1,.1,-.1,.1,-.1,.1,-.1,.1,-.1,.1,-.1,.1,-.1,.1,-.1,.1,-.1,.1,-.1,.1,-.1,.1,-.1,.1,-.1" class="s2_1">............................................................................................................................ </text>
</g>
<path d="M65,228H881.8M65,282.4H881.8M65,309.6H419.3m26.4,0h55.2m26.4,0H881.8M146.6,336.8H419.3m26.4,0h55.2m108,0H881.8M146.6,364H419.3m26.4,0h55.2m108,0H881.8M65,391.2H881.8M65,404.8H881.8M65,418.4H881.8M65,472.8H881.8M65,486.4H881.8M65,513.6H609.7M337,540.8H609.7M65,568.1H881.8M65.4,227.6V568.5M83.4,554v14.5M119.8,404.4v68.8M147,282V391.6M174.2,282V391.6m0,12.8v68.8M201.4,282V391.6M228.6,282V391.6m0,12.8v68.8m0,40v55.3M255.7,282V391.6M282.9,282V391.6m0,12.8v68.8M310.1,282V391.6m27.2,-164v164m0,12.8v68.8m0,12.8v82.5M364.5,282V391.6m0,94.4v82.5M391.7,282V391.6m0,12.8v68.8m0,12.8v82.5M418.9,282V391.6m0,94.4v82.5M446.1,282V391.6m0,12.8v68.8m0,12.8v82.5M473.3,282V391.6m0,94.4v82.5M500.5,282V391.6m0,12.8v68.8m0,12.8v82.5M527.7,282V391.6m0,94.4v82.5M554.9,404.4v68.8m0,12.8v82.5M582.1,486v82.5M609.3,282V391.6m0,12.8v68.8m0,12.8v82.5M636.5,282V391.6M663.7,282V391.6m0,12.8v68.8M690.9,282V391.6M718.1,282V391.6m0,12.8v68.8M745.2,282V391.6M772.4,282V391.6m0,12.8v68.8M799.6,282V391.6M827,282V391.6m0,12.8v68.8M854.2,282V391.6m9,162.4v14.5M881.4,227.6V568.5" class="g2_1"/>
<g clip-path="url(#c0_1)">
<text x="91.8" y="260.6" dx="0,0,0,0,0,0,0,0,0,0,0,0,0,0,0,0,0,0,0,0,0,0,-.1,0" class="s3_1">BẢNG TRẢ LỜI TRẮC NGHIỆM </text>
<text x="345.7" y="261.1" dx="0,-.1,.1,-.1,.1,0,0,-.1,.1,-.2,.1,.1,-.1,.1,0,0,.1,-.1,0,0,0,0,0,0,0,0,0,0,0,0,0,0,0,0,0,0,0,0,0" class="s4_1">Họ tên thí sinh: ………………………………………………………… </text>
<text x="86.6" y="302.5" dx="0,0,-.1" class="s5_1">SBD </text>
<text x="154.2" y="302.5" class="s5_1">0 </text>
<text x="181.3" y="302.5" class="s5_1">1 </text>
<text x="208.5" y="302.5" class="s5_1">2 </text>
<text x="235.7" y="302.5" class="s5_1">3 </text>
<text x="262.9" y="302.5" class="s5_1">4 </text>
<text x="290.1" y="302.5" class="s5_1">5 </text>
<text x="317.3" y="302.5" class="s5_1">6 </text>
<text x="344.5" y="302.5" class="s5_1">7 </text>
<text x="371.7" y="302.5" class="s5_1">8 </text>
<text x="398.9" y="302.5" class="s5_1">9 </text>
<text x="543.6" y="302.5" class="s5_1">Mã đề </text>
<text x="616.5" y="302.5" class="s5_1">0 </text>
<text x="643.7" y="302.5" class="s5_1">1 </text>
<text x="670.8" y="302.5" class="s5_1">2 </text>
<text x="698" y="302.5" class="s5_1">3 </text>
<text x="725.2" y="302.5" class="s5_1">4 </text>
<text x="752.4" y="302.5" class="s5_1">5 </text>
<text x="779.6" y="302.5" class="s5_1">6 </text>
<text x="806.8" y="302.5" class="s5_1">7 </text>
<text x="834.2" y="302.5" class="s5_1">8 </text>
<text x="861.4" y="302.5" class="s5_1">9 </text>
<text x="81.4" y="355.8" class="s6_1">……… </text>
<text x="151.4" y="327.6" dx="0,10.9,10.9,10.9,10.9,10.9,10.9,10.9,10.9,10.9" class="s7_1"> </text>
<text x="543.7" y="355.8" class="s6_1">……… </text>
<text x="613.7" y="327.6" dx="0,10.9,10.9,10.9,10.9,10.9,10.9,10.9,11,10.9" class="s7_1"> </text>
<text x="151.4" y="354.8" dx="0,10.9,10.9,10.9,10.9,10.9,10.9,10.9,10.9,10.9" class="s7_1"> </text>
<text x="613.7" y="354.8" dx="0,10.9,10.9,10.9,10.9,10.9,10.9,10.9,11,10.9" class="s7_1"> </text>
<text x="151.4" y="381.9" dx="0,10.9,10.9,10.9,10.9,10.9,10.9,10.9,10.9,10.9" class="s7_1"> </text>
<text x="613.7" y="381.9" dx="0,10.9,10.9,10.9,10.9,10.9,10.9,10.9,11,10.9" class="s7_1"> </text>
</g>
<text clip-path="url(#c1_1)" x="89.7" y="416.6" class="s8_1">1 </text>
<text clip-path="url(#c2_1)" x="144.1" y="416.6" class="s8_1">2 </text>
<text clip-path="url(#c3_1)" x="198.5" y="416.6" class="s8_1">3 </text>
<text clip-path="url(#c4_1)" x="252.8" y="416.6" class="s8_1">4 </text>
<text clip-path="url(#c5_1)" x="307.2" y="416.6" class="s8_1">5 </text>
<text clip-path="url(#c6_1)" x="361.6" y="416.6" class="s8_1">6 </text>
<text clip-path="url(#c7_1)" x="416" y="416.6" class="s8_1">7 </text>
<text clip-path="url(#c8_1)" x="470.4" y="416.6" class="s8_1">8 </text>
<text clip-path="url(#c9_1)" x="524.8" y="416.6" class="s8_1">9 </text>
<text clip-path="url(#ca_1)" x="576.1" y="416.6" class="s8_1">10 </text>
<text clip-path="url(#cb_1)" x="630.5" y="416.6" class="s8_1">11 </text>
<text clip-path="url(#cc_1)" x="684.9" y="416.6" class="s8_1">12 </text>
<text clip-path="url(#cd_1)" x="739.3" y="416.6" class="s8_1">13 </text>
<text clip-path="url(#ce_1)" x="793.7" y="416.6" class="s8_1">14 </text>
<text clip-path="url(#cf_1)" x="848.2" y="416.6" class="s8_1">15 </text>
<g clip-path="url(#c0_1)">
<text x="111.5" y="506.5" dx="0,0,0,0,0,0,0,0,0,0,0,0,0,0,0,0,0,0,.1,0,0,0,0" class="s5_1">Phần dành cho giáo viên </text>
<text x="347.3" y="505.4" class="s6_1">0 </text>
<text x="374.5" y="505.4" class="s6_1">1 </text>
<text x="401.7" y="505.4" class="s6_1">2 </text>
<text x="428.8" y="505.4" class="s6_1">3 </text>
<text x="456" y="505.4" class="s6_1">4 </text>
<text x="483.2" y="505.4" class="s6_1">5 </text>
<text x="510.4" y="505.4" class="s6_1">6 </text>
<text x="537.6" y="505.4" class="s6_1">7 </text>
<text x="564.8" y="505.4" class="s6_1">8 </text>
<text x="592" y="505.4" class="s6_1">9 </text>
<text x="617.7" y="504" dx="0,-.1,0,0,.1,0,0,0,0,-.2,0,0,.1,0,0,-.1,0,0,0,0,0" class="s9_1">Cách tô điểm tự luận: </text>
<text x="617.7" y="524.8" dx="0,0,0,0,0,0,0,0,0,0,0,0,0,0,0,0,0,0,0,0,0,-.1,0,0,0,0,0,0,0,0,0,0,0,0" class="s9_1">- Hàng trên là giá trị phần nguyên </text>
<text x="617.7" y="545.4" dx="0,0,0,0,0,0,0,0,0,.1,0,0,0,0,0,0,-.2,0,0,0,0,0,0,0,0,0,0,0,0,0,0,0,0,0,0,0,0" class="s9_1">- Hàng dưới là giá trị phần thập phân </text>
<text x="108" y="547.4" dx="0,0,0,0,0,0,0,.1,0,0,0,0" class="s5_1">Điểm tự luận </text>
<text x="342.7" y="531.5" dx="0,10.9,10.9,10.9,10.9,10.9,10.9,10.9,10.9,10.9" class="s7_1"> </text>
<text x="342.7" y="558.7" dx="0,10.9,10.9,10.9,10.9,10.9,10.9,10.9,10.9,10.9" class="s7_1"> </text>
<text x="436.9" y="618.9" dx="0,-.1,.1,0,0,0,-.1" class="sa_1">TỰ LUẬN </text>
</g>
<path d="M436.9,620.6h83.3" class="g3_1"/>
<g clip-path="url(#c0_1)">
<text x="65.1" y="658.3" class="s8_1">........................................................................................................................................................................................................................................................................ </text>
<text x="65.1" y="697.7" class="s8_1">........................................................................................................................................................................................................................................................................ </text>
<text x="65.1" y="737.2" class="s8_1">........................................................................................................................................................................................................................................................................ </text>
<text x="65.1" y="776.6" class="s8_1">........................................................................................................................................................................................................................................................................ </text>
<text x="65.1" y="816" class="s8_1">........................................................................................................................................................................................................................................................................ </text>
<text x="65.1" y="855.4" class="s8_1">........................................................................................................................................................................................................................................................................ </text>
<text x="65.1" y="894.8" class="s8_1">........................................................................................................................................................................................................................................................................ </text>
<text x="65.1" y="934.2" class="s8_1">........................................................................................................................................................................................................................................................................ </text>
<text x="65.1" y="973.7" class="s8_1">........................................................................................................................................................................................................................................................................ </text>
<text x="65.1" y="1013.1" class="s8_1">........................................................................................................................................................................................................................................................................ </text>
<text x="65.1" y="1052.5" class="s8_1">........................................................................................................................................................................................................................................................................ </text>
<text x="65.1" y="1091.9" class="s8_1">........................................................................................................................................................................................................................................................................ </text>
<text x="65.1" y="1131.3" class="s8_1">........................................................................................................................................................................................................................................................................ </text>
<text x="882.8" y="1167.7" class="s5_1">1 </text>
</g>

</g>

<!-- Any embedded fonts defined here -->
<style type="text/css" ><![CDATA[

@font-face {
	font-family: LiberationSerif-Bold_e;
	src: url("fonts/LiberationSerif-Bold_e.woff") format("woff");
}

@font-face {
	font-family: LiberationSerif-Italic_j;
	src: url("fonts/LiberationSerif-Italic_j.woff") format("woff");
}

@font-face {
	font-family: LiberationSerif_o;
	src: url("fonts/LiberationSerif_o.woff") format("woff");
}

@font-face {
	font-family: OpenSymbol_t;
	src: url("fonts/OpenSymbol_t.woff") format("woff");
}

]]></style>

</svg>
