<svg id="abbank" xmlns="http://www.w3.org/2000/svg" xmlns:xlink="http://www.w3.org/1999/xlink" width="104" height="52" viewBox="0 0 104 52">
  <defs>
    <clipPath id="clip-path">
      <rect id="Rectangle_5447" data-name="Rectangle 5447" width="103.929" height="11.724" fill="none"/>
    </clipPath>
  </defs>
  <g id="boundingbox" fill="rgba(255,0,0,0.1)" stroke="red" stroke-width="1" stroke-dasharray="4 4" opacity="0">
    <rect width="104" height="52" stroke="none"/>
    <rect x="0.5" y="0.5" width="103" height="51" fill="none"/>
  </g>
  <g id="Group_10400" data-name="Group 10400" transform="translate(0 20.12)">
    <g id="Group_10399" data-name="Group 10399" transform="translate(0 0)" clip-path="url(#clip-path)">
      <path id="Path_16906" data-name="Path 16906" d="M9.468,2.771c-.29-.162-.527-.134-.685.172l-2.2,3.944,3.673,0,1.381,2.553L5.94,9.455c-.983-.037-1.382,1.186-1.933,2.206H0L6.35.066l5.589.039L16.763,8.9c2.608-.08,7.482-.1,8.932-.107.963-.087.753-1.734,0-1.828L17.5,6.971,13.717.074H24.064c.534,0,2.125-.031,3.281.013a1.113,1.113,0,0,1,.14.023,2.094,2.094,0,0,1,1.347.709,2.9,2.9,0,0,1,.59,1.988,5.979,5.979,0,0,1-.2,1.749,1.706,1.706,0,0,1-1.3,1.219c.89.082,1.779.393,1.92,2.11A10.172,10.172,0,0,1,29.9,9.2,2.116,2.116,0,0,1,28.788,11.2c-1.632.651-4.384.434-5.443.439l-5.741.029a4.537,4.537,0,0,1-.549-.029l-2.7.01C12.722,8.687,11.1,5.729,9.468,2.771M19.7,4.619l5.09,0,.022,0A.892.892,0,0,0,25.279,2.9a.916.916,0,0,0-.244-.038c-1.562-.009-5.236,0-6.323,0ZM31.362.074h9.688c.857,0,3.415-.169,4.693.857a2.352,2.352,0,0,1,.664,1.875,6.018,6.018,0,0,1-.2,1.749,1.706,1.706,0,0,1-1.3,1.219c1.087.183,2.13.77,2.035,3.277-.127,3.322-5.1,2.611-6.609,2.584l-8.968-.16Zm3.788,8.793,6.907,0,.024,0c1.458.034,1.138-1.737.4-1.876-.086-.016-.054.025-.179.024-1.562-.008-6.128-.059-7.215-.059Zm0-4.248c1.161,0,5.3,0,6.478,0l.022,0A.892.892,0,0,0,42.115,2.9a.924.924,0,0,0-.244-.038c-1.562-.01-5.633,0-6.72,0ZM64.5,0H70.99l5.116,7.407c.529.968,1.08,1.19,1.266.452l-.058-2.051V.063l3.8.007L81.1,11.663l-6.362.006c-2-2.706-3.694-5.185-5.691-7.89-.386-.668-.894-.286-.9.176,0,.377-.007.868.018,1.373v6.4l-3.672-.06v0l-.371,0a4.54,4.54,0,0,1-.55-.029l-2.7.01c-1.635-2.958-3.254-5.916-4.889-8.875-.291-.162-.526-.134-.686.172l-2.2,3.944,3.516,0L58,9.444l-5.537.011c-.983-.037-1.382,1.186-1.933,2.206H46.525l6.35-11.6,5.755,0L63.4,8.891c.15.224.375.675.548.752a.5.5,0,0,0,.55-.149ZM82.433.059h3.746V4.138c.451.882,1.479.762,2.238-.081l4.383-4H97.35L90.978,5.87l6.593,5.808H92.945c-1.671-1.532-3.431-2.944-5.1-4.476-.942-.53-1.654-.151-1.62.891.008.242,0,.5,0,.767v2.848l-3.788.01Z" transform="translate(0 0)" fill="#00a9ac"/>
      <path id="Path_16907" data-name="Path 16907" d="M186.439.113l3.731,0-6.4,5.809,6.637,5.8-3.746.009-6.632-5.775Z" transform="translate(-86.477 -0.054)" fill="#df762e"/>
    </g>
  </g>
</svg>
