<svg id="acb" xmlns="http://www.w3.org/2000/svg" xmlns:xlink="http://www.w3.org/1999/xlink" width="104" height="52" viewBox="0 0 104 52">
  <defs>
    <clipPath id="clip-path">
      <rect id="Rectangle_5139" data-name="Rectangle 5139" width="60.864" height="24.095" fill="none"/>
    </clipPath>
  </defs>
  <g id="boundingbox" fill="rgba(255,0,0,0.1)" stroke="red" stroke-width="1" stroke-dasharray="4 4" opacity="0">
    <rect width="104" height="52" stroke="none"/>
    <rect x="0.5" y="0.5" width="103" height="51" fill="none"/>
  </g>
  <g id="Group_10351" data-name="Group 10351" transform="translate(21.068 13.826)">
    <g id="Group_10350" data-name="Group 10350" clip-path="url(#clip-path)">
      <path id="Path_16735" data-name="Path 16735" d="M94.921,10.442c1.452-.1,2.862-.113,4.243-.319a2.069,2.069,0,0,0,1.812-2.112,2.173,2.173,0,0,0-1.6-2.431c-1.461-.446-2.956-.083-4.454-.224Zm0,9.732c1.664-.1,3.292-.116,4.9-.319a2.459,2.459,0,0,0,2.187-2.23,2.631,2.631,0,0,0-1.929-3.119c-1.681-.552-3.419-.214-5.155-.319ZM103.159,12c.364.164.839.351,1.289.585a5.228,5.228,0,0,1,2.808,3.674,6.754,6.754,0,0,1-.358,3.969,5.155,5.155,0,0,1-2.2,2.56,7.7,7.7,0,0,1-3.614,1.136c-2.316.113-4.637.159-6.955.211-1.165.027-2.332.007-3.5,0-.613,0-.8-.2-.8-.809q0-10.646,0-21.293c0-.672.148-.817.829-.818,2.688,0,5.375-.022,8.061.008a9.711,9.711,0,0,1,4.7,1.1,5.113,5.113,0,0,1,2.642,3.652,5.194,5.194,0,0,1-1.187,4.653A11.6,11.6,0,0,1,103.159,12" transform="translate(-46.542 -0.627)" fill="#1d4796" fill-rule="evenodd"/>
      <path id="Path_16736" data-name="Path 16736" d="M11.067,6.433,8.327,14.8h5.424L11.067,6.433m.194-5.209c.71,0,1.419-.01,2.129,0a.963.963,0,0,1,1.01.7c1.368,3.8,2.761,7.6,4.151,11.39,1.214,3.315,2.44,6.626,3.647,9.943.266.731.134.887-.644.887-1.335,0-2.67-.01-4,.006a.987.987,0,0,1-1.035-.762c-.469-1.392-.95-2.78-1.4-4.179-.085-.269-.2-.341-.452-.341-2.416.006-4.832.009-7.248,0-.28,0-.367.122-.444.355-.464,1.411-.957,2.813-1.4,4.23a.908.908,0,0,1-.961.691c-1.335.014-2.67.012-4,0-.584,0-.725-.2-.522-.747.991-2.659,1.995-5.313,2.988-7.97q1.2-3.2,2.38-6.4C6.315,6.7,7.167,4.379,8.033,2.06a1.081,1.081,0,0,1,1.251-.837h1.977" transform="translate(0 -0.632)" fill="#1d4796" fill-rule="evenodd"/>
      <path id="Path_16737" data-name="Path 16737" d="M49.691,12.068a7.14,7.14,0,0,0,4.846,6.8,6.438,6.438,0,0,0,6.594-1.479c.4-.35.666-.373,1.041-.005q1.141,1.117,2.258,2.259a.712.712,0,0,1-.024,1.163,11.99,11.99,0,0,1-11.678,2.779,11.541,11.541,0,0,1-4.382-2.469,11.555,11.555,0,0,1-3.9-6.966,11.82,11.82,0,0,1,2.488-9.706A11.258,11.258,0,0,1,53.811.29,11.975,11.975,0,0,1,56.229,0a11.8,11.8,0,0,1,7.514,2.723c.165.139.337.271.506.405.482.383.515.728.056,1.231-.705.773-1.454,1.509-2.222,2.22a.76.76,0,0,1-1.082,0A6.791,6.791,0,0,0,57.59,4.972,6.519,6.519,0,0,0,52.781,6.1a7.21,7.21,0,0,0-3.09,5.965" transform="translate(-22.933 0)" fill="#1d4796" fill-rule="evenodd"/>
      <path id="Path_16738" data-name="Path 16738" d="M69.841,20.618a4.109,4.109,0,1,1-8.216-.141,4.109,4.109,0,0,1,8.216.141" transform="translate(-31.927 -8.52)" fill="#22a9e1" fill-rule="evenodd"/>
    </g>
  </g>
</svg>
