<svg id="agribank" xmlns="http://www.w3.org/2000/svg" xmlns:xlink="http://www.w3.org/1999/xlink" width="104" height="52" viewBox="0 0 104 52">
  <defs>
    <clipPath id="clip-path">
      <rect id="Rectangle_5135" data-name="Rectangle 5135" width="103.929" height="13.953" fill="none"/>
    </clipPath>
  </defs>
  <g id="boundingbox" fill="rgba(255,0,0,0.1)" stroke="red" stroke-width="1" stroke-dasharray="4 4" opacity="0">
    <rect width="104" height="52" stroke="none"/>
    <rect x="0.5" y="0.5" width="103" height="51" fill="none"/>
  </g>
  <g id="Group_10343" data-name="Group 10343" transform="translate(0 19.006)">
    <g id="Group_10343-2" data-name="Group 10343" transform="translate(0 0)" clip-path="url(#clip-path)">
      <path id="Path_16675" data-name="Path 16675" d="M101.164,9.958a3.684,3.684,0,0,1,1.693.693,2.06,2.06,0,0,1,.777,1.623,2.262,2.262,0,0,1-.513,1.4,2.921,2.921,0,0,1-1.406.974,9.015,9.015,0,0,1-2.731.307h-5.13v-.267h.409a1.155,1.155,0,0,0,.978-.389,2.063,2.063,0,0,0,.184-1.076V6.9a1.82,1.82,0,0,0-.232-1.147,1.246,1.246,0,0,0-.93-.318h-.409V5.166h4.7a10.211,10.211,0,0,1,2.109.174,3.477,3.477,0,0,1,1.835.921,2.126,2.126,0,0,1,.633,1.518,1.969,1.969,0,0,1-.5,1.317,2.949,2.949,0,0,1-1.467.863m-4.2-.39a6.311,6.311,0,0,0,.677.075c.255.018.533.025.839.025a5.2,5.2,0,0,0,1.76-.227,1.85,1.85,0,0,0,.9-.7,1.791,1.791,0,0,0-.465-2.488,3.623,3.623,0,0,0-2.269-.608,5.972,5.972,0,0,0-1.442.159Zm0,4.676a8.888,8.888,0,0,0,1.835.2,3.562,3.562,0,0,0,2.213-.589,1.772,1.772,0,0,0,.761-1.453,1.972,1.972,0,0,0-.344-1.1,2.27,2.27,0,0,0-1.123-.83,5.308,5.308,0,0,0-1.923-.3c-.333,0-.616.006-.851.015a4.606,4.606,0,0,0-.569.051Z" transform="translate(-36.372 -2.002)" fill="#ae1c3f" fill-rule="evenodd"/>
      <path id="Path_16676" data-name="Path 16676" d="M101.164,9.958a3.684,3.684,0,0,1,1.693.693,2.06,2.06,0,0,1,.777,1.623,2.262,2.262,0,0,1-.513,1.4,2.921,2.921,0,0,1-1.406.974,9.015,9.015,0,0,1-2.731.307h-5.13v-.267h.409a1.155,1.155,0,0,0,.978-.389,2.063,2.063,0,0,0,.184-1.076V6.9a1.82,1.82,0,0,0-.232-1.147,1.246,1.246,0,0,0-.93-.318h-.409V5.166h4.7a10.211,10.211,0,0,1,2.109.174,3.477,3.477,0,0,1,1.835.921,2.126,2.126,0,0,1,.633,1.518,1.969,1.969,0,0,1-.5,1.317A2.949,2.949,0,0,1,101.164,9.958Zm-4.2-.39a6.311,6.311,0,0,0,.677.075c.255.018.533.025.839.025a5.2,5.2,0,0,0,1.76-.227,1.85,1.85,0,0,0,.9-.7,1.791,1.791,0,0,0-.465-2.488,3.623,3.623,0,0,0-2.269-.608,5.972,5.972,0,0,0-1.442.159Zm0,4.676a8.888,8.888,0,0,0,1.835.2,3.562,3.562,0,0,0,2.213-.589,1.772,1.772,0,0,0,.761-1.453,1.972,1.972,0,0,0-.344-1.1,2.27,2.27,0,0,0-1.123-.83,5.308,5.308,0,0,0-1.923-.3c-.333,0-.616.006-.851.015a4.606,4.606,0,0,0-.569.051Z" transform="translate(-36.372 -2.002)" fill="none" stroke="#9a232b" stroke-miterlimit="2.613" stroke-width="0.216"/>
      <path id="Path_16677" data-name="Path 16677" d="M118.88,11.534h-4.209l-.736,1.544a2.265,2.265,0,0,0-.274.851.485.485,0,0,0,.236.393,2.243,2.243,0,0,0,1.023.22v.268H111.5v-.268a1.951,1.951,0,0,0,.881-.281,4.318,4.318,0,0,0,.906-1.407L117.109,4.8h.281l3.783,8.14A3.682,3.682,0,0,0,122,14.215a1.808,1.808,0,0,0,1.038.327v.268h-4.29v-.268a1.744,1.744,0,0,0,.88-.194.488.488,0,0,0,.227-.4,2.757,2.757,0,0,0-.32-1ZM118.655,11l-1.843-3.955L114.92,11Z" transform="translate(-43.209 -1.861)" fill="#ae1c3f" fill-rule="evenodd"/>
      <path id="Path_16678" data-name="Path 16678" d="M118.88,11.534h-4.209l-.736,1.544a2.265,2.265,0,0,0-.274.851.485.485,0,0,0,.236.393,2.243,2.243,0,0,0,1.023.22v.268H111.5v-.268a1.951,1.951,0,0,0,.881-.281,4.318,4.318,0,0,0,.906-1.407L117.109,4.8h.281l3.783,8.14A3.682,3.682,0,0,0,122,14.215a1.808,1.808,0,0,0,1.038.327v.268h-4.29v-.268a1.744,1.744,0,0,0,.88-.194.488.488,0,0,0,.227-.4,2.757,2.757,0,0,0-.32-1ZM118.655,11l-1.843-3.955L114.92,11Z" transform="translate(-43.209 -1.861)" fill="none" stroke="#9a232b" stroke-miterlimit="2.613" stroke-width="0.216"/>
      <path id="Path_16679" data-name="Path 16679" d="M130.292,5.166h2.95l6.646,7.339V6.862a1.787,1.787,0,0,0-.225-1.126,1.266,1.266,0,0,0-.938-.3h-.378V5.166h3.784v.267h-.384a1.162,1.162,0,0,0-.979.375,2,2,0,0,0-.175,1.053v8.249h-.288l-7.166-7.881v6.027a1.836,1.836,0,0,0,.217,1.126,1.282,1.282,0,0,0,.936.3h.386v.268h-3.784v-.268h.378a1.17,1.17,0,0,0,.985-.374,2,2,0,0,0,.178-1.053V6.451a4.717,4.717,0,0,0-.72-.657A2.706,2.706,0,0,0,131,5.5a2.853,2.853,0,0,0-.706-.065Z" transform="translate(-50.493 -2.002)" fill="#ae1c3f" fill-rule="evenodd"/>
      <path id="Path_16680" data-name="Path 16680" d="M130.292,5.166h2.95l6.646,7.339V6.862a1.787,1.787,0,0,0-.225-1.126,1.266,1.266,0,0,0-.938-.3h-.378V5.166h3.784v.267h-.384a1.162,1.162,0,0,0-.979.375,2,2,0,0,0-.175,1.053v8.249h-.288l-7.166-7.881v6.027a1.836,1.836,0,0,0,.217,1.126,1.282,1.282,0,0,0,.936.3h.386v.268h-3.784v-.268h.378a1.17,1.17,0,0,0,.985-.374,2,2,0,0,0,.178-1.053V6.451a4.717,4.717,0,0,0-.72-.657A2.706,2.706,0,0,0,131,5.5a2.853,2.853,0,0,0-.706-.065Z" transform="translate(-50.493 -2.002)" fill="none" stroke="#9a232b" stroke-miterlimit="2.613" stroke-width="0.216"/>
      <path id="Path_16681" data-name="Path 16681" d="M155.083,9.525l4.007,3.586a7.233,7.233,0,0,0,1.682,1.21,3.953,3.953,0,0,0,1.4.364v.267H157v-.267a1.2,1.2,0,0,0,.668-.141.391.391,0,0,0,.206-.313.623.623,0,0,0-.077-.311,2.841,2.841,0,0,0-.5-.512l-3.754-3.342V13.22a2.939,2.939,0,0,0,.1.981.685.685,0,0,0,.337.311,1.611,1.611,0,0,0,.73.173h.369v.267h-4.634v-.267h.385a1.23,1.23,0,0,0,.979-.354A2.013,2.013,0,0,0,152,13.22V6.9a3.037,3.037,0,0,0-.1-.989.7.7,0,0,0-.331-.3,1.639,1.639,0,0,0-.737-.173h-.385V5.166h4.634v.267h-.369a1.7,1.7,0,0,0-.73.165.657.657,0,0,0-.345.347,3.012,3.012,0,0,0-.1.953V9.892l1.1-.916a22.99,22.99,0,0,0,2.879-2.619.894.894,0,0,0,.217-.5.358.358,0,0,0-.169-.292A.957.957,0,0,0,157,5.433h-.25V5.166h3.992v.267a2.643,2.643,0,0,0-.641.086,3.461,3.461,0,0,0-.7.307,6.8,6.8,0,0,0-1.026.733q-.176.142-1.628,1.478Z" transform="translate(-58.304 -2.002)" fill="#ae1c3f" fill-rule="evenodd"/>
      <path id="Path_16682" data-name="Path 16682" d="M155.083,9.525l4.007,3.586a7.233,7.233,0,0,0,1.682,1.21,3.953,3.953,0,0,0,1.4.364v.267H157v-.267a1.2,1.2,0,0,0,.668-.141.391.391,0,0,0,.206-.313.623.623,0,0,0-.077-.311,2.841,2.841,0,0,0-.5-.512l-3.754-3.342V13.22a2.939,2.939,0,0,0,.1.981.685.685,0,0,0,.337.311,1.611,1.611,0,0,0,.73.173h.369v.267h-4.634v-.267h.385a1.23,1.23,0,0,0,.979-.354A2.013,2.013,0,0,0,152,13.22V6.9a3.037,3.037,0,0,0-.1-.989.7.7,0,0,0-.331-.3,1.639,1.639,0,0,0-.737-.173h-.385V5.166h4.634v.267h-.369a1.7,1.7,0,0,0-.73.165.657.657,0,0,0-.345.347,3.012,3.012,0,0,0-.1.953V9.892l1.1-.916a22.99,22.99,0,0,0,2.879-2.619.894.894,0,0,0,.217-.5.358.358,0,0,0-.169-.292A.957.957,0,0,0,157,5.433h-.25V5.166h3.992v.267a2.643,2.643,0,0,0-.641.086,3.461,3.461,0,0,0-.7.307,6.8,6.8,0,0,0-1.026.733q-.176.142-1.628,1.478Z" transform="translate(-58.304 -2.002)" fill="none" stroke="#9a232b" stroke-miterlimit="2.613" stroke-width="0.216"/>
      <path id="Path_16683" data-name="Path 16683" d="M37.777,14.889H33.366V14.4a5.006,5.006,0,0,0,.966-.138c.258-.069.385-.153.385-.255a1.247,1.247,0,0,0-.014-.151.754.754,0,0,0-.045-.158l-.881-2.186H30.065q-.209.481-.339.838t-.235.66a4.288,4.288,0,0,0-.135.48,1.71,1.71,0,0,0-.036.3c0,.184.155.327.469.426a4.031,4.031,0,0,0,1.061.181v.488H26.863V14.4a3.345,3.345,0,0,0,.485-.08,1.709,1.709,0,0,0,.478-.174,1.872,1.872,0,0,0,.463-.389,2.571,2.571,0,0,0,.322-.56q.8-1.836,1.76-4.126t1.717-4.077h.6l3.532,8.416a1.576,1.576,0,0,0,.254.432,1.675,1.675,0,0,0,.4.323,1.7,1.7,0,0,0,.45.162,2.53,2.53,0,0,0,.461.072ZM33.508,10.9,31.9,7.12,30.327,10.9Z" transform="translate(-10.41 -1.936)" fill="#ae1c3f" fill-rule="evenodd"/>
      <path id="Path_16684" data-name="Path 16684" d="M37.777,14.889H33.366V14.4a5.006,5.006,0,0,0,.966-.138c.258-.069.385-.153.385-.255a1.247,1.247,0,0,0-.014-.151.754.754,0,0,0-.045-.158l-.881-2.186H30.065q-.209.481-.339.838t-.235.66a4.288,4.288,0,0,0-.135.48,1.71,1.71,0,0,0-.036.3c0,.184.155.327.469.426a4.031,4.031,0,0,0,1.061.181v.488H26.863V14.4a3.345,3.345,0,0,0,.485-.08,1.709,1.709,0,0,0,.478-.174,1.872,1.872,0,0,0,.463-.389,2.571,2.571,0,0,0,.322-.56q.8-1.836,1.76-4.126t1.717-4.077h.6l3.532,8.416a1.576,1.576,0,0,0,.254.432,1.675,1.675,0,0,0,.4.323,1.7,1.7,0,0,0,.45.162,2.53,2.53,0,0,0,.461.072ZM33.508,10.9,31.9,7.12,30.327,10.9Z" transform="translate(-10.41 -1.936)" fill="none" stroke="#9a232b" stroke-miterlimit="2.613" stroke-width="0.216"/>
      <path id="Path_16685" data-name="Path 16685" d="M55.421,10.943c-.119.015-.28.036-.481.066a1.956,1.956,0,0,0-.49.127.637.637,0,0,0-.317.292,1,1,0,0,0-.092.445v.756c0,.549,0,.921.01,1.113s.016.35.026.474a11.994,11.994,0,0,1-1.978.633,8.928,8.928,0,0,1-1.934.22,5.526,5.526,0,0,1-1.956-.352,4.928,4.928,0,0,1-1.643-1,4.771,4.771,0,0,1-1.128-1.588,5.051,5.051,0,0,1-.417-2.091,5.279,5.279,0,0,1,.4-2.065,4.879,4.879,0,0,1,1.131-1.654,5,5,0,0,1,1.691-1.069,5.749,5.749,0,0,1,2.1-.382,5.449,5.449,0,0,1,1.561.2,5.857,5.857,0,0,1,1.173.481l.306-.469h.6L54.046,8.5h-.611a9.277,9.277,0,0,0-.388-1.11,3.81,3.81,0,0,0-.6-.981,2.7,2.7,0,0,0-.892-.69A2.812,2.812,0,0,0,50.3,5.457a3.278,3.278,0,0,0-1.427.3,3.045,3.045,0,0,0-1.09.89,4.035,4.035,0,0,0-.7,1.423,6.832,6.832,0,0,0-.247,1.9,6.158,6.158,0,0,0,.241,1.75,4.319,4.319,0,0,0,.707,1.42,3.315,3.315,0,0,0,1.156.963,3.476,3.476,0,0,0,1.576.35,3.684,3.684,0,0,0,1.2-.185,2.226,2.226,0,0,0,.764-.393,4.434,4.434,0,0,0,.064-.723c0-.243,0-.448,0-.618V12a1.411,1.411,0,0,0-.086-.512.572.572,0,0,0-.356-.328,2.667,2.667,0,0,0-.668-.153c-.28-.035-.5-.056-.66-.066v-.5h4.644Z" transform="translate(-17.448 -1.888)" fill="#ae1c3f" fill-rule="evenodd"/>
      <path id="Path_16686" data-name="Path 16686" d="M55.421,10.943c-.119.015-.28.036-.481.066a1.956,1.956,0,0,0-.49.127.637.637,0,0,0-.317.292,1,1,0,0,0-.092.445v.756c0,.549,0,.921.01,1.113s.016.35.026.474a11.994,11.994,0,0,1-1.978.633,8.928,8.928,0,0,1-1.934.22,5.526,5.526,0,0,1-1.956-.352,4.928,4.928,0,0,1-1.643-1,4.771,4.771,0,0,1-1.128-1.588,5.051,5.051,0,0,1-.417-2.091,5.279,5.279,0,0,1,.4-2.065,4.879,4.879,0,0,1,1.131-1.654,5,5,0,0,1,1.691-1.069,5.749,5.749,0,0,1,2.1-.382,5.449,5.449,0,0,1,1.561.2,5.857,5.857,0,0,1,1.173.481l.306-.469h.6L54.046,8.5h-.611a9.277,9.277,0,0,0-.388-1.11,3.81,3.81,0,0,0-.6-.981,2.7,2.7,0,0,0-.892-.69A2.812,2.812,0,0,0,50.3,5.457a3.278,3.278,0,0,0-1.427.3,3.045,3.045,0,0,0-1.09.89,4.035,4.035,0,0,0-.7,1.423,6.832,6.832,0,0,0-.247,1.9,6.158,6.158,0,0,0,.241,1.75,4.319,4.319,0,0,0,.707,1.42,3.315,3.315,0,0,0,1.156.963,3.476,3.476,0,0,0,1.576.35,3.684,3.684,0,0,0,1.2-.185,2.226,2.226,0,0,0,.764-.393,4.434,4.434,0,0,0,.064-.723c0-.243,0-.448,0-.618V12a1.411,1.411,0,0,0-.086-.512.572.572,0,0,0-.356-.328,2.667,2.667,0,0,0-.668-.153c-.28-.035-.5-.056-.66-.066v-.5h4.644Z" transform="translate(-17.448 -1.888)" fill="none" stroke="#9a232b" stroke-miterlimit="2.613" stroke-width="0.216"/>
      <path id="Path_16687" data-name="Path 16687" d="M74.933,14.976H72.08q-.947-1.368-1.714-2.364t-1.66-2.057H67.623v3.094a1.01,1.01,0,0,0,.082.423.558.558,0,0,0,.35.279,2.5,2.5,0,0,0,.472.088c.224.028.412.045.567.05v.488h-4.48v-.488c.119-.01.292-.025.52-.05a1.869,1.869,0,0,0,.473-.088.627.627,0,0,0,.325-.262.856.856,0,0,0,.1-.44V6.6a1.139,1.139,0,0,0-.073-.426.543.543,0,0,0-.351-.283,3.471,3.471,0,0,0-.485-.111,4.511,4.511,0,0,0-.508-.067V5.219H69.5a6.056,6.056,0,0,1,1.262.127,3.558,3.558,0,0,1,1.068.41,2.144,2.144,0,0,1,.739.718,1.986,1.986,0,0,1,.274,1.069,2.486,2.486,0,0,1-.186,1,2.058,2.058,0,0,1-.552.75A3.251,3.251,0,0,1,71.3,9.8a6.281,6.281,0,0,1-1.038.367q.785.957,1.3,1.61t1.272,1.587a3.378,3.378,0,0,0,.593.609,3.331,3.331,0,0,0,.528.32,1.848,1.848,0,0,0,.483.136,4.009,4.009,0,0,0,.487.056ZM71.006,7.7a1.829,1.829,0,0,0-.554-1.4,2.184,2.184,0,0,0-1.559-.519h-1.27V9.964H68.6a2.489,2.489,0,0,0,1.717-.609A2.1,2.1,0,0,0,71.006,7.7" transform="translate(-25.04 -2.023)" fill="#ae1c3f" fill-rule="evenodd"/>
      <path id="Path_16688" data-name="Path 16688" d="M74.933,14.976H72.08q-.947-1.368-1.714-2.364t-1.66-2.057H67.623v3.094a1.01,1.01,0,0,0,.082.423.558.558,0,0,0,.35.279,2.5,2.5,0,0,0,.472.088c.224.028.412.045.567.05v.488h-4.48v-.488c.119-.01.292-.025.52-.05a1.869,1.869,0,0,0,.473-.088.627.627,0,0,0,.325-.262.856.856,0,0,0,.1-.44V6.6a1.139,1.139,0,0,0-.073-.426.543.543,0,0,0-.351-.283,3.471,3.471,0,0,0-.485-.111,4.511,4.511,0,0,0-.508-.067V5.219H69.5a6.056,6.056,0,0,1,1.262.127,3.558,3.558,0,0,1,1.068.41,2.144,2.144,0,0,1,.739.718,1.986,1.986,0,0,1,.274,1.069,2.486,2.486,0,0,1-.186,1,2.058,2.058,0,0,1-.552.75A3.251,3.251,0,0,1,71.3,9.8a6.281,6.281,0,0,1-1.038.367q.785.957,1.3,1.61t1.272,1.587a3.378,3.378,0,0,0,.593.609,3.331,3.331,0,0,0,.528.32,1.848,1.848,0,0,0,.483.136,4.009,4.009,0,0,0,.487.056ZM71.006,7.7a1.829,1.829,0,0,0-.554-1.4,2.184,2.184,0,0,0-1.559-.519h-1.27V9.964H68.6a2.489,2.489,0,0,0,1.717-.609A2.1,2.1,0,0,0,71.006,7.7Z" transform="translate(-25.04 -2.023)" fill="none" stroke="#9a232b" stroke-miterlimit="2.613" stroke-width="0.216"/>
      <path id="Path_16689" data-name="Path 16689" d="M87.919,14.905H83.148v-.439l.582-.037a2.642,2.642,0,0,0,.538-.073.752.752,0,0,0,.357-.22.6.6,0,0,0,.113-.386V6.6a2.334,2.334,0,0,0-.084-.659.646.646,0,0,0-.386-.244,4.385,4.385,0,0,0-.564-.139,4.331,4.331,0,0,0-.556-.078V5.038h4.771v.439a5.408,5.408,0,0,0-.553.047,4.492,4.492,0,0,0-.56.1.6.6,0,0,0-.381.242.728.728,0,0,0-.1.371v7.443a.629.629,0,0,0,.107.362.726.726,0,0,0,.37.25,4.752,4.752,0,0,0,.512.108,4.562,4.562,0,0,0,.6.064Z" transform="translate(-32.223 -1.952)" fill="#ae1c3f" fill-rule="evenodd"/>
      <path id="Path_16690" data-name="Path 16690" d="M87.919,14.905H83.148v-.439l.582-.037a2.642,2.642,0,0,0,.538-.073.752.752,0,0,0,.357-.22.6.6,0,0,0,.113-.386V6.6a2.334,2.334,0,0,0-.084-.659.646.646,0,0,0-.386-.244,4.385,4.385,0,0,0-.564-.139,4.331,4.331,0,0,0-.556-.078V5.038h4.771v.439a5.408,5.408,0,0,0-.553.047,4.492,4.492,0,0,0-.56.1.6.6,0,0,0-.381.242.728.728,0,0,0-.1.371v7.443a.629.629,0,0,0,.107.362.726.726,0,0,0,.37.25,4.752,4.752,0,0,0,.512.108,4.562,4.562,0,0,0,.6.064Z" transform="translate(-32.223 -1.952)" fill="none" stroke="#9a232b" stroke-miterlimit="2.613" stroke-width="0.216"/>
      <rect id="Rectangle_5133" data-name="Rectangle 5133" width="13.987" height="13.821" rx="1.067" transform="translate(0.066 0.066)" fill="#fff"/>
      <rect id="Rectangle_5134" data-name="Rectangle 5134" width="13.987" height="13.821" rx="1.067" transform="translate(0.066 0.066)" fill="none" stroke="#bbbdbf" stroke-miterlimit="22.926" stroke-width="0.216"/>
      <path id="Path_16691" data-name="Path 16691" d="M8.07,16.32h7.515a.922.922,0,0,0,.924-.912l0-7.429Z" transform="translate(-3.127 -3.092)" fill="#053f2b" fill-rule="evenodd"/>
      <path id="Path_16692" data-name="Path 16692" d="M13.85,2.1a.917.917,0,0,0-.925-.913H10.159L1.2,10.051v2.721a.916.916,0,0,0,.924.915h2.72l9-8.9Z" transform="translate(-0.465 -0.46)" fill="#ae1c3f" fill-rule="evenodd"/>
      <path id="Path_16693" data-name="Path 16693" d="M2.127,1.184A.909.909,0,0,0,1.2,2.1V9.482l8.4-8.3Z" transform="translate(-0.466 -0.459)" fill="#053f2b" fill-rule="evenodd"/>
      <path id="Path_16694" data-name="Path 16694" d="M8.592,20.365a5.3,5.3,0,0,1,.924-.267,1.257,1.257,0,0,0,1.094-1.256c-.012-.258-.4.07-.4.07a3.892,3.892,0,0,0-1.093.306,1.381,1.381,0,0,0-.523,1.148" transform="translate(-3.33 -7.263)" fill="#fcdc08" fill-rule="evenodd"/>
      <path id="Path_16695" data-name="Path 16695" d="M8.592,20.365a5.3,5.3,0,0,1,.924-.267,1.257,1.257,0,0,0,1.094-1.256c-.012-.258-.4.07-.4.07a3.892,3.892,0,0,0-1.093.306A1.381,1.381,0,0,0,8.592,20.365Z" transform="translate(-3.33 -7.263)" fill="none" stroke="#9a232b" stroke-miterlimit="2.613" stroke-width="0.216"/>
      <path id="Path_16696" data-name="Path 16696" d="M12.857,16.2s.181,1.123-.722,1.48a8.614,8.614,0,0,0-1.049.424,1.209,1.209,0,0,1,.462-1.25,4.71,4.71,0,0,1,.936-.4.756.756,0,0,0,.372-.254" transform="translate(-4.285 -6.279)" fill="#fcdc08" fill-rule="evenodd"/>
      <path id="Path_16697" data-name="Path 16697" d="M12.857,16.2s.181,1.123-.722,1.48a8.614,8.614,0,0,0-1.049.424,1.209,1.209,0,0,1,.462-1.25,4.71,4.71,0,0,1,.936-.4A.756.756,0,0,0,12.857,16.2Z" transform="translate(-4.285 -6.279)" fill="none" stroke="#9a232b" stroke-miterlimit="2.613" stroke-width="0.216"/>
      <path id="Path_16698" data-name="Path 16698" d="M14.011,13.935a1.145,1.145,0,0,1-.069,1.461c-.135.18-.812.613-.981.815a1.444,1.444,0,0,1,.069-1.316,3.751,3.751,0,0,1,.665-.6,1.532,1.532,0,0,0,.315-.358" transform="translate(-4.972 -5.4)" fill="#fcdc08" fill-rule="evenodd"/>
      <path id="Path_16699" data-name="Path 16699" d="M14.011,13.935a1.145,1.145,0,0,1-.069,1.461c-.135.18-.812.613-.981.815a1.444,1.444,0,0,1,.069-1.316,3.751,3.751,0,0,1,.665-.6A1.532,1.532,0,0,0,14.011,13.935Z" transform="translate(-4.972 -5.4)" fill="none" stroke="#9a232b" stroke-miterlimit="2.613" stroke-width="0.216"/>
      <path id="Path_16700" data-name="Path 16700" d="M13.451,11.512s-.528.3-.177,1.173a7.07,7.07,0,0,1,.456,1.023,1.155,1.155,0,0,0,.435-1.362,1.724,1.724,0,0,0-.714-.835" transform="translate(-5.097 -4.461)" fill="#fcdc08" fill-rule="evenodd"/>
      <path id="Path_16701" data-name="Path 16701" d="M13.451,11.512s-.528.3-.177,1.173a7.07,7.07,0,0,1,.456,1.023,1.155,1.155,0,0,0,.435-1.362A1.724,1.724,0,0,0,13.451,11.512Z" transform="translate(-5.097 -4.461)" fill="none" stroke="#9a232b" stroke-miterlimit="2.613" stroke-width="0.216"/>
      <path id="Path_16702" data-name="Path 16702" d="M11.417,9.578a1.174,1.174,0,0,0,.249,1.063c.181.21.993.456,1.343.713,0,0,.428-1.383-1.592-1.776" transform="translate(-4.41 -3.712)" fill="#fcdc08" fill-rule="evenodd"/>
      <path id="Path_16703" data-name="Path 16703" d="M11.417,9.578a1.174,1.174,0,0,0,.249,1.063c.181.21.993.456,1.343.713C13.009,11.354,13.437,9.971,11.417,9.578Z" transform="translate(-4.41 -3.712)" fill="none" stroke="#9a232b" stroke-miterlimit="2.613" stroke-width="0.216"/>
      <path id="Path_16704" data-name="Path 16704" d="M9.6,7.979s1.756.125,1.52,1.714a5.588,5.588,0,0,0-.721-.374c-.141-.069-.842-.288-.8-.939.012-.179,0-.4,0-.4" transform="translate(-3.72 -3.092)" fill="#fcdc08" fill-rule="evenodd"/>
      <path id="Path_16705" data-name="Path 16705" d="M9.6,7.979s1.756.125,1.52,1.714a5.588,5.588,0,0,0-.721-.374c-.141-.069-.842-.288-.8-.939C9.613,8.2,9.6,7.979,9.6,7.979Z" transform="translate(-3.72 -3.092)" fill="none" stroke="#9a232b" stroke-miterlimit="2.613" stroke-width="0.216"/>
      <path id="Path_16706" data-name="Path 16706" d="M9.391,5.444a1.128,1.128,0,0,0-.328,1.315,1.883,1.883,0,0,0,.576.682s.2-.57.328-.983c.046-.168.17-.825-.238-1.082a.245.245,0,0,0-.338.067" transform="translate(-3.477 -2.068)" fill="#fcdc08" fill-rule="evenodd"/>
      <path id="Path_16707" data-name="Path 16707" d="M9.391,5.444a1.128,1.128,0,0,0-.328,1.315,1.883,1.883,0,0,0,.576.682s.2-.57.328-.983c.046-.168.17-.825-.238-1.082A.245.245,0,0,0,9.391,5.444Z" transform="translate(-3.477 -2.068)" fill="none" stroke="#9a232b" stroke-miterlimit="2.613" stroke-width="0.216"/>
      <path id="Path_16708" data-name="Path 16708" d="M9.392,5.125S8.885,3.652,10.7,3.252a.859.859,0,0,1-.259,1.159c-.179.168-.935.546-1.05.714" transform="translate(-3.614 -1.26)" fill="#fcdc08" fill-rule="evenodd"/>
      <path id="Path_16709" data-name="Path 16709" d="M9.392,5.125S8.885,3.652,10.7,3.252a.859.859,0,0,1-.259,1.159C10.263,4.579,9.507,4.958,9.392,5.125Z" transform="translate(-3.614 -1.26)" fill="none" stroke="#9a232b" stroke-miterlimit="2.613" stroke-width="0.216"/>
    </g>
  </g>
</svg>
