<svg id="Group_18174" data-name="Group 18174" xmlns="http://www.w3.org/2000/svg" width="104" height="52" viewBox="0 0 104 52">
  <g id="boundingbox" fill="rgba(255,0,0,0.1)" stroke="red" stroke-width="1" stroke-dasharray="4 4" opacity="0">
    <rect width="104" height="52" stroke="none"/>
    <rect x="0.5" y="0.5" width="103" height="51" fill="none"/>
  </g>
  <g id="Group_18095" data-name="Group 18095" transform="translate(-99.629 -213.674)">
    <g id="Group_17757" data-name="Group 17757" transform="translate(174.266 225.258)">
      <path id="Path_45141" data-name="Path 45141" d="M467.009,249.726a4.275,4.275,0,0,0-.879-.989h0a8.5,8.5,0,0,0-3.753-1.937.2.2,0,0,1-.156-.218,8.4,8.4,0,0,0-.484-3.884,5.278,5.278,0,0,0-.61.337l-.019.012a7.687,7.687,0,0,1,.311,4.081.212.212,0,0,0,.178.248,7.782,7.782,0,0,1,4.81,2.657,8.982,8.982,0,0,1-3.678,1.919.206.206,0,0,0-.157.211,8.93,8.93,0,0,1-1.048,4.651c4.62,1.651,8.107-3.043,5.485-7.091" transform="translate(-448.441 -239.096)" fill="#ffc629"/>
      <path id="Path_45142" data-name="Path 45142" d="M432.711,235.857a8.569,8.569,0,0,0-3.9,3.433.2.2,0,0,1-.255.083,8.427,8.427,0,0,0-3.826-.741,5.236,5.236,0,0,0,.112.692l0,.016a7.663,7.663,0,0,1,3.978.967.212.212,0,0,0,.294-.093,7.809,7.809,0,0,1,4-3.76l.1.24a8.812,8.812,0,0,1,.6,3.859.206.206,0,0,0,.152.214,8.854,8.854,0,0,1,3.366,1.757h0c.248.217.493.438.724.679a4.741,4.741,0,0,0-5.351-7.343" transform="translate(-419.582 -233.385)" fill="#ffc629"/>
      <path id="Path_45143" data-name="Path 45143" d="M411.847,262.485l.011-.026c-.062-.04-.119-.08-.178-.124a7.742,7.742,0,0,1-2.472-3,.212.212,0,0,0-.291-.1,7.74,7.74,0,0,1-5.45.683,9.018,9.018,0,0,1,1.846-3.718.207.207,0,0,0,0-.263,8.9,8.9,0,0,1-1.881-4.386v-.016a4.6,4.6,0,0,0-1.337.616h0c-4.45,2.93-1.9,8.956,3.193,8.7a8.46,8.46,0,0,0,3.336-.683.2.2,0,0,1,.26.084,8.434,8.434,0,0,0,2.653,2.847,5.319,5.319,0,0,0,.31-.612" transform="translate(-399.804 -246.106)" fill="#ffc629"/>
      <path id="Path_45144" data-name="Path 45144" d="M431.634,275.478l-.012-.01a7.691,7.691,0,0,1-3.783,1.558.212.212,0,0,0-.182.248,7.683,7.683,0,0,1-1.042,5.4l-.212-.137a8.777,8.777,0,0,1-2.739-2.768.206.206,0,0,0-.248-.083,8.923,8.923,0,0,1-4.746.44,4.61,4.61,0,0,0,8.111,3.428,7.716,7.716,0,0,0,1.667-5.708.212.212,0,0,1,.165-.221,8.466,8.466,0,0,0,3.539-1.659,5.313,5.313,0,0,0-.515-.482" transform="translate(-414.764 -265.095)" fill="#ffc629"/>
      <path id="Path_45145" data-name="Path 45145" d="M427.279,226.814h0a4.652,4.652,0,0,0-8.048,3.8v0a8.524,8.524,0,0,0,2.019,4.471.2.2,0,0,1,0,.27,8.5,8.5,0,0,0-1.883,3.415,5.3,5.3,0,0,0,.683.107h.027a7.708,7.708,0,0,1,2.148-3.494.212.212,0,0,0,0-.306q-.175-.17-.338-.352a7.811,7.811,0,0,1-2-4.628,8.964,8.964,0,0,1,4.1.609.206.206,0,0,0,.252-.079,8.92,8.92,0,0,1,3.58-3.144,4.616,4.616,0,0,0-.544-.676" transform="translate(-415.181 -225.258)" fill="#ffc629"/>
    </g>
    <path id="Path_45146" data-name="Path 45146" d="M115.524,267.678V249.236a.8.8,0,0,1,.8-.8h8.1c4.066,0,5.928,2.235,5.928,4.812a4.422,4.422,0,0,1-3.43,4.668.027.027,0,0,0,0,.053,5.029,5.029,0,0,1,4.088,5.045c0,3.007-2.177,5.47-6.214,5.47h-8.476a.8.8,0,0,1-.8-.8m7.99-10.766c2.463,0,3.291-1.375,3.291-2.98s-.831-2.778-3.322-2.778h-4.5v5.757Zm.258,8.849c2.749,0,3.78-1.375,3.78-3.179s-1.118-3.291-3.78-3.291H118.99v6.472Z" transform="translate(0 -18.39)" fill="#006b68"/>
    <path id="Path_45147" data-name="Path 45147" d="M196.69,267.679V248.436h2.662a.8.8,0,0,1,.8.8v19.243h-2.662a.8.8,0,0,1-.8-.8" transform="translate(-64.395 -18.391)" fill="#006b68"/>
    <path id="Path_45148" data-name="Path 45148" d="M222.914,268.482V249.239a.8.8,0,0,1,.8-.8h7.616c5.3,0,8.592,3.78,8.592,9.935,0,6.129-3.151,10.109-8.448,10.109Zm7.818-2.72c3.726,0,5.585-2.492,5.585-7.331,0-4.9-1.947-7.274-5.67-7.274h-4.264v14.605Z" transform="translate(-85.2 -18.391)" fill="#006b68"/>
    <path id="Path_45149" data-name="Path 45149" d="M312.676,268.483h-3.034a2.025,2.025,0,0,1-2.279-1.626l-6.342-18.421h2.885a1.248,1.248,0,0,1,1.143.822l4.821,14.384c.172.572.344,1.2.487,1.863a13.725,13.725,0,0,1,.487-1.863l4.529-13.436a2.393,2.393,0,0,1,2.328-1.77h3.459a.111.111,0,0,1,.1.081c.071.267-.121.435-.35.59-.34.233-.574.338-.886.573a5.805,5.805,0,0,0-1.693,2.571c-.156.391-.295.792-.435,1.191Z" transform="translate(-147.168 -18.392)" fill="#006b68"/>
  </g>
</svg>
