<svg id="sacombank" xmlns="http://www.w3.org/2000/svg" width="104.429" height="52" viewBox="0 0 104.429 52">
  <g id="boundingbox" fill="rgba(255,0,0,0.1)" stroke="red" stroke-width="1" stroke-dasharray="4 4" opacity="0">
    <rect width="104" height="52" stroke="none"/>
    <rect x="0.5" y="0.5" width="103" height="51" fill="none"/>
  </g>
  <g id="Group_10353" data-name="Group 10353" transform="translate(0 15.513)">
    <path id="Union_4" data-name="Union 4" d="M.631,13.548h0L.7,13.57l-.072-.024C-1.164,11.487.684,2.673,8.565.03L8.531.061,8.563.032A1.824,1.824,0,0,1,8.911,0c2.868,0,8.975,5.846,7.393,13.658v0c-.511,1.492-3.576,3.057-7.274,3.057A12.551,12.551,0,0,1,.631,13.548Zm10.39.824c2.271-.127,4.227-1.892,4.486-3.225a10.888,10.888,0,0,0-1.1-1.95A5.933,5.933,0,0,1,11.021,14.372Zm-4.448-.406a10.278,10.278,0,0,1-1.127.172,5.934,5.934,0,0,1-2.79-5.522c-1.027,2.032-.474,4.611.551,5.5A10.525,10.525,0,0,0,6.574,13.965Zm1.256-.36-.044.017c3.2-1.144,5.127-3.834,4.97-6.223C10.171,5.228,6.9,4.911,4.914,6.235,4.327,9.559,5.691,12.552,7.83,13.605ZM5.348,4.629,5.359,4.6ZM5.36,4.6c.023-.062.046-.123.069-.182Q5.394,4.5,5.36,4.6Zm6.461-.344c-1.248-1.9-3.758-2.716-5.04-2.271A10.869,10.869,0,0,0,5.644,3.907,5.364,5.364,0,0,1,8.425,3.2,5.872,5.872,0,0,1,11.822,4.251Z" transform="translate(0.001 0)" fill="#f6931e"/>
    <path id="Union_6" data-name="Union 6" d="M28.709,11.052c-1.054-.733-1.323-1.646-1.323-3.368V6.032c0-1.691.189-2.759,1.269-3.415a5.1,5.1,0,0,1,2.863-.584c1.868,0,2.554.206,3.09.586A3.135,3.135,0,0,1,35.633,5.48H33.805a2.472,2.472,0,0,0-.845-1.9,2.822,2.822,0,0,0-2.66-.013c-.715.459-.863,1.737-.863,2.878v.9c0,1.1.083,2.3.963,2.812a2.422,2.422,0,0,0,1.4.3,3.4,3.4,0,0,0,2.029-.685V7.816H31.89V6.431h3.743v4.251a6.583,6.583,0,0,1-3.816,1A5.384,5.384,0,0,1,28.709,11.052ZM13.5,11.675h0c-1.286,0-2.6-.068-3.518-1.056a4.167,4.167,0,0,1-.8-2.863V5.971c0-1.171.019-2.557,1.227-3.33a4.417,4.417,0,0,1,1.967-.587c.275-.022.518-.022.857-.022h.539c.339,0,.582,0,.857.022a4.415,4.415,0,0,1,1.967.587c1.207.772,1.227,2.158,1.227,3.33V7.755a4.167,4.167,0,0,1-.8,2.863c-.914.988-2.232,1.052-3.517,1.056ZM13.053,3.26a2.64,2.64,0,0,0-.977.319c-.855.61-.845,2.159-.845,2.956v.67c0,.857-.02,2.252.845,2.886a2.694,2.694,0,0,0,1.419.359,2.69,2.69,0,0,0,1.419-.359c.866-.633.845-2.029.845-2.886v-.67c0-.8.01-2.346-.845-2.956a2.635,2.635,0,0,0-.976-.319,2.945,2.945,0,0,0-.442-.017h-.11A2.554,2.554,0,0,0,13.053,3.26Zm31.664,8.249c-.11-.331-.459-1.384-.7-2.075-.176-.509-.606-1.635-.606-1.635H39.128s-.411,1.091-.569,1.6c-.231.7-.518,1.7-.618,2.112H36.087s3.442-9.679,3.589-10.1A1.971,1.971,0,0,1,41.588,0h1.094l4.311,11.509ZM41.1,2.228,39.858,5.7l-.08.222-.177.491h3.3l-.187-.491L42.634,5.7,41.376,2.228l-.138-.379ZM24.545,11.509,20.083,4.614v6.895H18.571v-8c0-.88.3-1.3,1.208-1.3.69,0,1.25,0,1.25,0S23.9,6.65,24.457,7.513c.252.382.608,1.054.608,1.054V2.205h1.568v9.3ZM0,11.509V3.5c0-.9.476-1.309,1.2-1.309H4.171c.868,0,2.613.129,3.449,1.045a4.153,4.153,0,0,1,.8,2.77V7.789A4.379,4.379,0,0,1,7.7,10.441a4.474,4.474,0,0,1-3.257,1.067Zm3.763-8.1-1.715,0v6.876H3.785c.887,0,1.787.025,2.252-.876a9.887,9.887,0,0,0,.01-5.057,1.9,1.9,0,0,0-1.92-.951C3.994,3.409,3.871,3.412,3.763,3.412Z" transform="translate(19.243 9.256)" fill="#005495" stroke="rgba(0,0,0,0)" stroke-miterlimit="10" stroke-width="1"/>
    <path id="Path_16783" data-name="Path 16783" d="M134.778,19.384c.046,0,.089,0,.13-.005a.338.338,0,0,0,.11-.025.173.173,0,0,0,.076-.065.215.215,0,0,0,.029-.121.2.2,0,0,0-.025-.1.179.179,0,0,0-.066-.059.306.306,0,0,0-.094-.029.755.755,0,0,0-.1-.007h-.27v.416Zm.09-.58a.544.544,0,0,1,.347.092.341.341,0,0,1,.113.28.316.316,0,0,1-.1.259.447.447,0,0,1-.246.1l.374.578h-.219l-.358-.562h-.216v.562h-.206V18.8Zm-.921,1.031a1.017,1.017,0,0,1-.071-.38,1,1,0,0,1,.071-.374.917.917,0,0,1,.194-.3.928.928,0,0,1,.293-.2.9.9,0,0,1,.366-.074.887.887,0,0,1,.362.074.93.93,0,0,1,.291.2.919.919,0,0,1,.195.3,1,1,0,0,1,.07.374,1.026,1.026,0,0,1-.07.38.941.941,0,0,1-.195.3.92.92,0,0,1-.291.2.9.9,0,0,1-.362.073.9.9,0,0,1-.659-.275.94.94,0,0,1-.194-.3m-.186-.821a1.114,1.114,0,0,1,.6-.587,1.135,1.135,0,0,1,1.226.234,1.145,1.145,0,0,1,.243.353,1.072,1.072,0,0,1,.09.438,1.1,1.1,0,0,1-.09.447,1.158,1.158,0,0,1-.243.356,1.1,1.1,0,0,1-.356.234,1.174,1.174,0,0,1-.87,0,1.105,1.105,0,0,1-.36-.234,1.146,1.146,0,0,1-.244-.356,1.1,1.1,0,0,1-.089-.447,1.072,1.072,0,0,1,.089-.438" transform="translate(-70.26 -9.641)" fill="#231f20" fill-rule="evenodd"/>
    <path id="Union_5" data-name="Union 5" d="M14.57,11.565a1.658,1.658,0,0,1-.426-.8A5.783,5.783,0,0,1,11.989,11.9,2.141,2.141,0,0,1,9.861,9.738,1.767,1.767,0,0,1,11.3,8a13.5,13.5,0,0,0,2.812-1.153v-.3c0-1.294-.649-2-1.553-2a.976.976,0,0,0-.78.336,2.827,2.827,0,0,0-.532,1.153.506.506,0,0,1-.514.408.832.832,0,0,1-.762-.745c0-.267.212-.462.55-.71a8.552,8.552,0,0,1,2.641-1.242,2.5,2.5,0,0,1,1.517.478,2.623,2.623,0,0,1,.8,2.182V9.685c0,.8.319,1.065.621,1.065a1.38,1.38,0,0,0,.638-.212l.178.46-1.508.9A1.436,1.436,0,0,1,14.57,11.565ZM12.45,8.195c-.692.319-1.082.638-1.082,1.295a1.281,1.281,0,0,0,1.26,1.347,2.485,2.485,0,0,0,1.481-.637V7.45C13.736,7.645,12.822,8.018,12.45,8.195ZM0,11.69v-.466c1.525-.107,1.543-.186,1.543-1.659V2.747c0-1.472.016-1.52-1.4-1.626v-.5H4.736a4.432,4.432,0,0,1,2.66.6,2.245,2.245,0,0,1,.993,1.906c0,1.684-1.418,2.26-2.394,2.543v.037c1.756.265,3.121.929,3.121,2.7a2.8,2.8,0,0,1-1.685,2.561,7.219,7.219,0,0,1-3.475.711ZM3.051,9.531c0,1.276.445,1.573,1.6,1.555,1.437,0,2.731-.629,2.731-2.491,0-1.809-1.242-2.492-3.4-2.492H3.051Zm.23-8.162c-.177.107-.23.3-.23.886V5.5h.959c1.933,0,2.748-.666,2.748-2.155,0-1.208-.673-2.155-2.358-2.155A2.874,2.874,0,0,0,3.281,1.368ZM32.453,11.689c-.832-.889-1.944-2.289-2.937-3.478-.249-.283-.391-.39-.551-.371a.564.564,0,0,0-.283.035V9.844c0,1.171.142,1.273,1.276,1.379v.466H26.12v-.466c1.188-.106,1.178-.244,1.178-1.379V2.481c0-1.171-.088-1.277-1.168-1.366V.622A13.093,13.093,0,0,0,28.681,0V7.413a1.939,1.939,0,0,0,1.118-.6A13.906,13.906,0,0,0,31.058,5.25c.373-.55.318-.693-.532-.781v-.46l3.616-.16v.443a3.382,3.382,0,0,0-2.287,1.029c-.443.462-.744.8-1.525,1.684.443.622,2.181,2.661,2.767,3.247a2.41,2.41,0,0,0,1.7.97v.466Zm-10.4,0v-.466c1.045-.106,1.17-.244,1.17-1.467V6.811c0-1.224-.425-2.022-1.613-2.022a3.249,3.249,0,0,0-1.966.9v4.15c0,1.207.106,1.273,1.153,1.379v.466H17.009v-.466c1.206-.123,1.237-.208,1.237-1.379V6.19c0-1.135-.106-1.188-1.064-1.365V4.416a10.756,10.756,0,0,0,2.465-.726V5.109c.355-.267.745-.532,1.188-.835a2.83,2.83,0,0,1,1.5-.532c1.42,0,2.288.976,2.288,2.679V9.844c0,1.207.047,1.273,1.077,1.379v.466Z" transform="translate(69.13 9.026)" fill="#231f20" stroke="rgba(0,0,0,0)" stroke-miterlimit="10" stroke-width="1"/>
    <rect id="Rectangle_5143" data-name="Rectangle 5143" width="94.877" height="20.938" transform="translate(0 0)" fill="none"/>
  </g>
</svg>
