<svg id="mbbank" xmlns="http://www.w3.org/2000/svg" xmlns:xlink="http://www.w3.org/1999/xlink" width="104" height="52" viewBox="0 0 104 52">
  <defs>
    <clipPath id="clip-path">
      <rect id="Rectangle_5448" data-name="Rectangle 5448" width="75.585" height="31.349" fill="none"/>
    </clipPath>
  </defs>
  <g id="boundingbox" fill="rgba(255,0,0,0.1)" stroke="red" stroke-width="1" stroke-dasharray="4 4" opacity="0">
    <rect width="104" height="52" stroke="none"/>
    <rect x="0.5" y="0.5" width="103" height="51" fill="none"/>
  </g>
  <g id="Group_10401" data-name="Group 10401" transform="translate(14.045 10.308)">
    <g id="Group_10401-2" data-name="Group 10401" clip-path="url(#clip-path)">
      <path id="Path_16908" data-name="Path 16908" d="M42.963,21.469a1.836,1.836,0,0,0-1.065-.712c-.013,0-.027-.006-.039-.01a.352.352,0,0,1-.039-.009l-.04-.008c-.011,0-.026-.007-.039-.011l-.04-.008a.331.331,0,0,0-.038-.009.341.341,0,0,0-.04-.01l-.038-.009-.039-.009c-.013,0-.026-.006-.039-.009l-.038-.009-.039-.009a.393.393,0,0,0-.041-.008l-.037-.011-.04-.008-.038-.01-.039-.01-.04-.008-.039-.01-.038-.009c-.013,0-.028-.006-.04-.011l-.039-.008L41,20.546l-.041-.01-.039-.009c-.013,0-.026-.007-.038-.01l-.038-.009L40.8,20.5c-.013,0-.026-.006-.038-.009l-.039-.009-.039-.009-.039-.009-.039-.011a.274.274,0,0,1-.04-.009l-.038-.009c-.013,0-.026-.006-.039-.008a.326.326,0,0,1-.039-.009c-.014,0-.026-.006-.039-.008l-.038-.011a.292.292,0,0,1-.04-.009.355.355,0,0,1-.041-.009l-.036-.008c-.013,0-.028-.007-.041-.01l-.038-.011-.04-.008-.039-.009-.039-.009-.038-.009a.233.233,0,0,0-.04-.009.236.236,0,0,0-.038-.009l-.04-.01a.226.226,0,0,0-.04-.008c-.013-.005-.026-.006-.037-.011s-.028-.006-.04-.009l-.039-.009c-.013,0-.026-.006-.039-.01a.341.341,0,0,1-.038-.009.208.208,0,0,1-.039-.01.26.26,0,0,1-.039-.008l-.04-.009-.037-.01-.041-.009-.039-.01-.038-.009-.039-.009-.04-.01-.037-.009c-.016,0-.029-.007-.04-.009l-.039-.009-.039-.008a.247.247,0,0,0-.04-.009l-.038-.01-.04-.008A.251.251,0,0,0,39,20.077l-.04-.011-.038-.009-.039-.007a.291.291,0,0,0-.038-.011l-.04-.009-.038-.009c-.014,0-.028-.006-.039-.009L38.691,20l-.038-.008-.039-.009-.039-.01c-.013,0-.025-.006-.039-.009a.377.377,0,0,0-.04-.009c-.011,0-.026-.005-.039-.009l-.037-.011a.364.364,0,0,1-.041-.008.333.333,0,0,1-.039-.01L38.3,19.91a.4.4,0,0,0-.04-.008l-.039-.011-.037-.009-.04-.01-.039-.008a.3.3,0,0,0-.04-.009l-.039-.011a.187.187,0,0,1-.039-.01l-.039-.008-.039-.009c-.013,0-.028-.005-.041-.01l-.039-.009-.038-.009-.039-.01c-.014,0-.028-.005-.04-.009a.208.208,0,0,1-.039-.01l-.039-.009-.039-.008a.385.385,0,0,0-.039-.009l-.039-.01a.391.391,0,0,0-.04-.009l-.039-.009L37.4,19.7c-.011,0-.026-.006-.038-.009l-.039-.009-.04-.009-.038-.009a.223.223,0,0,0-.039-.008l-.04-.011-.039-.009a.252.252,0,0,0-.039-.008l-.038-.009-.039-.009a.3.3,0,0,0-.039-.01l-.039-.009-.038-.01-.04-.009c-.013,0-.027-.005-.038-.009a.318.318,0,0,1-.041-.009l-.039-.009a.157.157,0,0,0-.038-.008.244.244,0,0,0-.038-.009l-.04-.01a1.4,1.4,0,0,0-.929,2.638c.012.005.023.009.035.015s.026.009.038.014a.375.375,0,0,0,.036.016l.036.015c.013.006.026.01.038.016l.036.016a.27.27,0,0,1,.038.016l.036.014.037.016.038.015a.273.273,0,0,0,.038.016.147.147,0,0,0,.036.015c.01.006.023.011.034.016a.313.313,0,0,0,.038.014c.011.007.025.011.037.018l.037.015.037.015c.012.006.026.01.036.015l.036.016a.226.226,0,0,1,.038.016c.012.006.025.009.036.014l.036.016.038.015.036.016a.261.261,0,0,0,.039.014.124.124,0,0,0,.037.016.258.258,0,0,0,.035.016l.038.014c.011.007.024.011.036.018l.036.014.037.014.037.016a.285.285,0,0,0,.037.016l.036.015c.013.006.026.009.037.016s.025.009.037.016l.036.015a.25.25,0,0,1,.038.016l.036.014a.242.242,0,0,0,.037.015l.037.016.037.015a.253.253,0,0,0,.038.016c.011.005.023.011.036.015a.28.28,0,0,1,.037.018.271.271,0,0,1,.037.014c.01.006.023.009.035.015s.026.01.039.016a.219.219,0,0,0,.036.016l.036.014.038.016.036.015.038.016.036.016a.2.2,0,0,1,.037.016c.013,0,.025.009.038.014l.035.016.038.015a.369.369,0,0,1,.035.015l.038.016a.322.322,0,0,0,.038.016.3.3,0,0,0,.035.015c.013.006.025.01.037.015a.208.208,0,0,0,.036.016l.036.015.038.015c.012.006.026.01.037.016s.026.01.037.016a.24.24,0,0,1,.037.015c.011.005.024.009.036.016l.038.014.034.016a.223.223,0,0,1,.038.014c.012.007.026.011.038.016l.036.014a.405.405,0,0,1,.038.017l.038.015.036.014a.24.24,0,0,0,.039.016c.011.006.023.009.033.016s.027.009.039.014l.037.016a.308.308,0,0,1,.036.016.38.38,0,0,0,.037.015c.012.006.025.009.036.014a.194.194,0,0,0,.038.016c.011.006.023.009.036.016s.024.009.036.014.026.009.038.016.026.01.036.015a.206.206,0,0,1,.038.018l.038.015.036.015.037.014.038.016a.27.27,0,0,1,.034.016l.038.015c.011.006.024.009.037.016a.3.3,0,0,1,.038.016c.011.006.023.008.035.014s.025.011.037.015.026.009.036.016a.3.3,0,0,0,.038.014.3.3,0,0,0,.036.016c.013.007.026.011.037.018s.024.008.036.013l.039.017.036.014c.011.006.024.01.034.016a.278.278,0,0,0,.038.014l.038.018.036.015a.357.357,0,0,1,.036.015c.013.006.026.01.037.016s.024.009.038.015.025.009.036.014l.039.016.035.015.036.016c.013.007.025.011.038.016l.037.014c.012.007.026.01.036.016l.037.016a.184.184,0,0,1,.036.016l.039.013a.315.315,0,0,0,.036.018.244.244,0,0,1,.037.016l.037.014c.011.006.024.01.035.015l.039.016c.012.005.023.009.036.016a.339.339,0,0,0,.036.014.2.2,0,0,0,.037.016.31.31,0,0,1,.037.016.233.233,0,0,1,.037.016,1.857,1.857,0,0,0,2.3-2.767" transform="translate(-13.002 -7.262)" fill="#eb2c4b"/>
      <path id="Path_16909" data-name="Path 16909" d="M33.1,26.558l-.038.006-.038.009c-.014,0-.026.006-.04.009a.332.332,0,0,0-.038.008.2.2,0,0,1-.04.008l-.039.009c-.013,0-.025.005-.039.008a.318.318,0,0,1-.037.01l-.038.008c-.014,0-.026.008-.039.01a.334.334,0,0,0-.04.008l-.038.008-.037.009-.039.006-.038.01a.237.237,0,0,1-.038.009.372.372,0,0,1-.038.008c-.014,0-.027.008-.039.01l-.038.009a.386.386,0,0,0-.039.006l-.039.009-.039.009-.037.008a.353.353,0,0,1-.039.009l-.038.009-.038.008a.3.3,0,0,1-.039.008l-.038.009-.039.008-.038.009c-.013,0-.026,0-.039.008l-.039.009-.037.008a.236.236,0,0,0-.038.009.225.225,0,0,0-.04.009.2.2,0,0,0-.038.006.309.309,0,0,1-.038.009.18.18,0,0,0-.038.009l-.039.008-.039.008-.037.009a.267.267,0,0,0-.039.008c-.013,0-.026.005-.038.009a.223.223,0,0,0-.039.008l-.038.008-.039.009-.038.008-.038.008-.039.009-.038.009-.039.009A.168.168,0,0,0,31.1,27a.275.275,0,0,0-.039.009c-.014,0-.026.006-.04.008a.2.2,0,0,0-.038.01l-.039.008-.038.008-.04.01-.037.008-.039.008a.352.352,0,0,1-.039.01.269.269,0,0,0-.038.008l-.038.009-.04.009c-.012,0-.026.006-.039.006l-.036.01-.04.009a.2.2,0,0,0-.037.007l-.039.009-.038.009-.038.008-.038.009-.039.008a.16.16,0,0,1-.038.008l-.04.009a.267.267,0,0,1-.039.008.34.34,0,0,1-.036.008c-.014,0-.026.006-.039.009l-.038.008-.039.008-.038.009-.038.008-.04.009c-.011,0-.026.006-.037.008s-.026.007-.038.01a.356.356,0,0,0-.039.008l-.037.009-.041.01a.215.215,0,0,0-.037.008.341.341,0,0,0-.04.008l-.038.008a.229.229,0,0,1-.038.008l-.038.01-.038.008-.038.009-.039.009-.039.009c-.014,0-.025.006-.039.01s-.024.005-.036.006l-.039.009a.251.251,0,0,0-.04.01.259.259,0,0,0-.038.008l-.036.007c-.014,0-.026.008-.041.01s-.024.005-.038.008-.025.007-.038.009l-.039.009-.039.008-.038.009c-.011,0-.024.006-.038.009s-.025.006-.039.008l-.038.009a.1.1,0,0,0-.038.008.387.387,0,0,0-.039.008l-.038.009-.039.008c-.012,0-.026.007-.04.008l-.038.009-.037.008-.038.009a.33.33,0,0,0-.038.008l-.039.008c-.014,0-.026.008-.04.009l-.038.009a.387.387,0,0,1-.039.007.279.279,0,0,1-.04.009c-.011,0-.024.005-.035.009a.319.319,0,0,0-.04.009l-.038.008-.039.009c-.014,0-.026.006-.038.009a.236.236,0,0,0-.039.009c-.013,0-.026.005-.039.008l-.038.009-.039.009a.256.256,0,0,0-.038.01l-.038.006-.039.009a.3.3,0,0,1-.038.008l-.039.009a.27.27,0,0,1-.038.008.172.172,0,0,1-.039.008.228.228,0,0,1-.037.009l-.04.009-.038.008-.038.009-.039.009c-.013,0-.026,0-.039.007l-.038.008-.038.01-.039.007-.037.009c-.012,0-.026.005-.038.008l-.04.008a.3.3,0,0,1-.038.009l-.038.008a1.857,1.857,0,1,0,1.072,3.534l.035-.016c.014-.005.024-.011.036-.015l.036-.016.037-.016.036-.015.037-.015.036-.016c.011-.005.025-.013.036-.016l.038-.016a.334.334,0,0,1,.036-.016.339.339,0,0,0,.034-.016.163.163,0,0,0,.036-.016c.013,0,.025-.011.037-.015l.036-.017.037-.013a.185.185,0,0,1,.036-.016l.036-.018.036-.015.036-.016c.01-.005.024-.01.036-.016a.185.185,0,0,0,.036-.015l.037-.015c.012,0,.023-.011.036-.016a.208.208,0,0,0,.036-.016l.038-.014a.261.261,0,0,1,.035-.018.24.24,0,0,0,.034-.015l.036-.015.038-.017c.012,0,.023-.011.035-.014a.273.273,0,0,0,.036-.018l.037-.014c.011,0,.024-.012.036-.016s.024-.012.036-.016l.036-.016c.013,0,.024-.011.038-.016l.035-.016.037-.016a.362.362,0,0,0,.036-.016l.035-.014.037-.016.036-.016a.205.205,0,0,0,.036-.016l.038-.016.036-.014.035-.016.037-.016a.379.379,0,0,1,.036-.016l.036-.016a.217.217,0,0,0,.034-.016c.014,0,.026-.01.038-.014s.024-.011.036-.016a.331.331,0,0,1,.037-.016.145.145,0,0,1,.035-.015l.037-.016.036-.016.036-.016.037-.016.035-.016a.228.228,0,0,0,.035-.014l.038-.016.035-.015a.22.22,0,0,0,.037-.016c.013,0,.024-.011.036-.015s.024-.013.036-.018l.036-.014.036-.016.038-.016c.012,0,.024-.011.035-.015l.037-.017a.294.294,0,0,0,.035-.014c.013-.005.023-.011.038-.018a.313.313,0,0,0,.035-.014l.037-.016.036-.016.035-.016a.235.235,0,0,0,.036-.016.28.28,0,0,0,.038-.016.3.3,0,0,0,.036-.015.356.356,0,0,0,.035-.017l.037-.014c.012,0,.023-.011.036-.016s.024-.01.037-.016l.036-.014.035-.017.038-.015c.012,0,.024-.011.037-.016l.036-.017.036-.014A.217.217,0,0,1,31.44,30a.274.274,0,0,0,.034-.015.281.281,0,0,0,.037-.017.225.225,0,0,0,.036-.014c.014,0,.024-.011.038-.016l.035-.016.036-.014a.215.215,0,0,1,.036-.018c.012,0,.023-.009.037-.015l.036-.016.036-.016a.244.244,0,0,1,.036-.015c.012-.007.024-.011.036-.018l.034-.014c.014,0,.025-.012.038-.016l.037-.016.034-.016a.3.3,0,0,1,.038-.016l.036-.015.035-.016a.136.136,0,0,0,.036-.018l.038-.016.036-.014a.319.319,0,0,1,.036-.016l.036-.016.035-.016a.243.243,0,0,0,.036-.016.284.284,0,0,0,.038-.016l.035-.014.038-.016a.3.3,0,0,1,.035-.015l.036-.017L32.6,29.5c.013,0,.024-.011.037-.014l.035-.016.036-.016.037-.016.036-.016a.222.222,0,0,0,.038-.016l.035-.015a.374.374,0,0,0,.036-.017.214.214,0,0,0,.037-.016.284.284,0,0,0,.036-.014c.013,0,.024-.011.037-.016l.034-.016a.261.261,0,0,0,.038-.016c.013,0,.024-.011.038-.016l.034-.015.038-.016.036-.016a.225.225,0,0,0,.036-.016.211.211,0,0,0,.036-.015.214.214,0,0,1,.038-.015l.036-.016a.288.288,0,0,0,.035-.016c.013,0,.024-.011.038-.016s.024-.009.036-.016l.036-.016.038-.015.034-.016c.013,0,.024-.011.036-.015l.036-.017.038-.015.035-.014c.011-.006.024-.011.037-.017a.257.257,0,0,1,.035-.015l.036-.016a1.227,1.227,0,0,0,.428-.28A1.262,1.262,0,0,0,33.1,26.558" transform="translate(-9.547 -9.895)" fill="#eb2c4b"/>
      <path id="Path_16910" data-name="Path 16910" d="M24.184.952c-.007.011-.014.024-.02.033s-.014.024-.021.035-.013.024-.02.034l-.021.034c-.006.01-.014.023-.021.033s-.014.023-.021.034l-.02.034a.3.3,0,0,0-.021.034c-.008.011-.013.023-.021.033a.206.206,0,0,0-.02.035c-.007.01-.013.023-.021.033a.256.256,0,0,0-.021.035.367.367,0,0,0-.021.033.392.392,0,0,0-.021.034c-.007.012-.013.023-.021.034s-.014.023-.02.034-.014.024-.023.034l-.019.035c-.009.011-.015.023-.022.033s-.013.023-.019.034-.016.023-.023.033-.013.023-.021.035a.24.24,0,0,1-.02.034l-.021.035c-.006.01-.012.021-.019.033l-.021.034c-.009.013-.014.023-.022.036a.223.223,0,0,0-.018.034.145.145,0,0,0-.022.033.319.319,0,0,0-.019.034.253.253,0,0,0-.022.033.223.223,0,0,0-.021.035c-.008.01-.014.021-.022.033s-.013.023-.019.035a.358.358,0,0,0-.021.034c-.007.011-.014.021-.021.034s-.013.021-.019.033-.014.021-.022.034a.19.19,0,0,0-.019.033.284.284,0,0,0-.021.034.227.227,0,0,0-.02.034l-.023.033c-.005.013-.013.022-.019.035a.32.32,0,0,0-.02.034.209.209,0,0,0-.022.034c-.008.011-.013.024-.021.034l-.021.033c-.007.013-.013.024-.021.035a.255.255,0,0,1-.023.033l-.018.035a.369.369,0,0,0-.02.034c-.008.011-.014.023-.022.034s-.015.023-.021.034-.014.023-.022.035a.341.341,0,0,0-.019.034c-.008.011-.013.023-.021.034a.233.233,0,0,0-.02.033.216.216,0,0,0-.021.035.2.2,0,0,0-.021.033A.37.37,0,0,0,22.943,3c-.008.01-.013.023-.021.033s-.013.023-.021.034-.014.023-.02.034-.014.024-.021.034a.242.242,0,0,0-.02.035.212.212,0,0,0-.021.033c-.008.012-.013.024-.021.034s-.014.023-.02.034a.224.224,0,0,0-.021.034c-.008.011-.014.024-.022.034s-.014.023-.019.033a.36.36,0,0,0-.023.034c-.006.012-.013.023-.019.035a.37.37,0,0,0-.02.034l-.021.034-.021.035c-.008.011-.013.022-.021.033l-.02.034-.021.034c-.007.011-.013.023-.021.034l-.019.033-.022.034a.3.3,0,0,0-.019.033c-.006.012-.015.023-.021.034a.29.29,0,0,0-.021.035c-.007.01-.013.023-.02.034a.338.338,0,0,1-.023.033.278.278,0,0,1-.019.036l-.022.033c-.006.012-.013.023-.02.034s-.013.022-.019.033a.252.252,0,0,0-.021.036.167.167,0,0,0-.021.033c-.007.011-.013.023-.02.034a.187.187,0,0,0-.021.033c-.006.012-.015.023-.021.033s-.014.024-.021.035l-.021.034a.326.326,0,0,0-.019.035.265.265,0,0,0-.023.034c-.006.01-.013.021-.021.034a.364.364,0,0,0-.019.034c-.008.011-.015.023-.021.034s-.014.021-.02.034a.383.383,0,0,0-.021.034c-.007.012-.014.023-.019.034a.318.318,0,0,0-.021.034.336.336,0,0,1-.021.033.233.233,0,0,1-.021.034l-.02.034c-.007.011-.013.024-.021.035s-.014.023-.021.034l-.019.034c-.009.011-.014.024-.022.034s-.015.023-.021.034-.013.023-.019.033a.392.392,0,0,0-.021.034.264.264,0,0,1-.022.034c-.005.011-.013.023-.019.034a.139.139,0,0,1-.021.034c-.007.013-.013.023-.019.035s-.014.023-.023.033l-.021.034c-.006.01-.012.022-.019.033a.374.374,0,0,0-.019.034c-.009.013-.015.024-.022.035a.186.186,0,0,0-.021.034l-.021.033c-.006.01-.015.024-.023.034s-.013.023-.021.034a.35.35,0,0,1-.02.035c-.007.01-.013.021-.021.034s-.013.023-.02.033-.013.024-.02.034a1.4,1.4,0,0,0,2.22,1.7c.01-.011.017-.022.026-.031l.026-.03c.009-.011.017-.021.026-.031s.017-.02.025-.031.017-.019.028-.028.017-.021.026-.03a.3.3,0,0,1,.025-.031c.009-.009.017-.021.026-.031s.016-.02.026-.03.017-.019.025-.03a.3.3,0,0,0,.026-.03.377.377,0,0,0,.025-.029c.01-.01.017-.02.026-.031s.016-.02.026-.03a.348.348,0,0,0,.025-.029c.01-.009.017-.02.028-.029l.025-.03.027-.031c.009-.009.016-.02.024-.029l.027-.031a.162.162,0,0,1,.026-.029.309.309,0,0,1,.026-.031c.008-.009.015-.02.024-.031a.354.354,0,0,0,.026-.029c.011-.011.018-.02.027-.031a.381.381,0,0,0,.026-.029.238.238,0,0,0,.026-.031c.01-.009.016-.019.028-.031s.016-.018.024-.029.017-.02.026-.03.018-.02.025-.031a.32.32,0,0,0,.028-.03.229.229,0,0,0,.024-.03.189.189,0,0,0,.026-.029c.011-.009.018-.02.027-.029s.016-.021.025-.029.018-.023.027-.031a.355.355,0,0,1,.025-.03c.009-.01.017-.021.028-.03a.217.217,0,0,1,.026-.029.358.358,0,0,0,.024-.033.228.228,0,0,0,.026-.029.274.274,0,0,0,.026-.029l.027-.03c.009-.009.018-.02.026-.029a.321.321,0,0,1,.026-.031c.008-.01.016-.021.025-.03s.018-.02.026-.03.017-.021.026-.03.017-.02.026-.031l.026-.029.026-.031A.274.274,0,0,0,25,5.628.3.3,0,0,1,25.03,5.6a.317.317,0,0,1,.026-.031l.026-.03.026-.031a.313.313,0,0,0,.026-.03c.009-.009.017-.02.026-.029l.026-.03a.376.376,0,0,1,.026-.03l.024-.029c.01-.01.018-.021.028-.031a.2.2,0,0,0,.025-.03.192.192,0,0,0,.026-.03l.026-.029.027-.031c.009-.008.016-.02.026-.029s.017-.02.025-.031l.026-.03c.01-.01.017-.021.026-.03s.017-.021.025-.03a.216.216,0,0,0,.027-.031c.009-.008.015-.019.026-.028a.3.3,0,0,1,.026-.03.171.171,0,0,1,.026-.031l.024-.03c.009-.008.017-.02.027-.031l.027-.028.023-.03a.3.3,0,0,0,.026-.031c.01-.009.016-.02.027-.031s.014-.019.026-.031.017-.019.026-.028a.319.319,0,0,1,.028-.031.323.323,0,0,1,.023-.03.244.244,0,0,0,.027-.03.133.133,0,0,0,.024-.029.339.339,0,0,0,.029-.031.234.234,0,0,0,.024-.029c.009-.009.018-.021.026-.029s.016-.021.026-.032.016-.02.027-.029.016-.02.025-.031a.256.256,0,0,0,.026-.031.125.125,0,0,0,.025-.029c.009-.009.018-.02.028-.029l.025-.031a.161.161,0,0,0,.024-.031.205.205,0,0,0,.027-.03c.01-.009.018-.019.027-.028s.016-.021.025-.031.018-.02.026-.03.017-.02.027-.031a.265.265,0,0,1,.024-.029c.01-.011.016-.02.026-.029a.132.132,0,0,0,.024-.03.328.328,0,0,0,.028-.031c.009-.009.016-.019.025-.029s.017-.021.025-.03.017-.021.026-.031a.218.218,0,0,0,.026-.029c.009-.009.018-.02.027-.03l.025-.029.026-.031c.009-.009.018-.02.026-.031a.368.368,0,0,1,.026-.028.347.347,0,0,0,.024-.031.32.32,0,0,0,.028-.03c.009-.011.016-.02.027-.031s.014-.019.026-.031.016-.019.025-.03a.379.379,0,0,0,.026-.028c.008-.009.016-.021.025-.031a.313.313,0,0,0,.025-.031.339.339,0,0,0,.026-.028l.026-.031c.011-.01.018-.021.027-.03l.026-.029c.009-.009.016-.02.026-.031s.016-.019.026-.029.017-.021.026-.03l.025-.031a.263.263,0,0,0,.027-.031l.026-.028a.148.148,0,0,1,.026-.03A1.857,1.857,0,1,0,24.225.883c-.007.012-.014.024-.021.034s-.013.023-.021.035" transform="translate(-7.903 0)" fill="#eb2c4b"/>
      <path id="Path_16911" data-name="Path 16911" d="M28.525,9.4a1.257,1.257,0,0,0-.682,1,.4.4,0,0,0-.005.041c0,.012,0,.026,0,.04s0,.027-.005.038a.31.31,0,0,0,0,.04c0,.014,0,.028-.005.041s0,.027,0,.04,0,.027,0,.039,0,.028,0,.041,0,.026-.006.039a.291.291,0,0,1,0,.04c0,.013,0,.027,0,.04a.216.216,0,0,0,0,.04.144.144,0,0,0-.005.04c0,.013,0,.026,0,.04a.167.167,0,0,1,0,.04c0,.013,0,.026,0,.04s0,.027,0,.041,0,.026,0,.04,0,.025-.005.039,0,.026,0,.04,0,.028,0,.041,0,.026,0,.039,0,.025,0,.039,0,.026,0,.04a.289.289,0,0,0,0,.041c0,.012,0,.026,0,.04s0,.026-.005.039,0,.026,0,.04a.32.32,0,0,0,0,.039c0,.014,0,.028,0,.041a.264.264,0,0,0,0,.039c0,.015,0,.028,0,.041l0,.04a.206.206,0,0,0,0,.04c0,.014,0,.027,0,.04a.38.38,0,0,0,0,.04c0,.013,0,.027,0,.041s0,.028,0,.039a.11.11,0,0,0-.005.04.287.287,0,0,0,0,.04c0,.013,0,.026-.006.04s0,.025,0,.039,0,.027,0,.04,0,.026,0,.04,0,.028,0,.038,0,.03-.006.041l0,.04a.416.416,0,0,0-.005.041c0,.011,0,.025,0,.039a.2.2,0,0,0-.005.04c0,.013,0,.026,0,.039s0,.027,0,.041,0,.026,0,.04l0,.039c0,.014,0,.028,0,.041l0,.04c0,.011,0,.025,0,.039s0,.026,0,.04,0,.028,0,.04a.3.3,0,0,1,0,.04c0,.013,0,.026,0,.04a.169.169,0,0,0,0,.04c0,.014,0,.027,0,.039a.3.3,0,0,0,0,.039c0,.013,0,.027,0,.041a.174.174,0,0,0,0,.04.313.313,0,0,0,0,.04c0,.014,0,.025,0,.039a.323.323,0,0,1-.005.04c0,.015,0,.028,0,.04a.189.189,0,0,0-.005.043c0,.012,0,.025,0,.039s0,.026,0,.039l0,.039c0,.013,0,.026,0,.04s0,.026,0,.04,0,.026-.005.04,0,.026,0,.041,0,.025,0,.039,0,.026,0,.039,0,.027-.005.04,0,.027,0,.039,0,.026,0,.04,0,.026,0,.04,0,.028-.005.041,0,.026,0,.039,0,.026,0,.039,0,.028-.005.041,0,.026,0,.04,0,.025,0,.038a.281.281,0,0,0-.006.04c0,.014,0,.026,0,.04s0,.028,0,.041a.368.368,0,0,0,0,.039c0,.013,0,.028-.005.041a.212.212,0,0,1,0,.04c0,.013,0,.026,0,.041s0,.024,0,.039,0,.025,0,.04a.281.281,0,0,0,0,.039.337.337,0,0,1,0,.038.373.373,0,0,1,0,.04c0,.013,0,.028,0,.041s0,.027,0,.04a.364.364,0,0,0,0,.04.171.171,0,0,0-.005.039c0,.013,0,.026,0,.04s0,.026,0,.039,0,.027,0,.038,0,.028,0,.041,0,.027-.005.04a.289.289,0,0,1,0,.04c0,.013,0,.026,0,.04s0,.028,0,.039,0,.026,0,.04,0,.027,0,.04a.292.292,0,0,0,0,.04.233.233,0,0,0,0,.04c0,.015,0,.028,0,.041a.308.308,0,0,1,0,.039c0,.013,0,.026,0,.04s0,.026,0,.04a.312.312,0,0,0-.006.04c0,.013,0,.027,0,.04s0,.027,0,.04,0,.026,0,.04,0,.025,0,.04l0,.038a.315.315,0,0,1-.006.039c0,.015,0,.028,0,.04s0,.027,0,.041l0,.039c0,.014,0,.028,0,.041a.308.308,0,0,0,0,.039c0,.014,0,.028-.005.041s0,.027,0,.041a.165.165,0,0,1,0,.039.208.208,0,0,1,0,.04c0,.014,0,.026,0,.04s0,.026,0,.04,0,.026-.006.039,0,.028,0,.041,0,.026,0,.04,0,.027,0,.04,0,.026,0,.04,0,.027,0,.04,0,.026-.005.04a.294.294,0,0,0,0,.04.179.179,0,0,0,0,.039.317.317,0,0,0,0,.04c0,.014,0,.028,0,.041s0,.027,0,.04,0,.027,0,.038a1.832,1.832,0,0,0,.189,1.078,1.855,1.855,0,0,0,3.5-1.005.4.4,0,0,1,0-.04.311.311,0,0,0,0-.041c0-.013,0-.026,0-.04a.358.358,0,0,0,0-.04c0-.013,0-.026,0-.04s0-.026-.005-.041,0-.026,0-.04a.287.287,0,0,0,0-.039c0-.013,0-.027,0-.039a.369.369,0,0,0-.005-.04.326.326,0,0,0,0-.041c0-.012,0-.025,0-.04a.273.273,0,0,1,0-.04c0-.013,0-.025,0-.04s0-.026-.006-.04,0-.026,0-.04,0-.028,0-.039,0-.028,0-.041,0-.026,0-.039a.271.271,0,0,0,0-.04c0-.013,0-.026,0-.04s0-.027-.006-.04,0-.028,0-.041,0-.026,0-.039a.218.218,0,0,0,0-.04c0-.013,0-.027,0-.039s-.005-.026-.005-.04,0-.026,0-.041a.259.259,0,0,1,0-.039.255.255,0,0,0-.006-.038c0-.015,0-.028,0-.042s0-.026,0-.039,0-.027,0-.039a.393.393,0,0,0,0-.04c0-.015,0-.028,0-.04s0-.028,0-.041,0-.026,0-.041a.2.2,0,0,0-.005-.038.2.2,0,0,0,0-.04.394.394,0,0,0,0-.04.32.32,0,0,1,0-.041c0-.013,0-.027,0-.039a.234.234,0,0,0,0-.04c0-.013,0-.026,0-.04s0-.026,0-.04,0-.028,0-.041,0-.025,0-.04,0-.026,0-.039,0-.027,0-.04,0-.026,0-.039,0-.026-.005-.041a.309.309,0,0,0,0-.04c0-.013,0-.026,0-.04s0-.028,0-.039,0-.027,0-.042l0-.038c0-.015,0-.027,0-.04s0-.026,0-.041,0-.027,0-.04,0-.026,0-.04a.29.29,0,0,1,0-.041c0-.013,0-.026-.005-.039s0-.028,0-.041,0-.026,0-.04,0-.027,0-.04a.281.281,0,0,0,0-.04c0-.014,0-.028,0-.039l0-.041c0-.013,0-.026,0-.04a.272.272,0,0,0,0-.039.161.161,0,0,0,0-.04c0-.015,0-.027,0-.04s0-.027,0-.041,0-.025,0-.039a.281.281,0,0,0-.005-.04c0-.013,0-.025,0-.04s0-.026,0-.039,0-.027,0-.039a.34.34,0,0,1,0-.04c0-.015,0-.028,0-.041s0-.025,0-.04,0-.026,0-.04,0-.026,0-.04,0-.028,0-.04,0-.026,0-.04,0-.027,0-.04,0-.027,0-.04,0-.027,0-.04,0-.028-.005-.04a.309.309,0,0,1,0-.041l-.005-.039c0-.013,0-.027,0-.04a.221.221,0,0,1,0-.04c0-.013,0-.027-.005-.04s0-.026,0-.039l0-.04a.4.4,0,0,0,0-.04.232.232,0,0,0,0-.041c0-.013,0-.026,0-.04s0-.026-.005-.039,0-.026,0-.04l0-.041c0-.011,0-.026,0-.04s0-.027,0-.039a.219.219,0,0,0,0-.04c0-.013,0-.026-.005-.04a.264.264,0,0,0,0-.039c0-.015,0-.029,0-.042s0-.026,0-.04,0-.026,0-.039a.406.406,0,0,0,0-.041.282.282,0,0,0,0-.04c0-.015,0-.028,0-.041a.263.263,0,0,1,0-.038.318.318,0,0,1,0-.041.4.4,0,0,0,0-.04c0-.014,0-.026-.006-.041s0-.026,0-.04l0-.038c0-.014,0-.027,0-.04s0-.028,0-.041,0-.026,0-.041a.234.234,0,0,1-.005-.04c0-.012,0-.025,0-.038s0-.026,0-.04a.292.292,0,0,0,0-.041c0-.013,0-.025,0-.039s0-.029,0-.04,0-.028-.005-.04,0-.027,0-.041a.334.334,0,0,0-.005-.04c0-.013,0-.026,0-.038s0-.027,0-.041,0-.026-.006-.04,0-.026,0-.041,0-.026,0-.04,0-.027,0-.04,0-.026,0-.04,0-.026,0-.04,0-.026,0-.041,0-.025-.005-.039,0-.026,0-.04,0-.026-.005-.041,0-.025,0-.039,0-.028,0-.04,0-.028,0-.04,0-.027,0-.04,0-.026,0-.041a.2.2,0,0,1,0-.039c0-.013,0-.026-.005-.04a.279.279,0,0,0,0-.041c0-.014,0-.026,0-.04s0-.028-.006-.041a1.235,1.235,0,0,0-.135-.492,1.262,1.262,0,0,0-1.7-.553" transform="translate(-10.162 -3.456)" fill="#eb2c4b"/>
      <path id="Path_16912" data-name="Path 16912" d="M.468,12.478c.009.011.019.02.026.03a.24.24,0,0,0,.026.029.138.138,0,0,0,.026.03l.026.031.026.031.026.031c.008.01.018.019.026.03s.018.02.025.029.018.021.026.033a.381.381,0,0,1,.028.028.265.265,0,0,0,.026.03.221.221,0,0,0,.027.031l.026.032c.008.009.018.018.026.029s.018.019.026.031.019.019.027.031.018.019.026.029.018.019.026.029a.185.185,0,0,0,.027.031.122.122,0,0,0,.026.031l.026.03c.008.011.018.02.025.029l.028.031c.008.011.016.019.024.031l.027.03c.008.011.018.02.027.031s.016.018.024.029l.026.03c.009.011.02.02.028.031s.016.019.024.029a.294.294,0,0,1,.024.031.248.248,0,0,1,.028.03c.008.011.018.02.027.031a.22.22,0,0,0,.026.029.243.243,0,0,0,.025.031.323.323,0,0,0,.026.03c.008.01.018.019.026.03a.216.216,0,0,1,.025.031l.028.031a.22.22,0,0,1,.025.03.3.3,0,0,1,.026.03l.028.03c.007.01.017.018.025.031s.017.018.027.029a.318.318,0,0,0,.025.03.267.267,0,0,1,.024.031l.029.03a.372.372,0,0,0,.026.029.37.37,0,0,0,.023.029.271.271,0,0,0,.029.03.4.4,0,0,1,.024.034.161.161,0,0,1,.027.028l.025.03c.008.011.018.02.026.031l.025.029.028.031a.277.277,0,0,0,.025.03c.008.011.017.021.025.031s.018.019.026.03l.028.03.024.03a.355.355,0,0,1,.026.029l.028.031a.142.142,0,0,0,.025.031c.009.009.016.02.026.03l.027.031a.267.267,0,0,1,.023.029c.008.011.018.02.028.031a.189.189,0,0,0,.026.029.238.238,0,0,0,.026.031.375.375,0,0,1,.024.031c.009.01.019.02.026.03s.018.02.028.031a.228.228,0,0,0,.026.029.2.2,0,0,0,.027.031.13.13,0,0,0,.024.029.215.215,0,0,0,.026.031.287.287,0,0,0,.026.031l.025.03c.008.01.018.02.026.031l.026.029a.176.176,0,0,0,.028.03c.006.011.016.02.024.031l.026.029c.009.013.019.02.026.03s.019.021.027.031a.279.279,0,0,0,.026.029.256.256,0,0,0,.026.03c.008.011.018.02.027.031a.375.375,0,0,0,.025.03c.008.011.017.02.026.031a.161.161,0,0,0,.026.029l.025.031c.009.009.018.02.026.031a.343.343,0,0,1,.025.029c.01.011.019.019.028.031a.172.172,0,0,0,.027.03c.009.01.014.02.026.031s.018.019.025.029l.026.031c.007.011.018.02.026.031a.354.354,0,0,0,.026.029l.025.031a.406.406,0,0,0,.028.031l.024.029c.01.01.018.021.027.03a.21.21,0,0,0,.027.031l.026.03c.009.009.016.02.025.029a.243.243,0,0,0,.025.031c.011.011.019.021.028.031a.285.285,0,0,0,.025.029c.008.013.018.02.026.031s.019.021.027.031a.233.233,0,0,0,.025.031c.008.011.018.02.026.029l.027.03a.23.23,0,0,0,.026.031.188.188,0,0,0,.026.029.311.311,0,0,0,.026.031c.008.01.018.021.027.03a.148.148,0,0,0,.026.03.3.3,0,0,1,.026.031l.026.03.026.028c.009.013.018.022.025.032a.312.312,0,0,1,.028.029.2.2,0,0,0,.026.03c.008.011.016.021.024.031l.026.029a.3.3,0,0,0,.027.03c.008.011.017.021.025.032l.028.028a.256.256,0,0,0,.024.032.222.222,0,0,1,.026.029,1.4,1.4,0,0,0,2.3-1.586.376.376,0,0,0-.021-.034c-.006-.011-.014-.023-.019-.035a.194.194,0,0,1-.022-.032.193.193,0,0,0-.021-.034.3.3,0,0,0-.022-.033.269.269,0,0,0-.019-.034c-.006-.012-.013-.023-.019-.033s-.014-.024-.022-.035L6.1,14.664a.327.327,0,0,1-.021-.034c-.008-.012-.016-.023-.022-.034s-.013-.021-.018-.034-.014-.023-.023-.033A.3.3,0,0,0,6,14.494a.363.363,0,0,0-.019-.034.256.256,0,0,0-.021-.032.769.769,0,0,1-.041-.07c-.006-.011-.014-.022-.019-.033s-.014-.024-.021-.035l-.022-.034a.164.164,0,0,0-.021-.034c-.006-.01-.013-.023-.021-.033s-.013-.023-.018-.035-.014-.023-.023-.034a.3.3,0,0,0-.019-.033c-.006-.012-.014-.021-.021-.035a.313.313,0,0,0-.021-.033C5.7,14.007,5.7,14,5.69,13.985a.164.164,0,0,1-.021-.033.218.218,0,0,1-.021-.034c-.006-.011-.014-.021-.021-.033a.342.342,0,0,0-.021-.035c-.007-.011-.014-.021-.021-.033s-.014-.023-.021-.034-.013-.023-.021-.034-.014-.023-.019-.033-.016-.023-.022-.034l-.021-.034a.219.219,0,0,1-.019-.033c-.007-.013-.014-.023-.022-.034s-.014-.022-.021-.034-.013-.023-.019-.035-.016-.021-.022-.033-.012-.023-.019-.034-.016-.024-.022-.034-.014-.022-.019-.033-.014-.023-.02-.034a.26.26,0,0,1-.02-.033c-.007-.011-.014-.021-.021-.034s-.014-.023-.021-.033a.148.148,0,0,0-.021-.034.327.327,0,0,0-.021-.034.312.312,0,0,0-.019-.034c-.007-.01-.013-.021-.022-.034s-.014-.023-.019-.034a.335.335,0,0,1-.021-.033c-.006-.011-.013-.022-.021-.034s-.013-.022-.021-.034a.252.252,0,0,0-.021-.032c-.007-.012-.014-.024-.021-.036a.233.233,0,0,1-.019-.033C5,12.856,5,12.846,4.989,12.835s-.014-.023-.018-.034-.016-.023-.022-.034-.013-.023-.021-.034a.234.234,0,0,0-.02-.033c-.006-.012-.014-.023-.02-.035l-.021-.033c-.006-.012-.014-.023-.019-.033s-.015-.024-.022-.034-.014-.021-.019-.034L4.784,12.5a.343.343,0,0,0-.019-.034c-.006-.011-.014-.024-.021-.034a.309.309,0,0,0-.021-.034.229.229,0,0,0-.02-.034c-.006-.011-.013-.021-.019-.035a.23.23,0,0,1-.021-.033c-.007-.012-.015-.022-.022-.034s-.014-.021-.019-.033A.193.193,0,0,1,4.6,12.19c-.008-.012-.015-.021-.021-.032s-.015-.024-.022-.036-.013-.021-.019-.033a.342.342,0,0,1-.021-.035c-.007-.01-.013-.022-.02-.033l-.022-.034a.158.158,0,0,1-.019-.035.153.153,0,0,1-.022-.032c-.006-.012-.015-.023-.021-.035s-.014-.021-.021-.034-.014-.021-.023-.034a.147.147,0,0,0-.02-.033c-.006-.013-.014-.023-.019-.035s-.014-.023-.021-.033-.015-.024-.021-.035a.163.163,0,0,1-.019-.034l-.022-.032c-.006-.012-.014-.023-.021-.034a.4.4,0,0,1-.019-.035c-.007-.011-.015-.021-.022-.034a.288.288,0,0,1-.019-.033l-.021-.034a.264.264,0,0,1-.021-.033c-.006-.013-.015-.022-.021-.034s-.014-.023-.02-.035-.013-.021-.021-.034l-.019-.033a.4.4,0,0,0-.021-.034c-.008-.013-.013-.023-.02-.034s-.015-.024-.021-.034l-.02-.034c-.006-.012-.015-.022-.021-.033s-.014-.024-.02-.034a.206.206,0,0,0-.021-.034c-.007-.014-.013-.023-.02-.034s-.013-.023-.021-.033-.014-.021-.021-.034a.335.335,0,0,0-.02-.033.245.245,0,0,1-.02-.034.171.171,0,0,1-.021-.034.29.29,0,0,0-.021-.034.224.224,0,0,0-.021-.034.251.251,0,0,0-.02-.034L3.694,10.7c-.006-.011-.013-.021-.02-.034s-.013-.021-.019-.034a.283.283,0,0,0-.022-.034.37.37,0,0,0-.02-.034l-.02-.034a.283.283,0,0,0-.021-.032c-.006-.013-.014-.025-.019-.034s-.015-.022-.023-.034a.342.342,0,0,0-.021-.034.189.189,0,0,0-.019-.033A1.856,1.856,0,1,0,.444,12.448c.008.01.018.02.024.03" transform="translate(0 -3.502)" fill="#eb2c4b"/>
      <path id="Path_16913" data-name="Path 16913" d="M10.123,13.756l.037.015a.191.191,0,0,0,.037.015.228.228,0,0,0,.035.016c.011.006.025.011.035.016l.037.015a.3.3,0,0,0,.038.016c.011,0,.023.011.034.015l.036.015a.394.394,0,0,0,.036.017l.034.014.036.016.037.016.036.016.036.016.037.014.036.016.036.016c.011.006.024.009.034.016l.036.015a.182.182,0,0,0,.036.016c.013.007.025.011.036.017l.038.015c.011.006.024.009.037.016s.023.009.036.016l.034.014.038.018a.21.21,0,0,1,.034.014l.036.016c.014.005.024.011.038.015s.024.01.036.016l.036.015a.26.26,0,0,0,.038.016c.009.005.023.01.033.016s.024.011.039.015l.034.017a.194.194,0,0,1,.036.014l.038.016c.011.006.023.009.035.016l.035.014.038.016.036.016a.371.371,0,0,0,.035.014.194.194,0,0,0,.036.016.252.252,0,0,0,.038.016c.012.007.024.011.035.016l.036.016.035.014a.341.341,0,0,0,.038.016c.011.006.024.01.034.017a.231.231,0,0,0,.036.014c.012.007.024.009.037.016l.036.014c.013.007.024.011.035.017s.026.01.036.016a.314.314,0,0,1,.038.015l.034.015.036.016.036.015a.363.363,0,0,0,.036.016l.037.016.036.016a.253.253,0,0,0,.037.015l.035.016a.191.191,0,0,0,.036.016l.037.016.036.016c.012,0,.023.011.036.016a.217.217,0,0,1,.036.015l.035.015a.3.3,0,0,0,.036.015.377.377,0,0,1,.036.018.3.3,0,0,1,.035.015c.014,0,.025.01.037.015a.2.2,0,0,1,.036.016.238.238,0,0,1,.037.014.38.38,0,0,0,.036.017c.013,0,.024.011.035.016a.381.381,0,0,1,.037.015l.036.015.036.016a.261.261,0,0,1,.036.016l.036.014a.22.22,0,0,0,.036.016l.038.016a.276.276,0,0,0,.035.014l.036.018.037.016a.289.289,0,0,0,.034.014.365.365,0,0,0,.036.014l.037.016a.236.236,0,0,0,.036.016.2.2,0,0,0,.035.016l.038.016.036.015.035.016a.369.369,0,0,1,.035.015c.012.005.025.01.037.016l.037.015c.011.005.023.01.034.016a.175.175,0,0,1,.037.016.359.359,0,0,1,.038.014.232.232,0,0,0,.034.015c.013.008.026.013.036.018a.311.311,0,0,1,.037.016l.035.014c.012.006.024.009.036.016l.037.016.035.016.036.016.037.014.036.016c.011.006.024.011.035.016a.307.307,0,0,0,.037.014l.035.018c.013,0,.024.011.039.014l.034.016a.341.341,0,0,1,.034.016l.037.016a.267.267,0,0,1,.037.016l.036.014.036.016a.261.261,0,0,1,.036.016.312.312,0,0,0,.036.014.177.177,0,0,0,.036.016.268.268,0,0,0,.036.016c.011.006.024.01.034.015a.235.235,0,0,0,.038.015l.035.016c.014.005.025.012.038.016s.023.01.035.017a.183.183,0,0,1,.036.014l.034.016c.014.007.026.009.037.014a.317.317,0,0,0,.036.016c.013.007.024.011.036.018s.024.009.037.014.024.009.037.016.023.01.035.016l.034.014c.013.007.026.011.039.018a.274.274,0,0,1,.036.015l.036.015.036.015.036.016.035.015.038.017.035.014.037.016.035.016.037.016.036.015.034.016.038.016a.247.247,0,0,1,.034.016c.013.006.026.009.038.016l.035.014a1.856,1.856,0,1,0,1.21-3.487l-.039-.008-.039-.009a.4.4,0,0,0-.039-.008l-.039-.009-.039-.009-.038-.009a.273.273,0,0,1-.036-.008c-.014,0-.028-.006-.04-.009a.251.251,0,0,1-.039-.008.267.267,0,0,0-.04-.008.2.2,0,0,0-.038-.008c-.011,0-.024-.006-.038-.011a.261.261,0,0,1-.037-.008l-.039-.008-.04-.008c-.013,0-.024-.005-.038-.009s-.027-.005-.039-.008l-.038-.009a.413.413,0,0,1-.041-.009l-.038-.008-.038-.008c-.014,0-.026-.006-.038-.009l-.039-.008a.248.248,0,0,1-.037-.01L16,12.5a.4.4,0,0,1-.04-.009l-.037-.008c-.013,0-.026-.006-.04-.009l-.036-.008-.039-.008c-.013,0-.027-.005-.039-.009a.118.118,0,0,1-.04-.01.342.342,0,0,1-.038-.008l-.039-.008-.038-.009-.038-.008a.237.237,0,0,1-.039-.01c-.013,0-.026-.005-.038-.008l-.038-.008-.04-.01-.039-.008a.274.274,0,0,0-.038-.008.208.208,0,0,0-.039-.01c-.014,0-.025-.005-.038-.009l-.039-.008-.037-.008a.223.223,0,0,0-.039-.009.281.281,0,0,1-.04-.01l-.038-.008-.04-.009-.038-.008a.244.244,0,0,1-.038-.009.286.286,0,0,1-.039-.008l-.039-.006-.04-.011-.037-.009-.039-.006a.287.287,0,0,0-.04-.009l-.037-.01-.039-.006a.377.377,0,0,0-.04-.009l-.037-.009c-.013,0-.026,0-.039-.008s-.027-.006-.039-.009a.374.374,0,0,0-.038-.007.3.3,0,0,0-.04-.009c-.013,0-.026-.005-.038-.009l-.037-.008-.04-.01-.04-.008-.038-.009-.04-.008a.16.16,0,0,0-.038-.008l-.037-.009-.039-.01-.04-.008a.334.334,0,0,0-.041-.008c-.011,0-.024-.005-.036-.009l-.039-.009c-.013,0-.025-.006-.039-.008a.213.213,0,0,0-.039-.008c-.013-.005-.025-.006-.038-.011L13.759,12l-.039-.009-.038-.009c-.013,0-.026-.005-.038-.008l-.038-.009a.259.259,0,0,1-.038-.008c-.013,0-.026-.006-.039-.008a.219.219,0,0,0-.039-.009c-.012,0-.026-.006-.039-.009l-.039-.008-.037-.01c-.013,0-.026,0-.039-.006L13.3,11.9l-.039-.008-.037-.009a.309.309,0,0,1-.039-.009l-.039-.009-.039-.008-.037-.008a.39.39,0,0,1-.039-.009.3.3,0,0,0-.038-.008c-.013,0-.026-.007-.038-.008a.221.221,0,0,0-.039-.008c-.013-.005-.025-.006-.039-.011s-.026-.005-.039-.008l-.037-.008a.26.26,0,0,1-.039-.009l-.038-.009a.219.219,0,0,1-.04-.008.34.34,0,0,1-.038-.01.36.36,0,0,1-.039-.006l-.037-.009-.041-.009-.039-.008-.037-.009a.26.26,0,0,1-.041-.009l-.038-.008-.038-.01-.038-.008c-.014,0-.027-.005-.04-.01a.2.2,0,0,1-.038-.009.351.351,0,0,1-.037-.008.175.175,0,0,1-.039-.009l-.039-.009-.039-.006a.142.142,0,0,0-.039-.01c-.012,0-.026-.005-.038-.009l-.038-.009c-.014,0-.026-.006-.039-.008l-.039-.009a.342.342,0,0,0-.038-.009l-.039-.009a.219.219,0,0,0-.04-.008l-.037-.009-.039-.008-.038-.009a.252.252,0,0,1-.039-.009l-.039-.007-.038-.009a.18.18,0,0,0-.038-.008.243.243,0,0,0-.039-.009.363.363,0,0,0-.038-.008.186.186,0,0,0-.039-.009l-.039-.008c-.013,0-.023-.007-.038-.009l-.038-.008c-.013,0-.026-.005-.039-.009l-.037-.008c-.014,0-.026-.006-.039-.008s-.026-.006-.038-.01-.026,0-.04-.009l-.039-.007-.038-.009a.242.242,0,0,0-.039-.008,1.231,1.231,0,0,0-.51-.025,1.263,1.263,0,0,0-.309,2.4" transform="translate(-3.494 -4.229)" fill="#eb2c4b"/>
      <path id="Path_16914" data-name="Path 16914" d="M8.513,34.725a1.4,1.4,0,0,0-.727-.038l-.04.01a.261.261,0,0,0-.039.01c-.013,0-.024.006-.038.008s-.026.007-.039.009l-.039.009-.038.009c-.014,0-.026.006-.04.008a.16.16,0,0,1-.039.009l-.038.011c-.013,0-.026.006-.039.009a.262.262,0,0,0-.039.01l-.038.008c-.013,0-.026.009-.039.01l-.039.009-.038.009a.341.341,0,0,1-.039.009l-.039.01-.039.01c-.013,0-.026.005-.039.008l-.039.009-.039.01-.039.009a.245.245,0,0,0-.038.011.138.138,0,0,0-.039.008.253.253,0,0,0-.038.009c-.014,0-.028.007-.039.009l-.04.008a.266.266,0,0,1-.038.011c-.013,0-.027.006-.04.008s-.026.006-.038.009l-.039.009-.038.011a.367.367,0,0,0-.039.008L6.464,35c-.014,0-.026.007-.038.008a.347.347,0,0,1-.039.009.3.3,0,0,1-.039.009.212.212,0,0,1-.039.011c-.013,0-.025.006-.039.008l-.038.01a.346.346,0,0,0-.04.009l-.038.009a.294.294,0,0,1-.039.008.313.313,0,0,1-.038.01.191.191,0,0,0-.038.01A.244.244,0,0,0,6,35.11l-.038.009-.041.009-.038.009-.04.009c-.013,0-.024.006-.039.008l-.038.01-.04.009-.039.009a.23.23,0,0,0-.039.009l-.038.009c-.014,0-.026.006-.04.008a.245.245,0,0,1-.038.011c-.013,0-.025.006-.038.009l-.04.01c-.013,0-.025.006-.039.008l-.038.009-.039.01-.038.009a.346.346,0,0,0-.039.011c-.013,0-.026.005-.039.008s-.026.005-.038.009-.026.008-.039.01a.278.278,0,0,0-.038.009l-.04.01c-.013,0-.025.006-.039.009a.267.267,0,0,0-.04.009l-.038.009-.039.009a.174.174,0,0,1-.039.009l-.038.009a.21.21,0,0,0-.039.011.2.2,0,0,0-.039.007.293.293,0,0,1-.039.009l-.039.011a.358.358,0,0,0-.039.008l-.04.009-.04.009-.037.009-.04.009-.039.009-.038.009a.374.374,0,0,1-.04.008l-.038.011a.147.147,0,0,0-.039.009.213.213,0,0,0-.039.009.217.217,0,0,0-.039.009l-.04.008c-.013,0-.024.006-.038.009l-.039.009-.039.009-.04.009c-.011,0-.024.008-.038.009a.221.221,0,0,0-.04.01A.269.269,0,0,0,3.9,35.6l-.038.009-.039.009c-.013,0-.026.008-.039.01s-.024.005-.038.008a.345.345,0,0,0-.039.011c-.014,0-.024.006-.038.008l-.039.01c-.015,0-.026.006-.041.01l-.037.008-.038.01-.041.009-.036.009-.041.009a.328.328,0,0,1-.039.008c-.013,0-.024.008-.038.011l-.038.008-.039.009-.04.009-.038.011a.126.126,0,0,0-.038.008c-.014,0-.027.008-.041.009l-.037.009a.322.322,0,0,1-.038.008l-.04.009a.258.258,0,0,1-.041.009c-.011,0-.024.008-.037.01l-.039.008-.039.009-.038.011a.308.308,0,0,0-.039.008l-.04.009a.152.152,0,0,0-.038.009.366.366,0,0,0-.038.009l-.04.01a.228.228,0,0,0-.038.009,1.856,1.856,0,1,0,1.043,3.541.345.345,0,0,0,.038-.014l.036-.016a.285.285,0,0,0,.037-.016l.038-.015.038-.016.037-.015.036-.016a.3.3,0,0,0,.038-.015l.036-.015.036-.015.038-.016.039-.016.035-.016c.013-.006.026-.009.039-.016a.148.148,0,0,0,.034-.015.282.282,0,0,0,.038-.014l.038-.016.036-.016c.014,0,.024-.011.038-.016l.038-.014c.011-.006.024-.01.036-.016s.024-.011.038-.014l.036-.016.036-.016c.013-.006.025-.009.037-.016l.037-.014.038-.016.036-.016c.013,0,.025-.011.038-.015L4.694,39a.3.3,0,0,1,.037-.014l.038-.018c.012,0,.025-.01.036-.014l.039-.016.036-.016c.013,0,.025-.011.038-.015l.036-.014.038-.016.036-.016.039-.016L5.1,38.83l.035-.018a.17.17,0,0,0,.037-.015l.038-.016c.013,0,.025-.011.036-.014l.038-.016.038-.014a.275.275,0,0,1,.036-.016A.221.221,0,0,0,5.4,38.7a.353.353,0,0,0,.038-.014c.011,0,.023-.011.036-.016l.039-.015a.191.191,0,0,1,.036-.014.245.245,0,0,1,.037-.016c.011-.006.023-.01.036-.016s.024-.011.038-.014l.036-.018c.013,0,.026-.011.039-.016s.023-.01.036-.014l.039-.016c.012,0,.023-.011.035-.015s.025-.01.038-.015.025-.01.036-.016l.038-.016a.2.2,0,0,0,.036-.016l.038-.014.038-.015.037-.016.037-.016.038-.016.035-.014.038-.016c.013-.006.026-.009.038-.016a.214.214,0,0,0,.037-.017c.013,0,.024-.01.037-.014l.036-.016.038-.014.038-.016c.011,0,.024-.011.036-.014a.4.4,0,0,0,.037-.018.215.215,0,0,0,.038-.015l.037-.015a.262.262,0,0,1,.036-.015l.038-.015.036-.016a.314.314,0,0,0,.038-.015l.036-.016.038-.017.038-.014.036-.014.037-.016.038-.016a.337.337,0,0,0,.036-.015l.037-.016A.284.284,0,0,0,7.1,37.99l.038-.015.036-.016.037-.014c.014-.007.025-.011.038-.018l.037-.014c.013-.006.023-.011.038-.016s.024-.01.038-.015l.035-.015c.013-.005.026-.011.038-.015s.025-.012.038-.016.026-.01.038-.015l.036-.016a.253.253,0,0,0,.038-.016l.038-.014.035-.016c.014,0,.026-.011.038-.015s.024-.011.038-.016a.294.294,0,0,1,.036-.016l.038-.016.038-.015.037-.016.037-.016.036-.015.038-.016.038-.016.036-.014.038-.016a.316.316,0,0,1,.036-.015l.037-.017.036-.014.038-.016a.316.316,0,0,0,.037-.016.323.323,0,0,0,.037-.014.174.174,0,0,1,.038-.015.19.19,0,0,1,.036-.016l.037-.015c.011-.006.024-.01.036-.016s.026-.011.037-.016l.038-.014.036-.018a1.4,1.4,0,0,0-.069-2.643" transform="translate(-0.38 -12.928)" fill="#eb2c4b"/>
      <path id="Path_16915" data-name="Path 16915" d="M11.584,24.266a.236.236,0,0,1,.028-.028.3.3,0,0,1,.024-.03c.011-.011.018-.021.026-.029a.193.193,0,0,0,.026-.029.2.2,0,0,0,.024-.029l.028-.03.026-.028.024-.029a1.834,1.834,0,0,0,.482-.981,1.855,1.855,0,0,0-3.423-1.247c-.008.011-.013.023-.021.034a.369.369,0,0,0-.02.034c-.006.01-.011.022-.019.034s-.013.023-.02.033l-.02.034-.019.033c-.008.011-.013.024-.021.034a.281.281,0,0,1-.019.033c-.006.011-.012.023-.019.035s-.013.02-.021.031a.352.352,0,0,0-.018.034.211.211,0,0,0-.019.034.376.376,0,0,0-.022.033c-.008.011-.012.022-.02.034s-.014.023-.019.033l-.02.033a.385.385,0,0,1-.021.034c-.006.011-.013.021-.019.033a.333.333,0,0,1-.02.033l-.018.033a.335.335,0,0,0-.021.034c-.006.011-.013.023-.019.035a.371.371,0,0,1-.02.031c-.007.013-.012.024-.019.035s-.014.023-.021.033-.012.023-.019.034-.013.022-.02.032-.014.024-.021.036-.013.021-.02.033l-.02.033a.3.3,0,0,1-.019.033.264.264,0,0,1-.019.034c-.007.011-.013.022-.019.033s-.013.023-.021.034l-.018.033c-.008.011-.014.024-.021.034l-.02.032a.241.241,0,0,1-.021.034c-.006.011-.011.023-.018.035a.275.275,0,0,0-.021.033.192.192,0,0,0-.019.034c-.007.01-.014.022-.02.033s-.013.023-.021.035-.011.021-.018.031a.254.254,0,0,1-.02.034l-.021.034c-.007.012-.013.023-.019.033a.274.274,0,0,1-.02.034.213.213,0,0,0-.018.033.24.24,0,0,0-.021.033c-.008.012-.013.023-.02.034a.292.292,0,0,0-.02.033l-.02.033c-.006.011-.012.023-.019.035a.235.235,0,0,1-.021.033.229.229,0,0,1-.02.034c-.006.01-.012.023-.019.033l-.02.033-.019.034c-.007.011-.013.022-.02.034l-.02.033-.019.032c-.007.012-.013.024-.02.034s-.013.023-.019.033-.013.024-.019.034l-.02.033a.262.262,0,0,0-.02.034c-.007.011-.014.021-.02.033l-.02.032a.173.173,0,0,1-.02.033c-.006.013-.013.024-.018.034l-.022.034a.278.278,0,0,0-.018.033c-.008.011-.014.023-.021.034a.348.348,0,0,0-.019.033.36.36,0,0,0-.02.033c-.008.013-.013.021-.019.034s-.014.023-.022.034-.013.022-.019.034a.221.221,0,0,0-.019.031.153.153,0,0,0-.019.034l-.019.034L7.2,24.6c-.005.011-.012.021-.018.034s-.013.024-.021.034-.013.023-.021.034a.251.251,0,0,1-.019.035l-.019.031c-.008.011-.013.024-.021.034l-.019.034a.262.262,0,0,0-.02.034l-.02.033c-.005.011-.012.021-.018.033s-.014.023-.021.033A.385.385,0,0,1,6.965,25c-.007.009-.013.023-.019.032s-.013.024-.019.034-.013.023-.02.033-.014.023-.021.034a.233.233,0,0,0-.02.033c-.007.011-.013.023-.019.033l-.02.034a.342.342,0,0,0-.019.034c-.007.009-.014.022-.021.033s-.012.023-.019.033a.311.311,0,0,0-.019.034l-.021.033c-.008.012-.014.023-.021.033l-.019.034a.269.269,0,0,0-.019.034.111.111,0,0,0-.02.034.308.308,0,0,0-.021.031c-.006.013-.013.023-.019.035s-.013.023-.021.033a.138.138,0,0,1-.019.034.143.143,0,0,1-.021.034l-.019.034a.358.358,0,0,0-.019.032l-.02.034-.021.033-.02.035-.018.033a.334.334,0,0,0-.021.034c-.006.011-.013.023-.019.033l-.019.033c-.008.011-.013.023-.019.033s-.014.024-.021.034-.014.024-.02.034-.014.022-.019.033-.014.023-.02.035-.014.023-.022.033-.013.023-.018.034a.3.3,0,0,0-.02.034.134.134,0,0,0-.018.034.131.131,0,0,0-.021.033c-.006.011-.014.022-.021.033s-.014.023-.019.035a.21.21,0,0,0-.019.033l-.021.033a.233.233,0,0,1-.02.033c-.007.013-.013.024-.019.035a.175.175,0,0,0-.019.034.367.367,0,0,1-.021.034.332.332,0,0,1-.02.031.276.276,0,0,1-.019.035.184.184,0,0,1-.019.033c-.008.013-.013.024-.02.035s-.014.023-.019.033a.328.328,0,0,1-.021.033l-.019.034c-.006.011-.013.023-.018.033a.193.193,0,0,0-.021.034c-.006.011-.013.021-.021.033s-.013.022-.02.034-.013.023-.018.033a.37.37,0,0,0-.021.035.224.224,0,0,0-.019.033c-.007.011-.014.023-.02.033a1.262,1.262,0,0,0,2.009,1.514c.009-.009.018-.02.026-.029a.224.224,0,0,0,.026-.029l.026-.029c.009-.009.017-.02.026-.028l.026-.029a.29.29,0,0,1,.025-.03l.028-.029.024-.029.026-.029.025-.031.026-.028.026-.029.026-.029.025-.029.026-.028c.008-.009.016-.02.027-.031l.025-.029a.157.157,0,0,0,.024-.029.4.4,0,0,1,.028-.029.327.327,0,0,1,.023-.029.371.371,0,0,0,.027-.029l.026-.029a.387.387,0,0,1,.027-.029.176.176,0,0,1,.025-.028.291.291,0,0,1,.024-.031.233.233,0,0,0,.026-.03.21.21,0,0,0,.026-.027c.009-.009.018-.021.027-.031s.017-.017.026-.028.016-.019.024-.029.018-.02.026-.029l.027-.029.024-.028a.354.354,0,0,0,.025-.03.234.234,0,0,0,.026-.029.226.226,0,0,0,.026-.028l.026-.029a.371.371,0,0,1,.026-.029l.024-.029a.294.294,0,0,0,.026-.029l.026-.029a.277.277,0,0,1,.026-.028l.024-.029c.009-.011.018-.019.027-.029s.016-.02.025-.029a.376.376,0,0,1,.026-.029l.026-.03c.009-.009.018-.02.026-.029l.026-.031a.2.2,0,0,1,.025-.028.264.264,0,0,0,.024-.028l.027-.031c.009-.009.017-.019.026-.028a.2.2,0,0,1,.026-.029.167.167,0,0,0,.024-.031A.174.174,0,0,0,9.166,27l.028-.029.025-.03a.293.293,0,0,1,.028-.029.192.192,0,0,1,.024-.028c.01-.011.017-.021.026-.031l.026-.029c.008-.009.017-.019.024-.029l.026-.03A.277.277,0,0,0,9.4,26.74c.009-.009.017-.02.026-.029s.017-.021.025-.029.018-.019.027-.029.016-.019.024-.029l.026-.029.025-.028.026-.029a.3.3,0,0,0,.026-.031.176.176,0,0,0,.025-.028.321.321,0,0,1,.028-.03l.023-.028a.37.37,0,0,0,.026-.029l.026-.028.026-.029.026-.029a.233.233,0,0,0,.026-.03.368.368,0,0,1,.026-.028c.009-.01.016-.02.025-.029l.026-.031c.008-.008.016-.019.026-.028s.016-.02.026-.029a.3.3,0,0,0,.026-.029l.026-.029a.55.55,0,0,1,.051-.057l.026-.031a.38.38,0,0,1,.028-.028c.006-.009.014-.02.023-.03s.018-.02.027-.028.017-.019.025-.029l.025-.029c.009-.01.018-.02.027-.029s.016-.021.025-.03.017-.018.026-.029a.371.371,0,0,1,.026-.029.241.241,0,0,1,.024-.028.327.327,0,0,0,.026-.031.372.372,0,0,0,.026-.028L10.4,25.6a.129.129,0,0,1,.026-.029l.025-.029c.01-.01.017-.02.025-.028a.331.331,0,0,0,.026-.031.256.256,0,0,1,.025-.028l.026-.029a.159.159,0,0,1,.025-.029.323.323,0,0,1,.026-.03c.008-.01.018-.019.025-.03s.018-.019.027-.028l.023-.029a.179.179,0,0,0,.028-.03c.009-.009.016-.019.026-.029l.026-.028c.008-.009.016-.02.025-.029l.026-.031a.218.218,0,0,0,.026-.028l.026-.029.027-.029.025-.029a.356.356,0,0,1,.026-.029.371.371,0,0,1,.026-.029l.024-.029c.009-.009.018-.02.026-.029s.016-.019.024-.028a.287.287,0,0,0,.027-.029c.009-.008.017-.019.026-.029l.024-.029a.3.3,0,0,0,.026-.03.258.258,0,0,0,.026-.028.265.265,0,0,0,.026-.03l.026-.029.026-.028a.228.228,0,0,1,.026-.029l.025-.031c.009-.009.016-.02.026-.028a.389.389,0,0,1,.026-.029.3.3,0,0,1,.025-.029c.009-.008.017-.019.026-.028s.017-.02.026-.03.018-.02.027-.028.017-.02.024-.031.018-.02.026-.028l.025-.029a.294.294,0,0,0,.027-.029.332.332,0,0,0,.024-.029" transform="translate(-2.059 -7.798)" fill="#eb2c4b"/>
      <path id="Path_16916" data-name="Path 16916" d="M30.946,42.765c0-.014,0-.026,0-.041a.344.344,0,0,1-.006-.04c0-.013,0-.026,0-.039a.381.381,0,0,0,0-.041.216.216,0,0,0,0-.041c0-.014,0-.027,0-.04s0-.027,0-.041,0-.026,0-.041,0-.026,0-.04a.245.245,0,0,0,0-.041c0-.013,0-.026,0-.041a.329.329,0,0,0,0-.04c0-.013,0-.028,0-.04a.3.3,0,0,0,0-.041c0-.013,0-.026,0-.04s0-.026-.005-.041,0-.027,0-.04,0-.028,0-.041l0-.04c0-.014,0-.026,0-.04s0-.028,0-.04,0-.029,0-.041,0-.026,0-.041a.3.3,0,0,0,0-.04c0-.014,0-.028,0-.041s0-.028,0-.041,0-.026,0-.039,0-.028,0-.041,0-.028,0-.041-.005-.028-.005-.04,0-.026,0-.041,0-.026,0-.041,0-.026,0-.041a.385.385,0,0,1,0-.039.293.293,0,0,1,0-.04c0-.014,0-.028-.005-.04s0-.029,0-.041,0-.028,0-.041a.285.285,0,0,0,0-.041c0-.014,0-.028,0-.04a2.768,2.768,0,0,0-.007-.083c0-.013,0-.027,0-.039s0-.027,0-.041,0-.026,0-.04a.238.238,0,0,1,0-.04c0-.014,0-.028,0-.041a.29.29,0,0,1,0-.041.208.208,0,0,1,0-.04.3.3,0,0,1,0-.041.29.29,0,0,0,0-.04c0-.014,0-.028-.005-.041s0-.027,0-.04,0-.026,0-.041,0-.026,0-.041a.241.241,0,0,0,0-.041c0-.012,0-.026,0-.04a.314.314,0,0,0-.005-.041c0-.014,0-.027,0-.042l0-.038a.307.307,0,0,0,0-.041c0-.013,0-.026,0-.041s0-.026,0-.041a.374.374,0,0,1,0-.04c0-.011,0-.025,0-.041s0-.025,0-.041,0-.026,0-.038a.237.237,0,0,0,0-.042c0-.013,0-.026,0-.04s0-.028-.005-.04,0-.029,0-.041a.246.246,0,0,0,0-.043.3.3,0,0,0,0-.04.3.3,0,0,0,0-.041c0-.013,0-.026,0-.041s0-.026,0-.041,0-.025,0-.038,0-.028,0-.041,0-.028-.005-.041a.3.3,0,0,0,0-.041c0-.014,0-.026,0-.04s0-.028,0-.04a.318.318,0,0,1,0-.041c0-.014,0-.028,0-.041s0-.027,0-.04,0-.028,0-.041,0-.027,0-.042,0-.026,0-.041,0-.027,0-.04a.288.288,0,0,0,0-.04.221.221,0,0,0,0-.041.3.3,0,0,0,0-.041c0-.013,0-.026,0-.039a.278.278,0,0,0,0-.039c0-.014,0-.027,0-.042s0-.028,0-.041,0-.028-.005-.04a.232.232,0,0,0,0-.041c0-.013,0-.026,0-.041s0-.026,0-.039l-.006-.041v-.041c0-.013,0-.027-.005-.04l0-.041c0-.014,0-.028,0-.042s0-.026,0-.039a.264.264,0,0,0,0-.04c0-.015,0-.026,0-.041s0-.026,0-.041,0-.026,0-.04,0-.026,0-.041,0-.026,0-.04a.32.32,0,0,1,0-.041c0-.014,0-.027,0-.04s0-.028,0-.041,0-.026,0-.041a.389.389,0,0,1,0-.041c0-.014,0-.026,0-.04a.222.222,0,0,0,0-.04c0-.013,0-.028-.005-.041a.29.29,0,0,0,0-.041.314.314,0,0,0,0-.041.39.39,0,0,0,0-.039c0-.014,0-.028,0-.043s0-.026,0-.04a.232.232,0,0,1,0-.041.288.288,0,0,0,0-.04c0-.012,0-.026,0-.041s0-.026,0-.039,0-.028,0-.04a.215.215,0,0,0,0-.041c0-.014,0-.028,0-.042a1.4,1.4,0,0,0-2.537-.751,1.425,1.425,0,0,0-.26.683c0,.013,0,.026,0,.039s0,.027,0,.041,0,.026,0,.04,0,.027,0,.041a.231.231,0,0,1,0,.04.279.279,0,0,0,0,.039.223.223,0,0,0,0,.04c0,.014,0,.029,0,.042s0,.026,0,.041a.223.223,0,0,0,0,.04.171.171,0,0,0,0,.04.234.234,0,0,0,0,.041.3.3,0,0,0,0,.041c0,.014,0,.026,0,.039a.317.317,0,0,1-.006.041c0,.014,0,.027,0,.039s0,.029,0,.04a.3.3,0,0,0,0,.041c0,.014,0,.025,0,.04s0,.026,0,.041,0,.027,0,.039,0,.028,0,.041,0,.026,0,.04,0,.027,0,.042,0,.026,0,.039a.193.193,0,0,0,0,.041c0,.015,0,.026,0,.041s0,.026,0,.04,0,.025,0,.039,0,.028,0,.041,0,.026,0,.04,0,.026-.005.04,0,.027,0,.041,0,.026,0,.04,0,.028,0,.04a.4.4,0,0,1,0,.041c0,.014,0,.025,0,.04a.3.3,0,0,0,0,.04.184.184,0,0,1,0,.041c0,.013,0,.026,0,.04s0,.028,0,.04,0,.026,0,.04a.222.222,0,0,0,0,.04.242.242,0,0,0,0,.041c0,.014,0,.026,0,.04s0,.026,0,.04a.311.311,0,0,0,0,.039c0,.015,0,.028,0,.042s0,.026,0,.041a.172.172,0,0,0-.006.04c0,.013,0,.027,0,.04a.187.187,0,0,0,0,.04.309.309,0,0,0,0,.041.216.216,0,0,0,0,.04c0,.014,0,.029,0,.041s0,.026,0,.039,0,.028,0,.041,0,.026-.005.041,0,.027,0,.041a.388.388,0,0,0,0,.039c0,.014,0,.029,0,.04s0,.026,0,.041a.393.393,0,0,0,0,.04.213.213,0,0,0,0,.041.278.278,0,0,0,0,.04.17.17,0,0,0,0,.04.236.236,0,0,0,0,.041c0,.012,0,.026,0,.041a.256.256,0,0,0,0,.038.171.171,0,0,0,0,.04c0,.015,0,.028-.005.04s0,.028,0,.043a.155.155,0,0,0,0,.039c0,.013,0,.027,0,.04s0,.026,0,.041a.39.39,0,0,0,0,.039c0,.015,0,.028,0,.04s0,.026,0,.041,0,.026-.005.04,0,.028,0,.041,0,.027,0,.041a.214.214,0,0,0,0,.041c0,.013,0,.025,0,.038s0,.028,0,.041,0,.027,0,.04a.367.367,0,0,1,0,.04.241.241,0,0,0,0,.041.156.156,0,0,1-.005.041c0,.013,0,.026,0,.038a.135.135,0,0,1,0,.043.269.269,0,0,1,0,.039.312.312,0,0,0,0,.041c0,.014,0,.028,0,.04a.223.223,0,0,0,0,.041c0,.014,0,.026,0,.04a.145.145,0,0,0,0,.041c0,.014,0,.027,0,.04s0,.029,0,.042a.132.132,0,0,0-.006.038c0,.015,0,.029,0,.041s0,.026,0,.04,0,.028,0,.041,0,.027,0,.041,0,.028,0,.039,0,.029,0,.041,0,.026,0,.041,0,.026,0,.039l0,.042c0,.012,0,.025,0,.04s0,.027,0,.04,0,.028,0,.04,0,.026,0,.041a.124.124,0,0,0-.006.04.209.209,0,0,0,0,.04c0,.013,0,.026,0,.041a.27.27,0,0,1,0,.039c0,.014,0,.029,0,.04a.219.219,0,0,1,0,.041c0,.013,0,.027,0,.04s0,.027,0,.04,0,.028,0,.043,0,.025,0,.039a.173.173,0,0,0,0,.041c0,.013,0,.027,0,.04s0,.028,0,.041,0,.027,0,.041a.25.25,0,0,0-.005.04c0,.013,0,.026,0,.04s0,.028,0,.04,0,.027,0,.041,0,.026,0,.04,0,.026,0,.04a.278.278,0,0,0,0,.04,1.856,1.856,0,1,0,3.689.1c0-.013,0-.025,0-.04" transform="translate(-10.162 -13.456)" fill="#eb2c4b"/>
      <path id="Path_16917" data-name="Path 16917" d="M21.769,36.51l-.02-.033c-.006-.011-.013-.021-.02-.034s-.014-.022-.019-.034a.188.188,0,0,0-.021-.033c0-.011-.013-.024-.018-.034a.308.308,0,0,1-.021-.034c-.006-.012-.014-.023-.019-.033s-.014-.022-.019-.034a.325.325,0,0,0-.021-.033.281.281,0,0,0-.02-.035l-.018-.033c-.007-.011-.014-.021-.021-.033s-.013-.023-.02-.033a.319.319,0,0,0-.019-.033.316.316,0,0,1-.019-.035l-.02-.032a.382.382,0,0,0-.02-.034.312.312,0,0,0-.02-.033c-.006-.012-.013-.022-.019-.033s-.014-.023-.02-.033l-.019-.034-.02-.033-.019-.033-.019-.033a.337.337,0,0,0-.021-.033.244.244,0,0,0-.019-.033l-.019-.034-.02-.032a.3.3,0,0,0-.021-.033.155.155,0,0,0-.018-.035.37.37,0,0,0-.019-.033c-.006-.014-.014-.023-.02-.035s-.013-.021-.019-.033-.013-.021-.019-.033l-.021-.032-.019-.035c-.007-.01-.015-.023-.021-.033a.188.188,0,0,0-.021-.033.162.162,0,0,0-.02-.033.146.146,0,0,0-.02-.034c-.006-.012-.011-.022-.018-.034l-.02-.033c-.006-.011-.013-.023-.019-.033l-.019-.034a.234.234,0,0,1-.02-.035.267.267,0,0,1-.02-.031l-.02-.034-.02-.033a.251.251,0,0,0-.019-.034.362.362,0,0,1-.018-.034l-.021-.032c0-.011-.013-.023-.019-.034s-.013-.022-.02-.033a1.532,1.532,0,0,1-.039-.066c-.006-.013-.013-.023-.019-.035l-.021-.033a.305.305,0,0,0-.02-.033c-.005-.011-.014-.024-.019-.034a.327.327,0,0,0-.021-.034.209.209,0,0,0-.019-.033c0-.011-.014-.023-.02-.035s-.013-.021-.019-.033-.013-.021-.019-.034a1.446,1.446,0,0,1-.039-.067c-.007-.009-.014-.021-.02-.031s-.014-.024-.019-.035-.014-.02-.021-.031-.013-.023-.018-.036-.014-.022-.02-.032-.014-.023-.02-.033a.345.345,0,0,0-.02-.034.252.252,0,0,0-.019-.034c-.006-.011-.013-.023-.019-.034l-.021-.033c-.005-.011-.013-.023-.02-.034L20.23,33.9c-.006-.011-.013-.023-.019-.035a.322.322,0,0,1-.02-.033.345.345,0,0,1-.02-.034c-.006-.011-.014-.021-.019-.031a.238.238,0,0,0-.021-.035.149.149,0,0,0-.019-.033.36.36,0,0,0-.018-.035l-.022-.033c-.006-.011-.012-.021-.017-.033s-.014-.021-.021-.033-.014-.022-.021-.033S20,33.51,19.994,33.5s-.014-.023-.022-.034a.194.194,0,0,0-.02-.032.249.249,0,0,0-.019-.034c-.006-.013-.011-.021-.019-.034a922.767,922.767,0,0,1-.04-.066.187.187,0,0,0-.019-.034.241.241,0,0,0-.02-.031.361.361,0,0,0-.02-.036.141.141,0,0,1-.017-.032.167.167,0,0,1-.021-.033l-.019-.033c-.007-.013-.014-.023-.021-.034a.347.347,0,0,0-.019-.033c-.007-.012-.015-.022-.021-.033a.236.236,0,0,0-.02-.034.378.378,0,0,0-.019-.033.289.289,0,0,0-.019-.033c-.006-.012-.014-.023-.019-.033s-.013-.023-.022-.034a.328.328,0,0,0-.019-.032l-.019-.034c-.005-.012-.013-.021-.018-.033a.319.319,0,0,1-.021-.033l-.02-.033c-.006-.013-.014-.023-.02-.035s-.012-.021-.019-.033-.014-.021-.02-.033-.013-.023-.019-.033-.013-.023-.02-.033-.013-.023-.02-.034-.014-.021-.019-.033a.288.288,0,0,1-.019-.033c-.006-.013-.014-.023-.02-.034s-.015-.021-.02-.032-.013-.023-.019-.035a.305.305,0,0,1-.02-.033c-.008-.011-.013-.023-.02-.033s-.013-.021-.019-.033-.013-.023-.02-.034a.244.244,0,0,1-.019-.033c-.006-.01-.014-.023-.019-.034s-.015-.021-.022-.034-.013-.021-.019-.033a.262.262,0,0,0-.019-.033.192.192,0,0,0-.021-.033.16.16,0,0,0-.02-.035l-.018-.033-.02-.035a.386.386,0,0,1-.021-.033c-.006-.012-.014-.021-.019-.033s-.015-.021-.02-.035l-.02-.031a.307.307,0,0,1-.018-.035l-.021-.031c-.007-.013-.014-.023-.02-.035s-.014-.021-.019-.033l-.019-.034-.019-.033c-.006-.013-.014-.023-.02-.034s-.014-.021-.02-.034l-.019-.033a.25.25,0,0,1-.019-.034.161.161,0,0,1-.02-.033c-.006-.011-.014-.021-.019-.033s-.014-.023-.02-.033-.014-.024-.02-.035a1.856,1.856,0,1,0-3.028,2.109.267.267,0,0,1,.026.031.291.291,0,0,0,.026.028c.008.011.018.021.025.03s.018.02.027.03a.285.285,0,0,1,.025.029c.009.009.017.02.026.028l.027.031c.008.009.018.018.026.029a.367.367,0,0,0,.026.029.289.289,0,0,1,.026.029l.026.029.026.029.027.029c.008.009.016.02.025.029s.017.019.026.028a.313.313,0,0,0,.025.031.289.289,0,0,0,.027.029c.008.01.017.019.026.03s.016.018.025.029l.026.029c.009.011.018.021.026.029s.017.02.026.028.017.019.027.031a.274.274,0,0,0,.026.029c.007.009.016.019.025.029l.026.029a.361.361,0,0,0,.026.028.187.187,0,0,0,.026.029.321.321,0,0,0,.026.031c.008.009.017.018.024.029l.027.029c.007.011.017.019.024.029s.018.02.028.029a.333.333,0,0,0,.025.029c.007.009.018.018.026.029l.025.029c.009.011.018.018.026.029a.288.288,0,0,1,.026.029c.009.011.018.019.026.03a.267.267,0,0,1,.026.028l.027.03a.223.223,0,0,0,.024.028.379.379,0,0,1,.027.031c.008.009.018.019.026.029a.223.223,0,0,0,.026.028.24.24,0,0,0,.026.03c.008.008.018.019.026.029a.215.215,0,0,0,.026.028c.009.012.018.02.025.031l.026.029c.009.011.018.018.026.029l.026.029a.361.361,0,0,0,.026.028.156.156,0,0,0,.026.03c.008.01.018.021.026.03a.369.369,0,0,0,.026.029.189.189,0,0,0,.025.029l.026.029c.008.01.018.019.024.029s.018.021.029.029.016.018.024.028.017.02.026.031l.026.029c.008.011.018.019.025.029l.025.029.027.028a.289.289,0,0,0,.026.029l.026.031c.008.01.018.018.024.028s.017.02.028.03.017.019.024.029l.027.029c.008.009.016.02.024.029s.018.018.026.029a.256.256,0,0,0,.029.029.124.124,0,0,0,.024.028c.008.012.017.02.025.031a.157.157,0,0,1,.027.03c.009.01.017.018.025.028a.376.376,0,0,1,.026.03c.008.011.018.019.026.03a.372.372,0,0,0,.028.029.186.186,0,0,0,.024.029l.026.029a.233.233,0,0,1,.026.029.228.228,0,0,1,.026.029.3.3,0,0,1,.026.029c.009.01.018.018.026.029s.018.019.025.028.018.02.027.031l.027.029.025.029.026.028c.009.011.018.019.027.031a.12.12,0,0,0,.025.029l.025.028c.008.011.018.021.026.031s.018.02.026.028a.287.287,0,0,0,.026.031c.008.009.018.019.025.029l.026.029a.226.226,0,0,0,.027.028.234.234,0,0,0,.024.029l.027.031c.008.009.016.019.026.029a.22.22,0,0,0,.026.028c.008.011.016.021.025.031l.026.029a.214.214,0,0,0,.026.028.223.223,0,0,0,.026.031l.025.029.028.029a.25.25,0,0,0,.024.029l.026.029.026.029c.009.009.018.019.026.029l.026.028c.009.013.018.02.026.031a.353.353,0,0,1,.026.029l.027.031a.156.156,0,0,1,.024.028c.009.01.019.019.027.029l.026.029.026.029.024.029c.009.011.018.018.026.029a.192.192,0,0,1,.026.029l.027.029.026.029.026.029.025.029c.008.01.018.019.026.03a.156.156,0,0,1,.025.029.3.3,0,0,1,.028.029l.024.028c.009.013.019.02.028.031s.016.018.026.029.016.018.026.029a.253.253,0,0,0,.024.029.271.271,0,0,0,.026.028.247.247,0,0,0,.026.031l.027.029c.008.01.017.019.025.03s.017.019.026.029a.384.384,0,0,0,.027.028.284.284,0,0,0,.026.03c.008.009.016.02.024.029s.018.019.026.028a.14.14,0,0,1,.026.03.238.238,0,0,1,.027.029l.025.029c.009.009.018.02.026.028s.017.02.025.031a.167.167,0,0,1,.026.029.3.3,0,0,1,.027.029c.007.009.017.019.026.029a.158.158,0,0,0,.025.028.283.283,0,0,1,.025.031,1.282,1.282,0,0,0,.4.319,1.262,1.262,0,0,0,1.661-1.762c-.008-.012-.014-.024-.02-.035" transform="translate(-5.665 -11.3)" fill="#eb2c4b"/>
      <path id="Path_16918" data-name="Path 16918" d="M101.848,29.036c-2.459,0-4.766-.056-6.563-.164V9.276c.626-.042,2.563-.083,5.3-.151a26.691,26.691,0,0,1,4.648.228c2.91.46,3.993,1.851,4.451,2.614a4.339,4.339,0,0,1,.663,2.621,4.2,4.2,0,0,1-1.788,3.283l-.226.178.258.129a4.386,4.386,0,0,1,1.836,1.848,5.789,5.789,0,0,1,.7,2.839,5.391,5.391,0,0,1-2.3,4.758c-1.366.951-3.713,1.413-6.977,1.413m-1.937-4.052c.985.06,2.049.1,3.119.066a3.764,3.764,0,0,0,2.709-.892,2.18,2.18,0,0,0,.3-2.663c-.482-.816-1.444-1.228-3.779-1.2a22.134,22.134,0,0,0-2.36.142Zm2.2-12.156a14.588,14.588,0,0,0-2.2.107v3.843l.168.016c.009,0,.918.089,1.969.089,1.7,0,2.691-.142,3.288-.668a1.78,1.78,0,0,0,.383-2.152c-.589-1.182-2.431-1.235-3.6-1.235" transform="translate(-35.543 -3.399)" fill="#141fd3"/>
      <path id="Path_16919" data-name="Path 16919" d="M76.217,9.374h-4.55c-.406.839-3.24,6.692-4.54,10.032l-.088.229h-.155l-.088-.229c-1.3-3.34-4.134-9.193-4.541-10.032H57.706c-.984,7.078-1.472,18.025-1.537,19.594H60.7c.041-1.314.314-9.572.5-11.427l.045-.47h.112l.181.415c1.512,3.447,3.46,8.184,3.779,8.967h3.287c.32-.783,2.268-5.521,3.779-8.967l.181-.415h.111l.046.47c.19,1.855.46,10.114.5,11.427h4.53C77.689,27.4,77.2,16.452,76.217,9.374" transform="translate(-20.952 -3.497)" fill="#141fd3"/>
    </g>
  </g>
</svg>
