<svg id="msb" xmlns="http://www.w3.org/2000/svg" xmlns:xlink="http://www.w3.org/1999/xlink" width="104" height="52" viewBox="0 0 104 52">
  <defs>
    <clipPath id="clip-path">
      <path id="Path_16830" data-name="Path 16830" d="M23.833,26.528a4.792,4.792,0,0,0,1.126,3.093h0l9.952,11.86h0A4.812,4.812,0,1,0,42.283,35.3h0l-9.952-11.86h0a4.811,4.811,0,0,0-8.5,3.092" transform="translate(-23.833 -21.716)" fill="none"/>
    </clipPath>
    <radialGradient id="radial-gradient" cx="0.66" cy="0.439" r="0.354" gradientTransform="translate(-0.417 2.41) rotate(180)" gradientUnits="objectBoundingBox">
      <stop offset="0" stop-color="#6f0000"/>
      <stop offset="0.018" stop-color="#6f0000"/>
      <stop offset="0.325" stop-color="#900d10"/>
      <stop offset="0.337" stop-color="#920d10"/>
      <stop offset="0.515" stop-color="#b1161a"/>
      <stop offset="0.688" stop-color="#c71c22"/>
      <stop offset="0.853" stop-color="#d51f26"/>
      <stop offset="1" stop-color="#da2128"/>
    </radialGradient>
    <clipPath id="clip-path-2">
      <path id="Path_16831" data-name="Path 16831" d="M50.515,22.719a4.857,4.857,0,0,0-1.782,2.8h0L46.163,36.995l-.067.3a4.857,4.857,0,0,0,.868,4.006,4.824,4.824,0,0,0,8.543-1.9h0l2.637-11.778h0a4.856,4.856,0,0,0-.867-4.006,4.8,4.8,0,0,0-6.762-.9" transform="translate(-45.978 -21.719)" fill="none"/>
    </clipPath>
    <radialGradient id="radial-gradient-2" cx="0.496" cy="0.708" r="0.475" gradientTransform="matrix(0, -1, 0.769, 0, -1.758, 0.978)" gradientUnits="objectBoundingBox">
      <stop offset="0" stop-color="#6f0000"/>
      <stop offset="0.037" stop-color="#6f0000"/>
      <stop offset="0.301" stop-color="#900d10"/>
      <stop offset="0.591" stop-color="#b5171c"/>
      <stop offset="0.848" stop-color="#d01e24"/>
      <stop offset="1" stop-color="#da2128"/>
    </radialGradient>
    <clipPath id="clip-path-3">
      <path id="Path_16832" data-name="Path 16832" d="M51.887,26.528a4.788,4.788,0,0,0,1.127,3.093h0l9.952,11.86h0A4.812,4.812,0,1,0,70.338,35.3l-9.951-11.86h0a4.812,4.812,0,0,0-8.5,3.092" transform="translate(-51.887 -21.716)" fill="none"/>
    </clipPath>
    <radialGradient id="radial-gradient-3" cx="0.506" cy="0.113" r="0.637" gradientTransform="translate(0.567 1.853) rotate(90) scale(1 1.008)" gradientUnits="objectBoundingBox">
      <stop offset="0" stop-color="#da2128"/>
      <stop offset="0.356" stop-color="#da2128"/>
      <stop offset="1" stop-color="#f26f21"/>
    </radialGradient>
    <clipPath id="clip-path-4">
      <path id="Path_16833" data-name="Path 16833" d="M13.355,52.867a4.838,4.838,0,1,0,4.839-4.839,4.838,4.838,0,0,0-4.839,4.839" transform="translate(-13.355 -48.028)" fill="none"/>
    </clipPath>
    <radialGradient id="radial-gradient-4" cx="0.275" cy="0.485" r="0.703" gradientTransform="translate(0)" gradientUnits="objectBoundingBox">
      <stop offset="0" stop-color="#da2128"/>
      <stop offset="0.313" stop-color="#da2128"/>
      <stop offset="0.791" stop-color="#900d10"/>
      <stop offset="1" stop-color="#6f0000"/>
    </radialGradient>
  </defs>
  <g id="boundingbox" fill="rgba(255,0,0,0.1)" stroke="red" stroke-width="1" stroke-dasharray="4 4" opacity="0">
    <rect width="104" height="52" stroke="none"/>
    <rect x="0.5" y="0.5" width="103" height="51" fill="none"/>
  </g>
  <g id="Group_10381" data-name="Group 10381" transform="translate(7.023 15.239)">
    <g id="Group_10382" data-name="Group 10382" transform="translate(4.702)">
      <g id="Group_10381-2" data-name="Group 10381" transform="translate(0 0)" clip-path="url(#clip-path)">
        <rect id="Rectangle_5442" data-name="Rectangle 5442" width="28.941" height="29.067" transform="translate(-10.696 9.738) rotate(-42.318)" fill="url(#radial-gradient)"/>
      </g>
    </g>
    <g id="Group_10384" data-name="Group 10384" transform="translate(14.641 0.001)">
      <g id="Group_10383" data-name="Group 10383" transform="translate(0 0)" clip-path="url(#clip-path-2)">
        <rect id="Rectangle_5443" data-name="Rectangle 5443" width="25.061" height="19.28" transform="translate(-7.113 19.673) rotate(-70.597)" fill="url(#radial-gradient-2)"/>
      </g>
    </g>
    <g id="Group_10386" data-name="Group 10386" transform="translate(17.293)">
      <g id="Group_10385" data-name="Group 10385" transform="translate(0 0)" clip-path="url(#clip-path-3)">
        <rect id="Rectangle_5444" data-name="Rectangle 5444" width="28.825" height="29.048" transform="translate(-10.596 8.972) rotate(-40.257)" fill="url(#radial-gradient-3)"/>
      </g>
    </g>
    <g id="Group_10388" data-name="Group 10388" transform="translate(0 11.808)">
      <g id="Group_10387" data-name="Group 10387" transform="translate(0 0)" clip-path="url(#clip-path-4)">
        <rect id="Rectangle_5445" data-name="Rectangle 5445" width="13.653" height="13.653" transform="matrix(0.754, -0.657, 0.657, 0.754, -4.793, 4.179)" fill="url(#radial-gradient-4)"/>
      </g>
    </g>
    <path id="Union_9" data-name="Union 9" d="M20.674,16.707a4.612,4.612,0,0,1-1.318-1.259c-.022-.032-.042-.065-.063-.1l-.067.034.065-.036a1.693,1.693,0,0,1-.234-.866,1.722,1.722,0,0,1,1.7-1.693,1.679,1.679,0,0,1,1.053.367c3.432,2.269,6.538,1.227,6.534-.458,0-1.878-4.714-1.659-7.146-3.481a4.537,4.537,0,0,1-1.876-3.888C19.322,2.191,21.969,0,25.759,0a8.393,8.393,0,0,1,4.429,1.084c.48.293,1.755,1,1.6,2.287a1.624,1.624,0,0,1-1.908,1.442c-1-.249-2.921-1.507-5.055-1.238a1.674,1.674,0,0,0-1.662,1.654c.067,1.173,1.8,1.622,3.254,2.02,3.036.827,5.857,1.99,5.857,5.277a4.948,4.948,0,0,1-1.829,4,7.644,7.644,0,0,1-4.853,1.45A8.809,8.809,0,0,1,20.674,16.707Zm-6.251.793a1.662,1.662,0,0,1-.855-1.467V7.909l-3.32,6.374a1.822,1.822,0,0,1-3.232,0L3.7,7.909v8.125A1.662,1.662,0,0,1,2.84,17.5,1.869,1.869,0,0,1,0,15.916V2.27A1.9,1.9,0,0,1,1.892.376h1.17a1.748,1.748,0,0,1,1.574.989l4,8.264,4-8.264A1.748,1.748,0,0,1,14.2.376h1.169A1.9,1.9,0,0,1,17.264,2.27V15.916a1.849,1.849,0,0,1-1.848,1.846A2.083,2.083,0,0,1,14.423,17.5Zm21.538.105a1.9,1.9,0,0,1-1.9-1.9V2.271a1.9,1.9,0,0,1,1.9-1.9h6.313a5.244,5.244,0,0,1,5.458,4.748,4.644,4.644,0,0,1-1.094,3.222l-.109.132.122.122a5.019,5.019,0,0,1-.242,7.444,6.215,6.215,0,0,1-4.155,1.565Zm1.8-3.451h4.8a1.925,1.925,0,1,0,0-3.851h-4.8Zm0-7.3h4.774a1.515,1.515,0,0,0,0-3.03H37.758Z" transform="translate(41.572 1.755)" fill="#231f20" stroke="rgba(0,0,0,0)" stroke-miterlimit="10" stroke-width="1"/>
  </g>
</svg>
