<svg id="pvcombank" xmlns="http://www.w3.org/2000/svg" xmlns:xlink="http://www.w3.org/1999/xlink" width="104" height="52" viewBox="0 0 104 52">
  <defs>
    <clipPath id="clip-path">
      <rect id="Rectangle_5462" data-name="Rectangle 5462" width="84.273" height="40.185" fill="none"/>
    </clipPath>
    <linearGradient id="linear-gradient" x1="-0.493" y1="0.5" x2="1.493" y2="0.5" gradientUnits="objectBoundingBox">
      <stop offset="0" stop-color="#fd0"/>
      <stop offset="1" stop-color="#f5881f"/>
    </linearGradient>
    <linearGradient id="linear-gradient-2" y1="0.5" x2="1" y2="0.5" gradientUnits="objectBoundingBox">
      <stop offset="0" stop-color="#ffd900"/>
      <stop offset="1" stop-color="#f48120"/>
    </linearGradient>
    <linearGradient id="linear-gradient-3" y1="0.5" x2="1" y2="0.5" gradientUnits="objectBoundingBox">
      <stop offset="0" stop-color="#0073bc"/>
      <stop offset="1" stop-color="#44c7f4"/>
    </linearGradient>
    <linearGradient id="linear-gradient-4" x1="-0.472" y1="0.5" x2="1.472" y2="0.5" xlink:href="#linear-gradient-3"/>
  </defs>
  <g id="boundingbox" fill="rgba(255,0,0,0.1)" stroke="red" stroke-width="1" stroke-dasharray="4 4" opacity="0">
    <rect width="104" height="52" stroke="none"/>
    <rect x="0.5" y="0.5" width="103" height="51" fill="none"/>
  </g>
  <g id="Group_10430" data-name="Group 10430" transform="translate(9.364 5.709)">
    <g id="Group_10439" data-name="Group 10439">
      <g id="Group_10438" data-name="Group 10438" clip-path="url(#clip-path)">
        <path id="Path_17100" data-name="Path 17100" d="M7.364,18.594c0-2.865-1.427-3.547-2.406-3.6-.365-.02-.989.016-.989.016v7.144h.538c1.332,0,2.856-1.079,2.856-3.561m3.9.075a6.273,6.273,0,0,1-1.627,4.289c-1.156,1.083-2.262,1.456-5.145,1.406H3.969v4.561H0V13.146s2.156-.253,4.422-.267c3.2-.018,4.448.575,5.392,1.472a6.406,6.406,0,0,1,1.45,4.317" transform="translate(0 -2.528)" fill="#0082c9" fill-rule="evenodd"/>
        <path id="Path_17101" data-name="Path 17101" d="M23.434,28.982H20.083L14.457,13.166h4.782s2.619,9.386,2.649,9.6h.025c.031-.213,2.761-9.6,2.761-9.6h4.362Z" transform="translate(-2.838 -2.585)" fill="#0082c9" fill-rule="evenodd"/>
        <path id="Path_17102" data-name="Path 17102" d="M36.448,30.264c-2.335,0-5.441-1.5-5.441-5.911,0-4.54,3.417-5.911,5.46-5.911a6.233,6.233,0,0,1,3.045.671l-.879,1.619a4.5,4.5,0,0,0-1.62-.348c-1.745,0-3.183,1.63-3.183,3.953,0,1.931,1.311,3.87,3.161,3.87a3.179,3.179,0,0,0,1.578-.348l.934,1.726a6.369,6.369,0,0,1-3.2.68Z" transform="translate(-6.087 -3.62)" fill="#ffc609" fill-rule="evenodd"/>
        <path id="Path_17103" data-name="Path 17103" d="M68.056,30.019V22.061a1.4,1.4,0,0,0-1.477-1.54,1.655,1.655,0,0,0-1.329.549v8.949H62.412v-8a1.444,1.444,0,0,0-.423-1.086,1.688,1.688,0,0,0-1.226-.411,3.325,3.325,0,0,0-1.189.211v9.287H56.758V19a18.913,18.913,0,0,1,3.329-.547,7.105,7.105,0,0,1,2.693.326,3.342,3.342,0,0,1,1.2.813,4.291,4.291,0,0,1,1.294-.8,5.381,5.381,0,0,1,2.066-.337,3.744,3.744,0,0,1,2.639,1.054,3.532,3.532,0,0,1,.906,2.552v7.958Z" transform="translate(-11.142 -3.62)" fill="#ffc609" fill-rule="evenodd"/>
        <path id="Path_17104" data-name="Path 17104" d="M38.316,43.143c0-.977-.4-2.3-3.531-2.3H34.4v4.141a4.523,4.523,0,0,0,2.9-.242,1.78,1.78,0,0,0,1.02-1.6m-.36-5.788c0-1.045-.759-1.568-2.185-1.568a6.07,6.07,0,0,0-1.371.147v3.48h.385c2.627,0,3.171-1.038,3.171-2.059m2.469,7.915c-.908.981-2.529,1.6-4.953,1.6-1.856,0-3.906-.221-3.906-.221V34.269s1.857-.213,3.194-.213c3.194,0,3.953.559,4.527.915a2.756,2.756,0,0,1,1.495,2.336c0,1.978-1.848,2.5-2.376,2.714v.035a3.791,3.791,0,0,1,2.448,1.765,3.723,3.723,0,0,1-.429,3.449" transform="translate(-6.197 -6.685)" fill="#ffc609" fill-rule="evenodd"/>
        <path id="Path_17105" data-name="Path 17105" d="M50.537,40.886c-2.217,0-3.267.772-3.267,2.3a2.138,2.138,0,0,0,2.29,2.177,3.482,3.482,0,0,0,.977-.142Zm2.842,6.008s-1.788.223-3,.223c-4.165,0-5.9-1.48-5.9-3.932,0-1.945,1.947-3.758,6.059-3.758v-.515c0-.583-.47-1.552-2.1-1.552a5.2,5.2,0,0,0-2.278.54c-.013-.045-.931-1.73-.931-1.73a8.2,8.2,0,0,1,3.862-.854c2.047,0,4.286,1.118,4.286,3.6Z" transform="translate(-8.731 -6.933)" fill="#ffc609" fill-rule="evenodd"/>
        <path id="Path_17106" data-name="Path 17106" d="M63.71,46.9V39.9c0-1.469-.223-2.193-1.421-2.463a4.109,4.109,0,0,0-1.823.162V46.9H57.656V35.874a20.862,20.862,0,0,1,3.3-.512c2.1-.108,3.15.146,4.193.834a3.243,3.243,0,0,1,1.371,2.681V46.9Z" transform="translate(-11.318 -6.937)" fill="#ffc609" fill-rule="evenodd"/>
        <path id="Path_17107" data-name="Path 17107" d="M49.52,24.356c0,3.007-1.332,3.865-2.493,3.865s-2.568-.858-2.568-3.865,1.409-3.864,2.568-3.864,2.493.858,2.493,3.864m2.842,0c0-3.706-1.953-5.912-5.335-5.912s-5.409,2.206-5.409,5.912,2.029,5.912,5.409,5.912,5.335-2.206,5.335-5.912" transform="translate(-8.17 -3.621)" fill="#ffc609" fill-rule="evenodd"/>
        <path id="Path_17108" data-name="Path 17108" d="M77.4,46.7l-3.768-4.443h-.024l.036,4.444H70.814V34.335h2.829l-.036,4.755h.038l3.3-3.7H80.8l-5.263,5.28L81.174,46.7Z" transform="translate(-13.901 -6.74)" fill="#ffc609" fill-rule="evenodd"/>
      </g>
    </g>
    <g id="pvcombank-2" data-name="pvcombank" transform="translate(59.365 0.001)">
      <path id="Path_15296" data-name="Path 15296" d="M1843.792,529.666l.011,0,2.481-1.433c-.012.019-.028.038-.043.058l-.019.023.014-.013h0l-.017.017,0,0-.01.01h0l-.029.03-.095.095-.1.1-.1.095-.095.1-.1.1-.094.095-.1.1-.095.1-.1.095-.1.1-.1.095-.095.1-.1.1-.1.095-.1.1-.1.1-.094.095-.1.1-.1.095-.095.1-.1.1-.095.095-.1.1-.095.095-.1.1-.1.1-.095.095-.1.1-.095.1-.1.095-.094.1-.1.1-.094.095-.1.1-.1.095-.095.1-.1.1-.095.095-.1.1-.1.1-.1.095-.095.1-.1.095-.1.1-.094.1-.1.095-.095.1-.1.1-.095.095-.1.1-.1.095-.095.1-.1.1-.095.095-.1.1-.095.1-.1.095-.095.1-.1.095-.1.1-.095.1-.1.095-.095.1-.1.1-.095.095-.1.1-.095.095-.1.1-.1.1-.095.095-.1.1-.095.1-.1.095-.1.1-.095.095-.1.1-.095.1-.1.095-.1.1-.1.1-.1.095-.1.1-.1.095-.095.1-.1.1-.095.095-.1.1-.1.1-.1.095-.094.1-.1.095-.1.1-.1.1-.1.095-.095.1-.1.1-.095.095-.1.1-.1.095-.095.1-.1.1-.095.095-.1.1-.094.1-.1.095-.095.1-.1.095-.1.1-.1.1-.1.095-.1.1-.1.1-.095.095-.1.1-.095.095-.1.1-.1.1-.095.095-.1.1-.095.1-.1.095-.095.1-.1.1-.1.095-.095.1-.1.095-.095.1-.1.1-.029.029-.066-.066-.1-.095-.1-.1-.1-.1-.1-.095-.095-.1-.1-.095-.094-.1-.1-.095-.095-.1-.1-.095-.1-.1-.095-.1-.1-.095-.095-.1-.1-.095-.095-.1-.1-.095-.1-.1-.095-.1-.1-.095-.095-.1-.1-.095-.1-.1-.1-.095-.095-.1-.1-.1-.1-.095-.095-.1-.1-.095-.095-.1-.1-.095-.094-.1-.1-.095-.094-.1-.1-.1-.1-.095-.095-.1-.1-.095-.095-.1-.1-.095-.1-.1-.1-.1-.095-.095-.1-.1-.1-.095-.095-.1-.1-.095-.095-.1-.1-.095-.095-.1-.1-.1-.1-.095-.095-.1-.1-.095-.1-.1-.1-.095-.095-.1-.1-.1-.1-.095-.094-.1-.1-.095-.095-.1-.1-.095-.095-.1-.1-.095-.095-.1-.1-.1-.1-.095-.095-.1-.1-.095-.095-.1-.1-.095-.094-.1-.1-.1-.095-.095-.1-.1-.1-.095-.095-.1-.1-.095-.095-.1-.1-.095-.1-.1-.1-.1-.1-.095-.095-.1-.1-.095-.095-.1-.1-.095-.095-.1-.1-.1-.095-.095-.1-.1-.1-.095-.095-.1-.1-.095-.1-.1-.1-.095-.094-.1-.1-.1-.1-.095-.1-.1-.1-.095-.094-.1-.1-.095-.095-.1-.1-.1-.095-.095-.1-.1-.1-.095-.1-.1-.1-.095-.095-.1-.1-.1-.095-.095-.1-.1-.095-.095-.1-.1-.1-.095-.095-.1-.1-.095-.095-.1-.1-.1-.095-.095-.1-.1-.1-.095-.095-.1-.1-.095-.046-.048.046.042c.031.026.063.054.1.08s.063.051.095.076l.1.072c.031.023.063.046.1.068s.063.043.095.064l.1.062.095.058.1.057.095.055.1.053.1.05.095.049.1.048.095.046.1.045.095.043.1.043.1.041.1.041.1.039.095.039.1.038.095.036.1.035.094.034.1.034.1.034.1.032.1.032.094.031.1.031.1.03.1.03.095.029.1.027.1.028.095.027.1.026.095.026.1.026.095.025.1.024.095.024.1.023.1.023.1.023.1.022.095.023.1.021.095.021.1.021.1.02.095.019.1.02.094.018.1.019.095.018.1.018.095.019.1.017.1.017.095.017.1.016.095.016.1.015.095.015.1.015.094.015.1.015.1.014.095.014.1.013.1.014.1.013.095.013.1.012.1.012.095.012.1.011.095.011.1.011.095.01.1.01.1.01.095.01.1.01.1.01.1.009.095.009.1.009.095.009.1.008.1.008.094.007.1.008.094.007.1.007.095.007.1.006.095.005.1.006.1.006.095.006.1.005.1,0,.1,0,.095,0,.1,0,.095,0,.1,0,.1,0,.095,0,.1,0,.095,0,.1,0,.095,0,.1,0,.1,0,.095,0,.1,0h.094l.1,0h1.048l.1,0h.095l.1,0,.095,0,.1,0,.095,0,.1,0,.1,0,.095,0,.1,0,.095,0,.1,0,.1,0,.1,0,.1,0,.1,0,.1,0,.095-.005.1,0,.094-.006.1-.006.095-.006.1-.006.095-.006.1-.006.1-.007.095-.007.1-.007.095-.008.1-.007.1-.009.1-.008.1-.008.094-.01.1-.009.1-.01.1-.01.095-.01.1-.01.095-.01.1-.011.1-.01.1-.011.1-.011.1-.012.1-.012.095-.012.1-.013.095-.013.1-.013.1-.014.095-.014.1-.014.095-.015.1-.014.1-.015.095-.015.1-.015.095-.016.1-.016.095-.017.1-.017.095-.017.1-.018.1-.018.095-.019.1-.018.095-.019.1-.018.095-.02.1-.02.095-.02.1-.021.1-.022.095-.022.1-.022.095-.023.1-.023.094-.023.1-.023.1-.025.095-.025.1-.025.1-.026.1-.027.095-.026.1-.027.095-.028.1-.028.1-.03.094-.029.1-.031.094-.03.1-.032.095-.032.1-.033.095-.034Z" transform="translate(-1821.495 -513.579)" fill-rule="evenodd" fill="url(#linear-gradient)"/>
      <path id="Path_15297" data-name="Path 15297" d="M1846.023,524.525l.04.01.039.01.04.01.039.01.039.01.039.01.04.01.038.01.039.01.039.011.039.01.038.01.038.011.039.01.038.011.039.011.038.011.038.011.038.011.038.011.038.011.038.011.038.011.037.011.037.011.038.012.037.011.037.012.037.011.036.012.037.011.037.012.036.012.036.012.037.012.036.012.036.012.036.012.035.012.036.012.035.013.036.012.035.013.036.012.035.013.035.012.035.013.035.013.035.013.035.013.035.013,0,0,.03.011.034.013.034.013.034.014.034.013.034.014.034.014.034.014.033.014.033.014.033.014.033.014.033.015.032.014.033.014.032.015.031.015.032.014.031.015.032.014.031.015.031.015.03.015.031.015.031.015.031.015.031.016.031.015.03.015.031.016.03.015.03.016.03.016.029.016.03.016.029.016.029.016.029.016.028.017.029.016.028.017.028.017.027.017.028.017.027.017.027.018.027.017.028.018.027.018.026.018.027.018.026.018.026.018.026.019.026.018.025.019.026.019.025.018.025.019.024.019.024.019.024.018.024.019.023.02.023.019.023.019.022.02.022.02.022.02.022.021.022.02.021.021.021.021.02.022.02.021.019.021.02.022.019.022.018.022.018.023.018.023.018.023.016.023.016.023.016.024.015.024.014.025.014.025.013.026.012.026.011.026.01.027.01.027.009.028.008.028.007.029.006.03,0,.031,0,.031V527c0,.011,0,.022,0,.034s0,.022,0,.035,0,.024-.006.035a.294.294,0,0,1-.007.038c0,.013-.006.026-.01.039l-.014.041c-.006.014-.012.029-.02.044s-.016.031-.025.047-.02.034-.032.052l-2.493,1.439-.152.055-.144.05-.137.047-.131.043-.127.04-.123.038-.119.036-.116.034-.113.033-.112.031-.108.03-.107.028-.1.027-.1.027-.1.025-.1.025-.1.023-.1.023-.1.021-.095.022-.093.021-.092.02-.091.019-.09.019-.089.018-.089.018-.087.018-.087.018-.086.016-.085.016-.084.016-.083.015-.084.015-.082.014-.082.015-.081.014-.081.014-.08.013-.08.014-.079.012-.079.013-.078.012-.078.012-.077.011-.076.011-.076.011-.075.01-.076.01-.074.01-.075.01-.074.01-.074.01-.074.01-.073.009-.072.009-.073.009-.072.009-.072.008-.072.008-.071.009-.071.007-.071.008-.07.007-.07.007-.069.007-.034,0v-6.2l.023,0,.048,0,.048,0,.048.005.048,0,.048.006.048,0,.048.005.048.005.047.006.048,0,.047.006.048.005.047.006.047.006.047.005.047.007.047.005.048.006.046.006.048.006.047.006.046.006.047.006.047.006.046.006.047.006.045.006.047.006.046.006.046.006.046.006.046.007.046.006.046.006.045.006.046.007.045.006.045.007.045.007.045.006.045.007.045.007.045.007.044.007.045.007.044.007.044.007.044.007.044.008.044.007.044.007.044.008.043.008.044.007.043.008.043.008.044.008.043.008.043.008.043.008.042.008.043.008.042.009.043.008.042.009.043.008.042.009.042.008.042.009.042.009.043.009.042.009.042.009.041.009.042.009.042.01.041.009.041.009.041.01.041.009.041.01.041.009.041.01.04.01.041.009.04.01.04.01.04.01.04.01.04.01.039.01.04.01Z" transform="translate(-1825.452 -512.715)" fill-rule="evenodd" fill="url(#linear-gradient-2)"/>
      <path id="Path_15298" data-name="Path 15298" d="M1829.908,528.182v.085h0l-.125-.013-.049-.006-.048,0-.048-.006-.048,0-.048-.006-.047-.006-.048,0-.048-.006-.048-.006-.048-.006-.047-.006-.047-.006-.046-.006-.048-.006-.047-.006-.047-.006-.047-.006-.047-.006-.047-.006-.046-.007-.047-.006-.047-.006-.046-.006-.047-.006-.045-.007-.047-.006-.046-.006-.046-.006-.046-.006-.046-.006-.046-.007-.046-.006-.045-.006-.046-.007-.045-.007-.045-.007-.045-.006-.045-.007-.045-.007-.045-.007-.045-.007-.044-.006-.045-.007-.044-.008-.044-.007-.044-.007-.044-.007-.044-.008-.043-.007-.044-.008-.043-.007-.044-.008-.043-.008-.043-.008-.043-.008-.042-.008-.043-.008-.043-.008-.043-.008-.043-.008-.043-.009-.043-.008-.042-.009-.042-.008-.042-.009-.042-.008-.042-.009-.042-.009-.042-.009-.042-.009-.042-.009-.042-.009-.042-.009-.041-.01-.041-.009-.042-.01-.041-.009-.041-.01-.041-.009-.04-.01-.041-.01-.041-.01-.04-.01-.041-.01-.04-.01-.04-.01-.04-.01-.04-.01-.039-.011-.04-.01-.039-.01-.04-.01-.039-.01-.04-.01-.04-.01-.039-.01-.039-.01-.039-.01-.039-.01-.039-.01-.039-.01-.039-.01-.038-.011-.039-.011-.038-.011-.039-.01-.038-.011-.039-.011-.038-.011-.038-.01-.038-.011-.038-.011-.037-.011-.038-.012-.037-.011-.038-.011-.037-.011-.037-.012-.037-.011-.037-.012-.037-.011-.036-.012-.037-.012-.036-.012-.036-.012-.037-.012-.036-.012-.035-.012-.036-.012-.036-.012-.036-.012-.035-.013-.036-.012-.035-.013-.035-.012-.035-.013-.035-.012-.035-.013-.035-.013-.035-.013-.035-.013-.034-.013h0l-.034-.013-.034-.013-.035-.013-.033-.014-.035-.013-.034-.014-.034-.014-.033-.014-.034-.014-.033-.014-.033-.015-.033-.014-.032-.014-.033-.014-.032-.014-.032-.015-.032-.014-.031-.015-.032-.015-.031-.015-.031-.015-.031-.015-.031-.015-.031-.015-.03-.015-.031-.015-.031-.015-.031-.015-.031-.015-.03-.016-.03-.015-.03-.016-.03-.016-.029-.016-.03-.016-.029-.016-.029-.016-.029-.017-.028-.016-.028-.017-.028-.017-.028-.016-.028-.018-.028-.017-.028-.017-.027-.017-.027-.018-.027-.017-.027-.018-.026-.018-.027-.018-.025-.018-.027-.019-.025-.018-.025-.018-.026-.019-.025-.018-.025-.018-.025-.019-.024-.019-.024-.018-.024-.019-.024-.019-.023-.019-.023-.02-.023-.019-.022-.02-.023-.02-.022-.02-.021-.021-.021-.02-.021-.021-.021-.021-.02-.022-.021-.021-.019-.022-.02-.023-.018-.022-.019-.022-.019-.023-.017-.022-.017-.023-.016-.023-.016-.024-.015-.024-.016-.024-.014-.025-.014-.025-.013-.026-.012-.026-.011-.026-.011-.026-.01-.027-.009-.028-.007-.028-.007-.03-.005-.03,0-.031,0-.031v-.032c0-.011,0-.022,0-.034l3.646-2.1.114-.033.111-.031.109-.03.107-.029.1-.027.1-.026.1-.026.1-.024.1-.024.1-.023.1-.023.094-.022.093-.021.092-.02.092-.019.09-.019.089-.018.089-.018.088-.018.087-.017.086-.017.084-.016.086-.016.083-.015.083-.015.082-.015.082-.015.081-.014.082-.013.079-.013.081-.013.078-.013.079-.013.078-.012.077-.011.078-.012.077-.011.076-.011.076-.01.075-.01.075-.011.075-.01.074-.01.074-.01.074-.01.072-.009.073-.009.073-.009.072-.009.072-.008.071-.009.072-.008.071-.007.07-.008.071-.008.07-.006.069-.007.041,0,0,0v6.11Z" transform="translate(-1821.437 -512.369)" fill-rule="evenodd" fill="url(#linear-gradient-3)"/>
      <path id="Path_15299" data-name="Path 15299" d="M1824.983,518.911l.1-.095.095-.1.1-.1.095-.095.1-.1.095-.095.1-.1.1-.1.1-.095.1-.1.094-.095.1-.1.095-.1.1-.095.1-.1.094-.1.1-.095.1-.1.1-.095.095-.1.1-.1.095-.095.1-.1.095-.095.1-.1.1-.1.095-.095.1-.1.094-.1.1-.095.095-.1.1-.1.1-.095.095-.1.1-.095.1-.1.1-.1.095-.095.1-.1.095-.095.1-.1.1-.1.095-.095.1-.1.1-.1.1-.095.1-.1.1-.1.095-.095.1-.1.1-.095.095-.1.1-.1.094-.095.1-.1.095-.095.1-.1.1-.1.095-.095.1-.1.095-.1.1-.095.095-.1.1-.095.095-.1.1-.1.1-.095.095-.1.1-.095.095-.1.1-.1.094-.095.1-.1.1-.1.095-.095.1-.1.095-.1.1-.095.095-.1.1-.095.095-.1.1-.1.1-.095.094-.1.1-.095.095-.1.1-.1.094-.095.1-.1.095-.1.1-.095.1-.1.095-.1.046-.045.05.05.095.1.1.095.095.1.1.095.095.1.1.095.1.1.094.095.1.1.1.1.1.095.095.1.1.095.1.1.095.095.1.1.095.1.1.095.095.1.1.095.1.1.095.095.1.1.094.1.1.095.095.1.1.095.094.1.1.095.1.1.095.095.1.1.095.1.1.095.095.1.1.095.095.1.1.095.1.1.095.1.1.095.095.1.1.095.1.1.1.095.095.1.1.1.1.095.095.1.1.095.095.1.1.095.095.1.1.095.1.1.095.1.1.095.094.1.1.095.095.1.1.095.095.1.1.095.095.1.1.1.1.095.095.1.1.095.095.1.1.095.094.1.1.1.1.095.095.1.1.095.095.1.1.095.095.1.1.1.1.095.1.1.1.095.095.1.1.095.094.1.1.095.095.1.1.1.1.095.095.1.1.095.095.1.1.095.095.1.1.095.095.1.1.1.1.095.095.1.1.095.095.1.1.095.095.1.1.1.1.095.095.1.1.095.1.1.1.095.095.1.1.1.094.095.1.1.1.095.095.1.1.095.095.1.1.1.095.095.1.1.1.095.1.1.1.095.094.1.1.095.094.1.1.1.062.062h0l-.062-.055c-.031-.027-.063-.054-.1-.08l-.094-.075-.1-.071-.094-.067-.1-.064-.1-.061c-.031-.02-.063-.039-.1-.059l-.1-.057-.095-.054-.1-.052c-.031-.018-.063-.034-.095-.051l-.1-.049-.095-.047-.1-.047-.1-.044-.094-.044-.1-.043-.095-.041-.1-.04-.1-.039-.1-.039-.095-.037-.1-.036-.1-.035-.095-.035-.1-.034-.095-.034-.1-.032-.095-.031-.1-.031-.1-.03-.095-.031-.1-.029-.095-.028-.1-.028-.095-.027-.1-.026-.095-.026-.1-.026-.1-.026-.095-.025-.1-.024-.094-.024-.1-.023-.095-.023-.1-.022-.1-.023-.1-.022-.1-.021-.095-.021-.1-.021-.095-.02-.1-.019-.095-.019-.1-.019-.095-.018-.1-.018-.1-.018-.095-.018-.1-.017-.095-.017-.1-.017-.1-.016-.095-.016-.1-.015-.095-.015-.1-.015-.095-.015-.1-.014-.094-.014-.1-.014-.095-.014-.1-.013-.1-.013-.095-.013-.1-.012-.095-.012-.1-.012-.095-.011-.1-.012-.1-.011-.095-.01-.1-.01-.1-.01-.1-.01-.095-.01-.1-.01-.095-.009-.1-.009-.1-.009-.095-.008-.1-.008-.095-.008-.1-.008-.095-.007-.1-.007-.095-.006-.1-.007-.1-.006-.094-.006-.1-.006-.095-.006-.1-.006-.094,0-.1-.006-.095,0-.1,0-.1,0-.095,0-.1,0-.095,0-.1,0-.095,0-.1,0-.1,0-.095,0-.1,0-.1,0-.1,0-.094,0h-.1l-.1,0h-1.048l-.094,0-.1,0h-.095l-.1,0-.094,0-.1,0-.1,0-.095,0-.1,0-.095,0-.1,0-.095,0-.1,0-.095,0-.1,0-.1,0-.094,0-.1.006-.095,0-.1.006-.095.006-.1.006-.1.006-.095.006-.1.006-.095.007-.1.007-.095.007-.1.007-.095.008-.1.008-.1.009-.095.009-.1.009-.094.009-.1.01-.095.01-.1.01-.1.01-.095.01-.1.01-.1.011-.1.011-.1.011-.1.012-.095.012-.1.012-.1.013-.095.013-.1.013-.095.014-.1.014-.1.013-.1.015-.095.014-.1.015-.1.015-.095.016-.1.015-.094.017-.1.016-.095.017-.1.018-.1.018-.095.018-.1.018-.095.019-.1.018-.095.02-.1.019-.1.02-.1.021-.094.02-.1.022-.1.022-.095.022-.1.023-.094.023-.1.023-.1.023-.1.025-.1.025-.095.025-.1.027-.095.026-.1.027-.095.027h0l-3.636,2.1c0-.011,0-.023,0-.035s0-.024.006-.036,0-.025.008-.037a.307.307,0,0,1,.011-.039.346.346,0,0,1,.014-.042c.006-.015.013-.03.019-.044s.016-.032.026-.047.021-.035.033-.052.029-.039.046-.06l.012-.015-.014.013.016-.016h0l.006-.006.016-.015.008-.009.1-.1.1-.095.095-.1.1-.095.095-.1.1-.1.095-.095.1-.1.1-.095.1-.1.1-.1.095-.095.1-.1.1-.1.1-.095.095-.1.1-.095.1-.1.095-.1.1-.095.094-.1.1-.1.095-.095.1-.1.095-.095.1-.1.1-.1.095-.095.1-.1.094-.1.1-.095.095-.1.1-.095.1-.1Z" transform="translate(-1821.437 -510)" fill-rule="evenodd" fill="url(#linear-gradient-4)"/>
    </g>
  </g>
</svg>
