<svg id="saigonbank" xmlns="http://www.w3.org/2000/svg" xmlns:xlink="http://www.w3.org/1999/xlink" width="104" height="52" viewBox="0 0 104 52">
  <defs>
    <clipPath id="clip-path">
      <rect id="Rectangle_5465" data-name="Rectangle 5465" width="75.986" height="42.136" fill="none"/>
    </clipPath>
  </defs>
  <g id="boundingbox" fill="rgba(255,0,0,0.1)" stroke="red" stroke-width="1" stroke-dasharray="4 4" opacity="0">
    <rect width="104" height="52" stroke="none"/>
    <rect x="0.5" y="0.5" width="103" height="51" fill="none"/>
  </g>
  <g id="Group_10440" data-name="Group 10440" transform="translate(13.507 4.724)">
    <g id="Group_10442" data-name="Group 10442" clip-path="url(#clip-path)">
      <path id="Path_17123" data-name="Path 17123" d="M129.721,14.993c.1-.514-.741-.9-1.636-1.224-.813-.3-1.651-.546-2.179-.683l.009-1.541-1.7-1.322-1.756.938-1.32,1.183,1.125,0v.754l-1.357.485-.138.629a4.747,4.747,0,0,0-2.111,1.6h4.035V14.489H124.4v1.322h6.487c.073-1.082-.689-.81-1.17-.818m-4.432,7.338a10.841,10.841,0,0,0,4.975-1.56c.1-.706.23-1.41.33-2.116a9.489,9.489,0,0,1-4.747,2.008Zm-2.895-2.053c-3.917-1.138-4.937-3.8-4.88-5.892.039-1.372,3.7-7.938,13.18-2.875q-.051-.827-.1-1.654C119.237,5.6,115.2,11.237,114.64,12.929c-1.02,3.073,1.432,7.411,6.211,8.8.327.1.664.187,1.014.267Zm-.64-1.468,1.733-.1-1.758,5.715h2.348l1.96-5.861,8.228-.473.611-1.257h-14.4Zm16.236-2.137-13.28,13.28a1.086,1.086,0,0,1-1.529,0L109.9,16.673a1.085,1.085,0,0,1,0-1.529l13.279-13.28a1.087,1.087,0,0,1,1.529,0l13.28,13.28a1.086,1.086,0,0,1,0,1.529m1.348-2.013L125.2.516a1.769,1.769,0,0,0-2.5,0L108.554,14.661a1.771,1.771,0,0,0,0,2.5L122.7,31.3a1.77,1.77,0,0,0,2.5,0l14.144-14.146a1.77,1.77,0,0,0,0-2.5" transform="translate(-85.954 0)" fill="#004a8e"/>
      <path id="Path_17124" data-name="Path 17124" d="M7.231,173.953l.012-.1c.008-.093.014-.186.014-.284a2.881,2.881,0,0,0-.249-1.2,1.757,1.757,0,0,0-1.069-1.031,4.779,4.779,0,0,0-1.475-.2H3.225a2.892,2.892,0,0,1-.974-.082.646.646,0,0,1-.423-.542.015.015,0,0,1,0-.009.661.661,0,0,1,.408-.649,3.193,3.193,0,0,1,1.134-.118H6.891v-1.612H3c-.459,0-.8.011-1.031.035-.087.009-.172.02-.254.036l-.015,0a1.913,1.913,0,0,0-.912.4.382.382,0,0,0-.047.038c-.022.017-.039.039-.058.055s-.059.056-.086.086a1.831,1.831,0,0,0-.268.369,2.347,2.347,0,0,0-.256.678,1.7,1.7,0,0,0-.038.2c0,.035-.009.067-.011.1a2.681,2.681,0,0,0-.019.287,2.9,2.9,0,0,0,.25,1.2,1.744,1.744,0,0,0,1.07,1.03,4.755,4.755,0,0,0,1.474.2H4.036a2.809,2.809,0,0,1,.972.083.642.642,0,0,1,.421.539v.008a.653.653,0,0,1-.407.651,3.193,3.193,0,0,1-1.13.116H.367v1.614h3.9c.457,0,.8-.011,1.03-.034.087-.008.17-.02.252-.035a.129.129,0,0,1,.026,0,1.906,1.906,0,0,0,.9-.4l.047-.038c.019-.019.04-.039.06-.057s.059-.056.083-.084a1.926,1.926,0,0,0,.27-.369,2.481,2.481,0,0,0,.26-.683c.014-.063.025-.129.035-.2" transform="translate(0 -133.757)" fill="#004a8e"/>
      <path id="Path_17125" data-name="Path 17125" d="M40.844,169.979l-1.1,2.7h2.2ZM36.7,175.846l3.2-7.724h1.893l3.2,7.724H43.057l-.746-1.789H39.377l-.75,1.789Z" transform="translate(-29.197 -133.754)" fill="#004a8e"/>
      <rect id="Rectangle_5464" data-name="Rectangle 5464" width="1.639" height="7.724" transform="translate(16.622 34.368)" fill="#004a8e"/>
      <path id="Path_17126" data-name="Path 17126" d="M98.271,171.261h3.8v4.589H98.616a5.96,5.96,0,0,1-1.424-.135,2.562,2.562,0,0,1-.955-.467,3.837,3.837,0,0,1-1.212-3.23,4.9,4.9,0,0,1,.573-2.495,2.574,2.574,0,0,1,1.168-1.064,4.762,4.762,0,0,1,1.928-.333h3.373V169.5H98.882a2.1,2.1,0,0,0-1.5.453,2.612,2.612,0,0,0-.551,1.907,5.164,5.164,0,0,0,.146,1.276,2.021,2.021,0,0,0,.394.846,1.308,1.308,0,0,0,.61.373,3.315,3.315,0,0,0,.955.118h1.489v-1.839H98.271Z" transform="translate(-75.6 -133.758)" fill="#004a8e"/>
      <path id="Path_17127" data-name="Path 17127" d="M138.02,169.178a1.8,1.8,0,0,0-1.628.74,3.408,3.408,0,0,0-.387,1.856,3.3,3.3,0,0,0,.486,2,1.812,1.812,0,0,0,1.533.628,1.768,1.768,0,0,0,1.5-.638,3.253,3.253,0,0,0,.485-1.972,3.554,3.554,0,0,0-.393-1.849,1.724,1.724,0,0,0-1.6-.763m-.014-1.3a4.915,4.915,0,0,1,2.04.4,2.683,2.683,0,0,1,1.446,1.578,5.735,5.735,0,0,1,.329,2.047,4.844,4.844,0,0,1-.4,2.043,2.781,2.781,0,0,1-1.522,1.45,4.778,4.778,0,0,1-1.771.3,4.988,4.988,0,0,1-2.268-.486,2.72,2.72,0,0,1-1.236-1.276,4.765,4.765,0,0,1-.429-2.108,3.951,3.951,0,0,1,1.1-3.145,4.135,4.135,0,0,1,2.714-.8" transform="translate(-106.761 -133.558)" fill="#004a8e"/>
      <path id="Path_17128" data-name="Path 17128" d="M178.771,170.187v5.664h-1.564v-7.723h2.1l3.073,5.754v-5.754h1.568v7.723h-2.025Z" transform="translate(-140.982 -133.758)" fill="#004a8e"/>
      <path id="Path_17129" data-name="Path 17129" d="M219.56,174.471H221.8a2.737,2.737,0,0,0,.516-.036.749.749,0,0,0,.3-.151.908.908,0,0,0,.361-.765.762.762,0,0,0-.339-.69,1.563,1.563,0,0,0-.808-.157H219.56Zm0-3.174H221.8a2.572,2.572,0,0,0,.511-.036.837.837,0,0,0,.31-.15.911.911,0,0,0,.361-.765.76.76,0,0,0-.339-.688,1.546,1.546,0,0,0-.808-.159H219.56Zm-1.64,4.549v-7.724h4.365a3.557,3.557,0,0,1,1.495.233,1.781,1.781,0,0,1,.82.9,2.136,2.136,0,0,1,.2.9,2.088,2.088,0,0,1-.321,1.119,1.707,1.707,0,0,1-.8.72,1.834,1.834,0,0,1,1.118,1.814,2.153,2.153,0,0,1-.357,1.267,1.565,1.565,0,0,1-.794.61,4.806,4.806,0,0,1-1.452.166Z" transform="translate(-173.372 -133.754)" fill="#004a8e"/>
      <path id="Path_17130" data-name="Path 17130" d="M257.175,169.979l-1.1,2.7h2.2Zm-4.149,5.867,3.2-7.724h1.9l3.2,7.724h-1.927l-.746-1.789H255.7l-.745,1.789Z" transform="translate(-201.302 -133.754)" fill="#004a8e"/>
      <path id="Path_17131" data-name="Path 17131" d="M299.211,170.187v5.664h-1.567v-7.723h2.107l3.071,5.754v-5.754h1.565v7.723h-2.022Z" transform="translate(-236.799 -133.758)" fill="#004a8e"/>
      <path id="Path_17132" data-name="Path 17132" d="M340.007,172.444V171.5l2.808-3.378h2.371l-3.227,3.814,3.073,3.91h-2.374Zm0,3.4H338.37v-7.724h1.637Z" transform="translate(-269.2 -133.755)" fill="#004a8e"/>
    </g>
  </g>
</svg>
