<svg id="scb" xmlns="http://www.w3.org/2000/svg" width="104" height="52" viewBox="0 0 104 52">
  <g id="boundingbox" fill="rgba(255,0,0,0.1)" stroke="red" stroke-width="1" stroke-dasharray="4 4" opacity="0">
    <rect width="104" height="52" stroke="none"/>
    <rect x="0.5" y="0.5" width="103" height="51" fill="none"/>
  </g>
  <g id="Group_10397" data-name="Group 10397" transform="translate(9.364 10.522)">
    <path id="Union_17" data-name="Union 17" d="M13.721,3.093,12.513,1.885l-.24.218v.991H11.6V0h.677V1.314L13.721,0h.87L13.02,1.426l1.668,1.668Zm-3.671,0L8.311.968V3.093H7.634V0h.677L10.05,2.127V0h.676V3.093Zm-3.866,0-.316-.676h-1.3l-.317.676H3.478L4.831.207,4.927,0h.58l.1.207L6.958,3.093ZM4.841,1.837H5.6l-.379-.806ZM0,3.093V0H1.981A.917.917,0,0,1,2.9.918a.837.837,0,0,1-.191.542.841.841,0,0,1,.385.715.917.917,0,0,1-.918.917Zm.677-.58H2.029a.338.338,0,1,0,0-.676H.677Zm0-1.255h1.16a.339.339,0,0,0,0-.677H.677Z" transform="translate(0.773 17.199)" fill="#1825aa" stroke="rgba(0,0,0,0)" stroke-miterlimit="10" stroke-width="1"/>
    <path id="Union_15" data-name="Union 15" d="M1.126,21.259h9.31l5.026,5.024,7.73-7.729v-2.32H.019C.007,15.978,0,15.72,0,15.461s.007-.517.019-.774H30.9c.011.256.019.514.02.774a15.463,15.463,0,0,1-29.8,5.8ZM.152,13.3a15.359,15.359,0,0,1,.3-1.545h7.9L6.8,13.3Zm21.029-2.937L19.635,8.813h9.787a15.63,15.63,0,0,1,.636,1.547Zm-20.318,0A15.451,15.451,0,0,1,1.5,8.813h9.788L9.741,10.358ZM18.244,7.422,16.7,5.876H27.592a15.457,15.457,0,0,1,1.078,1.545Zm-15.992,0A15.457,15.457,0,0,1,3.33,5.876H14.224L12.679,7.422ZM4.574,4.484A15.531,15.531,0,0,1,6.395,2.938H24.528a15.457,15.457,0,0,1,1.819,1.545ZM8.715,1.547a15.487,15.487,0,0,1,13.493,0Z" transform="translate(0 0)" fill="#eb0029" stroke="rgba(0,0,0,0)" stroke-miterlimit="10" stroke-width="1"/>
    <path id="Union_16" data-name="Union 16" d="M16.041,10.05A10.047,10.047,0,0,1,34.09,3.971,25.064,25.064,0,0,0,30.847,6.1a6.184,6.184,0,1,0,0,7.9,25.179,25.179,0,0,0,3.243,2.13A10.048,10.048,0,0,1,16.041,10.05Zm-13.455,8.6A6.705,6.705,0,0,1,0,15.167,25.13,25.13,0,0,0,3.767,13.95c.15,1.168,1.166,2.54,4.037,2.54,2.283,0,3.575-1.089,3.575-2.286a1.432,1.432,0,0,0-.482-1.16c-.5-.462-1.491-.64-3.007-1.02a22.336,22.336,0,0,1-4.811-1.508A5.226,5.226,0,0,1,.17,5.881,5.579,5.579,0,0,1,2.687,1.372,8.256,8.256,0,0,1,7.514,0a7.031,7.031,0,0,1,7.1,4.964A25.041,25.041,0,0,0,10.9,6.181c-.1-1.159-1.259-2.518-3.383-2.556C4.9,3.576,4.035,5.052,4.035,5.894c0,1.161,1.063,1.715,1.845,1.915,1.407.362,3.286.752,4.217,1.024,1.281.371,5.146,1.312,5.147,5.179,0,3.382-3.069,6.087-7.44,6.087A8.765,8.765,0,0,1,2.585,18.649Zm33.167,1.064V2.319A5.764,5.764,0,0,0,35.421.387h8.545A5.315,5.315,0,0,1,47.91,9.263a5.8,5.8,0,0,1-3.461,10.45Zm3.865-3.672h4.252a2.319,2.319,0,1,0,0-4.639H39.617Zm0-8.117h3.671a1.933,1.933,0,0,0,0-3.866H39.617Z" transform="translate(34.787 5.411)" fill="#1825aa" stroke="rgba(0,0,0,0)" stroke-miterlimit="10" stroke-width="1"/>
  </g>
</svg>
