<svg id="lienvietpostbank" xmlns="http://www.w3.org/2000/svg" xmlns:xlink="http://www.w3.org/1999/xlink" width="104" height="52" viewBox="0 0 104 52">
  <defs>
    <clipPath id="clip-path">
      <path id="Path_17828" data-name="Path 17828" d="M8.947.254a8.618,8.618,0,1,0,.4-.01c-.133,0-.266,0-.4.01" transform="translate(-0.687 -0.244)" fill="none"/>
    </clipPath>
    <radialGradient id="radial-gradient" cx="0.561" cy="0.334" r="0.469" gradientTransform="matrix(0.988, 0, 0, -1, 0, 2.014)" gradientUnits="objectBoundingBox">
      <stop offset="0" stop-color="#fff"/>
      <stop offset="0.337" stop-color="#e9d2b2"/>
      <stop offset="0.654" stop-color="#dab37c"/>
      <stop offset="0.883" stop-color="#d1a25d"/>
      <stop offset="1" stop-color="#ce9b51"/>
    </radialGradient>
    <clipPath id="clip-path-2">
      <path id="Path_17829" data-name="Path 17829" d="M7.234,16.2A5.5,5.5,0,0,1,4.1,14.926a6.032,6.032,0,0,1-1.779-2.869c-.285-.989-.405-2.146.067-2.056.143.028.395.664.667,1.128a3.038,3.038,0,0,0,.723.905c.1.073.427-.662.909-1.081.28-.231.584-.31.635.379.058.844-.094,1.849.154,1.849.228,0,.748-.173,1.891-.271.428-.036.674.046.265.621A4.332,4.332,0,0,1,6.51,14.691c.97.909,2.134.8,2.156,1.186.013.221-.422.344-.991.344a4.33,4.33,0,0,1-.441-.023M10.5,8.032a1.393,1.393,0,0,1-1.07-.992,2.912,2.912,0,0,1-.031-1.1,7.314,7.314,0,0,1,.674-2.149c.395-1-.567-1.58-.409-1.946.215-.5.9.134,1.672.181.658.036,1.057,0,1.57.072a3.183,3.183,0,0,1,1.863.748c.333.391-.177.867-.787.569-.448-.219-1.011-.086-.68.382a1.5,1.5,0,0,0,.994.561,1.029,1.029,0,0,1,.383,1.918c-.859.63-1.733.368-2.08-.866-.175-.617-.609-.931-1.057-.754s-.18.985.158,1.736c.583,1.491-.6,1.649-1.05,1.649a1.231,1.231,0,0,1-.149-.009m-.64,8.446c-.01-.2.28-.248.28-.248,2.594-.513,1.835-2.213.918-3.08-.386-.364-4-3.48-4-3.48C3.62,6.708,3.9,4.4,3.9,4.4,4.064,1.547,6.554.842,8.44,1.006c.222.019.345.152.3.337-.04.2-.332.214-.332.214a3.067,3.067,0,0,0-1.545.372c-1.518,1.022-1.074,2.761.953,4.7.256.243.527.5.807.762,0,0,.405.359,1.217,1.129,1.559,1.435,2.411,2.208,2.411,2.208,2.748,2.288,1.806,4.38.76,5.106a5.234,5.234,0,0,1-2.852.878l-.03,0a.258.258,0,0,1-.273-.233M8.812.009A8.778,8.778,0,1,0,9.214,0c-.133,0-.267,0-.4.009" transform="translate(-0.443 0)" fill="none"/>
    </clipPath>
    <radialGradient id="radial-gradient-2" cx="0.578" cy="0.363" r="1.035" gradientTransform="matrix(0.988, 0, 0, -1, 0, 2)" gradientUnits="objectBoundingBox">
      <stop offset="0" stop-color="#1abff1"/>
      <stop offset="0.101" stop-color="#15abe2"/>
      <stop offset="0.219" stop-color="#1197d4"/>
      <stop offset="0.223" stop-color="#1196d3"/>
      <stop offset="0.282" stop-color="#1184c7"/>
      <stop offset="0.345" stop-color="#1077bd"/>
      <stop offset="0.411" stop-color="#0f6eb7"/>
      <stop offset="0.483" stop-color="#0e69b4"/>
      <stop offset="0.573" stop-color="#0e67b2"/>
      <stop offset="1" stop-color="#0e67b2"/>
    </radialGradient>
    <clipPath id="clip-path-3">
      <rect id="Rectangle_5477" data-name="Rectangle 5477" width="103.929" height="17.742" fill="none"/>
    </clipPath>
  </defs>
  <g id="boundingbox" fill="rgba(255,0,0,0.1)" stroke="red" stroke-width="1" stroke-dasharray="4 4" opacity="0">
    <rect width="104" height="52" stroke="none"/>
    <rect x="0.5" y="0.5" width="103" height="51" fill="none"/>
  </g>
  <g id="Group_10456" data-name="Group 10456" transform="translate(0 17.111)">
    <g id="Group_10457" data-name="Group 10457" transform="translate(0.325 0.116)">
      <g id="Group_10456-2" data-name="Group 10456" clip-path="url(#clip-path)">
        <rect id="Rectangle_5475" data-name="Rectangle 5475" width="17.716" height="17.507" transform="translate(-0.206 0)" fill="url(#radial-gradient)"/>
      </g>
    </g>
    <g id="Group_10459" data-name="Group 10459" transform="translate(0.21)">
      <g id="Group_10458" data-name="Group 10458" clip-path="url(#clip-path-2)">
        <rect id="Rectangle_5476" data-name="Rectangle 5476" width="17.954" height="17.742" transform="translate(-0.21 0)" fill="url(#radial-gradient-2)"/>
      </g>
    </g>
    <g id="Group_10461" data-name="Group 10461" transform="translate(0 0)">
      <g id="Group_10460" data-name="Group 10460" clip-path="url(#clip-path-3)">
        <path id="Path_17830" data-name="Path 17830" d="M47.15,15.772a4.62,4.62,0,0,0,2.58.911c.945,0,1.518-.409,1.518-1.191,0-.608-.245-.994-1.016-1.378a11.347,11.347,0,0,1-2.289-1.308,2.742,2.742,0,0,1-1.038-2.16c0-1.354,1.12-2.3,2.989-2.3a6.57,6.57,0,0,1,2.7.514V10.3c0,.21-.2.28-.363.14a3.147,3.147,0,0,0-2.1-.805c-.828,0-1.3.385-1.3,1.015a1.21,1.21,0,0,0,.467,1.016,9.465,9.465,0,0,0,1.95,1.133,2.718,2.718,0,0,1,1.926,2.673c0,1.775-1.507,2.51-3.421,2.51-1.413,0-3.2-.676-2.965-1.261Z" transform="translate(-24.629 -4.396)" fill="#717271"/>
        <path id="Path_17831" data-name="Path 17831" d="M62.278,8.608h2v3.257a2.775,2.775,0,0,1,1.845-.677,2.163,2.163,0,0,1,2.44,2.09v4.693H66.725V13.523c0-.666-.339-.969-1.063-.969a2.382,2.382,0,0,0-1.389.549V17.97H62.441v-8.2a1.021,1.021,0,0,0-.293-.84c-.139-.176-.045-.327.13-.327" transform="translate(-32.693 -4.533)" fill="#717271"/>
        <path id="Path_17832" data-name="Path 17832" d="M80.6,10.982v6.561H78.766V12.137a1.085,1.085,0,0,0-.292-.817c-.141-.176-.046-.339.117-.339ZM80.67,8.9A1.109,1.109,0,1,1,79.561,7.8,1.081,1.081,0,0,1,80.67,8.9" transform="translate(-41.291 -4.105)" fill="#717271"/>
        <path id="Path_17833" data-name="Path 17833" d="M85.983,14.281h1.949v.642a2.623,2.623,0,0,1,1.879-.864,2.2,2.2,0,0,1,2.453,2.218v4.565H90.43v-4.4c0-.736-.326-1.063-1.063-1.063a2.031,2.031,0,0,0-1.377.584v4.88H86.157V15.46a1.065,1.065,0,0,0-.291-.841c-.151-.175-.059-.338.116-.338" transform="translate(-45.179 -7.404)" fill="#717271"/>
        <path id="Path_17834" data-name="Path 17834" d="M102.182,8.608h2v3.257a2.77,2.77,0,0,1,1.843-.677,2.163,2.163,0,0,1,2.441,2.09v4.693H106.63V13.523c0-.666-.339-.969-1.064-.969a2.38,2.38,0,0,0-1.388.549V17.97h-1.833v-8.2a1.022,1.022,0,0,0-.292-.84c-.14-.176-.046-.327.129-.327" transform="translate(-53.708 -4.533)" fill="#717271"/>
        <path id="Path_17835" data-name="Path 17835" d="M121.032,15.3a3.9,3.9,0,0,0-1.985.666c-.257.174-.409.081-.409-.187V14.549a6.976,6.976,0,0,1,2.51-.49c1.809,0,2.848.7,2.848,2.148v4.635h-1.8V20.13a2.548,2.548,0,0,1-2.03.923,2.041,2.041,0,0,1-2.207-2.079c0-1.4.97-2.276,3.024-2.276h1.179v-.491c0-.642-.409-.91-1.132-.91m1.132,2.614h-1.191c-.9,0-1.249.409-1.249,1.028a.791.791,0,0,0,.84.864,2.118,2.118,0,0,0,1.6-.759Z" transform="translate(-62.121 -7.404)" fill="#717271"/>
        <path id="Path_17836" data-name="Path 17836" d="M133.361,14.281h1.948v.642a2.626,2.626,0,0,1,1.88-.864,2.2,2.2,0,0,1,2.452,2.218v4.565h-1.834v-4.4c0-.736-.327-1.063-1.062-1.063a2.031,2.031,0,0,0-1.378.584v4.88h-1.832V15.46a1.064,1.064,0,0,0-.291-.841c-.152-.175-.059-.338.117-.338" transform="translate(-70.129 -7.404)" fill="#717271"/>
        <path id="Path_17837" data-name="Path 17837" d="M157.292,9.151h3.21c1.915,0,3.129.875,3.129,2.288a2.121,2.121,0,0,1-1.028,1.949,2.2,2.2,0,0,1,1.518,2.265c0,1.716-1.389,2.6-3.479,2.6h-3.175V10.331a1.062,1.062,0,0,0-.293-.841c-.14-.175-.046-.338.117-.338m2.078,3.713h1c.875,0,1.354-.327,1.354-1.2s-.479-1.214-1.389-1.214h-.969Zm2.79,2.685c0-.969-.537-1.389-1.635-1.389H159.37v2.8h1.167c1.1,0,1.623-.432,1.623-1.413" transform="translate(-82.736 -4.819)" fill="#717271"/>
        <path id="Path_17838" data-name="Path 17838" d="M176.6,15.3a3.907,3.907,0,0,0-1.984.666c-.257.174-.409.081-.409-.187V14.549a6.976,6.976,0,0,1,2.51-.49c1.809,0,2.848.7,2.848,2.148v4.635h-1.8V20.13a2.55,2.55,0,0,1-2.032.923,2.039,2.039,0,0,1-2.205-2.079c0-1.4.968-2.276,3.022-2.276h1.18v-.491c0-.642-.409-.91-1.133-.91m1.133,2.614h-1.191c-.9,0-1.249.409-1.249,1.028a.791.791,0,0,0,.841.864,2.118,2.118,0,0,0,1.6-.759Z" transform="translate(-91.385 -7.404)" fill="#717271"/>
        <path id="Path_17839" data-name="Path 17839" d="M188.926,14.281h1.949v.642a2.625,2.625,0,0,1,1.88-.864,2.2,2.2,0,0,1,2.451,2.218v4.565h-1.832v-4.4c0-.736-.327-1.063-1.063-1.063a2.031,2.031,0,0,0-1.378.584v4.88H189.1V15.46a1.064,1.064,0,0,0-.291-.841c-.152-.175-.059-.338.116-.338" transform="translate(-99.391 -7.404)" fill="#717271"/>
        <path id="Path_17840" data-name="Path 17840" d="M205.289,17.971v-8.2a1.02,1.02,0,0,0-.293-.84c-.14-.175-.046-.327.13-.327h2v5.37l2.323-2.569h2.1l-2.51,2.8,2.813,3.759h-2.02l-2.019-2.744c-.21-.292-.3-.338-.525-.338h-.163v3.082Z" transform="translate(-107.92 -4.534)" fill="#717271"/>
      </g>
    </g>
  </g>
</svg>
