<svg id="uob" xmlns="http://www.w3.org/2000/svg" width="104" height="52" viewBox="0 0 104 52">
  <g id="boundingbox" fill="rgba(255,0,0,0.1)" stroke="red" stroke-width="1" stroke-dasharray="4 4" opacity="0">
    <rect width="104" height="52" stroke="none"/>
    <rect x="0.5" y="0.5" width="103" height="51" fill="none"/>
  </g>
  <g id="Group_10462" data-name="Group 10462" transform="translate(9.364 13.987)">
    <path id="Path_1" data-name="Path 1" d="M2175.64,62.355c0,.565.777.635,1.2.635h.353c1.059-.07,1.059-.494,1.059-.635V39.635c.069-.565-.707-.635-1.2-.635h-.209c-.426,0-1.2.07-1.2.635Z" transform="translate(-2157.86 -39)" fill="#e1091d"/>
    <path id="Path_2" data-name="Path 2" d="M2108.93,62.355c0,.565.777.635,1.2.635h.353c1.059-.07,1.059-.494,1.059-.635V39.635c0-.565-.707-.635-1.2-.635h-.209c-.5,0-1.2.07-1.2.635Z" transform="translate(-2105.332 -39)" fill="#e1091d"/>
    <path id="Path_3" data-name="Path 3" d="M2131.169,62.355c0,.565.777.635,1.2.635h.424c1.058-.07,1.058-.494,1.058-.635V39.635c0-.565-.777-.635-1.2-.635h-.282c-.424,0-1.2.07-1.2.635Z" transform="translate(-2122.843 -39)" fill="#e1091d"/>
    <path id="Path_4" data-name="Path 4" d="M2153.4,62.355c0,.565.776.635,1.2.635h.353c1.058-.07,1.058-.494,1.058-.635V39.635c0-.565-.774-.635-1.2-.635h-.209c-.426,0-1.2.07-1.2.635Z" transform="translate(-2140.348 -39)" fill="#e1091d"/>
    <path id="Path_5" data-name="Path 5" d="M2092.638,89.12c-.565,0-.635.776-.635,1.2v.423c.07,1.058.494,1.058.635,1.058h22.72c.565,0,.635-.776.635-1.2v-.282c0-.423-.07-1.2-.635-1.2Z" transform="translate(-2092.003 -78.465)" fill="#e1091d"/>
    <path id="Path_6" data-name="Path 6" d="M2326.283,64.724h0c-3.74,0-5.153-2.047-5.153-7.338,0-5.222,1.34-7.126,5.083-7.126h.139c3.669,0,5.083,1.905,5.083,7.126-.07,5.292-1.482,7.338-5.153,7.338m0-17.428c-6.351,0-9.243,3.175-9.243,10.16,0,6.915,2.963,10.231,9.031,10.3h.282c6.139,0,9.1-3.387,9.1-10.3,0-7.056-2.822-10.16-9.172-10.16" transform="translate(-2269.201 -45.533)" fill="#002469"/>
    <path id="Path_7" data-name="Path 7" d="M2231.406,66.642c1.27.988,3.034,1.411,5.856,1.411h.139c2.822,0,4.586-.423,5.927-1.411,1.834-1.411,2.189-3.1,2.189-6.279v-11.5a.711.711,0,0,0-.209-.565,2.992,2.992,0,0,0-1.979-.423,2.88,2.88,0,0,0-1.905.423.713.713,0,0,0-.209.565V60.857c0,1.975,0,2.4-.917,3.175a5.154,5.154,0,0,1-3.034.776,4.684,4.684,0,0,1-3.034-.78c-.917-.705-.917-1.129-.917-3.1V48.862a.712.712,0,0,0-.209-.565,4.509,4.509,0,0,0-3.815,0,.711.711,0,0,0-.209.565v11.5c.139,3.175.424,4.869,2.329,6.279" transform="translate(-2199.939 -45.969)" fill="#002469"/>
    <path id="Path_8" data-name="Path 8" d="M2422.967,65.7h-4.516v-6h4.8c2.682,0,3.176,1.129,3.176,3.034.069,2.54-.847,2.964-3.458,2.964m-4.515-14.324h4.586c2.4,0,2.54,1.2,2.54,2.752,0,1.905-.847,2.681-2.893,2.681h-4.233Zm9.526-1.693c-1.059-.776-2.329-1.058-4.8-1.058h-8.186a.707.707,0,0,0-.705.705V67.96a.707.707,0,0,0,.705.705h8.608c2.329,0,3.951-.07,5.362-1.129a5.486,5.486,0,0,0,1.835-4.516,5.023,5.023,0,0,0-1.764-4.163,6.871,6.871,0,0,0-1.623-.776l-.353-.139.353-.139c1.694-.776,2.258-1.905,2.258-4.092-.07-1.129-.282-3.034-1.693-4.022" transform="translate(-2345.777 -46.58)" fill="#002469"/>
  </g>
</svg>
