<svg id="vib" xmlns="http://www.w3.org/2000/svg" width="104" height="52" viewBox="0 0 104 52">
  <g id="boundingbox" fill="rgba(255,0,0,0.1)" stroke="red" stroke-width="1" stroke-dasharray="4 4" opacity="0">
    <rect width="104" height="52" stroke="none"/>
    <rect x="0.5" y="0.5" width="103" height="51" fill="none"/>
  </g>
  <g id="Group_10403" data-name="Group 10403" transform="translate(24.145 3.543)">
    <path id="Path_16923" data-name="Path 16923" d="M65.264,0a4.112,4.112,0,0,0-3.552,1.457L59.447,3.94,57.186,1.457A4.1,4.1,0,0,0,53.638,0h-2.63s4.127,5.139,4.646,5.731a3.267,3.267,0,0,0,2.719,1.481h2.152a3.286,3.286,0,0,0,2.724-1.481C63.77,5.139,67.892,0,67.892,0Z" transform="translate(-3.185 0)" fill="#fcb614" fill-rule="evenodd"/>
    <path id="Path_16924" data-name="Path 16924" d="M64.37,7.054a3.252,3.252,0,0,0-2.638,1.618l-.54.933-.539.934a3.281,3.281,0,0,0-.082,3.094c.252.743,2.639,6.889,2.639,6.889L64.53,18.24a4.11,4.11,0,0,0,.514-3.8l-1.019-3.2,3.281-.718a4.119,4.119,0,0,0,3.035-2.347L71.654,5.9s-6.513,1-7.284,1.158" transform="translate(-3.755 -0.364)" fill="#f37521" fill-rule="evenodd"/>
    <path id="Path_16925" data-name="Path 16925" d="M58.6,10.536,58.066,9.6l-.539-.933a3.269,3.269,0,0,0-2.635-1.618C54.116,6.9,47.6,5.9,47.6,5.9l1.319,2.28a4.093,4.093,0,0,0,3.032,2.347l3.279.718-1.021,3.2a4.12,4.12,0,0,0,.516,3.8l1.315,2.283s2.392-6.146,2.644-6.889a3.285,3.285,0,0,0-.083-3.1" transform="translate(-2.975 -0.364)" fill="#f6911e" fill-rule="evenodd"/>
    <path id="Path_16926" data-name="Path 16926" d="M39.185,33.256V29.962H39.9c1.672,0,3.416-.538,3.416-2.535,0-1.822-1.4-2.63-3.374-2.63h-.755V21.639h.3c1.485,0,2.589-.75,2.589-2.21s-.963-2.138-2.716-2.138h-.176V14h.8c3.843,0,6.478,1.318,6.482,4.672a4.538,4.538,0,0,1-2.443,3.944,2.2,2.2,0,0,1-.309.17,4.767,4.767,0,0,1,4.045,4.777c0,3.91-2.882,5.689-6.795,5.689ZM18.827,14H16.489c-.764,0-.993.3-1.238,1.362-.87,3.735-1.928,9.6-4.032,12.7,0,0-.489.815-1.139.815s-1.14-.815-1.14-.815c-2.1-3.1-3.53-8.967-4.391-12.7C4.3,14.3,4.072,14,3.31,13.995L.968,14a.877.877,0,0,0-.932.918v.1a1.45,1.45,0,0,0,.026.229c.74,3.825,2,9.651,4.966,14.69,1.4,2.386,2.716,3.7,5.051,3.7,2.335-.008,3.651-1.318,5.049-3.7C18.093,24.9,19,19.066,19.735,15.247c.114-.578-.115-1.249-.907-1.249m20.357,0h0l-7.394,0A.891.891,0,0,0,30.825,15V32.162c0,.785.337,1.086.9,1.086.4.006,4.894.006,7.462.008V29.962H35.059V24.8h4.126V21.639H35.059l0-4.349h4.124ZM26.133,14H23.5a.845.845,0,0,0-.838.838V32.419a.841.841,0,0,0,.838.837h2.635a.842.842,0,0,0,.833-.837V14.836A.839.839,0,0,0,26.133,14" transform="translate(-0.036 -0.865)" fill="#0061ae" fill-rule="evenodd"/>
  </g>
</svg>
