<svg id="publicbank" xmlns="http://www.w3.org/2000/svg" xmlns:xlink="http://www.w3.org/1999/xlink" width="104" height="52" viewBox="0 0 104 52">
  <defs>
    <clipPath id="clip-path">
      <rect id="Rectangle_5473" data-name="Rectangle 5473" width="103.929" height="23.592" fill="none"/>
    </clipPath>
  </defs>
  <g id="boundingbox" fill="rgba(255,0,0,0.1)" stroke="red" stroke-width="1" stroke-dasharray="4 4" opacity="0">
    <rect width="104" height="52" stroke="none"/>
    <rect x="0.5" y="0.5" width="103" height="51" fill="none"/>
  </g>
  <g id="Group_10450" data-name="Group 10450" transform="translate(0 14.186)">
    <path id="Path_17781" data-name="Path 17781" d="M2.8,15.371l.762-.792,1.686,1.744h7.666l1.607-1.7.689.716L9.023,21.923Zm3.436-3.55L8.955,9.009l2.84,2.848L8.978,14.78ZM2.791,8.24l6.24-6.522,6.2,6.466-.665.781L12.892,7.241l-7.629,0L3.481,8.989ZM12.913,0,5.243.012,0,5.428V11.11l.792.764-.785.7.008,5.665,5.214,5.358,7.684-.02,5.07-5.322L18,12.467l-.766-.718L18,11.065l-.022-5.637Z" transform="translate(0 0)" fill="#ec1c24"/>
    <g id="Group_10449" data-name="Group 10449" transform="translate(0 0)">
      <g id="Group_10448" data-name="Group 10448" clip-path="url(#clip-path)">
        <path id="Path_17782" data-name="Path 17782" d="M79.166,18.653a1.1,1.1,0,0,0-.892-.376,1.106,1.106,0,0,0,.3-.089,1.088,1.088,0,0,0,.264-.169.884.884,0,0,0,.2-.244.641.641,0,0,0,.086-.3v-1.2a.649.649,0,0,0-.056-.257.836.836,0,0,0-.14-.213.969.969,0,0,0-.188-.172.853.853,0,0,0-.49-.142l-5.989.011.005,5.55,5.748-.008a1.623,1.623,0,0,0,.7-.121,1.19,1.19,0,0,0,.524-.527.9.9,0,0,0,.1-.38v-.811a1.087,1.087,0,0,0-.05-.318.626.626,0,0,0-.128-.235m-5.3-1.982,3.4,0a.476.476,0,0,1,.331.2.567.567,0,0,1,.08.6.527.527,0,0,1-.1.142.51.51,0,0,1-.138.1.384.384,0,0,1-.17.056h-3.4Zm3.91,2.939a.539.539,0,0,1-.426.207H73.871v-1.08h3.5a.558.558,0,0,1,.411.212.512.512,0,0,1,.1.233.545.545,0,0,1-.1.428" transform="translate(-31.993 -6.858)" fill="#ec1c24" fill-rule="evenodd"/>
        <path id="Path_17783" data-name="Path 17783" d="M49.5,16.014a1.523,1.523,0,0,0-.283-.273,1.259,1.259,0,0,0-.73-.249H43.055v5.56h1.6v-1.4l3.858,0A1.07,1.07,0,0,0,49,19.5a1.446,1.446,0,0,0,.384-.3,1.556,1.556,0,0,0,.274-.41,1.205,1.205,0,0,0,.13-.488V16.736a1.056,1.056,0,0,0-.081-.387,1.292,1.292,0,0,0-.2-.335m-1.235,1.738a.558.558,0,0,1-.047.168.662.662,0,0,1-.246.308.793.793,0,0,1-.159.072.134.134,0,0,1-.054.011H44.723V16.773l3.053,0a.426.426,0,0,1,.2.068.485.485,0,0,1,.135.115.675.675,0,0,1,.1.154.72.72,0,0,1,.054.187,2.062,2.062,0,0,1,.009.451" transform="translate(-19.061 -6.859)" fill="#ec1c24" fill-rule="evenodd"/>
        <path id="Path_17784" data-name="Path 17784" d="M109.956,18.95a.8.8,0,0,1-.082.359.854.854,0,0,1-.125.209.791.791,0,0,1-.45.25,1.331,1.331,0,0,1-.254.008h-2.273a.5.5,0,0,1-.25-.076.766.766,0,0,1-.213-.191.879.879,0,0,1-.162-.531V17.51a.692.692,0,0,1,.044-.237.737.737,0,0,1,.12-.208.757.757,0,0,1,.622-.277l2.422,0a.54.54,0,0,1,.183.03.493.493,0,0,1,.151.088.61.61,0,0,1,.115.131.573.573,0,0,1,.081.361h1.46V16.59a.956.956,0,0,0-.121-.413,1.106,1.106,0,0,0-.229-.306,1.418,1.418,0,0,0-.3-.223,1.455,1.455,0,0,0-.738-.155h-3.573a2.338,2.338,0,0,0-.475.026,1.614,1.614,0,0,0-.452.163,1.655,1.655,0,0,0-.387.29,1.693,1.693,0,0,0-.286.388,1.536,1.536,0,0,0-.168.538,7.794,7.794,0,0,0-.062.908c-.007.322,0,.627.009.949a8.756,8.756,0,0,0,.08.911,1.487,1.487,0,0,0,.187.562,1.571,1.571,0,0,0,.352.4,1.887,1.887,0,0,0,.972.408,3.764,3.764,0,0,0,.519.018h3.111a2.146,2.146,0,0,0,.542-.052,1.625,1.625,0,0,0,.493-.223,1.526,1.526,0,0,0,.6-.782,2.99,2.99,0,0,0,.119-.708c.007-.109.009-.223.005-.337Z" transform="translate(-46.284 -6.858)" fill="#ec1c24" fill-rule="evenodd"/>
        <rect id="Rectangle_5472" data-name="Rectangle 5472" width="1.601" height="5.56" transform="translate(55.426 8.633)" fill="#ec1c24"/>
        <path id="Path_17785" data-name="Path 17785" d="M88.553,15.491H86.884v5.56H92.69V19.778H88.553Z" transform="translate(-38.466 -6.858)" fill="#ec1c24" fill-rule="evenodd"/>
        <path id="Path_17786" data-name="Path 17786" d="M64.443,15.491H62.774l0,3.607a.475.475,0,0,1-.222.421.5.5,0,0,1-.3.109H59.477a.572.572,0,0,1-.214-.045.584.584,0,0,1-.177-.116.563.563,0,0,1-.182-.388V15.491H57.3l0,4.182a1.186,1.186,0,0,0,.145.495,1.424,1.424,0,0,0,.274.392,1.674,1.674,0,0,0,.378.287,1.655,1.655,0,0,0,.446.169,2.187,2.187,0,0,0,.479.035l3.616,0a3.138,3.138,0,0,0,.485-.021,1.642,1.642,0,0,0,.471-.141,1.511,1.511,0,0,0,.405-.3,1.414,1.414,0,0,0,.288-.422,2.167,2.167,0,0,0,.139-.484,1.229,1.229,0,0,0,.019-.245V15.491Z" transform="translate(-25.368 -6.858)" fill="#ec1c24" fill-rule="evenodd"/>
        <path id="Path_17787" data-name="Path 17787" d="M142.529,15.491l-3.039,5.56h1.78l.629-1.112h3.784l.573,1.112h1.932l-3.058-5.56Zm2.583,3.414h-2.7l1.238-2.269h.429l1.168,2.269h-.135" transform="translate(-61.756 -6.858)" fill="#ec1c24" fill-rule="evenodd"/>
        <path id="Path_17788" data-name="Path 17788" d="M132.607,18.653a1.071,1.071,0,0,0-.236-.2,1.093,1.093,0,0,0-.656-.173,1.107,1.107,0,0,0,.3-.089,1.081,1.081,0,0,0,.264-.169.89.89,0,0,0,.2-.243.635.635,0,0,0,.086-.3v-1.2a.661.661,0,0,0-.056-.258.811.811,0,0,0-.14-.213.941.941,0,0,0-.188-.173.853.853,0,0,0-.49-.141l-5.988.01.006,5.55,5.748-.008a1.628,1.628,0,0,0,.7-.121,1.109,1.109,0,0,0,.3-.218,1.122,1.122,0,0,0,.223-.309.9.9,0,0,0,.1-.38v-.81a1.107,1.107,0,0,0-.049-.318.628.628,0,0,0-.128-.234m-5.3-1.982,3.4,0a.479.479,0,0,1,.332.2.567.567,0,0,1,.08.6.559.559,0,0,1-.232.253.381.381,0,0,1-.172.05l-3.4-.005Zm3.786,3.054a.5.5,0,0,1-.148.069.544.544,0,0,1-.155.019l-3.484,0V18.735l3.5,0a.553.553,0,0,1,.321.116.521.521,0,0,1,.2.452.532.532,0,0,1-.235.417" transform="translate(-55.652 -6.858)" fill="#ec1c24" fill-rule="evenodd"/>
        <path id="Path_17789" data-name="Path 17789" d="M162.764,15.491v4.337h-.175l-3.061-4.337h-2.917l0,5.561,1.57,0V16.594l.153.011,3.11,4.443,2.846,0-.006-5.558Z" transform="translate(-69.336 -6.858)" fill="#ec1c24" fill-rule="evenodd"/>
        <path id="Path_17790" data-name="Path 17790" d="M177,18.188l3.105-2.7h-2.28l-2.191,2.079H174.57V15.491H172.9v5.56h1.668V18.833l.943-.006,2.516,2.224h2.447Z" transform="translate(-76.548 -6.858)" fill="#ec1c24" fill-rule="evenodd"/>
      </g>
    </g>
  </g>
</svg>
