<svg id="vietbank" xmlns="http://www.w3.org/2000/svg" width="104.825" height="52" viewBox="0 0 104.825 52">
  <g id="boundingbox" fill="rgba(255,0,0,0.1)" stroke="red" stroke-width="1" stroke-dasharray="4 4" opacity="0">
    <rect width="104" height="52" stroke="none"/>
    <rect x="0.5" y="0.5" width="103" height="51" fill="none"/>
  </g>
  <g id="Group_10405" data-name="Group 10405" transform="translate(0 13.851)">
    <g id="Group_10407" data-name="Group 10407" transform="translate(0 0)">
      <path id="Path_16958" data-name="Path 16958" d="M62.393,33.27a4.13,4.13,0,0,0,1.82,2.971c1.624.915,9.125,5.248,9.125,5.248l2.024-2.435-12.969-7.14Z" transform="translate(-62.393 -17.313)" fill="#f6921e"/>
      <path id="Path_16959" data-name="Path 16959" d="M102.78,26.49l-5.393-1.644V12.41H98.3a4.486,4.486,0,0,1,4.486,4.486Z" transform="translate(-81.208 -8.269)" fill="#f6921e"/>
      <path id="Path_16960" data-name="Path 16960" d="M82.239,40l-2.751-3.088,10.718-7.126,2.9,4.3a.235.235,0,0,1-.073.334l-9.693,5.758a.875.875,0,0,1-1.1-.175" transform="translate(-71.573 -16.036)" fill="#ffde40"/>
      <path id="Path_16961" data-name="Path 16961" d="M62.375,7.34v8.379a3.151,3.151,0,0,0,1.575,2.729l7.257,4.19a3.15,3.15,0,0,0,3.15,0l7.257-4.19a3.15,3.15,0,0,0,1.575-2.729V7.34a3.149,3.149,0,0,0-1.575-2.728L74.357.422a3.15,3.15,0,0,0-3.15,0L63.95,4.612A3.15,3.15,0,0,0,62.375,7.34" transform="translate(-62.36 0)" fill="#ffc10e"/>
      <path id="Path_16962" data-name="Path 16962" d="M82.029,20.8a2,2,0,0,0-.842-3.817H75.03L73.676,21,72.4,16.98H68.978l2.755,7.783s1.8.017,3.349.017h6.4a2.029,2.029,0,0,0,.548-3.983m-2.334,1.839H78.182V21.93h1.513a.353.353,0,0,1,0,.706m0-2.688H78.182v-.706h1.513a.353.353,0,0,1,0,.706" transform="translate(-65.915 -9.141)" fill="#da202c"/>
    </g>
    <g id="Group_10408" data-name="Group 10408" transform="translate(25.402 7.568)">
      <path id="Union_23" data-name="Union 23" d="M16.205,8.726V0h7.7V2.8h-3.8v.6h3.8v1.8H20.155v.638h3.754V8.726Zm-4.748,0V0h3.827V8.726Zm-8.378,0L0,0H4.351L5.5,3.631,6.739,0h4.367L8,8.726ZM27.159,8.7V2.781H24.6V0h9.053V2.776H31.024V8.7Z" transform="translate(0 0.049)" fill="#1854a5" stroke="rgba(0,0,0,0)" stroke-miterlimit="10" stroke-width="1"/>
      <path id="Union_24" data-name="Union 24" d="M17.322,8.783l-.507-1.341H13.821L13.2,8.783,9.5,8.718,12.84,0h5.234l3.156,8.783Zm-2.674-3.86h1.333l-.613-1.955ZM.1,8.742a.1.1,0,0,1-.1-.1V.049H6.845A2.331,2.331,0,0,1,9.176,2.38v.237A1.774,1.774,0,0,1,7.989,4.29,2.418,2.418,0,0,1,9.56,6.555,2.187,2.187,0,0,1,7.373,8.742ZM3.562,6.379H5.255a.381.381,0,0,0,0-.761H3.562Zm0-3.038H5.255a.38.38,0,1,0,0-.761H3.562ZM39.517,8.718,37.685,5.152V8.718H33.056V0h4.629V3.3L39.763,0h4.318L41.365,3.975l2.928,4.743Zm-11.384,0L25.745,4.825V8.718H21.934V0h3.827l2.552,3.86V0h3.893V8.718Z" transform="translate(34.234)" fill="#da202c" stroke="rgba(0,0,0,0)" stroke-miterlimit="10" stroke-width="1"/>
    </g>
  </g>
</svg>
