<svg xmlns="http://www.w3.org/2000/svg" width="751.724" height="222.51" viewBox="0 0 751.724 222.51"><g transform="translate(-45.083 -186.383)"><path d="M151.848,246.975,107.574,348.259H87.449L45.083,246.975H67.325l31.282,77.559,31.209-77.559Z" fill="#464749"/><path d="M179.919,261.849H161.206V246.977h18.713Zm0,86.41H161.206V273.894h18.713Z" fill="#464749"/><path d="M232.91,273.894q33.751,0,33.753,34.562a66.819,66.819,0,0,1-.635,9.2H216.812q0,15.723,23.019,15.726a120.358,120.358,0,0,0,22.453-2.124v14.874a114.723,114.723,0,0,1-23.865,2.123q-40.32,0-40.32-38.032,0-36.336,34.811-36.333m-16.1,30.736h31.635v-.566q0-15.439-15.537-15.438-14.828,0-16.1,16" fill="#464749"/><path d="M276.108,261.849h13.839l2.824,12.045h18.64v14.871h-16.59v34.209q0,10.414,8.965,10.412h7.625v14.873H294.748q-18.64,0-18.64-20.041Z" fill="#464749"/><path d="M414.153,343.3a83.121,83.121,0,0,1-29.657,4.96q-54.369,0-54.371-52.767,0-49.934,54.371-49.935a83.144,83.144,0,0,1,29.657,4.957v17a70.242,70.242,0,0,0-28.245-5.665q-36.366,0-36.365,33.645,0,36.474,36.365,36.476a70.26,70.26,0,0,0,28.245-5.666Z" fill="#464749"/><path d="M432.865,348.259V273.894h14.476l2.33,9.491q9.746-9.492,20.617-9.491V289.05q-10.447,0-18.708,8.711v50.5Z" fill="#464749"/><path d="M514.455,273.894q33.751,0,33.754,34.562a66.98,66.98,0,0,1-.637,9.2H498.357q0,15.723,23.02,15.726a120.368,120.368,0,0,0,22.454-2.124v14.874a114.737,114.737,0,0,1-23.865,2.123q-40.318,0-40.32-38.032,0-36.336,34.809-36.333m-16.1,30.736h31.636v-.566q0-15.439-15.538-15.438-14.826,0-16.1,16" fill="#464749"/><path d="M626.767,343.794a130.755,130.755,0,0,1-33.258,4.465q-35.946,0-35.942-38.673,0-35.694,35.165-35.694a37.022,37.022,0,0,1,15.321,3.54V246.975h18.714Zm-18.714-50.5q-5.79-3.821-14.544-3.827-17.439,0-17.441,19.624,0,23.3,18.146,23.3a45.555,45.555,0,0,0,13.839-2.052Z" fill="#464749"/><path d="M664.2,261.849H645.481V246.977H664.2Zm0,86.41H645.481V273.894H664.2Z" fill="#464749"/><path d="M682.907,261.849h13.839l2.823,12.045h18.644v14.871H701.62v34.209q0,10.414,8.964,10.412h7.629v14.873H701.546q-18.638,0-18.639-20.041Z" fill="#464749"/><path d="M796.807,195.841c0,.163-.008.328-.008.483-.017.262-.042.524-.076.778-.026.2-.059.384-.1.574-.041.212-.092.425-.15.63-.05.172-.1.344-.159.507a1.228,1.228,0,0,1-.091.237c-.051.14-.1.28-.159.41a8.417,8.417,0,0,1-.611,1.163l-.816,1.164c-.05.065-.092.129-.143.2-.818,1.129-1.694,2.276-2.629,3.505-1.119,1.456-2.237,2.922-3.264,4.38-2.788,3.89-47.112,61.825-47.17,61.891-.009.016-.025.024-.034.041a6.592,6.592,0,0,1-10.225-.721c-.292-.4-1.712-2.392-2.136-2.99-.468-.655-.944-1.317-1.412-1.973-.384-.533-.759-1.073-1.143-1.6l-.477-.665c-7.136-9.964-18.822-26.309-22.2-31.05,0,0-1.594-2.228-2.145-2.964a7.862,7.862,0,0,1-2.254-5.5,8.007,8.007,0,0,1,8.081-7.928,6.591,6.591,0,0,1,.7.034,5.106,5.106,0,0,1,.634.082c.2.033.393.065.584.114a5.613,5.613,0,0,1,.7.2c.176.058.351.124.519.189a7.2,7.2,0,0,1,1.127.582c.174.106.341.221.508.343l.459.361a1.457,1.457,0,0,1,.191.155c2.13,1.654,4.276,3.308,6.4,4.995,2.329,1.851,4.674,3.816,6.946,5.724,2.137,1.794,4.264,3.579,6.368,5.258l.751.614c1.411,1.187,1.929,1.556,3.3,1.58,1.152,0,2.3-.712,3.5-2.235.16-.2.668-.77,3.506-3.948l.568-.638c2.937-3.292,31.077-34.924,35.084-39.487,0-.007.008-.007.008-.007.133-.149.233-.262.308-.352l.551-.63.017-.026.342-.36c.042-.04.084-.074.126-.115a9.691,9.691,0,0,1,6.486-2.456,9.557,9.557,0,0,1,9.649,9.458" fill="#aa0b21"/><path d="M96.515,397.069l-6.374-15.8H85.609L94.241,401.9h4.1l9.021-20.638h-4.49Z" fill="#aa0b21"/><path d="M129.406,381.266,120.671,401.9h3.914l6.777-16.7,3.238,7.749h-4.145l-1.309,3.321h6.834l2.345,5.628h4.1l-8.92-20.638Z" fill="#aa0b21"/><path d="M165.979,391.211l-5.784-9.945h-4.1l7.9,13.422V401.9h3.812v-7.216l7.568-13.422h-3.956Z" fill="#aa0b21"/><path d="M213.286,384.586h5.9V401.9H223V384.586h5.9v-3.32H213.286Z" fill="#aa0b21"/><rect width="3.813" height="20.638" transform="translate(244.005 381.266)" fill="#aa0b21"/><path d="M268.823,393.173h9.855v-3.421h-9.811v-5.194h10.3v-3.292H265.083V401.9h14.285v-3.319H268.823Z" fill="#aa0b21"/><path d="M271.945,377.658l1.008,1.877h2.59l-2.518-3.752h-2.16l-2.516,3.752h2.588Z" fill="#aa0b21"/><path d="M309.728,393.794q0,4.935-5.036,4.935t-5.035-4.935V381.266h-3.812v12.528q0,8.253,8.847,8.254t8.849-8.254V381.266h-3.813Z" fill="#aa0b21"/><path d="M358.287,381.266h-8.056V401.9h8.056q10.215,0,10.216-10.881Q368.5,381.266,358.287,381.266Zm0,17.319h-4.244v-14h4.244q6.4,0,6.4,6.437Q364.69,398.584,358.287,398.585Z" fill="#aa0b21"/><path d="M395.752,379.52l-2.072-3.738h-4.589l3.438,3.738Z" fill="#aa0b21"/><path d="M398.572,393.794q0,4.935-5.036,4.935t-5.035-4.935V381.266h-3.813v12.528q0,8.253,8.848,8.254t8.848-8.254V381.266h-3.812Z" fill="#aa0b21"/><path d="M434.326,396.3l-10.862-15.038h-3.813V401.9h3.669V386.549L434.182,401.9H438V381.266h-3.669Z" fill="#aa0b21"/><path d="M454.541,391.3q0,10.75,10.891,10.751a15.515,15.515,0,0,0,6.231-1.1v-8.573h-3.814v6a9.419,9.419,0,0,1-2.358.346q-6.993,0-6.993-7.432,0-6.855,7.408-6.856a14.311,14.311,0,0,1,5.757,1.155v-3.463a16.941,16.941,0,0,0-6.044-1.011Q454.542,381.122,454.541,391.3Z" fill="#aa0b21"/><path d="M511.948,384.586h5.9V401.9h3.813V384.586h5.9v-3.32H511.948Z" fill="#aa0b21"/><rect width="3.812" height="20.638" transform="translate(542.668 381.266)" fill="#aa0b21"/><path d="M570.607,377.658l1.008,1.877H574.2l-2.517-3.752h-2.159l-2.516,3.752H569.6Z" fill="#aa0b21"/><path d="M567.485,393.173h9.855v-3.421h-9.812v-5.194h10.3v-3.292H563.745V401.9h14.287v-3.319H567.485Z" fill="#aa0b21"/><path d="M609.182,396.3,598.32,381.266h-3.812V401.9h3.668V386.549L609.038,401.9h3.813V381.266h-3.669Z" fill="#aa0b21"/><path d="M659.827,381.266h-3.813V401.9H668v-3.319h-8.172Z" fill="#aa0b21"/><path d="M694.716,383.2l1.869-5.434h-3.812l-1.312,3.814a14.433,14.433,0,0,0-3.778-.462q-10.33,0-10.332,10.492.462,10.432,10.332,10.434,10.17,0,10.172-10.434Q697.855,385.791,694.716,383.2Zm-7.033,15.525q-6.376,0-6.375-7.2,0-7.086,6.375-7.087,6.213,0,6.215,7.087Q693.9,398.728,687.683,398.729Z" fill="#aa0b21"/><rect width="3.813" height="20.638" transform="translate(714.4 381.266)" fill="#aa0b21"/><rect width="3.813" height="3.536" transform="translate(569.77 405.357)" fill="#aa0b21"/><rect width="3.813" height="3.536" transform="translate(686.19 405.357)" fill="#aa0b21"/></g></svg>