<svg id="vpbank" xmlns="http://www.w3.org/2000/svg" width="104" height="52" viewBox="0 0 104 52">
  <g id="boundingbox" fill="rgba(255,0,0,0.1)" stroke="red" stroke-width="1" stroke-dasharray="4 4" opacity="0">
    <rect width="104" height="52" stroke="none"/>
    <rect x="0.5" y="0.5" width="103" height="51" fill="none"/>
  </g>
  <g id="Group_10352" data-name="Group 10352" transform="translate(0 15.011)">
    <path id="Path_16739" data-name="Path 16739" d="M12.69,5.735a6.563,6.563,0,0,0,1.994,5.312L18.363,14.9V5.85L12.683,0Z" transform="translate(-5.345)" fill="#e71e25" fill-rule="evenodd"/>
    <path id="Path_16740" data-name="Path 16740" d="M4.512,17.305c-.1,0-.2,0-.3,0H0l9.09,9.372c1.531,1.453,2.687,2.561,3.928,2.561V23.461l-3.831-3.91a6.138,6.138,0,0,0-4.675-2.245" transform="translate(0 -7.292)" fill="#e71e25" fill-rule="evenodd"/>
    <path id="Path_16741" data-name="Path 16741" d="M32.921,17.3c-1.633,0-3.023.271-4.978,2.249l-3.832,3.91v5.774c1.241,0,2.4-1.108,3.927-2.561l9.09-9.372Z" transform="translate(-10.162 -7.292)" fill="#e71e25" fill-rule="evenodd"/>
    <path id="Path_16742" data-name="Path 16742" d="M29.784,5.735,29.791,0,24.112,5.85V14.9l3.678-3.854a6.564,6.564,0,0,0,1.994-5.312" transform="translate(-10.162)" fill="#e71e25" fill-rule="evenodd"/>
    <path id="Path_16768" data-name="Path 16768" d="M104.592,18.274c.025,1.857.025,4.917.025,5.106,1.129-.024,2.234-.024,2.845-.024.964,0,3.08-.024,3.08-2.306,0-2.471-3.315-2.753-4.771-2.753-.072,0-.59,0-1.179-.024m0-2.118c.8-.024,1.7-.024,1.907-.024.94,0,3.2,0,3.2-2.071,0-2.024-2.161-2.024-3.126-2.024-.188,0-1.081,0-1.951-.023,0,.189,0,2.541-.025,4.142m-2.678-6.5h4.772c1.174,0,5.641,0,5.641,4.118a3.471,3.471,0,0,1-2.045,3.248l-.142.047.142.047a4.325,4.325,0,0,1,3.055,4.166c0,4.446-4.489,4.446-5.6,4.446h-5.829Z" transform="translate(-42.952 -4.071)" fill="#007e41" fill-rule="evenodd"/>
    <path id="Path_16769" data-name="Path 16769" d="M129.729,23.707c-2.492.071-3.715.093-3.715,2.047,0,.941.307,1.717,1.27,1.717a3.567,3.567,0,0,0,2.444-1.295c0-.187.047-2.282.047-2.446Zm.729,5.435-.235-.235-.3-.943-.1-.021a5.088,5.088,0,0,1-3.526,1.481c-2.586,0-3.032-2.141-3.032-3.388,0-3.553,3.1-3.788,6.465-3.977v-.8c0-1.153-.683-1.458-1.551-1.458a10.082,10.082,0,0,0-3.69.822L123.829,19v-.282a14.935,14.935,0,0,1,5.1-.965c2.185,0,3.6.943,3.6,3.414v5.27c0,.918.046,2.236.071,2.706Z" transform="translate(-51.95 -7.482)" fill="#007e41" fill-rule="evenodd"/>
    <path id="Path_16770" data-name="Path 16770" d="M148.516,29.16c0-.235.095-7.389.095-7.625,0-1.246-.4-1.623-1.2-1.623a5.035,5.035,0,0,0-2.468.989l.025,8.259h-2.822V20.877c0-.753-.045-2.33-.071-2.823l2.257-.072.259.237.164.918.072.023a7.637,7.637,0,0,1,3.877-1.365c1.53,0,2.7.893,2.7,3.247,0,.235-.07,7.884-.07,8.119Z" transform="translate(-59.877 -7.499)" fill="#007e41" fill-rule="evenodd"/>
    <path id="Path_16771" data-name="Path 16771" d="M170.18,15.462h-.834l-1.136.678c-.823,1.787-2.539,2.015-4.137,2.933.042-3.644.047-8.272.047-9.414h-2.862c.035.616.063,1.585.063,2.282V25.732h2.8c0-.305-.024-3.271-.024-3.93.447-.259.893-.517,1.34-.8.87,1.646,2.374,4.1,2.774,4.729H171.5l-4.161-6.212a7.745,7.745,0,0,0,2.528-3.38" transform="translate(-67.963 -4.071)" fill="#007e41" fill-rule="evenodd"/>
    <path id="Path_16772" data-name="Path 16772" d="M60.554,25.745c-2.591-4.337-4.381-11.433-4.923-16.1h2.922a48.72,48.72,0,0,0,3.485,13.274h.071A50.493,50.493,0,0,0,65.451,9.643H68.3c-.54,4.669-2.33,11.765-4.921,16.1Z" transform="translate(-23.446 -4.064)" fill="#007e41" fill-rule="evenodd"/>
    <path id="Path_16773" data-name="Path 16773" d="M83.554,17.234c.918-.024,2.213-.024,2.4-.024.847,0,3.084,0,3.084-2.592,0-2.546-2.143-2.57-3.061-2.57-.189,0-1.577,0-2.4-.024,0,.189,0,3.254-.022,5.211M80.8,9.643h5.534c1.06,0,5.416,0,5.416,4.9,0,4.291-3.955,4.927-5.18,4.927-.19,0-2.049,0-3.037-.023.023,2.1.046,6.059.046,6.294H80.8Z" transform="translate(-34.052 -4.064)" fill="#007e41" fill-rule="evenodd"/>
    <path id="Path_16774" data-name="Path 16774" d="M171.426,18.738c-.981,0-1.633.344-2.8,1.531l-2.481,2.639V25.9c.745,0,1.438-.665,2.357-1.537l5.452-5.622Z" transform="translate(-70.02 -7.897)" fill="#e71e25" fill-rule="evenodd"/>
  </g>
</svg>
