<svg id="vrb" xmlns="http://www.w3.org/2000/svg" width="104" height="52" viewBox="0 0 104 52">
  <g id="boundingbox" fill="rgba(255,0,0,0.1)" stroke="red" stroke-width="1" stroke-dasharray="4 4" opacity="0">
    <rect width="104" height="52" stroke="none"/>
    <rect x="0.5" y="0.5" width="103" height="51" fill="none"/>
  </g>
  <g id="Group_10453" data-name="Group 10453" transform="translate(18.727 14.977)">
    <path id="Path_17794" data-name="Path 17794" d="M65.5,3.371A4.229,4.229,0,0,0,63.516.508a3.764,3.764,0,0,0-1.344-.49A1.654,1.654,0,0,0,61.9,0H25.21Q14.56,0,3.91,0A3.378,3.378,0,0,0,2.361.369,4.14,4.14,0,0,0,.218,2.97,6.034,6.034,0,0,0,.033,4.117a8.245,8.245,0,0,0-.028.875q0,2.816,0,5.632a.933.933,0,0,0,.017.208A.5.5,0,0,0,0,11c0,2.095-.013,4.189.006,6.284a4.859,4.859,0,0,0,.544,2.347,4.053,4.053,0,0,0,2.383,2,3.783,3.783,0,0,0,.691.141c.026,0,.064-.012.075.032H61.771a1.141,1.141,0,0,1,.3-.043,3.835,3.835,0,0,0,2.376-1.257,4.324,4.324,0,0,0,1.069-2.191c.014-.076-.008-.158.035-.229V3.678a1.329,1.329,0,0,1-.049-.307" transform="translate(0 0)" fill="#fff"/>
    <path id="Path_17795" data-name="Path 17795" d="M65.563,3.678v7.2H65.5l-11.014,0c-.371,0-.742,0-1.113,0,.031-.046.086-.055.131-.078a3.571,3.571,0,0,0,1.273-1.066,2.507,2.507,0,0,0-.09-3.094A3.889,3.889,0,0,0,53.5,5.672a5.231,5.231,0,0,0-2.018-.55c-.618-.053-1.237-.082-1.858-.082l-6.918,0c-.184,0-.156-.02-.156.162q0,2.756,0,5.512a.614.614,0,0,1-.009.169H39.381l-.851,0a.238.238,0,0,1,.028-.043,3.022,3.022,0,0,0,.9-2.044A3.15,3.15,0,0,0,39.038,7a3.494,3.494,0,0,0-1.915-1.544,7.219,7.219,0,0,0-1.756-.335c-.639-.062-1.281-.081-1.923-.082q-3.5-.005-7,0c-.167,0-.168,0-.168.164q0,2.756,0,5.511a.454.454,0,0,1-.012.169H21.974a.537.537,0,0,1,.061-.158l2.509-5.551a.221.221,0,0,0,.041-.122.252.252,0,0,0-.127-.011l-3.17,0c-.164,0-.129-.016-.188.124L18.76,10.755a.331.331,0,0,1-.066.126l-1.805,0c-.41,0-.82,0-1.23,0-.021-.043-.045-.085-.064-.128q-1.209-2.8-2.416-5.6c-.032-.075-.059-.127-.164-.126-1.105.006-2.211,0-3.316.005-.028,0-.06-.011-.085.018a.289.289,0,0,0,.044.121l2.511,5.569a.3.3,0,0,1,.047.134h-.157l-11.285,0H.157c-.047,0-.1.011-.118-.053a.922.922,0,0,1-.017-.208q0-2.816,0-5.632A8.248,8.248,0,0,1,.05,4.117,6.034,6.034,0,0,1,.235,2.969,4.14,4.14,0,0,1,2.378.369,3.375,3.375,0,0,1,3.927,0q10.65.009,21.3,0H61.915a1.654,1.654,0,0,1,.274.013,3.767,3.767,0,0,1,1.344.49,4.23,4.23,0,0,1,1.98,2.864,1.328,1.328,0,0,0,.049.307" transform="translate(-0.017 0)" fill="#e70f04"/>
    <path id="Path_17796" data-name="Path 17796" d="M53.353,62.207c.371,0,.742,0,1.113,0l11.014,0h.066v7.2c-.043.072-.02.153-.035.229a4.325,4.325,0,0,1-1.069,2.191,3.835,3.835,0,0,1-2.376,1.258,1.148,1.148,0,0,0-.3.043H3.7c-.01-.044-.048-.029-.075-.032a3.8,3.8,0,0,1-.691-.141,4.053,4.053,0,0,1-2.383-2,4.86,4.86,0,0,1-.544-2.347C-.008,66.514,0,64.419,0,62.324a.494.494,0,0,1,.017-.168c.019.063.072.053.118.053H.756l11.285,0H12.2a.367.367,0,0,1,.074.137q1.5,3.326,3,6.654a.187.187,0,0,0,.2.133q1.592-.007,3.185,0a.2.2,0,0,0,.219-.146q1.5-3.334,3.015-6.664a.408.408,0,0,1,.061-.115h4.291a.447.447,0,0,1,.012.169q0,2.488,0,4.976,0,.832,0,1.663c0,.111,0,.112.1.113h3.053c.1,0,.1,0,.1-.1,0-.031,0-.061,0-.092v-4.95c0-.03,0-.061,0-.092,0-.09,0-.093.1-.093.5,0,1-.011,1.506.034a3.733,3.733,0,0,1,.71.115,2.689,2.689,0,0,1,1.142.691c.38.374.736.77,1.081,1.176q1.366,1.606,2.728,3.216a.234.234,0,0,0,.2.095q1.821,0,3.643,0h.118A.324.324,0,0,0,40.668,69L40,68.163c-.658-.826-1.3-1.665-1.982-2.473a10.653,10.653,0,0,0-.933-.992,7.062,7.062,0,0,0-1.68-1.1.634.634,0,0,1-.176-.1l.076-.014a10.514,10.514,0,0,0,1.08-.2,4.705,4.705,0,0,0,2.1-1.052.233.233,0,0,1,.033-.021l.851,0H42.52a.6.6,0,0,1,.009.169q0,3.293,0,6.587c0,.187-.026.163.169.163h2.044c1.931,0,3.861.008,5.792-.032.537-.011,1.075-.014,1.609-.075a5.972,5.972,0,0,0,1.314-.287,3.832,3.832,0,0,0,2.216-1.87,2.949,2.949,0,0,0,.3-2.016,2.766,2.766,0,0,0-1-1.587,4.378,4.378,0,0,0-1.539-.789c-.135-.042-.272-.078-.428-.123a1.7,1.7,0,0,1,.339-.139" transform="translate(0 -51.324)" fill="#0e64b1"/>
    <path id="Path_17797" data-name="Path 17797" d="M92.791,62.434a.217.217,0,0,1-.032.112q-.709,1.7-1.419,3.391c-.01.024-.022.047-.033.07-.045-.013-.046-.054-.059-.084q-.726-1.681-1.449-3.364a.37.37,0,0,1-.043-.123l1.23,0,1.805,0" transform="translate(-74.115 -51.552)" fill="#0e64b1"/>
    <path id="Path_17798" data-name="Path 17798" d="M265.19,73.661h-2.279c-.03,0-.061,0-.092,0-.05,0-.073-.019-.07-.069,0-.026,0-.052,0-.079q0-1.558,0-3.115c0-.157-.008-.143.14-.143.987,0,1.974,0,2.96,0,.528,0,1.057.016,1.584.055a3.94,3.94,0,0,1,1.09.206,2.166,2.166,0,0,1,.507.27,1.521,1.521,0,0,1,.505,1.779,1.374,1.374,0,0,1-.5.623,2.371,2.371,0,0,1-1.043.394,11.8,11.8,0,0,1-1.529.07c-.423.01-.847,0-1.271,0Z" transform="translate(-216.961 -58.012)" fill="#0e64b1"/>
    <path id="Path_17799" data-name="Path 17799" d="M265.059,41.088c.694,0,1.389,0,2.083.029a3.22,3.22,0,0,1,1.014.179c.049.018.1.037.145.059a1.3,1.3,0,0,1,.649,1.7,1.248,1.248,0,0,1-.437.527,2.237,2.237,0,0,1-.93.363,5.235,5.235,0,0,1-.86.074c-1.275.02-2.551.024-3.826.023-.022,0-.044,0-.066,0-.042,0-.066-.014-.066-.059,0-.026,0-.052,0-.078l0-2.7c0-.022,0-.044,0-.066,0-.039.018-.055.056-.054h2.241" transform="translate(-216.972 -33.928)" fill="#e70f04"/>
    <path id="Path_17800" data-name="Path 17800" d="M172.119,41.282c.4,0,1.113.01,1.825.022a2.851,2.851,0,0,1,1.158.237,1.4,1.4,0,0,1,.817.883,1.481,1.481,0,0,1-.725,1.761,2.456,2.456,0,0,1-.992.261c-1.335.094-2.671.077-4.007.073h-.668c-.124,0-.121.01-.121-.121q0-1.25,0-2.5c0-.17,0-.341,0-.511,0-.1,0-.105.109-.106h2.6" transform="translate(-139.884 -34.088)" fill="#e70f04"/>
  </g>
</svg>
