<svg id="oceanbank" xmlns="http://www.w3.org/2000/svg" xmlns:xlink="http://www.w3.org/1999/xlink" width="104" height="52" viewBox="0 0 104 52">
  <defs>
    <clipPath id="clip-path">
      <rect id="Rectangle_5441" data-name="Rectangle 5441" width="103.929" height="21.554" transform="translate(0 0)" fill="none"/>
    </clipPath>
  </defs>
  <g id="boundingbox" fill="rgba(255,0,0,0.1)" stroke="red" stroke-width="1" stroke-dasharray="4 4" opacity="0">
    <rect width="104" height="52" stroke="none"/>
    <rect x="0.5" y="0.5" width="103" height="51" fill="none"/>
  </g>
  <g id="Group_10380" data-name="Group 10380" transform="translate(0 15.205)">
    <g id="Group_10380-2" data-name="Group 10380" transform="translate(0 0)" clip-path="url(#clip-path)">
      <path id="Path_16818" data-name="Path 16818" d="M10.791,0a10.795,10.795,0,0,1,9.593,15.737,7.819,7.819,0,0,0-3.613-.762,4.234,4.234,0,1,0-6.6-2.353,10.759,10.759,0,0,0-5.143.239,11.391,11.391,0,0,1-4.743.415A10.8,10.8,0,0,1,10.791,0" transform="translate(0 0)" fill="#84d0d9" fill-rule="evenodd"/>
      <path id="Path_16819" data-name="Path 16819" d="M13.685,36.307a10.759,10.759,0,0,1-7.661-3.191,15,15,0,0,0,7.324-.975c4.365-1.551,7.983-1.718,9.594-1.077a10.786,10.786,0,0,1-9.257,5.243" transform="translate(-2.894 -14.753)" fill="#1c3d74" fill-rule="evenodd"/>
      <path id="Path_16820" data-name="Path 16820" d="M1.713,27.342S3.36,30.652,8.15,29.417a60.627,60.627,0,0,1,6.922-1.59s-1.422-.7-2.122-1.024a10.357,10.357,0,0,0-6.755-.189,9.458,9.458,0,0,1-4.481.728" transform="translate(-0.823 -12.552)" fill="#0096d5" fill-rule="evenodd"/>
      <path id="Path_16821" data-name="Path 16821" d="M53.69,13.778a4.267,4.267,0,1,1-4.266,4.267,4.267,4.267,0,0,1,4.266-4.267m0,1.715a2.551,2.551,0,1,0,2.551,2.551,2.551,2.551,0,0,0-2.551-2.551" transform="translate(-23.741 -6.618)" fill="#1c3d74" fill-rule="evenodd"/>
      <path id="Path_16822" data-name="Path 16822" d="M72.254,13.678A4.3,4.3,0,0,1,75.263,14.9c-.038.341-.261,1.009-1.436.92a2.625,2.625,0,1,0-.078,4.4s1.526-.8,1.96.365a4.318,4.318,0,1,1-3.454-6.911" transform="translate(-32.633 -6.57)" fill="#1c3d74" fill-rule="evenodd"/>
      <path id="Path_16823" data-name="Path 16823" d="M84.765,13.959h5.124v.893a.761.761,0,0,1-.759.759H86.564v1.438h2.543v1.616H86.564v1.987h3.325v.893a.761.761,0,0,1-.759.759H84.765Z" transform="translate(-40.717 -6.705)" fill="#1c3d74" fill-rule="evenodd"/>
      <path id="Path_16824" data-name="Path 16824" d="M100.235,20.5l2.066.015.445,1.087s.235.7.873.7,1.323,0,1.323,0l-3.287-7.582s-.235-.742-.847-.758a5.958,5.958,0,0,0-.706,0l-3.56,8.312,1.4.011a.954.954,0,0,0,.779-.69c.267-.674.444-1.082.444-1.082Zm.486-3.6.9,2.049-1.793-.021Z" transform="translate(-46.375 -6.704)" fill="#1c3d74" fill-rule="evenodd"/>
      <path id="Path_16825" data-name="Path 16825" d="M153.891,20.5l2.066.015L156.4,21.6s.235.7.874.7,1.323,0,1.323,0l-3.287-7.582s-.235-.742-.847-.758a5.957,5.957,0,0,0-.706,0l-3.56,8.312,1.4.011a.954.954,0,0,0,.779-.69c.267-.674.444-1.082.444-1.082Zm.486-3.6.9,2.049-1.793-.021Z" transform="translate(-72.148 -6.704)" fill="#1c3d74" fill-rule="evenodd"/>
      <path id="Path_16826" data-name="Path 16826" d="M114.16,13.979l.031,8.318,1.072.005a.916.916,0,0,0,.743-.936c-.005-.81-.016-4.188-.016-4.188l4.08,4.778a.894.894,0,0,0,.664.345c.413,0,.91-.01.91-.01l-.01-8.337-1.082.021s-.728.117-.728.75.01,4.323.01,4.323l-4.087-4.758a.989.989,0,0,0-.617-.324c-.313.01-.971.013-.971.013" transform="translate(-54.837 -6.703)" fill="#1c3d74" fill-rule="evenodd"/>
      <path id="Path_16827" data-name="Path 16827" d="M168.249,13.979l.031,8.318,1.072.005a.916.916,0,0,0,.743-.936c-.005-.81-.015-4.188-.015-4.188l4.079,4.778a.894.894,0,0,0,.664.345c.413,0,.91-.01.91-.01l-.01-8.337-1.082.021s-.728.117-.728.75.01,4.323.01,4.323l-4.087-4.758a.989.989,0,0,0-.617-.324c-.313.01-.971.013-.971.013" transform="translate(-80.819 -6.703)" fill="#1c3d74" fill-rule="evenodd"/>
      <path id="Path_16828" data-name="Path 16828" d="M187.356,13.909h-.776a1.015,1.015,0,0,0-1.012,1.012v7.385h.776a1.015,1.015,0,0,0,1.012-1.012V18.521l3.227,3.539a1.368,1.368,0,0,0,.46.214l2.024-.005-4.095-4.491,3.708-3.839s-1.772,0-2.107-.005a.69.69,0,0,0-.523.23l-2.694,2.808Z" transform="translate(-89.138 -6.681)" fill="#1c3d74" fill-rule="evenodd"/>
      <path id="Path_16829" data-name="Path 16829" d="M137.555,13.979h3.218a2.239,2.239,0,0,1,2.312,1.647A2.489,2.489,0,0,1,142.7,17.6a2.609,2.609,0,0,1,1.108,2.176,2.51,2.51,0,0,1-2.53,2.53h-3.724Zm1.784,4.747V20.7h1.776a.9.9,0,0,0,.9-.9v-.167a.9.9,0,0,0-.9-.9Zm-.01-3.127v1.548h1.289a.71.71,0,0,0,.708-.708v-.131a.71.71,0,0,0-.708-.708Z" transform="translate(-66.075 -6.715)" fill="#1c3d74" fill-rule="evenodd"/>
    </g>
  </g>
</svg>
