<svg id="lienvietpostbank" xmlns="http://www.w3.org/2000/svg" xmlns:xlink="http://www.w3.org/1999/xlink" width="104" height="52" viewBox="0 0 104 52">
  <defs>
    <radialGradient id="radial-gradient" cx="0.4" cy="0.736" r="0.372" gradientTransform="translate(0 0.166) scale(1 0.669)" gradientUnits="objectBoundingBox">
      <stop offset="0" stop-color="#ffe900"/>
      <stop offset="1" stop-color="#f36a0f"/>
    </radialGradient>
  </defs>
  <g id="boundingbox" fill="rgba(255,0,0,0.1)" stroke="red" stroke-width="1" stroke-dasharray="4 4" opacity="0">
    <rect width="104" height="52" stroke="none"/>
    <rect x="0.5" y="0.5" width="103" height="51" fill="none"/>
  </g>
  <g id="Group_10451" data-name="Group 10451" transform="translate(9.364 3.862)">
    <path id="Path_17792" data-name="Path 17792" d="M62.445,95.1l-1.155.915v2.215a.318.318,0,0,0,.058.208.528.528,0,0,0,.245.118l.1.026v.441H58.723v-.439l.1-.027a.589.589,0,0,0,.25-.122.323.323,0,0,0,.055-.2v-7.2a.308.308,0,0,0-.055-.2.562.562,0,0,0-.248-.121l-.1-.026v-.44h2.969v.442l-.1.025a.521.521,0,0,0-.244.116.314.314,0,0,0-.057.2v2.692l3.32-2.675c.041-.033.193-.162.2-.215s-.22-.11-.261-.117l-.11-.02v-.449h3.837v.447l-.107.022a1.05,1.05,0,0,0-.277.085,5.519,5.519,0,0,0-.535.411l-.489.4-2.838,2.237,3.249,3.837a5.262,5.262,0,0,0,.649.691,1,1,0,0,0,.457.184l.112.018v.447H64.85v-.446l.106-.022c.033-.007.23-.056.231-.093a2.186,2.186,0,0,0-.276-.388ZM49.5,93.386v4.843a.322.322,0,0,0,.055.2.588.588,0,0,0,.25.122l.1.027v.439H47.1v-.439l.1-.027a.591.591,0,0,0,.25-.122.324.324,0,0,0,.055-.2v-7.2a.307.307,0,0,0-.055-.2.561.561,0,0,0-.249-.121l-.1-.026v-.44h3.2v.442l-.1.025c-.089.022-.169.056-.169.158a.43.43,0,0,0,.137.236l4.567,4.644V91.031a.308.308,0,0,0-.055-.2.563.563,0,0,0-.248-.121l-.1-.026v-.44h2.8v.44l-.1.026a.562.562,0,0,0-.249.121.309.309,0,0,0-.055.2v7.2a.323.323,0,0,0,.055.2.589.589,0,0,0,.25.122l.1.027v.439H54.143v-.446l.105-.023c.08-.017.161-.044.161-.135a1.391,1.391,0,0,0-.271-.345Zm-8.03,2.026-1.182-2.556-1.2,2.556Zm.668,1.428h-3.74l-.552,1.125a.971.971,0,0,0-.108.336c0,.159.2.222.325.253l.1.025v.442H35.029v-.447l.107-.022a.678.678,0,0,0,.323-.141,1.671,1.671,0,0,0,.274-.446l3.185-6.533a1.175,1.175,0,0,0,.138-.441c0-.163-.139-.238-.277-.284l-.091-.031v-.434h3.337v.439l-.1.027c-.118.033-.277.094-.277.239a.8.8,0,0,0,.1.35l3.3,6.553a2.186,2.186,0,0,0,.342.533.689.689,0,0,0,.357.167l.109.021v.448H42.394v-.451l.111-.019c.154-.025.307-.077.307-.255a.96.96,0,0,0-.114-.329Zm-14.5.511h3.077a2.594,2.594,0,0,0,1.218-.222,1.03,1.03,0,0,0,0-1.611,2.58,2.58,0,0,0-1.217-.222H27.635Zm0-3.726h3.181a1.906,1.906,0,0,0,.973-.191.776.776,0,0,0,.281-.665.761.761,0,0,0-.26-.653,1.913,1.913,0,0,0-.994-.2H27.635Zm5.591.787a2.09,2.09,0,0,1,1.281,2.024,2.319,2.319,0,0,1-.9,1.935,2.86,2.86,0,0,1-1.047.5,5.859,5.859,0,0,1-1.439.151H25.069v-.439l.1-.027a.587.587,0,0,0,.25-.122.321.321,0,0,0,.055-.2V91.037a.321.321,0,0,0-.055-.2.56.56,0,0,0-.248-.121l-.1-.026v-.44h5.994a6.069,6.069,0,0,1,1.389.129,2.5,2.5,0,0,1,.951.447,2.162,2.162,0,0,1,.818,1.811,1.95,1.95,0,0,1-1,1.781M17.643,95.96H15.636a.334.334,0,0,0-.206.054.587.587,0,0,0-.123.246l-.028.1h-.442V94.11h.443l.027.1a.574.574,0,0,0,.12.246.347.347,0,0,0,.209.052h4.236v.44l-.1.027a.569.569,0,0,0-.249.122.32.32,0,0,0-.055.2v1.744a.325.325,0,0,0,.053.2.584.584,0,0,0,.252.122l.1.027v.333l-.068.038a9.909,9.909,0,0,1-4.846,1.408,5.786,5.786,0,0,1-3.5-1.007,4.164,4.164,0,0,1-1.721-3.54,4.118,4.118,0,0,1,1.533-3.359,5.92,5.92,0,0,1,3.825-1.178,7.157,7.157,0,0,1,1.426.136,9.742,9.742,0,0,1,1.513.455,2.137,2.137,0,0,0,.567.159.45.45,0,0,0,.228-.113l.068-.054.376.194-1.139,2.275-.374-.19,0-.079a.649.649,0,0,0-.039-.233.829.829,0,0,0-.192-.179A3.371,3.371,0,0,0,16.43,92a5.351,5.351,0,0,0-1.381-.2,3.261,3.261,0,0,0-2.166.717,2.654,2.654,0,0,0-.962,2.141,2.583,2.583,0,0,0,.938,2.078,3.452,3.452,0,0,0,2.291.73,6.1,6.1,0,0,0,1.388-.16,4.613,4.613,0,0,0,1.105-.394ZM2.566,93.893H5.323a2.966,2.966,0,0,0,1.15-.165.733.733,0,0,0,.3-.32A1.067,1.067,0,0,0,6.9,92.9a1.053,1.053,0,0,0-.121-.5.74.74,0,0,0-.3-.321,2.966,2.966,0,0,0-1.15-.165H2.566Zm0,1.671v2.672a.306.306,0,0,0,.058.2.53.53,0,0,0,.245.118l.1.026v.441H0v-.439l.1-.027a.586.586,0,0,0,.25-.122.307.307,0,0,0,.056-.2v-7.2a.321.321,0,0,0-.056-.2A.559.559,0,0,0,.1,90.711L0,90.684v-.44H5.54a7.221,7.221,0,0,1,1.53.129,2.791,2.791,0,0,1,1.03.452,2.3,2.3,0,0,1,.73.886,2.817,2.817,0,0,1,.259,1.19,2.628,2.628,0,0,1-.5,1.588,2.321,2.321,0,0,1-1.138.834,6.111,6.111,0,0,1-1.912.241Z" transform="translate(0 -73.14)" fill="#003e92" stroke="rgba(0,0,0,0)" stroke-miterlimit="10" stroke-width="1" fill-rule="evenodd"/>
    <g id="Group_10452" data-name="Group 10452" transform="translate(70.567 0)">
      <path id="Path_17791" data-name="Path 17791" d="M379.883,9.24l4.686,6.3c-7.588,5.862-18.132,17.882-6.834,17.721a5.8,5.8,0,0,1-5.116-.778,23.182,23.182,0,0,1-3.426-3.98c-1.148-2.145-.57-4.94,1.317-8.228A42.239,42.239,0,0,1,379.883,9.24" transform="translate(-368.605 -7.768)" fill="#003e92" stroke="rgba(0,0,0,0)" stroke-miterlimit="10" stroke-width="1" fill-rule="evenodd"/>
      <path id="Path_17793" data-name="Path 17793" d="M416.96,1.8c11.3-.161.754,11.859-6.835,17.721l4.687,6.3a42.232,42.232,0,0,0,9.373-11.033c1.886-3.288,2.464-6.084,1.317-8.228a23.234,23.234,0,0,0-3.426-3.98,5.218,5.218,0,0,0-3.2-1.027,8.078,8.078,0,0,0-1.917.249" transform="translate(-402.176 -1.551)" fill="url(#radial-gradient)"/>
    </g>
  </g>
</svg>
