<svg id="seabank" xmlns="http://www.w3.org/2000/svg" xmlns:xlink="http://www.w3.org/1999/xlink" width="104" height="52" viewBox="0 0 104 52">
  <defs>
    <clipPath id="clip-path">
      <rect id="Rectangle_5457" data-name="Rectangle 5457" width="103.929" height="21.447" fill="none"/>
    </clipPath>
  </defs>
  <g id="boundingbox" fill="rgba(255,0,0,0.1)" stroke="red" stroke-width="1" stroke-dasharray="4 4" opacity="0">
    <rect width="104" height="52" stroke="none"/>
    <rect x="0.5" y="0.5" width="103" height="51" fill="none"/>
  </g>
  <g id="Group_10421" data-name="Group 10421" transform="translate(0 15.259)">
    <rect id="Rectangle_5456" data-name="Rectangle 5456" width="21.448" height="21.447" transform="translate(0 0)" fill="#c4261c"/>
    <g id="Group_10420" data-name="Group 10420" transform="translate(0 0)">
      <g id="Group_10419" data-name="Group 10419" clip-path="url(#clip-path)">
        <path id="Path_17011" data-name="Path 17011" d="M11.572,1.762v0a9.809,9.809,0,1,0,9.809,9.807,9.807,9.807,0,0,0-9.809-9.807M5.857,11.569a9.558,9.558,0,0,0,5.714-5.713,9.549,9.549,0,0,0,5.713,5.713,9.557,9.557,0,0,0-5.713,5.715,9.569,9.569,0,0,0-2.224-3.49,9.622,9.622,0,0,0-3.49-2.224m-2.8-.67A8.554,8.554,0,0,1,10.9,3.056,8.409,8.409,0,0,1,3.055,10.9m0,1.341A8.41,8.41,0,0,1,10.9,20.085,8.556,8.556,0,0,1,3.055,12.24m17.032,0a8.556,8.556,0,0,1-7.844,7.845,8.411,8.411,0,0,1,7.844-7.845m0-1.341a8.411,8.411,0,0,1-7.844-7.844A8.553,8.553,0,0,1,20.087,10.9" transform="translate(-0.847 -0.846)" fill="#fff"/>
        <path id="Path_17012" data-name="Path 17012" d="M60.687,16.128a2.915,2.915,0,0,0-.649-.973l-.084.085.082-.085a4.172,4.172,0,0,0-.929-.673,10.036,10.036,0,0,0-1.094-.508c-.413-.164-.844-.32-1.284-.466S55.849,13.194,55.4,13a2.8,2.8,0,0,1-1.125-.813,1.917,1.917,0,0,1-.377-1.223,1.468,1.468,0,0,1,.585-1.178,2.175,2.175,0,0,1,1.44-.492,3.008,3.008,0,0,1,1.369.281,2.9,2.9,0,0,1,.945.757,4.343,4.343,0,0,1,.651,1.111c.171.415.323.851.461,1.306l.025.084h.967l-.08-4.243H59.33l-.358.539a8.43,8.43,0,0,0-1.25-.551,5.029,5.029,0,0,0-1.681-.262,4.878,4.878,0,0,0-1.581.258,4.172,4.172,0,0,0-1.319.712,3.549,3.549,0,0,0-.91,1.1,2.889,2.889,0,0,0-.322,1.34,3.039,3.039,0,0,0,.65,2.019,4.474,4.474,0,0,0,1.791,1.237q.574.239,1.364.508c.524.175.988.34,1.392.486a2.6,2.6,0,0,1,1.282.908,2.148,2.148,0,0,1,.429,1.28,2.257,2.257,0,0,1-.14.832,1.6,1.6,0,0,1-.414.617,1.918,1.918,0,0,1-.738.408,3.618,3.618,0,0,1-1.091.148,3.472,3.472,0,0,1-1.461-.288,3.6,3.6,0,0,1-1.1-.773,4.75,4.75,0,0,1-.807-1.125,8.534,8.534,0,0,1-.539-1.363l-.025-.085H51.53l.14,4.372H52.6l.377-.584a7.708,7.708,0,0,0,1.464.568,6.737,6.737,0,0,0,1.809.254h0a5.114,5.114,0,0,0,3.3-1.064A3.347,3.347,0,0,0,60.9,17.352a3.277,3.277,0,0,0-.209-1.223" transform="translate(-24.753 -3.994)" fill="#1f1a17"/>
        <path id="Path_17013" data-name="Path 17013" d="M148.105,23.4a.91.91,0,0,1-.391-.071.871.871,0,0,1-.347-.29.841.841,0,0,1-.106-.463q0-1.116.028-2.055c.018-.627.03-1.348.03-2.157a3.481,3.481,0,0,0-.26-1.443,2.129,2.129,0,0,0-.768-.905,2.793,2.793,0,0,0-1.107-.439,8.805,8.805,0,0,0-1.391-.1,4.439,4.439,0,0,0-1.2.171,4.549,4.549,0,0,0-1.047.414,3.133,3.133,0,0,0-.822.664,1.264,1.264,0,0,0-.331.828,1.209,1.209,0,0,0,.243.744.91.91,0,0,0,.783.352,1.364,1.364,0,0,0,.9-.274.829.829,0,0,0,.336-.635,2.565,2.565,0,0,0-.093-.644,2.605,2.605,0,0,1-.085-.419,1.7,1.7,0,0,1,.44-.218,2.256,2.256,0,0,1,.761-.126,1.572,1.572,0,0,1,.9.216,1.654,1.654,0,0,1,.5.51,1.6,1.6,0,0,1,.205.556,3.467,3.467,0,0,1,.049.4v.77a15.513,15.513,0,0,1-1.652.573c-.86.26-1.427.438-1.712.538a5.461,5.461,0,0,0-.738.326,2.351,2.351,0,0,0-.649.477,2.168,2.168,0,0,0-.471.729,2.432,2.432,0,0,0-.162.911,2.024,2.024,0,0,0,.712,1.6,2.628,2.628,0,0,0,1.784.607,4.05,4.05,0,0,0,1.73-.336,4.507,4.507,0,0,0,1.235-.856,1.5,1.5,0,0,0,.566.817,2.075,2.075,0,0,0,1.234.335,3.2,3.2,0,0,0,.785-.1c.224-.06.483-.14.778-.237l.082-.027V23.4h-.118c-.211,0-.418,0-.619-.007m-2.769-3.667-.052,2.74a3.078,3.078,0,0,1-.794.639,2.15,2.15,0,0,1-1.112.28,1.454,1.454,0,0,1-.959-.306,1.152,1.152,0,0,1-.364-.949,1.531,1.531,0,0,1,.251-.875,2.316,2.316,0,0,1,.705-.653,5.669,5.669,0,0,1,1.09-.5c.357-.122.77-.248,1.236-.375" transform="translate(-67.219 -7.434)" fill="#1f1a17"/>
        <path id="Path_17014" data-name="Path 17014" d="M168.489,23.449a2.956,2.956,0,0,1-.368-.115.6.6,0,0,1-.326-.237.772.772,0,0,1-.1-.417V18.313a3.106,3.106,0,0,0-.669-2.081,2.553,2.553,0,0,0-2.061-.794,4.043,4.043,0,0,0-1.108.14,3.589,3.589,0,0,0-.852.352,4.823,4.823,0,0,0-.652.475c-.157.131-.294.251-.416.358V15.752l-.168-.155-.038-.034-3.232.2v.784l.112.007a4.021,4.021,0,0,1,.509.061,1.245,1.245,0,0,1,.383.136.96.96,0,0,1,.457.824v5.176a.766.766,0,0,1-.107.43.564.564,0,0,1-.325.222,1.856,1.856,0,0,1-.373.065l-.445.033-.109.008v.787h4.758V23.5l-.11-.006a3.845,3.845,0,0,1-.46-.059,1.792,1.792,0,0,1-.4-.121.721.721,0,0,1-.342-.247.684.684,0,0,1-.112-.408V17.871c.055-.084.135-.19.242-.322a1.8,1.8,0,0,1,.465-.4,3.186,3.186,0,0,1,.706-.331,2.678,2.678,0,0,1,.871-.135,1.38,1.38,0,0,1,1.044.449,1.787,1.787,0,0,1,.433,1.295v4.315a.791.791,0,0,1-.106.432.566.566,0,0,1-.324.222,1.924,1.924,0,0,1-.4.065q-.259.016-.476.033l-.107.008v.787h4.747V23.5l-.111-.006a3.53,3.53,0,0,1-.439-.048" transform="translate(-76.139 -7.416)" fill="#1f1a17"/>
        <path id="Path_17015" data-name="Path 17015" d="M190.056,19.285a2.509,2.509,0,0,1-.91-.179,2.229,2.229,0,0,1-.7-.623q-.439-.535-1.4-1.737-.912-1.137-1.65-1.973c.449-.378.8-.687,1.062-.928.275-.252.485-.434.629-.544a5.945,5.945,0,0,1,.906-.564,6.739,6.739,0,0,1,1.366-.523l.088-.023v-.735h-4.3v.767l.1.012a4.993,4.993,0,0,1,.765.15c.261.075.324.16.319.228a.251.251,0,0,1-.065.129,1.724,1.724,0,0,1-.151.189q-.579.593-1.423,1.352c-.492.439-.951.857-1.383,1.245V6.871l-.166-.163-.039-.037-3.577.2v.766l.108.007c.167.012.389.031.665.059a1.24,1.24,0,0,1,.56.16.917.917,0,0,1,.34.38,1.109,1.109,0,0,1,.133.535v9.759a.747.747,0,0,1-.109.432.586.586,0,0,1-.326.221,2.436,2.436,0,0,1-.369.061l-.443.037-.109.009v.787h4.756v-.789l-.111-.006a3.217,3.217,0,0,1-.461-.059,2.651,2.651,0,0,1-.412-.123.586.586,0,0,1-.334-.244.86.86,0,0,1-.105-.445V16.478l.64-.539q.855.993,1.65,2.039c.556.733,1.076,1.418,1.565,2.058l.034.045h2.963v-.789Z" transform="translate(-86.24 -3.204)" fill="#1f1a17"/>
        <path id="Path_17016" data-name="Path 17016" d="M101.69,20.325a3.066,3.066,0,0,1-.548-.088,1.971,1.971,0,0,1-.522-.186,1.94,1.94,0,0,1-.457-.366,1.889,1.889,0,0,1-.294-.5l-4.378-10.3H94.6l-.03.069q-.929,2.176-2.116,4.958t-2.17,5.016a2.859,2.859,0,0,1-.378.655,2.14,2.14,0,0,1-.541.446,1.948,1.948,0,0,1-.552.2,4.738,4.738,0,0,1-.579.1l-.11.006v.817h5.147v-.82l-.111,0a5.026,5.026,0,0,1-1.275-.215c-.376-.122-.5-.268-.5-.405a1.737,1.737,0,0,1,.045-.347,5.376,5.376,0,0,1,.16-.572c.087-.243.185-.508.291-.8.1-.268.438-1.09.619-1.506h3.938l1.306,3.148a.721.721,0,0,1,.049.169.891.891,0,0,1,.017.165c0,.005,0,.028-.066.07a1.18,1.18,0,0,1-.322.125,6.21,6.21,0,0,1-1.167.166l-.11.006v.817H101.8v-.821Zm-5.651-4.779H92.906l1.553-3.671Z" transform="translate(-42.331 -4.268)" fill="#1f1a17"/>
        <path id="Path_17017" data-name="Path 17017" d="M80.583,22.141l-.757-.422-.059.1a3.5,3.5,0,0,1-1.124,1.237,2.66,2.66,0,0,1-1.375.338,3.064,3.064,0,0,1-1.354-.274A2.427,2.427,0,0,1,75,22.376a3.273,3.273,0,0,1-.526-1.146,8.237,8.237,0,0,1-.17-1.665h6.108V19.2a4.629,4.629,0,0,0-.214-1.442,3.212,3.212,0,0,0-.666-1.166,3.17,3.17,0,0,0-1.212-.819,4.728,4.728,0,0,0-1.777-.3,4.23,4.23,0,0,0-1.823.38,4.157,4.157,0,0,0-1.364,1,4.532,4.532,0,0,0-.86,1.453,4.825,4.825,0,0,0-.292,1.645,5.631,5.631,0,0,0,.272,1.766,4.138,4.138,0,0,0,.834,1.469,3.91,3.91,0,0,0,1.424,1,5.041,5.041,0,0,0,2,.368,4.337,4.337,0,0,0,2.3-.613A4.572,4.572,0,0,0,80.626,22.3l.06-.1Zm-5.6-5.147a2.055,2.055,0,0,1,1.552-.643,1.724,1.724,0,0,1,.9.206,1.6,1.6,0,0,1,.551.538,2.4,2.4,0,0,1,.273.8,5.378,5.378,0,0,1,.087.77H74.312a2.614,2.614,0,0,1,.673-1.67" transform="translate(-34.685 -7.432)" fill="#1f1a17"/>
        <path id="Path_17018" data-name="Path 17018" d="M126.62,16.6h0a3.311,3.311,0,0,0-.967-.92,4.86,4.86,0,0,0-2.009-.731,4.121,4.121,0,0,0,2.242-1.506,2.529,2.529,0,0,0,.368-1.386,2.688,2.688,0,0,0-.385-1.444,3.134,3.134,0,0,0-.984-1,4.566,4.566,0,0,0-1.309-.572,5.739,5.739,0,0,0-1.492-.2h-.008l-5.937,0V9.7l.3,0c.121.011.315.032.573.067a2.168,2.168,0,0,1,.514.113.606.606,0,0,1,.3.236.781.781,0,0,1,.089.4v4.592h0v4.364a.7.7,0,0,1-.1.393.681.681,0,0,1-.33.234,2.7,2.7,0,0,1-.567.111c-.283.035-.493.056-.633.066l-.071.005-.073.005v.841h6.321a6.85,6.85,0,0,0,1.628-.192,5.4,5.4,0,0,0,1.433-.562A3.336,3.336,0,0,0,126.6,19.4a2.453,2.453,0,0,0,.42-1.425,2.332,2.332,0,0,0-.4-1.373m-6.413-6.78c.185-.007.406-.012.663-.019.294-.009.535-.015.727-.015a2.4,2.4,0,0,1,1.774.566,2.127,2.127,0,0,1,.555,1.563,3.742,3.742,0,0,1-.127,1.044,2.093,2.093,0,0,1-.449.8,1.922,1.922,0,0,1-.822.533,3.775,3.775,0,0,1-1.248.183h-1.074Zm3.714,9.668a2.872,2.872,0,0,1-2.027.647,2.756,2.756,0,0,1-1.258-.236.709.709,0,0,1-.426-.667V15.463l.528-.017c.264-.009.593-.012.983-.012a3.365,3.365,0,0,1,2.153.6,1.886,1.886,0,0,1,.745,1.537,2.473,2.473,0,0,1-.7,1.911" transform="translate(-55.788 -4.248)" fill="#1f1a17"/>
      </g>
    </g>
  </g>
</svg>
