<svg id="tpbank" xmlns="http://www.w3.org/2000/svg" xmlns:xlink="http://www.w3.org/1999/xlink" width="104" height="52" viewBox="0 0 104 52">
  <defs>
    <linearGradient id="linear-gradient" x1="0.008" y1="-0.111" x2="0.975" y2="0.605" gradientUnits="objectBoundingBox">
      <stop offset="0" stop-color="#f5b419"/>
      <stop offset="0.527" stop-color="#f68e20"/>
      <stop offset="1" stop-color="#e16226"/>
    </linearGradient>
    <linearGradient id="linear-gradient-2" x1="0.5" y1="1" x2="0.5" y2="0" xlink:href="#linear-gradient"/>
    <linearGradient id="linear-gradient-3" x1="1.043" y1="0.03" x2="-0.025" y2="0.891" xlink:href="#linear-gradient"/>
  </defs>
  <g id="boundingbox" fill="rgba(255,0,0,0.1)" stroke="red" stroke-width="1" stroke-dasharray="4 4" opacity="0">
    <rect width="104" height="52" stroke="none"/>
    <rect x="0.5" y="0.5" width="103" height="51" fill="none"/>
  </g>
  <g id="Group_10354" data-name="Group 10354" transform="translate(4.682 15.498)">
    <path id="Union_8" data-name="Union 8" d="M12.914,15.968V1.032A9.968,9.968,0,0,1,14.943.41,12.544,12.544,0,0,1,17.419.182a6.514,6.514,0,0,1,4.469,1.37,4.678,4.678,0,0,1,1.536,3.673A5.036,5.036,0,0,1,23.04,7.2a4.194,4.194,0,0,1-1.152,1.577,5.532,5.532,0,0,1-1.914,1.035,8.578,8.578,0,0,1-2.653.372q-.371,0-.776-.033t-.656-.074v5.891ZM16.588,2.593a3.337,3.337,0,0,0-.7.169V7.741a5.653,5.653,0,0,0,1.279.117,3.653,3.653,0,0,0,2.445-.712A2.429,2.429,0,0,0,20.439,5.2q0-2.676-2.976-2.676A5.884,5.884,0,0,0,16.588,2.593ZM39.4,14.988a3.137,3.137,0,0,1-1.116-2.546,3.086,3.086,0,0,1,.582-1.965A3.835,3.835,0,0,1,40.381,9.33,8.265,8.265,0,0,1,42.5,8.756q1.188-.171,2.432-.232V7.66a1.917,1.917,0,0,0-.725-1.739,3.363,3.363,0,0,0-1.866-.473,6.465,6.465,0,0,0-1.585.211,7.485,7.485,0,0,0-1.388.478L38.93,4.893a9.581,9.581,0,0,1,1.574-.54A7.8,7.8,0,0,1,42.5,4.1a6.331,6.331,0,0,1,1.651.2,3.387,3.387,0,0,1,1.286.643,2.789,2.789,0,0,1,.822,1.146A4.587,4.587,0,0,1,46.541,7.8v7.313a4.854,4.854,0,0,1-.72.314,6.982,6.982,0,0,1-.926.252c-.336.068-.687.125-1.054.17a8.881,8.881,0,0,1-1.075.066A5.165,5.165,0,0,1,39.4,14.988Zm3.729-5.1a6.4,6.4,0,0,0-1.62.345A2.844,2.844,0,0,0,40.34,11a2.017,2.017,0,0,0-.454,1.4,1.98,1.98,0,0,0,.705,1.6,3.261,3.261,0,0,0,2.135.592A7.679,7.679,0,0,0,44,14.484a3.674,3.674,0,0,0,.936-.252V9.737Q44.031,9.809,43.126,9.891ZM29.461,15.853c-.4-.045-.783-.1-1.153-.17a9.727,9.727,0,0,1-1.04-.252,6.484,6.484,0,0,1-.839-.314V1.005A8.212,8.212,0,0,1,28.277.424,11.35,11.35,0,0,1,30.559.2,7.884,7.884,0,0,1,32.82.5a4.985,4.985,0,0,1,1.64.808,3.317,3.317,0,0,1,1,1.255,3.85,3.85,0,0,1,.34,1.624,3.588,3.588,0,0,1-.239,1.333,3.967,3.967,0,0,1-.609,1.054,3.494,3.494,0,0,1-.829.74,2.945,2.945,0,0,1-.893.391v.041a5.172,5.172,0,0,1,1.019.4,3.655,3.655,0,0,1,1,.751,4.107,4.107,0,0,1,.763,1.162,3.829,3.829,0,0,1,.308,1.589,3.743,3.743,0,0,1-1.481,3.137,6.789,6.789,0,0,1-4.218,1.141A10.447,10.447,0,0,1,29.461,15.853ZM28.128,14.1a5.1,5.1,0,0,0,1.131.276,9.236,9.236,0,0,0,1.365.1,4.791,4.791,0,0,0,2.891-.745,2.544,2.544,0,0,0,1-2.176,2.661,2.661,0,0,0-1.391-2.509,3.9,3.9,0,0,0-.535-.242,4.33,4.33,0,0,0-.573-.159,5.681,5.681,0,0,0-.685-.092q-.382-.032-.9-.031h-2.3ZM29.205,1.735a4.7,4.7,0,0,0-1.078.278V7.175h2.219a7.469,7.469,0,0,0,1.639-.137,3.062,3.062,0,0,0,1.078-.5,2.367,2.367,0,0,0,.728-.926,3.083,3.083,0,0,0,.271-1.306,2.356,2.356,0,0,0-.9-1.969,4.154,4.154,0,0,0-2.6-.705A8.82,8.82,0,0,0,29.205,1.735ZM65.844,15.683,60.636,9.85h-.042v5.832H58.861V0h1.732V9.531h.042l4.887-5.2h2.1L62.539,9.7l5.39,5.986Zm-10.483,0V8.019a2.4,2.4,0,0,0-.7-1.815,2.927,2.927,0,0,0-2.1-.673,7.944,7.944,0,0,0-1.383.113,5.244,5.244,0,0,0-1.059.288v9.751h-1.8V4.892a10.8,10.8,0,0,1,1.9-.571A11.322,11.322,0,0,1,52.538,4.1a5.194,5.194,0,0,1,3.447.986,3.456,3.456,0,0,1,1.157,2.778v7.817Zm-51.966,0V2.919H0V.43H9.89V2.919H6.518V15.683Z" transform="translate(26.552 2.524)" fill="#5c2f86" stroke="rgba(0,0,0,0)" stroke-miterlimit="10" stroke-width="1"/>
    <g id="Group_10357" data-name="Group 10357" transform="translate(1.59)">
      <path id="Path_16804" data-name="Path 16804" d="M3.6,9.235a3.284,3.284,0,0,0-.4.023,1.5,1.5,0,0,1,.451.118h0l6.123,2.6,9.612,4.083L24.6,12.134h0c.032-.025.064-.051.1-.079l.02-.034a1.963,1.963,0,0,0,.19-1.971A1.964,1.964,0,0,0,23.1,9.235Z" transform="translate(-3.202 -9.235)" fill="url(#linear-gradient)"/>
    </g>
    <g id="Group_10359" data-name="Group 10359" transform="translate(0 0.023)">
      <path id="Path_16805" data-name="Path 16805" d="M.405,10.067a1.959,1.959,0,0,0,.2,1.968l9.8,17.033a3.4,3.4,0,0,0,.262.393c-.006-.011-.014-.02-.019-.029a1.528,1.528,0,0,1-.2-.594h0L8.384,12,2.262,9.4h0a1.5,1.5,0,0,0-.451-.118,1.768,1.768,0,0,0-1.4.788" transform="translate(-0.22 -9.279)" fill="url(#linear-gradient-2)"/>
    </g>
    <g id="Group_10361" data-name="Group 10361" transform="translate(9.435 2.82)">
      <path id="Path_16806" data-name="Path 16806" d="M31.463,14.6h0L26.25,18.528,17.909,24.81l.794,6.476h0a1.528,1.528,0,0,0,.2.594c.005.009.013.018.019.029a1.723,1.723,0,0,0,1.332.762,1.946,1.946,0,0,0,1.6-1.159l9.712-16.988c-.031.027-.063.053-.1.078" transform="translate(-17.909 -14.523)" fill="url(#linear-gradient-3)"/>
    </g>
  </g>
</svg>
