<svg id="vietinbank" xmlns="http://www.w3.org/2000/svg" xmlns:xlink="http://www.w3.org/1999/xlink" width="104" height="52" viewBox="0 0 104 52">
  <defs>
    <clipPath id="clip-path">
      <rect id="Rectangle_5130" data-name="Rectangle 5130" width="103.929" height="26.006" fill="none"/>
    </clipPath>
  </defs>
  <g id="boundingbox" fill="rgba(255,0,0,0.1)" stroke="red" stroke-width="1" stroke-dasharray="4 4" opacity="0">
    <rect width="104" height="52" stroke="none"/>
    <rect x="0.5" y="0.5" width="103" height="51" fill="none"/>
  </g>
  <g id="Group_10340" data-name="Group 10340" transform="translate(0 12.979)">
    <g id="Group_10339" data-name="Group 10339" clip-path="url(#clip-path)">
      <path id="Path_16655" data-name="Path 16655" d="M52.386,32.346V30.271H50.95V28.053H48.332v2.218H47.024v2.075h1.308v3.822A3.1,3.1,0,0,0,51.5,39.179l.887-.029,0-2.315c-.094.008-.15.011-.171.011a1.266,1.266,0,0,1-1.267-1.27V32.346Z" transform="translate(-22.566 -13.462)" fill="#006094"/>
      <path id="Path_16656" data-name="Path 16656" d="M37.579,37.323H30.87a2.117,2.117,0,0,0,2.122,1.954,2.161,2.161,0,0,0,1.858-1.1h2.494a4.874,4.874,0,0,1-1.657,2.2,4.437,4.437,0,0,1-2.664.86,4.5,4.5,0,0,1-3.309-1.378,4.8,4.8,0,0,1-.031-6.649,4.586,4.586,0,0,1,6.649,0,4.7,4.7,0,0,1,1.315,3.418,5.3,5.3,0,0,1-.068.7m-2.511-1.782a2.109,2.109,0,0,0-4.154,0Z" transform="translate(-13.61 -15.249)" fill="#006094"/>
      <path id="Path_16657" data-name="Path 16657" d="M21.4,34.668a2.351,2.351,0,0,1,2.357-2.359h.258v8.912H21.41Z" transform="translate(-10.271 -15.504)" fill="#006094"/>
      <path id="Path_16658" data-name="Path 16658" d="M59.367,34.668a2.351,2.351,0,0,1,2.357-2.359h.257v8.912H59.374Z" transform="translate(-28.489 -15.504)" fill="#006094"/>
      <path id="Path_16659" data-name="Path 16659" d="M72.527,40.96V35.573A1.422,1.422,0,0,0,71.1,34.141a1.439,1.439,0,0,0-1.49,1.475V40.96H66.951V32.068H69.43v.947h.04a3.188,3.188,0,0,1,5.716,1.943v6Z" transform="translate(-32.128 -15.245)" fill="#006094"/>
      <path id="Path_16660" data-name="Path 16660" d="M112.215,32.049v.946h-.031a2.354,2.354,0,0,0-1.111-.953,3.5,3.5,0,0,0-1.45-.3,4.1,4.1,0,0,0-3.194,1.4,4.827,4.827,0,0,0-1.211,3.345,4.9,4.9,0,0,0,1.187,3.368,4.109,4.109,0,0,0,3.217,1.383,3.608,3.608,0,0,0,1.458-.289,2.146,2.146,0,0,0,1.1-.977h.031v.962h2.622V32.049Zm-.638,6.057a2.12,2.12,0,0,1-3.06-.008,2.217,2.217,0,0,1-.611-1.579,2.321,2.321,0,0,1,.588-1.618,1.967,1.967,0,0,1,1.531-.672,2.046,2.046,0,0,1,1.545.64,2.256,2.256,0,0,1,.611,1.619,2.284,2.284,0,0,1-.6,1.618" transform="translate(-50.492 -15.233)" fill="#006094"/>
      <path id="Path_16661" data-name="Path 16661" d="M167.216,7.347H173.3v5.361a19.956,19.956,0,0,1,6.357,2.106,10.386,10.386,0,1,0-18.8-.007,19.994,19.994,0,0,1,6.357-2.1Z" transform="translate(-76.72)" fill="#006094" fill-rule="evenodd"/>
      <path id="Path_16662" data-name="Path 16662" d="M171.825,33.6a10.384,10.384,0,0,0,8.688-4.691,18.643,18.643,0,0,0-17.376-.006,10.371,10.371,0,0,0,8.688,4.7" transform="translate(-78.285 -12.84)" fill="#c5203d" fill-rule="evenodd"/>
      <path id="Path_16663" data-name="Path 16663" d="M131.839,40.96V35.573a1.422,1.422,0,0,0-1.426-1.432,1.439,1.439,0,0,0-1.491,1.475V40.96h-2.659V32.068h2.479v.947h.039a3.188,3.188,0,0,1,5.717,1.943v6Z" transform="translate(-60.591 -15.245)" fill="#006094"/>
      <path id="Path_16664" data-name="Path 16664" d="M5.865,37.552a2.176,2.176,0,0,0,2.027-1.477c1.105-2.855,4.474-11.4,4.474-11.4H9.672L6.464,32.848,3.259,24.675H0L5.055,37.552Z" transform="translate(0 -11.841)" fill="#006094"/>
      <path id="Path_16665" data-name="Path 16665" d="M92.847,30.659a2.918,2.918,0,0,0,1.435-3.408c-.219-1.1-1.388-2.565-4.023-2.55H85.348V37.568h5c3.23,0,4.705-1.875,4.663-3.9a2.95,2.95,0,0,0-2.164-3.007m-4.5-3.578h1.934a1.357,1.357,0,0,1,1.408,1.334,1.378,1.378,0,0,1-1.408,1.334H88.345ZM90.8,35.188H88.332v-3.06h2.416a1.53,1.53,0,1,1,.048,3.06" transform="translate(-40.956 -11.853)" fill="#006094"/>
      <path id="Path_16666" data-name="Path 16666" d="M149.787,32.579l3.761-3.954h-3.332L147.359,31.8l.007-4.82a2.35,2.35,0,0,0-2.356-2.359h-.366v12.9h2.716v-4l2.692,4h3.5Z" transform="translate(-69.411 -11.813)" fill="#006094"/>
    </g>
  </g>
</svg>
