<svg id="vietcombank" xmlns="http://www.w3.org/2000/svg" xmlns:xlink="http://www.w3.org/1999/xlink" width="104" height="52" viewBox="0 0 104 52">
  <defs>
    <linearGradient id="linear-gradient" x1="1.646" y1="-1.906" x2="2.646" y2="-1.906" gradientUnits="objectBoundingBox">
      <stop offset="0" stop-color="#005134"/>
      <stop offset="0.912" stop-color="#9dc44d"/>
    </linearGradient>
    <linearGradient id="linear-gradient-2" x1="1.291" y1="-1.011" x2="2.063" y2="-0.338" gradientUnits="objectBoundingBox">
      <stop offset="0.099" stop-color="#9dc44d"/>
      <stop offset="0.688" stop-color="#33763c"/>
      <stop offset="1" stop-color="#005134"/>
    </linearGradient>
  </defs>
  <g id="boundingbox" fill="rgba(255,0,0,0.1)" stroke="red" stroke-width="1" stroke-dasharray="4 4" opacity="0">
    <rect width="104" height="52" stroke="none"/>
    <rect x="0.5" y="0.5" width="103" height="51" fill="none"/>
  </g>
  <g id="Logo-VCB" transform="translate(4.682 9.984)">
    <g id="Group_2561" data-name="Group 2561" transform="translate(63.737 0)">
      <path id="Path_584" data-name="Path 584" d="M60.021,22.868l.018,0h.007l-.025,0c-1.491.275-1.809,1.108-1.809,1.108-.386.776.35,2.888,1.832,5.388a36.975,36.975,0,0,1,5.652-.348c2.711.06,4.282.4,4.972.816a1.178,1.178,0,0,1,.4,1.443,22.881,22.881,0,0,0,1.9-4.306,2.863,2.863,0,0,0-.011-1.987,2.239,2.239,0,0,0-1.008-1.133,16.563,16.563,0,0,0-5.406-1.142c-.838-.075-1.7-.114-2.594-.111a25.994,25.994,0,0,0-3.94.273l-.033.007C59.991,22.871,60.008,22.871,60.021,22.868Z" transform="translate(-52.468 -22.595)" fill="url(#linear-gradient)"/>
      <path id="Path_585" data-name="Path 585" d="M62.228,22.76l-.008,0,.015,0ZM75.88,27.5a4.227,4.227,0,0,0-.278-2.215,3.107,3.107,0,0,0-.6-.93,2.6,2.6,0,0,0-.865-.615,2.239,2.239,0,0,1,1.008,1.133,2.863,2.863,0,0,1,.011,1.987,22.766,22.766,0,0,1-1.9,4.3l0,.007c-.126.222-3.048,5.366-4.449,5.351s-4.472-4.115-5.227-5.189c-.5-.708-.95-1.4-1.347-2.074l0,0c-1.481-2.5-2.216-4.609-1.83-5.385,0,0,.319-.834,1.809-1.108h0l-.044.007h0c-4.172.575-5.995,1.853-6.711,2.563a2.825,2.825,0,0,0-.794,2.028,14.165,14.165,0,0,0,1.484,4.762,33.6,33.6,0,0,0,2.636,4.334,27.81,27.81,0,0,0,3.3,3.748,18.647,18.647,0,0,0,3.5,2.671,3.486,3.486,0,0,0,1.473.337,3.123,3.123,0,0,0,1.994-.82,18.894,18.894,0,0,0,2.816-4,36.47,36.47,0,0,0,2.466-5.253A31.176,31.176,0,0,0,75.88,27.5Z" transform="translate(-54.658 -22.49)" fill="url(#linear-gradient-2)"/>
    </g>
    <rect id="Rectangle_319" data-name="Rectangle 319" width="2.224" height="8.48" transform="translate(12.078 23.405) rotate(-0.215)" fill="#005134"/>
    <path id="Path_586" data-name="Path 586" d="M33.04,46.086a1.566,1.566,0,0,1-.8-.608,3.976,3.976,0,0,1-.4-2.161v-3.6H30.469V37.708h1.373V35.654h2.219v2.054H36.1V39.72h-2.04v3.846a2.683,2.683,0,0,0,.034.516c.021.106.042.126.047.126s.016.025.077.034a1.389,1.389,0,0,0,.394.038,4.248,4.248,0,0,0,.548-.06c.191-.031.35-.064.35-.064l.405-.083.222,1.829-.3.108a5.9,5.9,0,0,1-1.6.247,3.472,3.472,0,0,1-1.2-.17" transform="translate(-6.264 -14.311)" fill="#005134"/>
    <path id="Path_587" data-name="Path 587" d="M38.2,45.548a6.182,6.182,0,0,1-1.669-.188,2.53,2.53,0,0,1-1.229-.732c-.649-.717-.861-1.811-.861-3.43a6.679,6.679,0,0,1,.454-2.824,2.464,2.464,0,0,1,1.636-1.337,5.938,5.938,0,0,1,1.669-.185,12.807,12.807,0,0,1,2.715.327l.337.078-.281,2-.4-.088s-.06-.011-.162-.038-.263-.042-.446-.067a10.463,10.463,0,0,0-1.394-.1,4.722,4.722,0,0,0-1.182.106.725.725,0,0,0-.458.332,1.583,1.583,0,0,0-.165.513A9.684,9.684,0,0,0,36.7,41.2a7.292,7.292,0,0,0,.09,1.392,1.015,1.015,0,0,0,.3.6.949.949,0,0,0,.4.186,4.487,4.487,0,0,0,1.087.09,10.532,10.532,0,0,0,1.832-.191.966.966,0,0,0,.165-.031l.407-.088.281,1.933-.306.1a9.226,9.226,0,0,1-2.746.355" transform="translate(-3.744 -13.551)" fill="#005134"/>
    <path id="Path_588" data-name="Path 588" d="M56.318,38.658a2.058,2.058,0,0,0-.984-1.445,4.1,4.1,0,0,0-1.984-.361c-.5,0-1.023.054-1.033.054l-.108.007-1.03.8h-.007c-.011.011-.021.011-.038.028a2.867,2.867,0,0,0-1.064-.734,3.518,3.518,0,0,0-1.227-.159h-.052c-.461,0-1.012.054-1.015.057l-.077.01-.883.682c-.036.025-.06.042-.085.056a.069.069,0,0,1-.1-.044l-.075-.665H44.7v8.485h2.223V39.044a7.51,7.51,0,0,1,1.3-.111,4.028,4.028,0,0,1,.757.044,1.09,1.09,0,0,1,.257.093.6.6,0,0,1,.172.325,4.165,4.165,0,0,1,.078.922v5.115H51.7v-5.7a3.273,3.273,0,0,0-.07-.713,10.91,10.91,0,0,1,1.334-.08,3.654,3.654,0,0,1,.755.052.826.826,0,0,1,.258.092.521.521,0,0,1,.18.317,4.35,4.35,0,0,1,.072.93v5.1h2.219V40.184a6.694,6.694,0,0,0-.134-1.526" transform="translate(2.765 -13.551)" fill="#005134"/>
    <path id="Path_589" data-name="Path 589" d="M31.571,37.257a5.276,5.276,0,0,0-2.373-.405,5.642,5.642,0,0,0-2.12.314,2.373,2.373,0,0,0-1.348,1.348,7.984,7.984,0,0,0-.394,2.684A7.432,7.432,0,0,0,25.6,43.36a2.7,2.7,0,0,0,1.425,1.79,5.518,5.518,0,0,0,2.35.4,9.359,9.359,0,0,0,2.9-.454l.3-.1-.307-1.9-.391.075a10.972,10.972,0,0,1-2.357.309,5.979,5.979,0,0,1-.936-.054,1.144,1.144,0,0,1-.683-.355,2.149,2.149,0,0,1-.315-1.236v-.185c.01-.02.018-.041.039-.044l.007-.011,0,.007a.184.184,0,0,1,.051,0,.578.578,0,0,1,.09.052l.407.4.07.06.085.015a9.012,9.012,0,0,0,1.628.109c1.128-.013,2.1-.118,2.551-.134l.348-.013.018-.342c.031-.554.047-.829.047-1.124a7,7,0,0,0-.175-1.752,2.315,2.315,0,0,0-1.185-1.607M29.7,40.222c-.3,0-.5,0-.5,0h-.031s-.16,0-.415,0c-.294,0-.717-.01-1.124-.052a5.853,5.853,0,0,1,.059-.618.986.986,0,0,1,.119-.358c.064-.1.119-.155.35-.222a4.2,4.2,0,0,1,1.118-.1,3.815,3.815,0,0,1,.789.057.858.858,0,0,1,.289.108.665.665,0,0,1,.217.4,3.51,3.51,0,0,1,.087.75c-.33.026-.677.029-.956.029" transform="translate(-9.521 -13.551)" fill="#005134"/>
    <path id="Path_590" data-name="Path 590" d="M46.3,38.04a2.029,2.029,0,0,0-1.242-.964,6.836,6.836,0,0,0-2.018-.224,7.736,7.736,0,0,0-1.83.167,2.226,2.226,0,0,0-1.759,1.912,10.905,10.905,0,0,0-.172,2.267,11.908,11.908,0,0,0,.132,2.067,3.142,3.142,0,0,0,.369,1.088,2.074,2.074,0,0,0,1.244.968,6.962,6.962,0,0,0,2.015.227,8.285,8.285,0,0,0,1.837-.168,2.357,2.357,0,0,0,.974-.49,2.417,2.417,0,0,0,.78-1.42,11.415,11.415,0,0,0,.163-2.272,12.659,12.659,0,0,0-.124-2.069A3.121,3.121,0,0,0,46.3,38.04M44.491,42.6a1.982,1.982,0,0,1-.127.539.452.452,0,0,1-.328.288,3.644,3.644,0,0,1-1,.092,4.025,4.025,0,0,1-.925-.07.6.6,0,0,1-.293-.137,1.036,1.036,0,0,1-.224-.595,11.829,11.829,0,0,1-.069-1.52,12.56,12.56,0,0,1,.054-1.4,2.043,2.043,0,0,1,.127-.543.464.464,0,0,1,.332-.286,3.512,3.512,0,0,1,1-.1,4.224,4.224,0,0,1,.928.069.584.584,0,0,1,.289.142,1.009,1.009,0,0,1,.217.592A10.687,10.687,0,0,1,44.54,41.2c0,.6-.015,1.067-.049,1.4" transform="translate(-0.678 -13.551)" fill="#005134"/>
    <path id="Path_591" data-name="Path 591" d="M70.275,38.658a2.092,2.092,0,0,0-.992-1.445,4.11,4.11,0,0,0-1.989-.361c-.309,0-.9.067-.909.067l-.1.011h-.008l-.881.682c-.036.021-.06.041-.085.057a.075.075,0,0,1-.1-.039l-.075-.683H63.257v8.485h2.221V39.063a8.823,8.823,0,0,1,1.437-.131,4.028,4.028,0,0,1,.757.044.954.954,0,0,1,.258.093.53.53,0,0,1,.177.325,4.035,4.035,0,0,1,.074.922v5.115h2.226V40.184a7.214,7.214,0,0,0-.131-1.526" transform="translate(14.534 -13.551)" fill="#005134"/>
    <path id="Path_592" data-name="Path 592" d="M76.124,46.234h0c-.011-.015-.029-.025-.044-.042a.07.07,0,0,0-.031-.023A11.421,11.421,0,0,1,72.867,42.1l1.477-1.675L75.766,38.8l.727-.816-.538.013H73.876l-2.84,3.148a1.373,1.373,0,0,1-.165.162.312.312,0,0,1-.2.038V34.87H68.443V46.69h2.228V42.937s.168-.018.226.067a12.463,12.463,0,0,0,2.888,3.671h2.028v.015h.845c-.186-.154-.373-.317-.533-.456" transform="translate(17.824 -14.808)" fill="#005134"/>
    <path id="Path_593" data-name="Path 593" d="M65.113,38.243a1.922,1.922,0,0,0-.788-.905,4.91,4.91,0,0,0-2.545-.487,11.853,11.853,0,0,0-3.285.433l-.315.095.325,1.986.413-.1s.078-.016.216-.052a11.662,11.662,0,0,1,2.427-.3,2.965,2.965,0,0,1,1.187.142.562.562,0,0,1,.284.252,1.369,1.369,0,0,1,.09.52l-2.492.025A5.011,5.011,0,0,0,59.359,40a1.851,1.851,0,0,0-1.218.92,3.76,3.76,0,0,0-.325,1.747A4.81,4.81,0,0,0,57.965,44,1.848,1.848,0,0,0,59,45.243a5.049,5.049,0,0,0,2.014.306c.518,0,1.154-.07,1.154-.07l.123-.016.887-.677c.036-.029.062-.047.087-.065a.08.08,0,0,1,.1.041l.069.672H65.35V39.659a3.563,3.563,0,0,0-.237-1.415m-1.991,5.022a11.408,11.408,0,0,1-1.961.227,4.5,4.5,0,0,1-.621-.033,1.083,1.083,0,0,1-.257-.056.326.326,0,0,1-.137-.15,1.548,1.548,0,0,1-.08-.585,1.9,1.9,0,0,1,.08-.637.417.417,0,0,1,.078-.134.921.921,0,0,1,.3-.082c.178-.007.427,0,.735,0l1.858-.044Z" transform="translate(11.083 -13.552)" fill="#005134"/>
    <path id="Path_594" data-name="Path 594" d="M58.332,38.35a4.46,4.46,0,0,0-1.562-.24,4.346,4.346,0,0,0-.629.057c-.065.02-.124.028-.167.038l-.865.686a.6.6,0,0,1-.088.051c-.059.033-.09,0-.095-.033V34.87H52.712l0,11.365.26.085a10.362,10.362,0,0,0,3.141.485,6.627,6.627,0,0,0,1.9-.227,2.432,2.432,0,0,0,1.639-1.44,7.044,7.044,0,0,0,.371-2.721,5.893,5.893,0,0,0-.629-3.246,2.221,2.221,0,0,0-1.062-.822M57.7,43.735a1.967,1.967,0,0,1-.142.544.587.587,0,0,1-.351.338,2.506,2.506,0,0,1-.856.11,8.564,8.564,0,0,1-1.2-.09,1.052,1.052,0,0,1-.194-.042V40.36a6.821,6.821,0,0,1,1.451-.191,2.2,2.2,0,0,1,.76.1.584.584,0,0,1,.275.165,1.332,1.332,0,0,1,.257.631,9,9,0,0,1,.08,1.353,8.81,8.81,0,0,1-.074,1.317" transform="translate(7.845 -14.808)" fill="#005134"/>
    <path id="Path_595" data-name="Path 595" d="M19.542,46.466l.02.033.036.015a8.23,8.23,0,0,0,1.736.18,7.252,7.252,0,0,0,1.656-.18l.039-.01.018-.038A24.263,24.263,0,0,0,26.764,36.8a16.517,16.517,0,0,0,.191-1.871l-2.638.386a25.775,25.775,0,0,1-2.873,8.892l-.082.141-.082-.141a23.53,23.53,0,0,1-2.5-6.366c-.2-.843-.371-1.994-.446-2.538l-2.679-.361a23.546,23.546,0,0,0,3.883,11.52" transform="translate(-15.659 -14.769)" fill="#005134"/>
  </g>
</svg>
