<svg id="vietcapitalbank" xmlns="http://www.w3.org/2000/svg" xmlns:xlink="http://www.w3.org/1999/xlink" width="104" height="52" viewBox="0 0 104 52">
  <defs>
    <clipPath id="clip-path">
      <rect id="Rectangle_5451" data-name="Rectangle 5451" width="103.929" height="25.973" fill="none"/>
    </clipPath>
    <clipPath id="clip-path-2">
      <path id="Path_16987" data-name="Path 16987" d="M184.656,0a5.868,5.868,0,0,0-4.39,1.969,4.483,4.483,0,0,1,1.553,2.064,3.485,3.485,0,0,1-.048,2.156c-.046.152-.094.287-.131.411a5.02,5.02,0,0,0-.349,1.518v.017A1.288,1.288,0,0,0,182.5,9.488a1.224,1.224,0,0,0,1.082-.616,3.016,3.016,0,0,0,.187-1.909V6.956s0-.011-.005-.016l0-.006a6.39,6.39,0,0,0-.506-1.374,8.145,8.145,0,0,1-.639-1.8,2.464,2.464,0,0,1,.007-1.077,1.1,1.1,0,0,1-.5-1.411l.05-.131,0-.008.006-.011v0a1.6,1.6,0,0,0,.664.514c.045.015.088.031.134.042a1.137,1.137,0,0,0,.186.034,1.308,1.308,0,0,0,.165.009.158.158,0,0,0,.029,0,1.325,1.325,0,0,0,.347-.079l.007,0,.048-.02a2.267,2.267,0,0,1,2-.057,1.558,1.558,0,0,1,.508.524,1.573,1.573,0,0,1,1.116,1.47l.024.193-.156-.115a1.428,1.428,0,0,0-.774-.349h-.019a1.137,1.137,0,0,0-.5.124,1.109,1.109,0,0,0-.581.718c-.157.56.058,1.055.824,1.88a17.309,17.309,0,0,1,1.3,1.406v0a4.035,4.035,0,0,1,.71,1.365s.01.018.023.036a.116.116,0,0,0,.08.048.1.1,0,0,0,.076-.048,1.327,1.327,0,0,0-.024-.907c-.043-.139-.2-.509-.2-.513l0,0a.074.074,0,0,1-.007-.018,5.356,5.356,0,0,1-.451-2.243A5.193,5.193,0,0,1,188,3.574c.023-.084.053-.167.084-.256a.143.143,0,0,0,.012-.035,4.7,4.7,0,0,1,.417-.837,4.225,4.225,0,0,1,.416-.594A5.844,5.844,0,0,0,184.656,0Z" transform="translate(-180.266)" fill="none"/>
    </clipPath>
    <linearGradient id="linear-gradient" x1="-7.593" y1="2.205" x2="-7.55" y2="2.205" gradientUnits="objectBoundingBox">
      <stop offset="0" stop-color="#81222f"/>
      <stop offset="0.116" stop-color="#81222f"/>
      <stop offset="0.418" stop-color="#ba1d34"/>
      <stop offset="0.646" stop-color="#de1b37"/>
      <stop offset="0.767" stop-color="#ec1a39"/>
      <stop offset="1" stop-color="#ec1a39"/>
    </linearGradient>
    <clipPath id="clip-path-3">
      <path id="Path_16988" data-name="Path 16988" d="M186.9,3.158s0,0,0,0-.008,0,0,0" transform="translate(-186.892 -3.154)" fill="none"/>
    </clipPath>
    <linearGradient id="linear-gradient-2" x1="-8343.13" y1="2401.643" x2="-8298.487" y2="2401.643" xlink:href="#linear-gradient"/>
    <clipPath id="clip-path-4">
      <path id="Path_16989" data-name="Path 16989" d="M182.041,4.538c-.541,1.08.262,2.168.846,2.962l.034.046a3.615,3.615,0,0,1,.258.4,3.842,3.842,0,0,1,.542,1.221l.005.015v.014l0,.008a.826.826,0,0,1,.02.108.067.067,0,0,1,.005.025v.009a2.721,2.721,0,0,1,.033.682,1.647,1.647,0,0,1-.033.236A2.616,2.616,0,0,1,183,11.81a2.139,2.139,0,0,1-1.491.627h-.055c-.007,0-.012,0-.018,0h-.015A2.073,2.073,0,0,1,180.1,11.9l0,0a1.925,1.925,0,0,1-.587-.877,3.341,3.341,0,0,1-.1-1.734v0a7.961,7.961,0,0,1,.22-.817,3.386,3.386,0,0,0,.222-1.078V7.38l0,0a.34.34,0,0,0,0-.05,2.153,2.153,0,0,0-.83-1.7A3.6,3.6,0,0,0,178,5.137a5.8,5.8,0,0,0-.577,2.53,5.867,5.867,0,1,0,11.058-2.731,3.7,3.7,0,0,0-.938,1.252,2.065,2.065,0,0,0-.084.192s0,.008,0,.008a4.462,4.462,0,0,0-.306,1.513,4.279,4.279,0,0,0,.018.523,3.788,3.788,0,0,0,.087.51c.068.271.156.558.182.641a1.9,1.9,0,0,1-.725,2.12l-.015.012c-.121.1-.244.2-.371.29-.091.061-.186.125-.294.189-.028.021-.059.039-.084.056-.128.077-.256.146-.39.21a.269.269,0,0,1-.066.011.062.062,0,0,1-.057-.025.126.126,0,0,1-.011-.1l0-.012a3.529,3.529,0,0,0-.262-2.9,5.343,5.343,0,0,0-.594-.768l-.008-.007c-.033-.034-.061-.065-.095-.1l-.017-.017c-.114-.117-.229-.24-.343-.368a3.8,3.8,0,0,1-.611-.87,2.048,2.048,0,0,1-.175-1.395,1.519,1.519,0,0,1,.224-.509,1.037,1.037,0,0,1-.143.008.711.711,0,0,1-.746-.664V4.732l.131.041a2.385,2.385,0,0,0,.58.1.968.968,0,0,0,.465-.086.548.548,0,0,0,.336-.5.56.56,0,0,0-.522-.514c-.066-.005-.128-.013-.194-.013h-.049a1.548,1.548,0,0,0-1.365.786" transform="translate(-177.421 -3.752)" fill="none"/>
    </clipPath>
    <linearGradient id="linear-gradient-3" x1="-6.059" y1="1.852" x2="-6.024" y2="1.852" xlink:href="#linear-gradient"/>
  </defs>
  <g id="boundingbox" fill="rgba(255,0,0,0.1)" stroke="red" stroke-width="1" stroke-dasharray="4 4" opacity="0">
    <rect width="104" height="52" stroke="none"/>
    <rect x="0.5" y="0.5" width="103" height="51" fill="none"/>
  </g>
  <g id="Group_10409" data-name="Group 10409" transform="translate(0 12.996)">
    <g id="Group_10410" data-name="Group 10410" transform="translate(0 0)">
      <g id="Group_10409-2" data-name="Group 10409" clip-path="url(#clip-path)">
        <path id="Path_16970" data-name="Path 16970" d="M119.938,6.445H118.5l-.017.046a.728.728,0,0,0-.058.29.783.783,0,0,0,.013.138.5.5,0,0,0,.045.131l.023.041h.341l-.764,2.36-.739-2.36h.347l.02-.041a.447.447,0,0,0,.044-.134.831.831,0,0,0,.012-.136.84.84,0,0,0-.055-.285l-.016-.051h-1.5l-.018.047a.759.759,0,0,0-.06.293.61.61,0,0,0,.017.138.363.363,0,0,0,.047.13l.019.038h.291l1.11,3.453h.881l1.158-3.453h.291l.022-.041a.442.442,0,0,0,.042-.136.637.637,0,0,0,.013-.134.894.894,0,0,0-.052-.286Z" transform="translate(-55.777 -3.096)" fill="#123884"/>
        <path id="Path_16971" data-name="Path 16971" d="M125.158,10.932h-.277V8.612h-1.109l-.014.048a.66.66,0,0,0-.049.252.727.727,0,0,0,.047.258l.017.045h.281v1.717h-.281l-.014.048a.654.654,0,0,0-.049.253.686.686,0,0,0,.047.254l.017.048h1.387l.017-.047a.733.733,0,0,0,.049-.255.741.741,0,0,0-.049-.253Z" transform="translate(-59.424 -4.137)" fill="#123884"/>
        <path id="Path_16972" data-name="Path 16972" d="M124.589,7.23a.466.466,0,0,0,.338-.147.5.5,0,0,0,.14-.354.487.487,0,0,0-.14-.352.459.459,0,0,0-.675,0,.476.476,0,0,0-.142.352.488.488,0,0,0,.142.354.462.462,0,0,0,.337.147" transform="translate(-59.617 -2.992)" fill="#123884"/>
        <path id="Path_16973" data-name="Path 16973" d="M129.359,8.953a1.123,1.123,0,0,0-.4-.35,1.494,1.494,0,0,0-1.233,0,1.252,1.252,0,0,0-.418.352,1.506,1.506,0,0,0-.24.5A2.186,2.186,0,0,0,127,10a1.922,1.922,0,0,0,.083.562,1.427,1.427,0,0,0,.264.494,1.335,1.335,0,0,0,.469.352,1.671,1.671,0,0,0,.685.13,1.859,1.859,0,0,0,.527-.076,2.4,2.4,0,0,0,.437-.172l.041-.02v-.732l-.108.061a2.624,2.624,0,0,1-.453.2,1.367,1.367,0,0,1-.45.069.58.58,0,0,1-.255-.052.664.664,0,0,1-.2-.142.711.711,0,0,1-.134-.214.843.843,0,0,1-.051-.2h1.77V9.943a2.344,2.344,0,0,0-.057-.513,1.364,1.364,0,0,0-.209-.478m-1.033.156a.372.372,0,0,1,.331.156.783.783,0,0,1,.122.405h-.917a1.031,1.031,0,0,1,.144-.4.352.352,0,0,1,.321-.162" transform="translate(-61.004 -4.069)" fill="#123884"/>
        <path id="Path_16974" data-name="Path 16974" d="M134,9.941a.962.962,0,0,1-.168.017.212.212,0,0,1-.139-.046c-.018-.014-.047-.057-.047-.186V8.26h.533l.015-.05a.886.886,0,0,0,.046-.265.709.709,0,0,0-.047-.253l-.018-.048h-.53V6.6l-.835.432v.614h-.31l-.016.048a.7.7,0,0,0-.05.253.929.929,0,0,0,.047.265l.019.05h.31V9.679a1.024,1.024,0,0,0,.2.68.812.812,0,0,0,.658.242,1.6,1.6,0,0,0,.285-.027,1.349,1.349,0,0,0,.305-.091l.043-.019V9.808l-.1.051a.817.817,0,0,1-.2.082" transform="translate(-63.615 -3.17)" fill="#123884"/>
        <path id="Path_16975" data-name="Path 16975" d="M141.932,6.336a.661.661,0,0,0-.148-.015,1.021,1.021,0,0,0-.31.059l-.047.022v.107a1.3,1.3,0,0,0-.309-.161,1.467,1.467,0,0,0-.489-.087,1.737,1.737,0,0,0-1.391.649,1.98,1.98,0,0,0-.364.69,2.816,2.816,0,0,0-.123.828,2.726,2.726,0,0,0,.12.824,1.911,1.911,0,0,0,.363.661,1.68,1.68,0,0,0,.6.434,2.09,2.09,0,0,0,.84.154,2.145,2.145,0,0,0,.442-.043,2.5,2.5,0,0,0,.384-.107,2.179,2.179,0,0,0,.309-.139,2.412,2.412,0,0,0,.232-.133l.033-.02V9.1l-.118.1a3.327,3.327,0,0,1-.266.214,1.77,1.77,0,0,1-.624.307,1.471,1.471,0,0,1-.382.048.93.93,0,0,1-.379-.083.857.857,0,0,1-.322-.247,1.2,1.2,0,0,1-.228-.425,1.976,1.976,0,0,1-.087-.61,2.6,2.6,0,0,1,.058-.535,1.554,1.554,0,0,1,.186-.465.975.975,0,0,1,.309-.322.8.8,0,0,1,.442-.12.734.734,0,0,1,.554.192.692.692,0,0,1,.182.493v.36l.048.018a.887.887,0,0,0,.32.068.823.823,0,0,0,.16-.019.5.5,0,0,0,.146-.056L142.109,8V6.414l-.035-.021a.654.654,0,0,0-.142-.057" transform="translate(-66.65 -3.007)" fill="#123884"/>
        <path id="Path_16976" data-name="Path 16976" d="M153.662,11.771h-.326v-.536a.865.865,0,0,0,.173.123.99.99,0,0,0,.469.109,1.129,1.129,0,0,0,.618-.157,1.224,1.224,0,0,0,.391-.4,1.622,1.622,0,0,0,.205-.513,2.575,2.575,0,0,0,.058-.513,1.951,1.951,0,0,0-.084-.57,1.329,1.329,0,0,0-.243-.447,1.071,1.071,0,0,0-.388-.3,1.164,1.164,0,0,0-.5-.105,1.011,1.011,0,0,0-.536.126.99.99,0,0,0-.218.162l-.018-.214h-1.053l-.018.048a.754.754,0,0,0-.047.252.775.775,0,0,0,.047.257l.018.046h.3v2.625h-.3l-.018.048a.75.75,0,0,0-.047.251.758.758,0,0,0,.047.256l.018.048h1.454l.016-.048a.708.708,0,0,0,.049-.256.719.719,0,0,0-.049-.254Zm.192-2.64a.442.442,0,0,1,.293.086.674.674,0,0,1,.17.218.888.888,0,0,1,.071.276,2.281,2.281,0,0,1,.018.254,1.145,1.145,0,0,1-.153.632.433.433,0,0,1-.387.219.552.552,0,0,1-.194-.037.386.386,0,0,1-.166-.118.653.653,0,0,1-.136-.249,1.39,1.39,0,0,1-.056-.424c0-.077.005-.169.015-.269a.945.945,0,0,1,.074-.284.586.586,0,0,1,.166-.218.425.425,0,0,1,.286-.086" transform="translate(-73.082 -4.069)" fill="#123884"/>
        <path id="Path_16977" data-name="Path 16977" d="M158.609,10.932l-.018.048a.728.728,0,0,0,0,.508l.018.047H160l.016-.047a.677.677,0,0,0,0-.508L160,10.932h-.277V8.612h-1.108l-.018.048a.7.7,0,0,0-.046.252.714.714,0,0,0,.046.258l.018.045h.281v1.717Z" transform="translate(-76.158 -4.137)" fill="#123884"/>
        <path id="Path_16978" data-name="Path 16978" d="M159.425,7.23a.454.454,0,0,0,.336-.147.484.484,0,0,0,.142-.354.472.472,0,0,0-.142-.352.455.455,0,0,0-.671,0,.473.473,0,0,0-.143.352.484.484,0,0,0,.143.354.461.461,0,0,0,.336.147" transform="translate(-76.35 -2.992)" fill="#123884"/>
        <path id="Path_16979" data-name="Path 16979" d="M163.468,9.808l-.1.051a.849.849,0,0,1-.2.082.955.955,0,0,1-.167.017.212.212,0,0,1-.141-.046c-.018-.014-.046-.057-.046-.186V8.26h.534l.014-.05a.852.852,0,0,0,.045-.265.768.768,0,0,0-.045-.253l-.017-.048h-.531V6.6l-.835.432v.614h-.311l-.017.048a.736.736,0,0,0-.048.253.913.913,0,0,0,.048.265l.012.05h.315V9.679a1.024,1.024,0,0,0,.2.68.812.812,0,0,0,.659.242,1.616,1.616,0,0,0,.286-.027,1.318,1.318,0,0,0,.305-.091l.043-.019Z" transform="translate(-77.624 -3.17)" fill="#123884"/>
        <path id="Path_16980" data-name="Path 16980" d="M172,9.892l-.015.048a.691.691,0,0,0,0,.508L172,10.5h1.385l.018-.047a.707.707,0,0,0,.048-.255.728.728,0,0,0-.048-.256l-.017-.046h-.279V6.447H172l-.015.048a.693.693,0,0,0-.048.253.7.7,0,0,0,.048.256L172,7.05h.28V9.892Z" transform="translate(-82.59 -3.097)" fill="#123884"/>
        <path id="Path_16981" data-name="Path 16981" d="M148.961,10.935h-.3V8.611H147.9l-.055.252a.924.924,0,0,0-.193-.14.993.993,0,0,0-.467-.108,1.112,1.112,0,0,0-.618.16,1.243,1.243,0,0,0-.392.395,1.577,1.577,0,0,0-.2.512,2.356,2.356,0,0,0-.058.517,1.747,1.747,0,0,0,.084.567,1.269,1.269,0,0,0,.24.446,1.039,1.039,0,0,0,.388.294,1.138,1.138,0,0,0,.507.108,1.035,1.035,0,0,0,.537-.127,1.076,1.076,0,0,0,.219-.165l.029.218h1.04l.015-.047a.755.755,0,0,0,.048-.257.788.788,0,0,0-.048-.255Zm-1.648.015a.436.436,0,0,1-.292-.085.577.577,0,0,1-.171-.219,1.082,1.082,0,0,1-.075-.275c-.01-.1-.016-.187-.016-.256a1.172,1.172,0,0,1,.154-.632.442.442,0,0,1,.39-.219.529.529,0,0,1,.189.037.426.426,0,0,1,.172.122.685.685,0,0,1,.132.247,1.312,1.312,0,0,1,.056.424,2.244,2.244,0,0,1-.018.269.968.968,0,0,1-.071.284.6.6,0,0,1-.162.219.447.447,0,0,1-.289.085" transform="translate(-70.092 -4.137)" fill="#123884"/>
        <path id="Path_16982" data-name="Path 16982" d="M165.847,11.212a1.043,1.043,0,0,0,.385.294,1.147,1.147,0,0,0,.5.108,1.041,1.041,0,0,0,.54-.127,1.1,1.1,0,0,0,.223-.167l.025.22h1.041l.012-.047a.721.721,0,0,0,.049-.257.731.731,0,0,0-.049-.255l-.012-.045h-.3V8.612h-.753l-.054.252a.909.909,0,0,0-.66-.248,1.105,1.105,0,0,0-.619.16,1.177,1.177,0,0,0-.391.4,1.622,1.622,0,0,0-.206.512,2.617,2.617,0,0,0-.056.517,1.791,1.791,0,0,0,.085.567,1.275,1.275,0,0,0,.241.446m1.592-.849a1.018,1.018,0,0,1-.07.284.6.6,0,0,1-.163.219.45.45,0,0,1-.289.085.445.445,0,0,1-.294-.085.6.6,0,0,1-.167-.219.8.8,0,0,1-.076-.275c-.009-.1-.015-.188-.015-.256a1.163,1.163,0,0,1,.151-.632.447.447,0,0,1,.389-.219.543.543,0,0,1,.192.036.452.452,0,0,1,.171.122.745.745,0,0,1,.133.247,1.352,1.352,0,0,1,.055.424c0,.074-.006.162-.017.269" transform="translate(-79.509 -4.137)" fill="#123884"/>
        <path id="Path_16983" data-name="Path 16983" d="M162.763,20.175h-.209V18.522H162l-.038.168a.457.457,0,0,0-.123-.086.691.691,0,0,0-.338-.081.8.8,0,0,0-.447.116.961.961,0,0,0-.283.284,1.152,1.152,0,0,0-.145.368,1.819,1.819,0,0,0-.044.371,1.352,1.352,0,0,0,.062.407.95.95,0,0,0,.175.322.782.782,0,0,0,.279.214.882.882,0,0,0,.365.074.769.769,0,0,0,.391-.089.874.874,0,0,0,.138-.107l.02.144h.756l.016-.042a.51.51,0,0,0,.034-.186.5.5,0,0,0-.034-.185Zm-1.181.011a.333.333,0,0,1-.2-.057.428.428,0,0,1-.116-.153.718.718,0,0,1-.052-.19c-.007-.074-.011-.136-.011-.18a.834.834,0,0,1,.107-.446.3.3,0,0,1,.268-.149.37.37,0,0,1,.13.024.259.259,0,0,1,.117.08.564.564,0,0,1,.092.175.963.963,0,0,1,.041.3,1.352,1.352,0,0,1-.013.189.764.764,0,0,1-.05.2.384.384,0,0,1-.113.151.313.313,0,0,1-.2.06" transform="translate(-77.134 -8.897)" fill="#123884"/>
        <path id="Path_16984" data-name="Path 16984" d="M157.675,18.386a.855.855,0,0,0-.161-.158c-.028-.02-.057-.038-.083-.055a.738.738,0,0,0,.178-.252.915.915,0,0,0,.07-.342.839.839,0,0,0-.055-.3.673.673,0,0,0-.171-.251.893.893,0,0,0-.289-.172,1.214,1.214,0,0,0-.4-.06h-1.411l-.013.051a.707.707,0,0,0-.035.211.53.53,0,0,0,.037.2l.018.044h.232V19.3h-.237l-.012.048a.6.6,0,0,0,0,.413l.012.047h1.456a1.354,1.354,0,0,0,.444-.068.916.916,0,0,0,.322-.2.794.794,0,0,0,.191-.3,1.082,1.082,0,0,0,.062-.361.888.888,0,0,0-.044-.282.976.976,0,0,0-.11-.216M157,17.5a.515.515,0,0,1,.018.12.381.381,0,0,1-.089.265.4.4,0,0,1-.295.091h-.4v-.654h.406a.652.652,0,0,1,.2.025.336.336,0,0,1,.112.067A.193.193,0,0,1,157,17.5m-.766,1h.486a.508.508,0,0,1,.326.1.309.309,0,0,1,.116.268.475.475,0,0,1-.094.3.382.382,0,0,1-.309.11h-.525Z" transform="translate(-74.601 -8.068)" fill="#123884"/>
        <path id="Path_16985" data-name="Path 16985" d="M167.637,20.042h-.22V19.1a.867.867,0,0,0-.191-.6.716.716,0,0,0-.562-.214.8.8,0,0,0-.409.1,1.189,1.189,0,0,0-.128.1l-.011-.142h-.785l-.018.045a.573.573,0,0,0-.035.193.561.561,0,0,0,.035.192l.018.046h.217v1.227h-.217l-.018.046a.559.559,0,0,0-.035.194.551.551,0,0,0,.035.191l.018.047h1.045l.017-.047a.558.558,0,0,0,.034-.191.581.581,0,0,0-.034-.194l-.017-.046h-.185v-.761a.7.7,0,0,1,.037-.252.371.371,0,0,1,.085-.142.227.227,0,0,1,.1-.07.528.528,0,0,1,.121-.018.211.211,0,0,1,.19.072.57.57,0,0,1,.054.277v.893h-.184l-.016.046a.585.585,0,0,0-.036.194.561.561,0,0,0,.036.191l.016.047h1.045l.017-.047a.522.522,0,0,0,.038-.191.529.529,0,0,0-.038-.194Z" transform="translate(-79.391 -8.783)" fill="#123884"/>
        <path id="Path_16986" data-name="Path 16986" d="M172.691,19.362a.544.544,0,0,0-.019-.089l-.016-.052h-.231l-.514-.881.4-.346h.27l.018-.042a.5.5,0,0,0,0-.392l-.018-.042h-1.1l-.017.046a.539.539,0,0,0-.036.189.431.431,0,0,0,.043.19l.018.036h.067l-.289.246V16.577h-.855l-.018.044a.529.529,0,0,0-.042.2.523.523,0,0,0,.042.2l.018.042h.213v2.159h-.213l-.018.043a.492.492,0,0,0-.042.2.561.561,0,0,0,.037.191l.015.047h.974l.019-.032a.268.268,0,0,0,.043-.1.425.425,0,0,0,.012-.1.408.408,0,0,0-.049-.195l-.02-.038h-.116v-.355l.165-.141.281.5h-.094l-.019.035a.457.457,0,0,0-.044.2.385.385,0,0,0,.046.191l.018.035h1.037l.015-.047a.522.522,0,0,0,.038-.191.435.435,0,0,0-.012-.1" transform="translate(-81.826 -7.963)" fill="#123884"/>
      </g>
    </g>
    <g id="Group_10412" data-name="Group 10412" transform="translate(93.675)">
      <g id="Group_10411" data-name="Group 10411" clip-path="url(#clip-path-2)">
        <rect id="Rectangle_5452" data-name="Rectangle 5452" width="12.109" height="12.455" transform="matrix(0.883, -0.469, 0.469, 0.883, -3.938, 2.094)" fill="url(#linear-gradient)"/>
      </g>
    </g>
    <g id="Group_10414" data-name="Group 10414" transform="translate(97.118 1.639)">
      <g id="Group_10413" data-name="Group 10413" clip-path="url(#clip-path-3)">
        <rect id="Rectangle_5453" data-name="Rectangle 5453" width="0.012" height="0.01" transform="translate(-0.005 0.002) rotate(-27.997)" fill="url(#linear-gradient-2)"/>
      </g>
    </g>
    <g id="Group_10416" data-name="Group 10416" transform="translate(92.196 1.95)">
      <g id="Group_10415" data-name="Group 10415" clip-path="url(#clip-path-4)">
        <rect id="Rectangle_5454" data-name="Rectangle 5454" width="14.952" height="14.145" transform="translate(-4.055 2.156) rotate(-28)" fill="url(#linear-gradient-3)"/>
      </g>
    </g>
    <g id="Group_10418" data-name="Group 10418" transform="translate(0 0)">
      <g id="Group_10417" data-name="Group 10417" clip-path="url(#clip-path)">
        <path id="Path_16990" data-name="Path 16990" d="M166.793,29.03h-2.911l-.037.089a1.543,1.543,0,0,0-.12.588,1.3,1.3,0,0,0,.03.28,1.444,1.444,0,0,0,.093.272l.041.083h.7L163.039,35.2l-1.5-4.857h.709l.037-.083a.806.806,0,0,0,.087-.275,1.613,1.613,0,0,0,.029-.277,1.677,1.677,0,0,0-.108-.575l-.034-.1h-3.041l-.04.094a1.652,1.652,0,0,0-.118.6,1.622,1.622,0,0,0,.028.28.914.914,0,0,0,.1.264l.038.077h.588l2.248,7.069h1.777l2.349-7.069h.589l.043-.083a1.056,1.056,0,0,0,.088-.28,1.86,1.86,0,0,0,.02-.272,1.748,1.748,0,0,0-.1-.579Z" transform="translate(-76.405 -13.945)" fill="#123884"/>
        <path id="Path_16991" data-name="Path 16991" d="M177.5,38.464h-.564v-4.7h-2.243l-.029.095a1.414,1.414,0,0,0-.1.515,1.491,1.491,0,0,0,.1.514l.034.1h.568v3.478h-.568l-.029.09a1.41,1.41,0,0,0-.1.517,1.491,1.491,0,0,0,.1.517l.034.1H177.5l.035-.1a1.438,1.438,0,0,0,0-1.028Z" transform="translate(-83.851 -16.219)" fill="#123884"/>
        <path id="Path_16992" data-name="Path 16992" d="M176.464,30.41a.8.8,0,0,0,.59-.255.868.868,0,0,0,.247-.622.851.851,0,0,0-.247-.621.812.812,0,0,0-1.181,0,.846.846,0,0,0-.25.621.862.862,0,0,0,.25.622.793.793,0,0,0,.591.255" transform="translate(-84.361 -13.766)" fill="#123884"/>
        <path id="Path_16993" data-name="Path 16993" d="M186.244,34.465a2.293,2.293,0,0,0-.811-.707,2.988,2.988,0,0,0-2.493,0,2.481,2.481,0,0,0-.847.713,2.9,2.9,0,0,0-.485,1,4.258,4.258,0,0,0-.153,1.123,3.775,3.775,0,0,0,.173,1.136,2.82,2.82,0,0,0,.534,1,2.635,2.635,0,0,0,.949.711,3.333,3.333,0,0,0,1.39.27,3.615,3.615,0,0,0,1.063-.158,5.226,5.226,0,0,0,.887-.347l.078-.039V37.677l-.213.121a5.966,5.966,0,0,1-.916.424,2.9,2.9,0,0,1-.915.135,1.2,1.2,0,0,1-.513-.105,1.233,1.233,0,0,1-.4-.286,1.484,1.484,0,0,1-.271-.436,1.636,1.636,0,0,1-.1-.393h3.578v-.664a4.657,4.657,0,0,0-.119-1.04,2.718,2.718,0,0,0-.416-.968m-2.1.319a.773.773,0,0,1,.674.312,1.623,1.623,0,0,1,.244.821h-1.857a2.1,2.1,0,0,1,.286-.807.726.726,0,0,1,.652-.325" transform="translate(-87.163 -16.085)" fill="#123884"/>
        <path id="Path_16994" data-name="Path 16994" d="M195.886,36.073a1.657,1.657,0,0,1-.341.03.431.431,0,0,1-.286-.086c-.034-.029-.094-.118-.094-.374V32.738h1.083l.028-.106a1.8,1.8,0,0,0,.092-.531,1.5,1.5,0,0,0-.092-.515l-.036-.1h-1.075V29.032l-1.688.878V31.49h-.631l-.033.1a1.5,1.5,0,0,0-.094.515,1.853,1.853,0,0,0,.092.531l.033.106h.632v2.8a2.116,2.116,0,0,0,.4,1.379,1.65,1.65,0,0,0,1.336.489,3.071,3.071,0,0,0,.579-.057,2.9,2.9,0,0,0,.617-.178l.09-.041V35.81l-.209.1a1.833,1.833,0,0,1-.408.158" transform="translate(-92.573 -13.946)" fill="#123884"/>
        <path id="Path_16995" data-name="Path 16995" d="M122.931,34.032A2.122,2.122,0,0,0,122,32.905a2.041,2.041,0,0,0,.646-1.076,2.2,2.2,0,0,0,.067-.545,2.231,2.231,0,0,0-.327-1.153,2.538,2.538,0,0,0-2.385-1.1h-3.741l-.046.134a1.56,1.56,0,0,0-.1.535,1.617,1.617,0,0,0,.1.543l.049.129h.817V36.06h-.691l-.055.009h-.075l-.046.133a1.5,1.5,0,0,0,0,1.077l.046.132h2.842l.038-.006h.907A2.756,2.756,0,0,0,122.831,36a2.576,2.576,0,0,0,.261-1.11,2.4,2.4,0,0,0-.161-.854m-1.762-2.341a.745.745,0,0,1-.515.531,3.147,3.147,0,0,1-.838.077h-1.193V30.443h1.065a4.738,4.738,0,0,1,.83.038.746.746,0,0,1,.551.333,1.3,1.3,0,0,1,.143.587,1,1,0,0,1-.042.29m-1.118,4.288h-1.429V33.8h1.294a3.273,3.273,0,0,1,.991.118.871.871,0,0,1,.548.588,1.656,1.656,0,0,1,.061.448,1.019,1.019,0,0,1-.123.493.888.888,0,0,1-.53.442,2.833,2.833,0,0,1-.814.089" transform="translate(-55.778 -13.945)" fill="#123884"/>
        <path id="Path_16996" data-name="Path 16996" d="M65.772,36.282l-.035-.09H65.1V33.615c0-1.642-.74-2.475-2.2-2.475a2.359,2.359,0,0,0-1.235.334V29.033h-2.24l-.035.1a1.445,1.445,0,0,0,0,1.031l.035.1H60v5.935h-.569l-.035.1a1.438,1.438,0,0,0,0,1.028l.035.1h2.8l.037-.1a1.5,1.5,0,0,0,.1-.517,1.558,1.558,0,0,0-.1-.517l-.037-.09h-.565v-2.1a2.576,2.576,0,0,1,.117-.862.87.87,0,0,1,.373-.416,1.068,1.068,0,0,1,.561-.153.7.7,0,0,1,.586.239,1.2,1.2,0,0,1,.182.718v2.576h-.554l-.036.1a1.409,1.409,0,0,0,0,1.028l.036.1h2.8l.039-.1a1.471,1.471,0,0,0,.1-.517,1.588,1.588,0,0,0-.1-.517" transform="translate(-28.484 -13.946)" fill="#123884"/>
        <path id="Path_16997" data-name="Path 16997" d="M150.5,38.3h-.566V35.552a2.241,2.241,0,0,0-.5-1.545,1.87,1.87,0,0,0-1.451-.557,2,2,0,0,0-1.063.267,2.273,2.273,0,0,0-.329.24l-.032-.347h-2.03l-.044.117a1.369,1.369,0,0,0,0,1l.044.115h.569V38.3h-.569l-.044.119a1.358,1.358,0,0,0,0,.993l.044.118h2.7l.041-.118a1.39,1.39,0,0,0,.1-.5,1.443,1.443,0,0,0-.094-.494l-.043-.119h-.478V36.031a1.825,1.825,0,0,1,.092-.652,1.021,1.021,0,0,1,.217-.373.63.63,0,0,1,.264-.171,1.007,1.007,0,0,1,.307-.052c.255,0,.427.065.5.193a1.442,1.442,0,0,1,.141.707V38.3H147.8l-.04.115a1.477,1.477,0,0,0-.092.5,1.442,1.442,0,0,0,.092.5l.04.118H150.5l.042-.118a1.367,1.367,0,0,0,0-1Z" transform="translate(-69.359 -16.068)" fill="#123884"/>
        <path id="Path_16998" data-name="Path 16998" d="M137.123,38.469h-.608V33.764h-1.527l-.115.509a1.66,1.66,0,0,0-.385-.279,1.936,1.936,0,0,0-.949-.226,2.3,2.3,0,0,0-1.249.321,2.551,2.551,0,0,0-.795.8,3.172,3.172,0,0,0-.414,1.038,5.166,5.166,0,0,0-.117,1.045,3.65,3.65,0,0,0,.171,1.148,2.665,2.665,0,0,0,.485.907,2.194,2.194,0,0,0,.786.6,2.437,2.437,0,0,0,1.026.215,2.11,2.11,0,0,0,1.086-.255,2.378,2.378,0,0,0,.446-.337l.057.438h2.1l.038-.1a1.539,1.539,0,0,0,.1-.514,1.593,1.593,0,0,0-.1-.517Zm-3.331.033a.929.929,0,0,1-.6-.174,1.3,1.3,0,0,1-.341-.442,1.809,1.809,0,0,1-.147-.56,4.922,4.922,0,0,1-.036-.517,2.353,2.353,0,0,1,.311-1.278.884.884,0,0,1,.784-.444,1.128,1.128,0,0,1,.391.075.826.826,0,0,1,.343.243,1.475,1.475,0,0,1,.269.5,2.7,2.7,0,0,1,.113.861,5.252,5.252,0,0,1-.032.544,1.99,1.99,0,0,1-.148.573,1.158,1.158,0,0,1-.333.444.9.9,0,0,1-.579.174" transform="translate(-62.91 -16.219)" fill="#123884"/>
        <path id="Path_16999" data-name="Path 16999" d="M92.537,38.3h-.566V35.552a2.223,2.223,0,0,0-.5-1.545,1.864,1.864,0,0,0-1.449-.557,1.988,1.988,0,0,0-1.06.267,2.347,2.347,0,0,0-.333.24L88.6,33.61H86.569l-.048.117a1.376,1.376,0,0,0,0,1l.048.115h.565V38.3h-.565l-.048.119a1.365,1.365,0,0,0,0,.993l.048.118h2.7l.04-.118a1.422,1.422,0,0,0,.1-.5,1.443,1.443,0,0,0-.094-.494l-.041-.119h-.478V36.031a1.8,1.8,0,0,1,.093-.652,1.081,1.081,0,0,1,.214-.373.658.658,0,0,1,.266-.171,1.028,1.028,0,0,1,.307-.052c.257,0,.427.065.5.193a1.412,1.412,0,0,1,.142.707V38.3h-.477l-.042.115a1.516,1.516,0,0,0-.093.5,1.479,1.479,0,0,0,.093.5l.042.118h2.7l.043-.118a1.389,1.389,0,0,0,0-1Z" transform="translate(-41.516 -16.068)" fill="#123884"/>
        <path id="Path_17000" data-name="Path 17000" d="M79.168,38.469h-.609V33.764H77.03l-.113.509a1.643,1.643,0,0,0-.388-.279,1.925,1.925,0,0,0-.946-.226,2.3,2.3,0,0,0-1.251.321,2.585,2.585,0,0,0-.793.8,3.147,3.147,0,0,0-.413,1.038,4.979,4.979,0,0,0-.115,1.045,3.712,3.712,0,0,0,.167,1.148,2.721,2.721,0,0,0,.486.907,2.208,2.208,0,0,0,.785.6,2.449,2.449,0,0,0,1.028.215,2.1,2.1,0,0,0,1.084-.255,2.265,2.265,0,0,0,.446-.337l.057.438h2.1l.034-.1a1.419,1.419,0,0,0,.1-.514,1.466,1.466,0,0,0-.1-.517Zm-3.336.033a.933.933,0,0,1-.594-.174,1.346,1.346,0,0,1-.339-.442,1.8,1.8,0,0,1-.148-.56c-.021-.206-.034-.379-.034-.517a2.354,2.354,0,0,1,.309-1.278.89.89,0,0,1,.784-.444,1.147,1.147,0,0,1,.394.075.814.814,0,0,1,.342.243,1.5,1.5,0,0,1,.268.5,2.665,2.665,0,0,1,.115.861,5.259,5.259,0,0,1-.032.544,1.941,1.941,0,0,1-.148.573,1.181,1.181,0,0,1-.334.444.906.906,0,0,1-.581.174" transform="translate(-35.071 -16.219)" fill="#123884"/>
        <path id="Path_17001" data-name="Path 17001" d="M48.015,38.3h-.566V35.552a2.233,2.233,0,0,0-.5-1.545,1.871,1.871,0,0,0-1.45-.557,1.981,1.981,0,0,0-1.06.267,2.346,2.346,0,0,0-.333.24l-.033-.347H42.047L42,33.727a1.412,1.412,0,0,0,0,1l.048.115h.565V38.3h-.565L42,38.422a1.4,1.4,0,0,0,0,.993l.048.118h2.7l.041-.118a1.421,1.421,0,0,0,.095-.5,1.478,1.478,0,0,0-.092-.494l-.043-.119h-.478V36.031a1.89,1.89,0,0,1,.091-.652,1.108,1.108,0,0,1,.217-.373.651.651,0,0,1,.266-.171,1.007,1.007,0,0,1,.307-.052c.256,0,.426.065.5.193a1.417,1.417,0,0,1,.143.707V38.3h-.478l-.043.115a1.516,1.516,0,0,0-.092.5,1.479,1.479,0,0,0,.092.5l.043.118h2.7l.042-.118a1.389,1.389,0,0,0,0-1Z" transform="translate(-20.131 -16.068)" fill="#123884"/>
        <path id="Path_17002" data-name="Path 17002" d="M34.638,38.469H34.03V33.764H32.5l-.112.509A1.772,1.772,0,0,0,32,33.994a1.942,1.942,0,0,0-.951-.226,2.309,2.309,0,0,0-1.249.321,2.56,2.56,0,0,0-.79.8A3.142,3.142,0,0,0,28.6,35.93a5.2,5.2,0,0,0-.117,1.045,3.634,3.634,0,0,0,.174,1.148,2.687,2.687,0,0,0,.482.907,2.2,2.2,0,0,0,.785.6,2.441,2.441,0,0,0,1.026.215,2.107,2.107,0,0,0,1.088-.255,2.285,2.285,0,0,0,.444-.337l.057.438h2.1l.034-.1a1.478,1.478,0,0,0,.1-.514,1.529,1.529,0,0,0-.1-.517Zm-3.332.033a.937.937,0,0,1-.6-.174,1.283,1.283,0,0,1-.338-.442,1.786,1.786,0,0,1-.151-.56c-.019-.206-.034-.379-.034-.517a2.33,2.33,0,0,1,.312-1.278.881.881,0,0,1,.782-.444,1.142,1.142,0,0,1,.394.075.821.821,0,0,1,.341.243,1.476,1.476,0,0,1,.271.5,2.761,2.761,0,0,1,.113.861,4.982,4.982,0,0,1-.032.544,1.992,1.992,0,0,1-.149.573,1.16,1.16,0,0,1-.332.444.9.9,0,0,1-.579.174" transform="translate(-13.68 -16.219)" fill="#123884"/>
        <path id="Path_17003" data-name="Path 17003" d="M7.807,36.187H7.242V30.248h.565l.038-.1a1.45,1.45,0,0,0,0-1.033l-.038-.1H5l-.034.1a1.45,1.45,0,0,0,0,1.033l.034.1h.567v3.921l-3.2-5.146H.13l-.036.1A1.506,1.506,0,0,0,0,29.635a1.531,1.531,0,0,0,.095.517l.036.1H.693v5.939H.13l-.036.1a1.445,1.445,0,0,0,0,1.028l.036.1h2.8l.034-.1a1.5,1.5,0,0,0,.1-.517,1.548,1.548,0,0,0-.1-.517l-.034-.09H2.37V32.127l3.2,5.27v.009H7.807l.038-.1a1.49,1.49,0,0,0,.1-.517,1.543,1.543,0,0,0-.1-.517Z" transform="translate(0 -13.942)" fill="#123884"/>
        <path id="Path_17004" data-name="Path 17004" d="M105.168,33.719l-.032-.1H103l-.037.434a2.2,2.2,0,0,0-.437-.33,2.094,2.094,0,0,0-1.086-.255,2.331,2.331,0,0,0-1.026.216,2.117,2.117,0,0,0-.783.594,2.687,2.687,0,0,0-.489.9,3.727,3.727,0,0,0-.17,1.152,4.993,4.993,0,0,0,.118,1.046,3.282,3.282,0,0,0,.412,1.039,2.534,2.534,0,0,0,.794.8,2.317,2.317,0,0,0,1.25.322,1.879,1.879,0,0,0,1.3-.47v.456a2.828,2.828,0,0,1-.046.29c-.128.482-.49.711-1.107.711-.736,0-.861-.315-.894-.555l-.025-.183a1.971,1.971,0,0,0-.616-.1h-.137a1.784,1.784,0,0,0-.7.14l.008.2a1.864,1.864,0,0,0,.845,1.567,2.973,2.973,0,0,0,1.626.452,2.4,2.4,0,0,0,2.426-1.376,4.876,4.876,0,0,0,.293-1.937V34.846h.613l.032-.1a1.47,1.47,0,0,0,.1-.514,1.487,1.487,0,0,0-.1-.515m-2.389,3.688a1.4,1.4,0,0,1-.269.5.875.875,0,0,1-.341.247,1.24,1.24,0,0,1-.392.07.89.89,0,0,1-.785-.442,2.336,2.336,0,0,1-.308-1.281,5.133,5.133,0,0,1,.032-.515,1.86,1.86,0,0,1,.148-.558,1.292,1.292,0,0,1,.343-.441,1.076,1.076,0,0,1,1.175,0,1.223,1.223,0,0,1,.335.441,2.251,2.251,0,0,1,.144.574c.02.205.031.39.031.545a2.726,2.726,0,0,1-.113.861" transform="translate(-47.543 -16.079)" fill="#123884"/>
        <path id="Path_17005" data-name="Path 17005" d="M22.036,33.719l-.032-.1H19.87l-.038.434a2.163,2.163,0,0,0-.435-.33,2.084,2.084,0,0,0-1.087-.255,2.337,2.337,0,0,0-1.026.216,2.105,2.105,0,0,0-.782.594,2.651,2.651,0,0,0-.489.9,3.726,3.726,0,0,0-.172,1.152,5.066,5.066,0,0,0,.119,1.046,3.285,3.285,0,0,0,.413,1.039,2.553,2.553,0,0,0,.793.8,2.31,2.31,0,0,0,1.249.322,1.985,1.985,0,0,0,.948-.223,1.832,1.832,0,0,0,.355-.247v.456a2.492,2.492,0,0,1-.041.29c-.128.482-.494.711-1.109.711-.737,0-.864-.315-.9-.555l-.021-.183a1.986,1.986,0,0,0-.617-.1h-.14a1.783,1.783,0,0,0-.7.14l.007.2a1.87,1.87,0,0,0,.845,1.567,2.982,2.982,0,0,0,1.63.452A2.393,2.393,0,0,0,21.1,40.676a4.886,4.886,0,0,0,.293-1.937V34.846H22l.032-.1a1.531,1.531,0,0,0,.1-.514,1.549,1.549,0,0,0-.1-.515m-2.39,3.688a1.391,1.391,0,0,1-.267.5.882.882,0,0,1-.342.247,1.227,1.227,0,0,1-.392.07.893.893,0,0,1-.786-.442,2.336,2.336,0,0,1-.307-1.281q0-.207.03-.515a1.847,1.847,0,0,1,.15-.558,1.3,1.3,0,0,1,.342-.441.915.915,0,0,1,.59-.175.9.9,0,0,1,.587.175,1.2,1.2,0,0,1,.333.441A2.232,2.232,0,0,1,19.73,36c.019.205.029.39.029.545a2.7,2.7,0,0,1-.113.861" transform="translate(-7.609 -16.079)" fill="#123884"/>
        <path id="Path_17006" data-name="Path 17006" d="M34.249,30.193c-.209-.16-.441-.342-.689-.541l-.782-.637c-.512.429-1.006.826-1.488,1.183a.757.757,0,0,0,.439.627,8.851,8.851,0,0,0,1.049-.59,8.152,8.152,0,0,0,1.042.585.742.742,0,0,0,.429-.627" transform="translate(-15.03 -13.938)" fill="#123884"/>
        <path id="Path_17007" data-name="Path 17007" d="M186.964,30.2c-.214-.161-.443-.341-.693-.542l-.784-.64q-.768.648-1.487,1.185a.768.768,0,0,0,.441.627,9.074,9.074,0,0,0,1.046-.591,8.482,8.482,0,0,0,1.041.588.772.772,0,0,0,.435-.627" transform="translate(-88.385 -13.939)" fill="#123884"/>
        <path id="Path_17008" data-name="Path 17008" d="M76.938,29.523l-.784-.641c-.247.209-.5.41-.735.6a5.317,5.317,0,0,0,.946.755,6.066,6.066,0,0,0,.83.452.776.776,0,0,0,.434-.626c-.215-.163-.442-.343-.692-.542" transform="translate(-36.228 -13.874)" fill="#123884"/>
        <path id="Path_17009" data-name="Path 17009" d="M136.624,29.286a1.221,1.221,0,0,0-.872-.256,4.676,4.676,0,0,0-.842.094,1.189,1.189,0,0,0,.117.7c.127-.025.241-.044.325-.059a2.949,2.949,0,0,1,.331-.019c.253,0,.382.09.382.281a.389.389,0,0,1-.078.255,3.854,3.854,0,0,1-.513.437,1.121,1.121,0,0,0,.471.581l0,0a4.176,4.176,0,0,0,.755-.66,1.15,1.15,0,0,0,.142-.657.984.984,0,0,0-.218-.7" transform="translate(-64.799 -13.945)" fill="#123884"/>
        <path id="Path_17010" data-name="Path 17010" d="M186.176,47.746a.711.711,0,0,0,.518-.222.756.756,0,0,0,.212-.546.733.733,0,0,0-.212-.536.707.707,0,0,0-1.031-.005.789.789,0,0,0,0,1.087.7.7,0,0,0,.513.222" transform="translate(-89.08 -22.201)" fill="#123884"/>
      </g>
    </g>
  </g>
</svg>
