<svg width="204" height="52" viewBox="0 0 204 52" fill="none" xmlns="http://www.w3.org/2000/svg">
<g clip-path="url(#clip0_4_3484)">
<path d="M101.098 46.9563C100.983 47.5437 100.739 48.0995 100.383 48.5851C100.201 48.7404 99.9878 48.8577 99.7575 48.93C99.5273 49.0022 99.2844 49.0279 99.0437 49.0054C98.8031 49.0279 98.5602 49.0022 98.3299 48.93C98.0997 48.8577 97.8868 48.7404 97.7041 48.5851C97.3481 48.0995 97.1043 47.5437 96.9896 46.9563L95.2035 40.2483C95.0963 39.8805 95.2034 39.7754 95.5785 39.7754H95.7393C96.1322 39.7754 96.2573 39.8805 96.3645 40.2483L98.1506 47.0789C98.3471 47.8495 98.5436 48.0246 99.0437 48.0246C99.5439 48.0246 99.7403 47.8495 99.9368 47.0789L101.723 40.2483C101.83 39.8805 101.955 39.7754 102.366 39.7754H102.509C102.92 39.7754 102.991 39.8805 102.884 40.2483L101.098 46.9563Z" fill="#089DD9"/>
<path d="M104.082 42.4375C104.082 42.0872 104.189 41.9996 104.546 41.9996H104.707C105.082 41.9996 105.154 41.9996 105.154 42.4375V48.4624C105.154 48.8302 105.154 48.9003 104.707 48.9003H104.546C104.189 48.9003 104.082 48.9003 104.082 48.4624V42.4375ZM105.225 40.8787C105.161 40.9842 105.069 41.0707 104.959 41.1292C104.849 41.1878 104.725 41.2162 104.6 41.2115H104.457C104.153 41.2115 104.082 41.2115 104.243 40.8612L104.85 39.7228C104.899 39.581 104.998 39.4608 105.129 39.3838C105.259 39.3068 105.414 39.278 105.565 39.3024H105.743C106.136 39.3024 106.19 39.39 105.975 39.7053L105.225 40.8787Z" fill="#089DD9"/>
<path d="M110.367 44.7317C110.367 42.9803 111.385 41.8418 113.564 41.8418C113.994 41.8321 114.422 41.8913 114.833 42.017C115.19 42.1396 115.279 42.2272 115.279 42.5599V42.7C115.279 43.0503 115.279 43.1379 114.833 43.0328C114.436 42.9009 114.019 42.8358 113.6 42.8401C111.993 42.8401 111.439 43.4532 111.439 44.7492V46.1153C111.439 47.534 112.082 48.0244 113.69 48.0244C114.125 48.0338 114.559 47.9747 114.976 47.8493C115.315 47.7442 115.422 47.8492 115.422 48.1995V48.3396C115.422 48.6374 115.315 48.7425 114.958 48.8476C114.522 48.9705 114.071 49.0295 113.618 49.0227C111.403 49.0227 110.367 48.0945 110.367 46.1329V44.7317Z" fill="#089DD9"/>
<path d="M117.513 46.4129C117.513 47.5163 117.995 48.0242 119.442 48.0242C120.889 48.0242 121.371 47.5338 121.371 46.4129V42.4372C121.371 42.0869 121.461 41.9993 121.818 41.9993H121.979C122.372 41.9993 122.443 41.9993 122.443 42.4372V46.4304C122.443 48.1818 121.568 49.0401 119.442 49.0401C117.317 49.0401 116.441 48.1818 116.441 46.4304V42.4372C116.441 42.0869 116.531 41.9993 116.906 41.9993H117.049C117.442 41.9993 117.513 41.9993 117.513 42.4372V46.4129ZM119.478 41.1586C119.21 41.1586 119.174 41.0535 119.139 40.8959C119.103 40.7383 119.353 40.3354 119.782 39.8801C119.88 39.801 119.944 39.6883 119.96 39.5648C119.96 39.3196 119.853 39.2145 119.71 39.197C119.489 39.1843 119.268 39.2265 119.067 39.3196C119.033 39.3401 118.994 39.3522 118.955 39.3551C118.915 39.3579 118.875 39.3513 118.838 39.3359C118.801 39.3204 118.769 39.2966 118.743 39.2663C118.718 39.2361 118.7 39.2003 118.692 39.162V39.0569C118.692 38.8467 118.692 38.7767 118.906 38.7066C119.17 38.5888 119.456 38.529 119.746 38.5315C119.886 38.5202 120.026 38.5394 120.157 38.5879C120.289 38.6363 120.407 38.7127 120.505 38.8116C120.602 38.9105 120.676 39.0293 120.721 39.1596C120.766 39.2899 120.78 39.4283 120.764 39.5648C120.764 40.1778 119.925 40.423 119.889 40.8959C119.889 41.001 119.764 41.1236 119.621 41.1586H119.478Z" fill="#089DD9"/>
<path d="M129.462 46.8159C129.462 48.3747 128.515 49.0227 126.443 49.0227C124.8 49.0227 123.746 48.3747 123.746 46.921C123.746 45.4673 124.711 44.8718 126.675 44.8718H128.372V44.0312C128.372 43.0854 127.711 42.7701 126.497 42.7701C125.963 42.7626 125.431 42.8095 124.907 42.9102C124.568 42.9102 124.443 42.9103 124.443 42.56V42.4374C124.443 42.1221 124.443 42.0345 124.871 41.9645C125.383 41.8623 125.904 41.8153 126.425 41.8243C128.444 41.8243 129.462 42.5424 129.462 44.0136V46.8159ZM128.372 45.7125H126.693C125.407 45.7125 124.818 46.0453 124.818 46.921C124.818 47.7967 125.354 48.112 126.425 48.112C127.765 48.112 128.372 47.8142 128.372 46.7634V45.7125Z" fill="#089DD9"/>
<path d="M140.912 44.4335C140.912 46.0623 139.912 46.8679 137.929 46.8679C137.42 46.8457 136.911 46.8809 136.411 46.973C136.31 46.9897 136.218 47.0413 136.153 47.1184C136.087 47.1955 136.052 47.293 136.053 47.3934C136.053 47.6035 136.178 47.7261 136.411 47.7962C136.913 47.8692 137.421 47.8986 137.929 47.8838C138.774 47.8145 139.623 47.9593 140.394 48.3041C140.636 48.4672 140.829 48.6918 140.952 48.954C141.075 49.2162 141.123 49.5061 141.09 49.7928C141.138 50.1205 141.097 50.4548 140.972 50.7621C140.846 51.0695 140.641 51.3392 140.376 51.5443C138.796 52.1751 137.026 52.1751 135.446 51.5443C135.221 51.3704 135.042 51.146 134.924 50.8899C134.805 50.6339 134.752 50.3537 134.767 50.0731C134.747 49.7738 134.811 49.4748 134.953 49.209C135.095 48.9432 135.309 48.721 135.571 48.5668C135.389 48.4889 135.234 48.3584 135.129 48.1927C135.024 48.0269 134.972 47.8336 134.982 47.6386C134.982 47.0256 135.375 46.6578 136.143 46.5527C135.744 46.3831 135.41 46.0927 135.192 45.7239C134.973 45.3552 134.881 44.9275 134.928 44.5035V44.1883C134.928 42.6645 136.036 41.7713 137.929 41.7713C138.438 41.76 138.943 41.8556 139.411 42.0515L140.233 41.3334C140.483 41.1232 140.59 41.1232 140.823 41.3334L140.93 41.421C141.162 41.6487 141.162 41.7538 140.93 41.9815L140.287 42.6295C140.499 42.8301 140.665 43.0732 140.772 43.3421C140.88 43.6111 140.928 43.8997 140.912 44.1883V44.4335ZM136.518 48.7245C136.3 48.8287 136.119 48.9945 135.998 49.2005C135.877 49.4065 135.822 49.6433 135.839 49.8804C135.839 50.7912 136.375 51.0364 137.929 51.0364C139.483 51.0364 140.001 50.7911 140.001 49.8454C140.001 48.8996 139.465 48.7945 137.929 48.7945C137.457 48.8058 136.986 48.7824 136.518 48.7245V48.7245ZM139.822 44.2583C139.822 43.26 139.179 42.7696 137.929 42.7696C136.679 42.7696 136.018 43.26 136.018 44.2583V44.4335C136.018 45.4318 136.482 45.9397 137.929 45.9397C139.376 45.9397 139.822 45.4318 139.822 44.4335V44.2583Z" fill="#089DD9"/>
<path d="M143.806 39.8275C143.806 39.9164 143.788 40.0044 143.752 40.0863C143.717 40.1682 143.666 40.2424 143.601 40.3044C143.536 40.3665 143.459 40.4151 143.374 40.4475C143.29 40.4799 143.2 40.4954 143.109 40.4931C143.018 40.4954 142.926 40.48 142.841 40.4478C142.756 40.4157 142.678 40.3673 142.611 40.3055C142.545 40.2437 142.491 40.1696 142.454 40.0876C142.417 40.0056 142.397 39.9172 142.395 39.8275C142.395 39.6417 142.47 39.4635 142.604 39.3321C142.738 39.2008 142.92 39.127 143.109 39.127C143.202 39.1269 143.294 39.1451 143.38 39.1806C143.466 39.216 143.543 39.2679 143.608 39.3332C143.673 39.3985 143.724 39.4758 143.758 39.5607C143.792 39.6457 143.808 39.7364 143.806 39.8275V39.8275ZM142.573 42.4197C142.573 42.0694 142.573 41.9818 143.038 41.9818H143.252C143.627 41.9818 143.716 41.9818 143.716 42.4197V48.4446C143.716 48.8124 143.627 48.8824 143.252 48.8824H143.109C142.716 48.8824 142.645 48.8824 142.645 48.4446L142.573 42.4197Z" fill="#089DD9"/>
<path d="M150.915 46.8159C150.915 48.3747 149.986 49.0227 147.914 49.0227C146.253 49.0227 145.199 48.3747 145.199 46.921C145.199 45.4673 146.182 44.8718 148.146 44.8718H149.843V44.0312C149.843 43.0854 149.182 42.7701 147.95 42.7701C147.422 42.7633 146.896 42.8102 146.378 42.9102C146.021 42.9102 145.914 42.9103 145.914 42.56V42.4374C145.914 42.1221 146.003 42.0345 146.342 41.9645C146.854 41.8623 147.375 41.8153 147.896 41.8243C149.915 41.8243 150.915 42.5424 150.915 44.0136V46.8159ZM149.843 45.7125H148.164C146.878 45.7125 146.289 46.0453 146.289 46.921C146.289 47.7967 146.825 48.112 147.896 48.112C148.968 48.112 149.843 47.8142 149.843 46.7634V45.7125Z" fill="#089DD9"/>
<path d="M163.991 40.7906C163.991 41.0884 163.901 41.1934 163.598 41.1934H162.723V46.0975C162.723 48.0415 161.669 49.0223 159.579 49.0223C157.489 49.0223 156.417 48.0415 156.417 46.0975V44.8014C156.355 44.4017 156.388 43.9932 156.516 43.6086C156.643 43.2239 156.86 42.8737 157.15 42.5861C157.44 42.2985 157.794 42.0813 158.185 41.952C158.576 41.8227 158.992 41.7849 159.4 41.8415C159.835 41.7894 160.275 41.8568 160.673 42.0362C161.07 42.2156 161.409 42.4999 161.651 42.8573V41.1059H159.686C159.347 41.1059 159.275 41.0008 159.275 40.703V40.6855C159.275 40.3878 159.275 40.3002 159.686 40.3002H161.651V39.5296C161.651 39.1443 161.651 39.0742 162.115 39.0742H162.258C162.633 39.0742 162.723 39.0742 162.723 39.5296V40.3002H163.598C163.901 40.3002 163.991 40.3878 163.991 40.6855V40.7906ZM157.489 46.0449C157.489 47.3935 157.971 47.989 159.579 47.989C161.186 47.989 161.651 47.3935 161.651 46.0449V44.7489C161.651 43.4003 161.133 42.8048 159.579 42.8048C158.025 42.8048 157.489 43.4003 157.489 44.7489V46.0449Z" fill="#089DD9"/>
<path d="M163.722 39.6876C163.508 39.3724 163.561 39.2848 163.954 39.2848H164.097C164.247 39.2638 164.4 39.2941 164.53 39.3707C164.661 39.4472 164.76 39.5653 164.812 39.7052L165.419 40.8436C165.562 41.1238 165.526 41.1939 165.205 41.1939H165.062C164.936 41.2005 164.811 41.173 164.701 41.1142C164.591 41.0555 164.499 40.9679 164.436 40.8611L163.722 39.6876ZM164.562 42.4199C164.562 42.0696 164.651 41.982 165.008 41.982H165.169C165.562 41.982 165.633 41.982 165.633 42.4199V48.4448C165.633 48.8126 165.633 48.8826 165.169 48.8826H165.008C164.651 48.8826 164.562 48.8826 164.562 48.4448V42.4199Z" fill="#089DD9"/>
<path d="M168.545 48.4447C168.545 48.8125 168.545 48.8825 168.08 48.8825H167.92C167.562 48.8825 167.455 48.8825 167.455 48.4447V44.4514C167.455 42.7 168.473 41.8418 170.474 41.8418C172.474 41.8418 173.475 42.77 173.475 44.4514V48.4447C173.475 48.8125 173.475 48.8825 173.01 48.8825H172.832C172.439 48.8825 172.367 48.8825 172.367 48.4447V44.4514C172.367 43.3305 171.921 42.8401 170.474 42.8401C169.027 42.8401 168.545 43.348 168.545 44.4514V48.4447Z" fill="#089DD9"/>
<path d="M175.402 39.5296C175.402 39.1443 175.51 39.0742 175.867 39.0742H176.028C176.403 39.0742 176.474 39.0742 176.474 39.5296V42.7872C176.74 42.4547 177.088 42.1937 177.484 42.0283C177.881 41.8629 178.314 41.7987 178.743 41.8415C180.529 41.8415 181.404 42.6471 181.404 44.2935V48.4444C181.404 48.8122 181.404 48.8822 180.94 48.8822H180.761C180.368 48.8822 180.296 48.8822 180.296 48.4444V44.4161C180.296 43.3127 179.796 42.8398 178.51 42.8398C177.224 42.8398 176.51 43.3652 176.51 44.5912V48.3743C176.51 48.7421 176.51 48.8122 176.063 48.8122H175.902C175.545 48.8122 175.438 48.8122 175.438 48.3743L175.402 39.5296Z" fill="#089DD9"/>
<path fill-rule="evenodd" clip-rule="evenodd" d="M190.067 23.9069L182.69 13.5384L181.94 12.8553H189.21L194.14 20.7018L194.551 20.3865L197.516 16.043C197.891 15.5663 198.059 14.9634 197.982 14.366C197.905 13.7686 197.589 13.2254 197.105 12.8553H203.982L196.033 23.9069V31.9284L197.444 33.5573H188.889L190.103 31.9459C190.103 29.2838 189.996 26.5866 190.103 23.9069H190.067ZM170.044 12.8553C170.506 13.3377 170.799 13.9508 170.884 14.6068C170.93 15.0222 170.875 15.4423 170.723 15.8328L165.239 31.4555C164.875 32.2385 164.338 32.9324 163.668 33.4872H169.669C169.304 33.1734 169.035 32.7671 168.89 32.313C168.745 31.8588 168.73 31.3743 168.848 30.9126L170.08 27.2171H177.046L178.136 30.0719C178.245 30.3587 178.312 30.6596 178.332 30.9651C178.405 31.4525 178.34 31.9502 178.145 32.404C177.95 32.8579 177.632 33.2507 177.225 33.5397H186.62C185.688 32.8098 184.921 31.8971 184.369 30.8601L177.511 12.8203L170.044 12.8553ZM176.028 24.5549H171.027L173.456 17.7944L176.028 24.5549ZM151.021 12.8729H161.471C162.988 12.8821 164.441 13.4773 165.515 14.5297C166.588 15.5821 167.195 17.0067 167.204 18.495V19.1955C167.176 20.6699 166.56 22.0749 165.489 23.1095C164.417 24.144 162.975 24.7257 161.471 24.73L158.845 24.8176C159.829 24.2955 160.622 23.4844 161.112 22.4981C161.602 21.5118 161.765 20.3998 161.578 19.3181C161.363 17.5667 160.453 15.9204 158.934 15.8153H157.988V31.2279C157.978 31.4727 158.054 31.7135 158.202 31.9109C158.482 32.3557 158.799 32.7774 159.149 33.172L159.417 33.4872H151.289L151.647 33.0493C151.899 32.72 152.109 32.3611 152.272 31.981C152.374 31.7608 152.429 31.5223 152.433 31.2804V14.7644C152.415 13.9062 151.539 13.4158 151.039 12.8729H151.021Z" fill="#0B5DA9"/>
<path fill-rule="evenodd" clip-rule="evenodd" d="M106.956 12.7673H113.529L119.031 28.25L123.692 15.4295C123.737 15.2459 123.744 15.0555 123.713 14.8691C123.683 14.6828 123.615 14.5042 123.514 14.3436C123.264 13.8182 122.978 13.3103 122.728 12.7848H127.622C127.336 13.8357 126.908 14.9916 126.533 16.0425L120.209 34.0822C118.298 33.775 116.514 32.943 115.065 31.6828C114.085 30.6498 113.375 29.4001 112.993 28.0398L107.635 14.3086C107.427 13.7788 107.183 13.2638 106.902 12.7673H106.956ZM133.159 20.0182V31.0873C133.159 31.5427 133.266 31.6127 133.552 31.9805L134.838 33.6269H128.658C129.015 33.119 129.355 32.5935 129.712 32.0681C129.964 31.7681 130.098 31.3886 130.087 30.9997V15.5346L128.301 12.7673H134.695L145.073 25.8505V15.3419C145.086 14.9474 144.953 14.5615 144.698 14.2561C144.341 13.7306 143.984 13.2227 143.644 12.6973H149.807L148.52 14.4487C148.235 14.799 148.127 14.8866 148.127 15.3419V34.1698C146.877 34.095 145.657 33.7632 144.546 33.1959C143.435 32.6287 142.459 31.8386 141.679 30.8771L133.159 20.0182Z" fill="#EB2429"/>
<path d="M78.9495 28.6182L74.234 16.1655C74.1089 15.8678 74.0018 15.57 73.8767 15.2898C73.749 14.9426 73.5999 14.6034 73.4302 14.274C73.1973 13.834 72.896 13.4322 72.5371 13.083V13.083H79.6818V13.2056V13.3983C79.8033 14.0954 79.9643 14.7854 80.1641 15.465L84.701 28.373L88.4698 17.0588L88.6663 16.5158L88.845 15.8503C88.845 15.7277 88.845 15.6226 88.845 15.5701C88.845 15.5175 88.845 15.4124 88.845 15.2898C88.8321 14.8388 88.6917 14.4002 88.4394 14.0228C88.187 13.6455 87.8327 13.3444 87.416 13.1531H93.239L85.9514 34.1702L83.4685 33.3471L82.3254 32.8742C82.0072 32.7451 81.7022 32.5868 81.4144 32.4013C80.8925 32.0501 80.4439 31.6042 80.0927 31.0877C79.6116 30.3127 79.2277 29.4835 78.9495 28.6182V28.6182Z" fill="#EB2429"/>
<path d="M92.7383 16.2704L100.455 11.9443L101.973 14.6766L94.5423 17.3563L92.7383 16.2704ZM94.7031 30.5095V21.7524C94.7373 21.2382 94.6518 20.7231 94.453 20.2461C94.2635 19.8493 93.9894 19.4969 93.6493 19.2128V19.0902H97.5074C98.013 19.1217 98.5201 19.1217 99.0256 19.0902C99.4046 19.051 99.7703 18.9315 100.097 18.7399H100.222V30.7197C100.196 31.2549 100.275 31.7901 100.455 32.296C100.619 32.7509 100.933 33.1391 101.348 33.3994V33.522H93.5957V33.3994C94.0092 33.0846 94.3298 32.6675 94.5245 32.1909C94.6698 31.6424 94.73 31.0756 94.7031 30.5095V30.5095Z" fill="#EB2429"/>
<path d="M38.1158 16.9535L33.0609 21.8925L32.8109 22.1377L31.2211 23.714L30.0244 24.87L28.4168 26.4462L28.1668 26.6914L27.4701 27.3745L27.2201 27.6197L24.8623 29.9316L24.6122 30.1768C23.9285 30.8675 23.1464 31.4574 22.2902 31.9282C21.8678 32.1515 21.4324 32.3503 20.9863 32.5237C20.0125 32.8862 18.9891 33.1046 17.9498 33.1718C17.3088 33.2417 16.6617 33.2417 16.0207 33.1718C14.635 33.0155 13.2972 32.5802 12.0911 31.8932C11.5389 31.6119 11.0281 31.2584 10.5729 30.8423V30.8423L10.2692 30.5621L1.08822 21.4196L0.891715 21.227C0.733328 21.0562 0.595518 20.8682 0.480928 20.6665C0.166107 20.1344 -0.000263047 19.5303 -0.00137644 18.9151V18.6173C-0.00995785 18.4773 -0.00995785 18.337 -0.00137644 18.197C0.00516499 18.1447 0.00516499 18.0917 -0.00137644 18.0394V18.0394C0.144479 17.6103 0.361786 17.2079 0.641678 16.8484L0.891715 16.5857L1.05252 16.428L10.8229 6.83021L16.7352 1.01546C17.3735 0.402767 18.2226 0.0467487 19.1153 0.0175711C20.008 -0.0116065 20.8794 0.28818 21.5579 0.857836L38.1158 16.9535Z" fill="#0B5DA9"/>
<path d="M20.2563 38.5494C19.4597 38.5462 18.6734 38.3729 17.9521 38.0415L16.0766 36.2025L15.6122 35.7471L15.5229 35.6596L14.6477 34.8189L10.2715 30.4753L10.5752 30.7555C11.0304 31.1716 11.5412 31.5251 12.0934 31.8064C13.2995 32.4934 14.6373 32.9287 16.023 33.085C16.664 33.1549 17.3111 33.1549 17.9521 33.085C18.9914 33.0178 20.0148 32.7994 20.9886 32.4369C21.4347 32.2635 21.8701 32.0647 22.2925 31.8414C23.1487 31.3706 23.9308 30.7807 24.6145 30.09L24.8646 29.8448L27.2224 27.5329L27.4724 27.2877L28.1691 26.6047L28.4191 26.3595L30.0267 24.7832L31.2234 23.6272L32.8132 22.0509L33.0632 21.8057L43.2266 11.8401L47.4241 7.39144L47.6563 7.16376C48.2718 6.56589 49.1031 6.23047 49.9694 6.23047C50.8358 6.23047 51.6671 6.56589 52.2826 7.16376L54.5867 9.42311C54.0717 9.39505 53.5565 9.47243 53.0737 9.65034C52.5908 9.82825 52.1511 10.1028 51.7824 10.4564L44.0125 17.9526V18.0402L30.509 31.0883L25.5434 35.8697L25.2397 36.185C24.5609 36.8305 23.7835 37.3682 22.9356 37.7788C22.4555 37.9962 21.9522 38.1607 21.4351 38.2692C21.1415 38.3346 20.8427 38.3756 20.542 38.3918L20.2563 38.5494Z" fill="#EB2429"/>
<path d="M67.0178 26.219L66.7677 26.4642L55.7291 37.4107L44.1725 48.9175C43.8153 49.2769 43.4268 49.6051 43.0115 49.8983L42.8329 50.021C40.8193 51.4316 38.3668 52.1089 35.8984 51.9363C33.43 51.7636 31.1004 50.7518 29.3114 49.0752V49.0752L29.0435 48.8475L27.0609 46.9034L21.4701 41.4214L19.6839 39.67L19.416 39.4073C19.725 39.4336 20.0358 39.4336 20.3448 39.4073H20.5948C20.9547 39.3924 21.3129 39.3514 21.6666 39.2847C22.2828 39.1605 22.8822 38.9665 23.4528 38.7067C24.393 38.2586 25.2551 37.6675 26.007 36.9553L26.3642 36.5875L30.6511 32.4541L45.4228 18.215V18.1099L52.5676 11.1041C53.0339 10.6533 53.6464 10.3768 54.2989 10.3224C54.9514 10.268 55.6027 10.4392 56.1399 10.8064L57.9261 12.5578L67.1428 21.5952L67.375 21.8404C67.8912 22.4793 68.1413 23.2862 68.0751 24.0986C68.0088 24.9111 67.631 25.6687 67.0178 26.219V26.219Z" fill="#EB2429"/>
<path d="M31.3819 14.2216C31.2552 14.3425 31.0854 14.4101 30.9086 14.4101C30.7318 14.4101 30.562 14.3425 30.4352 14.2216C28.3438 12.1522 25.4995 10.9822 22.5283 10.9691C19.5571 10.956 16.7023 12.1007 14.5918 14.1515C12.4814 16.2023 11.2882 18.9912 11.2748 21.9046C11.2614 24.818 12.4289 27.6173 14.5203 29.6867L17.932 33.067C17.3084 33.1282 16.6801 33.1282 16.0565 33.067L13.5558 30.5799C11.2133 28.2574 9.90755 25.1175 9.92597 21.851C9.9444 18.5845 11.2854 15.4589 13.6541 13.162C16.0227 10.865 19.2249 9.58466 22.5562 9.60273C25.8875 9.62079 29.0751 10.9357 31.4177 13.2583V13.2583C31.4843 13.3215 31.5366 13.3977 31.5713 13.482C31.6059 13.5663 31.6221 13.6569 31.6188 13.7477C31.6154 13.8386 31.5926 13.9277 31.5518 14.0094C31.511 14.091 31.4531 14.1633 31.3819 14.2216Z" fill="#089DD9"/>
<path d="M36.5807 18.4425L35.634 19.3708L33.9907 17.7244C33.9275 17.6641 33.8773 17.5919 33.843 17.5122C33.8087 17.4324 33.791 17.3468 33.791 17.2603C33.791 17.1738 33.8087 17.0882 33.843 17.0084C33.8773 16.9287 33.9275 16.8565 33.9907 16.7962C34.1195 16.6792 34.2885 16.6143 34.4641 16.6143C34.6396 16.6143 34.8086 16.6792 34.9374 16.7962L36.5807 18.4425Z" fill="#089DD9"/>
<path d="M22.3093 31.9288C21.9025 32.1533 21.4784 32.3466 21.0411 32.5068L16.397 27.918C14.996 26.5248 14.132 24.6976 13.9528 22.7488C13.7736 20.8001 14.2903 18.8508 15.4146 17.2343C15.4639 17.163 15.527 17.1019 15.6003 17.0545C15.6737 17.0071 15.7558 16.9744 15.842 16.9581C15.9283 16.9418 16.0169 16.9424 16.103 16.9597C16.189 16.9771 16.2707 17.0108 16.3435 17.0591C16.4162 17.1074 16.4785 17.1693 16.5268 17.2412C16.5751 17.3131 16.6085 17.3937 16.6251 17.4782C16.6417 17.5628 16.6412 17.6498 16.6235 17.7341C16.6058 17.8185 16.5713 17.8986 16.522 17.9699C15.5505 19.3275 15.1016 20.9791 15.2553 22.6307C15.4091 24.2824 16.1554 25.827 17.3615 26.9897L22.3093 31.9288Z" fill="#089DD9"/>
<path d="M33.7951 21.1751L33.0984 21.8582L32.8841 22.0683L27.6506 16.9191C26.713 15.9771 25.5236 15.3132 24.2189 15.0035C22.9142 14.6937 21.5469 14.7506 20.2737 15.1677C20.1094 15.2011 19.9384 15.1737 19.7935 15.0908C19.6487 15.0078 19.5403 14.8752 19.4892 14.7185C19.4382 14.5619 19.4481 14.3922 19.5171 14.2423C19.5861 14.0924 19.7093 13.9728 19.8629 13.9067C21.3755 13.4258 22.9946 13.3661 24.5398 13.7341C26.0851 14.102 27.4959 14.8833 28.6152 15.9909L33.7951 21.1751Z" fill="#089DD9"/>
<path d="M30.9903 23.9245L30.0436 24.8527L24.8101 19.5984C24.1885 19.032 23.3675 18.7233 22.519 18.7369C21.6705 18.7506 20.8603 19.0855 20.2579 19.6717C19.6555 20.2578 19.3077 21.0496 19.2873 21.8815C19.2669 22.7134 19.5753 23.5208 20.1482 24.1346L23.5241 27.4799C23.5851 27.542 23.633 27.6152 23.6651 27.6955C23.6972 27.7758 23.7129 27.8614 23.7112 27.9476C23.7096 28.0338 23.6906 28.1189 23.6554 28.1979C23.6202 28.2769 23.5695 28.3483 23.5062 28.4081C23.4429 28.4679 23.3682 28.5149 23.2863 28.5464C23.2045 28.5779 23.1171 28.5933 23.0292 28.5916C22.9413 28.59 22.8546 28.5714 22.774 28.5369C22.6934 28.5024 22.6205 28.4527 22.5595 28.3906L19.2015 25.0629C18.3921 24.2 17.955 23.0633 17.9816 21.8912C18.0083 20.7191 18.4967 19.6027 19.3444 18.7759C20.1922 17.9492 21.3334 17.4764 22.5289 17.4567C23.7244 17.437 24.8812 17.8719 25.7568 18.6702L30.9903 23.9245Z" fill="#089DD9"/>
<path d="M28.1862 26.6742L27.4896 27.3573L27.2574 27.585L22.0239 22.3307C21.9607 22.2703 21.9105 22.1981 21.8762 22.1184C21.8419 22.0387 21.8242 21.9531 21.8242 21.8665C21.8242 21.78 21.8419 21.6944 21.8762 21.6147C21.9105 21.5349 21.9607 21.4628 22.0239 21.4024C22.1506 21.2815 22.3204 21.2139 22.4972 21.2139C22.674 21.2139 22.8438 21.2815 22.9706 21.4024L28.1862 26.6742Z" fill="#089DD9"/>
</g>
<defs>
<clipPath id="clip0_4_3484">
<rect width="204" height="52" fill="white"/>
</clipPath>
</defs>
</svg>
