<svg id="wooribank" xmlns="http://www.w3.org/2000/svg" xmlns:xlink="http://www.w3.org/1999/xlink" width="104" height="52" viewBox="0 0 104 52">
  <defs>
    <clipPath id="clip-path">
      <path id="Path_17084" data-name="Path 17084" d="M.748,9.126A8.533,8.533,0,1,0,9.281.592,8.53,8.53,0,0,0,.748,9.126" transform="translate(-0.748 -0.592)" fill="none"/>
    </clipPath>
  </defs>
  <g id="boundingbox" fill="rgba(255,0,0,0.1)" stroke="red" stroke-width="1" stroke-dasharray="4 4" opacity="0">
    <rect width="104" height="52" stroke="none"/>
    <rect x="0.5" y="0.5" width="103" height="51" fill="none"/>
  </g>
  <g id="Group_10422" data-name="Group 10422" transform="translate(0 17.027)">
    <g id="Group_10427" data-name="Group 10427" transform="translate(20.765 3.576)">
      <path id="Path_17086" data-name="Path 17086" d="M152.646,5.858h-3.081l-3.807,3.7.725-3.7h-2.69L141.81,15.976H144.5l.822-4.2,2.376,4.2h3.27l-3.228-5.421Z" transform="translate(-69.481 -5.586)" fill="#0067ab"/>
      <path id="Path_17087" data-name="Path 17087" d="M108.4,8.4c.323-1.685-.65-2.687-2.606-2.682l-4.684.012L99.141,16.019l4.684-.012c2.373-.007,3.774-1.05,4.166-3.094a2.236,2.236,0,0,0-.8-2.487A3.21,3.21,0,0,0,108.4,8.4m-2.888,4.39c-.125.66-.441,1.066-1.6,1.132v.005h-.059c-.089,0-.179.007-.278.007h-.112v-.009H102.1l.447-2.341h1.481c1.719-.007,1.566.778,1.483,1.2m.351-4.113c-.127.644-.344.857-1.068.9h-1.876l.344-1.784h1.512c1.153,0,1.215.224,1.089.879" transform="translate(-54.844 -5.538)" fill="#0067ab"/>
      <path id="Path_17088" data-name="Path 17088" d="M42.128,5.572l-2.22,6L39.2,5.582l-2.026.007-2.944,6L34.241,5.6l-2.523.009,0,10.461,2.462-.009,3.138-5.9.911,5.887,2.463-.007L44.649,5.562Z" transform="translate(-31.713 -5.484)" fill="#0067ab"/>
      <path id="Path_17089" data-name="Path 17089" d="M54.937,5.444c-1.943,0-4.435.94-5.279,5.346s1.294,5.323,3.236,5.317,4.435-.941,5.28-5.347-1.293-5.323-3.237-5.315M53.311,13.93c-.368,0-1.485.007-.88-3.15s1.723-3.161,2.09-3.162,1.485-.005.88,3.151-1.723,3.161-2.09,3.161" transform="translate(-37.804 -5.444)" fill="#0067ab"/>
      <path id="Path_17090" data-name="Path 17090" d="M68.964,5.444c-1.944.006-4.435.941-5.282,5.346s1.3,5.323,3.236,5.317,4.436-.941,5.281-5.347-1.294-5.323-3.235-5.315m-1.629,8.487c-.368,0-1.485.006-.88-3.151s1.723-3.161,2.091-3.162,1.484-.005.88,3.151-1.722,3.161-2.09,3.162" transform="translate(-42.615 -5.444)" fill="#0067ab"/>
      <path id="Path_17091" data-name="Path 17091" d="M82.968,11.934a4.3,4.3,0,0,0,2.1-3.885c0-2.649-3.153-2.387-3.153-2.387H78.639L76.457,16H78.9l.715-3.533h.954a.846.846,0,0,1,.751.808c.095.93.235,2.769.235,2.769H84s-.219-2.523-.281-2.9a1.467,1.467,0,0,0-.755-1.2M80.673,7.576c.667,0,2.26-.532,1.985,1.355S80.1,10.575,80.1,10.575Z" transform="translate(-47.062 -5.516)" fill="#0067ab"/>
      <path id="Path_17092" data-name="Path 17092" d="M89.555,16.076l2.709-.009L94.22,5.852l-2.705.009Z" transform="translate(-51.555 -5.584)" fill="#0067ab"/>
      <path id="Path_17093" data-name="Path 17093" d="M117.464,5.788,111.649,16h2.744l1.077-1.947,3.156.023L118.85,16h2.545l-1.55-10.21Zm-.9,6.323L118.1,9.1l.369,3.012Z" transform="translate(-59.135 -5.562)" fill="#0067ab"/>
      <path id="Path_17094" data-name="Path 17094" d="M135.182,5.781l-1.058,5.84L132,5.781h-2.575L127.455,16l2.391-.062,1.168-6.185L133.145,16h2.414l1.972-10.22Z" transform="translate(-64.557 -5.559)" fill="#0067ab"/>
    </g>
    <g id="Group_10429" data-name="Group 10429" transform="translate(0)">
      <path id="Path_17019" data-name="Path 17019" d="M18.013,8.952A8.954,8.954,0,1,1,9.061,0a8.961,8.961,0,0,1,8.952,8.952" transform="translate(-0.105)" fill="#fff"/>
      <path id="Path_17020" data-name="Path 17020" d="M9.28,17.663A8.535,8.535,0,1,0,.747,9.126,8.536,8.536,0,0,0,9.28,17.663" transform="translate(-0.325 -0.203)" fill="#0083ca"/>
      <g id="Group_10424" data-name="Group 10424" transform="translate(0.422 0.389)" clip-path="url(#clip-path)">
        <path id="Path_17021" data-name="Path 17021" d="M9.059,14.367c3.75,0,6.965,1.042,8.343,2.528a8.66,8.66,0,0,0,.713-3.458A8.964,8.964,0,0,0,9.059,4.574,8.967,8.967,0,0,0,0,13.438,8.652,8.652,0,0,0,.719,16.9c1.374-1.486,4.59-2.528,8.34-2.528" transform="translate(-0.491 -1.958)" fill="#0083ca"/>
        <path id="Path_17022" data-name="Path 17022" d="M9.07,14.416c3.741,0,6.948,1.033,8.322,2.507a8.556,8.556,0,0,0,.712-3.429A8.928,8.928,0,0,0,9.07,4.69a8.93,8.93,0,0,0-9.036,8.8,8.523,8.523,0,0,0,.717,3.429c1.37-1.474,4.578-2.507,8.318-2.507" transform="translate(-0.503 -1.998)" fill="#0085cc"/>
        <path id="Path_17023" data-name="Path 17023" d="M9.08,14.466c3.731,0,6.93,1.025,8.3,2.487a8.444,8.444,0,0,0,.71-3.4A8.89,8.89,0,0,0,9.08,4.806,8.893,8.893,0,0,0,.068,13.551a8.424,8.424,0,0,0,.715,3.4c1.367-1.462,4.566-2.487,8.3-2.487" transform="translate(-0.515 -2.038)" fill="#0087cd"/>
        <path id="Path_17024" data-name="Path 17024" d="M9.09,14.514c3.722,0,6.912,1.016,8.28,2.466a8.344,8.344,0,0,0,.708-3.374A8.856,8.856,0,0,0,9.09,4.92,8.858,8.858,0,0,0,.1,13.606,8.315,8.315,0,0,0,.814,16.98c1.364-1.45,4.555-2.466,8.276-2.466" transform="translate(-0.526 -2.077)" fill="#0088ce"/>
        <path id="Path_17025" data-name="Path 17025" d="M9.1,14.563c3.712,0,6.894,1.008,8.257,2.446a8.224,8.224,0,0,0,.707-3.346A8.819,8.819,0,0,0,9.1,5.036,8.822,8.822,0,0,0,.136,13.663a8.2,8.2,0,0,0,.71,3.346C2.207,15.571,5.39,14.563,9.1,14.563" transform="translate(-0.538 -2.116)" fill="#008acf"/>
        <path id="Path_17026" data-name="Path 17026" d="M9.111,14.612c3.7,0,6.876,1,8.236,2.425a8.1,8.1,0,0,0,.706-3.318A8.784,8.784,0,0,0,9.111,5.151,8.787,8.787,0,0,0,.169,13.72a8.086,8.086,0,0,0,.709,3.318c1.357-1.426,4.532-2.425,8.234-2.425" transform="translate(-0.549 -2.156)" fill="#008cd0"/>
        <path id="Path_17027" data-name="Path 17027" d="M9.121,14.662c3.693,0,6.859.991,8.214,2.4a7.987,7.987,0,0,0,.7-3.29A8.749,8.749,0,0,0,9.121,5.268,8.75,8.75,0,0,0,.2,13.777,7.977,7.977,0,0,0,.91,17.066c1.353-1.413,4.52-2.4,8.212-2.4" transform="translate(-0.561 -2.196)" fill="#008ed2"/>
        <path id="Path_17028" data-name="Path 17028" d="M9.132,14.71c3.682,0,6.841.983,8.192,2.385a7.885,7.885,0,0,0,.7-3.262,8.714,8.714,0,0,0-8.9-8.45,8.715,8.715,0,0,0-8.9,8.451,7.862,7.862,0,0,0,.7,3.262c1.349-1.4,4.509-2.385,8.191-2.385" transform="translate(-0.572 -2.235)" fill="#0090d3"/>
        <path id="Path_17029" data-name="Path 17029" d="M9.143,14.759c3.672,0,6.822.975,8.17,2.364a7.783,7.783,0,0,0,.7-3.235A8.679,8.679,0,0,0,9.143,5.5,8.681,8.681,0,0,0,.27,13.889a7.764,7.764,0,0,0,.7,3.235c1.347-1.389,4.5-2.364,8.17-2.364" transform="translate(-0.584 -2.275)" fill="#0091d4"/>
        <path id="Path_17030" data-name="Path 17030" d="M9.153,14.808c3.663,0,6.8.967,8.15,2.344a7.686,7.686,0,0,0,.7-3.207A8.644,8.644,0,0,0,9.153,5.612,8.646,8.646,0,0,0,.3,13.945,7.665,7.665,0,0,0,1,17.152c1.343-1.377,4.486-2.344,8.149-2.344" transform="translate(-0.596 -2.314)" fill="#0093d5"/>
        <path id="Path_17031" data-name="Path 17031" d="M9.163,14.857c3.653,0,6.787.958,8.128,2.324a7.574,7.574,0,0,0,.7-3.179c0-4.5-3.953-8.274-8.826-8.274S.337,9.5.337,14a7.556,7.556,0,0,0,.7,3.179c1.34-1.366,4.474-2.324,8.127-2.324" transform="translate(-0.607 -2.354)" fill="#0095d7"/>
        <path id="Path_17032" data-name="Path 17032" d="M9.173,14.906c3.644,0,6.769.95,8.106,2.3a7.464,7.464,0,0,0,.7-3.152c0-4.462-3.942-8.215-8.8-8.215S.37,9.6.37,14.058a7.444,7.444,0,0,0,.7,3.151c1.336-1.354,4.462-2.3,8.106-2.3" transform="translate(-0.618 -2.393)" fill="#0097d8"/>
        <path id="Path_17033" data-name="Path 17033" d="M9.184,14.955c3.634,0,6.752.941,8.085,2.282a7.353,7.353,0,0,0,.694-3.123c0-4.423-3.933-8.155-8.78-8.155S.405,9.693.405,14.115A7.332,7.332,0,0,0,1.1,17.238c1.334-1.341,4.452-2.282,8.084-2.282" transform="translate(-0.63 -2.433)" fill="#0099d9"/>
        <path id="Path_17034" data-name="Path 17034" d="M9.195,15c3.624,0,6.734.933,8.063,2.263a7.246,7.246,0,0,0,.694-3.1c0-4.383-3.922-8.1-8.757-8.1S.439,9.788.439,14.171a7.236,7.236,0,0,0,.692,3.1C2.461,15.937,5.57,15,9.195,15" transform="translate(-0.642 -2.473)" fill="#009bda"/>
        <path id="Path_17035" data-name="Path 17035" d="M9.2,15.053c3.615,0,6.716.924,8.041,2.242a7.14,7.14,0,0,0,.692-3.067c0-4.344-3.911-8.038-8.734-8.038S.472,9.884.472,14.227a7.128,7.128,0,0,0,.69,3.067C2.489,15.978,5.59,15.053,9.2,15.053" transform="translate(-0.653 -2.512)" fill="#009ddc"/>
        <path id="Path_17036" data-name="Path 17036" d="M9.215,15.1c3.6,0,6.7.916,8.02,2.221a7.049,7.049,0,0,0,.69-3.039c0-4.306-3.9-7.979-8.711-7.979S.505,9.979.505,14.284a7.027,7.027,0,0,0,.688,3.038C2.517,16.017,5.61,15.1,9.215,15.1" transform="translate(-0.665 -2.551)" fill="#009fdd"/>
        <path id="Path_17037" data-name="Path 17037" d="M9.225,15.151c3.6,0,6.68.908,8,2.2a6.936,6.936,0,0,0,.688-3.011c0-4.265-3.89-7.92-8.687-7.92S.539,10.076.539,14.34a6.916,6.916,0,0,0,.687,3.011c1.32-1.292,4.4-2.2,8-2.2" transform="translate(-0.676 -2.591)" fill="#00a1de"/>
        <path id="Path_17038" data-name="Path 17038" d="M9.236,15.2c3.586,0,6.662.9,7.977,2.18A6.834,6.834,0,0,0,17.9,14.4c0-4.227-3.88-7.861-8.663-7.861S.573,10.172.573,14.4a6.815,6.815,0,0,0,.685,2.983C2.573,16.1,5.651,15.2,9.236,15.2" transform="translate(-0.688 -2.631)" fill="#00a3e0"/>
        <path id="Path_17039" data-name="Path 17039" d="M9.246,15.249c3.576,0,6.644.891,7.955,2.16a6.731,6.731,0,0,0,.685-2.956c0-4.188-3.87-7.8-8.64-7.8s-8.64,3.616-8.64,7.8a6.71,6.71,0,0,0,.683,2.956c1.313-1.269,4.381-2.16,7.957-2.16" transform="translate(-0.699 -2.671)" fill="#00a5e1"/>
        <path id="Path_17040" data-name="Path 17040" d="M9.257,15.3c3.566,0,6.626.883,7.933,2.14a6.62,6.62,0,0,0,.684-2.927c0-4.148-3.86-7.744-8.617-7.744S.64,10.363.64,14.511a6.609,6.609,0,0,0,.681,2.927c1.31-1.257,4.37-2.14,7.936-2.14" transform="translate(-0.711 -2.71)" fill="#00a7e2"/>
        <path id="Path_17041" data-name="Path 17041" d="M9.268,15.346c3.557,0,6.609.875,7.912,2.119a6.527,6.527,0,0,0,.682-2.9c0-4.109-3.849-7.685-8.594-7.685S.674,10.457.674,14.566a6.5,6.5,0,0,0,.679,2.9c1.305-1.244,4.358-2.119,7.914-2.119" transform="translate(-0.723 -2.749)" fill="#00a9e3"/>
        <path id="Path_17042" data-name="Path 17042" d="M9.278,15.4c3.547,0,6.591.867,7.89,2.1a6.417,6.417,0,0,0,.681-2.872C17.849,10.553,14.01,7,9.278,7S.708,10.554.708,14.622a6.4,6.4,0,0,0,.677,2.872c1.3-1.232,4.347-2.1,7.893-2.1" transform="translate(-0.734 -2.789)" fill="#00abe5"/>
        <path id="Path_17043" data-name="Path 17043" d="M9.288,15.445c3.537,0,6.573.858,7.868,2.078a6.315,6.315,0,0,0,.679-2.843c0-4.03-3.828-7.567-8.548-7.567S.741,10.65.741,14.68a6.3,6.3,0,0,0,.675,2.843c1.3-1.22,4.335-2.078,7.872-2.078" transform="translate(-0.746 -2.829)" fill="#00ade6"/>
        <path id="Path_17044" data-name="Path 17044" d="M9.3,15.493c3.527,0,6.554.849,7.847,2.058a6.235,6.235,0,0,0,.678-2.816c0-3.991-3.819-7.508-8.525-7.508S.774,10.744.774,14.735a6.211,6.211,0,0,0,.673,2.816c1.3-1.209,4.323-2.058,7.851-2.058" transform="translate(-0.757 -2.868)" fill="#00afe7"/>
        <path id="Path_17045" data-name="Path 17045" d="M9.309,15.543c3.517,0,6.537.841,7.826,2.037a6.134,6.134,0,0,0,.675-2.789c0-3.952-3.808-7.449-8.5-7.449s-8.5,3.5-8.5,7.449A6.1,6.1,0,0,0,1.48,17.58c1.292-1.2,4.312-2.037,7.83-2.037" transform="translate(-0.769 -2.908)" fill="#00b2e9"/>
        <path id="Path_17046" data-name="Path 17046" d="M9.319,15.591c3.508,0,6.519.833,7.8,2.017a6.026,6.026,0,0,0,.675-2.76c0-3.913-3.8-7.391-8.479-7.391S.842,10.936.842,14.848a6.005,6.005,0,0,0,.669,2.76c1.29-1.184,4.3-2.017,7.809-2.017" transform="translate(-0.78 -2.947)" fill="#00b4ea"/>
        <path id="Path_17047" data-name="Path 17047" d="M9.33,15.64c3.5,0,6.5.824,7.782,2a5.937,5.937,0,0,0,.673-2.733c0-3.873-3.787-7.332-8.455-7.332S.876,11.032.876,14.9a5.913,5.913,0,0,0,.666,2.733c1.286-1.173,4.289-2,7.788-2" transform="translate(-0.792 -2.987)" fill="#00b6ec"/>
        <path id="Path_17048" data-name="Path 17048" d="M9.34,15.689c3.488,0,6.483.815,7.761,1.977a5.836,5.836,0,0,0,.671-2.705c0-3.834-3.776-7.272-8.432-7.272S.909,11.127.909,14.961a5.811,5.811,0,0,0,.665,2.705C2.856,16.5,5.851,15.689,9.34,15.689" transform="translate(-0.803 -3.027)" fill="#00b9ed"/>
        <path id="Path_17049" data-name="Path 17049" d="M9.351,15.739c3.479,0,6.465.808,7.739,1.956a5.739,5.739,0,0,0,.67-2.676c0-3.8-3.767-7.214-8.409-7.214S.943,11.223.943,15.018a5.713,5.713,0,0,0,.663,2.676c1.279-1.148,4.266-1.956,7.745-1.956" transform="translate(-0.815 -3.066)" fill="#07bbee"/>
        <path id="Path_17050" data-name="Path 17050" d="M9.361,15.787c3.469,0,6.448.8,7.717,1.935a5.64,5.64,0,0,0,.669-2.649c0-3.756-3.756-7.155-8.386-7.155S.977,11.318.977,15.074a5.623,5.623,0,0,0,.661,2.649c1.275-1.137,4.254-1.935,7.723-1.935" transform="translate(-0.827 -3.106)" fill="#0fbdef"/>
        <path id="Path_17051" data-name="Path 17051" d="M9.371,15.837c3.46,0,6.43.791,7.7,1.915a5.537,5.537,0,0,0,.667-2.621c0-3.716-3.745-7.1-8.363-7.1s-8.36,3.379-8.36,7.1a5.521,5.521,0,0,0,.658,2.621c1.272-1.124,4.243-1.915,7.7-1.915" transform="translate(-0.838 -3.146)" fill="#19c0f1"/>
        <path id="Path_17052" data-name="Path 17052" d="M9.381,15.886c3.45,0,6.412.782,7.674,1.894a5.444,5.444,0,0,0,.665-2.593c0-3.677-3.735-7.037-8.339-7.037s-8.337,3.36-8.337,7.037A5.427,5.427,0,0,0,1.7,17.78c1.269-1.112,4.231-1.894,7.68-1.894" transform="translate(-0.85 -3.185)" fill="#1ec4f4"/>
        <path id="Path_17053" data-name="Path 17053" d="M9.387,15.944c3.446,0,6.4.778,7.665,1.883a5.4,5.4,0,0,0,.664-2.577c0-3.653-3.73-6.993-8.328-6.993S1.061,11.6,1.061,15.25a5.366,5.366,0,0,0,.656,2.577c1.267-1.1,4.225-1.883,7.67-1.883" transform="translate(-0.855 -3.221)" fill="#33c6f4"/>
        <path id="Path_17054" data-name="Path 17054" d="M9.394,16c3.44,0,6.395.773,7.654,1.87a5.353,5.353,0,0,0,.663-2.56c0-3.629-3.725-6.951-8.317-6.951s-8.315,3.322-8.315,6.951a5.322,5.322,0,0,0,.655,2.56C3,16.774,5.954,16,9.394,16" transform="translate(-0.862 -3.257)" fill="#3fc7f4"/>
        <path id="Path_17055" data-name="Path 17055" d="M9.4,16.06c3.437,0,6.386.767,7.644,1.858a5.284,5.284,0,0,0,.662-2.542c0-3.606-3.72-6.907-8.305-6.907s-8.3,3.3-8.3,6.907a5.262,5.262,0,0,0,.654,2.542C3.013,16.827,5.963,16.06,9.4,16.06" transform="translate(-0.867 -3.294)" fill="#4ac8f5"/>
        <path id="Path_17056" data-name="Path 17056" d="M9.406,16.117c3.431,0,6.377.762,7.634,1.846a5.236,5.236,0,0,0,.66-2.526c0-3.581-3.714-6.865-8.294-6.865s-8.293,3.283-8.293,6.865a5.208,5.208,0,0,0,.654,2.526c1.261-1.084,4.208-1.846,7.639-1.846" transform="translate(-0.873 -3.33)" fill="#54caf5"/>
        <path id="Path_17057" data-name="Path 17057" d="M9.412,16.176c3.427,0,6.369.757,7.624,1.834a5.181,5.181,0,0,0,.659-2.51c0-3.557-3.709-6.819-8.283-6.819S1.131,11.943,1.131,15.5a5.153,5.153,0,0,0,.652,2.51c1.259-1.076,4.2-1.834,7.629-1.834" transform="translate(-0.879 -3.367)" fill="#5dccf5"/>
        <path id="Path_17058" data-name="Path 17058" d="M9.417,16.234c3.423,0,6.36.752,7.613,1.822a5.131,5.131,0,0,0,.658-2.494c0-3.533-3.7-6.777-8.272-6.777s-8.27,3.245-8.27,6.777A5.1,5.1,0,0,0,1.8,18.056c1.258-1.07,4.2-1.822,7.619-1.822" transform="translate(-0.885 -3.403)" fill="#64cdf6"/>
        <path id="Path_17059" data-name="Path 17059" d="M9.423,16.292c3.417,0,6.351.747,7.6,1.81a5.089,5.089,0,0,0,.656-2.475c0-3.511-3.7-6.734-8.26-6.734s-8.259,3.224-8.259,6.734A5.041,5.041,0,0,0,1.815,18.1c1.256-1.063,4.191-1.81,7.608-1.81" transform="translate(-0.891 -3.439)" fill="#6dcff6"/>
        <path id="Path_17060" data-name="Path 17060" d="M9.429,16.349c3.413,0,6.343.742,7.593,1.8a5.024,5.024,0,0,0,.656-2.459C17.678,12.2,13.984,9,9.429,9S1.182,12.2,1.182,15.688a4.985,4.985,0,0,0,.65,2.459c1.254-1.056,4.185-1.8,7.6-1.8" transform="translate(-0.897 -3.475)" fill="#73d1f6"/>
        <path id="Path_17061" data-name="Path 17061" d="M9.435,16.408c3.408,0,6.334.737,7.583,1.786a4.971,4.971,0,0,0,.654-2.443c0-3.462-3.689-6.648-8.238-6.648S1.2,12.289,1.2,15.751a4.923,4.923,0,0,0,.65,2.443c1.252-1.049,4.179-1.786,7.586-1.786" transform="translate(-0.902 -3.512)" fill="#7ad2f7"/>
        <path id="Path_17062" data-name="Path 17062" d="M9.441,16.465c3.4,0,6.325.733,7.573,1.774a4.926,4.926,0,0,0,.652-2.426c0-3.438-3.684-6.605-8.226-6.605s-8.225,3.168-8.225,6.605a4.883,4.883,0,0,0,.648,2.426c1.25-1.041,4.174-1.774,7.577-1.774" transform="translate(-0.909 -3.548)" fill="#81d4f7"/>
        <path id="Path_17063" data-name="Path 17063" d="M9.447,16.523c3.4,0,6.317.727,7.563,1.761a4.873,4.873,0,0,0,.652-2.409c0-3.416-3.68-6.562-8.215-6.562s-8.214,3.149-8.214,6.562a4.829,4.829,0,0,0,.648,2.409c1.249-1.035,4.168-1.761,7.566-1.761" transform="translate(-0.914 -3.584)" fill="#88d6f8"/>
        <path id="Path_17064" data-name="Path 17064" d="M9.452,16.581c3.394,0,6.308.722,7.553,1.749a4.828,4.828,0,0,0,.65-2.393c0-3.391-3.674-6.518-8.2-6.518s-8.2,3.129-8.2,6.518A4.779,4.779,0,0,0,1.9,18.331c1.248-1.027,4.162-1.749,7.556-1.749" transform="translate(-0.92 -3.62)" fill="#8fd8f8"/>
        <path id="Path_17065" data-name="Path 17065" d="M9.458,16.64c3.39,0,6.3.717,7.544,1.738A4.787,4.787,0,0,0,17.65,16c0-3.367-3.668-6.475-8.192-6.475S1.266,12.636,1.266,16a4.724,4.724,0,0,0,.646,2.376c1.246-1.02,4.157-1.738,7.546-1.738" transform="translate(-0.926 -3.657)" fill="#95daf8"/>
        <path id="Path_17066" data-name="Path 17066" d="M9.465,16.7c3.385,0,6.29.712,7.533,1.726a4.723,4.723,0,0,0,.648-2.359c0-3.343-3.664-6.432-8.18-6.432s-8.181,3.09-8.181,6.432a4.671,4.671,0,0,0,.646,2.359C3.173,17.41,6.08,16.7,9.465,16.7" transform="translate(-0.932 -3.693)" fill="#9adcf9"/>
        <path id="Path_17067" data-name="Path 17067" d="M9.47,16.754c3.381,0,6.282.707,7.523,1.713a4.67,4.67,0,0,0,.646-2.342c0-3.32-3.659-6.39-8.169-6.39S1.3,12.807,1.3,16.126a4.613,4.613,0,0,0,.644,2.342c1.242-1.006,4.145-1.713,7.525-1.713" transform="translate(-0.938 -3.729)" fill="#a1def9"/>
        <path id="Path_17068" data-name="Path 17068" d="M9.477,16.813c3.376,0,6.273.7,7.512,1.7a4.621,4.621,0,0,0,.646-2.326c0-3.295-3.653-6.346-8.158-6.346S1.318,12.9,1.318,16.189a4.562,4.562,0,0,0,.644,2.326c1.24-1,4.139-1.7,7.514-1.7" transform="translate(-0.944 -3.766)" fill="#a7dff9"/>
        <path id="Path_17069" data-name="Path 17069" d="M9.483,16.871c3.371,0,6.264.7,7.5,1.689a4.576,4.576,0,0,0,.644-2.309c0-3.272-3.648-6.3-8.146-6.3s-8.147,3.032-8.147,6.3a4.52,4.52,0,0,0,.643,2.309c1.238-.993,4.134-1.689,7.5-1.689" transform="translate(-0.95 -3.802)" fill="#ade1fa"/>
        <path id="Path_17070" data-name="Path 17070" d="M9.489,16.929c3.367,0,6.256.692,7.493,1.677a4.531,4.531,0,0,0,.643-2.293c0-3.247-3.643-6.259-8.136-6.259s-8.136,3.013-8.136,6.259a4.464,4.464,0,0,0,.642,2.293c1.236-.985,4.128-1.677,7.494-1.677" transform="translate(-0.956 -3.838)" fill="#b2e3fa"/>
        <path id="Path_17071" data-name="Path 17071" d="M9.495,16.987c3.362,0,6.247.687,7.482,1.665a4.471,4.471,0,0,0,.642-2.276c0-3.224-3.638-6.216-8.124-6.216S1.37,13.154,1.37,16.376a4.411,4.411,0,0,0,.641,2.276c1.234-.978,4.122-1.665,7.483-1.665" transform="translate(-0.961 -3.874)" fill="#b9e5fb"/>
        <path id="Path_17072" data-name="Path 17072" d="M9.5,17.045c3.358,0,6.238.681,7.473,1.653a4.43,4.43,0,0,0,.64-2.259c0-3.2-3.633-6.174-8.113-6.174s-8.113,2.976-8.113,6.174A4.355,4.355,0,0,0,2.028,18.7c1.232-.972,4.115-1.653,7.472-1.653" transform="translate(-0.967 -3.91)" fill="#bee7fb"/>
        <path id="Path_17073" data-name="Path 17073" d="M9.506,17.1c3.354,0,6.23.676,7.462,1.64a4.378,4.378,0,0,0,.639-2.242c0-3.176-3.628-6.129-8.1-6.129S1.4,13.328,1.4,16.5a4.3,4.3,0,0,0,.641,2.242c1.23-.964,4.109-1.64,7.462-1.64" transform="translate(-0.973 -3.947)" fill="#c3e9fb"/>
        <path id="Path_17074" data-name="Path 17074" d="M9.512,17.161c3.349,0,6.221.671,7.452,1.629a4.324,4.324,0,0,0,.638-2.226c0-3.151-3.623-6.087-8.09-6.087s-8.091,2.937-8.091,6.087a4.256,4.256,0,0,0,.639,2.226c1.229-.957,4.1-1.629,7.452-1.629" transform="translate(-0.979 -3.983)" fill="#caebfc"/>
        <path id="Path_17075" data-name="Path 17075" d="M9.518,17.219c3.344,0,6.212.666,7.442,1.617a4.284,4.284,0,0,0,.637-2.209c0-3.128-3.618-6.043-8.079-6.043s-8.08,2.917-8.08,6.043a4.212,4.212,0,0,0,.639,2.209c1.227-.951,4.1-1.617,7.441-1.617" transform="translate(-0.985 -4.02)" fill="#cfedfc"/>
        <path id="Path_17076" data-name="Path 17076" d="M9.524,17.277c3.339,0,6.2.661,7.431,1.6a4.229,4.229,0,0,0,.636-2.192c0-3.1-3.613-6-8.067-6s-8.069,2.9-8.069,6a4.158,4.158,0,0,0,.637,2.192c1.226-.943,4.093-1.6,7.431-1.6" transform="translate(-0.991 -4.055)" fill="#d5effc"/>
        <path id="Path_17077" data-name="Path 17077" d="M9.53,17.335c3.335,0,6.2.656,7.422,1.593a4.184,4.184,0,0,0,.635-2.176c0-3.08-3.608-5.957-8.056-5.957s-8.058,2.879-8.058,5.957a4.107,4.107,0,0,0,.637,2.176c1.223-.937,4.087-1.593,7.42-1.593" transform="translate(-0.996 -4.092)" fill="#dbf1fd"/>
        <path id="Path_17078" data-name="Path 17078" d="M9.535,17.392c3.33,0,6.186.651,7.412,1.581a4.134,4.134,0,0,0,.633-2.159c0-3.057-3.6-5.915-8.044-5.915S1.489,13.76,1.489,16.814a4.054,4.054,0,0,0,.637,2.159c1.221-.93,4.081-1.581,7.41-1.581" transform="translate(-1.002 -4.128)" fill="#e0f3fd"/>
        <path id="Path_17079" data-name="Path 17079" d="M9.541,17.45c3.325,0,6.177.646,7.4,1.569a4.088,4.088,0,0,0,.632-2.142c0-3.032-3.6-5.871-8.033-5.871s-8.035,2.84-8.035,5.871a4.007,4.007,0,0,0,.636,2.142c1.219-.923,4.075-1.569,7.4-1.569" transform="translate(-1.008 -4.164)" fill="#e6f6fd"/>
        <path id="Path_17080" data-name="Path 17080" d="M9.547,17.509c3.321,0,6.169.641,7.391,1.556a4.04,4.04,0,0,0,.63-2.126c0-3.009-3.592-5.827-8.021-5.827s-8.023,2.821-8.023,5.827a3.958,3.958,0,0,0,.634,2.126c1.218-.915,4.07-1.556,7.389-1.556" transform="translate(-1.014 -4.201)" fill="#ebf7fe"/>
        <path id="Path_17081" data-name="Path 17081" d="M9.554,17.566c3.316,0,6.16.637,7.381,1.544A3.989,3.989,0,0,0,17.564,17c0-2.985-3.588-5.784-8.01-5.784S1.541,14.02,1.541,17a3.908,3.908,0,0,0,.633,2.109c1.217-.907,4.065-1.544,7.38-1.544" transform="translate(-1.02 -4.237)" fill="#f0f9fe"/>
        <path id="Path_17082" data-name="Path 17082" d="M9.56,17.624c3.312,0,6.151.631,7.371,1.532a3.943,3.943,0,0,0,.628-2.092c0-2.961-3.582-5.742-8-5.742s-8,2.784-8,5.742a3.863,3.863,0,0,0,.633,2.092c1.215-.9,4.059-1.532,7.369-1.532" transform="translate(-1.026 -4.273)" fill="#f7fcfe"/>
        <path id="Path_17083" data-name="Path 17083" d="M9.566,17.683c3.307,0,6.143.625,7.361,1.52a3.893,3.893,0,0,0,.627-2.076c0-2.937-3.576-5.7-7.987-5.7s-7.991,2.764-7.991,5.7A3.81,3.81,0,0,0,2.208,19.2c1.212-.895,4.052-1.52,7.358-1.52" transform="translate(-1.032 -4.31)" fill="#fff"/>
      </g>
      <path id="Path_17095" data-name="Path 17095" d="M9.664,16.864a22.653,22.653,0,0,0-7.8,1.317,8.534,8.534,0,0,0,15.594,0,22.667,22.667,0,0,0-7.8-1.317" transform="translate(-0.71 -5.785)" fill="#0083ca"/>
    </g>
  </g>
</svg>
