<?xml version="1.0" encoding="utf-8"?>
<!-- Generator: Adobe Illustrator 19.2.1, SVG Export Plug-In . SVG Version: 6.00 Build 0)  -->
<svg version="1.1" id="Layer_1" xmlns="http://www.w3.org/2000/svg" xmlns:xlink="http://www.w3.org/1999/xlink" x="0px" y="0px"
	 viewBox="0 0 20 20" style="enable-background:new 0 0 20 20;" xml:space="preserve">
<style type="text/css">
	.st0{fill:#01247D;}
	.st1{fill:#CF142B;}
</style>
<path class="st0" d="M0.8,6.5C0.6,6.8,0.5,7.1,0.4,7.4h1.7L0.8,6.5z"/>
<path class="st0" d="M19.2,13.6c0.1-0.3,0.2-0.6,0.3-0.9h-1.7L19.2,13.6z"/>
<path class="st0" d="M3,16.9c1.2,1.2,2.7,2.1,4.3,2.7V14L3,16.9z"/>
<path class="st0" d="M7.4,0.4C5.8,1,4.2,1.9,3,3.1L7.4,6V0.4z"/>
<path class="st0" d="M19.6,7.4c-0.1-0.3-0.2-0.6-0.3-0.9l-1.4,0.9H19.6z"/>
<path class="st0" d="M12.7,19.5c1.6-0.5,3.1-1.4,4.3-2.7L12.7,14V19.5z"/>
<path class="st0" d="M0.5,12.6c0.1,0.3,0.2,0.6,0.3,0.9l1.4-0.9H0.5z"/>
<path class="st0" d="M17,3.1c-1.2-1.2-2.7-2.1-4.4-2.7V6L17,3.1z"/>
<path class="st1" d="M19.8,8.3h-8.1V0.2C11.2,0.1,10.6,0,10,0c-0.6,0-1.2,0-1.7,0.1v8.1H0.1C0,8.8,0,9.4,0,10s0,1.2,0.1,1.7h8.1v8.1
	C8.8,20,9.4,20,10,20c0.6,0,1.2,0,1.7-0.1v-8.1h8.1c0.1-0.5,0.1-1.1,0.1-1.7C20,9.4,20,8.8,19.8,8.3z"/>
<path class="st1" d="M14.3,12.6l4,2.7c0.2-0.4,0.5-0.8,0.7-1.2l-2.2-1.4H14.3z"/>
<path class="st1" d="M12.6,7.4h1.5l4.1-2.7c-0.2-0.4-0.5-0.8-0.9-1.1l-4.8,3.2L12.6,7.4L12.6,7.4z"/>
<path class="st1" d="M7.4,12.6H5.7l-4,2.7c0.2,0.4,0.5,0.8,0.8,1.1l4.8-3.2L7.4,12.6L7.4,12.6z"/>
<path class="st1" d="M5.8,7.4L1.7,4.7C1.5,5,1.2,5.4,1,5.9l2.2,1.5H5.8z"/>
</svg>
