<svg width="51" height="70" viewBox="0 0 51 70" fill="none" xmlns="http://www.w3.org/2000/svg">
<path fill-rule="evenodd" clip-rule="evenodd" d="M38.58 21.2178L25.1094 7.7472C22.7146 5.35243 18.6255 6.44812 17.7489 9.71944L12.8183 28.1206C11.9418 31.3919 14.9353 34.3854 18.2066 33.5088L36.6078 28.5783C39.8791 27.7017 40.9747 23.6126 38.58 21.2178ZM25.8871 6.96947C22.8936 3.97601 17.7822 5.34562 16.6865 9.43477L11.756 27.8359C10.6603 31.9251 14.4021 35.6669 18.4913 34.5712L36.8924 29.6407C40.9816 28.545 42.3512 23.4335 39.3577 20.4401L25.8871 6.96947Z" fill="#0261AB"/>
<path fill-rule="evenodd" clip-rule="evenodd" d="M47.2079 65.9103L44.6965 56.6218C44.25 54.9706 42.1834 54.4218 40.9766 55.6341L34.1883 62.4533C32.9815 63.6656 33.5396 65.7297 35.1929 66.1687L44.4926 68.638C46.1459 69.0769 47.6544 67.5616 47.2079 65.9103ZM45.2328 56.4768C44.6747 54.4128 42.0914 53.7268 40.5829 55.2422L33.7946 62.0614C32.2861 63.5768 32.9837 66.1569 35.0503 66.7056L44.3501 69.1749C46.4167 69.7236 48.3023 67.8294 47.7442 65.7653L45.2328 56.4768Z" fill="#0261AB"/>
<path d="M10.6318 7.77937C11.7275 3.69023 16.839 2.32061 19.8324 5.31408L33.303 18.7847C36.2965 21.7781 34.9269 26.8896 30.8377 27.9853L12.4366 32.9158C8.34742 34.0115 4.60558 30.2697 5.70126 26.1805L10.6318 7.77937Z" fill="#58F4FF"/>
</svg>
