<svg id="hdbank" xmlns="http://www.w3.org/2000/svg" xmlns:xlink="http://www.w3.org/1999/xlink" width="104" height="52" viewBox="0 0 104 52">
  <defs>
    <linearGradient id="linear-gradient" x1="0.609" y1="1.036" x2="-0.065" y2="-0.412" gradientUnits="objectBoundingBox">
      <stop offset="0" stop-color="#f9a51a"/>
      <stop offset="0.2" stop-color="#ffc10e"/>
      <stop offset="0.45" stop-color="#fd0"/>
      <stop offset="1" stop-color="#fd0"/>
    </linearGradient>
    <linearGradient id="linear-gradient-2" x1="-0.382" y1="0.254" x2="1.105" y2="0.609" gradientUnits="objectBoundingBox">
      <stop offset="0" stop-color="#f9a51a"/>
      <stop offset="0.5" stop-color="#fd0"/>
      <stop offset="1" stop-color="#fd0"/>
    </linearGradient>
  </defs>
  <g id="boundingbox" fill="rgba(255,0,0,0.1)" stroke="red" stroke-width="1" stroke-dasharray="4 4" opacity="0">
    <rect width="104" height="52" stroke="none"/>
    <rect x="0.5" y="0.5" width="103" height="51" fill="none"/>
  </g>
  <g id="Group_10389" data-name="Group 10389" transform="translate(14.045 8.804)">
    <path id="Union_12" data-name="Union 12" d="M12.75,13.936V1.458A1.41,1.41,0,0,1,13.175.425,1.409,1.409,0,0,1,14.208,0h3.528a6.209,6.209,0,0,1,4.776,1.7,7.711,7.711,0,0,1,1.58,5.265,9.428,9.428,0,0,1-.567,3.362,5.623,5.623,0,0,1-1.7,2.351,5.548,5.548,0,0,1-1.9.972,11.41,11.41,0,0,1-2.956.284Zm2.8-2.513H17.37a3.7,3.7,0,0,0,2.916-1.053,5.045,5.045,0,0,0,.892-3.4,5.608,5.608,0,0,0-.852-3.442,3,3,0,0,0-2.59-1.095h-2.19ZM8.477,13.936v-6.2H2.826v6.2H0V1.458A1.432,1.432,0,0,1,.417.425,1.377,1.377,0,0,1,1.433,0H2.826V5.185H8.477V0h2.867V13.936Z" transform="translate(0 9.578)" fill="#c8252c" stroke="rgba(0,0,0,0)" stroke-miterlimit="10" stroke-width="1"/>
    <path id="Union_11" data-name="Union 11" d="M21.02,13.975a1.145,1.145,0,0,1-.889-.384,1.287,1.287,0,0,1-.252-.422,5.736,5.736,0,0,1-3.32.767,4.564,4.564,0,0,1-2.674-.8,2.978,2.978,0,0,1-1.146-2.631,2.784,2.784,0,0,1,1.04-2.449,6.132,6.132,0,0,1,2.653-.98,2.581,2.581,0,0,0,.51-.061,6.7,6.7,0,0,1,.678-.1q1.869-.246,1.868-1.061a.782.782,0,0,0-.659-.8,4.519,4.519,0,0,0-1.209-.183,3.232,3.232,0,0,0-1.061.163,1.151,1.151,0,0,0-.679.614H13.038A3.094,3.094,0,0,1,14.226,3.57a5.027,5.027,0,0,1,3.266-.938,6.583,6.583,0,0,1,3.566.776A2.591,2.591,0,0,1,22.29,5.691v8.284ZM17.875,8.794,16.9,9a2.534,2.534,0,0,0-1.1.531,1.619,1.619,0,0,0-.3.9,1.291,1.291,0,0,0,.382.979,1.641,1.641,0,0,0,1.1.327,2.587,2.587,0,0,0,1.867-.654,2.375,2.375,0,0,0,.679-1.8V8.263A8.255,8.255,0,0,1,17.875,8.794Zm22.979,5.142L38.9,10.289c-.4-.73-.745-1.039-1.039-.931s-.438.271-.438.485v4.093H34.631V0h1.438a1.291,1.291,0,0,1,.956.405,1.3,1.3,0,0,1,.4.932v5.6l3.391-4.3h3.352l-3.79,4.659,3.831,6.646Zm-9.068,0a1.38,1.38,0,0,1-1.007-.384,1.332,1.332,0,0,1-.39-.992V6.773a1.656,1.656,0,0,0-.594-1.42,2.184,2.184,0,0,0-1.335-.446,2.094,2.094,0,0,0-1.314.446,1.69,1.69,0,0,0-.575,1.42v7.163H23.7v-6.6q0-2.75,1.459-3.686a6.453,6.453,0,0,1,3.223-1.013,6.234,6.234,0,0,1,3.325.935q1.519.931,1.521,3.764v6.6ZM0,13.936V1.459A1.409,1.409,0,0,1,.423.426,1.4,1.4,0,0,1,1.449,0H6.516A5.146,5.146,0,0,1,9.775.892,3.3,3.3,0,0,1,10.9,3.525a3.4,3.4,0,0,1-.442,1.782A3.112,3.112,0,0,1,9.212,6.4a3.665,3.665,0,0,1,1.61,1.255,3.558,3.558,0,0,1,.521,2.029,3.986,3.986,0,0,1-1.285,3.157,5.732,5.732,0,0,1-3.742,1.1Zm2.737-2.513H6.116a2.872,2.872,0,0,0,1.728-.446A1.577,1.577,0,0,0,8.408,9.6a1.7,1.7,0,0,0-.564-1.417,2.937,2.937,0,0,0-1.769-.408H2.737Zm0-6.035H5.995a2.545,2.545,0,0,0,1.528-.365,1.333,1.333,0,0,0,.482-1.134,1.33,1.33,0,0,0-.482-1.134,2.653,2.653,0,0,0-1.57-.325H2.737Z" transform="translate(25.491 9.577)" fill="#58595b" stroke="rgba(0,0,0,0)" stroke-miterlimit="10" stroke-width="1"/>
    <g id="hdbank-2" data-name="hdbank" transform="translate(69.733 0)">
      <path id="Path_15276" data-name="Path 15276" d="M546.142-60.231c0,1.017.664,1.341,1.749,1.372a29.042,29.042,0,0,0,4.8-.437c.037,0,.031-.026.013-.034-2.689-.97-2.133-5.607-2.217-5.916C550.219-66.259,546.142-62.669,546.142-60.231Z" transform="translate(-546.142 65.422)" fill-rule="evenodd" fill="url(#linear-gradient)"/>
      <path id="Path_15277" data-name="Path 15277" d="M567.624-58.6a51.768,51.768,0,0,1-16.085,3.422c.279,4.152,3,8.7,5.227,8.7,5.647,0,10.186-9.416,11.141-11.431C568.279-58.649,567.995-58.76,567.624-58.6Z" transform="translate(-548.057 63.023)" fill-rule="evenodd" fill="url(#linear-gradient-2)"/>
    </g>
  </g>
</svg>
