<svg id="ivb" xmlns="http://www.w3.org/2000/svg" width="104" height="52" viewBox="0 0 104 52">
  <g id="boundingbox" fill="rgba(255,0,0,0.1)" stroke="red" stroke-width="1" stroke-dasharray="4 4" opacity="0">
    <rect width="104" height="52" stroke="none"/>
    <rect x="0.5" y="0.5" width="103" height="51" fill="none"/>
  </g>
  <g id="Group_10398" data-name="Group 10398" transform="translate(24.111 2.362)">
    <g id="Group_10398-2" data-name="Group 10398" transform="translate(52.033 0)">
      <path id="Union_18" data-name="Union 18" d="M2.982,20.934a1.126,1.126,0,0,1-.057-.1,1.7,1.7,0,0,1-.039-1.613,3.953,3.953,0,0,1,.878-1.168l.012-.01A4.869,4.869,0,0,1,5.326,17.01a.569.569,0,0,1,.607.078.55.55,0,0,1,.1.146.685.685,0,0,1-.026.568,1.406,1.406,0,0,1-.432.526,11.186,11.186,0,0,1-.95.653,5.2,5.2,0,0,0-.556.4,2.736,2.736,0,0,0-.456.478,2.362,2.362,0,0,0-.373.769,1.564,1.564,0,0,0-.054.428,1.468,1.468,0,0,0,.013.169A2.078,2.078,0,0,1,2.982,20.934ZM1.894,17.67a4.486,4.486,0,0,1-.266-1.713,4.782,4.782,0,0,1,.2-.983c0-.006.02-.061.025-.075a5.19,5.19,0,0,1,.9-1.571,10.924,10.924,0,0,1,1.713-1.649,13.244,13.244,0,0,1,2.167-1.354c.232-.118.462-.233.69-.342.121-.06.245-.117.363-.173A3.8,3.8,0,0,1,8.5,9.569c.585-.092.8.1.916.242a.843.843,0,0,1,.175.328.951.951,0,0,1-.026.49c-.2.671-1.421,1.462-2.821,2.21-2.716,1.452-4.167,3.108-4.6,4.225a2.908,2.908,0,0,0-.107.362,4.024,4.024,0,0,0-.076.461C1.939,17.817,1.917,17.742,1.894,17.67Zm-1.876-7.3a6.133,6.133,0,0,1,.341-1.6,7.849,7.849,0,0,1,.713-1.5,11.387,11.387,0,0,1,1.863-2.3c.195-.19.4-.374.612-.552.367-.306.758-.6,1.154-.868S5.53,3,5.953,2.745c.485-.292.973-.574,1.47-.845.263-.141.526-.28.791-.412.463-.23.931-.445,1.408-.639A15.234,15.234,0,0,1,11.085.337,6.4,6.4,0,0,1,12.989,0c.911.029,1.086.372,1.162.521a1.263,1.263,0,0,1,.156.459,1.352,1.352,0,0,1-.163.65,3.5,3.5,0,0,1-1.238,1.2,11.4,11.4,0,0,1-1.782.882q-1.21.514-2.4,1.075c-.377.18-.753.361-1.125.551-.631.326-1.251.668-1.855,1.041A18.348,18.348,0,0,0,4.012,7.6a13.02,13.02,0,0,0-1.9,1.862,8.739,8.739,0,0,0-.962,1.415,6.584,6.584,0,0,0-.432.963,6.752,6.752,0,0,0-.247,1.323A6.429,6.429,0,0,1,.018,10.366Z" transform="translate(0 0)" fill="#0069b4" stroke="rgba(0,0,0,0)" stroke-miterlimit="10" stroke-width="1"/>
      <path id="Union_20" data-name="Union 20" d="M3.478,16.867a1.57,1.57,0,0,1-.314-.139c-.1-.058-.25-.149-.412-.256a.638.638,0,0,1-.209-.745,1.807,1.807,0,0,1,.3-.594l.041.028L3,15.228c.116.071.237.147.358.221a.084.084,0,0,0,.023.015l.019.015a.032.032,0,0,1,.016.009,3.165,3.165,0,0,1,.321.223,1.6,1.6,0,0,1,.217.205.758.758,0,0,1,.034.91.242.242,0,0,1-.063.059.283.283,0,0,1-.072.027.345.345,0,0,1-.1.01A1.1,1.1,0,0,1,3.478,16.867ZM1.4,13.232a3.309,3.309,0,0,1,.158-.781l.011-.038.005-.016A5.758,5.758,0,0,1,3.505,9.953c.179-.134.349-.255.517-.366a5.364,5.364,0,0,1,1.719-.841.761.761,0,0,1,.782.176.73.73,0,0,1,.159.271.859.859,0,0,1,0,.412,2.234,2.234,0,0,1-1.2,1.248c-2.081,1.116-3.267,2.09-3.764,3.253-.063.069-.12.137-.18.2A3.327,3.327,0,0,1,1.4,13.232ZM.3,10.458a6.541,6.541,0,0,1-.281-1.3A4.928,4.928,0,0,1,.287,7.055,7.26,7.26,0,0,1,1.409,5.066a10.68,10.68,0,0,1,2.212-2.1,25.989,25.989,0,0,1,2.6-1.627A16.837,16.837,0,0,1,7.9.525,6.717,6.717,0,0,1,9.861,0c.738-.039.9.224.97.338A1.045,1.045,0,0,1,10.99.7a1.164,1.164,0,0,1-.087.536,1.754,1.754,0,0,1-.2.334,3.249,3.249,0,0,1-.66.653A11.037,11.037,0,0,1,7.892,3.44c-.256.126-.514.249-.769.379s-.489.246-.732.375-.464.244-.693.373-.429.244-.64.371-.394.246-.587.372-.359.243-.535.369c-.159.118-.318.242-.478.367s-.29.24-.432.366-.257.237-.387.362S2.411,7,2.3,7.125s-.208.227-.31.342-.182.223-.271.336-.161.21-.237.318-.137.2-.2.3-.117.193-.175.289S1,8.9.953,8.987s-.087.173-.129.258-.076.166-.113.25-.075.165-.1.247a3.329,3.329,0,0,0-.216.99C.368,10.668.335,10.572.3,10.458Z" transform="translate(0.882 5.023)" fill="#f68e1e" stroke="rgba(0,0,0,0)" stroke-miterlimit="10" stroke-width="1"/>
    </g>
    <path id="Union_19" data-name="Union 19" d="M22,21.951H20.059a1.235,1.235,0,0,1-1.155-.726L12.129,4.715a3.355,3.355,0,0,0-1.022-1.568,2.561,2.561,0,0,0-1.415-.333A1.177,1.177,0,0,1,8.457,1.706V1.122A1.177,1.177,0,0,1,9.692.01h5.314a1.229,1.229,0,0,1,1.159.738c.222.56.623,1.545,1.161,2.844l.844,2.075q.488,1.2,1.136,2.82t1.49,3.686q.28.694.588,1.446c.2-.5.4-.984.585-1.446q.842-2.071,1.49-3.686t1.136-2.82l.845-2.075c.538-1.3.939-2.283,1.163-2.844A1.223,1.223,0,0,1,27.761.01h2.221L31.8,0a1.075,1.075,0,0,1,.146.01.453.453,0,0,1,.409.67l-.111.265-1.34,3.178c-.087.17-.177.363-.27.592l-.783,1.9L23.861,21.224a1.116,1.116,0,0,1-.363.465,1.325,1.325,0,0,1-.792.262ZM36.7,21.945a1.172,1.172,0,0,1-1.22-1.111v-.09a.416.416,0,0,1-.008-.041l.012-16.882a3.909,3.909,0,0,0-.022-.74c-.131-.264-1.1-.271-1.481-.271A1.171,1.171,0,0,1,32.757,1.7V1.116A1.172,1.172,0,0,1,33.98.006h7.9c.148,0,.4,0,.668.01.469-.009.991-.017,1.583.016a6.843,6.843,0,0,1,5.489,2.352,4.732,4.732,0,0,1,1.135,2.892c.016.171.021.348.021.531a5.13,5.13,0,0,1-.5,2.332,5.321,5.321,0,0,1-1.206,1.587c-.11.1-.225.188-.34.277a6.459,6.459,0,0,1,1.123.747,5.567,5.567,0,0,1,1.454,1.876,6.121,6.121,0,0,1,.558,2.711v.005a5.354,5.354,0,0,1-1.1,3.508A7.231,7.231,0,0,1,48.2,21.024a10.7,10.7,0,0,1-3.092.769c-1.01.1-1.958.152-2.818.152Zm4.247-9.528c.009,1.4,0,5.759,0,5.831.017,0-.025.008,0,.009a10.623,10.623,0,0,0,1.334.061,7.926,7.926,0,0,0,1.666-.174,4.129,4.129,0,0,0,1.3-.51,2.416,2.416,0,0,0,.833-.86,2.793,2.793,0,0,0,.319-1.434,3.2,3.2,0,0,0-.439-1.853,2.877,2.877,0,0,0-1.155-.957,5.122,5.122,0,0,0-1.7-.439c-.732-.063-1.517-.1-2.156-.1Zm0-8.976c-.008.029.007.073,0,.131-.028.2,0,2.969,0,4.326v.726c.449,0,1.055-.018,1.651-.054a4.254,4.254,0,0,0,1.38-.313,2.337,2.337,0,0,0,.955-.74A2.524,2.524,0,0,0,45.3,6a3.273,3.273,0,0,0-.191-1.209.731.731,0,0,0-.057-.126,1.826,1.826,0,0,0-.622-.707,2.946,2.946,0,0,0-1.059-.414,7.821,7.821,0,0,0-1.564-.15A5.191,5.191,0,0,0,40.946,3.441Zm-36.31,18.5h-.67a1.192,1.192,0,0,1-1.249-1.123V4.14a4.658,4.658,0,0,0-.031-1.162c-.079-.131-.347-.134-1.439-.134A1.193,1.193,0,0,1,0,1.72V1.125A1.191,1.191,0,0,1,1.248,0H6.892A1.188,1.188,0,0,1,8.138,1.125V20.814A1.192,1.192,0,0,1,6.89,21.938Z" transform="translate(0 13.163)" fill="#0069b4" stroke="rgba(0,0,0,0)" stroke-miterlimit="10" stroke-width="1"/>
  </g>
</svg>
