<svg id="ocb" xmlns="http://www.w3.org/2000/svg" width="104" height="52" viewBox="0 0 104 52">
  <g id="boundingbox" fill="rgba(255,0,0,0.1)" stroke="red" stroke-width="1" stroke-dasharray="4 4" opacity="0">
    <rect width="104" height="52" stroke="none"/>
    <rect x="0.5" y="0.5" width="103" height="51" fill="none"/>
  </g>
  <g id="Group_10393" data-name="Group 10393" transform="translate(9.364 13.586)">
    <path id="Union_13" data-name="Union 13" d="M22.264,9.9C22.264,4.494,27.11.14,33.15.14A11.973,11.973,0,0,1,38.488,1.4V5.2a6.917,6.917,0,0,0-4.425-1.545A6.518,6.518,0,0,0,27.321,9.9a6.518,6.518,0,0,0,6.742,6.25,7.337,7.337,0,0,0,4.425-1.545V18.4a11.49,11.49,0,0,1-5.338,1.265C27.11,19.665,22.264,15.311,22.264,9.9ZM0,9.761C0,4.424,4.776,0,10.675,0,16.5,0,21.281,4.424,21.351,9.761c0,5.338-4.776,9.763-10.676,9.763S0,15.17,0,9.761Zm5.057.071c0,3.441,2.528,6.25,5.618,6.25,3.02,0,5.549-2.809,5.619-6.25,0-3.441-2.529-6.25-5.619-6.25S5.057,6.391,5.057,9.832ZM40.524,19.1V.421H51.06a6.265,6.265,0,0,1,4.073,1.264,4.425,4.425,0,0,1,1.475,3.3,4.913,4.913,0,0,1-.843,3.02,4.748,4.748,0,0,1-1.685,1.4c.421.211.772.422,1.123.632a4.746,4.746,0,0,1,1.475,1.685,5.106,5.106,0,0,1,.492,2.037,4.907,4.907,0,0,1-.7,2.809,4.961,4.961,0,0,1-2.6,1.9,11.965,11.965,0,0,1-4.144.632Zm4.846-2.81h3.09c2.388,0,3.652-.7,3.652-2.529,0-1.756-1.194-2.528-3.512-2.528H45.932L47.2,7.725H48.46c2.107,0,3.02-.632,3.02-2.107,0-1.756-.773-2.247-3.09-2.247H45.37Z" transform="translate(27.864 2.599)" fill="#008c44" stroke="rgba(0,0,0,0)" stroke-miterlimit="10" stroke-width="1"/>
    <path id="Union_14" data-name="Union 14" d="M6.724,23.457c-5.549-2.668-2.388-9.06,7.445-6.321,5.549,1.616,8.568.281,10.254-2.037a12.4,12.4,0,0,1-17.7,8.357ZM.052,13.766C-.37,10.605,1.737,6.532,8.2,7.656v8.428c-2.458.351-4.214,1.545-4.635,3.3A3.3,3.3,0,0,0,3.7,21.21,12.326,12.326,0,0,1,.052,13.766Zm16.435,3.371V8.709c2.458-.351,4.214-1.545,4.635-3.3a3.211,3.211,0,0,0-.14-1.826,12.326,12.326,0,0,1,3.652,7.445c.31,2.737-1.25,6.3-6.1,6.3A11.98,11.98,0,0,1,16.486,17.136ZM12.342,0A12.429,12.429,0,0,1,17.89,1.334c5.549,2.6,2.388,8.989-7.374,6.25C4.967,5.97,1.947,7.3.262,9.622A12.427,12.427,0,0,1,12.342,0Z" transform="translate(0 0)" fill="#e39717" stroke="rgba(0,0,0,0)" stroke-miterlimit="10" stroke-width="1"/>
  </g>
</svg>
