<svg id="shb" xmlns="http://www.w3.org/2000/svg" width="104" height="52" viewBox="0 0 104 52">
  <g id="boundingbox" fill="rgba(255,0,0,0.1)" stroke="red" stroke-width="1" stroke-dasharray="4 4" opacity="0">
    <rect width="104" height="52" stroke="none"/>
    <rect x="0.5" y="0.5" width="103" height="51" fill="none"/>
  </g>
  <g id="Group_10402" data-name="Group 10402" transform="translate(9.364 15.461)">
    <path id="Path_16921" data-name="Path 16921" d="M61.4,0V6.527h-.594l-.941-2.135A6.422,6.422,0,0,0,58.094,2.06,4.706,4.706,0,0,0,54.965.97,2.982,2.982,0,0,0,51.8,3.887a3.172,3.172,0,0,0,.7,2.046,6.953,6.953,0,0,0,3.174,1.946,12.328,12.328,0,0,1,4.992,2.976,5.592,5.592,0,0,1,1.566,3.917,5.612,5.612,0,0,1-2.655,5.1,8.9,8.9,0,0,1-4.8,1.174A7.893,7.893,0,0,1,52.8,20.72a20.18,20.18,0,0,0-3.076-.7c-.129,0-.248.089-.362.262l-.089.262-.114.5h-.713V13.817h.684l.624,2.09a5.741,5.741,0,0,0,1.07,1.858,7.809,7.809,0,0,0,1.555,1.505,4.252,4.252,0,0,0,2.451.842q4.079,0,4.075-3.264,0-1.612-2.218-3.051-.654-.416-3.6-1.8a7.87,7.87,0,0,1-3.442-2.858,5.728,5.728,0,0,1-.941-3.1A5.8,5.8,0,0,1,50.626,1.51,5.5,5.5,0,0,1,54.424,0a10,10,0,0,1,2.7.346l2.7.758c.184,0,.377-.159.58-.481L60.724,0ZM78.755,10.841H71.629v6.542q0,2.526,2.437,2.526v.624h-9.6v-.624q2.437,0,2.437-2.526V3.441Q66.9.916,64.463.916V.292h9.6V.916q-2.438,0-2.437,2.526V9.39h7.126V3.441q0-2.526-2.436-2.526V.292h9.6V.916q-2.436,0-2.436,2.526V17.383q0,2.526,2.436,2.526v.624h-9.6v-.624q2.436,0,2.436-2.526Zm19.22,9.691H87.516v-.624q2.436,0,2.437-2.526V3.441q0-2.526-2.437-2.526V.292h7.167a36.9,36.9,0,0,1,3.8.119l.451.01h.287c.06.02.124.04.2.059l.51.089a2.887,2.887,0,0,1,.653.2,5.034,5.034,0,0,1,2.422,1.52,3.863,3.863,0,0,1,1,2.645,4.265,4.265,0,0,1-2.5,3.932,9.968,9.968,0,0,1-1.872.663v.059a12.344,12.344,0,0,1,3.4,1.511,4.069,4.069,0,0,1,1.436,1.624,4.387,4.387,0,0,1,.436,2,4.487,4.487,0,0,1-1.639,3.819,11.2,11.2,0,0,1-2.788,1.595,7.119,7.119,0,0,1-2.511.391M94.683,2.614V9.449H95.96q3.2,0,3.205-3.18V3.892a2.684,2.684,0,0,0-.753-2.179,3.638,3.638,0,0,0-2.279-.549A1.579,1.579,0,0,0,95,1.48a1.594,1.594,0,0,0-.321,1.134m0,7.88v6.715a10.8,10.8,0,0,0,.059,1.5c.124.649.58.97,1.366.97a4.282,4.282,0,0,0,2.917-.827A3.732,3.732,0,0,0,100,15.961a9.687,9.687,0,0,0-.525-3.7,2.9,2.9,0,0,0-2.917-1.768Z" transform="translate(-19.881)" fill="#2e3191" fill-rule="evenodd"/>
    <path id="Path_16922" data-name="Path 16922" d="M12.1,20.781H10.717l.189-.132c2.774-1.9,4.207-3.45,4.805-4.765a3.413,3.413,0,0,0-.191-3.337h0A11.893,11.893,0,0,0,12.577,9.6h0A10.527,10.527,0,0,1,9.742,6.708a2.732,2.732,0,0,1,.307-2.893A14.462,14.462,0,0,1,14.163.087L14.3,0h.265l-.189.123h0c-.021.015-.1.066-.123.082a9.814,9.814,0,0,0-3.283,3.466A2.709,2.709,0,0,0,11.091,6.3h0a11.6,11.6,0,0,0,3.025,2.911h0c.593.455,1.189.913,1.724,1.393a7.5,7.5,0,0,1,1.354,1.531,3.4,3.4,0,0,1,.121,3.6c-.7,1.4-2.282,3.038-5.175,5.04ZM.509,0H.436V20.781H6.281l.039-.011c3.111-2.007,4.868-3.653,5.716-5.05a3.408,3.408,0,0,0,.251-3.6,6.469,6.469,0,0,0-1.2-1.533c-.485-.48-1.035-.938-1.58-1.393-.563-.469-1.121-.934-1.6-1.415A5.552,5.552,0,0,1,6.785,6.28a2.705,2.705,0,0,1,.152-2.626A11.589,11.589,0,0,1,10.656.132l.2-.132ZM12.451,0l-.02.011A13.847,13.847,0,0,0,8.038,3.874,2.877,2.877,0,0,0,7.769,6.8,5.568,5.568,0,0,0,8.9,8.3c.473.473,1.022.931,1.576,1.393s1.113.929,1.605,1.416a6.464,6.464,0,0,1,1.2,1.534,3.239,3.239,0,0,1-.143,3.31c-.732,1.308-2.282,2.842-5.04,4.7l-.2.133H9.083l.04-.012c3.129-2.053,4.769-3.717,5.481-5.125a3.538,3.538,0,0,0-.1-3.624,6.907,6.907,0,0,0-1.269-1.532c-.509-.481-1.079-.939-1.645-1.393h0a10.672,10.672,0,0,1-2.86-2.91h0a2.541,2.541,0,0,1,.208-2.6A12.573,12.573,0,0,1,12.517.131L12.7,0Zm3.7,0L16.13.012A12,12,0,0,0,12.1,3.892a2.854,2.854,0,0,0,.027,2.933A11.432,11.432,0,0,0,15.124,9.71h0c.6.462,1.21.929,1.752,1.416a7.545,7.545,0,0,1,1.359,1.536,3.257,3.257,0,0,1,.2,3.3c-.593,1.3-1.976,2.83-4.527,4.682l-.177.131H23.8V0H16.149Z" transform="translate(-0.436)" fill="#f48120" fill-rule="evenodd"/>
  </g>
</svg>
