<?xml version="1.0" encoding="utf-8"?>
<!-- Generator: Adobe Illustrator 24.1.2, SVG Export Plug-In . SVG Version: 6.00 Build 0)  -->
<svg version="1.1" id="Layer_1" xmlns="http://www.w3.org/2000/svg" xmlns:xlink="http://www.w3.org/1999/xlink" x="0px" y="0px"
	 viewBox="0 0 1538 284" style="enable-background:new 0 0 1538 284;" xml:space="preserve">
<style type="text/css">
	.st0{fill:#FFFFFF;}
	.st1{fill:#808080;}
	.st2{fill:#FF6E6E;}
	.st3{fill:#4D4D4D;}
	.st4{font-family:'MyriadPro-Regular';}
	.st5{font-size:28px;}
</style>
<g>
	<path class="st0" d="M7.71,283.5c-3.98,0-7.21-3.24-7.21-7.21V7.71c0-3.98,3.24-7.21,7.21-7.21h1522.57c3.98,0,7.21,3.24,7.21,7.21
		v268.57c0,3.98-3.24,7.21-7.21,7.21H7.71z"/>
	<path class="st1" d="M1530.29,1c3.7,0,6.71,3.01,6.71,6.71v268.57c0,3.7-3.01,6.71-6.71,6.71H7.71c-3.7,0-6.71-3.01-6.71-6.71V7.71
		C1,4.01,4.01,1,7.71,1H1530.29 M1530.29,0H7.71C3.45,0,0,3.45,0,7.71v268.57c0,4.26,3.45,7.71,7.71,7.71h1522.57
		c4.26,0,7.71-3.45,7.71-7.71V7.71C1538,3.45,1534.55,0,1530.29,0L1530.29,0z"/>
</g>
<g>
	<g>
		<path class="st2" d="M769,76.21c1.89,0,3.53,0.94,4.49,2.57l39.58,67.54c1.38,2.35,0.48,4.43,0.03,5.22
			c-0.45,0.79-1.79,2.62-4.51,2.62h-79.16c-2.72,0-4.06-1.83-4.51-2.62c-0.45-0.79-1.35-2.87,0.03-5.22l39.58-67.54
			C765.47,77.14,767.11,76.21,769,76.21 M769,72.18c-3.09,0-6.18,1.52-7.96,4.56l-39.58,67.54c-3.61,6.15,0.83,13.89,7.96,13.89
			h79.16c7.13,0,11.57-7.74,7.96-13.89l-39.58-67.54C775.18,73.7,772.09,72.18,769,72.18L769,72.18z"/>
		<g>
			<path class="st2" d="M772.9,139.9c0,0.74-0.05,1.36-0.15,1.84c-0.1,0.49-0.29,0.88-0.57,1.18c-0.28,0.3-0.65,0.52-1.1,0.64
				c-0.45,0.12-1.03,0.19-1.72,0.19c-0.7,0-1.28-0.06-1.74-0.19c-0.46-0.12-0.83-0.34-1.1-0.64c-0.27-0.3-0.46-0.7-0.56-1.18
				c-0.1-0.48-0.15-1.1-0.15-1.84c0-0.74,0.05-1.37,0.15-1.88c0.1-0.51,0.29-0.9,0.56-1.18c0.27-0.28,0.64-0.48,1.1-0.61
				c0.46-0.12,1.04-0.19,1.74-0.19c0.7,0,1.27,0.06,1.72,0.19c0.45,0.12,0.82,0.33,1.1,0.61c0.28,0.28,0.47,0.68,0.57,1.18
				C772.84,138.53,772.9,139.15,772.9,139.9z M771.85,130.8c0,0.18-0.04,0.34-0.12,0.47c-0.08,0.14-0.22,0.25-0.42,0.34
				c-0.2,0.09-0.46,0.16-0.78,0.2c-0.32,0.05-0.71,0.07-1.18,0.07c-0.47,0-0.87-0.02-1.18-0.07c-0.32-0.05-0.57-0.11-0.78-0.2
				c-0.2-0.09-0.34-0.2-0.42-0.34c-0.08-0.14-0.12-0.29-0.12-0.47l-0.57-32.26c-0.02-0.27,0.01-0.51,0.1-0.71
				c0.09-0.2,0.25-0.37,0.49-0.51c0.24-0.14,0.55-0.23,0.95-0.29c0.39-0.06,0.91-0.08,1.54-0.08c0.61,0,1.11,0.03,1.5,0.1
				c0.39,0.07,0.71,0.17,0.95,0.3s0.4,0.3,0.49,0.49c0.09,0.19,0.14,0.42,0.14,0.69L771.85,130.8z"/>
		</g>
	</g>
	<text transform="matrix(1 0 0 1 636.2263 204.8213)" class="st3 st4 st5">Nhấn vào ảnh để tải lại</text>
</g>
</svg>
