<?xml version="1.0" encoding="utf-8"?>
<!-- Generator: Adobe Illustrator 24.1.3, SVG Export Plug-In . SVG Version: 6.00 Build 0)  -->
<svg version="1.1" id="Layer_1" xmlns="http://www.w3.org/2000/svg" xmlns:xlink="http://www.w3.org/1999/xlink" x="0px" y="0px"
	 viewBox="0 0 64 64" style="enable-background:new 0 0 64 64;" xml:space="preserve">
<style type="text/css">
	.st0{opacity:0.2;enable-background:new    ;}
	.st1{fill:#2F84B6;}
	.st2{opacity:0.2;fill:#FFFFFF;enable-background:new    ;}
	.st3{fill:#9ED6F2;}
	.st4{fill:#FFFFFF;}
</style>
<path class="st0" d="M14.5,8C13.1,8,12,9.1,12,10.5v45c0,1.4,1.1,2.5,2.5,2.5h35c1.4,0,2.5-1.1,2.5-2.5V23l-13.8-1.3L37,8H14.5z"/>
<path class="st1" d="M14.5,7C13.1,7,12,8.1,12,9.5v45c0,1.4,1.1,2.5,2.5,2.5h35c1.4,0,2.5-1.1,2.5-2.5V22l-13.8-1.3L37,7H14.5z"/>
<path class="st2" d="M14.5,7C13.1,7,12,8.1,12,9.5v1C12,9.1,13.1,8,14.5,8H37l1.3,13.8L52,22l0,0l-13.8-1.3L37,7H14.5z"/>
<path class="st3" d="M37,7v12.5c0,1.4,1.1,2.5,2.5,2.5H52L37,7z"/>
<path class="st4" d="M52,54.4h-9.7c-0.9,0-1.6-0.7-1.6-1.6v-6.4c0-0.9,0.7-1.6,1.6-1.6H52v-0.5h-9.7c-1.2,0-2.1,0.9-2.1,2.1v6.4
	c0,1.2,0.9,2.1,2.1,2.1H52V54.4z"/>
<path class="st1" d="M59.7,54.7H42.3c-1,0-1.9-0.8-1.9-1.9v-6.4c0-1,0.8-1.9,1.9-1.9h17.4c1,0,1.9,0.8,1.9,1.9v6.4
	C61.6,53.9,60.8,54.7,59.7,54.7z"/>
<g>
	<path class="st4" d="M43.6,46.6h0.9v5.7h-0.9V46.6z M44.2,51.5h1.3c0.4,0,0.7-0.1,0.9-0.3c0.2-0.2,0.3-0.5,0.3-0.8v-1.7
		c0-0.4-0.1-0.6-0.3-0.8c-0.2-0.2-0.5-0.3-0.9-0.3h-1.3v-0.9h1.3c0.5,0,0.9,0.1,1.2,0.2c0.3,0.2,0.6,0.4,0.8,0.7s0.3,0.7,0.3,1.1
		v1.6c0,0.4-0.1,0.8-0.3,1.1c-0.2,0.3-0.4,0.5-0.8,0.7c-0.3,0.2-0.7,0.2-1.2,0.2h-1.3V51.5z"/>
	<path class="st4" d="M49.8,52.2c-0.3-0.2-0.6-0.4-0.7-0.7c-0.2-0.3-0.3-0.7-0.3-1.1v-1.6c0-0.4,0.1-0.8,0.3-1.1
		c0.2-0.3,0.4-0.6,0.7-0.7c0.3-0.2,0.7-0.3,1.1-0.3s0.8,0.1,1.1,0.3c0.3,0.2,0.6,0.4,0.7,0.7s0.3,0.7,0.3,1.1v1.6
		c0,0.4-0.1,0.8-0.3,1.1c-0.2,0.3-0.4,0.6-0.7,0.7c-0.3,0.2-0.7,0.3-1.1,0.3S50.1,52.4,49.8,52.2z M51.4,51.4
		c0.2-0.1,0.3-0.2,0.4-0.4c0.1-0.2,0.1-0.4,0.1-0.6v-1.7c0-0.2,0-0.4-0.1-0.6c-0.1-0.2-0.2-0.3-0.4-0.4c-0.2-0.1-0.4-0.1-0.6-0.1
		s-0.4,0-0.6,0.1c-0.2,0.1-0.3,0.2-0.4,0.4c-0.1,0.2-0.1,0.4-0.1,0.6v1.7c0,0.2,0,0.4,0.1,0.6c0.1,0.2,0.2,0.3,0.4,0.4
		c0.2,0.1,0.4,0.1,0.6,0.1S51.3,51.5,51.4,51.4z"/>
	<path class="st4" d="M55,52.2c-0.3-0.2-0.5-0.4-0.7-0.7c-0.2-0.3-0.2-0.7-0.2-1.1v-1.6c0-0.4,0.1-0.8,0.2-1.1
		c0.2-0.3,0.4-0.6,0.7-0.7s0.7-0.3,1.1-0.3c0.3,0,0.7,0.1,0.9,0.2c0.3,0.1,0.5,0.4,0.7,0.6c0.2,0.3,0.3,0.6,0.4,1h-1
		c0-0.2-0.1-0.3-0.2-0.5s-0.2-0.2-0.4-0.3c-0.1-0.1-0.3-0.1-0.5-0.1c-0.2,0-0.4,0-0.6,0.1s-0.3,0.2-0.4,0.4S55,48.5,55,48.7v1.6
		c0,0.2,0,0.5,0.1,0.6s0.2,0.3,0.4,0.4c0.2,0.1,0.3,0.1,0.6,0.1c0.2,0,0.3,0,0.5-0.1s0.3-0.2,0.4-0.3c0.1-0.1,0.2-0.3,0.2-0.5h1
		c-0.1,0.4-0.2,0.7-0.4,1c-0.2,0.3-0.4,0.5-0.7,0.6c-0.3,0.1-0.6,0.2-0.9,0.2C55.6,52.4,55.3,52.4,55,52.2z"/>
</g>
<g>
	<path class="st4" d="M24.2,31.9h-3.1v-3.1h3.1V31.9z M21.7,31.3h1.9v-1.9h-1.9V31.3z"/>
	<g>
		<path class="st4" d="M24.5,27.6c-0.1,0-0.2,0-0.3,0c-0.1,0-0.2,0-0.3,0.1c-0.1,0-0.1,0.1-0.3,0.2c-0.1,0.1-0.3,0.3-0.4,0.5
			c-0.2,0.2-0.3,0.5-0.4,0.7c-0.1,0.2-0.2,0.4-0.3,0.7c-0.1-0.1-0.2-0.2-0.3-0.2c-0.1-0.1-0.2-0.1-0.3-0.1c-0.1,0-0.2,0-0.3,0.1
			c-0.1,0.1-0.2,0.2-0.2,0.3c0,0.1,0.1,0.2,0.2,0.3c0.2,0.2,0.3,0.3,0.4,0.5c0.1,0.1,0.1,0.2,0.1,0.2c0,0,0.1,0.1,0.1,0.1
			c0,0,0.1,0,0.2,0c0.2,0,0.3,0,0.3-0.1c0.1,0,0.1-0.1,0.1-0.1c0-0.1,0.1-0.2,0.1-0.3c0.2-0.4,0.4-0.9,0.7-1.3
			c0.3-0.5,0.6-0.8,0.8-1.1c0.1-0.1,0.1-0.1,0.1-0.1c0,0,0-0.1,0-0.1c0-0.1,0-0.1-0.1-0.2C24.6,27.6,24.6,27.6,24.5,27.6z"/>
	</g>
</g>
<g>
	<path class="st4" d="M24.1,38H21v-3.1h3.1V38z M21.6,37.4h1.9v-1.9h-1.9V37.4z"/>
	<g>
		<path class="st4" d="M24.5,33.6c-0.1,0-0.2,0-0.3,0c-0.1,0-0.2,0-0.3,0.1c-0.1,0-0.1,0.1-0.3,0.2c-0.1,0.1-0.3,0.3-0.4,0.5
			c-0.2,0.2-0.3,0.5-0.4,0.7c-0.1,0.2-0.2,0.4-0.3,0.7c-0.1-0.1-0.2-0.2-0.3-0.2c-0.1-0.1-0.2-0.1-0.3-0.1c-0.1,0-0.2,0-0.3,0.1
			c-0.1,0.1-0.2,0.2-0.2,0.3c0,0.1,0.1,0.2,0.2,0.3c0.2,0.2,0.3,0.3,0.4,0.5c0.1,0.1,0.1,0.2,0.1,0.2c0,0,0.1,0.1,0.1,0.1
			c0,0,0.1,0,0.2,0c0.2,0,0.3,0,0.3-0.1c0.1,0,0.1-0.1,0.1-0.1c0-0.1,0.1-0.2,0.1-0.3c0.2-0.4,0.4-0.9,0.7-1.3
			c0.3-0.5,0.6-0.8,0.8-1.1c0.1-0.1,0.1-0.1,0.1-0.1c0,0,0-0.1,0-0.1c0-0.1,0-0.1-0.1-0.2C24.6,33.7,24.6,33.6,24.5,33.6z"/>
	</g>
</g>
<g>
	<path class="st4" d="M24.1,43.9H21v-3.1h3.1V43.9z M21.6,43.3h1.9v-1.9h-1.9V43.3z"/>
	<g>
		<path class="st4" d="M24.5,39.6c-0.1,0-0.2,0-0.3,0c-0.1,0-0.2,0-0.3,0.1c-0.1,0-0.1,0.1-0.3,0.2c-0.1,0.1-0.3,0.3-0.4,0.5
			c-0.2,0.2-0.3,0.5-0.4,0.7c-0.1,0.2-0.2,0.4-0.3,0.7c-0.1-0.1-0.2-0.2-0.3-0.2c-0.1-0.1-0.2-0.1-0.3-0.1c-0.1,0-0.2,0-0.3,0.1
			c-0.1,0.1-0.2,0.2-0.2,0.3c0,0.1,0.1,0.2,0.2,0.3c0.2,0.2,0.3,0.3,0.4,0.5c0.1,0.1,0.1,0.2,0.1,0.2c0,0,0.1,0.1,0.1,0.1
			c0,0,0.1,0,0.2,0c0.2,0,0.3,0,0.3-0.1c0.1,0,0.1-0.1,0.1-0.1c0-0.1,0.1-0.2,0.1-0.3c0.2-0.4,0.4-0.9,0.7-1.3
			c0.3-0.5,0.6-0.8,0.8-1.1c0.1-0.1,0.1-0.1,0.1-0.1c0,0,0-0.1,0-0.1c0-0.1,0-0.1-0.1-0.2C24.6,39.6,24.6,39.6,24.5,39.6z"/>
	</g>
</g>
<g>
	<path class="st4" d="M24.1,50H21v-3.1h3.1V50z M21.6,49.4h1.9v-1.9h-1.9V49.4z"/>
</g>
<g>
	<rect x="25.9" y="41" class="st4" width="17.1" height="3"/>
	<rect x="25.9" y="47" class="st4" width="11.1" height="3"/>
	<rect x="25.9" y="35" class="st4" width="17.1" height="3"/>
	<rect x="25.9" y="29" class="st4" width="17.1" height="3"/>
</g>
<path class="st4" d="M30.8,23.3H18.1c-0.8,0-1.5-0.7-1.5-1.5V14c0-0.8,0.7-1.5,1.5-1.5h12.7c0.8,0,1.5,0.7,1.5,1.5v7.7
	C32.3,22.6,31.6,23.3,30.8,23.3z"/>
<g>
	<path class="st1" d="M17.7,13.7h6.2v1.5h-6.2V13.7z M20,14.4h1.6v7.8H20V14.4z"/>
	<path class="st1" d="M24.6,13.7h2l3.2,6.5l-0.1,0.2v-6.7h1.5v8.5h-2L26,15.8l0.1-0.2v6.6h-1.5V13.7z"/>
</g>
</svg>
