<?xml version="1.0" encoding="utf-8"?>
<svg version="1.1" xmlns:xlink="http://www.w3.org/1999/xlink" width="10px" height="9px" xmlns="http://www.w3.org/2000/svg">
  <g transform="matrix(1 0 0 1 -149 -42 )">
    <path d="M 7.578125 8.138671875  C 7.6542467948718 8.064453125  7.69230769230769 7.9765625  7.69230769230769 7.875  C 7.69230769230769 7.7734375  7.6542467948718 7.685546875  7.578125 7.611328125  C 7.50200320512821 7.537109375  7.41185897435898 7.5  7.30769230769231 7.5  C 7.20352564102564 7.5  7.11338141025641 7.537109375  7.03725961538462 7.611328125  C 6.96113782051282 7.685546875  6.92307692307692 7.7734375  6.92307692307692 7.875  C 6.92307692307692 7.9765625  6.96113782051282 8.064453125  7.03725961538462 8.138671875  C 7.11338141025641 8.212890625  7.20352564102564 8.25  7.30769230769231 8.25  C 7.41185897435898 8.25  7.50200320512821 8.212890625  7.578125 8.138671875  Z M 9.11658653846154 8.138671875  C 9.19270833333333 8.064453125  9.23076923076923 7.9765625  9.23076923076923 7.875  C 9.23076923076923 7.7734375  9.19270833333333 7.685546875  9.11658653846154 7.611328125  C 9.04046474358974 7.537109375  8.95032051282051 7.5  8.84615384615385 7.5  C 8.74198717948718 7.5  8.65184294871795 7.537109375  8.57572115384615 7.611328125  C 8.49959935897436 7.685546875  8.46153846153846 7.7734375  8.46153846153846 7.875  C 8.46153846153846 7.9765625  8.49959935897436 8.064453125  8.57572115384615 8.138671875  C 8.65184294871795 8.212890625  8.74198717948718 8.25  8.84615384615385 8.25  C 8.95032051282051 8.25  9.04046474358974 8.212890625  9.11658653846154 8.138671875  Z M 9.83173076923077 6.1640625  C 9.94391025641026 6.2734375  10 6.40625  10 6.5625  L 10 8.4375  C 10 8.59375  9.94391025641026 8.7265625  9.83173076923077 8.8359375  C 9.71955128205128 8.9453125  9.58333333333334 9  9.42307692307692 9  L 0.576923076923077 9  C 0.416666666666667 9  0.280448717948718 8.9453125  0.168269230769231 8.8359375  C 0.0560897435897436 8.7265625  0 8.59375  0 8.4375  L 0 6.5625  C 0 6.40625  0.0560897435897436 6.2734375  0.168269230769231 6.1640625  C 0.280448717948718 6.0546875  0.416666666666667 6  0.576923076923077 6  L 3.37139423076923 6  L 4.18269230769231 6.796875  C 4.4150641025641 7.015625  4.6875 7.125  5 7.125  C 5.3125 7.125  5.5849358974359 7.015625  5.81730769230769 6.796875  L 6.63461538461538 6  L 9.42307692307692 6  C 9.58333333333334 6  9.71955128205128 6.0546875  9.83173076923077 6.1640625  Z M 7.69230769230769 3  C 7.86057692307692 3  7.97876602564103 3.076171875  8.046875 3.228515625  C 8.11498397435898 3.388671875  8.0869391025641 3.525390625  7.96274038461538 3.638671875  L 5.27043269230769 6.263671875  C 5.19831730769231 6.337890625  5.10817307692308 6.375  5 6.375  C 4.89182692307692 6.375  4.80168269230769 6.337890625  4.72956730769231 6.263671875  L 2.03725961538462 3.638671875  C 1.9130608974359 3.525390625  1.88501602564103 3.388671875  1.953125 3.228515625  C 2.02123397435897 3.076171875  2.13942307692308 3  2.30769230769231 3  L 3.84615384615385 3  L 3.84615384615385 0.375  C 3.84615384615385 0.273437499999999  3.88421474358974 0.185546874999999  3.96033653846154 0.111328125  C 4.03645833333333 0.0371093750000006  4.12660256410256 0  4.23076923076923 0  L 5.76923076923077 0  C 5.87339743589744 0  5.96354166666667 0.0371093750000006  6.03966346153846 0.111328125  C 6.11578525641026 0.185546874999999  6.15384615384615 0.273437499999999  6.15384615384615 0.375  L 6.15384615384615 3  L 7.69230769230769 3  Z " fill-rule="nonzero" fill="#2262ae" stroke="none" transform="matrix(1 0 0 1 149 42 )" />
  </g>
</svg>