<svg xmlns="http://www.w3.org/2000/svg" class="w-full h-full" viewBox="0 0 1024 1024" version="1.1"><path d="M814.933333 914.666667H214.4c-54.933333 0-99.733333-44.8-99.733333-99.733334V214.4c0-54.933333 44.8-99.733333 99.733333-99.733333h600.533333c54.933333 0 99.733333 44.8 99.733334 99.733333v600.533333c0 54.933333-44.8 99.733333-99.733334 99.733334z" fill="#FF4C5E"/><path d="M349.866667 741.333333h-0.533334c-33.6 0-60.8-27.2-60.8-60.8v-80.533333c0-33.6 27.2-60.8 60.8-60.8h0.533334c33.6 0 60.8 27.2 60.8 60.8v80.533333c0 33.6-27.2 60.8-60.8 60.8zM685.866667 736h-0.533334c-33.6 0-60.8-27.2-60.8-60.8v-80.533333c0-33.6 27.2-60.8 60.8-60.8h0.533334c33.6 0 60.8 27.2 60.8 60.8v80.533333c0 33.6-27.2 60.8-60.8 60.8z" fill="#FDFDFD"/><path d="M347.2 538.666667C355.733333 451.733333 428.266667 384 517.333333 384s161.6 67.733333 170.133334 154.666667h58.666666c-8-118.933333-107.2-213.333333-228.8-213.333334s-220.266667 94.4-228.8 213.333334h58.666667zM704 538.666667h42.666667v96h-42.666667zM288 538.666667h53.333333v96H288z" fill="#FDFDFD"/></svg>
