<svg xmlns="http://www.w3.org/2000/svg" xmlns:xlink="http://www.w3.org/1999/xlink" version="1.1" width="1000" height="1000" viewBox="0 0 1000 1000" xml:space="preserve">
<desc>Created with Fabric.js 3.5.0</desc>
<defs>
</defs>
<rect x="0" y="0" width="100%" height="100%" fill="#ffffff"/>
<g transform="matrix(15.1903 0 0 15.1903 504.2114 504.9485)" id="744943">
<path style="stroke: none; stroke-width: 1; stroke-dasharray: none; stroke-linecap: butt; stroke-dashoffset: 0; stroke-linejoin: miter; stroke-miterlimit: 4; is-custom-font: none; font-file-url: none; fill: rgb(60,141,188); fill-rule: nonzero; opacity: 1;" vector-effect="non-scaling-stroke" transform=" translate(-20, -23.5)" d="M 30.1041666666667 1.78348214285714 L 38.2291666666667 9.96651785714286 C 38.7152777777778 10.4561011904762 39.1319444444444 11.1205357142857 39.4791666666667 11.9598214285714 C 39.8263888888889 12.7991071428571 40 13.5684523809524 40 14.2678571428571 L 40 44.4821428571429 C 40 45.1815476190476 39.7569444444444 45.7760416666667 39.2708333333333 46.265625 C 38.7847222222222 46.7552083333333 38.1944444444444 47 37.5 47 L 2.5 47 C 1.80555555555556 47 1.21527777777778 46.7552083333333 0.729166666666667 46.265625 C 0.243055555555556 45.7760416666667 0 45.1815476190476 0 44.4821428571429 L 0 2.51785714285714 C 0 1.81845238095238 0.243055555555556 1.22395833333333 0.729166666666667 0.734375 C 1.21527777777778 0.244791666666668 1.80555555555556 0 2.5 0 L 25.8333333333333 0 C 26.5277777777778 0 27.2916666666667 0.174851190476192 28.125 0.524553571428572 C 28.9583333333333 0.874255952380952 29.6180555555556 1.29389880952381 30.1041666666667 1.78348214285714 Z M 27.734375 4.14397321428572 C 27.5260416666667 3.93415178571428 27.1701388888889 3.74181547619047 26.6666666666667 3.56696428571428 L 26.6666666666667 13.4285714285714 L 36.4583333333333 13.4285714285714 C 36.2847222222222 12.9215029761905 36.09375 12.5630580357143 35.8854166666667 12.3532366071429 L 27.734375 4.14397321428572 Z M 4 43 L 36 43 L 36 17 L 25.8333333333333 17 C 25.1388888888889 16.7857142857143 24.5486111111111 16.5409226190476 24.0625 16.0513392857143 C 23.5763888888889 15.561755952381 23.3333333333333 14.9672619047619 23 14.2678571428571 L 23 4 L 4 4 L 4 43 Z M 10 22.6607142857143 L 10 20.9821428571429 C 10 20.7373511904762 10.078125 20.5362723214286 10.234375 20.37890625 C 10.390625 20.2215401785714 10.5902777777778 20.1428571428571 10.8333333333333 21 L 29.1666666666667 21 C 29.4097222222222 20.1428571428571 29.609375 20.2215401785714 29.765625 20.37890625 C 29.921875 20.5362723214286 30 20.7373511904762 30 20.9821428571429 L 30 22.6607142857143 C 30 22.905505952381 29.921875 23.1065848214286 29.765625 23.2639508928571 C 29.609375 23.4213169642857 29.4097222222222 23.5 29.1666666666667 23 L 10.8333333333333 23 C 10.5902777777778 23.5 10.390625 23.4213169642857 10.234375 23.2639508928571 C 10.078125 23.1065848214286 10 22.905505952381 10 22.6607142857143 Z M 10.8333333333333 26 L 29.1666666666667 26 C 29.4097222222222 26.8571428571429 29.609375 26.9358258928571 29.765625 27.0931919642857 C 29.921875 27.2505580357143 30 27.4516369047619 30 27.6964285714286 L 30 29.375 C 30 29.6197916666667 29.921875 29.8208705357143 29.765625 29.9782366071429 C 29.609375 30.1356026785714 29.4097222222222 30.2142857142857 29.1666666666667 30 L 10.8333333333333 30 C 10.5902777777778 30.2142857142857 10.390625 30.1356026785714 10.234375 29.9782366071429 C 10.078125 29.8208705357143 10 29.6197916666667 10 29.375 L 10 27.6964285714286 C 10 27.4516369047619 10.078125 27.2505580357143 10.234375 27.0931919642857 C 10.390625 26.9358258928571 10.5902777777778 26.8571428571429 10.8333333333333 26 Z M 10.8333333333333 33 L 29.1666666666667 33 C 29.4097222222222 33.5714285714286 29.609375 33.6501116071429 29.765625 33.8074776785714 C 29.921875 33.96484375 30 34.1659226190476 30 34.4107142857143 L 30 36.0892857142857 C 30 36.3340773809524 29.921875 36.53515625 29.765625 36.6925223214286 C 29.609375 36.8498883928571 29.4097222222222 36.9285714285714 29.1666666666667 37 L 10.8333333333333 37 C 10.5902777777778 36.9285714285714 10.390625 36.8498883928571 10.234375 36.6925223214286 C 10.078125 36.53515625 10 36.3340773809524 10 36.0892857142857 L 10 34.4107142857143 C 10 34.1659226190476 10.078125 33.96484375 10.234375 33.8074776785714 C 10.390625 33.6501116071429 10.5902777777778 33.5714285714286 10.8333333333333 33 Z" stroke-linecap="round"/>
</g>
</svg>