<?xml version="1.0" encoding="utf-8"?>
<!-- Generator: Adobe Illustrator 24.1.3, SVG Export Plug-In . SVG Version: 6.00 Build 0)  -->
<svg version="1.1" id="Layer_1" xmlns="http://www.w3.org/2000/svg" xmlns:xlink="http://www.w3.org/1999/xlink" x="0px" y="0px"
	 viewBox="0 0 64 64" style="enable-background:new 0 0 64 64;" xml:space="preserve">
<style type="text/css">
	.st0{opacity:0.2;enable-background:new    ;}
	.st1{fill:#2F84B6;}
	.st2{opacity:0.2;fill:#FFFFFF;enable-background:new    ;}
	.st3{fill:#9ED6F2;}
	.st4{fill:#FFFFFF;}
	.st5{fill:#FF4545;}
</style>
<path class="st0" d="M14.5,8C13.1,8,12,9.1,12,10.5v45c0,1.4,1.1,2.5,2.5,2.5h35c1.4,0,2.5-1.1,2.5-2.5V23l-13.8-1.3L37,8H14.5z"/>
<path class="st1" d="M14.5,7C13.1,7,12,8.1,12,9.5v45c0,1.4,1.1,2.5,2.5,2.5h35c1.4,0,2.5-1.1,2.5-2.5V22l-13.8-1.3L37,7H14.5z"/>
<path class="st2" d="M14.5,7C13.1,7,12,8.1,12,9.5v1C12,9.1,13.1,8,14.5,8H37l1.3,13.8L52,22l0,0l-13.8-1.3L37,7H14.5z"/>
<path class="st3" d="M37,7v12.5c0,1.4,1.1,2.5,2.5,2.5H52L37,7z"/>
<path class="st4" d="M21,29v3h22v-3H21z M21,35v3h22v-3H21z M21,41v3h22v-3H21z M21,47v3h16v-3H21z"/>
<path class="st4" d="M52,54.4h-9.7c-0.9,0-1.6-0.7-1.6-1.6v-6.4c0-0.9,0.7-1.6,1.6-1.6H52v-0.5h-9.7c-1.2,0-2.1,0.9-2.1,2.1v6.4
	c0,1.2,0.9,2.1,2.1,2.1H52V54.4z"/>
<path class="st5" d="M59.7,54.7H42.3c-1,0-1.9-0.8-1.9-1.9v-6.4c0-1,0.8-1.9,1.9-1.9h17.4c1,0,1.9,0.8,1.9,1.9v6.4
	C61.6,53.9,60.8,54.7,59.7,54.7z"/>
<path class="st4" d="M31.2,24.2H18.5c-0.8,0-1.5-0.7-1.5-1.5V15c0-0.8,0.7-1.5,1.5-1.5h12.7c0.8,0,1.5,0.7,1.5,1.5v7.7
	C32.7,23.5,32,24.2,31.2,24.2z"/>
<g>
	<path class="st1" d="M18.5,14.5h6.2V16h-6.2V14.5z M20.9,15.2h1.6V23h-1.6V15.2z"/>
	<path class="st1" d="M25.5,14.5h1.6V23h-1.6V14.5z M26.2,21.5h5V23h-5V21.5z"/>
</g>
<g>
	<path class="st4" d="M43.6,46.7h1.1v5.7h-1.1V46.7z M44.1,49.1h1.8c0.1,0,0.2,0,0.3-0.1s0.2-0.1,0.2-0.2c0.1-0.1,0.1-0.2,0.1-0.4
		c0-0.1,0-0.3-0.1-0.4s-0.1-0.2-0.2-0.3c-0.1-0.1-0.2-0.1-0.3-0.1h-1.8v-1h1.8c0.4,0,0.7,0.1,0.9,0.2c0.3,0.1,0.5,0.3,0.6,0.6
		s0.2,0.6,0.2,0.9c0,0.3-0.1,0.7-0.2,0.9c-0.1,0.3-0.4,0.5-0.6,0.6S46.2,50,45.9,50h-1.8C44.1,50,44.1,49.1,44.1,49.1z"/>
	<path class="st4" d="M48.6,46.7h1.1v5.7h-1.1V46.7z M49.1,51.3h1.4c0.4,0,0.6-0.1,0.8-0.3s0.3-0.4,0.3-0.7v-1.7
		c0-0.3-0.1-0.6-0.3-0.7s-0.5-0.3-0.8-0.3h-1.4v-1h1.3c0.5,0,0.9,0.1,1.2,0.2c0.3,0.2,0.6,0.4,0.8,0.7s0.3,0.7,0.3,1.1v1.6
		c0,0.4-0.1,0.8-0.3,1.1S52,51.8,51.6,52s-0.8,0.3-1.2,0.3h-1.3V51.3z"/>
	<path class="st4" d="M53.9,46.7H55v5.7h-1.1V46.7z M54.3,46.7h3.4v1h-3.4V46.7z M54.3,49.1h2.9v1h-2.9V49.1z"/>
</g>
</svg>
