<svg xmlns="http://www.w3.org/2000/svg" viewBox="0 0 500 500"><g id="freepik--background-complete--inject-94"><rect x="416.78" y="398.49" width="33.12" height="0.25" style="fill:#ebebeb"></rect><rect x="322.53" y="401.21" width="8.69" height="0.25" style="fill:#ebebeb"></rect><rect x="396.59" y="389.21" width="19.19" height="0.25" style="fill:#ebebeb"></rect><rect x="52.46" y="390.89" width="43.19" height="0.25" style="fill:#ebebeb"></rect><rect x="104.56" y="390.89" width="6.33" height="0.25" style="fill:#ebebeb"></rect><rect x="131.47" y="395.11" width="93.68" height="0.25" style="fill:#ebebeb"></rect><path d="M237,337.8H43.92a5.71,5.71,0,0,1-5.71-5.71V60.66A5.71,5.71,0,0,1,43.92,55H237a5.71,5.71,0,0,1,5.71,5.71V332.09A5.71,5.71,0,0,1,237,337.8ZM43.92,55.2a5.47,5.47,0,0,0-5.46,5.46V332.09a5.47,5.47,0,0,0,5.46,5.46H237a5.47,5.47,0,0,0,5.46-5.46V60.66A5.47,5.47,0,0,0,237,55.2Z" style="fill:#ebebeb"></path><path d="M453.31,337.8H260.21a5.72,5.72,0,0,1-5.71-5.71V60.66A5.72,5.72,0,0,1,260.21,55h193.1A5.71,5.71,0,0,1,459,60.66V332.09A5.71,5.71,0,0,1,453.31,337.8ZM260.21,55.2a5.47,5.47,0,0,0-5.46,5.46V332.09a5.47,5.47,0,0,0,5.46,5.46h193.1a5.47,5.47,0,0,0,5.46-5.46V60.66a5.47,5.47,0,0,0-5.46-5.46Z" style="fill:#ebebeb"></path><rect y="382.4" width="500" height="0.25" style="fill:#ebebeb"></rect><rect x="166.56" y="291.33" width="86.41" height="80.51" style="fill:#e6e6e6"></rect><rect x="169.28" y="374.37" width="11.03" height="7.04" style="fill:#e0e0e0"></rect><rect x="252.97" y="291.33" width="175.46" height="79.73" style="fill:#e6e6e6"></rect><rect x="430.79" y="285.4" width="11.03" height="96.01" style="fill:#e6e6e6"></rect><rect x="261.52" y="297.68" width="76.06" height="69.66" style="fill:#f5f5f5"></rect><polygon points="274.36 367.34 294.67 367.34 301.99 297.68 281.69 297.68 274.36 367.34" style="fill:#fafafa"></polygon><polygon points="299.87 367.34 303.91 367.34 311.23 297.68 307.19 297.68 299.87 367.34" style="fill:#fafafa"></polygon><rect x="174.79" y="297.68" width="76.06" height="69.66" style="fill:#f5f5f5"></rect><rect x="349.08" y="297.68" width="76.06" height="69.66" style="fill:#f5f5f5"></rect><path d="M428,285.4H163.42v96h5.88V376H425v5.38h5.89v-96ZM169.3,294.09h80.83v33.35H169.3Zm0,73.25V332.4h80.83v34.94Zm168.28,0H256V294.09h81.57Zm87.46,0H343.47V332.4H425Zm0-39.9H343.47V294.09H425Z" style="fill:#f0f0f0"></path><path d="M214.07,305.94a3.54,3.54,0,1,1-3.53-3.54A3.53,3.53,0,0,1,214.07,305.94Z" style="fill:#ebebeb"></path><path d="M210.54,309.47a3.54,3.54,0,0,1-3.21-2.06,3.53,3.53,0,1,0,6.74,1.47,3.41,3.41,0,0,0-.33-1.47A3.53,3.53,0,0,1,210.54,309.47Z" style="fill:#e0e0e0"></path><circle cx="210.54" cy="347" r="3.53" style="fill:#ebebeb"></circle><path d="M210.54,350.53a3.54,3.54,0,0,1-3.21-2.06,3.53,3.53,0,1,0,6.74,1.47,3.41,3.41,0,0,0-.33-1.47A3.53,3.53,0,0,1,210.54,350.53Z" style="fill:#e0e0e0"></path><path d="M392.37,305.94a3.54,3.54,0,1,1-3.54-3.54A3.53,3.53,0,0,1,392.37,305.94Z" style="fill:#ebebeb"></path><path d="M388.83,309.47a3.53,3.53,0,0,1-3.2-2.06,3.41,3.41,0,0,0-.33,1.47,3.54,3.54,0,1,0,6.74-1.47A3.54,3.54,0,0,1,388.83,309.47Z" style="fill:#e0e0e0"></path><path d="M330.4,334.54a3.53,3.53,0,1,1-3.53-3.53A3.53,3.53,0,0,1,330.4,334.54Z" style="fill:#ebebeb"></path><path d="M326.87,338.08a3.53,3.53,0,0,1-3.2-2.06,3.41,3.41,0,0,0-.33,1.47,3.53,3.53,0,1,0,6.74-1.47A3.54,3.54,0,0,1,326.87,338.08Z" style="fill:#e0e0e0"></path><circle cx="388.83" cy="347" r="3.53" style="fill:#ebebeb"></circle><path d="M388.83,350.53a3.53,3.53,0,0,1-3.2-2.06,3.41,3.41,0,0,0-.33,1.47,3.54,3.54,0,1,0,6.74-1.47A3.54,3.54,0,0,1,388.83,350.53Z" style="fill:#e0e0e0"></path><rect x="66.5" y="77.42" width="67.56" height="100.69" style="opacity:0.1"></rect><rect x="63.76" y="74.68" width="67.56" height="100.69" style="fill:#ebebeb"></rect><rect x="69.79" y="83.19" width="58.24" height="86.8" style="fill:#f5f5f5"></rect><path d="M113.42,116.28a11.69,11.69,0,1,1-11.69-11.69A11.68,11.68,0,0,1,113.42,116.28Z" style="fill:#e0e0e0"></path><polygon points="88.41 147.19 98.15 135.54 101.73 147.19 88.41 147.19" style="fill:#ebebeb"></polygon><path d="M80.18,96.05c-8.17,13.31-2.26,29.84,7,40.7,1.43,1.67,3.83-.75,2.41-2.41-8.3-9.7-13.83-24.64-6.5-36.58,1.16-1.87-1.79-3.58-2.94-1.71Z" style="fill:#ebebeb"></path><polygon points="120.54 95.24 114.3 101.63 120.54 106.97 126.22 101.11 120.54 95.24" style="fill:#ebebeb"></polygon><polygon points="131.32 74.68 134.06 77.42 134.06 178.11 66.5 178.11 63.76 175.37 131.32 175.37 131.32 74.68" style="fill:#e0e0e0"></polygon><path d="M54.08,283.46c0-8.51,10-15.72,23.85-18.18L64.26,248.94h48.31L98.89,265.28c13.84,2.46,23.86,9.67,23.86,18.18,0,9.38-12.15,77.94-28.17,93l5,6H77.2l5-6C66.23,361.4,54.08,292.84,54.08,283.46Z" style="fill:#f0f0f0"></path><path d="M106.92,353.76c-5.76-4.18-9.73-12.85-9.73-22.9,0-14.12,7.84-25.58,17.5-25.58a12.58,12.58,0,0,1,4.73,1C116.65,320.67,112.3,339,106.92,353.76Z" style="fill:#e0e0e0"></path><path d="M64.56,269.74c6.43,3.78,11,13,11,23.72,0,13.14-6.78,24-15.5,25.4-3.75-16.72-6-31.41-6-35.4C54.08,278.07,58.1,273.21,64.56,269.74Z" style="fill:#e6e6e6"></path><path d="M413.42,189.9a5,5,0,0,1-1.1,1.6,4.49,4.49,0,0,1-.83.68,4.6,4.6,0,0,1-2.65.77,3.12,3.12,0,0,1-2.64-2.61,3.21,3.21,0,0,1,1.46-3.23l.52.85a2.22,2.22,0,0,0-1,2.2c.15.83.9,1.77,1.68,1.8a4,4,0,0,0,3.63-2.46,3.36,3.36,0,0,0-.86-3.86,4.08,4.08,0,0,0-3.49-1.26A7.76,7.76,0,0,0,403,188.2c-2.49,4.09-2.32,8.88-1.75,12.18a30.29,30.29,0,0,0,1.89,6.29c.17.42.35.84.54,1.25.7,1.59,1.48,3.13,2.24,4.65,2.07,4.13,4.2,8.38,4.83,13.26.06.44.11.9.14,1.36s.05.87.06,1.31c0,.29,0,.59,0,.88.05,10.76-5.13,20.55-13.65,25.82l-.21-1.06c7.83-5,12.76-14.4,12.85-24.41,0-.11,0-.23,0-.35,0-.33,0-.67,0-1s0-.75-.06-1.12c0-.22,0-.44-.06-.66a21,21,0,0,0-.4-2.54c-.82-3.9-2.57-7.39-4.4-11-1.06-2.12-2.14-4.27-3-6.53-.4-1-.76-2-1.07-3.09a26.82,26.82,0,0,1-.66-2.85c-.87-5-.22-9.42,1.87-12.87a8.8,8.8,0,0,1,5.9-4.29,4.88,4.88,0,0,1,3.38.78,4.62,4.62,0,0,1,.83.66.87.87,0,0,1,.11.09A4.38,4.38,0,0,1,413.42,189.9Z" style="fill:#e6e6e6"></path><path d="M409.79,226.61c-1.73-3.42-5.11-6.62-7.52-7.15l.21-1c2.72.59,6.32,4,8.2,7.68Z" style="fill:#e6e6e6"></path><path d="M410.85,229.7l-1,0a8.24,8.24,0,0,1,2.62-6.23l.68.74A7.23,7.23,0,0,0,410.85,229.7Z" style="fill:#e6e6e6"></path><path d="M402,206.51a62.75,62.75,0,0,0-6.39-7.71l.73-.69a67.5,67.5,0,0,1,6.49,7.84Z" style="fill:#e6e6e6"></path><rect x="402.15" y="205.76" width="3.38" height="1" transform="translate(53.94 494.7) rotate(-66.56)" style="fill:#e6e6e6"></rect><path d="M415.17,193.4a9.15,9.15,0,0,1-4.18-1.54l.56-.83a8.14,8.14,0,0,0,3.73,1.38Z" style="fill:#e6e6e6"></path><rect x="410.23" y="182.96" width="3.84" height="1" transform="translate(109.31 517.84) rotate(-71.83)" style="fill:#e6e6e6"></rect><path d="M408.62,196.92a2,2,0,0,1,2.34.35c.64.75.38,1.9,0,2.82-.91,2.28-3.89,8.75-7,6C401,203.59,406.25,198,408.62,196.92Z" style="fill:#e6e6e6"></path><path d="M398.15,197.82a2,2,0,0,1,0,2.36c-.66.74-1.83.65-2.79.42-2.39-.57-9.23-2.58-7-6C390.45,191.26,396.74,195.62,398.15,197.82Z" style="fill:#e6e6e6"></path><path d="M405.29,215.91c-2.83-4.19-9.1-6.73-14.71-6-2.63.36-3,4.33-2.19,6.45s2.92,3.86,5.35,4.92a11.58,11.58,0,0,0,8.1.63C404.35,221.05,406.67,217.94,405.29,215.91Z" style="fill:#e6e6e6"></path><path d="M423.59,215.71c-3-.41-6.16-.59-8.9.66s-4.86,4.36-4,7.26a4.6,4.6,0,0,0,4.95,3.24c2.23-.23,4.14-1.67,5.76-3.22a8.37,8.37,0,0,0,2.5-3.6C424.29,218.62,425.06,215.91,423.59,215.71Z" style="fill:#e6e6e6"></path><path d="M412.16,183.78a6.55,6.55,0,0,1-.68-3.52,3.38,3.38,0,0,1,2.06-2.77,2.32,2.32,0,0,1,2.94,1.37,4.32,4.32,0,0,1-1,3.88A3.25,3.25,0,0,1,412.16,183.78Z" style="fill:#e6e6e6"></path><path d="M423.71,196.08a6.28,6.28,0,0,1-10.42-4,6.5,6.5,0,0,1,6.22-1A6.92,6.92,0,0,1,423.71,196.08Z" style="fill:#e6e6e6"></path><path d="M412,283.5l2.14,2.56h-9.52l2.15-2.56c-4.45-4.19-8.19-18.08-10.24-28.3l-.21-1.06a77.36,77.36,0,0,1-1.5-10.11c0-3.62,4.25-6.68,10.12-7.72l-5.8-6.93H419.6l-5.8,6.93c5.87,1,10.12,4.1,10.12,7.72C423.92,248,418.77,277.09,412,283.5Z" style="fill:#f0f0f0"></path></g><g id="freepik--Shadow--inject-94"><ellipse id="freepik--path--inject-94" cx="245.18" cy="412.39" rx="193.89" ry="11.32" style="fill:#f5f5f5"></ellipse></g><g id="freepik--Device--inject-94"><path d="M342.85,339.83H246.56a18.06,18.06,0,0,1-18.25-19.62l16.1-230.15a21.35,21.35,0,0,1,21-19.61h96.29a18.05,18.05,0,0,1,18.25,19.61l-16.1,230.15A21.36,21.36,0,0,1,342.85,339.83Z" style="fill:#407BFF"></path><path d="M337.85,339.83H241.56a18.06,18.06,0,0,1-18.25-19.62l16.1-230.15a21.35,21.35,0,0,1,21-19.61h96.29a18.05,18.05,0,0,1,18.25,19.61l-16.1,230.15A21.36,21.36,0,0,1,337.85,339.83Z" style="fill:#263238"></path><path d="M356.37,75h-25a3.56,3.56,0,0,0-3.43,2.84l-.15.79a8.68,8.68,0,0,1-8.38,6.94H295.59a7.3,7.3,0,0,1-7.41-6.94l0-.79a3,3,0,0,0-3-2.84h-25a16.46,16.46,0,0,0-16.17,15.11l-16.1,230.15a13.92,13.92,0,0,0,14.06,15.12h96.29a16.46,16.46,0,0,0,16.17-15.12l16.1-230.15A13.91,13.91,0,0,0,356.37,75Z" style="fill:#407BFF"></path><path d="M370.43,90.07,354.34,320.22a16.47,16.47,0,0,1-16.18,15.11H241.87a13.89,13.89,0,0,1-14.05-15.11L243.91,90.07A16.46,16.46,0,0,1,260.08,75h25a3,3,0,0,1,3,2.85l0,.78a7.32,7.32,0,0,0,7.41,7h23.79a8.66,8.66,0,0,0,8.37-7l.16-.78A3.56,3.56,0,0,1,331.35,75h25A13.92,13.92,0,0,1,370.43,90.07Z" style="fill:#fff;opacity:0.8"></path><path d="M356.27,292.56l-1.93,27.66a16.47,16.47,0,0,1-16.18,15.11H241.87a13.89,13.89,0,0,1-14.05-15.11l1.93-27.66Z" style="fill:#263238"></path><path d="M356.27,292.56l-1.93,27.66a16.47,16.47,0,0,1-16.18,15.11H241.87a13.89,13.89,0,0,1-14.05-15.11l1.93-27.66Z" style="fill:#fff;opacity:0.5"></path><g style="opacity:0.7000000000000001"><path d="M302.22,77.5a2.07,2.07,0,0,1-2,1.91,1.75,1.75,0,0,1-1.78-1.91,2.07,2.07,0,0,1,2-1.91A1.75,1.75,0,0,1,302.22,77.5Z"></path><path d="M315.92,75.59h-6.56a2.08,2.08,0,0,0-2.05,1.91,1.76,1.76,0,0,0,1.78,1.91h6.56a2.07,2.07,0,0,0,2-1.91A1.75,1.75,0,0,0,315.92,75.59Z"></path></g><polygon points="254.71 85.49 256.73 85.49 256.87 83.46 254.85 83.46 254.71 85.49" style="fill:#407BFF"></polygon><polygon points="258.9 83.46 258.76 85.49 260.78 85.49 260.93 83.46 261.07 81.44 259.04 81.44 258.9 83.46" style="fill:#407BFF"></polygon><polygon points="263.23 79.41 263.09 81.44 262.95 83.46 262.81 85.49 264.83 85.49 264.98 83.46 265.12 81.44 265.26 79.41 263.23 79.41" style="fill:#407BFF"></polygon><path d="M350.3,79.55,350.2,81h-1L349,84h1l-.1,1.49h8.91l.41-5.94ZM354,84h-3l.21-3h3Z" style="fill:#407BFF"></path><path d="M260.45,194.32h-.68a.77.77,0,0,1-.78-.84l1-14.33a5.54,5.54,0,0,1,5.44-5.07h14.32a.77.77,0,0,1,.78.84l0,.67a.9.9,0,0,1-.9.84H265.26a3,3,0,0,0-2.91,2.72l-1,14.33A.92.92,0,0,1,260.45,194.32Z" style="fill:#407BFF"></path><path d="M314.77,253.46l.05-.68a.91.91,0,0,1,.89-.84H330a3,3,0,0,0,2.92-2.72l1-14.33a.91.91,0,0,1,.9-.84h.67a.78.78,0,0,1,.79.84l-1,14.33a5.53,5.53,0,0,1-5.43,5.08H315.55A.78.78,0,0,1,314.77,253.46Z" style="fill:#407BFF"></path><path d="M338.31,194.32h-.68a.77.77,0,0,1-.78-.84l1-14.22a2.71,2.71,0,0,0-.36-1.63,2.5,2.5,0,0,0-2.17-1.19H321a.78.78,0,0,1-.78-.84l.05-.68a.91.91,0,0,1,.9-.84h14.13a5,5,0,0,1,3.36,1.18,4.67,4.67,0,0,1,1.56,3.9l-1,14.32A.92.92,0,0,1,338.31,194.32Z" style="fill:#407BFF"></path><path d="M259.81,254.3a4.69,4.69,0,0,1-3.78-1.83,5,5,0,0,1-.93-3.44l1-14.14a.92.92,0,0,1,.9-.84h.68a.78.78,0,0,1,.78.84l-1,14.24a2.66,2.66,0,0,0,.36,1.62,2.5,2.5,0,0,0,2.16,1.19H274.3a.78.78,0,0,1,.79.84l0,.68a.92.92,0,0,1-.9.84Z" style="fill:#407BFF"></path><path d="M273.4,274.51a3.07,3.07,0,0,1-2.34,1c-1.25,0-2.09-.45-3.29-1.82a3.94,3.94,0,0,1-3.62-4.31,4.72,4.72,0,0,1,4.89-4.34,4,4,0,0,1,4.29,4.34,4.61,4.61,0,0,1-3.28,4.11,1.41,1.41,0,0,0,1.14.58,1.94,1.94,0,0,0,1.41-.62Zm-4.85-2.41a2.79,2.79,0,0,0,2.82-2.69,2.36,2.36,0,0,0-2.44-2.68,2.79,2.79,0,0,0-2.82,2.68A2.36,2.36,0,0,0,268.55,272.1Z" style="fill:#263238"></path><path d="M279.86,273.61l-1.46-2.34h-1.79l-.16,2.34h-1.94l.59-8.39h3.63c2.24,0,3.56,1.16,3.43,3a3,3,0,0,1-1.91,2.65l1.69,2.7Zm-1.35-6.81h-1.58l-.21,2.93h1.59c1.18,0,1.82-.56,1.89-1.47S279.7,266.8,278.51,266.8Z" style="fill:#263238"></path><path d="M286.49,269.41a4.69,4.69,0,0,1,4.86-4.34,4,4,0,0,1,3.35,1.49l-1.33,1.15a2.49,2.49,0,0,0-2-1,2.79,2.79,0,0,0-2.87,2.68,2.37,2.37,0,0,0,2.5,2.69,2.89,2.89,0,0,0,2.18-1l1.16,1.15a4.64,4.64,0,0,1-3.57,1.5A4,4,0,0,1,286.49,269.41Z" style="fill:#263238"></path><path d="M295.11,269.41a4.72,4.72,0,0,1,4.89-4.34,4,4,0,0,1,4.29,4.34,4.72,4.72,0,0,1-4.89,4.35A4,4,0,0,1,295.11,269.41Zm7.22,0a2.36,2.36,0,0,0-2.44-2.68,2.79,2.79,0,0,0-2.82,2.68,2.36,2.36,0,0,0,2.44,2.69A2.79,2.79,0,0,0,302.33,269.41Z" style="fill:#263238"></path><path d="M306.05,265.22h3.82c2.74,0,4.51,1.65,4.33,4.19s-2.17,4.2-4.92,4.2h-3.81Zm3.25,6.8a2.73,2.73,0,0,0,2.94-2.61,2.32,2.32,0,0,0-2.58-2.6h-1.77l-.37,5.21Z" style="fill:#263238"></path><path d="M322,272.05l-.11,1.56h-6.5l.59-8.39h6.34l-.11,1.56h-4.41l-.13,1.82h3.9l-.11,1.51h-3.9l-.13,1.94Z" style="fill:#263238"></path><polygon points="366.92 140.23 240.06 140.23 243.05 97.46 369.91 97.46 366.92 140.23" style="fill:#407BFF"></polygon><path d="M228.08,319.41a14.06,14.06,0,0,0,3.79,10.79l134.78-252a14,14,0,0,0-10-4.07h-96.3a16.48,16.48,0,0,0-16.17,15.12Z" style="fill:#fff;opacity:0.2"></path><rect x="259.96" y="118.34" width="27.68" height="1" transform="translate(136.26 383.75) rotate(-86.02)" style="fill:#e0e0e0"></rect><rect x="291.59" y="118.34" width="27.68" height="1" transform="translate(165.7 415.3) rotate(-86.02)" style="fill:#e0e0e0"></rect><rect x="323.22" y="118.34" width="27.68" height="1" transform="translate(195.15 446.86) rotate(-86.03)" style="fill:#e0e0e0"></rect></g><g id="freepik--qr-code--inject-94"><polygon points="266.55 180.42 266.37 183.1 269.05 183.1 269.24 180.42 266.55 180.42" style="fill:#263238"></polygon><polygon points="269.24 180.42 269.05 183.1 271.74 183.1 271.92 180.42 269.24 180.42" style="fill:#263238"></polygon><polygon points="271.92 180.42 271.74 183.1 274.42 183.1 274.61 180.42 271.92 180.42" style="fill:#263238"></polygon><polygon points="274.61 180.42 274.42 183.1 277.11 183.1 277.29 180.42 274.61 180.42" style="fill:#263238"></polygon><polygon points="277.29 180.42 277.11 183.1 279.79 183.1 279.98 180.42 277.29 180.42" style="fill:#263238"></polygon><polygon points="279.98 180.42 279.79 183.1 282.48 183.1 282.67 180.42 279.98 180.42" style="fill:#263238"></polygon><polygon points="282.67 180.42 282.48 183.1 285.16 183.1 285.35 180.42 282.67 180.42" style="fill:#263238"></polygon><polygon points="293.41 180.42 293.22 183.1 295.9 183.1 296.09 180.42 293.41 180.42" style="fill:#263238"></polygon><polygon points="301.46 180.42 301.27 183.1 303.96 183.1 304.15 180.42 301.46 180.42" style="fill:#263238"></polygon><polygon points="304.15 180.42 303.96 183.1 306.64 183.1 306.83 180.42 304.15 180.42" style="fill:#263238"></polygon><polygon points="306.83 180.42 306.64 183.1 309.33 183.1 309.52 180.42 306.83 180.42" style="fill:#263238"></polygon><polygon points="309.52 180.42 309.33 183.1 312.01 183.1 312.2 180.42 309.52 180.42" style="fill:#263238"></polygon><polygon points="314.89 180.42 314.7 183.1 317.38 183.1 317.57 180.42 314.89 180.42" style="fill:#263238"></polygon><polygon points="317.57 180.42 317.38 183.1 320.07 183.1 320.26 180.42 317.57 180.42" style="fill:#263238"></polygon><polygon points="320.26 180.42 320.07 183.1 322.76 183.1 322.94 180.42 320.26 180.42" style="fill:#263238"></polygon><polygon points="322.94 180.42 322.76 183.1 325.44 183.1 325.63 180.42 322.94 180.42" style="fill:#263238"></polygon><polygon points="325.63 180.42 325.44 183.1 328.13 183.1 328.31 180.42 325.63 180.42" style="fill:#263238"></polygon><polygon points="328.31 180.42 328.13 183.1 330.81 183.1 331 180.42 328.31 180.42" style="fill:#263238"></polygon><polygon points="331 180.42 330.81 183.1 333.5 183.1 333.69 180.42 331 180.42" style="fill:#263238"></polygon><polygon points="266.37 183.1 266.18 185.79 268.86 185.79 269.05 183.1 266.37 183.1" style="fill:#263238"></polygon><polygon points="282.48 183.1 282.29 185.79 284.97 185.79 285.16 183.1 282.48 183.1" style="fill:#263238"></polygon><polygon points="290.53 183.1 290.35 185.79 293.03 185.79 293.22 183.1 290.53 183.1" style="fill:#263238"></polygon><polygon points="303.96 183.1 303.77 185.79 306.46 185.79 306.64 183.1 303.96 183.1" style="fill:#263238"></polygon><polygon points="306.64 183.1 306.46 185.79 309.14 185.79 309.33 183.1 306.64 183.1" style="fill:#263238"></polygon><polygon points="309.33 183.1 309.14 185.79 311.83 185.79 312.01 183.1 309.33 183.1" style="fill:#263238"></polygon><polygon points="314.7 183.1 314.51 185.79 317.2 185.79 317.38 183.1 314.7 183.1" style="fill:#263238"></polygon><polygon points="330.81 183.1 330.62 185.79 333.31 185.79 333.5 183.1 330.81 183.1" style="fill:#263238"></polygon><polygon points="266.18 185.79 265.99 188.47 268.68 188.47 268.86 185.79 266.18 185.79" style="fill:#263238"></polygon><polygon points="271.55 185.79 271.36 188.47 274.05 188.47 274.23 185.79 271.55 185.79" style="fill:#263238"></polygon><polygon points="274.23 185.79 274.05 188.47 276.73 188.47 276.92 185.79 274.23 185.79" style="fill:#263238"></polygon><polygon points="276.92 185.79 276.73 188.47 279.42 188.47 279.6 185.79 276.92 185.79" style="fill:#263238"></polygon><polygon points="282.29 185.79 282.1 188.47 284.79 188.47 284.97 185.79 282.29 185.79" style="fill:#263238"></polygon><polygon points="287.66 185.79 287.47 188.47 290.16 188.47 290.35 185.79 287.66 185.79" style="fill:#263238"></polygon><polygon points="295.72 185.79 295.53 188.47 298.21 188.47 298.4 185.79 295.72 185.79" style="fill:#263238"></polygon><polygon points="303.77 185.79 303.58 188.47 306.27 188.47 306.46 185.79 303.77 185.79" style="fill:#263238"></polygon><polygon points="314.51 185.79 314.32 188.47 317.01 188.47 317.2 185.79 314.51 185.79" style="fill:#263238"></polygon><polygon points="319.88 185.79 319.69 188.47 322.38 188.47 322.57 185.79 319.88 185.79" style="fill:#263238"></polygon><polygon points="322.57 185.79 322.38 188.47 325.07 188.47 325.25 185.79 322.57 185.79" style="fill:#263238"></polygon><polygon points="325.25 185.79 325.07 188.47 327.75 188.47 327.94 185.79 325.25 185.79" style="fill:#263238"></polygon><polygon points="330.62 185.79 330.44 188.47 333.12 188.47 333.31 185.79 330.62 185.79" style="fill:#263238"></polygon><polygon points="265.99 188.47 265.8 191.16 268.49 191.16 268.68 188.47 265.99 188.47" style="fill:#263238"></polygon><polygon points="271.36 188.47 271.17 191.16 273.86 191.16 274.05 188.47 271.36 188.47" style="fill:#263238"></polygon><polygon points="274.05 188.47 273.86 191.16 276.54 191.16 276.73 188.47 274.05 188.47" style="fill:#263238"></polygon><polygon points="276.73 188.47 276.54 191.16 279.23 191.16 279.42 188.47 276.73 188.47" style="fill:#263238"></polygon><polygon points="282.1 188.47 281.91 191.16 284.6 191.16 284.79 188.47 282.1 188.47" style="fill:#263238"></polygon><polygon points="290.16 188.47 289.97 191.16 292.65 191.16 292.84 188.47 290.16 188.47" style="fill:#263238"></polygon><polygon points="303.58 188.47 303.4 191.16 306.08 191.16 306.27 188.47 303.58 188.47" style="fill:#263238"></polygon><polygon points="306.27 188.47 306.08 191.16 308.77 191.16 308.95 188.47 306.27 188.47" style="fill:#263238"></polygon><polygon points="314.32 188.47 314.14 191.16 316.82 191.16 317.01 188.47 314.32 188.47" style="fill:#263238"></polygon><polygon points="319.69 188.47 319.51 191.16 322.19 191.16 322.38 188.47 319.69 188.47" style="fill:#263238"></polygon><polygon points="322.38 188.47 322.19 191.16 324.88 191.16 325.07 188.47 322.38 188.47" style="fill:#263238"></polygon><polygon points="325.07 188.47 324.88 191.16 327.56 191.16 327.75 188.47 325.07 188.47" style="fill:#263238"></polygon><polygon points="330.44 188.47 330.25 191.16 332.93 191.16 333.12 188.47 330.44 188.47" style="fill:#263238"></polygon><polygon points="265.8 191.16 265.61 193.84 268.3 193.84 268.49 191.16 265.8 191.16" style="fill:#263238"></polygon><polygon points="271.17 191.16 270.99 193.84 273.67 193.84 273.86 191.16 271.17 191.16" style="fill:#263238"></polygon><polygon points="273.86 191.16 273.67 193.84 276.36 193.84 276.54 191.16 273.86 191.16" style="fill:#263238"></polygon><polygon points="276.54 191.16 276.36 193.84 279.04 193.84 279.23 191.16 276.54 191.16" style="fill:#263238"></polygon><polygon points="281.91 191.16 281.73 193.84 284.41 193.84 284.6 191.16 281.91 191.16" style="fill:#263238"></polygon><polygon points="289.97 191.16 289.78 193.84 292.47 193.84 292.65 191.16 289.97 191.16" style="fill:#263238"></polygon><polygon points="298.02 191.16 297.84 193.84 300.52 193.84 300.71 191.16 298.02 191.16" style="fill:#263238"></polygon><polygon points="300.71 191.16 300.52 193.84 303.21 193.84 303.4 191.16 300.71 191.16" style="fill:#263238"></polygon><polygon points="303.4 191.16 303.21 193.84 305.89 193.84 306.08 191.16 303.4 191.16" style="fill:#263238"></polygon><polygon points="306.08 191.16 305.89 193.84 308.58 193.84 308.77 191.16 306.08 191.16" style="fill:#263238"></polygon><polygon points="314.14 191.16 313.95 193.84 316.63 193.84 316.82 191.16 314.14 191.16" style="fill:#263238"></polygon><polygon points="319.51 191.16 319.32 193.84 322 193.84 322.19 191.16 319.51 191.16" style="fill:#263238"></polygon><polygon points="322.19 191.16 322 193.84 324.69 193.84 324.88 191.16 322.19 191.16" style="fill:#263238"></polygon><polygon points="324.88 191.16 324.69 193.84 327.38 193.84 327.56 191.16 324.88 191.16" style="fill:#263238"></polygon><polygon points="330.25 191.16 330.06 193.84 332.75 193.84 332.93 191.16 330.25 191.16" style="fill:#263238"></polygon><polygon points="265.61 193.84 265.43 196.53 268.11 196.53 268.3 193.84 265.61 193.84" style="fill:#263238"></polygon><polygon points="281.73 193.84 281.54 196.53 284.22 196.53 284.41 193.84 281.73 193.84" style="fill:#263238"></polygon><polygon points="292.47 193.84 292.28 196.53 294.96 196.53 295.15 193.84 292.47 193.84" style="fill:#263238"></polygon><polygon points="295.15 193.84 294.96 196.53 297.65 196.53 297.84 193.84 295.15 193.84" style="fill:#263238"></polygon><polygon points="300.52 193.84 300.33 196.53 303.02 196.53 303.21 193.84 300.52 193.84" style="fill:#263238"></polygon><polygon points="303.21 193.84 303.02 196.53 305.7 196.53 305.89 193.84 303.21 193.84" style="fill:#263238"></polygon><polygon points="305.89 193.84 305.7 196.53 308.39 196.53 308.58 193.84 305.89 193.84" style="fill:#263238"></polygon><polygon points="308.58 193.84 308.39 196.53 311.08 196.53 311.26 193.84 308.58 193.84" style="fill:#263238"></polygon><polygon points="313.95 193.84 313.76 196.53 316.45 196.53 316.63 193.84 313.95 193.84" style="fill:#263238"></polygon><polygon points="330.06 193.84 329.87 196.53 332.56 196.53 332.75 193.84 330.06 193.84" style="fill:#263238"></polygon><polygon points="265.43 196.53 265.24 199.22 267.92 199.22 268.11 196.53 265.43 196.53" style="fill:#263238"></polygon><polygon points="268.11 196.53 267.92 199.22 270.61 199.22 270.8 196.53 268.11 196.53" style="fill:#263238"></polygon><polygon points="270.8 196.53 270.61 199.22 273.29 199.22 273.48 196.53 270.8 196.53" style="fill:#263238"></polygon><polygon points="273.48 196.53 273.29 199.22 275.98 199.22 276.17 196.53 273.48 196.53" style="fill:#263238"></polygon><polygon points="276.17 196.53 275.98 199.22 278.67 199.22 278.85 196.53 276.17 196.53" style="fill:#263238"></polygon><polygon points="278.85 196.53 278.67 199.22 281.35 199.22 281.54 196.53 278.85 196.53" style="fill:#263238"></polygon><polygon points="281.54 196.53 281.35 199.22 284.04 199.22 284.22 196.53 281.54 196.53" style="fill:#263238"></polygon><polygon points="286.91 196.53 286.72 199.22 289.41 199.22 289.59 196.53 286.91 196.53" style="fill:#263238"></polygon><polygon points="292.28 196.53 292.09 199.22 294.78 199.22 294.96 196.53 292.28 196.53" style="fill:#263238"></polygon><polygon points="297.65 196.53 297.46 199.22 300.15 199.22 300.33 196.53 297.65 196.53" style="fill:#263238"></polygon><polygon points="303.02 196.53 302.83 199.22 305.52 199.22 305.7 196.53 303.02 196.53" style="fill:#263238"></polygon><polygon points="308.39 196.53 308.2 199.22 310.89 199.22 311.08 196.53 308.39 196.53" style="fill:#263238"></polygon><polygon points="313.76 196.53 313.57 199.22 316.26 199.22 316.45 196.53 313.76 196.53" style="fill:#263238"></polygon><polygon points="316.45 196.53 316.26 199.22 318.94 199.22 319.13 196.53 316.45 196.53" style="fill:#263238"></polygon><polygon points="319.13 196.53 318.94 199.22 321.63 199.22 321.82 196.53 319.13 196.53" style="fill:#263238"></polygon><polygon points="321.82 196.53 321.63 199.22 324.31 199.22 324.5 196.53 321.82 196.53" style="fill:#263238"></polygon><polygon points="324.5 196.53 324.31 199.22 327 199.22 327.19 196.53 324.5 196.53" style="fill:#263238"></polygon><polygon points="327.19 196.53 327 199.22 329.69 199.22 329.87 196.53 327.19 196.53" style="fill:#263238"></polygon><polygon points="329.87 196.53 329.69 199.22 332.37 199.22 332.56 196.53 329.87 196.53" style="fill:#263238"></polygon><polygon points="286.72 199.22 286.53 201.9 289.22 201.9 289.41 199.22 286.72 199.22" style="fill:#263238"></polygon><polygon points="297.46 199.22 297.27 201.9 299.96 201.9 300.15 199.22 297.46 199.22" style="fill:#263238"></polygon><polygon points="300.15 199.22 299.96 201.9 302.64 201.9 302.83 199.22 300.15 199.22" style="fill:#263238"></polygon><polygon points="308.2 199.22 308.01 201.9 310.7 201.9 310.89 199.22 308.2 199.22" style="fill:#263238"></polygon><polygon points="265.05 201.9 264.86 204.59 267.55 204.59 267.74 201.9 265.05 201.9" style="fill:#263238"></polygon><polygon points="267.74 201.9 267.55 204.59 270.23 204.59 270.42 201.9 267.74 201.9" style="fill:#263238"></polygon><polygon points="270.42 201.9 270.23 204.59 272.92 204.59 273.11 201.9 270.42 201.9" style="fill:#263238"></polygon><polygon points="275.79 201.9 275.6 204.59 278.29 204.59 278.48 201.9 275.79 201.9" style="fill:#263238"></polygon><polygon points="278.48 201.9 278.29 204.59 280.98 204.59 281.16 201.9 278.48 201.9" style="fill:#263238"></polygon><polygon points="281.16 201.9 280.98 204.59 283.66 204.59 283.85 201.9 281.16 201.9" style="fill:#263238"></polygon><polygon points="283.85 201.9 283.66 204.59 286.35 204.59 286.53 201.9 283.85 201.9" style="fill:#263238"></polygon><polygon points="286.53 201.9 286.35 204.59 289.03 204.59 289.22 201.9 286.53 201.9" style="fill:#263238"></polygon><polygon points="294.59 201.9 294.4 204.59 297.09 204.59 297.27 201.9 294.59 201.9" style="fill:#263238"></polygon><polygon points="297.27 201.9 297.09 204.59 299.77 204.59 299.96 201.9 297.27 201.9" style="fill:#263238"></polygon><polygon points="299.96 201.9 299.77 204.59 302.46 204.59 302.64 201.9 299.96 201.9" style="fill:#263238"></polygon><polygon points="308.01 201.9 307.83 204.59 310.51 204.59 310.7 201.9 308.01 201.9" style="fill:#263238"></polygon><polygon points="310.7 201.9 310.51 204.59 313.2 204.59 313.39 201.9 310.7 201.9" style="fill:#263238"></polygon><polygon points="313.39 201.9 313.2 204.59 315.88 204.59 316.07 201.9 313.39 201.9" style="fill:#263238"></polygon><polygon points="324.13 201.9 323.94 204.59 326.62 204.59 326.81 201.9 324.13 201.9" style="fill:#263238"></polygon><polygon points="270.23 204.59 270.05 207.27 272.73 207.27 272.92 204.59 270.23 204.59" style="fill:#263238"></polygon><polygon points="272.92 204.59 272.73 207.27 275.42 207.27 275.6 204.59 272.92 204.59" style="fill:#263238"></polygon><polygon points="275.6 204.59 275.42 207.27 278.1 207.27 278.29 204.59 275.6 204.59" style="fill:#263238"></polygon><polygon points="283.66 204.59 283.47 207.27 286.16 207.27 286.35 204.59 283.66 204.59" style="fill:#263238"></polygon><polygon points="286.35 204.59 286.16 207.27 288.84 207.27 289.03 204.59 286.35 204.59" style="fill:#263238"></polygon><polygon points="289.03 204.59 288.84 207.27 291.53 207.27 291.72 204.59 289.03 204.59" style="fill:#263238"></polygon><polygon points="294.4 204.59 294.21 207.27 296.9 207.27 297.09 204.59 294.4 204.59" style="fill:#263238"></polygon><polygon points="297.09 204.59 296.9 207.27 299.58 207.27 299.77 204.59 297.09 204.59" style="fill:#263238"></polygon><polygon points="307.83 204.59 307.64 207.27 310.32 207.27 310.51 204.59 307.83 204.59" style="fill:#263238"></polygon><polygon points="313.2 204.59 313.01 207.27 315.69 207.27 315.88 204.59 313.2 204.59" style="fill:#263238"></polygon><polygon points="329.31 204.59 329.12 207.27 331.81 207.27 332 204.59 329.31 204.59" style="fill:#263238"></polygon><polygon points="270.05 207.27 269.86 209.96 272.54 209.96 272.73 207.27 270.05 207.27" style="fill:#263238"></polygon><polygon points="280.79 207.27 280.6 209.96 283.28 209.96 283.47 207.27 280.79 207.27" style="fill:#263238"></polygon><polygon points="283.47 207.27 283.28 209.96 285.97 209.96 286.16 207.27 283.47 207.27" style="fill:#263238"></polygon><polygon points="291.53 207.27 291.34 209.96 294.02 209.96 294.21 207.27 291.53 207.27" style="fill:#263238"></polygon><polygon points="296.9 207.27 296.71 209.96 299.4 209.96 299.58 207.27 296.9 207.27" style="fill:#263238"></polygon><polygon points="302.27 207.27 302.08 209.96 304.77 209.96 304.95 207.27 302.27 207.27" style="fill:#263238"></polygon><polygon points="313.01 207.27 312.82 209.96 315.51 209.96 315.69 207.27 313.01 207.27" style="fill:#263238"></polygon><polygon points="315.69 207.27 315.51 209.96 318.19 209.96 318.38 207.27 315.69 207.27" style="fill:#263238"></polygon><polygon points="318.38 207.27 318.19 209.96 320.88 209.96 321.07 207.27 318.38 207.27" style="fill:#263238"></polygon><polygon points="323.75 207.27 323.56 209.96 326.25 209.96 326.44 207.27 323.75 207.27" style="fill:#263238"></polygon><polygon points="326.44 207.27 326.25 209.96 328.93 209.96 329.12 207.27 326.44 207.27" style="fill:#263238"></polygon><polygon points="329.12 207.27 328.93 209.96 331.62 209.96 331.81 207.27 329.12 207.27" style="fill:#263238"></polygon><polygon points="264.49 209.96 264.3 212.64 266.99 212.64 267.17 209.96 264.49 209.96" style="fill:#263238"></polygon><polygon points="267.17 209.96 266.99 212.64 269.67 212.64 269.86 209.96 267.17 209.96" style="fill:#263238"></polygon><polygon points="269.86 209.96 269.67 212.64 272.36 212.64 272.54 209.96 269.86 209.96" style="fill:#263238"></polygon><polygon points="275.23 209.96 275.04 212.64 277.73 212.64 277.91 209.96 275.23 209.96" style="fill:#263238"></polygon><polygon points="288.65 209.96 288.47 212.64 291.15 212.64 291.34 209.96 288.65 209.96" style="fill:#263238"></polygon><polygon points="291.34 209.96 291.15 212.64 293.84 212.64 294.02 209.96 291.34 209.96" style="fill:#263238"></polygon><polygon points="296.71 209.96 296.52 212.64 299.21 212.64 299.4 209.96 296.71 209.96" style="fill:#263238"></polygon><polygon points="299.4 209.96 299.21 212.64 301.89 212.64 302.08 209.96 299.4 209.96" style="fill:#263238"></polygon><polygon points="302.08 209.96 301.89 212.64 304.58 212.64 304.77 209.96 302.08 209.96" style="fill:#263238"></polygon><polygon points="304.77 209.96 304.58 212.64 307.26 212.64 307.45 209.96 304.77 209.96" style="fill:#263238"></polygon><polygon points="310.14 209.96 309.95 212.64 312.63 212.64 312.82 209.96 310.14 209.96" style="fill:#263238"></polygon><polygon points="312.82 209.96 312.63 212.64 315.32 212.64 315.51 209.96 312.82 209.96" style="fill:#263238"></polygon><polygon points="315.51 209.96 315.32 212.64 318 212.64 318.19 209.96 315.51 209.96" style="fill:#263238"></polygon><polygon points="326.25 209.96 326.06 212.64 328.75 212.64 328.93 209.96 326.25 209.96" style="fill:#263238"></polygon><polygon points="269.67 212.64 269.48 215.33 272.17 215.33 272.36 212.64 269.67 212.64" style="fill:#263238"></polygon><polygon points="272.36 212.64 272.17 215.33 274.85 215.33 275.04 212.64 272.36 212.64" style="fill:#263238"></polygon><polygon points="280.41 212.64 280.22 215.33 282.91 215.33 283.1 212.64 280.41 212.64" style="fill:#263238"></polygon><polygon points="285.78 212.64 285.59 215.33 288.28 215.33 288.47 212.64 285.78 212.64" style="fill:#263238"></polygon><polygon points="291.15 212.64 290.96 215.33 293.65 215.33 293.84 212.64 291.15 212.64" style="fill:#263238"></polygon><polygon points="299.21 212.64 299.02 215.33 301.71 215.33 301.89 212.64 299.21 212.64" style="fill:#263238"></polygon><polygon points="307.26 212.64 307.08 215.33 309.76 215.33 309.95 212.64 307.26 212.64" style="fill:#263238"></polygon><polygon points="309.95 212.64 309.76 215.33 312.45 215.33 312.63 212.64 309.95 212.64" style="fill:#263238"></polygon><polygon points="312.63 212.64 312.45 215.33 315.13 215.33 315.32 212.64 312.63 212.64" style="fill:#263238"></polygon><polygon points="315.32 212.64 315.13 215.33 317.82 215.33 318 212.64 315.32 212.64" style="fill:#263238"></polygon><polygon points="320.69 212.64 320.5 215.33 323.19 215.33 323.38 212.64 320.69 212.64" style="fill:#263238"></polygon><polygon points="326.06 212.64 325.87 215.33 328.56 215.33 328.75 212.64 326.06 212.64" style="fill:#263238"></polygon><polygon points="328.75 212.64 328.56 215.33 331.24 215.33 331.43 212.64 328.75 212.64" style="fill:#263238"></polygon><polygon points="277.54 215.33 277.35 218.01 280.04 218.01 280.22 215.33 277.54 215.33" style="fill:#263238"></polygon><polygon points="282.91 215.33 282.72 218.01 285.41 218.01 285.59 215.33 282.91 215.33" style="fill:#263238"></polygon><polygon points="285.59 215.33 285.41 218.01 288.09 218.01 288.28 215.33 285.59 215.33" style="fill:#263238"></polygon><polygon points="290.96 215.33 290.78 218.01 293.46 218.01 293.65 215.33 290.96 215.33" style="fill:#263238"></polygon><polygon points="296.33 215.33 296.15 218.01 298.83 218.01 299.02 215.33 296.33 215.33" style="fill:#263238"></polygon><polygon points="307.08 215.33 306.89 218.01 309.57 218.01 309.76 215.33 307.08 215.33" style="fill:#263238"></polygon><polygon points="309.76 215.33 309.57 218.01 312.26 218.01 312.45 215.33 309.76 215.33" style="fill:#263238"></polygon><polygon points="312.45 215.33 312.26 218.01 314.94 218.01 315.13 215.33 312.45 215.33" style="fill:#263238"></polygon><polygon points="320.5 215.33 320.31 218.01 323 218.01 323.19 215.33 320.5 215.33" style="fill:#263238"></polygon><polygon points="328.56 215.33 328.37 218.01 331.06 218.01 331.24 215.33 328.56 215.33" style="fill:#263238"></polygon><polygon points="263.92 218.01 263.74 220.7 266.42 220.7 266.61 218.01 263.92 218.01" style="fill:#263238"></polygon><polygon points="271.98 218.01 271.79 220.7 274.48 220.7 274.67 218.01 271.98 218.01" style="fill:#263238"></polygon><polygon points="274.67 218.01 274.48 220.7 277.16 220.7 277.35 218.01 274.67 218.01" style="fill:#263238"></polygon><polygon points="277.35 218.01 277.16 220.7 279.85 220.7 280.04 218.01 277.35 218.01" style="fill:#263238"></polygon><polygon points="280.04 218.01 279.85 220.7 282.53 220.7 282.72 218.01 280.04 218.01" style="fill:#263238"></polygon><polygon points="282.72 218.01 282.53 220.7 285.22 220.7 285.41 218.01 282.72 218.01" style="fill:#263238"></polygon><polygon points="288.09 218.01 287.9 220.7 290.59 220.7 290.78 218.01 288.09 218.01" style="fill:#263238"></polygon><polygon points="290.78 218.01 290.59 220.7 293.27 220.7 293.46 218.01 290.78 218.01" style="fill:#263238"></polygon><polygon points="298.83 218.01 298.64 220.7 301.33 220.7 301.52 218.01 298.83 218.01" style="fill:#263238"></polygon><polygon points="306.89 218.01 306.7 220.7 309.39 220.7 309.57 218.01 306.89 218.01" style="fill:#263238"></polygon><polygon points="309.57 218.01 309.39 220.7 312.07 220.7 312.26 218.01 309.57 218.01" style="fill:#263238"></polygon><polygon points="312.26 218.01 312.07 220.7 314.76 220.7 314.94 218.01 312.26 218.01" style="fill:#263238"></polygon><polygon points="314.94 218.01 314.76 220.7 317.44 220.7 317.63 218.01 314.94 218.01" style="fill:#263238"></polygon><polygon points="323 218.01 322.81 220.7 325.5 220.7 325.69 218.01 323 218.01" style="fill:#263238"></polygon><polygon points="325.69 218.01 325.5 220.7 328.18 220.7 328.37 218.01 325.69 218.01" style="fill:#263238"></polygon><polygon points="328.37 218.01 328.18 220.7 330.87 220.7 331.06 218.01 328.37 218.01" style="fill:#263238"></polygon><polygon points="266.42 220.7 266.23 223.38 268.92 223.38 269.11 220.7 266.42 220.7" style="fill:#263238"></polygon><polygon points="269.11 220.7 268.92 223.38 271.61 223.38 271.79 220.7 269.11 220.7" style="fill:#263238"></polygon><polygon points="277.16 220.7 276.98 223.38 279.66 223.38 279.85 220.7 277.16 220.7" style="fill:#263238"></polygon><polygon points="282.53 220.7 282.35 223.38 285.03 223.38 285.22 220.7 282.53 220.7" style="fill:#263238"></polygon><polygon points="287.9 220.7 287.72 223.38 290.4 223.38 290.59 220.7 287.9 220.7" style="fill:#263238"></polygon><polygon points="290.59 220.7 290.4 223.38 293.09 223.38 293.27 220.7 290.59 220.7" style="fill:#263238"></polygon><polygon points="298.64 220.7 298.46 223.38 301.14 223.38 301.33 220.7 298.64 220.7" style="fill:#263238"></polygon><polygon points="304.02 220.7 303.83 223.38 306.51 223.38 306.7 220.7 304.02 220.7" style="fill:#263238"></polygon><polygon points="312.07 220.7 311.88 223.38 314.57 223.38 314.76 220.7 312.07 220.7" style="fill:#263238"></polygon><polygon points="317.44 220.7 317.25 223.38 319.94 223.38 320.13 220.7 317.44 220.7" style="fill:#263238"></polygon><polygon points="325.5 220.7 325.31 223.38 328 223.38 328.18 220.7 325.5 220.7" style="fill:#263238"></polygon><polygon points="263.55 223.38 263.36 226.07 266.05 226.07 266.23 223.38 263.55 223.38" style="fill:#263238"></polygon><polygon points="268.92 223.38 268.73 226.07 271.42 226.07 271.61 223.38 268.92 223.38" style="fill:#263238"></polygon><polygon points="276.98 223.38 276.79 226.07 279.47 226.07 279.66 223.38 276.98 223.38" style="fill:#263238"></polygon><polygon points="279.66 223.38 279.47 226.07 282.16 226.07 282.35 223.38 279.66 223.38" style="fill:#263238"></polygon><polygon points="282.35 223.38 282.16 226.07 284.84 226.07 285.03 223.38 282.35 223.38" style="fill:#263238"></polygon><polygon points="298.46 223.38 298.27 226.07 300.95 226.07 301.14 223.38 298.46 223.38" style="fill:#263238"></polygon><polygon points="306.51 223.38 306.32 226.07 309.01 226.07 309.2 223.38 306.51 223.38" style="fill:#263238"></polygon><polygon points="309.2 223.38 309.01 226.07 311.7 226.07 311.88 223.38 309.2 223.38" style="fill:#263238"></polygon><polygon points="311.88 223.38 311.7 226.07 314.38 226.07 314.57 223.38 311.88 223.38" style="fill:#263238"></polygon><polygon points="314.57 223.38 314.38 226.07 317.07 226.07 317.25 223.38 314.57 223.38" style="fill:#263238"></polygon><polygon points="317.25 223.38 317.07 226.07 319.75 226.07 319.94 223.38 317.25 223.38" style="fill:#263238"></polygon><polygon points="319.94 223.38 319.75 226.07 322.44 226.07 322.63 223.38 319.94 223.38" style="fill:#263238"></polygon><polygon points="284.84 226.07 284.65 228.75 287.34 228.75 287.53 226.07 284.84 226.07" style="fill:#263238"></polygon><polygon points="290.21 226.07 290.03 228.75 292.71 228.75 292.9 226.07 290.21 226.07" style="fill:#263238"></polygon><polygon points="295.58 226.07 295.4 228.75 298.08 228.75 298.27 226.07 295.58 226.07" style="fill:#263238"></polygon><polygon points="306.32 226.07 306.14 228.75 308.82 228.75 309.01 226.07 306.32 226.07" style="fill:#263238"></polygon><polygon points="317.07 226.07 316.88 228.75 319.56 228.75 319.75 226.07 317.07 226.07" style="fill:#263238"></polygon><polygon points="319.75 226.07 319.56 228.75 322.25 228.75 322.44 226.07 319.75 226.07" style="fill:#263238"></polygon><polygon points="325.12 226.07 324.93 228.75 327.62 228.75 327.81 226.07 325.12 226.07" style="fill:#263238"></polygon><polygon points="327.81 226.07 327.62 228.75 330.31 228.75 330.49 226.07 327.81 226.07" style="fill:#263238"></polygon><polygon points="263.17 228.75 262.99 231.44 265.67 231.44 265.86 228.75 263.17 228.75" style="fill:#263238"></polygon><polygon points="265.86 228.75 265.67 231.44 268.36 231.44 268.54 228.75 265.86 228.75" style="fill:#263238"></polygon><polygon points="268.54 228.75 268.36 231.44 271.04 231.44 271.23 228.75 268.54 228.75" style="fill:#263238"></polygon><polygon points="271.23 228.75 271.04 231.44 273.73 231.44 273.91 228.75 271.23 228.75" style="fill:#263238"></polygon><polygon points="273.91 228.75 273.73 231.44 276.41 231.44 276.6 228.75 273.91 228.75" style="fill:#263238"></polygon><polygon points="276.6 228.75 276.41 231.44 279.1 231.44 279.29 228.75 276.6 228.75" style="fill:#263238"></polygon><polygon points="279.29 228.75 279.1 231.44 281.78 231.44 281.97 228.75 279.29 228.75" style="fill:#263238"></polygon><polygon points="284.65 228.75 284.47 231.44 287.15 231.44 287.34 228.75 284.65 228.75" style="fill:#263238"></polygon><polygon points="287.34 228.75 287.15 231.44 289.84 231.44 290.03 228.75 287.34 228.75" style="fill:#263238"></polygon><polygon points="290.03 228.75 289.84 231.44 292.52 231.44 292.71 228.75 290.03 228.75" style="fill:#263238"></polygon><polygon points="298.08 228.75 297.89 231.44 300.58 231.44 300.77 228.75 298.08 228.75" style="fill:#263238"></polygon><polygon points="300.77 228.75 300.58 231.44 303.26 231.44 303.45 228.75 300.77 228.75" style="fill:#263238"></polygon><polygon points="303.45 228.75 303.26 231.44 305.95 231.44 306.14 228.75 303.45 228.75" style="fill:#263238"></polygon><polygon points="306.14 228.75 305.95 231.44 308.63 231.44 308.82 228.75 306.14 228.75" style="fill:#263238"></polygon><polygon points="311.51 228.75 311.32 231.44 314.01 231.44 314.19 228.75 311.51 228.75" style="fill:#263238"></polygon><polygon points="316.88 228.75 316.69 231.44 319.38 231.44 319.56 228.75 316.88 228.75" style="fill:#263238"></polygon><polygon points="319.56 228.75 319.38 231.44 322.06 231.44 322.25 228.75 319.56 228.75" style="fill:#263238"></polygon><polygon points="324.93 228.75 324.75 231.44 327.43 231.44 327.62 228.75 324.93 228.75" style="fill:#263238"></polygon><polygon points="327.62 228.75 327.43 231.44 330.12 231.44 330.31 228.75 327.62 228.75" style="fill:#263238"></polygon><polygon points="262.99 231.44 262.8 234.12 265.48 234.12 265.67 231.44 262.99 231.44" style="fill:#263238"></polygon><polygon points="279.1 231.44 278.91 234.12 281.6 234.12 281.78 231.44 279.1 231.44" style="fill:#263238"></polygon><polygon points="284.47 231.44 284.28 234.12 286.96 234.12 287.15 231.44 284.47 231.44" style="fill:#263238"></polygon><polygon points="295.21 231.44 295.02 234.12 297.71 234.12 297.89 231.44 295.21 231.44" style="fill:#263238"></polygon><polygon points="297.89 231.44 297.71 234.12 300.39 234.12 300.58 231.44 297.89 231.44" style="fill:#263238"></polygon><polygon points="300.58 231.44 300.39 234.12 303.08 234.12 303.26 231.44 300.58 231.44" style="fill:#263238"></polygon><polygon points="305.95 231.44 305.76 234.12 308.45 234.12 308.63 231.44 305.95 231.44" style="fill:#263238"></polygon><polygon points="316.69 231.44 316.5 234.12 319.19 234.12 319.38 231.44 316.69 231.44" style="fill:#263238"></polygon><polygon points="319.38 231.44 319.19 234.12 321.87 234.12 322.06 231.44 319.38 231.44" style="fill:#263238"></polygon><polygon points="324.75 231.44 324.56 234.12 327.24 234.12 327.43 231.44 324.75 231.44" style="fill:#263238"></polygon><polygon points="262.8 234.12 262.61 236.81 265.3 236.81 265.48 234.12 262.8 234.12" style="fill:#263238"></polygon><polygon points="268.17 234.12 267.98 236.81 270.67 236.81 270.85 234.12 268.17 234.12" style="fill:#263238"></polygon><polygon points="270.85 234.12 270.67 236.81 273.35 236.81 273.54 234.12 270.85 234.12" style="fill:#263238"></polygon><polygon points="273.54 234.12 273.35 236.81 276.04 236.81 276.22 234.12 273.54 234.12" style="fill:#263238"></polygon><polygon points="278.91 234.12 278.72 236.81 281.41 236.81 281.6 234.12 278.91 234.12" style="fill:#263238"></polygon><polygon points="284.28 234.12 284.09 236.81 286.78 236.81 286.96 234.12 284.28 234.12" style="fill:#263238"></polygon><polygon points="292.34 234.12 292.15 236.81 294.83 236.81 295.02 234.12 292.34 234.12" style="fill:#263238"></polygon><polygon points="295.02 234.12 294.83 236.81 297.52 236.81 297.71 234.12 295.02 234.12" style="fill:#263238"></polygon><polygon points="297.71 234.12 297.52 236.81 300.2 236.81 300.39 234.12 297.71 234.12" style="fill:#263238"></polygon><polygon points="300.39 234.12 300.2 236.81 302.89 236.81 303.08 234.12 300.39 234.12" style="fill:#263238"></polygon><polygon points="305.76 234.12 305.57 236.81 308.26 236.81 308.45 234.12 305.76 234.12" style="fill:#263238"></polygon><polygon points="308.45 234.12 308.26 236.81 310.94 236.81 311.13 234.12 308.45 234.12" style="fill:#263238"></polygon><polygon points="311.13 234.12 310.94 236.81 313.63 236.81 313.82 234.12 311.13 234.12" style="fill:#263238"></polygon><polygon points="313.82 234.12 313.63 236.81 316.31 236.81 316.5 234.12 313.82 234.12" style="fill:#263238"></polygon><polygon points="316.5 234.12 316.31 236.81 319 236.81 319.19 234.12 316.5 234.12" style="fill:#263238"></polygon><polygon points="319.19 234.12 319 236.81 321.69 236.81 321.87 234.12 319.19 234.12" style="fill:#263238"></polygon><polygon points="324.56 234.12 324.37 236.81 327.06 236.81 327.24 234.12 324.56 234.12" style="fill:#263238"></polygon><polygon points="262.61 236.81 262.42 239.49 265.11 239.49 265.3 236.81 262.61 236.81" style="fill:#263238"></polygon><polygon points="267.98 236.81 267.79 239.49 270.48 239.49 270.67 236.81 267.98 236.81" style="fill:#263238"></polygon><polygon points="270.67 236.81 270.48 239.49 273.16 239.49 273.35 236.81 270.67 236.81" style="fill:#263238"></polygon><polygon points="273.35 236.81 273.16 239.49 275.85 239.49 276.04 236.81 273.35 236.81" style="fill:#263238"></polygon><polygon points="278.72 236.81 278.53 239.49 281.22 239.49 281.41 236.81 278.72 236.81" style="fill:#263238"></polygon><polygon points="286.78 236.81 286.59 239.49 289.27 239.49 289.46 236.81 286.78 236.81" style="fill:#263238"></polygon><polygon points="289.46 236.81 289.27 239.49 291.96 239.49 292.15 236.81 289.46 236.81" style="fill:#263238"></polygon><polygon points="294.83 236.81 294.64 239.49 297.33 239.49 297.52 236.81 294.83 236.81" style="fill:#263238"></polygon><polygon points="302.89 236.81 302.7 239.49 305.39 239.49 305.57 236.81 302.89 236.81" style="fill:#263238"></polygon><polygon points="305.57 236.81 305.39 239.49 308.07 239.49 308.26 236.81 305.57 236.81" style="fill:#263238"></polygon><polygon points="313.63 236.81 313.44 239.49 316.13 239.49 316.31 236.81 313.63 236.81" style="fill:#263238"></polygon><polygon points="316.31 236.81 316.13 239.49 318.81 239.49 319 236.81 316.31 236.81" style="fill:#263238"></polygon><polygon points="319 236.81 318.81 239.49 321.5 239.49 321.69 236.81 319 236.81" style="fill:#263238"></polygon><polygon points="321.69 236.81 321.5 239.49 324.18 239.49 324.37 236.81 321.69 236.81" style="fill:#263238"></polygon><polygon points="262.42 239.49 262.23 242.18 264.92 242.18 265.11 239.49 262.42 239.49" style="fill:#263238"></polygon><polygon points="267.79 239.49 267.61 242.18 270.29 242.18 270.48 239.49 267.79 239.49" style="fill:#263238"></polygon><polygon points="270.48 239.49 270.29 242.18 272.98 242.18 273.16 239.49 270.48 239.49" style="fill:#263238"></polygon><polygon points="273.16 239.49 272.98 242.18 275.66 242.18 275.85 239.49 273.16 239.49" style="fill:#263238"></polygon><polygon points="278.53 239.49 278.35 242.18 281.03 242.18 281.22 239.49 278.53 239.49" style="fill:#263238"></polygon><polygon points="283.9 239.49 283.72 242.18 286.4 242.18 286.59 239.49 283.9 239.49" style="fill:#263238"></polygon><polygon points="297.33 239.49 297.14 242.18 299.83 242.18 300.02 239.49 297.33 239.49" style="fill:#263238"></polygon><polygon points="302.7 239.49 302.51 242.18 305.2 242.18 305.39 239.49 302.7 239.49" style="fill:#263238"></polygon><polygon points="316.13 239.49 315.94 242.18 318.63 242.18 318.81 239.49 316.13 239.49" style="fill:#263238"></polygon><polygon points="326.87 239.49 326.68 242.18 329.37 242.18 329.55 239.49 326.87 239.49" style="fill:#263238"></polygon><polygon points="262.23 242.18 262.05 244.86 264.73 244.86 264.92 242.18 262.23 242.18" style="fill:#263238"></polygon><polygon points="278.35 242.18 278.16 244.86 280.84 244.86 281.03 242.18 278.35 242.18" style="fill:#263238"></polygon><polygon points="283.72 242.18 283.53 244.86 286.21 244.86 286.4 242.18 283.72 242.18" style="fill:#263238"></polygon><polygon points="286.4 242.18 286.21 244.86 288.9 244.86 289.09 242.18 286.4 242.18" style="fill:#263238"></polygon><polygon points="291.77 242.18 291.58 244.86 294.27 244.86 294.46 242.18 291.77 242.18" style="fill:#263238"></polygon><polygon points="297.14 242.18 296.95 244.86 299.64 244.86 299.83 242.18 297.14 242.18" style="fill:#263238"></polygon><polygon points="299.83 242.18 299.64 244.86 302.33 244.86 302.51 242.18 299.83 242.18" style="fill:#263238"></polygon><polygon points="302.51 242.18 302.33 244.86 305.01 244.86 305.2 242.18 302.51 242.18" style="fill:#263238"></polygon><polygon points="305.2 242.18 305.01 244.86 307.7 244.86 307.88 242.18 305.2 242.18" style="fill:#263238"></polygon><polygon points="310.57 242.18 310.38 244.86 313.07 244.86 313.25 242.18 310.57 242.18" style="fill:#263238"></polygon><polygon points="315.94 242.18 315.75 244.86 318.44 244.86 318.63 242.18 315.94 242.18" style="fill:#263238"></polygon><polygon points="318.63 242.18 318.44 244.86 321.12 244.86 321.31 242.18 318.63 242.18" style="fill:#263238"></polygon><polygon points="324 242.18 323.81 244.86 326.49 244.86 326.68 242.18 324 242.18" style="fill:#263238"></polygon><polygon points="262.05 244.86 261.86 247.55 264.54 247.55 264.73 244.86 262.05 244.86" style="fill:#263238"></polygon><polygon points="264.73 244.86 264.54 247.55 267.23 247.55 267.42 244.86 264.73 244.86" style="fill:#263238"></polygon><polygon points="267.42 244.86 267.23 247.55 269.92 247.55 270.1 244.86 267.42 244.86" style="fill:#263238"></polygon><polygon points="270.1 244.86 269.92 247.55 272.6 247.55 272.79 244.86 270.1 244.86" style="fill:#263238"></polygon><polygon points="272.79 244.86 272.6 247.55 275.29 247.55 275.47 244.86 272.79 244.86" style="fill:#263238"></polygon><polygon points="275.47 244.86 275.29 247.55 277.97 247.55 278.16 244.86 275.47 244.86" style="fill:#263238"></polygon><polygon points="278.16 244.86 277.97 247.55 280.66 247.55 280.84 244.86 278.16 244.86" style="fill:#263238"></polygon><polygon points="283.53 244.86 283.34 247.55 286.03 247.55 286.21 244.86 283.53 244.86" style="fill:#263238"></polygon><polygon points="286.21 244.86 286.03 247.55 288.71 247.55 288.9 244.86 286.21 244.86" style="fill:#263238"></polygon><polygon points="288.9 244.86 288.71 247.55 291.4 247.55 291.58 244.86 288.9 244.86" style="fill:#263238"></polygon><polygon points="291.58 244.86 291.4 247.55 294.08 247.55 294.27 244.86 291.58 244.86" style="fill:#263238"></polygon><polygon points="294.27 244.86 294.08 247.55 296.77 247.55 296.95 244.86 294.27 244.86" style="fill:#263238"></polygon><polygon points="296.95 244.86 296.77 247.55 299.45 247.55 299.64 244.86 296.95 244.86" style="fill:#263238"></polygon><polygon points="305.01 244.86 304.82 247.55 307.51 247.55 307.7 244.86 305.01 244.86" style="fill:#263238"></polygon><polygon points="307.7 244.86 307.51 247.55 310.19 247.55 310.38 244.86 307.7 244.86" style="fill:#263238"></polygon><polygon points="313.07 244.86 312.88 247.55 315.56 247.55 315.75 244.86 313.07 244.86" style="fill:#263238"></polygon><polygon points="323.81 244.86 323.62 247.55 326.31 247.55 326.49 244.86 323.81 244.86" style="fill:#263238"></polygon><polygon points="326.49 244.86 326.31 247.55 328.99 247.55 329.18 244.86 326.49 244.86" style="fill:#263238"></polygon></g><g id="freepik--Character--inject-94"><polygon points="190.61 410.41 198.41 408.53 194.38 390.41 186.59 392.29 190.61 410.41" style="fill:#ff887b"></polygon><path d="M198.11,406.65l-8.52,2.06a.67.67,0,0,0-.52.68l.3,7.24a1.2,1.2,0,0,0,1.26,1.14.91.91,0,0,0,.23,0c3-.8,7.44-2.05,11.31-3,4.5-1.09,4.93-.93,10.22-2.21,3.2-.77,3.22-4.2,1.81-4.16-6.45.14-7.94.35-14.06-1.62A3.79,3.79,0,0,0,198.11,406.65Z" style="fill:#263238"></path><polygon points="194.38 390.42 196.46 399.76 188.66 401.64 186.59 392.3 194.38 390.42" style="opacity:0.2"></polygon><path d="M199.09,406.14a.2.2,0,0,1-.16-.07.18.18,0,0,1,0-.26c.3-.27,3-2.57,4.05-2.27a.62.62,0,0,1,.42.41,1,1,0,0,1-.1,1,3,3,0,0,1-1.76.93A14.62,14.62,0,0,1,199.09,406.14Zm.5-.4c1.77-.12,3-.5,3.37-1a.64.64,0,0,0,.06-.64.23.23,0,0,0-.16-.17.88.88,0,0,0-.36,0A10.11,10.11,0,0,0,199.59,405.74Z" style="fill:#407BFF"></path><path d="M199,406.15a.22.22,0,0,1-.11-.15c0-.08-.33-2.2.41-3.22a1.28,1.28,0,0,1,.92-.55c.51-.08.76.14.81.33.37.84-1,2.92-1.83,3.57l-.08,0A.24.24,0,0,1,199,406.15Zm.61-3.14a4.28,4.28,0,0,0-.36,2.59c.79-.79,1.69-2.39,1.47-2.88,0-.05-.08-.2-.41-.12l-.11,0A.94.94,0,0,0,199.58,403Z" style="fill:#407BFF"></path><polygon points="130.62 408.85 138.54 410.09 141.75 391.81 133.82 390.56 130.62 408.85" style="fill:#ff887b"></polygon><path d="M138.61,409.16l-8.67-1.35a.67.67,0,0,0-.74.43l-2.49,6.8a1.19,1.19,0,0,0,.73,1.54.9.9,0,0,0,.22.06c3.13.43,7.66.95,11.59,1.57,4.58.72,4.92,1,10.29,1.87,3.25.51,4.58-2.65,3.26-3.16-6-2.33-7.46-2.71-12.37-6.87A3.84,3.84,0,0,0,138.61,409.16Z" style="fill:#263238"></path><polygon points="141.75 391.81 139.88 402.43 131.96 401.19 133.82 390.57 141.75 391.81" style="opacity:0.2"></polygon><path d="M139.7,409.06a.16.16,0,0,1-.12-.12.18.18,0,0,1,.12-.23c.38-.13,3.74-1.24,4.6-.55a.6.6,0,0,1,.24.54,1,1,0,0,1-.46.85,3,3,0,0,1-2,.18A13.46,13.46,0,0,1,139.7,409.06Zm.61-.17c1.69.56,3,.69,3.52.33a.65.65,0,0,0,.3-.56.27.27,0,0,0-.08-.22,1.06,1.06,0,0,0-.34-.12A10.33,10.33,0,0,0,140.31,408.89Z" style="fill:#407BFF"></path><path d="M139.59,409a.25.25,0,0,1-.05-.19c0-.08.53-2.16,1.61-2.82a1.32,1.32,0,0,1,1.06-.16c.51.13.66.43.63.62,0,.92-2.05,2.32-3.06,2.6l-.08,0A.2.2,0,0,1,139.59,409Zm1.76-2.68a4.31,4.31,0,0,0-1.32,2.26c1-.43,2.48-1.56,2.46-2.1,0,0,0-.22-.33-.27l-.12,0A1,1,0,0,0,141.35,406.36Z" style="fill:#407BFF"></path><path d="M169.66,292.93c6.25.34,12,.74,18.27.53.62-7.3-.33-17.63-2.89-24.49-5.17-2.76-11.22-1-16.76.95Z" style="fill:#407BFF"></path><path d="M169.66,292.93c6.25.34,12,.74,18.27.53.62-7.3-.33-17.63-2.89-24.49-5.17-2.76-11.22-1-16.76.95Z" style="opacity:0.2"></path><polygon points="168.28 270.02 170.38 270.93 173.31 290.99 188.04 291.88 187.93 293.56 169.66 293.03 168.28 270.02" style="opacity:0.2"></polygon><path d="M185,269l.89,2.73-5.13,1.91-8.42-1.32-4.1-2.37a26.78,26.78,0,0,1,8.82-2.36C182.39,267,185,269,185,269Z" style="fill:#fff;opacity:0.2"></path><path d="M178.91,235.85l11.44,96.47,8.49,60.83a2.88,2.88,0,0,1-2.23,3.33l-9.44,2.41a2.84,2.84,0,0,1-3-2.33c-3-12.57-11.06-37.1-12.58-61.19,0,0-16-61.45-19.29-80.46l-1-17.18Z" style="fill:#407BFF"></path><path d="M164.73,259.15s2.91,27.35,0,49.58c0,0-6.15-25.51-8.94-35.58Z" style="opacity:0.2"></path><path d="M167,231.16,157.36,340,145.12,398.1a2.52,2.52,0,0,1-3,2.15l-10.38-2.16a3.05,3.05,0,0,1-2.16-3.26c1-12.55.4-33,6.52-55.18,0,0,.69-75,3.31-108.29Z" style="fill:#407BFF"></path><path d="M227.42,182.14l2.09-2.9,7.58,4.66a28.17,28.17,0,0,1-5,3.4,3.53,3.53,0,0,1-3.77-.36l-.28-.22A3.32,3.32,0,0,1,227.42,182.14Z" style="fill:#ff8b7b"></path><polygon points="235.64 174.95 239.61 181.81 237.1 183.91 229.52 179.24 235.64 174.95" style="fill:#ff8b7b"></polygon><path d="M175.34,190.34a239.19,239.19,0,0,0,24,4.29c4,.52,21.06-3.4,28.41-4.68a1.45,1.45,0,0,0,1.39-2.06l-.9-6.41a2.81,2.81,0,0,0-.63-1.7,2.89,2.89,0,0,0-2.55-.38C215.33,181,201.43,182,201.43,182c-6.88-1-14.25-3.85-20.54-6.69C162.12,166.87,171.17,189.26,175.34,190.34Z" style="fill:#263238"></path><path d="M175.34,190.34a239.19,239.19,0,0,0,24,4.29c4,.52,21.06-3.4,28.41-4.68a1.45,1.45,0,0,0,1.39-2.06l-.9-6.41a2.81,2.81,0,0,0-.63-1.7,2.89,2.89,0,0,0-2.55-.38C215.33,181,201.43,182,201.43,182c-6.88-1-14.25-3.85-20.54-6.69C162.12,166.87,171.17,189.26,175.34,190.34Z" style="opacity:0.1"></path><polygon points="242.19 187.75 233.57 186.04 238.85 167.94 247.46 169.65 242.19 187.75" style="fill:#407BFF"></polygon><path d="M249.23,169l-5.9,20.25a1,1,0,0,1-1.15.69l-.5-.1a1,1,0,0,0,1.14-.69l5.9-20.26a1,1,0,0,0-.76-1.25l.5.1A1,1,0,0,1,249.23,169Z" style="fill:#407BFF"></path><path d="M249.23,169l-5.9,20.25a1,1,0,0,1-1.15.69l-.5-.1a1,1,0,0,0,1.14-.69l5.9-20.26a1,1,0,0,0-.76-1.25l.5.1A1,1,0,0,1,249.23,169Z" style="opacity:0.30000000000000004"></path><path d="M248,167.6l-8.59-1.7a1,1,0,0,0-1.15.69l-5.9,20.25a1,1,0,0,0,.76,1.25l8.6,1.71a1,1,0,0,0,1.14-.69l5.9-20.26A1,1,0,0,0,248,167.6Zm-5.77,20.15L233.58,186l5.27-18.1,8.61,1.71Z" style="fill:#407BFF"></path><polygon points="247.46 169.65 242.19 187.75 233.57 186.04 238.85 167.94 247.46 169.65" style="fill:#407BFF"></polygon><polygon points="247.46 169.65 242.19 187.75 233.57 186.04 238.85 167.94 247.46 169.65" style="fill:#fff;opacity:0.7000000000000001"></polygon><path d="M233.3,176.59l1.94-2.05a.36.36,0,0,1,.61.13l.27.78a1.73,1.73,0,0,1-.18,1.47L233,181.55l-3.47-2.31Z" style="fill:#ff8b7b"></path><path d="M180.36,201.52c.15,26.33,1.72,36.22-2.19,36.21-7.27,0-33.83,1-35.38.74-11.47-1.63-4.43-27.74-4.59-31.83-.1-2.52-.31-5-.64-7.51a23.57,23.57,0,0,0-1-4.41c-.84-2.41-2.2-4.5-4.54-5.27-2.1-.7-4.4-.09-6.61-.24s-4.72-1.68-4.45-3.87a5,5,0,0,1,1.58-2.65c3.22-3.43,6.84-6.83,8.11-11.35.54-1.89.65-4,1.72-5.64,4.42-6.79,15-.17,20.23,1.77,3.37,1.24,6.42,3.09,9.77,4.34,3.51,1.32,9.68,1.63,14.18,1.81C180.61,173.78,180.36,201.52,180.36,201.52Z" style="fill:#263238"></path><path d="M150.53,158.18c1.11,4.44.86,11.67.89,16.67,0,4.64,12,8.5,12,8.5s4.95-4.18,1.12-7.3c-3.21-2.62-3.66-5.67-3-9.34Z" style="fill:#ff8b7b"></path><path d="M155.06,161.68l6.55,5a20.07,20.07,0,0,0-.38,3.09c-2.38-.22-5.77-2.65-6.16-5.11A8.29,8.29,0,0,1,155.06,161.68Z" style="opacity:0.2;isolation:isolate"></path><path d="M149.44,149.85c.85,7.51,1,11.94,5,15.62,6,5.52,15.15,1.59,16.56-6,1.27-6.85-.34-18-7.87-20.6a10.31,10.31,0,0,0-13.66,11Z" style="fill:#ff8b7b"></path><path d="M171.36,157.21c.4,2.93.89,8.11,1.76,11-5.13,0-10,.27-15.16.25-.71-.54-7-6-6.54-6.51,1.74-1.79,3.87-3.81,1.85-5.83-.62-.62-.29-1.73-.38-2.59,1.86,2.8,9,4.82,12.26,4.22Z" style="fill:#263238"></path><path d="M163.32,158.74c-1.09.39.49,2,2.22,2.09h3.09a2.08,2.08,0,0,0,1.86-1c.32-.59.31-1.22-.18-1.4a5.88,5.88,0,0,0-2.31-.21A21.88,21.88,0,0,0,163.32,158.74Z" style="fill:#ff8b7b"></path><path d="M169,159.41h0a5.54,5.54,0,0,1-5-.92.19.19,0,0,1,0-.27.2.2,0,0,1,.22,0,5.28,5.28,0,0,0,4.7.85.19.19,0,0,1,.24.14h0a.19.19,0,0,1-.14.22Z" style="fill:#263238"></path><path d="M167.68,155.14a9.24,9.24,0,0,0-4.68,1.08,8,8,0,0,1-4.71.85,9.63,9.63,0,0,0,4.69,1.86,8.68,8.68,0,0,0,5.08-.92,6.93,6.93,0,0,0,6.12.55c-1.91.46-2.67-2.14-4.64-3.05A8.29,8.29,0,0,0,167.68,155.14Z" style="fill:#263238"></path><path d="M167.68,155.14a9.24,9.24,0,0,0-4.68,1.08,8,8,0,0,1-4.71.85,9.63,9.63,0,0,0,4.69,1.86,8.68,8.68,0,0,0,5.08-.92,6.93,6.93,0,0,0,6.12.55c-1.91.46-2.67-2.14-4.64-3.05A8.29,8.29,0,0,0,167.68,155.14Z" style="opacity:0.1"></path><path d="M155.89,148.1a5.15,5.15,0,0,1,.7,2.77,13.79,13.79,0,0,0-2.08,2.61c-.85,1.4-1.12,3.15-2.21,4.38,0,0-.24.15-.2.13a53.56,53.56,0,0,1-2.38-5A21.52,21.52,0,0,1,155.89,148.1Z" style="fill:#263238"></path><path d="M146.64,157.18a7.21,7.21,0,0,0,4.11,3.65c2.38.81,3.72-1.29,3.16-3.64-.49-2.08-2.33-5-4.78-4.83A3.23,3.23,0,0,0,146.64,157.18Z" style="fill:#ff8b7b"></path><path d="M162.23,151.38c0,.61.38,1.09.79,1.07s.7-.53.66-1.14-.38-1.1-.78-1.08S162.2,150.76,162.23,151.38Z" style="fill:#263238"></path><path d="M168.64,151c0,.62.38,1.1.78,1.07s.7-.53.67-1.15-.38-1.08-.79-1.06S168.61,150.41,168.64,151Z" style="fill:#263238"></path><path d="M166.62,150.64c1.15,1.66,2.48,2.43,4,3.71-.82,1.24-2.84,1.09-2.84,1.09Z" style="fill:#ff5652"></path><path d="M160,149.25a.33.33,0,0,0,.34-.16,2.92,2.92,0,0,1,2.25-1.32.37.37,0,0,0,.37-.35.35.35,0,0,0-.35-.37h0a3.59,3.59,0,0,0-2.86,1.64.37.37,0,0,0,.09.5A.44.44,0,0,0,160,149.25Z" style="fill:#263238"></path><path d="M170.76,148.9a.37.37,0,0,0,.21,0,.35.35,0,0,0,.15-.49,3.58,3.58,0,0,0-2.73-1.9.37.37,0,0,0-.39.34.36.36,0,0,0,.33.38h0a2.88,2.88,0,0,1,2.11,1.53A.41.41,0,0,0,170.76,148.9Z" style="fill:#263238"></path><path d="M143.63,183.39s.4,13.52-2.28,19.78c-1.06,2.5-2.09,3.77-2.95,4.38-.39-2.5-.91-5-1.53-7.39a22.91,22.91,0,0,0-1.51-4.25l-.24-3.13Z" style="opacity:0.4"></path><path d="M146,239.93c-.09.43-.35,2.66-.69,4.15a12.2,12.2,0,0,1-5.11,6.94c-2,1.06-.84-8.25-.84-8.25l.38-3.21Z" style="opacity:0.2"></path><path d="M137.79,239.93l7.69,3.5h0a11.14,11.14,0,0,1-4.59,7.13l-.66.46s-7.47-7.12-6.46-9.26Z" style="fill:#ff8b7b"></path><path d="M122.5,216.73c0,11.06,3.76,15.16,7,24.66A4,4,0,0,0,134.2,244c3.67-.82,7.27-3.52,5-8.28,0,0-2.22-6.18-3.71-18.38a14.06,14.06,0,0,1,0-5c1.11-4.72,5.56-14.09,6.59-20.37.87-5.37,2-12.08-.55-14.31C129.68,167.2,122.5,195.54,122.5,216.73Z" style="fill:#263238"></path><path d="M136.14,172.57v0a2.48,2.48,0,0,0,3.46,1.74c2.42-1.18,9.15,1.07,11.81.5,0,0,0-3.61,0-4.61s-9-4.45-11.65-4.67C135.26,165.18,135.32,169,136.14,172.57Z" style="opacity:0.4"></path><path d="M169.77,145.7c-2.85-1.6-6.36-1-9.18.44a29.88,29.88,0,0,0-6.61,5.32c-2.12,2.06-4.16,4-6.25,6a1.19,1.19,0,0,1-1.91-.34c-.24-.51-.47-1-.76-1.53a1.23,1.23,0,0,1-.13-1c.24-.76.5-1.52.72-2.27a17.47,17.47,0,0,1,2.77-16c2.33-3,6.82-3,10.51-2.23a14.16,14.16,0,0,1,8.95,6.44,2.43,2.43,0,0,1,2.24.56,4,4,0,0,1,1.39,1.93,2.67,2.67,0,0,1,0,2.28A1.3,1.3,0,0,1,169.77,145.7Z" style="fill:#407BFF"></path><path d="M164.38,139.31a5.67,5.67,0,0,1,1.16,2,10.81,10.81,0,0,0-4.19.91,6.71,6.71,0,0,0-1.16-2C161.64,139.88,162.94,139.64,164.38,139.31Z" style="fill:#fff"></path><path d="M146.67,292.93c-6.25.34-12,.74-18.27.53-.62-7.3.33-17.63,2.89-24.49,5.17-2.76,11.22-1,16.76.95Z" style="fill:#407BFF"></path><polygon points="148.05 270.02 145.95 270.93 143.02 290.99 128.29 291.88 128.4 293.56 146.67 293.03 148.05 270.02" style="opacity:0.2"></polygon><path d="M131.29,269l-.89,2.73,5.13,1.91,8.42-1.32,4.1-2.37a26.78,26.78,0,0,0-8.82-2.36C133.94,267,131.29,269,131.29,269Z" style="fill:#fff;opacity:0.2"></path></g></svg>