<?xml version="1.0" encoding="utf-8"?>
<svg version="1.1" xmlns:xlink="http://www.w3.org/1999/xlink" width="12px" height="9px" xmlns="http://www.w3.org/2000/svg">
  <g transform="matrix(1 0 0 1 -9 -148 )">
    <path d="M 11.7832258064516 1.24242424242424  C 11.9277419354839 1.38383838383838  12 1.55555555555556  12 1.75757575757576  C 12 1.95959595959596  11.9277419354839 2.13131313131313  11.7832258064516 2.27272727272727  L 6.17806451612903 7.75757575757576  L 5.12516129032258 8.78787878787879  C 4.98064516129032 8.92929292929293  4.80516129032258 9  4.59870967741935 9  C 4.39225806451613 9  4.21677419354839 8.92929292929293  4.07225806451613 8.78787878787879  L 3.01935483870968 7.75757575757576  L 0.216774193548387 5.01515151515152  C 0.0722580645161291 4.87373737373737  0 4.7020202020202  0 4.5  C 0 4.2979797979798  0.0722580645161291 4.12626262626263  0.216774193548387 3.98484848484849  L 1.26967741935484 2.95454545454545  C 1.4141935483871 2.81313131313131  1.58967741935484 2.74242424242424  1.79612903225806 2.74242424242424  C 2.00258064516129 2.74242424242424  2.17806451612903 2.81313131313131  2.32258064516129 2.95454545454545  L 4.59870967741935 5.18939393939394  L 9.67741935483871 0.212121212121212  C 9.82193548387097 0.0707070707070704  9.99741935483871 0  10.2038709677419 0  C 10.4103225806452 0  10.5858064516129 0.0707070707070704  10.7303225806452 0.212121212121212  L 11.7832258064516 1.24242424242424  Z " fill-rule="nonzero" fill="#2262ae" stroke="none" transform="matrix(1 0 0 1 9 148 )" />
  </g>
</svg>