<?xml version="1.0" encoding="utf-8"?>
<svg version="1.1" xmlns:xlink="http://www.w3.org/1999/xlink" width="41px" height="49px" xmlns="http://www.w3.org/2000/svg">
  <g transform="matrix(1 0 0 1 -14 -51 )">
    <path d="M 30.8567708333333 1.859375  L 39.1848958333333 10.390625  C 39.6831597222222 10.9010416666667  40.1102430555556 11.59375  40.4661458333333 12.46875  C 40.8220486111111 13.34375  41 14.1458333333333  41 14.875  L 41 46.375  C 41 47.1041666666667  40.7508680555556 47.7239583333333  40.2526041666667 48.234375  C 39.7543402777778 48.7447916666667  39.1493055555556 49  38.4375 49  L 2.5625 49  C 1.85069444444444 49  1.24565972222222 48.7447916666667  0.747395833333333 48.234375  C 0.249131944444444 47.7239583333333  0 47.1041666666667  0 46.375  L 0 2.625  C 0 1.89583333333333  0.249131944444444 1.27604166666666  0.747395833333333 0.765625  C 1.24565972222222 0.255208333333335  1.85069444444444 0  2.5625 0  L 26.4791666666667 0  C 27.1909722222222 0  27.9739583333333 0.182291666666669  28.828125 0.546875000000001  C 29.6822916666667 0.911458333333333  30.3585069444444 1.34895833333333  30.8567708333333 1.859375  Z M 28.427734375 4.3203125  C 28.2141927083333 4.1015625  27.8493923611111 3.90104166666666  27 3.71875  L 27 14  L 37.3697916666667 14  C 37.1918402777778 13.4713541666667  36.99609375 13.09765625  36.7825520833333 12.87890625  L 28.427734375 4.3203125  Z M 4 45  L 37 45  L 37 18  L 26.4791666666667 18  C 25.7673611111111 17.5  25.1623263888889 17.2447916666667  24.6640625 16.734375  C 24.1657986111111 16.2239583333333  23.9166666666667 15.6041666666667  24 14.875  L 24 4  L 4 4  L 4 45  Z M 10.25 23.625  L 10.25 21.875  C 10.25 21.6197916666667  10.330078125 21.41015625  10.490234375 21.24609375  C 10.650390625 21.08203125  10.8550347222222 21  11.1041666666667 21  L 29.8958333333333 21  C 30.1449652777778 21  30.349609375 21.08203125  30.509765625 21.24609375  C 30.669921875 21.41015625  30.75 21.6197916666667  30.75 21.875  L 30.75 23.625  C 30.75 23.8802083333333  30.669921875 24.08984375  30.509765625 24.25390625  C 30.349609375 24.41796875  30.1449652777778 24.5  29.8958333333333 24  L 11.1041666666667 24  C 10.8550347222222 24.5  10.650390625 24.41796875  10.490234375 24.25390625  C 10.330078125 24.08984375  10.25 23.8802083333333  10.25 23.625  Z M 11.1041666666667 28  L 29.8958333333333 28  C 30.1449652777778 28  30.349609375 28.08203125  30.509765625 28.24609375  C 30.669921875 28.41015625  30.75 28.6197916666667  30.75 28.875  L 30.75 30.625  C 30.75 30.8802083333333  30.669921875 31.08984375  30.509765625 31.25390625  C 30.349609375 31.41796875  30.1449652777778 31.5  29.8958333333333 31  L 11.1041666666667 31  C 10.8550347222222 31.5  10.650390625 31.41796875  10.490234375 31.25390625  C 10.330078125 31.08984375  10.25 30.8802083333333  10.25 30.625  L 10.25 28.875  C 10.25 28.6197916666667  10.330078125 28.41015625  10.490234375 28.24609375  C 10.650390625 28.08203125  10.8550347222222 28  11.1041666666667 28  Z M 11.1041666666667 35  L 29.8958333333333 35  C 30.1449652777778 35  30.349609375 35.08203125  30.509765625 35.24609375  C 30.669921875 35.41015625  30.75 35.6197916666667  30.75 35.875  L 30.75 37.625  C 30.75 37.8802083333333  30.669921875 38.08984375  30.509765625 38.25390625  C 30.349609375 38.41796875  30.1449652777778 38.5  29.8958333333333 38  L 11.1041666666667 38  C 10.8550347222222 38.5  10.650390625 38.41796875  10.490234375 38.25390625  C 10.330078125 38.08984375  10.25 37.8802083333333  10.25 37.625  L 10.25 35.875  C 10.25 35.6197916666667  10.330078125 35.41015625  10.490234375 35.24609375  C 10.650390625 35.08203125  10.8550347222222 35  11.1041666666667 35  Z " fill-rule="nonzero" fill="#3c8dbc" stroke="none" transform="matrix(1 0 0 1 14 51 )" />
  </g>
</svg>