<?xml version="1.0" encoding="utf-8"?>
<svg version="1.1" xmlns:xlink="http://www.w3.org/1999/xlink" width="50px" height="47px" xmlns="http://www.w3.org/2000/svg">
  <g transform="matrix(1 0 0 1 -214 -278 )">
    <path d="M 0 10.0714285714286  L 25 0  L 50 10.0714285714286  L 50 13.4285714285714  L 46.6666666666667 13.4285714285714  C 46.6666666666667 13.8831845238095  46.4887152777778 14.276599702381  46.1328125 14.6088169642857  C 45.7769097222222 14.9410342261905  45.3559027777778 15.1071428571429  44.8697916666667 16  L 5.13020833333333 16  C 4.64409722222222 15.1071428571429  4.22309027777778 14.9410342261905  3.8671875 14.6088169642857  C 3.51128472222222 14.276599702381  3.33333333333333 13.8831845238095  3.33333333333333 13.4285714285714  L 0 13.4285714285714  L 0 10.0714285714286  Z M 7 36.9285714285714  L 7 16.7857142857143  L 14 16.7857142857143  L 14 36.9285714285714  L 17 36.9285714285714  L 17 16.7857142857143  L 24 16.7857142857143  L 24 36.9285714285714  L 26 36.9285714285714  L 26 16.7857142857143  L 33 16.7857142857143  L 33 36.9285714285714  L 36 36.9285714285714  L 36 16.7857142857143  L 43 16.7857142857143  L 43 36.9285714285714  L 44.8697916666667 36.9285714285714  C 45.3559027777778 36.9285714285714  45.7769097222222 37.0946800595238  46.1328125 37.4268973214286  C 46.4887152777778 37.7591145833333  46.6666666666667 38.1525297619048  46.6666666666667 38.6071428571429  L 46.6666666666667 40  L 3.33333333333333 40  L 3.33333333333333 38.6071428571429  C 3.33333333333333 38.1525297619048  3.51128472222222 37.7591145833333  3.8671875 37.4268973214286  C 4.22309027777778 37.0946800595238  4.64409722222222 36.9285714285714  5.13020833333333 36.9285714285714  L 7 36.9285714285714  Z M 1.796875 42  L 48.203125 42  C 48.6892361111111 41.9642857142857  49.1102430555556 42.1303943452381  49.4661458333333 42.4626116071429  C 49.8220486111111 42.7948288690476  50 43.1882440476191  50 43.6428571428571  L 50 47  L 0 47  L 0 43.6428571428571  C 0 43.1882440476191  0.177951388888889 42.7948288690476  0.533854166666667 42.4626116071429  C 0.889756944444445 42.1303943452381  1.31076388888889 41.9642857142857  1.796875 42  Z " fill-rule="nonzero" fill="#2262ae" stroke="none" transform="matrix(1 0 0 1 214 278 )" />
  </g>
</svg>