<?xml version="1.0" encoding="utf-8"?>
<svg version="1.1" xmlns:xlink="http://www.w3.org/1999/xlink" width="50px" height="39px" xmlns="http://www.w3.org/2000/svg">
  <g transform="matrix(1 0 0 1 -1236 -281 )">
    <path d="M 23.3183856502242 29.25  L 24.8878923766816 29.25  L 28.1390134529148 26.0369318181818  L 23.8789237668161 21.8267045454545  L 20.627802690583 25.0397727272727  L 20.627802690583 26.5909090909091  L 23.3183856502242 26.5909090909091  L 23.3183856502242 29.25  Z M 37.1917040358744 10.2208806818182  C 37.5093423019432 9.90696022727272  37.5186846038864 9.60227272727272  37.219730941704 9.30681818181818  C 36.9207772795217 9.01136363636363  36.6124813153961 9.02059659090909  36.2948430493274 9.33451704545455  L 26.4854260089686 19.0291193181818  C 26.1677877428999 19.3430397727273  26.1584454409567 19.6477272727273  26.457399103139 19.9431818181818  C 26.7563527653214 20.2386363636364  27.0646487294469 20.2294034090909  27.3822869955157 19.9154829545455  L 37.1917040358744 10.2208806818182  Z M 38.9013452914798 24.9566761363636  C 39.2750373692078 25.1044034090909  39.4618834080717 25.3721590909091  39.4618834080717 25.7599431818182  L 39.4618834080717 31.0227272727273  C 39.4618834080717 33.2201704545455  38.6724588938715 35.0990767045455  37.0936098654709 36.6594460227273  C 35.5147608370703 38.2198153409091  33.6136023916293 39  31.390134529148 39  L 8.07174887892377 39  C 5.84828101644245 39  3.94712257100149 38.2198153409091  2.3682735426009 36.6594460227273  C 0.789424514200299 35.0990767045455  0 33.2201704545455  0 31.0227272727273  L 0 7.97727272727273  C 0 5.77982954545454  0.789424514200299 3.90092329545454  2.3682735426009 2.34055397727273  C 3.94712257100149 0.780184659090905  5.84828101644245 0  8.07174887892377 0  L 31.390134529148 0  C 32.567264573991 0  33.6603139013453 0.230823863636362  34.6692825112108 0.692471590909089  C 34.9495515695067 0.821732954545452  35.1177130044843 1.03409090909091  35.1737668161435 1.32954545454545  C 35.2298206278027 1.64346590909091  35.1457399103139 1.91122159090909  34.9215246636771 2.1328125  L 33.5482062780269 3.49005681818182  C 33.2866218236173 3.74857954545454  32.987668161435 3.82244318181818  32.6513452914798 3.71164772727273  C 32.2215994020927 3.60085227272727  31.8011958146487 3.54545454545455  31.390134529148 4  L 8.07174887892377 4  C 6.83856502242153 3.54545454545455  5.78288490284006 3.97940340909091  4.90470852017937 4.84730113636364  C 4.02653213751869 5.71519886363636  3.58744394618834 6.75852272727273  4 7.97727272727273  L 4 31.0227272727273  C 3.58744394618834 32.2414772727273  4.02653213751869 33.2848011363636  4.90470852017937 34.1526988636364  C 5.78288490284006 35.0205965909091  6.83856502242153 35.4545454545455  8.07174887892377 35  L 31.390134529148 35  C 32.6233183856502 35.4545454545455  33.6789985052317 35.0205965909091  34.5571748878924 34.1526988636364  C 35.4353512705531 33.2848011363636  35.8744394618834 32.2414772727273  35.8744394618834 31.0227272727273  L 35.8744394618834 27.5326704545455  C 35.8744394618834 27.2926136363636  35.9585201793722 27.0894886363636  36.1266816143498 26.9232954545455  L 37.9204035874439 25.1505681818182  C 38.2006726457399 24.8735795454545  38.5276532137519 24.8089488636364  38.9013452914798 24.9566761363636  Z M 17.9372197309417 23.9318181818182  L 36.7713004484305 5.31818181818182  L 44.8430493273543 13.2954545454545  L 26.0089686098655 31.9090909090909  L 17.9372197309417 31.9090909090909  L 17.9372197309417 23.9318181818182  Z M 50 7.09090909090909  C 50 7.82954545454545  49.7384155455904 8.45738636363636  49.2152466367713 8.97443181818182  L 46.6367713004484 11.5227272727273  L 38.5650224215247 3.54545454545455  L 41.1434977578475 0.997159090909089  C 41.6666666666667 0.480113636363633  42.3019431988042 0.221590909090911  43.0493273542601 0.221590909090911  C 43.796711509716 0.221590909090911  44.4319880418535 0.480113636363633  44.9551569506726 0.997159090909089  L 49.2152466367713 5.20738636363636  C 49.7384155455904 5.72443181818181  50 6.35227272727273  50 7.09090909090909  Z " fill-rule="nonzero" fill="#0eafc0" stroke="none" transform="matrix(1 0 0 1 1236 281 )" />
  </g>
</svg>