<?xml version="1.0" encoding="utf-8"?>
<svg version="1.1" xmlns:xlink="http://www.w3.org/1999/xlink" width="12px" height="12px" xmlns="http://www.w3.org/2000/svg">
  <g transform="matrix(1 0 0 1 -688 -175 )">
    <path d="M 2.02772277227723 10.9861386138614  L 2.87524752475248 10.9861386138614  L 3.5960396039604 10.2653465346535  L 1.73465346534653 8.4039603960396  L 1.01386138613861 9.12475247524753  L 1.01386138613861 9.97227722772277  L 2.02772277227723 9.97227722772277  L 2.02772277227723 10.9861386138614  Z M 6.96237623762376 3.77029702970297  C 6.9993399339934 3.73333333333333  7.01782178217822 3.68844884488449  7.01782178217822 3.63564356435644  C 7.01782178217822 3.51947194719472  6.95973597359736 3.46138613861386  6.84356435643564 3.46138613861386  C 6.79075907590759 3.46138613861386  6.74587458745875 3.47986798679868  6.70891089108911 3.51683168316832  L 2.41584158415842 7.80990099009901  C 2.37887788778878 7.84686468646865  2.36039603960396 7.89174917491749  2.36039603960396 7.94455445544554  C 2.36039603960396 8.06072607260726  2.41848184818482 8.11881188118812  2.53465346534653 8.11881188118812  C 2.58745874587459 8.11881188118812  2.63234323432343 8.1003300330033  2.66930693069307 8.06336633663366  L 6.96237623762376 3.77029702970297  Z M 0 8.70495049504951  L 6.59009900990099 2.11485148514852  L 9.88514851485149 5.40990099009901  L 3.2950495049505 12  L 0 12  L 0 8.70495049504951  Z M 11.7069306930693 2.15445544554455  C 11.9023102310231 2.36039603960396  12 2.6006600660066  12 2.87524752475248  C 12 3.15511551155116  11.9023102310231 3.39273927392739  11.7069306930693 3.58811881188119  L 10.3920792079208 4.9029702970297  L 7.0970297029703 1.60792079207921  L 8.41188118811881 0.3009900990099  C 8.6019801980198 0.100330033003299  8.83960396039604 0  9.12475247524753 0  C 9.40462046204621 0  9.64488448844885 0.100330033003299  9.84554455445545 0.3009900990099  L 11.7069306930693 2.15445544554455  Z " fill-rule="nonzero" fill="#ffffff" stroke="none" transform="matrix(1 0 0 1 688 175 )" />
  </g>
</svg>