<?xml version="1.0" encoding="utf-8"?>
<svg version="1.1" xmlns:xlink="http://www.w3.org/1999/xlink" width="33px" height="22px" xmlns="http://www.w3.org/2000/svg">
  <g transform="matrix(1 0 0 1 -634 -171 )">
    <path d="M 2.2 19.8  L 15.4 19.8  L 21.175 13  L 7.975 13  L 2.2 19.8  Z M 31.99453125 0.35234375  C 32.35546875 0.587239583333332  32.6276041666667 0.899479166666664  32.8109375 1.2890625  C 32.9828125 1.67864583333333  33.0372395833333 2.08828125  32.97421875 2.51796875  C 32.9111979166667 2.94765625  32.7364583333333 3.32291666666667  32.45 3.64375  L 17.05 21.24375  C 16.6145833333333 21.7479166666667  16.0645833333333 22  15.4 22  L 2.2 22  C 1.76458333333333 22  1.36640625 21.8825520833333  1.00546875 21.64765625  C 0.64453125 21.4127604166667  0.372395833333333 21.1005208333333  0.1890625 20.7109375  C 0.0171875 20.3213541666667  -0.0372395833333333 19.91171875  0.02578125 19.48203125  C 0.0888020833333333 19.05234375  0.263541666666667 18.6770833333333  0.55 18.35625  L 15.95 0.756250000000001  C 16.3854166666667 0.252083333333331  16.9354166666667 0  17.6 0  L 30.8 0  C 31.2354166666667 0  31.63359375 0.117447916666665  31.99453125 0.35234375  Z " fill-rule="nonzero" fill="#6f6f6f" stroke="none" transform="matrix(1 0 0 1 634 171 )" />
  </g>
</svg>