<svg xmlns="http://www.w3.org/2000/svg" width="30.391" height="19.082" viewBox="0 0 30.391 19.082">
  <g id="ic_EN_flag" transform="translate(-445.016 -317.213)">
    <g id="Group_27" data-name="Group 27" transform="translate(445.042 317.256)">
      <g id="Group_26" data-name="Group 26">
        <path id="Path_69" data-name="Path 69" d="M475.395,317.26v19.025l0,0H445.045V317.26Z" transform="translate(-445.045 -317.26)" fill="#2e4593"/>
      </g>
    </g>
    <g id="Group_32" data-name="Group 32" transform="translate(445.042 317.213)">
      <g id="Group_29" data-name="Group 29" transform="translate(0 0.005)">
        <g id="Group_28" data-name="Group 28">
          <path id="Path_70" data-name="Path 70" d="M475.395,334.3v1.981l0,0h-3.159l-9.315-5.84-.932-.584-1.1-.691-.369-.232-1.119-.7-.417-.264-.351-.217-.7-.44-.227-.144-.343-.214-3.308-2.078-1.488-.932-7.514-4.709v-1.983l.026-.037.06.037H448.2l9.494,5.951.932.586.25.155,1.488.932.149.094.571.358.9.563.153.1.779.488.761.476,2.043,1.279,1.488.932Z" transform="translate(-445.045 -317.219)" fill="#fcf5ff"/>
        </g>
      </g>
      <g id="Group_31" data-name="Group 31">
        <g id="Group_30" data-name="Group 30">
          <path id="Path_71" data-name="Path 71" d="M475.4,336.225l.006.07-2.03-.011-10.456-6.555-.891-.561-.041-.025-.9-.563-.544-.344-.992-.622-.921-.574-.131-.084-.574-.362-.227-.141-2.51-1.575-1.484-.932-8.659-5.429v-1.306l.026.005.06.037,10.676,6.692,1.484.932.407.255.932.586.351.219.57.358,1.052.659,1.383.866.153.1.506.315.273.173,1.212.759Z" transform="translate(-445.045 -317.213)" fill="#f42525"/>
        </g>
      </g>
    </g>
    <g id="Group_37" data-name="Group 37" transform="translate(445.042 317.256)">
      <g id="Group_34" data-name="Group 34">
        <g id="Group_33" data-name="Group 33">
          <path id="Path_72" data-name="Path 72" d="M475.395,317.636v1.979l-6.921,4.337-1.485.932-3.311,2.078-.761.474-.779.49-.153.1-.351.219-.548.344-.571.356-.369.232-1.518.951-.932.586-8.9,5.579h-3.751v-1.611l8.781-5.505,1.484-.932,2.044-1.279.343-.216.227-.146.7-.44.351-.216,1.536-.966.149-.094,1.32-.827.168-.105.764-.479,9.912-6.213h2.326Z" transform="translate(-445.045 -317.26)" fill="#fcf5ff"/>
        </g>
      </g>
      <g id="Group_36" data-name="Group 36">
        <g id="Group_35" data-name="Group 35">
          <path id="Path_73" data-name="Path 73" d="M475.316,317.734l-9.919,6.218-1.488.932-.992.624-.779.49-.153.1-1.383.868-1.052.657-.57.358-.351.219-.071.044-.861.542-.627.39-11.343,7.116h-.683V335.4l9.923-6.225,1.488-.932,1.242-.779.227-.143.574-.358.131-.086.921-.574,1.536-.966.72-.453.179-.11.932-.586.376-.235,10.672-6.692h1.428l0,.417Z" transform="translate(-445.045 -317.26)" fill="#f42525"/>
        </g>
      </g>
    </g>
    <g id="Group_39" data-name="Group 39" transform="translate(445.016 323.948)">
      <g id="Group_38" data-name="Group 38">
        <rect id="Rectangle_2" data-name="Rectangle 2" width="30.391" height="5.22" fill="#fff"/>
      </g>
    </g>
    <g id="Group_41" data-name="Group 41" transform="translate(445.016 324.88)">
      <g id="Group_40" data-name="Group 40">
        <rect id="Rectangle_3" data-name="Rectangle 3" width="30.391" height="3.357" fill="#f42525"/>
      </g>
    </g>
    <g id="Group_43" data-name="Group 43" transform="translate(458.627 317.256)">
      <g id="Group_42" data-name="Group 42">
        <rect id="Rectangle_4" data-name="Rectangle 4" width="3.356" height="19.029" fill="#cd002a"/>
      </g>
    </g>
    <g id="Group_48" data-name="Group 48" transform="translate(457.687 317.256)">
      <g id="Group_45" data-name="Group 45">
        <g id="Group_44" data-name="Group 44">
          <path id="Path_74" data-name="Path 74" d="M463.194,329.172h.933v7.116h-5.221v-7.116h.932v-5.22h-.932V317.26h5.221v6.692h-.933Z" transform="translate(-458.906 -317.26)" fill="#fff"/>
        </g>
      </g>
      <g id="Group_47" data-name="Group 47" transform="translate(0.914)">
        <g id="Group_46" data-name="Group 46">
          <rect id="Rectangle_5" data-name="Rectangle 5" width="3.391" height="19.029" fill="#f42525"/>
        </g>
      </g>
    </g>
  </g>
</svg>
