<svg id="Layer_1" data-name="Layer 1" xmlns="http://www.w3.org/2000/svg" viewBox="0 0 595.28 841.89"><g id="Page_1" data-name="Page 1"><g id="BG"><g id="Answersheet_Frame" data-name="Answersheet Frame"><rect x="20.94" y="21.11" width="553.55" height="799.67" fill="#fff" stroke="#231f20" stroke-miterlimit="10" stroke-width="0.75"/><g id="Anchor"><rect x="20.78" y="21.11" width="14.39" height="9.44" fill="#231f20"/><rect x="560.1" y="811.34" width="14.39" height="9.44" fill="#231f20"/><rect x="20.78" y="811.34" width="14.39" height="9.44" fill="#231f20"/><rect x="560.1" y="21.11" width="14.39" height="9.44" fill="#231f20"/></g></g><text transform="translate(290.89 804.03)" font-size="8" fill="#231f20" font-family="ArialNarrow, Arial Narrow">v3.0</text><g id="Type"><rect x="70.89" y="791.37" width="128" height="16" fill="#fff" stroke="#231f20" stroke-miterlimit="10" stroke-width="0.5"/><text transform="translate(46.82 802.81)" font-size="8" fill="#231f20" font-family="ArialNarrow, Arial Narrow"><tspan letter-spacing="-0.04em">T</tspan><tspan x="3.65" y="0">ype:</tspan></text><g id="TypeID"><rect x="70.89" y="791.37" width="16" height="16" fill="none"/><rect x="86.89" y="791.37" width="16" height="16" fill="none"/><rect x="102.89" y="791.37" width="16" height="16" fill="none"/><rect x="118.89" y="791.37" width="16" height="16" fill="none"/><rect x="134.89" y="791.37" width="16" height="16" fill="none"/><rect x="150.89" y="791.37" width="16" height="16" fill="none"/><rect x="166.89" y="791.37" width="16" height="16" fill="none"/><rect x="182.89" y="791.37" width="16" height="16" fill="none"/><circle cx="78.89" cy="799.37" r="4.5" fill="#231f20" stroke="#231f20" stroke-miterlimit="10" stroke-width="0.25"/><circle cx="94.89" cy="799.37" r="4.5" fill="#231f20" stroke="#231f20" stroke-miterlimit="10" stroke-width="0.25"/><circle cx="110.89" cy="799.37" r="4.5" fill="#fff" stroke="#231f20" stroke-miterlimit="10" stroke-width="0.25"/><circle cx="126.89" cy="799.37" r="4.5" fill="#fff" stroke="#231f20" stroke-miterlimit="10" stroke-width="0.25"/><circle cx="142.89" cy="799.83" r="4.5" fill="#fff" stroke="#231f20" stroke-miterlimit="10" stroke-width="0.25"/><circle cx="158.89" cy="799.83" r="4.5" fill="#fff" stroke="#231f20" stroke-miterlimit="10" stroke-width="0.25"/><circle cx="174.89" cy="799.83" r="4.5" fill="#231f20" stroke="#231f20" stroke-miterlimit="10" stroke-width="0.25"/><circle cx="190.89" cy="799.83" r="4.5" fill="#231f20" stroke="#231f20" stroke-miterlimit="10" stroke-width="0.25"/></g></g></g><path d="M394.93,45.81V35.11h3.24l1.92,7.3,1.9-7.3h3.25v10.7h-2V37.38l-2.11,8.43H399l-2.1-8.43v8.43Zm-6.76,2.93V46.69h2.05v2.05Zm1-15.15-.8.55h-1.43l1.58-1h1.3l1.59,1H390ZM385,45.81V35.11h7.93v1.81h-5.76v2.37h5.35V41.1h-5.35V44h6v1.81Zm-4.22,0V35.11h2.16v10.7Zm-10.73,0V35.11h2.17v4.21h4.22V35.11h2.17v10.7h-2.17V41.13H372.2v4.68Zm-6.65-3.93V40.07H368v4.27a5.87,5.87,0,0,1-2,1.17,7.24,7.24,0,0,1-2.61.5,5.86,5.86,0,0,1-2.93-.71,4.52,4.52,0,0,1-1.87-2,6.51,6.51,0,0,1-.63-2.86,6.19,6.19,0,0,1,.7-3,4.75,4.75,0,0,1,2-2,5.48,5.48,0,0,1,2.56-.54,5.12,5.12,0,0,1,3.12.84,3.84,3.84,0,0,1,1.44,2.32l-2.15.4a2.35,2.35,0,0,0-.85-1.25,2.62,2.62,0,0,0-1.56-.45,2.93,2.93,0,0,0-2.25.9,3.82,3.82,0,0,0-.83,2.66,4.24,4.24,0,0,0,.84,2.87,2.86,2.86,0,0,0,2.22.95,3.86,3.86,0,0,0,1.36-.26,5,5,0,0,0,1.17-.65V41.88Zm-15.77,3.93V35.11h2.1l4.4,7.17V35.11h2v10.7H354l-4.34-7v7Zm-8.11-4,2.1.65A4.7,4.7,0,0,1,340,45.13a4.55,4.55,0,0,1-2.84.86,4.6,4.6,0,0,1-3.51-1.46,5.59,5.59,0,0,1-1.37-4,5.87,5.87,0,0,1,1.38-4.16,4.75,4.75,0,0,1,3.63-1.48,4.43,4.43,0,0,1,3.19,1.17,4.2,4.2,0,0,1,1.1,2l-2.14.51a2.2,2.2,0,0,0-2.26-1.79,2.43,2.43,0,0,0-1.93.85,4.16,4.16,0,0,0-.74,2.77,4.48,4.48,0,0,0,.73,2.89,2.38,2.38,0,0,0,1.9.86,2.14,2.14,0,0,0,1.48-.55A3.16,3.16,0,0,0,339.5,41.86Zm-14.38-8.31.88-1.19h2.29l-1.88,1.19Zm-.92.62a1.74,1.74,0,0,1-.32-.38h.7a1.07,1.07,0,0,0,.47.28,3.33,3.33,0,0,0,1.91,0,1.29,1.29,0,0,0,.48-.28h.7a1.65,1.65,0,0,1-.76.68,3.06,3.06,0,0,1-1.38.28,3.64,3.64,0,0,1-.48,0A2.17,2.17,0,0,1,324.2,34.17Zm3.34,7.4-1.49-4-1.44,4Zm4,4.24h-2.33l-.93-2.44H324l-.89,2.44h-2.29l4.15-10.7h2.29Zm-18.27-6.17h1.6a8.73,8.73,0,0,0,1.94-.13,1.18,1.18,0,0,0,.61-.46,1.42,1.42,0,0,0,.22-.8,1.33,1.33,0,0,0-.29-.88,1.35,1.35,0,0,0-.82-.42c-.17,0-.7,0-1.57,0h-1.69Zm-2.17,6.17V35.11h4.56a7.56,7.56,0,0,1,2.49.29,2.48,2.48,0,0,1,1.25,1,3.08,3.08,0,0,1,.46,1.69,2.88,2.88,0,0,1-.7,2,3.41,3.41,0,0,1-2.11,1,5.14,5.14,0,0,1,1.15.89,13.42,13.42,0,0,1,1.23,1.74l1.3,2.09h-2.58l-1.55-2.34a15,15,0,0,0-1.15-1.57,1.67,1.67,0,0,0-.65-.44,3.58,3.58,0,0,0-1.09-.12h-.44v4.47Zm-6.72,0V36.92h-3.17V35.11h8.49v1.81h-3.15v8.89Zm-10.79,0V35.11h2.17v10.7ZM287,34.14h-1.28l-2-2.19h2.29Zm3.53,1h2v1.46a4.82,4.82,0,0,1-.16,1.42,2,2,0,0,1-.57.91,2.84,2.84,0,0,1-1,.63c0,.3.05.62.05.95a5.68,5.68,0,0,1-1.4,4.05,5.61,5.61,0,0,1-7.58,0,5.57,5.57,0,0,1-1.41-4,5.81,5.81,0,0,1,1.49-4.22,4.93,4.93,0,0,1,3.69-1.39,5,5,0,0,1,3.79,1.48,4.92,4.92,0,0,1,1.2,2.2,1.48,1.48,0,0,0,.88-1.43h-1Zm-7.83,5.34a4.18,4.18,0,0,0,.84,2.77,2.92,2.92,0,0,0,4.27,0,4.25,4.25,0,0,0,.82-2.8,4.14,4.14,0,0,0-.8-2.75,2.69,2.69,0,0,0-2.15-.9,2.66,2.66,0,0,0-2.16.92A4.12,4.12,0,0,0,282.65,40.45ZM271.8,45.81V35.2H274V44h5.36v1.81ZM260.58,33.9a4.74,4.74,0,0,0,.54-.08c.25-.07.39-.18.39-.34a.3.3,0,0,0-.2-.28,2,2,0,0,0-1-.17l-.69,0-.08-.74a5.44,5.44,0,0,1,1.06,0,3.29,3.29,0,0,1,1.47.29,1,1,0,0,1,.65.85c0,.51-.43.82-1.33.93v.36h-.83Zm1.89,7.67-1.49-4-1.44,4Zm4,4.24h-2.34l-.92-2.44h-4.29L258,45.81H255.7l4.15-10.7h2.29Zm-18.27-6.17h1.6a8.8,8.8,0,0,0,1.94-.13,1.15,1.15,0,0,0,.6-.46,1.35,1.35,0,0,0,.22-.8,1.28,1.28,0,0,0-.29-.88,1.32,1.32,0,0,0-.81-.42c-.18,0-.7,0-1.58,0h-1.68ZM246,45.81V35.11h4.55a7.59,7.59,0,0,1,2.5.29,2.42,2.42,0,0,1,1.24,1,3.09,3.09,0,0,1,.47,1.69,2.88,2.88,0,0,1-.7,2,3.46,3.46,0,0,1-2.11,1,5.38,5.38,0,0,1,1.15.89,12.64,12.64,0,0,1,1.22,1.74l1.31,2.09H253l-1.55-2.34a14,14,0,0,0-1.14-1.57,1.67,1.67,0,0,0-.65-.44,3.63,3.63,0,0,0-1.09-.12h-.44v4.47Zm-6.73,0V36.92h-3.17V35.11h8.5v1.81h-3.16v8.89Zm-17.35-10.7h2.16v5.8a12.57,12.57,0,0,0,.08,1.79,1.73,1.73,0,0,0,.66,1,2.21,2.21,0,0,0,1.41.4,2.16,2.16,0,0,0,1.38-.37,1.53,1.53,0,0,0,.55-.93,12.27,12.27,0,0,0,.1-1.82V35.11h2.16v5.63a14.28,14.28,0,0,1-.17,2.72,3,3,0,0,1-.65,1.35,3.33,3.33,0,0,1-1.25.87,5.39,5.39,0,0,1-2.05.33,5.82,5.82,0,0,1-2.32-.36,3.24,3.24,0,0,1-1.25-.92,2.92,2.92,0,0,1-.6-1.19,13.11,13.11,0,0,1-.21-2.72Zm-6.67-1.56.88-1.19h2.29l-1.89,1.19Zm.87.65-.8.55h-1.43l1.58-1h1.3l1.59,1h-1.44Zm-4.18,11.61V35.11h7.93v1.81H214.1v2.37h5.35V41.1H214.1V44h6v1.81Zm-4.22,0V35.11h2.16v10.7Zm-10.73,0V35.11h2.17v4.21h4.22V35.11h2.17v10.7h-2.17V41.13h-4.22v4.68Zm-7.8-8.89v3h1.18a5.59,5.59,0,0,0,1.7-.17,1.42,1.42,0,0,0,.67-.53,1.49,1.49,0,0,0,.25-.84,1.41,1.41,0,0,0-.34-1,1.46,1.46,0,0,0-.87-.48,10.26,10.26,0,0,0-1.55-.07ZM187,45.81V35.11h3.47a12.22,12.22,0,0,1,2.56.16,2.76,2.76,0,0,1,1.54,1,3.26,3.26,0,0,1,.62,2.08,3.61,3.61,0,0,1-.35,1.66,2.85,2.85,0,0,1-.91,1,3,3,0,0,1-1.12.51,12.34,12.34,0,0,1-2.24.16h-1.4v4Z" fill="#252525"/><path d="M394.93,45.81V35.11h3.24l1.92,7.3,1.9-7.3h3.25v10.7h-2V37.38l-2.11,8.43H399l-2.1-8.43v8.43Zm-6.76,2.93V46.69h2.05v2.05Zm1-15.15-.8.55h-1.43l1.58-1h1.3l1.59,1H390ZM385,45.81V35.11h7.93v1.81h-5.76v2.37h5.35V41.1h-5.35V44h6v1.81Zm-4.22,0V35.11h2.16v10.7Zm-10.73,0V35.11h2.17v4.21h4.22V35.11h2.17v10.7h-2.17V41.13H372.2v4.68Zm-6.65-3.93V40.07H368v4.27a5.87,5.87,0,0,1-2,1.17,7.24,7.24,0,0,1-2.61.5,5.86,5.86,0,0,1-2.93-.71,4.52,4.52,0,0,1-1.87-2,6.51,6.51,0,0,1-.63-2.86,6.19,6.19,0,0,1,.7-3,4.75,4.75,0,0,1,2-2,5.48,5.48,0,0,1,2.56-.54,5.12,5.12,0,0,1,3.12.84,3.84,3.84,0,0,1,1.44,2.32l-2.15.4a2.35,2.35,0,0,0-.85-1.25,2.62,2.62,0,0,0-1.56-.45,2.93,2.93,0,0,0-2.25.9,3.82,3.82,0,0,0-.83,2.66,4.24,4.24,0,0,0,.84,2.87,2.86,2.86,0,0,0,2.22.95,3.86,3.86,0,0,0,1.36-.26,5,5,0,0,0,1.17-.65V41.88Zm-15.77,3.93V35.11h2.1l4.4,7.17V35.11h2v10.7H354l-4.34-7v7Zm-8.11-4,2.1.65A4.7,4.7,0,0,1,340,45.13a4.55,4.55,0,0,1-2.84.86,4.6,4.6,0,0,1-3.51-1.46,5.59,5.59,0,0,1-1.37-4,5.87,5.87,0,0,1,1.38-4.16,4.75,4.75,0,0,1,3.63-1.48,4.43,4.43,0,0,1,3.19,1.17,4.2,4.2,0,0,1,1.1,2l-2.14.51a2.2,2.2,0,0,0-2.26-1.79,2.43,2.43,0,0,0-1.93.85,4.16,4.16,0,0,0-.74,2.77,4.48,4.48,0,0,0,.73,2.89,2.38,2.38,0,0,0,1.9.86,2.14,2.14,0,0,0,1.48-.55A3.16,3.16,0,0,0,339.5,41.86Zm-14.38-8.31.88-1.19h2.29l-1.88,1.19Zm-.92.62a1.74,1.74,0,0,1-.32-.38h.7a1.07,1.07,0,0,0,.47.28,3.33,3.33,0,0,0,1.91,0,1.29,1.29,0,0,0,.48-.28h.7a1.65,1.65,0,0,1-.76.68,3.06,3.06,0,0,1-1.38.28,3.64,3.64,0,0,1-.48,0A2.17,2.17,0,0,1,324.2,34.17Zm3.34,7.4-1.49-4-1.44,4Zm4,4.24h-2.33l-.93-2.44H324l-.89,2.44h-2.29l4.15-10.7h2.29Zm-18.27-6.17h1.6a8.73,8.73,0,0,0,1.94-.13,1.18,1.18,0,0,0,.61-.46,1.42,1.42,0,0,0,.22-.8,1.33,1.33,0,0,0-.29-.88,1.35,1.35,0,0,0-.82-.42c-.17,0-.7,0-1.57,0h-1.69Zm-2.17,6.17V35.11h4.56a7.56,7.56,0,0,1,2.49.29,2.48,2.48,0,0,1,1.25,1,3.08,3.08,0,0,1,.46,1.69,2.88,2.88,0,0,1-.7,2,3.41,3.41,0,0,1-2.11,1,5.14,5.14,0,0,1,1.15.89,13.42,13.42,0,0,1,1.23,1.74l1.3,2.09h-2.58l-1.55-2.34a15,15,0,0,0-1.15-1.57,1.67,1.67,0,0,0-.65-.44,3.58,3.58,0,0,0-1.09-.12h-.44v4.47Zm-6.72,0V36.92h-3.17V35.11h8.49v1.81h-3.15v8.89Zm-10.79,0V35.11h2.17v10.7ZM287,34.14h-1.28l-2-2.19h2.29Zm3.53,1h2v1.46a4.82,4.82,0,0,1-.16,1.42,2,2,0,0,1-.57.91,2.84,2.84,0,0,1-1,.63c0,.3.05.62.05.95a5.68,5.68,0,0,1-1.4,4.05,5.61,5.61,0,0,1-7.58,0,5.57,5.57,0,0,1-1.41-4,5.81,5.81,0,0,1,1.49-4.22,4.93,4.93,0,0,1,3.69-1.39,5,5,0,0,1,3.79,1.48,4.92,4.92,0,0,1,1.2,2.2,1.48,1.48,0,0,0,.88-1.43h-1Zm-7.83,5.34a4.18,4.18,0,0,0,.84,2.77,2.92,2.92,0,0,0,4.27,0,4.25,4.25,0,0,0,.82-2.8,4.14,4.14,0,0,0-.8-2.75,2.69,2.69,0,0,0-2.15-.9,2.66,2.66,0,0,0-2.16.92A4.12,4.12,0,0,0,282.65,40.45ZM271.8,45.81V35.2H274V44h5.36v1.81ZM260.58,33.9a4.74,4.74,0,0,0,.54-.08c.25-.07.39-.18.39-.34a.3.3,0,0,0-.2-.28,2,2,0,0,0-1-.17l-.69,0-.08-.74a5.44,5.44,0,0,1,1.06,0,3.29,3.29,0,0,1,1.47.29,1,1,0,0,1,.65.85c0,.51-.43.82-1.33.93v.36h-.83Zm1.89,7.67-1.49-4-1.44,4Zm4,4.24h-2.34l-.92-2.44h-4.29L258,45.81H255.7l4.15-10.7h2.29Zm-18.27-6.17h1.6a8.8,8.8,0,0,0,1.94-.13,1.15,1.15,0,0,0,.6-.46,1.35,1.35,0,0,0,.22-.8,1.28,1.28,0,0,0-.29-.88,1.32,1.32,0,0,0-.81-.42c-.18,0-.7,0-1.58,0h-1.68ZM246,45.81V35.11h4.55a7.59,7.59,0,0,1,2.5.29,2.42,2.42,0,0,1,1.24,1,3.09,3.09,0,0,1,.47,1.69,2.88,2.88,0,0,1-.7,2,3.46,3.46,0,0,1-2.11,1,5.38,5.38,0,0,1,1.15.89,12.64,12.64,0,0,1,1.22,1.74l1.31,2.09H253l-1.55-2.34a14,14,0,0,0-1.14-1.57,1.67,1.67,0,0,0-.65-.44,3.63,3.63,0,0,0-1.09-.12h-.44v4.47Zm-6.73,0V36.92h-3.17V35.11h8.5v1.81h-3.16v8.89Zm-17.35-10.7h2.16v5.8a12.57,12.57,0,0,0,.08,1.79,1.73,1.73,0,0,0,.66,1,2.21,2.21,0,0,0,1.41.4,2.16,2.16,0,0,0,1.38-.37,1.53,1.53,0,0,0,.55-.93,12.27,12.27,0,0,0,.1-1.82V35.11h2.16v5.63a14.28,14.28,0,0,1-.17,2.72,3,3,0,0,1-.65,1.35,3.33,3.33,0,0,1-1.25.87,5.39,5.39,0,0,1-2.05.33,5.82,5.82,0,0,1-2.32-.36,3.24,3.24,0,0,1-1.25-.92,2.92,2.92,0,0,1-.6-1.19,13.11,13.11,0,0,1-.21-2.72Zm-6.67-1.56.88-1.19h2.29l-1.89,1.19Zm.87.65-.8.55h-1.43l1.58-1h1.3l1.59,1h-1.44Zm-4.18,11.61V35.11h7.93v1.81H214.1v2.37h5.35V41.1H214.1V44h6v1.81Zm-4.22,0V35.11h2.16v10.7Zm-10.73,0V35.11h2.17v4.21h4.22V35.11h2.17v10.7h-2.17V41.13h-4.22v4.68Zm-7.8-8.89v3h1.18a5.59,5.59,0,0,0,1.7-.17,1.42,1.42,0,0,0,.67-.53,1.49,1.49,0,0,0,.25-.84,1.41,1.41,0,0,0-.34-1,1.46,1.46,0,0,0-.87-.48,10.26,10.26,0,0,0-1.55-.07ZM187,45.81V35.11h3.47a12.22,12.22,0,0,1,2.56.16,2.76,2.76,0,0,1,1.54,1,3.26,3.26,0,0,1,.62,2.08,3.61,3.61,0,0,1-.35,1.66,2.85,2.85,0,0,1-.91,1,3,3,0,0,1-1.12.51,12.34,12.34,0,0,1-2.24.16h-1.4v4Z" fill="none" stroke="#252525" stroke-miterlimit="2.61" stroke-width="0.22"/><rect x="388.27" y="83.31" width="12.65" height="16.93" fill="none" stroke="#737373" stroke-miterlimit="10" stroke-width="0.5"/><rect x="400.92" y="83.31" width="12.65" height="16.93" fill="none" stroke="#737373" stroke-miterlimit="10" stroke-width="0.5"/><rect x="413.57" y="83.31" width="12.65" height="16.93" fill="none" stroke="#737373" stroke-miterlimit="10" stroke-width="0.5"/><rect x="426.21" y="83.31" width="12.65" height="16.93" fill="none" stroke="#737373" stroke-miterlimit="10" stroke-width="0.5"/><rect x="438.86" y="83.31" width="12.65" height="16.93" fill="none" stroke="#737373" stroke-miterlimit="10" stroke-width="0.5"/><rect x="451.51" y="83.31" width="12.65" height="16.93" fill="none" stroke="#737373" stroke-miterlimit="10" stroke-width="0.5"/><rect x="375.44" y="109.05" width="13.39" height="13.39" fill="#1e1e1e"/><path d="M394.57,123.4a4.79,4.79,0,1,1-4.78,4.79A4.79,4.79,0,0,1,394.57,123.4Z" fill="none" stroke="#252525" stroke-miterlimit="10" stroke-width="0.2"/><path d="M394.57,135.84a4.79,4.79,0,1,1-4.78,4.78A4.78,4.78,0,0,1,394.57,135.84Z" fill="none" stroke="#252525" stroke-miterlimit="10" stroke-width="0.2"/><path d="M394.57,148.28a4.78,4.78,0,1,1-4.78,4.78A4.78,4.78,0,0,1,394.57,148.28Z" fill="none" stroke="#252525" stroke-miterlimit="10" stroke-width="0.2"/><path d="M394.57,160.71a4.79,4.79,0,1,1-4.78,4.78A4.78,4.78,0,0,1,394.57,160.71Z" fill="none" stroke="#252525" stroke-miterlimit="10" stroke-width="0.2"/><path d="M394.57,173.15a4.78,4.78,0,1,1-4.78,4.78A4.78,4.78,0,0,1,394.57,173.15Z" fill="none" stroke="#252525" stroke-miterlimit="10" stroke-width="0.2"/><path d="M394.57,185.58a4.79,4.79,0,1,1-4.78,4.79A4.79,4.79,0,0,1,394.57,185.58Z" fill="none" stroke="#252525" stroke-miterlimit="10" stroke-width="0.2"/><path d="M394.57,198a4.79,4.79,0,1,1-4.78,4.78A4.78,4.78,0,0,1,394.57,198Z" fill="none" stroke="#252525" stroke-miterlimit="10" stroke-width="0.2"/><path d="M394.57,210.46a4.78,4.78,0,1,1-4.78,4.78A4.78,4.78,0,0,1,394.57,210.46Z" fill="none" stroke="#252525" stroke-miterlimit="10" stroke-width="0.2"/><path d="M394.57,222.89a4.79,4.79,0,1,1-4.78,4.78A4.78,4.78,0,0,1,394.57,222.89Z" fill="none" stroke="#252525" stroke-miterlimit="10" stroke-width="0.2"/><path d="M394.57,235.33a4.78,4.78,0,1,1-4.78,4.78A4.78,4.78,0,0,1,394.57,235.33Z" fill="none" stroke="#252525" stroke-miterlimit="10" stroke-width="0.2"/><path d="M407,123.4a4.79,4.79,0,1,1-4.78,4.79A4.79,4.79,0,0,1,407,123.4Z" fill="none" stroke="#252525" stroke-miterlimit="10" stroke-width="0.2"/><path d="M407,135.84a4.79,4.79,0,1,1-4.78,4.78A4.78,4.78,0,0,1,407,135.84Z" fill="none" stroke="#252525" stroke-miterlimit="10" stroke-width="0.2"/><path d="M407,148.28a4.78,4.78,0,1,1-4.78,4.78A4.78,4.78,0,0,1,407,148.28Z" fill="none" stroke="#252525" stroke-miterlimit="10" stroke-width="0.2"/><path d="M407,160.71a4.79,4.79,0,1,1-4.78,4.78A4.78,4.78,0,0,1,407,160.71Z" fill="none" stroke="#252525" stroke-miterlimit="10" stroke-width="0.2"/><path d="M407,173.15a4.78,4.78,0,1,1-4.78,4.78A4.78,4.78,0,0,1,407,173.15Z" fill="none" stroke="#252525" stroke-miterlimit="10" stroke-width="0.2"/><path d="M407,185.58a4.79,4.79,0,1,1-4.78,4.79A4.79,4.79,0,0,1,407,185.58Z" fill="none" stroke="#252525" stroke-miterlimit="10" stroke-width="0.2"/><path d="M407,198a4.79,4.79,0,1,1-4.78,4.78A4.78,4.78,0,0,1,407,198Z" fill="none" stroke="#252525" stroke-miterlimit="10" stroke-width="0.2"/><path d="M407,210.46a4.78,4.78,0,1,1-4.78,4.78A4.78,4.78,0,0,1,407,210.46Z" fill="none" stroke="#252525" stroke-miterlimit="10" stroke-width="0.2"/><path d="M407,222.89a4.79,4.79,0,1,1-4.78,4.78A4.78,4.78,0,0,1,407,222.89Z" fill="none" stroke="#252525" stroke-miterlimit="10" stroke-width="0.2"/><path d="M407,235.33a4.78,4.78,0,1,1-4.78,4.78A4.78,4.78,0,0,1,407,235.33Z" fill="none" stroke="#252525" stroke-miterlimit="10" stroke-width="0.2"/><path d="M419.44,123.4a4.79,4.79,0,1,1-4.78,4.79A4.79,4.79,0,0,1,419.44,123.4Z" fill="none" stroke="#252525" stroke-miterlimit="10" stroke-width="0.2"/><path d="M419.44,135.84a4.79,4.79,0,1,1-4.78,4.78A4.78,4.78,0,0,1,419.44,135.84Z" fill="none" stroke="#252525" stroke-miterlimit="10" stroke-width="0.2"/><path d="M419.44,148.28a4.78,4.78,0,1,1-4.78,4.78A4.78,4.78,0,0,1,419.44,148.28Z" fill="none" stroke="#252525" stroke-miterlimit="10" stroke-width="0.2"/><path d="M419.44,160.71a4.79,4.79,0,1,1-4.78,4.78A4.78,4.78,0,0,1,419.44,160.71Z" fill="none" stroke="#252525" stroke-miterlimit="10" stroke-width="0.2"/><path d="M419.44,173.15a4.78,4.78,0,1,1-4.78,4.78A4.78,4.78,0,0,1,419.44,173.15Z" fill="none" stroke="#252525" stroke-miterlimit="10" stroke-width="0.2"/><path d="M419.44,185.58a4.79,4.79,0,1,1-4.78,4.79A4.79,4.79,0,0,1,419.44,185.58Z" fill="none" stroke="#252525" stroke-miterlimit="10" stroke-width="0.2"/><path d="M419.44,198a4.79,4.79,0,1,1-4.78,4.78A4.78,4.78,0,0,1,419.44,198Z" fill="none" stroke="#252525" stroke-miterlimit="10" stroke-width="0.2"/><path d="M419.44,210.46a4.78,4.78,0,1,1-4.78,4.78A4.78,4.78,0,0,1,419.44,210.46Z" fill="none" stroke="#252525" stroke-miterlimit="10" stroke-width="0.2"/><path d="M419.44,222.89a4.79,4.79,0,1,1-4.78,4.78A4.78,4.78,0,0,1,419.44,222.89Z" fill="none" stroke="#252525" stroke-miterlimit="10" stroke-width="0.2"/><path d="M419.44,235.33a4.78,4.78,0,1,1-4.78,4.78A4.78,4.78,0,0,1,419.44,235.33Z" fill="none" stroke="#252525" stroke-miterlimit="10" stroke-width="0.2"/><path d="M431.88,123.4a4.79,4.79,0,1,1-4.79,4.79A4.79,4.79,0,0,1,431.88,123.4Z" fill="none" stroke="#252525" stroke-miterlimit="10" stroke-width="0.2"/><path d="M431.88,135.84a4.79,4.79,0,1,1-4.79,4.78A4.78,4.78,0,0,1,431.88,135.84Z" fill="none" stroke="#252525" stroke-miterlimit="10" stroke-width="0.2"/><path d="M431.88,148.28a4.78,4.78,0,1,1-4.79,4.78A4.78,4.78,0,0,1,431.88,148.28Z" fill="none" stroke="#252525" stroke-miterlimit="10" stroke-width="0.2"/><path d="M431.88,160.71a4.79,4.79,0,1,1-4.79,4.78A4.78,4.78,0,0,1,431.88,160.71Z" fill="none" stroke="#252525" stroke-miterlimit="10" stroke-width="0.2"/><path d="M431.88,173.15a4.78,4.78,0,1,1-4.79,4.78A4.78,4.78,0,0,1,431.88,173.15Z" fill="none" stroke="#252525" stroke-miterlimit="10" stroke-width="0.2"/><path d="M431.88,185.58a4.79,4.79,0,1,1-4.79,4.79A4.79,4.79,0,0,1,431.88,185.58Z" fill="none" stroke="#252525" stroke-miterlimit="10" stroke-width="0.2"/><path d="M431.88,198a4.79,4.79,0,1,1-4.79,4.78A4.78,4.78,0,0,1,431.88,198Z" fill="none" stroke="#252525" stroke-miterlimit="10" stroke-width="0.2"/><path d="M431.88,210.46a4.78,4.78,0,1,1-4.79,4.78A4.78,4.78,0,0,1,431.88,210.46Z" fill="none" stroke="#252525" stroke-miterlimit="10" stroke-width="0.2"/><path d="M431.88,222.89a4.79,4.79,0,1,1-4.79,4.78A4.78,4.78,0,0,1,431.88,222.89Z" fill="none" stroke="#252525" stroke-miterlimit="10" stroke-width="0.2"/><path d="M431.88,235.33a4.78,4.78,0,1,1-4.79,4.78A4.78,4.78,0,0,1,431.88,235.33Z" fill="none" stroke="#252525" stroke-miterlimit="10" stroke-width="0.2"/><path d="M444.31,123.4a4.79,4.79,0,1,1-4.78,4.79A4.8,4.8,0,0,1,444.31,123.4Z" fill="none" stroke="#252525" stroke-miterlimit="10" stroke-width="0.2"/><path d="M444.31,135.84a4.79,4.79,0,1,1-4.78,4.78A4.79,4.79,0,0,1,444.31,135.84Z" fill="none" stroke="#252525" stroke-miterlimit="10" stroke-width="0.2"/><path d="M444.31,148.28a4.78,4.78,0,1,1-4.78,4.78A4.79,4.79,0,0,1,444.31,148.28Z" fill="none" stroke="#252525" stroke-miterlimit="10" stroke-width="0.2"/><path d="M444.31,160.71a4.79,4.79,0,1,1-4.78,4.78A4.79,4.79,0,0,1,444.31,160.71Z" fill="none" stroke="#252525" stroke-miterlimit="10" stroke-width="0.2"/><path d="M444.31,173.15a4.78,4.78,0,1,1-4.78,4.78A4.79,4.79,0,0,1,444.31,173.15Z" fill="none" stroke="#252525" stroke-miterlimit="10" stroke-width="0.2"/><path d="M444.31,185.58a4.79,4.79,0,1,1-4.78,4.79A4.8,4.8,0,0,1,444.31,185.58Z" fill="none" stroke="#252525" stroke-miterlimit="10" stroke-width="0.2"/><path d="M444.31,198a4.79,4.79,0,1,1-4.78,4.78A4.79,4.79,0,0,1,444.31,198Z" fill="none" stroke="#252525" stroke-miterlimit="10" stroke-width="0.2"/><path d="M444.31,210.46a4.78,4.78,0,1,1-4.78,4.78A4.79,4.79,0,0,1,444.31,210.46Z" fill="none" stroke="#252525" stroke-miterlimit="10" stroke-width="0.2"/><path d="M444.31,222.89a4.79,4.79,0,1,1-4.78,4.78A4.79,4.79,0,0,1,444.31,222.89Z" fill="none" stroke="#252525" stroke-miterlimit="10" stroke-width="0.2"/><path d="M444.31,235.33a4.78,4.78,0,1,1-4.78,4.78A4.79,4.79,0,0,1,444.31,235.33Z" fill="none" stroke="#252525" stroke-miterlimit="10" stroke-width="0.2"/><path d="M456.75,123.4a4.79,4.79,0,1,1-4.79,4.79A4.79,4.79,0,0,1,456.75,123.4Z" fill="none" stroke="#252525" stroke-miterlimit="10" stroke-width="0.2"/><path d="M456.75,135.84a4.79,4.79,0,1,1-4.79,4.78A4.78,4.78,0,0,1,456.75,135.84Z" fill="none" stroke="#252525" stroke-miterlimit="10" stroke-width="0.2"/><path d="M456.75,148.28a4.78,4.78,0,1,1-4.79,4.78A4.78,4.78,0,0,1,456.75,148.28Z" fill="none" stroke="#252525" stroke-miterlimit="10" stroke-width="0.2"/><path d="M456.75,160.71a4.79,4.79,0,1,1-4.79,4.78A4.78,4.78,0,0,1,456.75,160.71Z" fill="none" stroke="#252525" stroke-miterlimit="10" stroke-width="0.2"/><path d="M456.75,173.15a4.78,4.78,0,1,1-4.79,4.78A4.78,4.78,0,0,1,456.75,173.15Z" fill="none" stroke="#252525" stroke-miterlimit="10" stroke-width="0.2"/><path d="M456.75,185.58a4.79,4.79,0,1,1-4.79,4.79A4.79,4.79,0,0,1,456.75,185.58Z" fill="none" stroke="#252525" stroke-miterlimit="10" stroke-width="0.2"/><path d="M456.75,198A4.79,4.79,0,1,1,452,202.8,4.78,4.78,0,0,1,456.75,198Z" fill="none" stroke="#252525" stroke-miterlimit="10" stroke-width="0.2"/><path d="M456.75,210.46a4.78,4.78,0,1,1-4.79,4.78A4.78,4.78,0,0,1,456.75,210.46Z" fill="none" stroke="#252525" stroke-miterlimit="10" stroke-width="0.2"/><path d="M456.75,222.89a4.79,4.79,0,1,1-4.79,4.78A4.78,4.78,0,0,1,456.75,222.89Z" fill="none" stroke="#252525" stroke-miterlimit="10" stroke-width="0.2"/><path d="M456.75,235.33a4.78,4.78,0,1,1-4.79,4.78A4.78,4.78,0,0,1,456.75,235.33Z" fill="none" stroke="#252525" stroke-miterlimit="10" stroke-width="0.2"/><rect x="375.44" y="245.85" width="13.39" height="13.39" fill="#1e1e1e"/><text transform="translate(380.6 130.11)" font-size="6.7" fill="#231f20" font-family="ArialNarrow, Arial Narrow">0</text><text transform="translate(380.6 142.55)" font-size="6.7" fill="#231f20" font-family="ArialNarrow, Arial Narrow">1</text><text transform="translate(380.61 154.99)" font-size="6.7" fill="#231f20" font-family="ArialNarrow, Arial Narrow">2</text><text transform="translate(380.6 167.42)" font-size="6.7" fill="#231f20" font-family="ArialNarrow, Arial Narrow">3</text><text transform="translate(380.6 179.86)" font-size="6.7" fill="#231f20" font-family="ArialNarrow, Arial Narrow">4</text><text transform="translate(380.6 192.29)" font-size="6.7" fill="#231f20" font-family="ArialNarrow, Arial Narrow">5</text><text transform="translate(380.61 204.73)" font-size="6.7" fill="#231f20" font-family="ArialNarrow, Arial Narrow">6</text><text transform="translate(380.6 217.17)" font-size="6.7" fill="#231f20" font-family="ArialNarrow, Arial Narrow">7</text><text transform="translate(380.6 229.6)" font-size="6.7" fill="#231f20" font-family="ArialNarrow, Arial Narrow">8</text><text transform="translate(380.61 242.04)" font-size="6.7" fill="#231f20" font-family="ArialNarrow, Arial Narrow">9</text><rect x="492.59" y="109.04" width="13.39" height="13.39" fill="#1e1e1e"/><path d="M511.72,123.39a4.79,4.79,0,1,1-4.78,4.78A4.78,4.78,0,0,1,511.72,123.39Z" fill="none" stroke="#252525" stroke-miterlimit="10" stroke-width="0.2"/><path d="M511.72,135.83a4.78,4.78,0,1,1-4.78,4.78A4.78,4.78,0,0,1,511.72,135.83Z" fill="none" stroke="#252525" stroke-miterlimit="10" stroke-width="0.2"/><path d="M511.72,148.26a4.79,4.79,0,1,1-4.78,4.79A4.79,4.79,0,0,1,511.72,148.26Z" fill="none" stroke="#252525" stroke-miterlimit="10" stroke-width="0.2"/><path d="M511.72,160.7a4.79,4.79,0,1,1-4.78,4.78A4.78,4.78,0,0,1,511.72,160.7Z" fill="none" stroke="#252525" stroke-miterlimit="10" stroke-width="0.2"/><path d="M511.72,173.14a4.78,4.78,0,1,1-4.78,4.78A4.78,4.78,0,0,1,511.72,173.14Z" fill="none" stroke="#252525" stroke-miterlimit="10" stroke-width="0.2"/><path d="M511.72,185.57a4.79,4.79,0,1,1-4.78,4.78A4.78,4.78,0,0,1,511.72,185.57Z" fill="none" stroke="#252525" stroke-miterlimit="10" stroke-width="0.2"/><path d="M511.72,198a4.78,4.78,0,1,1-4.78,4.78A4.78,4.78,0,0,1,511.72,198Z" fill="none" stroke="#252525" stroke-miterlimit="10" stroke-width="0.2"/><path d="M511.72,210.44a4.79,4.79,0,1,1-4.78,4.79A4.79,4.79,0,0,1,511.72,210.44Z" fill="none" stroke="#252525" stroke-miterlimit="10" stroke-width="0.2"/><path d="M511.72,222.88a4.79,4.79,0,1,1-4.78,4.78A4.78,4.78,0,0,1,511.72,222.88Z" fill="none" stroke="#252525" stroke-miterlimit="10" stroke-width="0.2"/><path d="M511.72,235.32a4.78,4.78,0,1,1-4.78,4.78A4.78,4.78,0,0,1,511.72,235.32Z" fill="none" stroke="#252525" stroke-miterlimit="10" stroke-width="0.2"/><path d="M524.15,123.39a4.79,4.79,0,1,1-4.78,4.78A4.79,4.79,0,0,1,524.15,123.39Z" fill="none" stroke="#252525" stroke-miterlimit="10" stroke-width="0.2"/><path d="M524.15,135.83a4.78,4.78,0,1,1-4.78,4.78A4.79,4.79,0,0,1,524.15,135.83Z" fill="none" stroke="#252525" stroke-miterlimit="10" stroke-width="0.2"/><path d="M524.15,148.26a4.79,4.79,0,1,1-4.78,4.79A4.8,4.8,0,0,1,524.15,148.26Z" fill="none" stroke="#252525" stroke-miterlimit="10" stroke-width="0.2"/><path d="M524.15,160.7a4.79,4.79,0,1,1-4.78,4.78A4.79,4.79,0,0,1,524.15,160.7Z" fill="none" stroke="#252525" stroke-miterlimit="10" stroke-width="0.2"/><path d="M524.15,173.14a4.78,4.78,0,1,1-4.78,4.78A4.79,4.79,0,0,1,524.15,173.14Z" fill="none" stroke="#252525" stroke-miterlimit="10" stroke-width="0.2"/><path d="M524.15,185.57a4.79,4.79,0,1,1-4.78,4.78A4.79,4.79,0,0,1,524.15,185.57Z" fill="none" stroke="#252525" stroke-miterlimit="10" stroke-width="0.2"/><path d="M524.15,198a4.78,4.78,0,1,1-4.78,4.78A4.79,4.79,0,0,1,524.15,198Z" fill="none" stroke="#252525" stroke-miterlimit="10" stroke-width="0.2"/><path d="M524.15,210.44a4.79,4.79,0,1,1-4.78,4.79A4.8,4.8,0,0,1,524.15,210.44Z" fill="none" stroke="#252525" stroke-miterlimit="10" stroke-width="0.2"/><path d="M524.15,222.88a4.79,4.79,0,1,1-4.78,4.78A4.79,4.79,0,0,1,524.15,222.88Z" fill="none" stroke="#252525" stroke-miterlimit="10" stroke-width="0.2"/><path d="M524.15,235.32a4.78,4.78,0,1,1-4.78,4.78A4.79,4.79,0,0,1,524.15,235.32Z" fill="none" stroke="#252525" stroke-miterlimit="10" stroke-width="0.2"/><path d="M536.59,123.39a4.79,4.79,0,1,1-4.78,4.78A4.78,4.78,0,0,1,536.59,123.39Z" fill="none" stroke="#252525" stroke-miterlimit="10" stroke-width="0.2"/><path d="M536.59,135.83a4.78,4.78,0,1,1-4.78,4.78A4.78,4.78,0,0,1,536.59,135.83Z" fill="none" stroke="#252525" stroke-miterlimit="10" stroke-width="0.2"/><path d="M536.59,148.26a4.79,4.79,0,1,1-4.78,4.79A4.79,4.79,0,0,1,536.59,148.26Z" fill="none" stroke="#252525" stroke-miterlimit="10" stroke-width="0.2"/><path d="M536.59,160.7a4.79,4.79,0,1,1-4.78,4.78A4.78,4.78,0,0,1,536.59,160.7Z" fill="none" stroke="#252525" stroke-miterlimit="10" stroke-width="0.2"/><path d="M536.59,173.14a4.78,4.78,0,1,1-4.78,4.78A4.78,4.78,0,0,1,536.59,173.14Z" fill="none" stroke="#252525" stroke-miterlimit="10" stroke-width="0.2"/><path d="M536.59,185.57a4.79,4.79,0,1,1-4.78,4.78A4.78,4.78,0,0,1,536.59,185.57Z" fill="none" stroke="#252525" stroke-miterlimit="10" stroke-width="0.2"/><path d="M536.59,198a4.78,4.78,0,1,1-4.78,4.78A4.78,4.78,0,0,1,536.59,198Z" fill="none" stroke="#252525" stroke-miterlimit="10" stroke-width="0.2"/><path d="M536.59,210.44a4.79,4.79,0,1,1-4.78,4.79A4.79,4.79,0,0,1,536.59,210.44Z" fill="none" stroke="#252525" stroke-miterlimit="10" stroke-width="0.2"/><path d="M536.59,222.88a4.79,4.79,0,1,1-4.78,4.78A4.78,4.78,0,0,1,536.59,222.88Z" fill="none" stroke="#252525" stroke-miterlimit="10" stroke-width="0.2"/><path d="M536.59,235.32a4.78,4.78,0,1,1-4.78,4.78A4.78,4.78,0,0,1,536.59,235.32Z" fill="none" stroke="#252525" stroke-miterlimit="10" stroke-width="0.2"/><rect x="492.59" y="245.84" width="13.39" height="13.39" fill="#1e1e1e"/><text transform="translate(497.76 130.1)" font-size="6.7" fill="#231f20" font-family="ArialNarrow, Arial Narrow">0</text><text transform="translate(497.76 142.54)" font-size="6.7" fill="#231f20" font-family="ArialNarrow, Arial Narrow">1</text><text transform="translate(497.76 154.97)" font-size="6.7" fill="#231f20" font-family="ArialNarrow, Arial Narrow">2</text><text transform="translate(497.75 167.41)" font-size="6.7" fill="#231f20" font-family="ArialNarrow, Arial Narrow">3</text><text transform="translate(497.76 179.85)" font-size="6.7" fill="#231f20" font-family="ArialNarrow, Arial Narrow">4</text><text transform="translate(497.75 192.28)" font-size="6.7" fill="#231f20" font-family="ArialNarrow, Arial Narrow">5</text><text transform="translate(497.76 204.72)" font-size="6.7" fill="#231f20" font-family="ArialNarrow, Arial Narrow">6</text><text transform="translate(497.76 217.15)" font-size="6.7" fill="#231f20" font-family="ArialNarrow, Arial Narrow">7</text><text transform="translate(497.76 229.59)" font-size="6.7" fill="#231f20" font-family="ArialNarrow, Arial Narrow">8</text><text transform="translate(497.76 242.03)" font-size="6.7" fill="#231f20" font-family="ArialNarrow, Arial Narrow">9</text><rect x="506.75" y="83.18" width="11.72" height="16.93" fill="none" stroke="#737373" stroke-miterlimit="10" stroke-width="0.5"/><rect x="518.47" y="83.18" width="11.72" height="16.93" fill="none" stroke="#737373" stroke-miterlimit="10" stroke-width="0.5"/><rect x="530.09" y="83.18" width="11.72" height="16.93" fill="none" stroke="#737373" stroke-miterlimit="10" stroke-width="0.5"/><g id="col_1"><rect x="32.82" y="774.52" width="14.35" height="14.35" fill="#010101"/><rect x="32.82" y="270.39" width="14.35" height="14.35" fill="#1e1e1e"/><path d="M57.48,277.74l-.64-1.69-.61,1.69Zm1.7,1.82h-1l-.4-1H55.94l-.38,1h-1L56.36,275h1Z" fill="#231f20"/><path d="M56.77,273.28a4.31,4.31,0,1,0,4.31,4.3A4.3,4.3,0,0,0,56.77,273.28Z" fill="none" stroke="#231f20" stroke-miterlimit="2.61" stroke-width="0.25"/><path d="M105,276v3h.69a2.32,2.32,0,0,0,.55,0,.8.8,0,0,0,.38-.19,1.11,1.11,0,0,0,.24-.44,3.06,3.06,0,0,0,.09-.84,2.82,2.82,0,0,0-.09-.81,1.21,1.21,0,0,0-.26-.45,1,1,0,0,0-.43-.21,3.93,3.93,0,0,0-.76-.05Zm-.93-.77h1.69a3.2,3.2,0,0,1,.87.09,1.54,1.54,0,0,1,.69.42,2,2,0,0,1,.43.74,3.41,3.41,0,0,1,.15,1.09,2.84,2.84,0,0,1-.14,1,1.94,1.94,0,0,1-.49.81,1.57,1.57,0,0,1-.65.37,2.92,2.92,0,0,1-.81.09H104Z" fill="#231f20"/><circle cx="105.56" cy="277.45" r="4.3" transform="translate(-185.21 337.2) rotate(-80.78)" fill="none" stroke="#231f20" stroke-miterlimit="2.61" stroke-width="0.25"/><path d="M90.4,278.06l.89.28a2,2,0,0,1-.68,1.12,1.93,1.93,0,0,1-1.22.37,2,2,0,0,1-1.5-.62,2.42,2.42,0,0,1-.59-1.71,2.53,2.53,0,0,1,.59-1.78,2,2,0,0,1,1.55-.63,1.87,1.87,0,0,1,1.37.5,1.7,1.7,0,0,1,.47.84l-.91.22a1,1,0,0,0-.34-.56,1,1,0,0,0-.63-.21,1,1,0,0,0-.83.37,1.79,1.79,0,0,0-.32,1.18,1.92,1.92,0,0,0,.32,1.24,1,1,0,0,0,.81.37.93.93,0,0,0,.64-.24,1.4,1.4,0,0,0,.38-.74" fill="#231f20"/><circle cx="89.3" cy="277.58" r="4.3" transform="translate(-15.21 5.36) rotate(-3.17)" fill="none" stroke="#231f20" stroke-miterlimit="2.61" stroke-width="0.25"/><path d="M72.42,277.75V279h.86a3.89,3.89,0,0,0,.63,0,.66.66,0,0,0,.34-.18.67.67,0,0,0,0-.75.64.64,0,0,0-.29-.21,3.45,3.45,0,0,0-.82-.06Zm0-1.82V277H73c.36,0,.58,0,.67,0a.63.63,0,0,0,.37-.16.49.49,0,0,0,.14-.36.47.47,0,0,0-.12-.34.5.5,0,0,0-.35-.16c-.09,0-.35,0-.79,0Zm-.93-.76h1.84a5.5,5.5,0,0,1,.81,0,1.34,1.34,0,0,1,.48.19,1.42,1.42,0,0,1,.35.38,1.09,1.09,0,0,1,.14.54,1.12,1.12,0,0,1-.17.59,1.14,1.14,0,0,1-.47.4,1.21,1.21,0,0,1,.64.42,1.08,1.08,0,0,1,.22.69,1.47,1.47,0,0,1-.14.61,1.23,1.23,0,0,1-.4.47,1.31,1.31,0,0,1-.62.22c-.15,0-.53,0-1.12,0H71.49Z" fill="#231f20"/><path d="M73,273.28a4.31,4.31,0,1,0,4.31,4.3A4.31,4.31,0,0,0,73,273.28Z" fill="none" stroke="#231f20" stroke-miterlimit="2.61" stroke-width="0.25"/><g id="draw_col_1"><g id="main_draw_col_1_2"><g id="main_draw_col_1_2_row_1"><path id="num_1_a" d="M56.26,289a4.79,4.79,0,1,1-4.78,4.79A4.79,4.79,0,0,1,56.26,289Z" fill="none" stroke="#252525" stroke-miterlimit="10" stroke-width="0.2"/><path id="num_2_a" d="M56.26,305.31a4.78,4.78,0,1,1-4.78,4.78A4.78,4.78,0,0,1,56.26,305.31Z" fill="none" stroke="#252525" stroke-miterlimit="10" stroke-width="0.2"/><path id="num_3_a" d="M56.26,321.57a4.78,4.78,0,1,1-4.78,4.78A4.78,4.78,0,0,1,56.26,321.57Z" fill="none" stroke="#252525" stroke-miterlimit="10" stroke-width="0.2"/><path id="num_4_a" d="M56.26,337.83a4.79,4.79,0,1,1-4.78,4.78A4.78,4.78,0,0,1,56.26,337.83Z" fill="none" stroke="#252525" stroke-miterlimit="10" stroke-width="0.2"/><path id="num_5_a" d="M56.26,354.09a4.79,4.79,0,1,1-4.78,4.79A4.78,4.78,0,0,1,56.26,354.09Z" fill="none" stroke="#252525" stroke-miterlimit="10" stroke-width="0.2"/><path id="num_6_a" d="M56.26,370.35a4.79,4.79,0,1,1-4.78,4.79A4.79,4.79,0,0,1,56.26,370.35Z" fill="none" stroke="#252525" stroke-miterlimit="10" stroke-width="0.2"/><path id="num_7_a" d="M56.26,386.62a4.78,4.78,0,1,1-4.78,4.78A4.78,4.78,0,0,1,56.26,386.62Z" fill="none" stroke="#252525" stroke-miterlimit="10" stroke-width="0.2"/><path id="num_8_a" d="M56.26,402.88a4.79,4.79,0,1,1-4.78,4.78A4.78,4.78,0,0,1,56.26,402.88Z" fill="none" stroke="#252525" stroke-miterlimit="10" stroke-width="0.2"/><path id="num_9_a" d="M56.26,419.14a4.79,4.79,0,1,1-4.78,4.78A4.78,4.78,0,0,1,56.26,419.14Z" fill="none" stroke="#252525" stroke-miterlimit="10" stroke-width="0.2"/><path id="num_10_a" d="M56.26,435.4a4.79,4.79,0,1,1-4.78,4.79A4.79,4.79,0,0,1,56.26,435.4Z" fill="none" stroke="#252525" stroke-miterlimit="10" stroke-width="0.2"/><path id="num_11_a" d="M56.26,451.67a4.78,4.78,0,1,1-4.78,4.78A4.78,4.78,0,0,1,56.26,451.67Z" fill="none" stroke="#252525" stroke-miterlimit="10" stroke-width="0.2"/><path id="num_12_a" d="M56.26,467.93a4.79,4.79,0,1,1-4.78,4.78A4.78,4.78,0,0,1,56.26,467.93Z" fill="none" stroke="#252525" stroke-miterlimit="10" stroke-width="0.2"/><path id="num_13_a" d="M56.26,484.19A4.79,4.79,0,1,1,51.48,489,4.78,4.78,0,0,1,56.26,484.19Z" fill="none" stroke="#252525" stroke-miterlimit="10" stroke-width="0.2"/><path id="num_14_a" d="M56.26,500.45a4.79,4.79,0,1,1-4.78,4.79A4.79,4.79,0,0,1,56.26,500.45Z" fill="none" stroke="#252525" stroke-miterlimit="10" stroke-width="0.2"/><path id="num_15_a" d="M56.26,516.72a4.78,4.78,0,1,1-4.78,4.78A4.78,4.78,0,0,1,56.26,516.72Z" fill="none" stroke="#252525" stroke-miterlimit="10" stroke-width="0.2"/><path id="num_16_a" d="M56.26,533a4.78,4.78,0,1,1-4.78,4.78A4.78,4.78,0,0,1,56.26,533Z" fill="none" stroke="#252525" stroke-miterlimit="10" stroke-width="0.2"/><path id="num_17_a" d="M56.26,549.24A4.79,4.79,0,1,1,51.48,554,4.78,4.78,0,0,1,56.26,549.24Z" fill="none" stroke="#252525" stroke-miterlimit="10" stroke-width="0.2"/><path id="num_18_a" d="M56.26,565.5a4.79,4.79,0,1,1-4.78,4.79A4.79,4.79,0,0,1,56.26,565.5Z" fill="none" stroke="#252525" stroke-miterlimit="10" stroke-width="0.2"/><path id="num_19_a" d="M56.26,581.77a4.78,4.78,0,1,1-4.78,4.78A4.78,4.78,0,0,1,56.26,581.77Z" fill="none" stroke="#252525" stroke-miterlimit="10" stroke-width="0.2"/><path id="num_20_a" d="M56.26,598a4.78,4.78,0,1,1-4.78,4.78A4.78,4.78,0,0,1,56.26,598Z" fill="none" stroke="#252525" stroke-miterlimit="10" stroke-width="0.2"/><path id="num_21_a" d="M56.26,614.29a4.79,4.79,0,1,1-4.78,4.78A4.78,4.78,0,0,1,56.26,614.29Z" fill="none" stroke="#252525" stroke-miterlimit="10" stroke-width="0.2"/></g><g id="main_draw_col_1_2_row_2"><path id="num_1_b" d="M72.52,289a4.79,4.79,0,1,1-4.78,4.79A4.8,4.8,0,0,1,72.52,289Z" fill="none" stroke="#252525" stroke-miterlimit="10" stroke-width="0.2"/><path id="num_2_b" d="M72.52,305.31a4.78,4.78,0,1,1-4.78,4.78A4.79,4.79,0,0,1,72.52,305.31Z" fill="none" stroke="#252525" stroke-miterlimit="10" stroke-width="0.2"/><path id="num_3_b" d="M72.52,321.57a4.78,4.78,0,1,1-4.78,4.78A4.79,4.79,0,0,1,72.52,321.57Z" fill="none" stroke="#252525" stroke-miterlimit="10" stroke-width="0.2"/><path id="num_4_b" d="M72.52,337.83a4.79,4.79,0,1,1-4.78,4.78A4.79,4.79,0,0,1,72.52,337.83Z" fill="none" stroke="#252525" stroke-miterlimit="10" stroke-width="0.2"/><path id="num_5_b" d="M72.52,354.09a4.79,4.79,0,1,1-4.78,4.79A4.79,4.79,0,0,1,72.52,354.09Z" fill="none" stroke="#252525" stroke-miterlimit="10" stroke-width="0.2"/><path id="num_6_b" d="M72.52,370.35a4.79,4.79,0,1,1-4.78,4.79A4.8,4.8,0,0,1,72.52,370.35Z" fill="none" stroke="#252525" stroke-miterlimit="10" stroke-width="0.2"/><path id="num_7_b" d="M72.52,386.62a4.78,4.78,0,1,1-4.78,4.78A4.79,4.79,0,0,1,72.52,386.62Z" fill="none" stroke="#252525" stroke-miterlimit="10" stroke-width="0.2"/><path id="num_8_b" d="M72.52,402.88a4.79,4.79,0,1,1-4.78,4.78A4.79,4.79,0,0,1,72.52,402.88Z" fill="none" stroke="#252525" stroke-miterlimit="10" stroke-width="0.2"/><path id="num_9_b" d="M72.52,419.14a4.79,4.79,0,1,1-4.78,4.78A4.79,4.79,0,0,1,72.52,419.14Z" fill="none" stroke="#252525" stroke-miterlimit="10" stroke-width="0.2"/><path id="num_10_b" d="M72.52,435.4a4.79,4.79,0,1,1-4.78,4.79A4.8,4.8,0,0,1,72.52,435.4Z" fill="none" stroke="#252525" stroke-miterlimit="10" stroke-width="0.2"/><path id="num_11_b" d="M72.52,451.67a4.78,4.78,0,1,1-4.78,4.78A4.79,4.79,0,0,1,72.52,451.67Z" fill="none" stroke="#252525" stroke-miterlimit="10" stroke-width="0.2"/><path id="num_12_b" d="M72.52,467.93a4.79,4.79,0,1,1-4.78,4.78A4.79,4.79,0,0,1,72.52,467.93Z" fill="none" stroke="#252525" stroke-miterlimit="10" stroke-width="0.2"/><path id="num_13_b" d="M72.52,484.19A4.79,4.79,0,1,1,67.74,489,4.79,4.79,0,0,1,72.52,484.19Z" fill="none" stroke="#252525" stroke-miterlimit="10" stroke-width="0.2"/><path id="num_14_b" d="M72.52,500.45a4.79,4.79,0,1,1-4.78,4.79A4.8,4.8,0,0,1,72.52,500.45Z" fill="none" stroke="#252525" stroke-miterlimit="10" stroke-width="0.2"/><path id="num_15_b" d="M72.52,516.72a4.78,4.78,0,1,1-4.78,4.78A4.79,4.79,0,0,1,72.52,516.72Z" fill="none" stroke="#252525" stroke-miterlimit="10" stroke-width="0.2"/><path id="num_16_b" d="M72.52,533a4.78,4.78,0,1,1-4.78,4.78A4.79,4.79,0,0,1,72.52,533Z" fill="none" stroke="#252525" stroke-miterlimit="10" stroke-width="0.2"/><path id="num_17_b" d="M72.52,549.24A4.79,4.79,0,1,1,67.74,554,4.79,4.79,0,0,1,72.52,549.24Z" fill="none" stroke="#252525" stroke-miterlimit="10" stroke-width="0.2"/><path id="num_18_b" d="M72.52,565.5a4.79,4.79,0,1,1-4.78,4.79A4.8,4.8,0,0,1,72.52,565.5Z" fill="none" stroke="#252525" stroke-miterlimit="10" stroke-width="0.2"/><path id="num_19_b" d="M72.52,581.77a4.78,4.78,0,1,1-4.78,4.78A4.79,4.79,0,0,1,72.52,581.77Z" fill="none" stroke="#252525" stroke-miterlimit="10" stroke-width="0.2"/><path id="num_20_b" d="M72.52,598a4.78,4.78,0,1,1-4.78,4.78A4.79,4.79,0,0,1,72.52,598Z" fill="none" stroke="#252525" stroke-miterlimit="10" stroke-width="0.2"/><path id="num_21_b" d="M72.52,614.29a4.79,4.79,0,1,1-4.78,4.78A4.79,4.79,0,0,1,72.52,614.29Z" fill="none" stroke="#252525" stroke-miterlimit="10" stroke-width="0.2"/></g><g id="main_draw_col_1_2_row_3"><path id="num_1_c" d="M88.79,289A4.79,4.79,0,1,1,84,293.83,4.79,4.79,0,0,1,88.79,289Z" fill="none" stroke="#252525" stroke-miterlimit="10" stroke-width="0.2"/><path id="num_2_c" d="M88.79,305.31A4.78,4.78,0,1,1,84,310.09,4.78,4.78,0,0,1,88.79,305.31Z" fill="none" stroke="#252525" stroke-miterlimit="10" stroke-width="0.2"/><path id="num_3_c" d="M88.79,321.57A4.78,4.78,0,1,1,84,326.35,4.78,4.78,0,0,1,88.79,321.57Z" fill="none" stroke="#252525" stroke-miterlimit="10" stroke-width="0.2"/><path id="num_4_c" d="M88.79,337.83A4.79,4.79,0,1,1,84,342.61,4.78,4.78,0,0,1,88.79,337.83Z" fill="none" stroke="#252525" stroke-miterlimit="10" stroke-width="0.2"/><path id="num_5_c" d="M88.79,354.09A4.79,4.79,0,1,1,84,358.88,4.78,4.78,0,0,1,88.79,354.09Z" fill="none" stroke="#252525" stroke-miterlimit="10" stroke-width="0.2"/><path id="num_6_c" d="M88.79,370.35A4.79,4.79,0,1,1,84,375.14,4.79,4.79,0,0,1,88.79,370.35Z" fill="none" stroke="#252525" stroke-miterlimit="10" stroke-width="0.2"/><path id="num_7_c" d="M88.79,386.62A4.78,4.78,0,1,1,84,391.4,4.78,4.78,0,0,1,88.79,386.62Z" fill="none" stroke="#252525" stroke-miterlimit="10" stroke-width="0.2"/><path id="num_8_c" d="M88.79,402.88A4.79,4.79,0,1,1,84,407.66,4.78,4.78,0,0,1,88.79,402.88Z" fill="none" stroke="#252525" stroke-miterlimit="10" stroke-width="0.2"/><path id="num_9_c" d="M88.79,419.14A4.79,4.79,0,1,1,84,423.92,4.78,4.78,0,0,1,88.79,419.14Z" fill="none" stroke="#252525" stroke-miterlimit="10" stroke-width="0.2"/><path id="num_10_c" d="M88.79,435.4A4.79,4.79,0,1,1,84,440.19,4.79,4.79,0,0,1,88.79,435.4Z" fill="none" stroke="#252525" stroke-miterlimit="10" stroke-width="0.2"/><path id="num_11_c" d="M88.79,451.67A4.78,4.78,0,1,1,84,456.45,4.78,4.78,0,0,1,88.79,451.67Z" fill="none" stroke="#252525" stroke-miterlimit="10" stroke-width="0.2"/><path id="num_12_c" d="M88.79,467.93A4.79,4.79,0,1,1,84,472.71,4.78,4.78,0,0,1,88.79,467.93Z" fill="none" stroke="#252525" stroke-miterlimit="10" stroke-width="0.2"/><path id="num_13_c" d="M88.79,484.19A4.79,4.79,0,1,1,84,489,4.78,4.78,0,0,1,88.79,484.19Z" fill="none" stroke="#252525" stroke-miterlimit="10" stroke-width="0.2"/><path id="num_14_c" d="M88.79,500.45A4.79,4.79,0,1,1,84,505.24,4.79,4.79,0,0,1,88.79,500.45Z" fill="none" stroke="#252525" stroke-miterlimit="10" stroke-width="0.2"/><path id="num_15_c" d="M88.79,516.72A4.78,4.78,0,1,1,84,521.5,4.78,4.78,0,0,1,88.79,516.72Z" fill="none" stroke="#252525" stroke-miterlimit="10" stroke-width="0.2"/><path id="num_16_c" d="M88.79,533A4.78,4.78,0,1,1,84,537.76,4.78,4.78,0,0,1,88.79,533Z" fill="none" stroke="#252525" stroke-miterlimit="10" stroke-width="0.2"/><path id="num_17_c" d="M88.79,549.24A4.79,4.79,0,1,1,84,554,4.78,4.78,0,0,1,88.79,549.24Z" fill="none" stroke="#252525" stroke-miterlimit="10" stroke-width="0.2"/><path id="num_18_c" d="M88.79,565.5A4.79,4.79,0,1,1,84,570.29,4.79,4.79,0,0,1,88.79,565.5Z" fill="none" stroke="#252525" stroke-miterlimit="10" stroke-width="0.2"/><path id="num_19_c" d="M88.79,581.77A4.78,4.78,0,1,1,84,586.55,4.78,4.78,0,0,1,88.79,581.77Z" fill="none" stroke="#252525" stroke-miterlimit="10" stroke-width="0.2"/><path id="num_20_c" d="M88.79,598A4.78,4.78,0,1,1,84,602.81,4.78,4.78,0,0,1,88.79,598Z" fill="none" stroke="#252525" stroke-miterlimit="10" stroke-width="0.2"/><path id="num_21_c" d="M88.79,614.29A4.79,4.79,0,1,1,84,619.07,4.78,4.78,0,0,1,88.79,614.29Z" fill="none" stroke="#252525" stroke-miterlimit="10" stroke-width="0.2"/></g><g id="main_draw_col_1_2_row_4"><path id="num_1_d" d="M105.05,289a4.79,4.79,0,1,1-4.79,4.79A4.79,4.79,0,0,1,105.05,289Z" fill="none" stroke="#252525" stroke-miterlimit="10" stroke-width="0.2"/><path id="num_2_d" d="M105.05,305.31a4.78,4.78,0,1,1-4.79,4.78A4.78,4.78,0,0,1,105.05,305.31Z" fill="none" stroke="#252525" stroke-miterlimit="10" stroke-width="0.2"/><path id="num_3_d" d="M105.05,321.57a4.78,4.78,0,1,1-4.79,4.78A4.78,4.78,0,0,1,105.05,321.57Z" fill="none" stroke="#252525" stroke-miterlimit="10" stroke-width="0.2"/><path id="num_4_d" d="M105.05,337.83a4.79,4.79,0,1,1-4.79,4.78A4.78,4.78,0,0,1,105.05,337.83Z" fill="none" stroke="#252525" stroke-miterlimit="10" stroke-width="0.2"/><path id="num_5_d" d="M105.05,354.09a4.79,4.79,0,1,1-4.79,4.79A4.78,4.78,0,0,1,105.05,354.09Z" fill="none" stroke="#252525" stroke-miterlimit="10" stroke-width="0.2"/><path id="num_6_d" d="M105.05,370.35a4.79,4.79,0,1,1-4.79,4.79A4.79,4.79,0,0,1,105.05,370.35Z" fill="none" stroke="#252525" stroke-miterlimit="10" stroke-width="0.2"/><path id="num_7_d" d="M105.05,386.62a4.78,4.78,0,1,1-4.79,4.78A4.78,4.78,0,0,1,105.05,386.62Z" fill="none" stroke="#252525" stroke-miterlimit="10" stroke-width="0.2"/><path id="num_8_d" d="M105.05,402.88a4.79,4.79,0,1,1-4.79,4.78A4.78,4.78,0,0,1,105.05,402.88Z" fill="none" stroke="#252525" stroke-miterlimit="10" stroke-width="0.2"/><path id="num_9_d" d="M105.05,419.14a4.79,4.79,0,1,1-4.79,4.78A4.78,4.78,0,0,1,105.05,419.14Z" fill="none" stroke="#252525" stroke-miterlimit="10" stroke-width="0.2"/><path id="num_10_d" d="M105.05,435.4a4.79,4.79,0,1,1-4.79,4.79A4.79,4.79,0,0,1,105.05,435.4Z" fill="none" stroke="#252525" stroke-miterlimit="10" stroke-width="0.2"/><path id="num_11_d" d="M105.05,451.67a4.78,4.78,0,1,1-4.79,4.78A4.78,4.78,0,0,1,105.05,451.67Z" fill="none" stroke="#252525" stroke-miterlimit="10" stroke-width="0.2"/><path id="num_12_d" d="M105.05,467.93a4.79,4.79,0,1,1-4.79,4.78A4.78,4.78,0,0,1,105.05,467.93Z" fill="none" stroke="#252525" stroke-miterlimit="10" stroke-width="0.2"/><path id="num_13_d" d="M105.05,484.19a4.79,4.79,0,1,1-4.79,4.78A4.78,4.78,0,0,1,105.05,484.19Z" fill="none" stroke="#252525" stroke-miterlimit="10" stroke-width="0.2"/><path id="num_14_d" d="M105.05,500.45a4.79,4.79,0,1,1-4.79,4.79A4.79,4.79,0,0,1,105.05,500.45Z" fill="none" stroke="#252525" stroke-miterlimit="10" stroke-width="0.2"/><path id="num_15_d" d="M105.05,516.72a4.78,4.78,0,1,1-4.79,4.78A4.78,4.78,0,0,1,105.05,516.72Z" fill="none" stroke="#252525" stroke-miterlimit="10" stroke-width="0.2"/><path id="num_16_d" d="M105.05,533a4.78,4.78,0,1,1-4.79,4.78A4.78,4.78,0,0,1,105.05,533Z" fill="none" stroke="#252525" stroke-miterlimit="10" stroke-width="0.2"/><path id="num_17_d" d="M105.05,549.24a4.79,4.79,0,1,1-4.79,4.78A4.78,4.78,0,0,1,105.05,549.24Z" fill="none" stroke="#252525" stroke-miterlimit="10" stroke-width="0.2"/><path id="num_18_d" d="M105.05,565.5a4.79,4.79,0,1,1-4.79,4.79A4.79,4.79,0,0,1,105.05,565.5Z" fill="none" stroke="#252525" stroke-miterlimit="10" stroke-width="0.2"/><path id="num_19_d" d="M105.05,581.77a4.78,4.78,0,1,1-4.79,4.78A4.78,4.78,0,0,1,105.05,581.77Z" fill="none" stroke="#252525" stroke-miterlimit="10" stroke-width="0.2"/><path id="num_20_d" d="M105.05,598a4.78,4.78,0,1,1-4.79,4.78A4.78,4.78,0,0,1,105.05,598Z" fill="none" stroke="#252525" stroke-miterlimit="10" stroke-width="0.2"/><path id="num_21_d" d="M105.05,614.29a4.79,4.79,0,1,1-4.79,4.78A4.78,4.78,0,0,1,105.05,614.29Z" fill="none" stroke="#252525" stroke-miterlimit="10" stroke-width="0.2"/></g></g><g id="main_draw_col_1_1"><g id="main_draw_col_1_1_row_1"><path id="num_22_a" d="M56.26,630.55a4.79,4.79,0,1,1-4.78,4.79A4.79,4.79,0,0,1,56.26,630.55Z" fill="none" stroke="#252525" stroke-miterlimit="10" stroke-width="0.2"/><path id="num_23_a" d="M56.26,646.82a4.78,4.78,0,1,1-4.78,4.78A4.78,4.78,0,0,1,56.26,646.82Z" fill="none" stroke="#252525" stroke-miterlimit="10" stroke-width="0.2"/><path id="num_24_a" d="M56.26,663.08a4.78,4.78,0,1,1-4.78,4.78A4.78,4.78,0,0,1,56.26,663.08Z" fill="none" stroke="#252525" stroke-miterlimit="10" stroke-width="0.2"/><path id="num_25_a" d="M56.26,679.34a4.79,4.79,0,1,1-4.78,4.78A4.78,4.78,0,0,1,56.26,679.34Z" fill="none" stroke="#252525" stroke-miterlimit="10" stroke-width="0.2"/><path id="num_26_a" d="M56.26,695.6a4.79,4.79,0,1,1-4.78,4.79A4.79,4.79,0,0,1,56.26,695.6Z" fill="none" stroke="#252525" stroke-miterlimit="10" stroke-width="0.2"/><path id="num_27_a" d="M56.26,711.87a4.78,4.78,0,1,1-4.78,4.78A4.78,4.78,0,0,1,56.26,711.87Z" fill="none" stroke="#252525" stroke-miterlimit="10" stroke-width="0.2"/><path id="num_28_a" d="M56.26,728.13a4.78,4.78,0,1,1-4.78,4.78A4.78,4.78,0,0,1,56.26,728.13Z" fill="none" stroke="#252525" stroke-miterlimit="10" stroke-width="0.2"/><path id="num_29_a" d="M56.26,744.39a4.79,4.79,0,1,1-4.78,4.78A4.78,4.78,0,0,1,56.26,744.39Z" fill="none" stroke="#252525" stroke-miterlimit="10" stroke-width="0.2"/><path id="num_30_a" d="M56.26,760.65a4.79,4.79,0,1,1-4.78,4.78A4.78,4.78,0,0,1,56.26,760.65Z" fill="none" stroke="#252525" stroke-miterlimit="10" stroke-width="0.2"/></g><g id="main_draw_col_1_1_row_2"><path id="num_22_b" d="M72.52,630.55a4.79,4.79,0,1,1-4.78,4.79A4.8,4.8,0,0,1,72.52,630.55Z" fill="none" stroke="#252525" stroke-miterlimit="10" stroke-width="0.2"/><path id="num_23_b" d="M72.52,646.82a4.78,4.78,0,1,1-4.78,4.78A4.79,4.79,0,0,1,72.52,646.82Z" fill="none" stroke="#252525" stroke-miterlimit="10" stroke-width="0.2"/><path id="num_24_b" d="M72.52,663.08a4.78,4.78,0,1,1-4.78,4.78A4.79,4.79,0,0,1,72.52,663.08Z" fill="none" stroke="#252525" stroke-miterlimit="10" stroke-width="0.2"/><path id="num_25_b" d="M72.52,679.34a4.79,4.79,0,1,1-4.78,4.78A4.79,4.79,0,0,1,72.52,679.34Z" fill="none" stroke="#252525" stroke-miterlimit="10" stroke-width="0.2"/><path id="num_26_b" d="M72.52,695.6a4.79,4.79,0,1,1-4.78,4.79A4.8,4.8,0,0,1,72.52,695.6Z" fill="none" stroke="#252525" stroke-miterlimit="10" stroke-width="0.2"/><path id="num_27_b" d="M72.52,711.87a4.78,4.78,0,1,1-4.78,4.78A4.79,4.79,0,0,1,72.52,711.87Z" fill="none" stroke="#252525" stroke-miterlimit="10" stroke-width="0.2"/><path id="num_28_b" d="M72.52,728.13a4.78,4.78,0,1,1-4.78,4.78A4.79,4.79,0,0,1,72.52,728.13Z" fill="none" stroke="#252525" stroke-miterlimit="10" stroke-width="0.2"/><path id="num_29_b" d="M72.52,744.39a4.79,4.79,0,1,1-4.78,4.78A4.79,4.79,0,0,1,72.52,744.39Z" fill="none" stroke="#252525" stroke-miterlimit="10" stroke-width="0.2"/><path id="num_30_b" d="M72.52,760.65a4.79,4.79,0,1,1-4.78,4.78A4.79,4.79,0,0,1,72.52,760.65Z" fill="none" stroke="#252525" stroke-miterlimit="10" stroke-width="0.2"/></g><g id="main_draw_col_1_1_row_3"><path id="num_22_c" d="M88.79,630.55A4.79,4.79,0,1,1,84,635.34,4.79,4.79,0,0,1,88.79,630.55Z" fill="none" stroke="#252525" stroke-miterlimit="10" stroke-width="0.2"/><path id="num_23_c" d="M88.79,646.82A4.78,4.78,0,1,1,84,651.6,4.78,4.78,0,0,1,88.79,646.82Z" fill="none" stroke="#252525" stroke-miterlimit="10" stroke-width="0.2"/><path id="num_24_c" d="M88.79,663.08A4.78,4.78,0,1,1,84,667.86,4.78,4.78,0,0,1,88.79,663.08Z" fill="none" stroke="#252525" stroke-miterlimit="10" stroke-width="0.2"/><path id="num_25_c" d="M88.79,679.34A4.79,4.79,0,1,1,84,684.12,4.78,4.78,0,0,1,88.79,679.34Z" fill="none" stroke="#252525" stroke-miterlimit="10" stroke-width="0.2"/><path id="num_26_c" d="M88.79,695.6A4.79,4.79,0,1,1,84,700.39,4.79,4.79,0,0,1,88.79,695.6Z" fill="none" stroke="#252525" stroke-miterlimit="10" stroke-width="0.2"/><path id="num_27_c" d="M88.79,711.87A4.78,4.78,0,1,1,84,716.65,4.78,4.78,0,0,1,88.79,711.87Z" fill="none" stroke="#252525" stroke-miterlimit="10" stroke-width="0.2"/><path id="num_28_c" d="M88.79,728.13A4.78,4.78,0,1,1,84,732.91,4.78,4.78,0,0,1,88.79,728.13Z" fill="none" stroke="#252525" stroke-miterlimit="10" stroke-width="0.2"/><path id="num_29_c" d="M88.79,744.39A4.79,4.79,0,1,1,84,749.17,4.78,4.78,0,0,1,88.79,744.39Z" fill="none" stroke="#252525" stroke-miterlimit="10" stroke-width="0.2"/><path id="num_30_c" d="M88.79,760.65A4.79,4.79,0,1,1,84,765.43,4.78,4.78,0,0,1,88.79,760.65Z" fill="none" stroke="#252525" stroke-miterlimit="10" stroke-width="0.2"/></g><g id="main_draw_col_1_1_row_4"><path id="num_22_d" d="M105.05,630.55a4.79,4.79,0,1,1-4.79,4.79A4.79,4.79,0,0,1,105.05,630.55Z" fill="none" stroke="#252525" stroke-miterlimit="10" stroke-width="0.2"/><path id="num_23_d" d="M105.05,646.82a4.78,4.78,0,1,1-4.79,4.78A4.78,4.78,0,0,1,105.05,646.82Z" fill="none" stroke="#252525" stroke-miterlimit="10" stroke-width="0.2"/><path id="num_24_d" d="M105.05,663.08a4.78,4.78,0,1,1-4.79,4.78A4.78,4.78,0,0,1,105.05,663.08Z" fill="none" stroke="#252525" stroke-miterlimit="10" stroke-width="0.2"/><path id="num_25_d" d="M105.05,679.34a4.79,4.79,0,1,1-4.79,4.78A4.78,4.78,0,0,1,105.05,679.34Z" fill="none" stroke="#252525" stroke-miterlimit="10" stroke-width="0.2"/><path id="num_26_d" d="M105.05,695.6a4.79,4.79,0,1,1-4.79,4.79A4.79,4.79,0,0,1,105.05,695.6Z" fill="none" stroke="#252525" stroke-miterlimit="10" stroke-width="0.2"/><path id="num_27_d" d="M105.05,711.87a4.78,4.78,0,1,1-4.79,4.78A4.78,4.78,0,0,1,105.05,711.87Z" fill="none" stroke="#252525" stroke-miterlimit="10" stroke-width="0.2"/><path id="num_28_d" d="M105.05,728.13a4.78,4.78,0,1,1-4.79,4.78A4.78,4.78,0,0,1,105.05,728.13Z" fill="none" stroke="#252525" stroke-miterlimit="10" stroke-width="0.2"/><path id="num_29_d" d="M105.05,744.39a4.79,4.79,0,1,1-4.79,4.78A4.78,4.78,0,0,1,105.05,744.39Z" fill="none" stroke="#252525" stroke-miterlimit="10" stroke-width="0.2"/><path id="num_30_d" d="M105.05,760.65a4.79,4.79,0,1,1-4.79,4.78A4.78,4.78,0,0,1,105.05,760.65Z" fill="none" stroke="#252525" stroke-miterlimit="10" stroke-width="0.2"/></g></g></g><g id="num_row_1"><text id="num_1" transform="translate(36.67 296.04)" font-size="8.61" fill="#231f20" font-family="ArialNarrow, Arial Narrow">1</text><text id="num_2" transform="translate(36.67 312.33)" font-size="8.61" fill="#231f20" font-family="ArialNarrow, Arial Narrow">2</text><text id="num_3" transform="translate(36.67 328.62)" font-size="8.61" fill="#231f20" font-family="ArialNarrow, Arial Narrow">3</text><text id="num_4" transform="translate(36.67 344.91)" font-size="8.61" fill="#231f20" font-family="ArialNarrow, Arial Narrow">4</text><text id="num_5" transform="translate(36.67 361.19)" font-size="8.61" fill="#231f20" font-family="ArialNarrow, Arial Narrow">5</text><text id="num_6" transform="translate(36.67 377.48)" font-size="8.61" fill="#231f20" font-family="ArialNarrow, Arial Narrow">6</text><text id="num_7" transform="translate(36.67 393.77)" font-size="8.61" fill="#231f20" font-family="ArialNarrow, Arial Narrow">7</text><text id="num_8" transform="translate(36.67 410.06)" font-size="8.61" fill="#231f20" font-family="ArialNarrow, Arial Narrow">8</text><text id="num_9" transform="translate(36.67 426.34)" font-size="8.61" fill="#231f20" font-family="ArialNarrow, Arial Narrow">9</text><text id="num_10" transform="translate(34.71 442.63)" font-size="8.61" fill="#231f20" font-family="ArialNarrow, Arial Narrow">10</text><text id="num_11" transform="translate(34.97 458.92)" font-size="8.61" fill="#231f20" font-family="ArialNarrow, Arial Narrow" letter-spacing="-0.06em">11</text><text id="num_12" transform="translate(34.71 475.21)" font-size="8.61" fill="#231f20" font-family="ArialNarrow, Arial Narrow">12</text><text id="num_13" transform="translate(34.71 491.49)" font-size="8.61" fill="#231f20" font-family="ArialNarrow, Arial Narrow">13</text><text id="num_14" transform="translate(34.71 507.78)" font-size="8.61" fill="#231f20" font-family="ArialNarrow, Arial Narrow">14</text><text id="num_15" transform="translate(34.71 524.07)" font-size="8.61" fill="#231f20" font-family="ArialNarrow, Arial Narrow">15</text><text id="num_16" transform="translate(34.71 540.36)" font-size="8.61" fill="#231f20" font-family="ArialNarrow, Arial Narrow">16</text><text id="num_17" transform="translate(34.71 556.64)" font-size="8.61" fill="#231f20" font-family="ArialNarrow, Arial Narrow">17</text><text id="num_18" transform="translate(34.71 572.93)" font-size="8.61" fill="#231f20" font-family="ArialNarrow, Arial Narrow">18</text><text id="num_19" transform="translate(34.71 589.22)" font-size="8.61" fill="#231f20" font-family="ArialNarrow, Arial Narrow">19</text><text id="num_20" transform="translate(34.71 605.51)" font-size="8.61" fill="#231f20" font-family="ArialNarrow, Arial Narrow">20</text><text id="num_21" transform="translate(34.71 621.79)" font-size="8.61" fill="#231f20" font-family="ArialNarrow, Arial Narrow">21</text><text id="num_22" transform="translate(34.71 638.08)" font-size="8.61" fill="#231f20" font-family="ArialNarrow, Arial Narrow">22</text><text id="num_23" transform="translate(34.71 654.37)" font-size="8.61" fill="#231f20" font-family="ArialNarrow, Arial Narrow">23</text><text id="num_24" transform="translate(34.71 670.66)" font-size="8.61" fill="#231f20" font-family="ArialNarrow, Arial Narrow">24</text><text id="num_25" transform="translate(34.67 686.94)" font-size="8.61" fill="#231f20" font-family="ArialNarrow, Arial Narrow">25</text><text id="num_26" transform="translate(34.67 703.23)" font-size="8.61" fill="#231f20" font-family="ArialNarrow, Arial Narrow">26</text><text id="num_27" transform="translate(34.67 719.52)" font-size="8.61" fill="#231f20" font-family="ArialNarrow, Arial Narrow">27</text><text id="num_28" transform="translate(34.67 735.81)" font-size="8.61" fill="#231f20" font-family="ArialNarrow, Arial Narrow">28</text><text id="num_29" transform="translate(34.67 752.09)" font-size="8.61" fill="#231f20" font-family="ArialNarrow, Arial Narrow">29</text><text id="num_30" transform="translate(34.67 768.38)" font-size="8.61" fill="#231f20" font-family="ArialNarrow, Arial Narrow">30</text></g></g><rect x="106.9" y="111.51" width="245.43" height="141.03" fill="none" stroke="#010101" stroke-miterlimit="10" stroke-width="0.7"/><text transform="translate(105.12 81.17)" font-size="10.5" fill="#231f20" font-family="ArialMT, Arial">K thi: ......................................................................</text><text transform="translate(104.97 101.76)" font-size="10.5" fill="#231f20" font-family="ArialMT, Arial">Bi thi: ............................. Ngy thi: ....../......../20....</text><text transform="translate(113.06 130.45)" font-size="8.59" fill="#231f20" font-family="ArialMT, Arial">1. Hi ng thi: ......................................................................</text><text transform="translate(112.47 152.75)" font-size="8.59" fill="#231f20" font-family="ArialMT, Arial">2. im thi:: ...........................................................................</text><text transform="translate(113.06 175.02)" font-size="8.59" fill="#231f20" font-family="ArialMT, Arial">3. Phng thi s: .....................................................................</text><text transform="translate(113.06 197.15)" font-size="8.59" fill="#231f20" font-family="ArialMT, Arial">4. H v tn th sinh: .............................................................</text><text transform="translate(113.06 219.44)" font-size="8.59" fill="#231f20" font-family="ArialMT, Arial">5. Ngy sinh:........./......./..................(Nam/N)......................</text><text transform="translate(112.47 241.72)" font-size="8.59" fill="#231f20" font-family="ArialMT, Arial">6. Ch k ca th sinh: ..........................................................</text><text transform="translate(396.4 79.65)" font-size="8.61" fill="#231f20" font-family="ArialMT, Arial">7. S bo danh</text><text transform="translate(507.89 79.65)" font-size="8.61" fill="#231f20" font-family="ArialMT, Arial">8. M </text><g id="col_2"><rect x="140.09" y="270.39" width="14.35" height="14.35" fill="#1e1e1e"/><rect x="140.09" y="367.96" width="14.35" height="14.35" fill="#1e1e1e"/><path d="M164.74,277.74l-.63-1.69-.62,1.69Zm1.7,1.82h-1l-.4-1h-1.83l-.38,1h-1l1.78-4.58h1Z" fill="#231f20"/><path d="M164,273.28a4.31,4.31,0,1,0,4.3,4.3A4.31,4.31,0,0,0,164,273.28Z" fill="none" stroke="#231f20" stroke-miterlimit="2.61" stroke-width="0.25"/><path d="M212.21,276v3h.69a2.41,2.41,0,0,0,.56,0,.77.77,0,0,0,.37-.19.91.91,0,0,0,.24-.44,3.06,3.06,0,0,0,.09-.84,2.82,2.82,0,0,0-.09-.81,1.09,1.09,0,0,0-.26-.45,1,1,0,0,0-.43-.21,3.88,3.88,0,0,0-.75-.05Zm-.93-.77H213a3.2,3.2,0,0,1,.87.09,1.54,1.54,0,0,1,.69.42,2,2,0,0,1,.44.74,3.41,3.41,0,0,1,.15,1.09,3.1,3.1,0,0,1-.14,1,2.17,2.17,0,0,1-.49.81,1.63,1.63,0,0,1-.65.37,3,3,0,0,1-.82.09h-1.74Z" fill="#231f20"/><circle cx="212.82" cy="277.45" r="4.3" transform="translate(-95.13 443.08) rotate(-80.78)" fill="none" stroke="#231f20" stroke-miterlimit="2.61" stroke-width="0.25"/><path d="M197.66,278.06l.9.28a2,2,0,0,1-.69,1.12,1.93,1.93,0,0,1-1.22.37,2,2,0,0,1-1.5-.62,2.42,2.42,0,0,1-.59-1.71,2.53,2.53,0,0,1,.59-1.78,2.06,2.06,0,0,1,1.56-.63,1.9,1.9,0,0,1,1.36.5,1.7,1.7,0,0,1,.47.84l-.91.22a1,1,0,0,0-.34-.56,1,1,0,0,0-.63-.21,1,1,0,0,0-.83.37,1.79,1.79,0,0,0-.31,1.18,1.93,1.93,0,0,0,.31,1.24,1,1,0,0,0,.81.37.93.93,0,0,0,.64-.24,1.33,1.33,0,0,0,.38-.74" fill="#231f20"/><circle cx="196.56" cy="277.58" r="4.3" transform="translate(-15.05 11.29) rotate(-3.17)" fill="none" stroke="#231f20" stroke-miterlimit="2.61" stroke-width="0.25"/><path d="M179.68,277.75V279h.86a4,4,0,0,0,.64,0,.63.63,0,0,0,.33-.18.56.56,0,0,0,.13-.39.61.61,0,0,0-.1-.36.59.59,0,0,0-.29-.21,3.39,3.39,0,0,0-.82-.06Zm0-1.82V277h.61c.36,0,.58,0,.67,0a.6.6,0,0,0,.37-.16.49.49,0,0,0,.14-.36.47.47,0,0,0-.12-.34A.48.48,0,0,0,181,276c-.09,0-.35,0-.79,0Zm-.92-.76h1.83a5.5,5.5,0,0,1,.81,0,1.16,1.16,0,0,1,.83.57,1.09,1.09,0,0,1,.14.54,1.12,1.12,0,0,1-.17.59,1.08,1.08,0,0,1-.47.4,1.17,1.17,0,0,1,.64.42,1.08,1.08,0,0,1,.23.69,1.34,1.34,0,0,1-.15.61,1.23,1.23,0,0,1-.4.47,1.27,1.27,0,0,1-.62.22q-.23,0-1.11,0h-1.56Z" fill="#231f20"/><path d="M180.3,273.28a4.31,4.31,0,1,0,4.3,4.3A4.31,4.31,0,0,0,180.3,273.28Z" fill="none" stroke="#231f20" stroke-miterlimit="2.61" stroke-width="0.25"/><g id="draw_col_2"><g id="main_draw_col_2"><g id="main_draw_col_2_row_1"><path id="num_31_a" d="M163.52,289a4.79,4.79,0,1,1-4.78,4.79A4.8,4.8,0,0,1,163.52,289Z" fill="none" stroke="#252525" stroke-miterlimit="10" stroke-width="0.2"/><path id="num_32_a" d="M163.52,305.31a4.78,4.78,0,1,1-4.78,4.78A4.79,4.79,0,0,1,163.52,305.31Z" fill="none" stroke="#252525" stroke-miterlimit="10" stroke-width="0.2"/><path id="num_33_a" d="M163.52,321.57a4.78,4.78,0,1,1-4.78,4.78A4.79,4.79,0,0,1,163.52,321.57Z" fill="none" stroke="#252525" stroke-miterlimit="10" stroke-width="0.2"/><path id="num_34_a" d="M163.52,337.83a4.79,4.79,0,1,1-4.78,4.78A4.79,4.79,0,0,1,163.52,337.83Z" fill="none" stroke="#252525" stroke-miterlimit="10" stroke-width="0.2"/><path id="num_35_a" d="M163.52,354.09a4.79,4.79,0,1,1-4.78,4.79A4.79,4.79,0,0,1,163.52,354.09Z" fill="none" stroke="#252525" stroke-miterlimit="10" stroke-width="0.2"/></g><g id="main_draw_col_2_row_2"><path id="num_31_b" d="M179.79,289a4.79,4.79,0,1,1-4.79,4.79A4.79,4.79,0,0,1,179.79,289Z" fill="none" stroke="#252525" stroke-miterlimit="10" stroke-width="0.2"/><path id="num_32_b" d="M179.79,305.31a4.78,4.78,0,1,1-4.79,4.78A4.78,4.78,0,0,1,179.79,305.31Z" fill="none" stroke="#252525" stroke-miterlimit="10" stroke-width="0.2"/><path id="num_33_b" d="M179.79,321.57a4.78,4.78,0,1,1-4.79,4.78A4.78,4.78,0,0,1,179.79,321.57Z" fill="none" stroke="#252525" stroke-miterlimit="10" stroke-width="0.2"/><path id="num_34_b" d="M179.79,337.83a4.79,4.79,0,1,1-4.79,4.78A4.78,4.78,0,0,1,179.79,337.83Z" fill="none" stroke="#252525" stroke-miterlimit="10" stroke-width="0.2"/><path id="num_35_b" d="M179.79,354.09a4.79,4.79,0,1,1-4.79,4.79A4.78,4.78,0,0,1,179.79,354.09Z" fill="none" stroke="#252525" stroke-miterlimit="10" stroke-width="0.2"/></g><g id="main_draw_col_2_row_3"><path id="num_31_c" d="M196.05,289a4.79,4.79,0,1,1-4.78,4.79A4.79,4.79,0,0,1,196.05,289Z" fill="none" stroke="#252525" stroke-miterlimit="10" stroke-width="0.2"/><path id="num_32_c" d="M196.05,305.31a4.78,4.78,0,1,1-4.78,4.78A4.78,4.78,0,0,1,196.05,305.31Z" fill="none" stroke="#252525" stroke-miterlimit="10" stroke-width="0.2"/><path id="num_33_c" d="M196.05,321.57a4.78,4.78,0,1,1-4.78,4.78A4.78,4.78,0,0,1,196.05,321.57Z" fill="none" stroke="#252525" stroke-miterlimit="10" stroke-width="0.2"/><path id="num_34_c" d="M196.05,337.83a4.79,4.79,0,1,1-4.78,4.78A4.78,4.78,0,0,1,196.05,337.83Z" fill="none" stroke="#252525" stroke-miterlimit="10" stroke-width="0.2"/><path id="num_35_c" d="M196.05,354.09a4.79,4.79,0,1,1-4.78,4.79A4.78,4.78,0,0,1,196.05,354.09Z" fill="none" stroke="#252525" stroke-miterlimit="10" stroke-width="0.2"/></g><g id="main_draw_col_2_row_4"><path id="num_31_d" d="M212.31,289a4.79,4.79,0,1,1-4.78,4.79A4.79,4.79,0,0,1,212.31,289Z" fill="none" stroke="#252525" stroke-miterlimit="10" stroke-width="0.2"/><path id="num_32_d" d="M212.31,305.31a4.78,4.78,0,1,1-4.78,4.78A4.78,4.78,0,0,1,212.31,305.31Z" fill="none" stroke="#252525" stroke-miterlimit="10" stroke-width="0.2"/><path id="num_33_d" d="M212.31,321.57a4.78,4.78,0,1,1-4.78,4.78A4.78,4.78,0,0,1,212.31,321.57Z" fill="none" stroke="#252525" stroke-miterlimit="10" stroke-width="0.2"/><path id="num_34_d" d="M212.31,337.83a4.79,4.79,0,1,1-4.78,4.78A4.78,4.78,0,0,1,212.31,337.83Z" fill="none" stroke="#252525" stroke-miterlimit="10" stroke-width="0.2"/><path id="num_35_d" d="M212.31,354.09a4.79,4.79,0,1,1-4.78,4.79A4.78,4.78,0,0,1,212.31,354.09Z" fill="none" stroke="#252525" stroke-miterlimit="10" stroke-width="0.2"/></g></g></g><g id="num_row_2"><text id="num_31" transform="translate(141.97 296.04)" font-size="8.61" fill="#231f20" font-family="ArialNarrow, Arial Narrow">31</text><text id="num_32" transform="translate(141.97 312.33)" font-size="8.61" fill="#231f20" font-family="ArialNarrow, Arial Narrow">32</text><text id="num_33" transform="translate(141.97 328.62)" font-size="8.61" fill="#231f20" font-family="ArialNarrow, Arial Narrow">33</text><text id="num_34" transform="translate(141.97 344.91)" font-size="8.61" fill="#231f20" font-family="ArialNarrow, Arial Narrow">34</text><text id="num_35" transform="translate(141.97 361.19)" font-size="8.61" fill="#231f20" font-family="ArialNarrow, Arial Narrow">35</text></g></g><rect x="131.61" y="399.77" width="429.86" height="373.27" fill="#fff" stroke="#6d6e71" stroke-miterlimit="10" stroke-width="0.5"/><text/><text transform="translate(137.35 436.42) scale(1.03 1)" font-size="7.65" fill="#58595b" font-family="MyriadPro-Light, Myriad Pro" font-weight="300">...............................................................................................................................................................................................................................................................................................................<tspan x="0" y="18.37">................................................................................................................................................................................................................................................................................................................</tspan><tspan x="0" y="36.73">................................................................................................................................................................................................................................................................................................................</tspan><tspan x="0" y="55.1">................................................................................................................................................................................................................................................................................................................</tspan><tspan x="0" y="73.47">................................................................................................................................................................................................................................................................................................................</tspan><tspan x="0" y="91.83">...............................................................................................................................................................................................................................................................................................................</tspan><tspan x="0" y="110.2">................................................................................................................................................................................................................................................................................................................</tspan><tspan x="0" y="128.57">...............................................................................................................................................................................................................................................................................................................</tspan><tspan x="0" y="146.94">................................................................................................................................................................................................................................................................................................................</tspan><tspan x="0" y="165.3">................................................................................................................................................................................................................................................................................................................</tspan><tspan x="0" y="183.67">................................................................................................................................................................................................................................................................................................................</tspan><tspan x="0" y="202.04">................................................................................................................................................................................................................................................................................................................</tspan><tspan x="0" y="220.4">................................................................................................................................................................................................................................................................................................................</tspan><tspan x="0" y="238.77">................................................................................................................................................................................................................................................................................................................</tspan><tspan x="0" y="257.14">................................................................................................................................................................................................................................................................................................................</tspan><tspan x="0" y="275.5">................................................................................................................................................................................................................................................................................................................</tspan><tspan x="0" y="293.87">................................................................................................................................................................................................................................................................................................................</tspan><tspan x="0" y="312.24">................................................................................................................................................................................................................................................................................................................</tspan><tspan x="0" y="330.6">................................................................................................................................................................................................................................................................................................................</tspan></text><text transform="translate(305.57 414.92)" font-size="11.48" fill="#414042" font-family="Arial-BoldMT, Arial" font-weight="700">PHN T LUN</text><g id="col_3"><rect x="247.35" y="270.39" width="14.35" height="14.35" fill="#1e1e1e"/><rect x="247.35" y="367.96" width="14.35" height="14.35" fill="#1e1e1e"/><path d="M272,277.74l-.64-1.69-.62,1.69Zm1.69,1.82h-1l-.39-1h-1.84l-.38,1h-1l1.78-4.58h1Z" fill="#231f20"/><path d="M271.3,273.28a4.31,4.31,0,1,0,4.3,4.3A4.31,4.31,0,0,0,271.3,273.28Z" fill="none" stroke="#231f20" stroke-miterlimit="2.61" stroke-width="0.25"/><path d="M319.47,276v3h.69a2.41,2.41,0,0,0,.56,0,.77.77,0,0,0,.37-.19.91.91,0,0,0,.24-.44,2.67,2.67,0,0,0,.1-.84,2.46,2.46,0,0,0-.1-.81,1.09,1.09,0,0,0-.26-.45.91.91,0,0,0-.43-.21,3.81,3.81,0,0,0-.75-.05Zm-.92-.77h1.68a3.2,3.2,0,0,1,.87.09,1.54,1.54,0,0,1,.69.42,1.9,1.9,0,0,1,.44.74,3.41,3.41,0,0,1,.15,1.09,3.1,3.1,0,0,1-.14,1,2,2,0,0,1-.49.81,1.63,1.63,0,0,1-.65.37,3,3,0,0,1-.82.09h-1.73Z" fill="#231f20"/><circle cx="320.09" cy="277.45" r="4.3" transform="translate(-5.05 548.96) rotate(-80.78)" fill="none" stroke="#231f20" stroke-miterlimit="2.61" stroke-width="0.25"/><path d="M304.92,278.06l.9.28a2,2,0,0,1-.69,1.12,1.9,1.9,0,0,1-1.21.37,2,2,0,0,1-1.51-.62,2.41,2.41,0,0,1-.58-1.71,2.49,2.49,0,0,1,.59-1.78,2,2,0,0,1,1.55-.63,1.92,1.92,0,0,1,1.37.5,1.78,1.78,0,0,1,.47.84l-.92.22a1,1,0,0,0-1-.77,1,1,0,0,0-.83.37,1.79,1.79,0,0,0-.32,1.18,1.93,1.93,0,0,0,.31,1.24,1,1,0,0,0,.82.37.92.92,0,0,0,.63-.24,1.27,1.27,0,0,0,.38-.74" fill="#231f20"/><circle cx="303.82" cy="277.58" r="4.3" transform="translate(-14.89 17.23) rotate(-3.17)" fill="none" stroke="#231f20" stroke-miterlimit="2.61" stroke-width="0.25"/><path d="M287,277.75V279h.85a4,4,0,0,0,.64,0,.59.59,0,0,0,.33-.18.56.56,0,0,0,.13-.39.56.56,0,0,0-.38-.57,3.5,3.5,0,0,0-.83-.06Zm0-1.82V277h.6c.36,0,.59,0,.67,0a.63.63,0,0,0,.38-.16.48.48,0,0,0,.13-.36.47.47,0,0,0-.12-.34.46.46,0,0,0-.34-.16c-.09,0-.36,0-.79,0Zm-.93-.76h1.83a5.5,5.5,0,0,1,.81,0,1.16,1.16,0,0,1,.83.57,1,1,0,0,1,.14.54,1,1,0,0,1-.17.59,1,1,0,0,1-.47.4,1.17,1.17,0,0,1,.64.42,1.08,1.08,0,0,1,.23.69,1.34,1.34,0,0,1-.15.61,1.2,1.2,0,0,1-.39.47,1.35,1.35,0,0,1-.63.22q-.22,0-1.11,0H286Z" fill="#231f20"/><path d="M287.56,273.28a4.31,4.31,0,1,0,4.31,4.3A4.3,4.3,0,0,0,287.56,273.28Z" fill="none" stroke="#231f20" stroke-miterlimit="2.61" stroke-width="0.25"/><g id="draw_col_3"><g id="main_draw_col_3"><g id="main_draw_col_3_row_1"><path id="num_36_a" d="M270.79,289a4.79,4.79,0,1,1-4.79,4.79A4.79,4.79,0,0,1,270.79,289Z" fill="none" stroke="#252525" stroke-miterlimit="10" stroke-width="0.2"/><path id="num_37_a" d="M270.79,305.31a4.78,4.78,0,1,1-4.79,4.78A4.78,4.78,0,0,1,270.79,305.31Z" fill="none" stroke="#252525" stroke-miterlimit="10" stroke-width="0.2"/><path id="num_38_a" d="M270.79,321.57a4.78,4.78,0,1,1-4.79,4.78A4.78,4.78,0,0,1,270.79,321.57Z" fill="none" stroke="#252525" stroke-miterlimit="10" stroke-width="0.2"/><path id="num_39_a" d="M270.79,337.83a4.79,4.79,0,1,1-4.79,4.78A4.78,4.78,0,0,1,270.79,337.83Z" fill="none" stroke="#252525" stroke-miterlimit="10" stroke-width="0.2"/><path id="num_40_a" d="M270.79,354.09a4.79,4.79,0,1,1-4.79,4.79A4.78,4.78,0,0,1,270.79,354.09Z" fill="none" stroke="#252525" stroke-miterlimit="10" stroke-width="0.2"/></g><g id="main_draw_col_3_row_2"><path id="num_36_b" d="M287.05,289a4.79,4.79,0,1,1-4.78,4.79A4.79,4.79,0,0,1,287.05,289Z" fill="none" stroke="#252525" stroke-miterlimit="10" stroke-width="0.2"/><path id="num_37_b" d="M287.05,305.31a4.78,4.78,0,1,1-4.78,4.78A4.78,4.78,0,0,1,287.05,305.31Z" fill="none" stroke="#252525" stroke-miterlimit="10" stroke-width="0.2"/><path id="num_38_b" d="M287.05,321.57a4.78,4.78,0,1,1-4.78,4.78A4.78,4.78,0,0,1,287.05,321.57Z" fill="none" stroke="#252525" stroke-miterlimit="10" stroke-width="0.2"/><path id="num_39_b" d="M287.05,337.83a4.79,4.79,0,1,1-4.78,4.78A4.78,4.78,0,0,1,287.05,337.83Z" fill="none" stroke="#252525" stroke-miterlimit="10" stroke-width="0.2"/><path id="num_40_b" d="M287.05,354.09a4.79,4.79,0,1,1-4.78,4.79A4.78,4.78,0,0,1,287.05,354.09Z" fill="none" stroke="#252525" stroke-miterlimit="10" stroke-width="0.2"/></g><g id="main_draw_col_3_row_3"><path id="num_36_c" d="M303.31,289a4.79,4.79,0,1,1-4.78,4.79A4.79,4.79,0,0,1,303.31,289Z" fill="none" stroke="#252525" stroke-miterlimit="10" stroke-width="0.2"/><path id="num_37_c" d="M303.31,305.31a4.78,4.78,0,1,1-4.78,4.78A4.78,4.78,0,0,1,303.31,305.31Z" fill="none" stroke="#252525" stroke-miterlimit="10" stroke-width="0.2"/><path id="num_38_c" d="M303.31,321.57a4.78,4.78,0,1,1-4.78,4.78A4.78,4.78,0,0,1,303.31,321.57Z" fill="none" stroke="#252525" stroke-miterlimit="10" stroke-width="0.2"/><path id="num_39_c" d="M303.31,337.83a4.79,4.79,0,1,1-4.78,4.78A4.78,4.78,0,0,1,303.31,337.83Z" fill="none" stroke="#252525" stroke-miterlimit="10" stroke-width="0.2"/><path id="num_40_c" d="M303.31,354.09a4.79,4.79,0,1,1-4.78,4.79A4.78,4.78,0,0,1,303.31,354.09Z" fill="none" stroke="#252525" stroke-miterlimit="10" stroke-width="0.2"/></g><g id="main_draw_col_3_row_4"><path id="num_36_d" d="M319.57,289a4.79,4.79,0,1,1-4.78,4.79A4.8,4.8,0,0,1,319.57,289Z" fill="none" stroke="#252525" stroke-miterlimit="10" stroke-width="0.2"/><path id="num_37_d" d="M319.57,305.31a4.78,4.78,0,1,1-4.78,4.78A4.79,4.79,0,0,1,319.57,305.31Z" fill="none" stroke="#252525" stroke-miterlimit="10" stroke-width="0.2"/><path id="num_38_d" d="M319.57,321.57a4.78,4.78,0,1,1-4.78,4.78A4.79,4.79,0,0,1,319.57,321.57Z" fill="none" stroke="#252525" stroke-miterlimit="10" stroke-width="0.2"/><path id="num_39_d" d="M319.57,337.83a4.79,4.79,0,1,1-4.78,4.78A4.79,4.79,0,0,1,319.57,337.83Z" fill="none" stroke="#252525" stroke-miterlimit="10" stroke-width="0.2"/><path id="num_40_d" d="M319.57,354.09a4.79,4.79,0,1,1-4.78,4.79A4.79,4.79,0,0,1,319.57,354.09Z" fill="none" stroke="#252525" stroke-miterlimit="10" stroke-width="0.2"/></g></g></g><g id="num_row_3"><text id="num_36" transform="translate(249.24 296.04)" font-size="8.61" fill="#231f20" font-family="ArialNarrow, Arial Narrow">36</text><text id="num_37" transform="translate(249.24 312.33)" font-size="8.61" fill="#231f20" font-family="ArialNarrow, Arial Narrow">37</text><text id="num_38" transform="translate(249.24 328.62)" font-size="8.61" fill="#231f20" font-family="ArialNarrow, Arial Narrow">38</text><text id="num_39" transform="translate(249.24 344.91)" font-size="8.61" fill="#231f20" font-family="ArialNarrow, Arial Narrow">39</text><text id="num_40" transform="translate(249.24 361.19)" font-size="8.61" fill="#231f20" font-family="ArialNarrow, Arial Narrow">40</text></g></g><g id="col_4"><rect x="354.61" y="270.39" width="14.35" height="14.35" fill="#1e1e1e"/><rect x="354.61" y="367.96" width="14.35" height="14.35" fill="#1e1e1e"/><path d="M379.27,277.74l-.64-1.69-.62,1.69Zm1.7,1.82h-1l-.4-1h-1.84l-.38,1h-1l1.78-4.58h1Z" fill="#231f20"/><path d="M378.56,273.28a4.31,4.31,0,1,0,4.31,4.3A4.3,4.3,0,0,0,378.56,273.28Z" fill="none" stroke="#231f20" stroke-miterlimit="2.61" stroke-width="0.25"/><path d="M426.74,276v3h.69a2.32,2.32,0,0,0,.55,0,.73.73,0,0,0,.37-.19,1,1,0,0,0,.25-.44,3.06,3.06,0,0,0,.09-.84,2.82,2.82,0,0,0-.09-.81,1.1,1.1,0,0,0-.27-.45.93.93,0,0,0-.42-.21,3.93,3.93,0,0,0-.76-.05Zm-.93-.77h1.69a3.2,3.2,0,0,1,.87.09,1.54,1.54,0,0,1,.69.42,2,2,0,0,1,.43.74,3.41,3.41,0,0,1,.15,1.09,2.84,2.84,0,0,1-.14,1,2,2,0,0,1-.49.81,1.57,1.57,0,0,1-.65.37,2.92,2.92,0,0,1-.81.09h-1.74Z" fill="#231f20"/><circle cx="427.35" cy="277.45" r="4.3" transform="translate(85.03 654.83) rotate(-80.78)" fill="none" stroke="#231f20" stroke-miterlimit="2.61" stroke-width="0.25"/><path d="M412.19,278.06l.89.28a2,2,0,0,1-.68,1.12,1.93,1.93,0,0,1-1.22.37,2,2,0,0,1-1.5-.62,2.42,2.42,0,0,1-.59-1.71,2.53,2.53,0,0,1,.59-1.78,2,2,0,0,1,1.55-.63,1.91,1.91,0,0,1,1.37.5,1.7,1.7,0,0,1,.47.84l-.92.22a.94.94,0,0,0-.33-.56,1,1,0,0,0-.63-.21,1,1,0,0,0-.83.37,1.79,1.79,0,0,0-.32,1.18,2,2,0,0,0,.31,1.24,1.06,1.06,0,0,0,.82.37.88.88,0,0,0,.63-.24,1.34,1.34,0,0,0,.39-.74" fill="#231f20"/><circle cx="411.09" cy="277.58" r="4.3" transform="translate(-14.72 23.16) rotate(-3.17)" fill="none" stroke="#231f20" stroke-miterlimit="2.61" stroke-width="0.25"/><path d="M394.21,277.75V279h.86a3.89,3.89,0,0,0,.63,0,.66.66,0,0,0,.34-.18.61.61,0,0,0,.13-.39.69.69,0,0,0-.1-.36.7.7,0,0,0-.29-.21,3.45,3.45,0,0,0-.82-.06Zm0-1.82V277h.61c.35,0,.58,0,.67,0a.63.63,0,0,0,.37-.16.49.49,0,0,0,.14-.36.47.47,0,0,0-.12-.34.5.5,0,0,0-.35-.16c-.09,0-.36,0-.79,0Zm-.93-.76h1.83a5.57,5.57,0,0,1,.82,0,1.21,1.21,0,0,1,.83.57,1.09,1.09,0,0,1,.14.54,1.11,1.11,0,0,1-.64,1,1.21,1.21,0,0,1,.64.42,1.08,1.08,0,0,1,.22.69,1.47,1.47,0,0,1-.14.61,1.23,1.23,0,0,1-.4.47,1.35,1.35,0,0,1-.62.22c-.16,0-.53,0-1.12,0h-1.56Z" fill="#231f20"/><path d="M394.82,273.28a4.31,4.31,0,1,0,4.31,4.3A4.31,4.31,0,0,0,394.82,273.28Z" fill="none" stroke="#231f20" stroke-miterlimit="2.61" stroke-width="0.25"/><g id="draw_col_4"><g id="main_draw_col_4"><g id="main_draw_col_4_1"><path id="num_41_a" d="M378.05,289a4.79,4.79,0,1,1-4.78,4.79A4.79,4.79,0,0,1,378.05,289Z" fill="none" stroke="#252525" stroke-miterlimit="10" stroke-width="0.2"/><path id="num_42_a" d="M378.05,305.31a4.78,4.78,0,1,1-4.78,4.78A4.78,4.78,0,0,1,378.05,305.31Z" fill="none" stroke="#252525" stroke-miterlimit="10" stroke-width="0.2"/><path id="num_43_a" d="M378.05,321.57a4.78,4.78,0,1,1-4.78,4.78A4.78,4.78,0,0,1,378.05,321.57Z" fill="none" stroke="#252525" stroke-miterlimit="10" stroke-width="0.2"/><path id="num_44_a" d="M378.05,337.83a4.79,4.79,0,1,1-4.78,4.78A4.78,4.78,0,0,1,378.05,337.83Z" fill="none" stroke="#252525" stroke-miterlimit="10" stroke-width="0.2"/><path id="num_45_a" d="M378.05,354.09a4.79,4.79,0,1,1-4.78,4.79A4.78,4.78,0,0,1,378.05,354.09Z" fill="none" stroke="#252525" stroke-miterlimit="10" stroke-width="0.2"/></g><g id="main_draw_col_4_2"><path id="num_41_b" d="M394.31,289a4.79,4.79,0,1,1-4.78,4.79A4.8,4.8,0,0,1,394.31,289Z" fill="none" stroke="#252525" stroke-miterlimit="10" stroke-width="0.2"/><path id="num_42_b" d="M394.31,305.31a4.78,4.78,0,1,1-4.78,4.78A4.79,4.79,0,0,1,394.31,305.31Z" fill="none" stroke="#252525" stroke-miterlimit="10" stroke-width="0.2"/><path id="num_43_b" d="M394.31,321.57a4.78,4.78,0,1,1-4.78,4.78A4.79,4.79,0,0,1,394.31,321.57Z" fill="none" stroke="#252525" stroke-miterlimit="10" stroke-width="0.2"/><path id="num_44_b" d="M394.31,337.83a4.79,4.79,0,1,1-4.78,4.78A4.79,4.79,0,0,1,394.31,337.83Z" fill="none" stroke="#252525" stroke-miterlimit="10" stroke-width="0.2"/><path id="num_45_b" d="M394.31,354.09a4.79,4.79,0,1,1-4.78,4.79A4.79,4.79,0,0,1,394.31,354.09Z" fill="none" stroke="#252525" stroke-miterlimit="10" stroke-width="0.2"/></g><g id="main_draw_col_4_3"><path id="num_41_c" d="M410.57,289a4.79,4.79,0,1,1-4.78,4.79A4.79,4.79,0,0,1,410.57,289Z" fill="none" stroke="#252525" stroke-miterlimit="10" stroke-width="0.2"/><path id="num_42_c" d="M410.57,305.31a4.78,4.78,0,1,1-4.78,4.78A4.78,4.78,0,0,1,410.57,305.31Z" fill="none" stroke="#252525" stroke-miterlimit="10" stroke-width="0.2"/><path id="num_43_c" d="M410.57,321.57a4.78,4.78,0,1,1-4.78,4.78A4.78,4.78,0,0,1,410.57,321.57Z" fill="none" stroke="#252525" stroke-miterlimit="10" stroke-width="0.2"/><path id="num_44_c" d="M410.57,337.83a4.79,4.79,0,1,1-4.78,4.78A4.78,4.78,0,0,1,410.57,337.83Z" fill="none" stroke="#252525" stroke-miterlimit="10" stroke-width="0.2"/><path id="num_45_c" d="M410.57,354.09a4.79,4.79,0,1,1-4.78,4.79A4.78,4.78,0,0,1,410.57,354.09Z" fill="none" stroke="#252525" stroke-miterlimit="10" stroke-width="0.2"/></g><g id="main_draw_col_4_4"><path id="num_41_d" d="M426.84,289a4.79,4.79,0,1,1-4.79,4.79A4.79,4.79,0,0,1,426.84,289Z" fill="none" stroke="#252525" stroke-miterlimit="10" stroke-width="0.2"/><path id="num_42_d" d="M426.84,305.31a4.78,4.78,0,1,1-4.79,4.78A4.78,4.78,0,0,1,426.84,305.31Z" fill="none" stroke="#252525" stroke-miterlimit="10" stroke-width="0.2"/><path id="num_43_d" d="M426.84,321.57a4.78,4.78,0,1,1-4.79,4.78A4.78,4.78,0,0,1,426.84,321.57Z" fill="none" stroke="#252525" stroke-miterlimit="10" stroke-width="0.2"/><path id="num_44_d" d="M426.84,337.83a4.79,4.79,0,1,1-4.79,4.78A4.78,4.78,0,0,1,426.84,337.83Z" fill="none" stroke="#252525" stroke-miterlimit="10" stroke-width="0.2"/><path id="num_45_d" d="M426.84,354.09a4.79,4.79,0,1,1-4.79,4.79A4.78,4.78,0,0,1,426.84,354.09Z" fill="none" stroke="#252525" stroke-miterlimit="10" stroke-width="0.2"/></g></g></g><g id="num_row_4"><text id="num_41" transform="translate(356.5 296.04)" font-size="8.61" fill="#231f20" font-family="ArialNarrow, Arial Narrow">41</text><text id="num_42" transform="translate(356.5 312.33)" font-size="8.61" fill="#231f20" font-family="ArialNarrow, Arial Narrow">42</text><text id="num_43" transform="translate(356.5 328.62)" font-size="8.61" fill="#231f20" font-family="ArialNarrow, Arial Narrow">43</text><text id="num_44" transform="translate(356.5 344.91)" font-size="8.61" fill="#231f20" font-family="ArialNarrow, Arial Narrow">44</text><text id="num_45" transform="translate(356.5 361.19)" font-size="8.61" fill="#231f20" font-family="ArialNarrow, Arial Narrow">45</text></g></g><g id="col_5"><rect x="461.88" y="270.39" width="14.35" height="14.35" fill="#1e1e1e"/><rect x="461.88" y="367.96" width="14.35" height="14.35" fill="#1e1e1e"/><path d="M486.53,277.74l-.63-1.69-.62,1.69Zm1.7,1.82h-1l-.4-1H485l-.39,1h-1l1.78-4.58h1Z" fill="#231f20"/><path d="M485.82,273.28a4.31,4.31,0,1,0,4.31,4.3A4.31,4.31,0,0,0,485.82,273.28Z" fill="none" stroke="#231f20" stroke-miterlimit="2.61" stroke-width="0.25"/><path d="M534,276v3h.69a2.41,2.41,0,0,0,.56,0,.77.77,0,0,0,.37-.19.91.91,0,0,0,.24-.44,3.06,3.06,0,0,0,.09-.84,2.82,2.82,0,0,0-.09-.81,1.09,1.09,0,0,0-.26-.45,1,1,0,0,0-.43-.21,3.93,3.93,0,0,0-.76-.05Zm-.93-.77h1.69a3.2,3.2,0,0,1,.87.09,1.54,1.54,0,0,1,.69.42,2,2,0,0,1,.44.74,3.41,3.41,0,0,1,.15,1.09,3.1,3.1,0,0,1-.14,1,2.17,2.17,0,0,1-.49.81,1.63,1.63,0,0,1-.65.37,3,3,0,0,1-.82.09h-1.74Z" fill="#231f20"/><circle cx="534.61" cy="277.45" r="4.3" transform="translate(175.11 760.71) rotate(-80.78)" fill="none" stroke="#231f20" stroke-miterlimit="2.61" stroke-width="0.25"/><path d="M519.45,278.06l.9.28a2,2,0,0,1-.69,1.12,1.93,1.93,0,0,1-1.22.37,2,2,0,0,1-1.5-.62,2.42,2.42,0,0,1-.59-1.71,2.53,2.53,0,0,1,.59-1.78,2,2,0,0,1,1.56-.63,1.9,1.9,0,0,1,1.36.5,1.7,1.7,0,0,1,.47.84l-.91.22a1,1,0,0,0-.34-.56,1,1,0,0,0-.63-.21,1,1,0,0,0-.83.37,1.79,1.79,0,0,0-.31,1.18,1.93,1.93,0,0,0,.31,1.24,1,1,0,0,0,.81.37.93.93,0,0,0,.64-.24,1.4,1.4,0,0,0,.38-.74" fill="#231f20"/><circle cx="518.35" cy="277.58" r="4.3" transform="translate(-14.56 29.09) rotate(-3.17)" fill="none" stroke="#231f20" stroke-miterlimit="2.61" stroke-width="0.25"/><path d="M501.47,277.75V279h.86a3.8,3.8,0,0,0,.63,0,.66.66,0,0,0,.34-.18.56.56,0,0,0,.13-.39.61.61,0,0,0-.1-.36.64.64,0,0,0-.29-.21,3.39,3.39,0,0,0-.82-.06Zm0-1.82V277h.61c.36,0,.58,0,.67,0a.6.6,0,0,0,.37-.16.49.49,0,0,0,.14-.36.47.47,0,0,0-.12-.34.48.48,0,0,0-.35-.16c-.09,0-.35,0-.79,0Zm-.93-.76h1.84a5.5,5.5,0,0,1,.81,0,1.16,1.16,0,0,1,.83.57,1.09,1.09,0,0,1,.14.54,1.12,1.12,0,0,1-.17.59,1.08,1.08,0,0,1-.47.4,1.17,1.17,0,0,1,.64.42,1.08,1.08,0,0,1,.22.69,1.33,1.33,0,0,1-.14.61,1.23,1.23,0,0,1-.4.47,1.31,1.31,0,0,1-.62.22c-.15,0-.53,0-1.12,0h-1.56Z" fill="#231f20"/><path d="M502.09,273.28a4.31,4.31,0,1,0,4.3,4.3A4.31,4.31,0,0,0,502.09,273.28Z" fill="none" stroke="#231f20" stroke-miterlimit="2.61" stroke-width="0.25"/><g id="draw_col_5"><g id="main_draw_col_5"><g id="main_draw_col_5_row_1"><path id="num_46_a" d="M485.31,289a4.79,4.79,0,1,1-4.78,4.79A4.8,4.8,0,0,1,485.31,289Z" fill="none" stroke="#252525" stroke-miterlimit="10" stroke-width="0.2"/><path id="num_47_a" d="M485.31,305.31a4.78,4.78,0,1,1-4.78,4.78A4.79,4.79,0,0,1,485.31,305.31Z" fill="none" stroke="#252525" stroke-miterlimit="10" stroke-width="0.2"/><path id="num_48_a" d="M485.31,321.57a4.78,4.78,0,1,1-4.78,4.78A4.79,4.79,0,0,1,485.31,321.57Z" fill="none" stroke="#252525" stroke-miterlimit="10" stroke-width="0.2"/><path id="num_49_a" d="M485.31,337.83a4.79,4.79,0,1,1-4.78,4.78A4.79,4.79,0,0,1,485.31,337.83Z" fill="none" stroke="#252525" stroke-miterlimit="10" stroke-width="0.2"/></g><g id="main_draw_col_5_row_2"><path id="num_46_b" d="M501.58,289a4.79,4.79,0,1,1-4.79,4.79A4.79,4.79,0,0,1,501.58,289Z" fill="none" stroke="#252525" stroke-miterlimit="10" stroke-width="0.2"/><path id="num_47_b" d="M501.58,305.31a4.78,4.78,0,1,1-4.79,4.78A4.78,4.78,0,0,1,501.58,305.31Z" fill="none" stroke="#252525" stroke-miterlimit="10" stroke-width="0.2"/><path id="num_48_b" d="M501.58,321.57a4.78,4.78,0,1,1-4.79,4.78A4.78,4.78,0,0,1,501.58,321.57Z" fill="none" stroke="#252525" stroke-miterlimit="10" stroke-width="0.2"/><path id="num_49_b" d="M501.58,337.83a4.79,4.79,0,1,1-4.79,4.78A4.78,4.78,0,0,1,501.58,337.83Z" fill="none" stroke="#252525" stroke-miterlimit="10" stroke-width="0.2"/></g><g id="main_draw_col_5_row_3"><path id="num_46_c" d="M517.84,289a4.79,4.79,0,1,1-4.79,4.79A4.79,4.79,0,0,1,517.84,289Z" fill="none" stroke="#252525" stroke-miterlimit="10" stroke-width="0.2"/><path id="num_47_c" d="M517.84,305.31a4.78,4.78,0,1,1-4.79,4.78A4.78,4.78,0,0,1,517.84,305.31Z" fill="none" stroke="#252525" stroke-miterlimit="10" stroke-width="0.2"/><path id="num_48_c" d="M517.84,321.57a4.78,4.78,0,1,1-4.79,4.78A4.78,4.78,0,0,1,517.84,321.57Z" fill="none" stroke="#252525" stroke-miterlimit="10" stroke-width="0.2"/><path id="num_49_c" d="M517.84,337.83a4.79,4.79,0,1,1-4.79,4.78A4.78,4.78,0,0,1,517.84,337.83Z" fill="none" stroke="#252525" stroke-miterlimit="10" stroke-width="0.2"/></g><g id="main_draw_col_5_row_4"><path id="num_46_d" d="M534.1,289a4.79,4.79,0,1,1-4.78,4.79A4.79,4.79,0,0,1,534.1,289Z" fill="none" stroke="#252525" stroke-miterlimit="10" stroke-width="0.2"/><path id="num_47_d" d="M534.1,305.31a4.78,4.78,0,1,1-4.78,4.78A4.78,4.78,0,0,1,534.1,305.31Z" fill="none" stroke="#252525" stroke-miterlimit="10" stroke-width="0.2"/><path id="num_48_d" d="M534.1,321.57a4.78,4.78,0,1,1-4.78,4.78A4.78,4.78,0,0,1,534.1,321.57Z" fill="none" stroke="#252525" stroke-miterlimit="10" stroke-width="0.2"/><path id="num_49_d" d="M534.1,337.83a4.79,4.79,0,1,1-4.78,4.78A4.78,4.78,0,0,1,534.1,337.83Z" fill="none" stroke="#252525" stroke-miterlimit="10" stroke-width="0.2"/></g></g></g><g id="num_row_5"><text id="num_46" transform="translate(463.76 296.04)" font-size="8.61" fill="#231f20" font-family="ArialNarrow, Arial Narrow">46</text><text id="num_47" transform="translate(463.76 312.33)" font-size="8.61" fill="#231f20" font-family="ArialNarrow, Arial Narrow">47</text><text id="num_48" transform="translate(463.76 328.62)" font-size="8.61" fill="#231f20" font-family="ArialNarrow, Arial Narrow">48</text><text id="num_49" transform="translate(463.76 344.91)" font-size="8.61" fill="#231f20" font-family="ArialNarrow, Arial Narrow">49</text></g></g></g><rect x="32.87" y="108.87" width="13.39" height="13.39" fill="#1e1e1e"/><path d="M52,123.22A4.78,4.78,0,1,1,47.22,128,4.79,4.79,0,0,1,52,123.22Z" fill="none" stroke="#252525" stroke-miterlimit="10" stroke-width="0.2"/><path d="M52,135.65a4.79,4.79,0,1,1-4.78,4.78A4.79,4.79,0,0,1,52,135.65Z" fill="none" stroke="#252525" stroke-miterlimit="10" stroke-width="0.2"/><path d="M52,148.09a4.78,4.78,0,1,1-4.78,4.78A4.79,4.79,0,0,1,52,148.09Z" fill="none" stroke="#252525" stroke-miterlimit="10" stroke-width="0.2"/><path d="M52,160.52a4.79,4.79,0,1,1-4.78,4.79A4.8,4.8,0,0,1,52,160.52Z" fill="none" stroke="#252525" stroke-miterlimit="10" stroke-width="0.2"/><path d="M52,173a4.79,4.79,0,1,1-4.78,4.78A4.79,4.79,0,0,1,52,173Z" fill="none" stroke="#252525" stroke-miterlimit="10" stroke-width="0.2"/><path d="M52,185.4a4.78,4.78,0,1,1-4.78,4.78A4.79,4.79,0,0,1,52,185.4Z" fill="none" stroke="#252525" stroke-miterlimit="10" stroke-width="0.2"/><path d="M52,197.83a4.79,4.79,0,1,1-4.78,4.78A4.79,4.79,0,0,1,52,197.83Z" fill="none" stroke="#252525" stroke-miterlimit="10" stroke-width="0.2"/><path d="M52,210.27a4.78,4.78,0,1,1-4.78,4.78A4.79,4.79,0,0,1,52,210.27Z" fill="none" stroke="#252525" stroke-miterlimit="10" stroke-width="0.2"/><path d="M52,222.7a4.79,4.79,0,1,1-4.78,4.79A4.8,4.8,0,0,1,52,222.7Z" fill="none" stroke="#252525" stroke-miterlimit="10" stroke-width="0.2"/><path d="M52,235.14a4.78,4.78,0,1,1-4.78,4.78A4.79,4.79,0,0,1,52,235.14Z" fill="none" stroke="#252525" stroke-miterlimit="10" stroke-width="0.2"/><path d="M64.44,123.22A4.78,4.78,0,1,1,59.66,128,4.78,4.78,0,0,1,64.44,123.22Z" fill="none" stroke="#252525" stroke-miterlimit="10" stroke-width="0.2"/><path d="M64.44,135.65a4.79,4.79,0,1,1-4.78,4.78A4.78,4.78,0,0,1,64.44,135.65Z" fill="none" stroke="#252525" stroke-miterlimit="10" stroke-width="0.2"/><path d="M64.44,148.09a4.78,4.78,0,1,1-4.78,4.78A4.78,4.78,0,0,1,64.44,148.09Z" fill="none" stroke="#252525" stroke-miterlimit="10" stroke-width="0.2"/><path d="M64.44,160.52a4.79,4.79,0,1,1-4.78,4.79A4.79,4.79,0,0,1,64.44,160.52Z" fill="none" stroke="#252525" stroke-miterlimit="10" stroke-width="0.2"/><path d="M64.44,173a4.79,4.79,0,1,1-4.78,4.78A4.78,4.78,0,0,1,64.44,173Z" fill="none" stroke="#252525" stroke-miterlimit="10" stroke-width="0.2"/><path d="M64.44,185.4a4.78,4.78,0,1,1-4.78,4.78A4.78,4.78,0,0,1,64.44,185.4Z" fill="none" stroke="#252525" stroke-miterlimit="10" stroke-width="0.2"/><path d="M64.44,197.83a4.79,4.79,0,1,1-4.78,4.78A4.78,4.78,0,0,1,64.44,197.83Z" fill="none" stroke="#252525" stroke-miterlimit="10" stroke-width="0.2"/><path d="M64.44,210.27a4.78,4.78,0,1,1-4.78,4.78A4.78,4.78,0,0,1,64.44,210.27Z" fill="none" stroke="#252525" stroke-miterlimit="10" stroke-width="0.2"/><path d="M64.44,222.7a4.79,4.79,0,1,1-4.78,4.79A4.79,4.79,0,0,1,64.44,222.7Z" fill="none" stroke="#252525" stroke-miterlimit="10" stroke-width="0.2"/><path d="M64.44,235.14a4.78,4.78,0,1,1-4.78,4.78A4.78,4.78,0,0,1,64.44,235.14Z" fill="none" stroke="#252525" stroke-miterlimit="10" stroke-width="0.2"/><path d="M76.87,123.22A4.78,4.78,0,1,1,72.09,128,4.78,4.78,0,0,1,76.87,123.22Z" fill="none" stroke="#252525" stroke-miterlimit="10" stroke-width="0.2"/><path d="M76.87,135.65a4.79,4.79,0,1,1-4.78,4.78A4.78,4.78,0,0,1,76.87,135.65Z" fill="none" stroke="#252525" stroke-miterlimit="10" stroke-width="0.2"/><path d="M76.87,148.09a4.78,4.78,0,1,1-4.78,4.78A4.78,4.78,0,0,1,76.87,148.09Z" fill="none" stroke="#252525" stroke-miterlimit="10" stroke-width="0.2"/><path d="M76.87,160.52a4.79,4.79,0,1,1-4.78,4.79A4.79,4.79,0,0,1,76.87,160.52Z" fill="none" stroke="#252525" stroke-miterlimit="10" stroke-width="0.2"/><path d="M76.87,173a4.79,4.79,0,1,1-4.78,4.78A4.78,4.78,0,0,1,76.87,173Z" fill="none" stroke="#252525" stroke-miterlimit="10" stroke-width="0.2"/><path d="M76.87,185.4a4.78,4.78,0,1,1-4.78,4.78A4.78,4.78,0,0,1,76.87,185.4Z" fill="none" stroke="#252525" stroke-miterlimit="10" stroke-width="0.2"/><path d="M76.87,197.83a4.79,4.79,0,1,1-4.78,4.78A4.78,4.78,0,0,1,76.87,197.83Z" fill="none" stroke="#252525" stroke-miterlimit="10" stroke-width="0.2"/><path d="M76.87,210.27a4.78,4.78,0,1,1-4.78,4.78A4.78,4.78,0,0,1,76.87,210.27Z" fill="none" stroke="#252525" stroke-miterlimit="10" stroke-width="0.2"/><path d="M76.87,222.7a4.79,4.79,0,1,1-4.78,4.79A4.79,4.79,0,0,1,76.87,222.7Z" fill="none" stroke="#252525" stroke-miterlimit="10" stroke-width="0.2"/><path d="M76.87,235.14a4.78,4.78,0,1,1-4.78,4.78A4.78,4.78,0,0,1,76.87,235.14Z" fill="none" stroke="#252525" stroke-miterlimit="10" stroke-width="0.2"/><rect x="32.87" y="245.66" width="13.39" height="13.39" fill="#1e1e1e"/><text transform="translate(38.04 129.92)" font-size="6.7" fill="#231f20" font-family="ArialNarrow, Arial Narrow">0</text><text transform="translate(38.04 142.36)" font-size="6.7" fill="#231f20" font-family="ArialNarrow, Arial Narrow">1</text><text transform="translate(38.04 154.8)" font-size="6.7" fill="#231f20" font-family="ArialNarrow, Arial Narrow">2</text><text transform="translate(38.04 167.23)" font-size="6.7" fill="#231f20" font-family="ArialNarrow, Arial Narrow">3</text><text transform="translate(38.04 179.67)" font-size="6.7" fill="#231f20" font-family="ArialNarrow, Arial Narrow">4</text><text transform="translate(38.04 192.1)" font-size="6.7" fill="#231f20" font-family="ArialNarrow, Arial Narrow">5</text><text transform="translate(38.04 204.54)" font-size="6.7" fill="#231f20" font-family="ArialNarrow, Arial Narrow">6</text><text transform="translate(38.04 216.98)" font-size="6.7" fill="#231f20" font-family="ArialNarrow, Arial Narrow">7</text><text transform="translate(38.04 229.41)" font-size="6.7" fill="#231f20" font-family="ArialNarrow, Arial Narrow">8</text><text transform="translate(38.04 241.85)" font-size="6.7" fill="#231f20" font-family="ArialNarrow, Arial Narrow">9</text><rect x="45.04" y="83" width="11.72" height="16.93" fill="none" stroke="#737373" stroke-miterlimit="10" stroke-width="0.5"/><rect x="60.76" y="83" width="11.72" height="16.93" fill="none" stroke="#737373" stroke-miterlimit="10" stroke-width="0.5"/><rect x="72.37" y="83" width="11.72" height="16.93" fill="none" stroke="#737373" stroke-miterlimit="10" stroke-width="0.5"/><text transform="translate(56.76 98.94)" font-size="16" fill="#231f20" font-family="ArialMT, Arial">,</text><text transform="translate(32.18 79.48)" font-size="8.61" fill="#231f20" font-family="ArialMT, Arial">9. im t lun</text></svg>