<svg width="73" height="64" viewBox="0 0 73 64" fill="none" xmlns="http://www.w3.org/2000/svg">
<path fill-rule="evenodd" clip-rule="evenodd" d="M4.43604 50.8765L13.9936 49.7647C15.6927 49.5671 16.5407 47.6042 15.5199 46.2315L9.77836 38.5103C8.75763 37.1377 6.63374 37.3848 5.95535 38.9551L2.1394 47.788C1.46101 49.3583 2.73692 51.0741 4.43604 50.8765ZM14.0578 50.3165C16.1817 50.0695 17.2416 47.6159 15.9657 45.9L10.2241 38.1789C8.94823 36.463 6.29336 36.7719 5.44537 38.7347L1.62943 47.5677C0.781445 49.5306 2.37633 51.6753 4.50023 51.4283L14.0578 50.3165Z" fill="white"/>
<path fill-rule="evenodd" clip-rule="evenodd" d="M45.9323 44.6716L61.245 33.3387C63.9673 31.3239 63.4877 27.1178 60.3817 25.7676L42.9108 18.1729C39.8049 16.8227 36.402 19.3411 36.7857 22.706L38.944 41.6337C39.3276 44.9986 43.2101 46.6863 45.9323 44.6716ZM61.8993 34.2227C65.3022 31.7043 64.7026 26.4466 60.8202 24.7589L43.3493 17.1642C39.4669 15.4765 35.2133 18.6245 35.6929 22.8306L37.8512 41.7583C38.3308 45.9644 43.1838 48.0741 46.5866 45.5556L61.8993 34.2227Z" fill="white"/>
<path d="M63.3515 19.0152C67.2339 20.7029 67.8334 25.9606 64.4306 28.479L49.1179 39.8119C45.7151 42.3303 40.862 40.2207 40.3824 36.0145L38.2242 17.0869C37.7446 12.8808 41.9981 9.73273 45.8805 11.4205L63.3515 19.0152Z" fill="white"/>
</svg>
