<svg width="62" height="53" viewBox="0 0 62 53" fill="none" xmlns="http://www.w3.org/2000/svg">
<path fill-rule="evenodd" clip-rule="evenodd" d="M14.8466 34.3416L12.3352 25.0531C11.8887 23.4018 9.82211 22.8531 8.61529 24.0654L1.82698 30.8846C0.620172 32.0969 1.17827 34.161 2.83156 34.6L12.1313 37.0692C13.7846 37.5082 15.2931 35.9928 14.8466 34.3416ZM12.8715 24.9081C12.3134 22.844 9.7301 22.1581 8.22159 23.6735L1.43328 30.4927C-0.0752374 32.008 0.622385 34.5882 2.68899 35.1369L11.9887 37.6062C14.0553 38.1549 15.941 36.2607 15.3829 34.1966L12.8715 24.9081Z" fill="#0261AB"/>
<path fill-rule="evenodd" clip-rule="evenodd" d="M28.7416 47.4449L24.3703 44.1295C23.5932 43.5401 22.4694 44.013 22.3476 44.9807L21.662 50.424C21.5401 51.3917 22.5115 52.1284 23.4105 51.7501L28.4674 49.6222C29.3663 49.2439 29.5187 48.0343 28.7416 47.4449ZM24.5617 43.8771C23.5903 43.1404 22.1856 43.7315 22.0333 44.9411L21.3478 50.3844C21.1954 51.594 22.4097 52.515 23.5334 52.0421L28.5902 49.9141C29.7139 49.4413 29.9044 47.9292 28.933 47.1925L24.5617 43.8771Z" fill="#0261AB"/>
<path d="M35.4904 12.9703C34.5989 9.64334 37.6433 6.59895 40.9703 7.49041L55.9416 11.502C59.2686 12.3934 60.3829 16.5521 57.9474 18.9876L46.9876 29.9474C44.5521 32.3829 40.3934 31.2686 39.502 27.9416L35.4904 12.9703Z" fill="#58F4FF"/>
</svg>
