<?xml version="1.0" encoding="utf-8"?>
<!-- Generator: Adobe Illustrator 26.3.1, SVG Export Plug-In . SVG Version: 6.00 Build 0)  -->
<svg version="1.1" id="Layer_1" xmlns="http://www.w3.org/2000/svg" xmlns:xlink="http://www.w3.org/1999/xlink" x="0px" y="0px"
	 viewBox="0 0 595.3 841.9" style="enable-background:new 0 0 595.3 841.9;" xml:space="preserve">
<style type="text/css">
	.st0{fill:#FFFFFF;stroke:#231F20;stroke-width:0.75;stroke-miterlimit:10;}
	.st1{fill:#231F20;}
	.st2{font-family:'ArialNarrow';}
	.st3{font-size:8px;}
	.st4{fill:#FFFFFF;stroke:#231F20;stroke-width:0.5;stroke-miterlimit:10;}
	.st5{fill:none;}
	.st6{fill:#231F20;stroke:#231F20;stroke-width:0.25;stroke-miterlimit:10;}
	.st7{fill:#FFFFFF;stroke:#231F20;stroke-width:0.25;stroke-miterlimit:10;}
	.st8{fill:#252525;}
	.st9{fill:none;stroke:#252525;stroke-width:0.22;stroke-miterlimit:2.61;}
	.st10{fill:none;stroke:#737373;stroke-width:0.5;stroke-miterlimit:10;}
	.st11{fill:#1E1E1E;}
	.st12{fill:none;stroke:#252525;stroke-width:0.2;stroke-miterlimit:10;}
	.st13{font-size:6.7px;}
	.st14{fill:#010101;}
	.st15{fill:none;stroke:#231F20;stroke-width:0.25;stroke-miterlimit:2.61;}
	.st16{font-size:8.61px;}
	.st17{fill:none;stroke:#010101;stroke-width:0.7;stroke-miterlimit:10;}
	.st18{font-family:'ArialMT';}
	.st19{font-size:10.5px;}
	.st20{font-size:8.59px;}
	.st21{fill:#FFFFFF;}
	.st22{fill:none;stroke:#6D6E71;stroke-width:0.5;stroke-miterlimit:10;}
	.st23{fill:none;stroke:#6D6E71;stroke-width:0.5;stroke-miterlimit:10;stroke-dasharray:5.9699,5.9699,5.9699,5.9699;}
	
		.st24{fill:none;stroke:#6D6E71;stroke-width:0.5;stroke-miterlimit:10;stroke-dasharray:5.9699,5.9699,5.9699,5.9699,5.9699,5.9699;}
	.st25{fill:none;stroke:#6D6E71;stroke-width:0.5;stroke-miterlimit:10;stroke-dasharray:6.2249,6.2249,6.2249,6.2249;}
	
		.st26{fill:none;stroke:#6D6E71;stroke-width:0.5;stroke-miterlimit:10;stroke-dasharray:6.2249,6.2249,6.2249,6.2249,6.2249,6.2249;}
	.st27{fill:#58595B;}
	.st28{font-family:'MyriadPro-Light';}
	.st29{font-size:7.65px;}
	.st30{fill:#414042;}
	.st31{font-family:'Arial-BoldMT';}
	.st32{font-size:11.48px;}
	.st33{font-size:16px;}
</style>
<g id="Page_1">
	<g id="BG">
		<g id="Answersheet_Frame">
			<rect x="20.9" y="21.1" class="st0" width="553.5" height="799.7"/>
			<g id="Anchor">
				<rect x="20.8" y="21.1" class="st1" width="14.4" height="9.4"/>
				<rect x="560.1" y="811.3" class="st1" width="14.4" height="9.4"/>
				<rect x="20.8" y="811.3" class="st1" width="14.4" height="9.4"/>
				<rect x="560.1" y="21.1" class="st1" width="14.4" height="9.4"/>
			</g>
		</g>
		<text transform="matrix(1 0 0 1 290.89 804.03)" class="st1 st2 st3">v3.0</text>
		<g id="Type">
			<rect x="70.9" y="791.4" class="st4" width="128" height="16"/>
			<text transform="matrix(1 0 0 1 46.82 802.81)" class="st1 st2 st3">T</text>
			<text transform="matrix(1 0 0 1 50.47 802.81)" class="st1 st2 st3">ype:</text>
			<g id="TypeID">
				<rect x="70.9" y="791.4" class="st5" width="16" height="16"/>
				<rect x="86.9" y="791.4" class="st5" width="16" height="16"/>
				<rect x="102.9" y="791.4" class="st5" width="16" height="16"/>
				<rect x="118.9" y="791.4" class="st5" width="16" height="16"/>
				<rect x="134.9" y="791.4" class="st5" width="16" height="16"/>
				<rect x="150.9" y="791.4" class="st5" width="16" height="16"/>
				<rect x="166.9" y="791.4" class="st5" width="16" height="16"/>
				<rect x="182.9" y="791.4" class="st5" width="16" height="16"/>
				<circle class="st6" cx="78.9" cy="799.4" r="4.5"/>
				<circle class="st6" cx="94.9" cy="799.4" r="4.5"/>
				<circle class="st7" cx="110.9" cy="799.4" r="4.5"/>
				<circle class="st7" cx="126.9" cy="799.4" r="4.5"/>
				<circle class="st7" cx="142.9" cy="799.8" r="4.5"/>
				<circle class="st7" cx="158.9" cy="799.8" r="4.5"/>
				<circle class="st6" cx="174.9" cy="799.8" r="4.5"/>
				<circle class="st6" cx="190.9" cy="799.8" r="4.5"/>
			</g>
		</g>
	</g>
	<path class="st8" d="M394.9,45.8V35.1h3.2l1.9,7.3l1.9-7.3h3.2v10.7h-2v-8.4l-2.1,8.4H399l-2.1-8.4v8.4H394.9z M388.2,48.7v-2.1h2
		v2L388.2,48.7z M389.2,33.6l-0.8,0.5h-1.4l1.6-1h1.3l1.6,1H390L389.2,33.6z M385,45.8V35.1h7.9v1.8h-5.8v2.4h5.4v1.8h-5.4V44h6v1.8
		H385z M380.8,45.8V35.1h2.2v10.7H380.8z M370,45.8V35.1h2.2v4.2h4.2v-4.2h2.2v10.7h-2.2v-4.7h-4.2v4.7H370z M363.4,41.9v-1.8h4.6
		v4.3c-0.6,0.5-1.3,0.9-2,1.2c-0.8,0.3-1.7,0.5-2.6,0.5c-1,0-2-0.2-2.9-0.7c-0.8-0.5-1.5-1.2-1.9-2c-0.4-0.9-0.6-1.9-0.6-2.9
		c0-1,0.2-2.1,0.7-3c0.4-0.9,1.1-1.6,2-2c0.8-0.4,1.7-0.6,2.6-0.5c1.1-0.1,2.2,0.2,3.1,0.8c0.7,0.6,1.3,1.4,1.4,2.3l-2.1,0.4
		c-0.1-0.5-0.4-0.9-0.9-1.2c-0.5-0.3-1-0.5-1.6-0.5c-0.8,0-1.7,0.3-2.2,0.9c-0.6,0.8-0.9,1.7-0.8,2.7c-0.1,1,0.2,2,0.8,2.9
		c0.6,0.6,1.4,1,2.2,1c0.5,0,0.9-0.1,1.4-0.3c0.4-0.2,0.8-0.4,1.2-0.7v-1.3H363.4z M347.6,45.8V35.1h2.1l4.4,7.2v-7.2h2v10.7H354
		l-4.3-7v7H347.6z M339.5,41.8l2.1,0.7c-0.2,1-0.8,2-1.6,2.7c-0.8,0.6-1.8,0.9-2.8,0.9c-1.3,0-2.6-0.5-3.5-1.5c-1-1.1-1.5-2.5-1.4-4
		c-0.1-1.5,0.4-3,1.4-4.2c0.9-1,2.3-1.5,3.6-1.5c1.2,0,2.3,0.4,3.2,1.2c0.5,0.6,0.9,1.2,1.1,2l-2.1,0.5c-0.2-1.1-1.2-1.8-2.3-1.8
		c-0.7,0-1.4,0.3-1.9,0.8c-0.6,0.8-0.8,1.8-0.7,2.8c-0.1,1,0.2,2,0.7,2.9c0.5,0.6,1.2,0.9,1.9,0.9c0.5,0,1.1-0.2,1.5-0.5
		C339.1,43.1,339.4,42.5,339.5,41.8L339.5,41.8z M325.1,33.5l0.9-1.2h2.3l-1.9,1.2H325.1z M324.2,34.1c-0.1-0.1-0.2-0.2-0.3-0.4h0.7
		c0.1,0.1,0.3,0.2,0.5,0.3c0.6,0.2,1.3,0.2,1.9,0c0.2-0.1,0.3-0.2,0.5-0.3h0.7c-0.2,0.3-0.4,0.5-0.8,0.7c-0.4,0.2-0.9,0.3-1.4,0.3
		c-0.2,0-0.3,0-0.5,0C325,34.7,324.6,34.5,324.2,34.1L324.2,34.1z M327.6,41.5l-1.5-4l-1.4,4H327.6z M331.6,45.8h-2.3l-0.9-2.4H324
		l-0.9,2.4h-2.3l4.1-10.7h2.3L331.6,45.8z M313.3,39.6h1.6c0.6,0,1.3,0,1.9-0.1c0.2-0.1,0.5-0.2,0.6-0.5c0.2-0.2,0.2-0.5,0.2-0.8
		c0-0.3-0.1-0.6-0.3-0.9c-0.2-0.2-0.5-0.4-0.8-0.4c-0.2,0-0.7,0-1.6,0h-1.7L313.3,39.6z M311.1,45.8V35.1h4.6c0.8,0,1.7,0.1,2.5,0.3
		c0.5,0.2,1,0.5,1.2,1c0.3,0.5,0.5,1.1,0.5,1.7c0,0.7-0.2,1.4-0.7,2c-0.6,0.6-1.3,0.9-2.1,1c0.4,0.2,0.8,0.5,1.1,0.9
		c0.5,0.5,0.9,1.1,1.2,1.7l1.3,2.1h-2.6l-1.5-2.3c-0.3-0.5-0.7-1.1-1.1-1.6c-0.2-0.2-0.4-0.3-0.6-0.4c-0.4-0.1-0.7-0.1-1.1-0.1h-0.4
		v4.5L311.1,45.8z M304.4,45.8v-8.8h-3.2v-1.8h8.5v1.8h-3.1v8.9L304.4,45.8z M293.6,45.8V35.1h2.2v10.7L293.6,45.8z M287,34.1h-1.3
		l-2-2.2h2.3L287,34.1z M290.5,35.1h2v1.5c0,0.5,0,1-0.2,1.4c-0.1,0.3-0.3,0.7-0.6,0.9c-0.3,0.3-0.6,0.5-1,0.6c0,0.3,0,0.6,0,1
		c0.1,1.5-0.4,2.9-1.4,4c-2.1,2-5.4,2-7.6,0c-1-1.1-1.5-2.5-1.4-4c-0.1-1.5,0.4-3.1,1.5-4.2c1-1,2.3-1.5,3.7-1.4
		c1.4-0.1,2.8,0.5,3.8,1.5c0.6,0.6,1,1.4,1.2,2.2c0.6-0.2,0.9-0.8,0.9-1.4h-1L290.5,35.1z M282.7,40.5c-0.1,1,0.2,2,0.8,2.8
		c1.1,1.2,2.9,1.2,4.1,0.1c0,0,0.1-0.1,0.1-0.1c0.6-0.8,0.9-1.8,0.8-2.8c0.1-1-0.2-2-0.8-2.8c-0.5-0.6-1.3-0.9-2.1-0.9
		c-0.8,0-1.6,0.3-2.2,0.9C282.9,38.5,282.6,39.5,282.7,40.5L282.7,40.5z M271.8,45.8V35.2h2.2V44h5.4v1.8H271.8z M260.6,33.9
		c0.2,0,0.4,0,0.5-0.1c0.2-0.1,0.4-0.2,0.4-0.3c0-0.1-0.1-0.2-0.2-0.3c-0.3-0.1-0.7-0.2-1-0.2h-0.7l-0.1-0.7c0.4,0,0.7,0,1.1,0
		c0.5,0,1,0.1,1.5,0.3c0.4,0.1,0.6,0.5,0.6,0.8c0,0.5-0.4,0.8-1.3,0.9v0.4h-0.8L260.6,33.9z M262.5,41.6l-1.5-4l-1.4,4H262.5z
		 M266.5,45.8h-2.3l-0.9-2.4h-4.3l-0.9,2.4h-2.3l4.2-10.7h2.3L266.5,45.8z M248.2,39.6h1.6c0.6,0,1.3,0,1.9-0.1
		c0.2-0.1,0.5-0.2,0.6-0.5c0.2-0.2,0.2-0.5,0.2-0.8c0-0.3-0.1-0.6-0.3-0.9c-0.2-0.2-0.5-0.4-0.8-0.4c-0.2,0-0.7,0-1.6,0h-1.7
		L248.2,39.6z M246,45.8V35.1h4.6c0.8,0,1.7,0.1,2.5,0.3c0.5,0.2,1,0.5,1.2,1c0.3,0.5,0.5,1.1,0.5,1.7c0,0.7-0.2,1.4-0.7,2
		c-0.6,0.6-1.3,0.9-2.1,1c0.4,0.2,0.8,0.5,1.1,0.9c0.5,0.5,0.9,1.1,1.2,1.7l1.3,2.1H253l-1.6-2.3c-0.3-0.5-0.7-1.1-1.1-1.6
		c-0.2-0.2-0.4-0.3-0.6-0.4c-0.4-0.1-0.7-0.1-1.1-0.1h-0.4v4.5L246,45.8z M239.3,45.8v-8.9h-3.2v-1.8h8.5v1.8h-3.2v8.9H239.3z
		 M221.9,35.1h2.2v5.8c0,0.6,0,1.2,0.1,1.8c0.1,0.4,0.3,0.8,0.7,1c0.4,0.3,0.9,0.4,1.4,0.4c0.5,0,1-0.1,1.4-0.4
		c0.3-0.2,0.5-0.6,0.6-0.9c0.1-0.6,0.1-1.2,0.1-1.8v-5.9h2.2v5.6c0,0.9,0,1.8-0.2,2.7c-0.1,0.5-0.3,1-0.6,1.3
		c-0.3,0.4-0.8,0.7-1.2,0.9c-0.7,0.2-1.4,0.4-2.1,0.3c-0.8,0-1.6-0.1-2.3-0.4c-0.5-0.2-0.9-0.5-1.2-0.9c-0.3-0.3-0.5-0.8-0.6-1.2
		c-0.2-0.9-0.2-1.8-0.2-2.7L221.9,35.1z M215.2,33.5l0.9-1.2h2.3l-1.9,1.2H215.2z M216.1,34.2l-0.8,0.5h-1.4l1.6-1h1.3l1.6,1h-1.4
		L216.1,34.2z M211.9,45.8V35.1h7.9v1.8h-5.8v2.4h5.4v1.8h-5.4V44h6v1.8H211.9z M207.7,45.8V35.1h2.2v10.7H207.7z M197,45.8V35.1
		h2.2v4.2h4.2v-4.2h2.2v10.7h-2.2v-4.7h-4.2v4.7H197z M189.2,36.9v3h1.2c0.6,0,1.1,0,1.7-0.2c0.3-0.1,0.5-0.3,0.7-0.5
		c0.2-0.2,0.3-0.5,0.2-0.8c0-0.4-0.1-0.7-0.3-1c-0.2-0.3-0.5-0.4-0.9-0.5c-0.5-0.1-1-0.1-1.6-0.1L189.2,36.9z M187,45.8V35.1h3.5
		c0.9,0,1.7,0,2.6,0.2c0.6,0.1,1.2,0.5,1.5,1c0.4,0.6,0.7,1.3,0.6,2.1c0,0.6-0.1,1.1-0.4,1.7c-0.2,0.4-0.5,0.7-0.9,1
		c-0.3,0.2-0.7,0.4-1.1,0.5c-0.7,0.1-1.5,0.2-2.2,0.2h-1.4v4L187,45.8z"/>
	<path class="st9" d="M394.9,45.8V35.1h3.2l1.9,7.3l1.9-7.3h3.2v10.7h-2v-8.4l-2.1,8.4H399l-2.1-8.4v8.4H394.9z M388.2,48.7v-2.1h2
		v2L388.2,48.7z M389.2,33.6l-0.8,0.5h-1.4l1.6-1h1.3l1.6,1H390L389.2,33.6z M385,45.8V35.1h7.9v1.8h-5.8v2.4h5.4v1.8h-5.4V44h6v1.8
		H385z M380.8,45.8V35.1h2.2v10.7H380.8z M370,45.8V35.1h2.2v4.2h4.2v-4.2h2.2v10.7h-2.2v-4.7h-4.2v4.7H370z M363.4,41.9v-1.8h4.6
		v4.3c-0.6,0.5-1.3,0.9-2,1.2c-0.8,0.3-1.7,0.5-2.6,0.5c-1,0-2-0.2-2.9-0.7c-0.8-0.5-1.5-1.2-1.9-2c-0.4-0.9-0.6-1.9-0.6-2.9
		c0-1,0.2-2.1,0.7-3c0.4-0.9,1.1-1.6,2-2c0.8-0.4,1.7-0.6,2.6-0.5c1.1-0.1,2.2,0.2,3.1,0.8c0.7,0.6,1.3,1.4,1.4,2.3l-2.1,0.4
		c-0.1-0.5-0.4-0.9-0.9-1.2c-0.5-0.3-1-0.5-1.6-0.5c-0.8,0-1.7,0.3-2.2,0.9c-0.6,0.8-0.9,1.7-0.8,2.7c-0.1,1,0.2,2,0.8,2.9
		c0.6,0.6,1.4,1,2.2,1c0.5,0,0.9-0.1,1.4-0.3c0.4-0.2,0.8-0.4,1.2-0.7v-1.3H363.4z M347.6,45.8V35.1h2.1l4.4,7.2v-7.2h2v10.7H354
		l-4.3-7v7H347.6z M339.5,41.8l2.1,0.7c-0.2,1-0.8,2-1.6,2.7c-0.8,0.6-1.8,0.9-2.8,0.9c-1.3,0-2.6-0.5-3.5-1.5c-1-1.1-1.5-2.5-1.4-4
		c-0.1-1.5,0.4-3,1.4-4.2c0.9-1,2.3-1.5,3.6-1.5c1.2,0,2.3,0.4,3.2,1.2c0.5,0.6,0.9,1.2,1.1,2l-2.1,0.5c-0.2-1.1-1.2-1.8-2.3-1.8
		c-0.7,0-1.4,0.3-1.9,0.8c-0.6,0.8-0.8,1.8-0.7,2.8c-0.1,1,0.2,2,0.7,2.9c0.5,0.6,1.2,0.9,1.9,0.9c0.5,0,1.1-0.2,1.5-0.5
		C339.1,43.1,339.4,42.5,339.5,41.8L339.5,41.8z M325.1,33.5l0.9-1.2h2.3l-1.9,1.2H325.1z M324.2,34.1c-0.1-0.1-0.2-0.2-0.3-0.4h0.7
		c0.1,0.1,0.3,0.2,0.5,0.3c0.6,0.2,1.3,0.2,1.9,0c0.2-0.1,0.3-0.2,0.5-0.3h0.7c-0.2,0.3-0.4,0.5-0.8,0.7c-0.4,0.2-0.9,0.3-1.4,0.3
		c-0.2,0-0.3,0-0.5,0C325,34.7,324.6,34.5,324.2,34.1L324.2,34.1z M327.6,41.5l-1.5-4l-1.4,4H327.6z M331.6,45.8h-2.3l-0.9-2.4H324
		l-0.9,2.4h-2.3l4.1-10.7h2.3L331.6,45.8z M313.3,39.6h1.6c0.6,0,1.3,0,1.9-0.1c0.2-0.1,0.5-0.2,0.6-0.5c0.2-0.2,0.2-0.5,0.2-0.8
		c0-0.3-0.1-0.6-0.3-0.9c-0.2-0.2-0.5-0.4-0.8-0.4c-0.2,0-0.7,0-1.6,0h-1.7L313.3,39.6z M311.1,45.8V35.1h4.6c0.8,0,1.7,0.1,2.5,0.3
		c0.5,0.2,1,0.5,1.2,1c0.3,0.5,0.5,1.1,0.5,1.7c0,0.7-0.2,1.4-0.7,2c-0.6,0.6-1.3,0.9-2.1,1c0.4,0.2,0.8,0.5,1.1,0.9
		c0.5,0.5,0.9,1.1,1.2,1.7l1.3,2.1h-2.6l-1.5-2.3c-0.3-0.5-0.7-1.1-1.1-1.6c-0.2-0.2-0.4-0.3-0.6-0.4c-0.4-0.1-0.7-0.1-1.1-0.1h-0.4
		v4.5L311.1,45.8z M304.4,45.8v-8.8h-3.2v-1.8h8.5v1.8h-3.1v8.9L304.4,45.8z M293.6,45.8V35.1h2.2v10.7L293.6,45.8z M287,34.1h-1.3
		l-2-2.2h2.3L287,34.1z M290.5,35.1h2v1.5c0,0.5,0,1-0.2,1.4c-0.1,0.3-0.3,0.7-0.6,0.9c-0.3,0.3-0.6,0.5-1,0.6c0,0.3,0,0.6,0,1
		c0.1,1.5-0.4,2.9-1.4,4c-2.1,2-5.4,2-7.6,0c-1-1.1-1.5-2.5-1.4-4c-0.1-1.5,0.4-3.1,1.5-4.2c1-1,2.3-1.5,3.7-1.4
		c1.4-0.1,2.8,0.5,3.8,1.5c0.6,0.6,1,1.4,1.2,2.2c0.6-0.2,0.9-0.8,0.9-1.4h-1L290.5,35.1z M282.7,40.5c-0.1,1,0.2,2,0.8,2.8
		c1.1,1.2,2.9,1.2,4.1,0.1c0,0,0.1-0.1,0.1-0.1c0.6-0.8,0.9-1.8,0.8-2.8c0.1-1-0.2-2-0.8-2.8c-0.5-0.6-1.3-0.9-2.1-0.9
		c-0.8,0-1.6,0.3-2.2,0.9C282.9,38.5,282.6,39.5,282.7,40.5L282.7,40.5z M271.8,45.8V35.2h2.2V44h5.4v1.8H271.8z M260.6,33.9
		c0.2,0,0.4,0,0.5-0.1c0.2-0.1,0.4-0.2,0.4-0.3c0-0.1-0.1-0.2-0.2-0.3c-0.3-0.1-0.7-0.2-1-0.2h-0.7l-0.1-0.7c0.4,0,0.7,0,1.1,0
		c0.5,0,1,0.1,1.5,0.3c0.4,0.1,0.6,0.5,0.6,0.8c0,0.5-0.4,0.8-1.3,0.9v0.4h-0.8L260.6,33.9z M262.5,41.6l-1.5-4l-1.4,4H262.5z
		 M266.5,45.8h-2.3l-0.9-2.4h-4.3l-0.9,2.4h-2.3l4.2-10.7h2.3L266.5,45.8z M248.2,39.6h1.6c0.6,0,1.3,0,1.9-0.1
		c0.2-0.1,0.5-0.2,0.6-0.5c0.2-0.2,0.2-0.5,0.2-0.8c0-0.3-0.1-0.6-0.3-0.9c-0.2-0.2-0.5-0.4-0.8-0.4c-0.2,0-0.7,0-1.6,0h-1.7
		L248.2,39.6z M246,45.8V35.1h4.6c0.8,0,1.7,0.1,2.5,0.3c0.5,0.2,1,0.5,1.2,1c0.3,0.5,0.5,1.1,0.5,1.7c0,0.7-0.2,1.4-0.7,2
		c-0.6,0.6-1.3,0.9-2.1,1c0.4,0.2,0.8,0.5,1.1,0.9c0.5,0.5,0.9,1.1,1.2,1.7l1.3,2.1H253l-1.6-2.3c-0.3-0.5-0.7-1.1-1.1-1.6
		c-0.2-0.2-0.4-0.3-0.6-0.4c-0.4-0.1-0.7-0.1-1.1-0.1h-0.4v4.5L246,45.8z M239.3,45.8v-8.9h-3.2v-1.8h8.5v1.8h-3.2v8.9H239.3z
		 M221.9,35.1h2.2v5.8c0,0.6,0,1.2,0.1,1.8c0.1,0.4,0.3,0.8,0.7,1c0.4,0.3,0.9,0.4,1.4,0.4c0.5,0,1-0.1,1.4-0.4
		c0.3-0.2,0.5-0.6,0.6-0.9c0.1-0.6,0.1-1.2,0.1-1.8v-5.9h2.2v5.6c0,0.9,0,1.8-0.2,2.7c-0.1,0.5-0.3,1-0.6,1.3
		c-0.3,0.4-0.8,0.7-1.2,0.9c-0.7,0.2-1.4,0.4-2.1,0.3c-0.8,0-1.6-0.1-2.3-0.4c-0.5-0.2-0.9-0.5-1.2-0.9c-0.3-0.3-0.5-0.8-0.6-1.2
		c-0.2-0.9-0.2-1.8-0.2-2.7L221.9,35.1z M215.2,33.5l0.9-1.2h2.3l-1.9,1.2H215.2z M216.1,34.2l-0.8,0.5h-1.4l1.6-1h1.3l1.6,1h-1.4
		L216.1,34.2z M211.9,45.8V35.1h7.9v1.8h-5.8v2.4h5.4v1.8h-5.4V44h6v1.8H211.9z M207.7,45.8V35.1h2.2v10.7H207.7z M197,45.8V35.1
		h2.2v4.2h4.2v-4.2h2.2v10.7h-2.2v-4.7h-4.2v4.7H197z M189.2,36.9v3h1.2c0.6,0,1.1,0,1.7-0.2c0.3-0.1,0.5-0.3,0.7-0.5
		c0.2-0.2,0.3-0.5,0.2-0.8c0-0.4-0.1-0.7-0.3-1c-0.2-0.3-0.5-0.4-0.9-0.5c-0.5-0.1-1-0.1-1.6-0.1L189.2,36.9z M187,45.8V35.1h3.5
		c0.9,0,1.7,0,2.6,0.2c0.6,0.1,1.2,0.5,1.5,1c0.4,0.6,0.7,1.3,0.6,2.1c0,0.6-0.1,1.1-0.4,1.7c-0.2,0.4-0.5,0.7-0.9,1
		c-0.3,0.2-0.7,0.4-1.1,0.5c-0.7,0.1-1.5,0.2-2.2,0.2h-1.4v4L187,45.8z"/>
	<rect x="388.3" y="83.3" class="st10" width="12.6" height="16.9"/>
	<rect x="400.9" y="83.3" class="st10" width="12.6" height="16.9"/>
	<rect x="413.6" y="83.3" class="st10" width="12.6" height="16.9"/>
	<rect x="426.2" y="83.3" class="st10" width="12.6" height="16.9"/>
	<rect x="438.9" y="83.3" class="st10" width="12.6" height="16.9"/>
	<rect x="451.5" y="83.3" class="st10" width="12.6" height="16.9"/>
	<rect x="375.4" y="109.1" class="st11" width="13.4" height="13.4"/>
	<path class="st12" d="M394.6,123.4c2.6,0,4.8,2.1,4.8,4.8c0,2.6-2.1,4.8-4.8,4.8c-2.6,0-4.8-2.1-4.8-4.8c0,0,0,0,0,0
		C389.8,125.5,391.9,123.4,394.6,123.4z"/>
	<path class="st12" d="M394.6,135.8c2.6,0,4.8,2.1,4.8,4.8s-2.1,4.8-4.8,4.8c-2.6,0-4.8-2.1-4.8-4.8c0,0,0,0,0,0
		C389.8,138,391.9,135.8,394.6,135.8z"/>
	<path class="st12" d="M394.6,148.3c2.6,0,4.8,2.1,4.8,4.8s-2.1,4.8-4.8,4.8s-4.8-2.1-4.8-4.8l0,0
		C389.8,150.4,391.9,148.3,394.6,148.3z"/>
	<path class="st12" d="M394.6,160.7c2.6,0,4.8,2.1,4.8,4.8s-2.1,4.8-4.8,4.8c-2.6,0-4.8-2.1-4.8-4.8c0,0,0,0,0,0
		C389.8,162.9,391.9,160.7,394.6,160.7z"/>
	<path class="st12" d="M394.6,173.1c2.6,0,4.8,2.1,4.8,4.8s-2.1,4.8-4.8,4.8s-4.8-2.1-4.8-4.8l0,0
		C389.8,175.3,391.9,173.1,394.6,173.1z"/>
	<path class="st12" d="M394.6,185.6c2.6,0,4.8,2.1,4.8,4.8c0,2.6-2.1,4.8-4.8,4.8c-2.6,0-4.8-2.1-4.8-4.8c0,0,0,0,0,0
		C389.8,187.7,391.9,185.6,394.6,185.6z"/>
	<path class="st12" d="M394.6,198c2.6,0,4.8,2.1,4.8,4.8s-2.1,4.8-4.8,4.8c-2.6,0-4.8-2.1-4.8-4.8c0,0,0,0,0,0
		C389.8,200.1,391.9,198,394.6,198z"/>
	<path class="st12" d="M394.6,210.5c2.6,0,4.8,2.1,4.8,4.8s-2.1,4.8-4.8,4.8s-4.8-2.1-4.8-4.8l0,0
		C389.8,212.6,391.9,210.5,394.6,210.5z"/>
	<path class="st12" d="M394.6,222.9c2.6,0,4.8,2.1,4.8,4.8s-2.1,4.8-4.8,4.8c-2.6,0-4.8-2.1-4.8-4.8c0,0,0,0,0,0
		C389.8,225,391.9,222.9,394.6,222.9z"/>
	<path class="st12" d="M394.6,235.3c2.6,0,4.8,2.1,4.8,4.8s-2.1,4.8-4.8,4.8s-4.8-2.1-4.8-4.8l0,0
		C389.8,237.5,391.9,235.3,394.6,235.3z"/>
	<path class="st12" d="M407,123.4c2.6,0,4.8,2.1,4.8,4.8c0,2.6-2.1,4.8-4.8,4.8c-2.6,0-4.8-2.1-4.8-4.8c0,0,0,0,0,0
		C402.2,125.5,404.4,123.4,407,123.4z"/>
	<path class="st12" d="M407,135.8c2.6,0,4.8,2.1,4.8,4.8s-2.1,4.8-4.8,4.8c-2.6,0-4.8-2.1-4.8-4.8c0,0,0,0,0,0
		C402.2,138,404.4,135.8,407,135.8z"/>
	<path class="st12" d="M407,148.3c2.6,0,4.8,2.1,4.8,4.8s-2.1,4.8-4.8,4.8s-4.8-2.1-4.8-4.8l0,0C402.2,150.4,404.4,148.3,407,148.3z
		"/>
	<path class="st12" d="M407,160.7c2.6,0,4.8,2.1,4.8,4.8s-2.1,4.8-4.8,4.8c-2.6,0-4.8-2.1-4.8-4.8c0,0,0,0,0,0
		C402.2,162.9,404.4,160.7,407,160.7z"/>
	<path class="st12" d="M407,173.1c2.6,0,4.8,2.1,4.8,4.8s-2.1,4.8-4.8,4.8s-4.8-2.1-4.8-4.8l0,0C402.2,175.3,404.4,173.1,407,173.1z
		"/>
	<path class="st12" d="M407,185.6c2.6,0,4.8,2.1,4.8,4.8c0,2.6-2.1,4.8-4.8,4.8c-2.6,0-4.8-2.1-4.8-4.8c0,0,0,0,0,0
		C402.2,187.7,404.4,185.6,407,185.6z"/>
	<path class="st12" d="M407,198c2.6,0,4.8,2.1,4.8,4.8s-2.1,4.8-4.8,4.8c-2.6,0-4.8-2.1-4.8-4.8c0,0,0,0,0,0
		C402.2,200.1,404.4,198,407,198z"/>
	<path class="st12" d="M407,210.5c2.6,0,4.8,2.1,4.8,4.8s-2.1,4.8-4.8,4.8s-4.8-2.1-4.8-4.8l0,0C402.2,212.6,404.4,210.5,407,210.5z
		"/>
	<path class="st12" d="M407,222.9c2.6,0,4.8,2.1,4.8,4.8s-2.1,4.8-4.8,4.8c-2.6,0-4.8-2.1-4.8-4.8c0,0,0,0,0,0
		C402.2,225,404.4,222.9,407,222.9z"/>
	<path class="st12" d="M407,235.3c2.6,0,4.8,2.1,4.8,4.8s-2.1,4.8-4.8,4.8s-4.8-2.1-4.8-4.8l0,0C402.2,237.5,404.4,235.3,407,235.3z
		"/>
	<path class="st12" d="M419.4,123.4c2.6,0,4.8,2.1,4.8,4.8c0,2.6-2.1,4.8-4.8,4.8c-2.6,0-4.8-2.1-4.8-4.8c0,0,0,0,0,0
		C414.7,125.5,416.8,123.4,419.4,123.4z"/>
	<path class="st12" d="M419.4,135.8c2.6,0,4.8,2.1,4.8,4.8s-2.1,4.8-4.8,4.8c-2.6,0-4.8-2.1-4.8-4.8c0,0,0,0,0,0
		C414.7,138,416.8,135.8,419.4,135.8z"/>
	<path class="st12" d="M419.4,148.3c2.6,0,4.8,2.1,4.8,4.8s-2.1,4.8-4.8,4.8s-4.8-2.1-4.8-4.8l0,0
		C414.7,150.4,416.8,148.3,419.4,148.3z"/>
	<path class="st12" d="M419.4,160.7c2.6,0,4.8,2.1,4.8,4.8s-2.1,4.8-4.8,4.8c-2.6,0-4.8-2.1-4.8-4.8c0,0,0,0,0,0
		C414.7,162.9,416.8,160.7,419.4,160.7z"/>
	<path class="st12" d="M419.4,173.1c2.6,0,4.8,2.1,4.8,4.8s-2.1,4.8-4.8,4.8s-4.8-2.1-4.8-4.8l0,0
		C414.7,175.3,416.8,173.1,419.4,173.1z"/>
	<path class="st12" d="M419.4,185.6c2.6,0,4.8,2.1,4.8,4.8c0,2.6-2.1,4.8-4.8,4.8c-2.6,0-4.8-2.1-4.8-4.8c0,0,0,0,0,0
		C414.7,187.7,416.8,185.6,419.4,185.6z"/>
	<path class="st12" d="M419.4,198c2.6,0,4.8,2.1,4.8,4.8s-2.1,4.8-4.8,4.8c-2.6,0-4.8-2.1-4.8-4.8c0,0,0,0,0,0
		C414.7,200.1,416.8,198,419.4,198z"/>
	<path class="st12" d="M419.4,210.5c2.6,0,4.8,2.1,4.8,4.8s-2.1,4.8-4.8,4.8s-4.8-2.1-4.8-4.8l0,0
		C414.7,212.6,416.8,210.5,419.4,210.5z"/>
	<path class="st12" d="M419.4,222.9c2.6,0,4.8,2.1,4.8,4.8s-2.1,4.8-4.8,4.8c-2.6,0-4.8-2.1-4.8-4.8c0,0,0,0,0,0
		C414.7,225,416.8,222.9,419.4,222.9z"/>
	<path class="st12" d="M419.4,235.3c2.6,0,4.8,2.1,4.8,4.8s-2.1,4.8-4.8,4.8s-4.8-2.1-4.8-4.8l0,0
		C414.7,237.5,416.8,235.3,419.4,235.3z"/>
	<path class="st12" d="M431.9,123.4c2.6,0,4.8,2.1,4.8,4.8c0,2.6-2.1,4.8-4.8,4.8c-2.6,0-4.8-2.1-4.8-4.8S429.2,123.4,431.9,123.4
		L431.9,123.4z"/>
	<path class="st12" d="M431.9,135.8c2.6,0,4.8,2.1,4.8,4.8c0,2.6-2.1,4.8-4.8,4.8s-4.8-2.1-4.8-4.8c0,0,0,0,0,0
		C427.1,138,429.2,135.8,431.9,135.8C431.9,135.8,431.9,135.8,431.9,135.8z"/>
	<path class="st12" d="M431.9,148.3c2.6,0,4.8,2.2,4.8,4.8c0,2.6-2.2,4.8-4.8,4.8c-2.6,0-4.8-2.1-4.8-4.8
		C427.1,150.4,429.2,148.3,431.9,148.3C431.9,148.3,431.9,148.3,431.9,148.3z"/>
	<path class="st12" d="M431.9,160.7c2.6,0,4.8,2.1,4.8,4.8c0,2.6-2.1,4.8-4.8,4.8s-4.8-2.1-4.8-4.8c0,0,0,0,0,0
		C427.1,162.9,429.2,160.7,431.9,160.7C431.9,160.7,431.9,160.7,431.9,160.7z"/>
	<path class="st12" d="M431.9,173.1c2.6,0,4.8,2.2,4.8,4.8c0,2.6-2.2,4.8-4.8,4.8c-2.6,0-4.8-2.1-4.8-4.8
		C427.1,175.3,429.2,173.1,431.9,173.1C431.9,173.1,431.9,173.1,431.9,173.1z"/>
	<path class="st12" d="M431.9,185.6c2.6,0,4.8,2.1,4.8,4.8c0,2.6-2.1,4.8-4.8,4.8c-2.6,0-4.8-2.1-4.8-4.8S429.2,185.6,431.9,185.6
		L431.9,185.6z"/>
	<path class="st12" d="M431.9,198c2.6,0,4.8,2.1,4.8,4.8c0,2.6-2.1,4.8-4.8,4.8s-4.8-2.1-4.8-4.8c0,0,0,0,0,0
		C427.1,200.1,429.2,198,431.9,198C431.9,198,431.9,198,431.9,198z"/>
	<path class="st12" d="M431.9,210.5c2.6,0,4.8,2.2,4.8,4.8c0,2.6-2.2,4.8-4.8,4.8c-2.6,0-4.8-2.1-4.8-4.8
		C427.1,212.6,429.2,210.5,431.9,210.5C431.9,210.5,431.9,210.5,431.9,210.5z"/>
	<path class="st12" d="M431.9,222.9c2.6,0,4.8,2.1,4.8,4.8c0,2.6-2.1,4.8-4.8,4.8s-4.8-2.1-4.8-4.8c0,0,0,0,0,0
		C427.1,225,429.2,222.9,431.9,222.9C431.9,222.9,431.9,222.9,431.9,222.9z"/>
	<path class="st12" d="M431.9,235.3c2.6,0,4.8,2.2,4.8,4.8c0,2.6-2.2,4.8-4.8,4.8c-2.6,0-4.8-2.1-4.8-4.8
		C427.1,237.5,429.2,235.3,431.9,235.3C431.9,235.3,431.9,235.3,431.9,235.3z"/>
	<path class="st12" d="M444.3,123.4c2.6,0,4.8,2.1,4.8,4.8c0,2.6-2.1,4.8-4.8,4.8c-2.6,0-4.8-2.1-4.8-4.8c0,0,0,0,0,0
		C439.5,125.6,441.7,123.4,444.3,123.4z"/>
	<path class="st12" d="M444.3,135.8c2.6,0,4.8,2.1,4.8,4.8s-2.1,4.8-4.8,4.8c-2.6,0-4.8-2.1-4.8-4.8c0,0,0,0,0,0
		C439.5,138,441.7,135.8,444.3,135.8z"/>
	<path class="st12" d="M444.3,148.3c2.6,0,4.8,2.1,4.8,4.8s-2.1,4.8-4.8,4.8s-4.8-2.1-4.8-4.8l0,0
		C439.5,150.4,441.7,148.3,444.3,148.3z"/>
	<path class="st12" d="M444.3,160.7c2.6,0,4.8,2.1,4.8,4.8s-2.1,4.8-4.8,4.8c-2.6,0-4.8-2.1-4.8-4.8c0,0,0,0,0,0
		C439.5,162.9,441.7,160.7,444.3,160.7z"/>
	<path class="st12" d="M444.3,173.1c2.6,0,4.8,2.1,4.8,4.8s-2.1,4.8-4.8,4.8s-4.8-2.1-4.8-4.8l0,0
		C439.5,175.3,441.7,173.2,444.3,173.1z"/>
	<path class="st12" d="M444.3,185.6c2.6,0,4.8,2.1,4.8,4.8c0,2.6-2.1,4.8-4.8,4.8c-2.6,0-4.8-2.1-4.8-4.8c0,0,0,0,0,0
		C439.5,187.7,441.7,185.6,444.3,185.6z"/>
	<path class="st12" d="M444.3,198c2.6,0,4.8,2.1,4.8,4.8s-2.1,4.8-4.8,4.8c-2.6,0-4.8-2.1-4.8-4.8c0,0,0,0,0,0
		C439.5,200.1,441.7,198,444.3,198z"/>
	<path class="st12" d="M444.3,210.5c2.6,0,4.8,2.1,4.8,4.8s-2.1,4.8-4.8,4.8s-4.8-2.1-4.8-4.8l0,0
		C439.5,212.6,441.7,210.5,444.3,210.5z"/>
	<path class="st12" d="M444.3,222.9c2.6,0,4.8,2.1,4.8,4.8s-2.1,4.8-4.8,4.8c-2.6,0-4.8-2.1-4.8-4.8c0,0,0,0,0,0
		C439.5,225,441.7,222.9,444.3,222.9z"/>
	<path class="st12" d="M444.3,235.3c2.6,0,4.8,2.1,4.8,4.8s-2.1,4.8-4.8,4.8s-4.8-2.1-4.8-4.8l0,0
		C439.5,237.5,441.7,235.3,444.3,235.3z"/>
	<path class="st12" d="M456.8,123.4c2.6,0,4.8,2.1,4.8,4.8c0,2.6-2.1,4.8-4.8,4.8c-2.6,0-4.8-2.1-4.8-4.8S454.1,123.4,456.8,123.4
		L456.8,123.4z"/>
	<path class="st12" d="M456.8,135.8c2.6,0,4.8,2.1,4.8,4.8c0,2.6-2.1,4.8-4.8,4.8s-4.8-2.1-4.8-4.8c0,0,0,0,0,0
		C452,138,454.1,135.8,456.8,135.8C456.7,135.8,456.7,135.8,456.8,135.8z"/>
	<path class="st12" d="M456.8,148.3c2.6,0,4.8,2.2,4.8,4.8c0,2.6-2.2,4.8-4.8,4.8c-2.6,0-4.8-2.1-4.8-4.8
		C452,150.4,454.1,148.3,456.8,148.3C456.7,148.3,456.7,148.3,456.8,148.3z"/>
	<path class="st12" d="M456.8,160.7c2.6,0,4.8,2.1,4.8,4.8c0,2.6-2.1,4.8-4.8,4.8s-4.8-2.1-4.8-4.8c0,0,0,0,0,0
		C452,162.9,454.1,160.7,456.8,160.7C456.7,160.7,456.7,160.7,456.8,160.7z"/>
	<path class="st12" d="M456.8,173.1c2.6,0,4.8,2.2,4.8,4.8c0,2.6-2.2,4.8-4.8,4.8c-2.6,0-4.8-2.1-4.8-4.8
		C452,175.3,454.1,173.1,456.8,173.1C456.7,173.1,456.7,173.1,456.8,173.1z"/>
	<path class="st12" d="M456.8,185.6c2.6,0,4.8,2.1,4.8,4.8c0,2.6-2.1,4.8-4.8,4.8c-2.6,0-4.8-2.1-4.8-4.8S454.1,185.6,456.8,185.6
		L456.8,185.6z"/>
	<path class="st12" d="M456.8,198c2.6,0,4.8,2.1,4.8,4.7c0,2.6-2.1,4.8-4.7,4.8s-4.8-2.1-4.8-4.7c0,0,0,0,0,0
		C452,200.2,454.1,198,456.8,198z"/>
	<path class="st12" d="M456.8,210.5c2.6,0,4.8,2.2,4.8,4.8c0,2.6-2.2,4.8-4.8,4.8c-2.6,0-4.8-2.1-4.8-4.8
		C452,212.6,454.1,210.5,456.8,210.5C456.7,210.5,456.7,210.5,456.8,210.5z"/>
	<path class="st12" d="M456.8,222.9c2.6,0,4.8,2.1,4.8,4.8c0,2.6-2.1,4.8-4.8,4.8s-4.8-2.1-4.8-4.8c0,0,0,0,0,0
		C452,225,454.1,222.9,456.8,222.9C456.7,222.9,456.7,222.9,456.8,222.9z"/>
	<path class="st12" d="M456.8,235.3c2.6,0,4.8,2.2,4.8,4.8c0,2.6-2.2,4.8-4.8,4.8c-2.6,0-4.8-2.1-4.8-4.8
		C452,237.5,454.1,235.3,456.8,235.3C456.7,235.3,456.7,235.3,456.8,235.3z"/>
	<rect x="375.4" y="245.9" class="st11" width="13.4" height="13.4"/>
	<text transform="matrix(1 0 0 1 380.6 130.11)" class="st1 st2 st13">0</text>
	<text transform="matrix(1 0 0 1 380.6 142.55)" class="st1 st2 st13">1</text>
	<text transform="matrix(1 0 0 1 380.61 154.99)" class="st1 st2 st13">2</text>
	<text transform="matrix(1 0 0 1 380.6 167.42)" class="st1 st2 st13">3</text>
	<text transform="matrix(1 0 0 1 380.6 179.86)" class="st1 st2 st13">4</text>
	<text transform="matrix(1 0 0 1 380.6 192.29)" class="st1 st2 st13">5</text>
	<text transform="matrix(1 0 0 1 380.61 204.73)" class="st1 st2 st13">6</text>
	<text transform="matrix(1 0 0 1 380.6 217.17)" class="st1 st2 st13">7</text>
	<text transform="matrix(1 0 0 1 380.6 229.6)" class="st1 st2 st13">8</text>
	<text transform="matrix(1 0 0 1 380.61 242.04)" class="st1 st2 st13">9</text>
	<rect x="492.6" y="109" class="st11" width="13.4" height="13.4"/>
	<path class="st12" d="M511.7,123.4c2.6,0,4.8,2.1,4.8,4.8c0,2.6-2.1,4.8-4.8,4.8c-2.6,0-4.8-2.1-4.8-4.8c0,0,0,0,0,0
		C506.9,125.5,509.1,123.4,511.7,123.4z"/>
	<path class="st12" d="M511.7,135.8c2.6,0,4.8,2.1,4.8,4.8s-2.1,4.8-4.8,4.8s-4.8-2.1-4.8-4.8l0,0
		C506.9,138,509.1,135.8,511.7,135.8z"/>
	<path class="st12" d="M511.7,148.3c2.6,0,4.8,2.1,4.8,4.8c0,2.6-2.1,4.8-4.8,4.8c-2.6,0-4.8-2.1-4.8-4.8c0,0,0,0,0,0
		C506.9,150.4,509.1,148.3,511.7,148.3z"/>
	<path class="st12" d="M511.7,160.7c2.6,0,4.8,2.1,4.8,4.8c0,2.6-2.1,4.8-4.8,4.8c-2.6,0-4.8-2.1-4.8-4.8c0,0,0,0,0,0
		C506.9,162.8,509.1,160.7,511.7,160.7z"/>
	<path class="st12" d="M511.7,173.1c2.6,0,4.8,2.1,4.8,4.8s-2.1,4.8-4.8,4.8s-4.8-2.1-4.8-4.8l0,0
		C506.9,175.3,509.1,173.1,511.7,173.1z"/>
	<path class="st12" d="M511.7,185.6c2.6,0,4.8,2.1,4.8,4.8c0,2.6-2.1,4.8-4.8,4.8c-2.6,0-4.8-2.1-4.8-4.8c0,0,0,0,0,0
		C506.9,187.7,509.1,185.6,511.7,185.6z"/>
	<path class="st12" d="M511.7,198c2.6,0,4.8,2.1,4.8,4.8s-2.1,4.8-4.8,4.8s-4.8-2.1-4.8-4.8l0,0C506.9,200.1,509.1,198,511.7,198z"
		/>
	<path class="st12" d="M511.7,210.4c2.6,0,4.8,2.1,4.8,4.8c0,2.6-2.1,4.8-4.8,4.8c-2.6,0-4.8-2.1-4.8-4.8c0,0,0,0,0,0
		C506.9,212.6,509.1,210.4,511.7,210.4z"/>
	<path class="st12" d="M511.7,222.9c2.6,0,4.8,2.1,4.8,4.8c0,2.6-2.1,4.8-4.8,4.8c-2.6,0-4.8-2.1-4.8-4.8c0,0,0,0,0,0
		C506.9,225,509.1,222.9,511.7,222.9z"/>
	<path class="st12" d="M511.7,235.3c2.6,0,4.8,2.1,4.8,4.8s-2.1,4.8-4.8,4.8s-4.8-2.1-4.8-4.8l0,0
		C506.9,237.5,509.1,235.3,511.7,235.3z"/>
	<path class="st12" d="M524.2,123.4c2.6,0,4.8,2.1,4.8,4.8c0,2.6-2.1,4.8-4.8,4.8c-2.6,0-4.8-2.1-4.8-4.8c0,0,0,0,0,0
		C519.4,125.5,521.5,123.4,524.2,123.4z"/>
	<path class="st12" d="M524.2,135.8c2.6,0,4.8,2.1,4.8,4.8s-2.1,4.8-4.8,4.8c-2.6,0-4.8-2.1-4.8-4.8
		C519.4,138,521.5,135.8,524.2,135.8z"/>
	<path class="st12" d="M524.2,148.3c2.6,0,4.8,2.1,4.8,4.8c0,2.6-2.1,4.8-4.8,4.8c-2.6,0-4.8-2.1-4.8-4.8c0,0,0,0,0,0
		C519.4,150.4,521.5,148.3,524.2,148.3z"/>
	<path class="st12" d="M524.2,160.7c2.6,0,4.8,2.1,4.8,4.8c0,2.6-2.1,4.8-4.8,4.8c-2.6,0-4.8-2.1-4.8-4.8c0,0,0,0,0,0
		C519.4,162.8,521.5,160.7,524.2,160.7z"/>
	<path class="st12" d="M524.2,173.1c2.6,0,4.8,2.1,4.8,4.8s-2.1,4.8-4.8,4.8c-2.6,0-4.8-2.1-4.8-4.8
		C519.4,175.3,521.5,173.1,524.2,173.1z"/>
	<path class="st12" d="M524.2,185.6c2.6,0,4.8,2.1,4.8,4.8c0,2.6-2.1,4.8-4.8,4.8c-2.6,0-4.8-2.1-4.8-4.8c0,0,0,0,0,0
		C519.4,187.7,521.5,185.6,524.2,185.6z"/>
	<path class="st12" d="M524.2,198c2.6,0,4.8,2.1,4.8,4.8s-2.1,4.8-4.8,4.8c-2.6,0-4.8-2.1-4.8-4.8C519.4,200.1,521.5,198,524.2,198z
		"/>
	<path class="st12" d="M524.2,210.4c2.6,0,4.8,2.1,4.8,4.8c0,2.6-2.1,4.8-4.8,4.8c-2.6,0-4.8-2.1-4.8-4.8c0,0,0,0,0,0
		C519.4,212.6,521.5,210.5,524.2,210.4z"/>
	<path class="st12" d="M524.2,222.9c2.6,0,4.8,2.1,4.8,4.8c0,2.6-2.1,4.8-4.8,4.8c-2.6,0-4.8-2.1-4.8-4.8c0,0,0,0,0,0
		C519.4,225,521.5,222.9,524.2,222.9z"/>
	<path class="st12" d="M524.2,235.3c2.6,0,4.8,2.1,4.8,4.8s-2.1,4.8-4.8,4.8c-2.6,0-4.8-2.1-4.8-4.8
		C519.4,237.5,521.5,235.3,524.2,235.3z"/>
	<path class="st12" d="M536.6,123.4c2.6,0,4.8,2.1,4.8,4.8c0,2.6-2.1,4.8-4.8,4.8c-2.6,0-4.8-2.1-4.8-4.8c0,0,0,0,0,0
		C531.8,125.5,534,123.4,536.6,123.4L536.6,123.4z"/>
	<path class="st12" d="M536.6,135.8c2.6,0,4.8,2.1,4.8,4.8s-2.1,4.8-4.8,4.8c-2.6,0-4.8-2.1-4.8-4.8
		C531.8,138,534,135.8,536.6,135.8L536.6,135.8z"/>
	<path class="st12" d="M536.6,148.3c2.6,0,4.8,2.1,4.8,4.8c0,2.6-2.1,4.8-4.8,4.8c-2.6,0-4.8-2.1-4.8-4.8c0,0,0,0,0,0
		C531.8,150.4,533.9,148.3,536.6,148.3z"/>
	<path class="st12" d="M536.6,160.7c2.6,0,4.8,2.1,4.8,4.8c0,2.6-2.1,4.8-4.8,4.8c-2.6,0-4.8-2.1-4.8-4.8c0,0,0,0,0,0
		C531.8,162.8,534,160.7,536.6,160.7L536.6,160.7z"/>
	<path class="st12" d="M536.6,173.1c2.6,0,4.8,2.1,4.8,4.8s-2.1,4.8-4.8,4.8c-2.6,0-4.8-2.1-4.8-4.8
		C531.8,175.3,534,173.1,536.6,173.1L536.6,173.1z"/>
	<path class="st12" d="M536.6,185.6c2.6,0,4.8,2.1,4.8,4.8c0,2.6-2.1,4.8-4.8,4.8c-2.6,0-4.8-2.1-4.8-4.8c0,0,0,0,0,0
		C531.8,187.7,534,185.6,536.6,185.6L536.6,185.6z"/>
	<path class="st12" d="M536.6,198c2.6,0,4.8,2.1,4.8,4.8s-2.1,4.8-4.8,4.8c-2.6,0-4.8-2.1-4.8-4.8C531.8,200.1,534,198,536.6,198
		L536.6,198z"/>
	<path class="st12" d="M536.6,210.4c2.6,0,4.8,2.1,4.8,4.8c0,2.6-2.1,4.8-4.8,4.8c-2.6,0-4.8-2.1-4.8-4.8c0,0,0,0,0,0
		C531.8,212.6,533.9,210.4,536.6,210.4z"/>
	<path class="st12" d="M536.6,222.9c2.6,0,4.8,2.1,4.8,4.8c0,2.6-2.1,4.8-4.8,4.8c-2.6,0-4.8-2.1-4.8-4.8c0,0,0,0,0,0
		C531.8,225,534,222.9,536.6,222.9L536.6,222.9z"/>
	<path class="st12" d="M536.6,235.3c2.6,0,4.8,2.1,4.8,4.8s-2.1,4.8-4.8,4.8c-2.6,0-4.8-2.1-4.8-4.8
		C531.8,237.5,534,235.3,536.6,235.3L536.6,235.3z"/>
	<rect x="492.6" y="245.8" class="st11" width="13.4" height="13.4"/>
	<text transform="matrix(1 0 0 1 497.76 130.1)" class="st1 st2 st13">0</text>
	<text transform="matrix(1 0 0 1 497.76 142.54)" class="st1 st2 st13">1</text>
	<text transform="matrix(1 0 0 1 497.76 154.97)" class="st1 st2 st13">2</text>
	<text transform="matrix(1 0 0 1 497.75 167.41)" class="st1 st2 st13">3</text>
	<text transform="matrix(1 0 0 1 497.76 179.85)" class="st1 st2 st13">4</text>
	<text transform="matrix(1 0 0 1 497.75 192.28)" class="st1 st2 st13">5</text>
	<text transform="matrix(1 0 0 1 497.76 204.72)" class="st1 st2 st13">6</text>
	<text transform="matrix(1 0 0 1 497.76 217.15)" class="st1 st2 st13">7</text>
	<text transform="matrix(1 0 0 1 497.76 229.59)" class="st1 st2 st13">8</text>
	<text transform="matrix(1 0 0 1 497.76 242.03)" class="st1 st2 st13">9</text>
	<rect x="506.8" y="83.2" class="st10" width="11.7" height="16.9"/>
	<rect x="518.5" y="83.2" class="st10" width="11.7" height="16.9"/>
	<rect x="530.1" y="83.2" class="st10" width="11.7" height="16.9"/>
	<g id="col_1">
		<rect x="32.8" y="774.5" class="st14" width="14.3" height="14.3"/>
		<rect x="32.8" y="270.4" class="st11" width="14.3" height="14.4"/>
		<path class="st1" d="M57.5,277.7l-0.6-1.7l-0.6,1.7H57.5z M59.2,279.6h-1l-0.4-1h-1.8l-0.4,1h-1l1.8-4.6h1L59.2,279.6z"/>
		<path class="st15" d="M56.8,273.3c-2.4,0-4.3,1.9-4.3,4.3c0,2.4,1.9,4.3,4.3,4.3s4.3-1.9,4.3-4.3c0,0,0,0,0,0
			C61.1,275.2,59.2,273.3,56.8,273.3C56.8,273.3,56.8,273.3,56.8,273.3z"/>
		<path class="st1" d="M105,276v3h0.7c0.2,0,0.4,0,0.6,0c0.1,0,0.3-0.1,0.4-0.2c0.1-0.1,0.2-0.3,0.2-0.4c0.1-0.3,0.1-0.6,0.1-0.8
			c0-0.3,0-0.5-0.1-0.8c-0.1-0.2-0.1-0.3-0.3-0.5c-0.1-0.1-0.3-0.2-0.4-0.2c-0.3,0-0.5-0.1-0.8,0L105,276z M104.1,275.2h1.7
			c0.3,0,0.6,0,0.9,0.1c0.3,0.1,0.5,0.2,0.7,0.4c0.2,0.2,0.3,0.5,0.4,0.7c0.1,0.4,0.2,0.7,0.2,1.1c0,0.3,0,0.7-0.1,1
			c-0.1,0.3-0.3,0.6-0.5,0.8c-0.2,0.2-0.4,0.3-0.7,0.4c-0.3,0.1-0.5,0.1-0.8,0.1H104L104.1,275.2z"/>
		
			<ellipse transform="matrix(0.1602 -0.9871 0.9871 0.1602 -185.2198 337.2075)" class="st15" cx="105.6" cy="277.5" rx="4.3" ry="4.3"/>
		<path class="st1" d="M90.4,278.1l0.9,0.3c-0.1,0.4-0.3,0.8-0.7,1.1c-0.4,0.3-0.8,0.4-1.2,0.4c-0.6,0-1.1-0.2-1.5-0.6
			c-0.4-0.5-0.6-1.1-0.6-1.7c0-0.6,0.2-1.3,0.6-1.8c0.4-0.4,1-0.7,1.6-0.6c0.5,0,1,0.2,1.4,0.5c0.2,0.2,0.4,0.5,0.5,0.8l-0.9,0.2
			c0-0.2-0.2-0.4-0.3-0.6c-0.2-0.1-0.4-0.2-0.6-0.2c-0.3,0-0.6,0.1-0.8,0.4c-0.2,0.3-0.4,0.8-0.3,1.2c0,0.4,0.1,0.9,0.3,1.2
			c0.2,0.2,0.5,0.4,0.8,0.4c0.2,0,0.5-0.1,0.6-0.2C90.2,278.6,90.4,278.3,90.4,278.1"/>
		
			<ellipse transform="matrix(0.9985 -5.529873e-02 5.529873e-02 0.9985 -15.213 5.3631)" class="st15" cx="89.3" cy="277.6" rx="4.3" ry="4.3"/>
		<path class="st1" d="M72.4,277.8v1.2h0.9c0.2,0,0.4,0,0.6,0c0.1,0,0.2-0.1,0.3-0.2c0.2-0.2,0.2-0.5,0-0.8
			c-0.1-0.1-0.2-0.2-0.3-0.2c-0.3-0.1-0.5-0.1-0.8-0.1L72.4,277.8z M72.4,275.9v1.1H73c0.4,0,0.6,0,0.7,0c0.1,0,0.3-0.1,0.4-0.2
			c0.1-0.1,0.1-0.2,0.1-0.4c0-0.1,0-0.2-0.1-0.3c-0.1-0.1-0.2-0.2-0.3-0.2c-0.1,0-0.3,0-0.8,0L72.4,275.9z M71.5,275.2h1.8
			c0.3,0,0.5,0,0.8,0c0.2,0,0.3,0.1,0.5,0.2c0.1,0.1,0.3,0.2,0.3,0.4c0.1,0.2,0.1,0.4,0.1,0.5c0,0.2-0.1,0.4-0.2,0.6
			c-0.1,0.2-0.3,0.3-0.5,0.4c0.3,0.1,0.5,0.2,0.6,0.4c0.2,0.2,0.2,0.4,0.2,0.7c0,0.2-0.1,0.4-0.1,0.6c-0.1,0.2-0.2,0.3-0.4,0.5
			c-0.2,0.1-0.4,0.2-0.6,0.2c-0.2,0-0.5,0-1.1,0h-1.6V275.2z"/>
		<path class="st15" d="M73,273.3c-2.4,0-4.3,1.9-4.3,4.3c0,2.4,1.9,4.3,4.3,4.3c2.4,0,4.3-1.9,4.3-4.3c0,0,0,0,0,0
			C77.3,275.2,75.4,273.3,73,273.3z"/>
		<g id="draw_col_1">
			<g id="main_draw_col_1_2">
				<g id="main_draw_col_1_2_row_1">
					<path id="num_1_a" class="st12" d="M56.3,289c2.6,0,4.8,2.1,4.8,4.8c0,2.6-2.1,4.8-4.8,4.8c-2.6,0-4.8-2.1-4.8-4.8c0,0,0,0,0,0
						C51.5,291.1,53.6,289,56.3,289z"/>
					<path id="num_2_a" class="st12" d="M56.3,305.3c2.6,0,4.8,2.1,4.8,4.8s-2.1,4.8-4.8,4.8c-2.6,0-4.8-2.1-4.8-4.8l0,0
						C51.5,307.5,53.6,305.3,56.3,305.3z"/>
					<path id="num_3_a" class="st12" d="M56.3,321.6c2.6,0,4.8,2.1,4.8,4.8s-2.1,4.8-4.8,4.8c-2.6,0-4.8-2.1-4.8-4.8l0,0
						C51.5,323.7,53.6,321.6,56.3,321.6z"/>
					<path id="num_4_a" class="st12" d="M56.3,337.8c2.6,0,4.8,2.1,4.8,4.8s-2.1,4.8-4.8,4.8s-4.8-2.1-4.8-4.8c0,0,0,0,0,0
						C51.5,340,53.6,337.8,56.3,337.8z"/>
					<path id="num_5_a" class="st12" d="M56.3,354.1c2.6,0,4.8,2.1,4.8,4.8c0,2.6-2.1,4.8-4.8,4.8c-2.6,0-4.8-2.1-4.8-4.8
						c0,0,0,0,0,0C51.5,356.2,53.6,354.1,56.3,354.1C56.3,354.1,56.3,354.1,56.3,354.1z"/>
					<path id="num_6_a" class="st12" d="M56.3,370.4c2.6,0,4.8,2.1,4.8,4.8c0,2.6-2.1,4.8-4.8,4.8c-2.6,0-4.8-2.1-4.8-4.8
						c0,0,0,0,0,0C51.5,372.5,53.6,370.4,56.3,370.4z"/>
					<path id="num_7_a" class="st12" d="M56.3,386.6c2.6,0,4.8,2.1,4.8,4.8s-2.1,4.8-4.8,4.8c-2.6,0-4.8-2.1-4.8-4.8l0,0
						C51.5,388.8,53.6,386.6,56.3,386.6z"/>
					<path id="num_8_a" class="st12" d="M56.3,402.9c2.6,0,4.8,2.1,4.8,4.8s-2.1,4.8-4.8,4.8s-4.8-2.1-4.8-4.8c0,0,0,0,0,0
						C51.5,405,53.6,402.9,56.3,402.9z"/>
					<path id="num_9_a" class="st12" d="M56.3,419.1c2.6,0,4.8,2.1,4.8,4.8s-2.1,4.8-4.8,4.8s-4.8-2.1-4.8-4.8c0,0,0,0,0,0
						C51.5,421.3,53.6,419.1,56.3,419.1z"/>
					<path id="num_10_a" class="st12" d="M56.3,435.4c2.6,0,4.8,2.1,4.8,4.8c0,2.6-2.1,4.8-4.8,4.8c-2.6,0-4.8-2.1-4.8-4.8
						c0,0,0,0,0,0C51.5,437.5,53.6,435.4,56.3,435.4z"/>
					<path id="num_11_a" class="st12" d="M56.3,451.7c2.6,0,4.8,2.1,4.8,4.8s-2.1,4.8-4.8,4.8c-2.6,0-4.8-2.1-4.8-4.8l0,0
						C51.5,453.8,53.6,451.7,56.3,451.7z"/>
					<path id="num_12_a" class="st12" d="M56.3,467.9c2.6,0,4.8,2.1,4.8,4.8s-2.1,4.8-4.8,4.8s-4.8-2.1-4.8-4.8c0,0,0,0,0,0
						C51.5,470.1,53.6,467.9,56.3,467.9z"/>
					<path id="num_13_a" class="st12" d="M56.3,484.2c2.6,0,4.8,2.1,4.8,4.8s-2.1,4.8-4.8,4.8c-2.6,0-4.8-2.1-4.8-4.8
						C51.5,486.4,53.6,484.2,56.3,484.2C56.2,484.2,56.2,484.2,56.3,484.2z"/>
					<path id="num_14_a" class="st12" d="M56.3,500.5c2.6,0,4.8,2.1,4.8,4.8c0,2.6-2.1,4.8-4.8,4.8c-2.6,0-4.8-2.1-4.8-4.8
						c0,0,0,0,0,0C51.5,502.6,53.6,500.5,56.3,500.5z"/>
					<path id="num_15_a" class="st12" d="M56.3,516.7c2.6,0,4.8,2.1,4.8,4.8c0,2.6-2.1,4.8-4.8,4.8c-2.6,0-4.8-2.1-4.8-4.8
						S53.6,516.7,56.3,516.7C56.3,516.7,56.3,516.7,56.3,516.7z"/>
					<path id="num_16_a" class="st12" d="M56.3,533c2.6,0,4.8,2.1,4.8,4.8c0,2.6-2.1,4.8-4.8,4.8c-2.6,0-4.8-2.1-4.8-4.8
						S53.6,533,56.3,533C56.3,533,56.3,533,56.3,533z"/>
					<path id="num_17_a" class="st12" d="M56.3,549.2c2.6,0,4.8,2.1,4.8,4.8c0,2.6-2.1,4.8-4.8,4.8c-2.6,0-4.8-2.1-4.8-4.8
						c0,0,0,0,0,0C51.5,551.4,53.6,549.2,56.3,549.2z"/>
					<path id="num_18_a" class="st12" d="M56.3,565.5c2.6,0,4.8,2.1,4.8,4.8s-2.1,4.8-4.8,4.8c-2.6,0-4.8-2.1-4.8-4.8c0,0,0,0,0,0
						C51.5,567.6,53.6,565.5,56.3,565.5z"/>
					<path id="num_19_a" class="st12" d="M56.3,581.8c2.6,0,4.8,2.1,4.8,4.8c0,2.6-2.1,4.8-4.8,4.8c-2.6,0-4.8-2.1-4.8-4.8
						S53.6,581.8,56.3,581.8C56.3,581.8,56.3,581.8,56.3,581.8z"/>
					<path id="num_20_a" class="st12" d="M56.3,598c2.6,0,4.8,2.1,4.8,4.8c0,2.6-2.1,4.8-4.8,4.8c-2.6,0-4.8-2.1-4.8-4.8
						S53.6,598,56.3,598C56.3,598,56.3,598,56.3,598z"/>
					<path id="num_21_a" class="st12" d="M56.3,614.3c2.6,0,4.8,2.1,4.8,4.8c0,2.6-2.1,4.8-4.8,4.8c-2.6,0-4.8-2.1-4.8-4.8
						c0,0,0,0,0,0C51.5,616.4,53.6,614.3,56.3,614.3C56.3,614.3,56.3,614.3,56.3,614.3z"/>
					<path id="num_22_a" class="st12" d="M56.3,630.5c2.6,0,4.8,2.1,4.8,4.8s-2.1,4.8-4.8,4.8c-2.6,0-4.8-2.1-4.8-4.8c0,0,0,0,0,0
						C51.5,632.7,53.6,630.6,56.3,630.5z"/>
					<path id="num_23_a" class="st12" d="M56.3,646.8c2.6,0,4.8,2.1,4.8,4.8c0,2.6-2.1,4.8-4.8,4.8c-2.6,0-4.8-2.1-4.8-4.8
						S53.6,646.8,56.3,646.8C56.3,646.8,56.3,646.8,56.3,646.8z"/>
					<path id="num_24_a" class="st12" d="M56.3,663.1c2.6,0,4.8,2.1,4.8,4.8c0,2.6-2.1,4.8-4.8,4.8c-2.6,0-4.8-2.1-4.8-4.8
						S53.6,663.1,56.3,663.1C56.3,663.1,56.3,663.1,56.3,663.1z"/>
					<path id="num_25_a" class="st12" d="M56.3,679.3c2.6,0,4.8,2.1,4.8,4.8c0,2.6-2.1,4.8-4.8,4.8c-2.6,0-4.8-2.1-4.8-4.8
						c0,0,0,0,0,0C51.5,681.5,53.6,679.3,56.3,679.3C56.3,679.3,56.3,679.3,56.3,679.3z"/>
					<path id="num_26_a" class="st12" d="M56.3,695.6c2.6,0,4.8,2.1,4.8,4.8s-2.1,4.8-4.8,4.8c-2.6,0-4.8-2.1-4.8-4.8c0,0,0,0,0,0
						C51.5,697.7,53.6,695.6,56.3,695.6z"/>
					<path id="num_27_a" class="st12" d="M56.3,711.9c2.6,0,4.8,2.1,4.8,4.8c0,2.6-2.1,4.8-4.8,4.8c-2.6,0-4.8-2.1-4.8-4.8
						S53.6,711.9,56.3,711.9C56.3,711.9,56.3,711.9,56.3,711.9z"/>
					<path id="num_28_a" class="st12" d="M56.3,728.1c2.6,0,4.8,2.1,4.8,4.8c0,2.6-2.1,4.8-4.8,4.8c-2.6,0-4.8-2.1-4.8-4.8
						S53.6,728.1,56.3,728.1C56.3,728.1,56.3,728.1,56.3,728.1z"/>
					<path id="num_29_a" class="st12" d="M56.3,744.4c2.6,0,4.8,2.1,4.8,4.8c0,2.6-2.1,4.8-4.8,4.8c-2.6,0-4.8-2.1-4.8-4.8
						c0,0,0,0,0,0C51.5,746.5,53.6,744.4,56.3,744.4C56.3,744.4,56.3,744.4,56.3,744.4z"/>
					<path id="num_30_a" class="st12" d="M56.3,760.7c2.6,0,4.8,2.1,4.8,4.8c0,2.6-2.1,4.8-4.8,4.8c-2.6,0-4.8-2.1-4.8-4.8
						c0,0,0,0,0,0C51.5,762.8,53.6,760.7,56.3,760.7C56.3,760.7,56.3,760.7,56.3,760.7z"/>
					<path id="num_31_a" class="st12" d="M163.5,289c2.6,0,4.8,2.1,4.8,4.8c0,2.6-2.1,4.8-4.8,4.8c-2.6,0-4.8-2.1-4.8-4.8
						c0,0,0,0,0,0C158.7,291.2,160.9,289,163.5,289z"/>
					
					
					
					
					
					
					
					
					
					
					
					
					
					
					
					
					
					
					
				</g>
				<g id="main_draw_col_1_2_row_2">
					<path id="num_1_b" class="st12" d="M72.5,289c2.6,0,4.8,2.1,4.8,4.8c0,2.6-2.1,4.8-4.8,4.8s-4.8-2.1-4.8-4.8c0,0,0,0,0,0
						C67.7,291.2,69.9,289,72.5,289z"/>
					<path id="num_2_b" class="st12" d="M72.5,305.3c2.6,0,4.8,2.1,4.8,4.8s-2.1,4.8-4.8,4.8c-2.6,0-4.8-2.1-4.8-4.8l0,0
						C67.7,307.5,69.9,305.3,72.5,305.3z"/>
					<path id="num_3_b" class="st12" d="M72.5,321.6c2.6,0,4.8,2.1,4.8,4.8s-2.1,4.8-4.8,4.8c-2.6,0-4.8-2.1-4.8-4.8l0,0
						C67.7,323.7,69.9,321.6,72.5,321.6z"/>
					<path id="num_4_b" class="st12" d="M72.5,337.8c2.6,0,4.8,2.1,4.8,4.8s-2.1,4.8-4.8,4.8s-4.8-2.1-4.8-4.8c0,0,0,0,0,0
						C67.7,340,69.9,337.8,72.5,337.8z"/>
					<path id="num_5_b" class="st12" d="M72.5,354.1c2.6,0,4.8,2.1,4.8,4.8c0,2.6-2.1,4.8-4.8,4.8s-4.8-2.1-4.8-4.8c0,0,0,0,0,0
						C67.7,356.2,69.9,354.1,72.5,354.1z"/>
					<path id="num_6_b" class="st12" d="M72.5,370.4c2.6,0,4.8,2.1,4.8,4.8c0,2.6-2.1,4.8-4.8,4.8s-4.8-2.1-4.8-4.8c0,0,0,0,0,0
						C67.7,372.5,69.9,370.4,72.5,370.4z"/>
					<path id="num_7_b" class="st12" d="M72.5,386.6c2.6,0,4.8,2.1,4.8,4.8s-2.1,4.8-4.8,4.8c-2.6,0-4.8-2.1-4.8-4.8l0,0
						C67.7,388.8,69.9,386.6,72.5,386.6z"/>
					<path id="num_8_b" class="st12" d="M72.5,402.9c2.6,0,4.8,2.1,4.8,4.8s-2.1,4.8-4.8,4.8s-4.8-2.1-4.8-4.8c0,0,0,0,0,0
						C67.7,405,69.9,402.9,72.5,402.9z"/>
					<path id="num_9_b" class="st12" d="M72.5,419.1c2.6,0,4.8,2.1,4.8,4.8s-2.1,4.8-4.8,4.8s-4.8-2.1-4.8-4.8c0,0,0,0,0,0
						C67.7,421.3,69.9,419.1,72.5,419.1z"/>
					<path id="num_10_b" class="st12" d="M72.5,435.4c2.6,0,4.8,2.1,4.8,4.8c0,2.6-2.1,4.8-4.8,4.8s-4.8-2.1-4.8-4.8c0,0,0,0,0,0
						C67.7,437.6,69.9,435.4,72.5,435.4z"/>
					<path id="num_11_b" class="st12" d="M72.5,451.7c2.6,0,4.8,2.1,4.8,4.8s-2.1,4.8-4.8,4.8c-2.6,0-4.8-2.1-4.8-4.8l0,0
						C67.7,453.8,69.9,451.7,72.5,451.7z"/>
					<path id="num_12_b" class="st12" d="M72.5,467.9c2.6,0,4.8,2.1,4.8,4.8s-2.1,4.8-4.8,4.8s-4.8-2.1-4.8-4.8c0,0,0,0,0,0
						C67.7,470.1,69.9,467.9,72.5,467.9z"/>
					<path id="num_13_b" class="st12" d="M72.5,484.2c2.6,0,4.8,2.1,4.8,4.8s-2.1,4.8-4.8,4.8c-2.6,0-4.8-2.1-4.8-4.8
						C67.7,486.4,69.9,484.2,72.5,484.2C72.5,484.2,72.5,484.2,72.5,484.2z"/>
					<path id="num_14_b" class="st12" d="M72.5,500.5c2.6,0,4.8,2.1,4.8,4.8c0,2.6-2.1,4.8-4.8,4.8s-4.8-2.1-4.8-4.8c0,0,0,0,0,0
						C67.7,502.6,69.9,500.5,72.5,500.5z"/>
					<path id="num_15_b" class="st12" d="M72.5,516.7c2.6,0,4.8,2.1,4.8,4.8c0,2.6-2.1,4.8-4.8,4.8c-2.6,0-4.8-2.1-4.8-4.8
						C67.7,518.9,69.9,516.7,72.5,516.7z"/>
					<path id="num_16_b" class="st12" d="M72.5,533c2.6,0,4.8,2.1,4.8,4.8c0,2.6-2.1,4.8-4.8,4.8c-2.6,0-4.8-2.1-4.8-4.8
						C67.7,535.1,69.9,533,72.5,533z"/>
					<path id="num_17_b" class="st12" d="M72.5,549.2c2.6,0,4.8,2.1,4.8,4.8s-2.1,4.8-4.8,4.8c-2.6,0-4.8-2.1-4.8-4.8c0,0,0,0,0,0
						C67.8,551.4,69.9,549.2,72.5,549.2z"/>
					<path id="num_18_b" class="st12" d="M72.5,565.5c2.6,0,4.8,2.1,4.8,4.8s-2.1,4.8-4.8,4.8c-2.6,0-4.8-2.1-4.8-4.8c0,0,0,0,0,0
						C67.7,567.7,69.9,565.5,72.5,565.5z"/>
					<path id="num_19_b" class="st12" d="M72.5,581.8c2.6,0,4.8,2.1,4.8,4.8c0,2.6-2.1,4.8-4.8,4.8c-2.6,0-4.8-2.1-4.8-4.8
						C67.7,583.9,69.9,581.8,72.5,581.8z"/>
					<path id="num_20_b" class="st12" d="M72.5,598c2.6,0,4.8,2.1,4.8,4.8c0,2.6-2.1,4.8-4.8,4.8c-2.6,0-4.8-2.1-4.8-4.8
						C67.7,600.1,69.9,598,72.5,598z"/>
					<path id="num_21_b" class="st12" d="M72.5,614.3c2.6,0,4.8,2.1,4.8,4.8c0,2.6-2.1,4.8-4.8,4.8c-2.6,0-4.8-2.1-4.8-4.8
						c0,0,0,0,0,0C67.7,616.4,69.9,614.3,72.5,614.3z"/>
					<path id="num_22_b" class="st12" d="M72.5,630.5c2.6,0,4.8,2.1,4.8,4.8s-2.1,4.8-4.8,4.8c-2.6,0-4.8-2.1-4.8-4.8c0,0,0,0,0,0
						C67.7,632.7,69.9,630.6,72.5,630.5z"/>
					<path id="num_23_b" class="st12" d="M72.5,646.8c2.6,0,4.8,2.1,4.8,4.8c0,2.6-2.1,4.8-4.8,4.8c-2.6,0-4.8-2.1-4.8-4.8
						C67.7,649,69.9,646.8,72.5,646.8z"/>
					<path id="num_24_b" class="st12" d="M72.5,663.1c2.6,0,4.8,2.1,4.8,4.8c0,2.6-2.1,4.8-4.8,4.8c-2.6,0-4.8-2.1-4.8-4.8
						C67.7,665.2,69.9,663.1,72.5,663.1z"/>
					<path id="num_25_b" class="st12" d="M72.5,679.3c2.6,0,4.8,2.1,4.8,4.8c0,2.6-2.1,4.8-4.8,4.8c-2.6,0-4.8-2.1-4.8-4.8
						c0,0,0,0,0,0C67.7,681.5,69.9,679.3,72.5,679.3z"/>
					<path id="num_26_b" class="st12" d="M72.5,695.6c2.6,0,4.8,2.1,4.8,4.8s-2.1,4.8-4.8,4.8c-2.6,0-4.8-2.1-4.8-4.8c0,0,0,0,0,0
						C67.7,697.8,69.9,695.6,72.5,695.6z"/>
					<path id="num_27_b" class="st12" d="M72.5,711.9c2.6,0,4.8,2.1,4.8,4.8c0,2.6-2.1,4.8-4.8,4.8c-2.6,0-4.8-2.1-4.8-4.8
						C67.7,714,69.9,711.9,72.5,711.9z"/>
					<path id="num_28_b" class="st12" d="M72.5,728.1c2.6,0,4.8,2.1,4.8,4.8c0,2.6-2.1,4.8-4.8,4.8c-2.6,0-4.8-2.1-4.8-4.8
						C67.7,730.3,69.9,728.1,72.5,728.1z"/>
					<path id="num_29_b" class="st12" d="M72.5,744.4c2.6,0,4.8,2.1,4.8,4.8c0,2.6-2.1,4.8-4.8,4.8c-2.6,0-4.8-2.1-4.8-4.8
						c0,0,0,0,0,0C67.7,746.5,69.9,744.4,72.5,744.4z"/>
					<path id="num_30_b" class="st12" d="M72.5,760.7c2.6,0,4.8,2.1,4.8,4.8c0,2.6-2.1,4.8-4.8,4.8c-2.6,0-4.8-2.1-4.8-4.8
						c0,0,0,0,0,0C67.7,762.8,69.9,760.7,72.5,760.7z"/>
					<path id="num_31_b" class="st12" d="M179.8,289c2.6,0,4.8,2.1,4.8,4.8c0,2.6-2.1,4.8-4.8,4.8c-2.6,0-4.8-2.1-4.8-4.8
						S177.1,289,179.8,289L179.8,289z"/>
					
					
					
					
					
					
					
					
					
					
					
					
					
					
					
					
					
					
					
				</g>
				<g id="main_draw_col_1_2_row_3">
					<path id="num_1_c" class="st12" d="M88.8,289c2.6,0,4.8,2.1,4.8,4.8s-2.1,4.8-4.8,4.8c-2.6,0-4.8-2.1-4.8-4.8
						C84,291.2,86.1,289,88.8,289C88.8,289,88.8,289,88.8,289z"/>
					<path id="num_2_c" class="st12" d="M88.8,305.3c2.6,0,4.8,2.2,4.8,4.8c0,2.6-2.2,4.8-4.8,4.8c-2.6,0-4.8-2.1-4.8-4.8
						C84,307.5,86.1,305.3,88.8,305.3C88.8,305.3,88.8,305.3,88.8,305.3z"/>
					<path id="num_3_c" class="st12" d="M88.8,321.6c2.6,0,4.8,2.2,4.8,4.8c0,2.6-2.2,4.8-4.8,4.8c-2.6,0-4.8-2.1-4.8-4.8
						C84,323.7,86.1,321.6,88.8,321.6C88.8,321.6,88.8,321.6,88.8,321.6z"/>
					<path id="num_4_c" class="st12" d="M88.8,337.8c2.6,0,4.8,2.1,4.8,4.8c0,2.6-2.1,4.8-4.8,4.8c-2.6,0-4.8-2.1-4.8-4.8
						c0,0,0,0,0,0C84,340,86.1,337.8,88.8,337.8C88.8,337.8,88.8,337.8,88.8,337.8z"/>
					<path id="num_5_c" class="st12" d="M88.8,354.1c2.6,0,4.8,2.1,4.8,4.8s-2.1,4.8-4.8,4.8s-4.8-2.1-4.8-4.8
						C84,356.2,86.1,354.1,88.8,354.1C88.8,354.1,88.8,354.1,88.8,354.1z"/>
					<path id="num_6_c" class="st12" d="M88.8,370.4c2.6,0,4.8,2.1,4.8,4.8s-2.1,4.8-4.8,4.8s-4.8-2.1-4.8-4.8
						S86.1,370.4,88.8,370.4L88.8,370.4z"/>
					<path id="num_7_c" class="st12" d="M88.8,386.6c2.6,0,4.8,2.2,4.8,4.8c0,2.6-2.2,4.8-4.8,4.8c-2.6,0-4.8-2.1-4.8-4.8
						C84,388.8,86.1,386.6,88.8,386.6C88.8,386.6,88.8,386.6,88.8,386.6z"/>
					<path id="num_8_c" class="st12" d="M88.8,402.9c2.6,0,4.8,2.1,4.8,4.8c0,2.6-2.1,4.8-4.8,4.8c-2.6,0-4.8-2.1-4.8-4.8
						c0,0,0,0,0,0C84,405,86.1,402.9,88.8,402.9C88.8,402.9,88.8,402.9,88.8,402.9z"/>
					<path id="num_9_c" class="st12" d="M88.8,419.1c2.6,0,4.8,2.1,4.8,4.8c0,2.6-2.1,4.8-4.8,4.8c-2.6,0-4.8-2.1-4.8-4.8
						c0,0,0,0,0,0C84,421.3,86.1,419.1,88.8,419.1C88.8,419.1,88.8,419.1,88.8,419.1z"/>
					<path id="num_10_c" class="st12" d="M88.8,435.4c2.6,0,4.8,2.1,4.8,4.8s-2.1,4.8-4.8,4.8s-4.8-2.1-4.8-4.8
						S86.1,435.4,88.8,435.4L88.8,435.4z"/>
					<path id="num_11_c" class="st12" d="M88.8,451.7c2.6,0,4.8,2.2,4.8,4.8c0,2.6-2.2,4.8-4.8,4.8c-2.6,0-4.8-2.1-4.8-4.8
						C84,453.8,86.1,451.7,88.8,451.7C88.8,451.7,88.8,451.7,88.8,451.7z"/>
					<path id="num_12_c" class="st12" d="M88.8,467.9c2.6,0,4.8,2.1,4.8,4.8c0,2.6-2.1,4.8-4.8,4.8c-2.6,0-4.8-2.1-4.8-4.8
						c0,0,0,0,0,0C84,470.1,86.1,467.9,88.8,467.9C88.8,467.9,88.8,467.9,88.8,467.9z"/>
					<path id="num_13_c" class="st12" d="M88.8,484.2c2.6,0,4.8,2.1,4.8,4.8s-2.1,4.8-4.8,4.8c-2.6,0-4.8-2.1-4.8-4.8
						C84,486.4,86.1,484.2,88.8,484.2C88.8,484.2,88.8,484.2,88.8,484.2z"/>
					<path id="num_14_c" class="st12" d="M88.8,500.5c2.6,0,4.8,2.1,4.8,4.8s-2.1,4.8-4.8,4.8c-2.6,0-4.8-2.1-4.8-4.8c0,0,0,0,0,0
						C84,502.6,86.1,500.5,88.8,500.5z"/>
					<path id="num_15_c" class="st12" d="M88.8,516.7c2.6,0,4.8,2.2,4.8,4.8c0,2.6-2.2,4.8-4.8,4.8c-2.6,0-4.8-2.1-4.8-4.8
						C84,518.9,86.1,516.7,88.8,516.7C88.8,516.7,88.8,516.7,88.8,516.7z"/>
					<path id="num_16_c" class="st12" d="M88.8,533c2.6,0,4.8,2.2,4.8,4.8c0,2.6-2.2,4.8-4.8,4.8s-4.8-2.2-4.8-4.8c0,0,0,0,0,0
						C84,535.1,86.2,533,88.8,533z"/>
					<path id="num_17_c" class="st12" d="M88.8,549.2c2.6,0,4.8,2.1,4.8,4.8c0,2.6-2.1,4.8-4.8,4.8c-2.6,0-4.8-2.1-4.8-4.8
						c0,0,0,0,0,0C84,551.4,86.2,549.2,88.8,549.2z"/>
					<path id="num_18_c" class="st12" d="M88.8,565.5c2.6,0,4.8,2.1,4.8,4.8s-2.1,4.8-4.8,4.8c-2.6,0-4.8-2.1-4.8-4.8l0,0
						C84,567.6,86.1,565.5,88.8,565.5z"/>
					<path id="num_19_c" class="st12" d="M88.8,581.8c2.6,0,4.8,2.2,4.8,4.8c0,2.6-2.2,4.8-4.8,4.8c-2.6,0-4.8-2.1-4.8-4.8
						C84,583.9,86.1,581.8,88.8,581.8C88.8,581.8,88.8,581.8,88.8,581.8z"/>
					<path id="num_20_c" class="st12" d="M88.8,598c2.6,0,4.8,2.2,4.8,4.8c0,2.6-2.2,4.8-4.8,4.8c-2.6,0-4.8-2.1-4.8-4.8
						C84,600.2,86.1,598,88.8,598C88.8,598,88.8,598,88.8,598z"/>
					<path id="num_21_c" class="st12" d="M88.8,614.3c2.6,0,4.8,2.1,4.8,4.8c0,2.6-2.1,4.8-4.8,4.8s-4.8-2.1-4.8-4.8c0,0,0,0,0,0
						C84,616.4,86.1,614.3,88.8,614.3C88.8,614.3,88.8,614.3,88.8,614.3z"/>
					<path id="num_22_c" class="st12" d="M88.8,630.5c2.6,0,4.8,2.1,4.8,4.8s-2.1,4.8-4.8,4.8c-2.6,0-4.8-2.1-4.8-4.8
						S86.1,630.5,88.8,630.5C88.8,630.5,88.8,630.5,88.8,630.5z"/>
					<path id="num_23_c" class="st12" d="M88.8,646.8c2.6,0,4.8,2.2,4.8,4.8c0,2.6-2.2,4.8-4.8,4.8c-2.6,0-4.8-2.1-4.8-4.8
						C84,649,86.1,646.8,88.8,646.8C88.8,646.8,88.8,646.8,88.8,646.8z"/>
					<path id="num_24_c" class="st12" d="M88.8,663.1c2.6,0,4.8,2.2,4.8,4.8c0,2.6-2.2,4.8-4.8,4.8c-2.6,0-4.8-2.1-4.8-4.8
						C84,665.2,86.1,663.1,88.8,663.1C88.8,663.1,88.8,663.1,88.8,663.1z"/>
					<path id="num_25_c" class="st12" d="M88.8,679.3c2.6,0,4.8,2.1,4.8,4.8c0,2.6-2.1,4.8-4.8,4.8s-4.8-2.1-4.8-4.8c0,0,0,0,0,0
						C84,681.5,86.1,679.3,88.8,679.3C88.8,679.3,88.8,679.3,88.8,679.3z"/>
					<path id="num_26_c" class="st12" d="M88.8,695.6c2.6,0,4.8,2.1,4.8,4.8s-2.1,4.8-4.8,4.8c-2.6,0-4.8-2.1-4.8-4.8
						S86.1,695.6,88.8,695.6C88.8,695.6,88.8,695.6,88.8,695.6z"/>
					<path id="num_27_c" class="st12" d="M88.8,711.9c2.6,0,4.8,2.2,4.8,4.8c0,2.6-2.2,4.8-4.8,4.8c-2.6,0-4.8-2.1-4.8-4.8
						C84,714,86.1,711.9,88.8,711.9C88.8,711.9,88.8,711.9,88.8,711.9z"/>
					<path id="num_28_c" class="st12" d="M88.8,728.1c2.6,0,4.8,2.2,4.8,4.8c0,2.6-2.2,4.8-4.8,4.8c-2.6,0-4.8-2.1-4.8-4.8
						C84,730.3,86.1,728.1,88.8,728.1C88.8,728.1,88.8,728.1,88.8,728.1z"/>
					<path id="num_29_c" class="st12" d="M88.8,744.4c2.6,0,4.8,2.1,4.8,4.8c0,2.6-2.1,4.8-4.8,4.8s-4.8-2.1-4.8-4.8c0,0,0,0,0,0
						C84,746.5,86.1,744.4,88.8,744.4C88.8,744.4,88.8,744.4,88.8,744.4z"/>
					<path id="num_30_c" class="st12" d="M88.8,760.7c2.6,0,4.8,2.1,4.8,4.8c0,2.6-2.1,4.8-4.8,4.8s-4.8-2.1-4.8-4.8c0,0,0,0,0,0
						C84,762.8,86.1,760.7,88.8,760.7C88.8,760.7,88.8,760.7,88.8,760.7z"/>
					<path id="num_31_c" class="st12" d="M196.1,289c2.6,0,4.8,2.1,4.8,4.8c0,2.6-2.1,4.8-4.8,4.8c-2.6,0-4.8-2.1-4.8-4.8
						c0,0,0,0,0,0C191.3,291.1,193.4,289,196.1,289z"/>
					
					
					
					
					
					
					
					
					
					
					
					
					
					
					
					
					
					
					
				</g>
				<g id="main_draw_col_1_2_row_4">
					<path id="num_1_d" class="st12" d="M105.1,289c2.6,0,4.8,2.1,4.8,4.8s-2.1,4.8-4.8,4.8s-4.8-2.1-4.8-4.8S102.4,289,105.1,289
						L105.1,289z"/>
					<path id="num_2_d" class="st12" d="M105.1,305.3c2.6,0,4.8,2.2,4.8,4.8c0,2.6-2.2,4.8-4.8,4.8c-2.6,0-4.8-2.1-4.8-4.8
						C100.3,307.5,102.4,305.3,105.1,305.3C105,305.3,105,305.3,105.1,305.3z"/>
					<path id="num_3_d" class="st12" d="M105.1,321.6c2.6,0,4.8,2.2,4.8,4.8c0,2.6-2.2,4.8-4.8,4.8c-2.6,0-4.8-2.1-4.8-4.8
						C100.3,323.7,102.4,321.6,105.1,321.6C105,321.6,105,321.6,105.1,321.6z"/>
					<path id="num_4_d" class="st12" d="M105.1,337.8c2.6,0,4.8,2.1,4.8,4.8c0,2.6-2.1,4.8-4.8,4.8c-2.6,0-4.8-2.1-4.8-4.8
						c0,0,0,0,0,0C100.3,340,102.4,337.8,105.1,337.8C105,337.8,105,337.8,105.1,337.8z"/>
					<path id="num_5_d" class="st12" d="M105.1,354.1c2.6,0,4.8,2.1,4.8,4.8s-2.1,4.8-4.8,4.8s-4.8-2.1-4.8-4.8
						C100.3,356.2,102.4,354.1,105.1,354.1C105,354.1,105,354.1,105.1,354.1z"/>
					<path id="num_6_d" class="st12" d="M105.1,370.4c2.6,0,4.8,2.1,4.8,4.8s-2.1,4.8-4.8,4.8s-4.8-2.1-4.8-4.8
						S102.4,370.4,105.1,370.4L105.1,370.4z"/>
					<path id="num_7_d" class="st12" d="M105.1,386.6c2.6,0,4.8,2.2,4.8,4.8c0,2.6-2.2,4.8-4.8,4.8c-2.6,0-4.8-2.1-4.8-4.8
						C100.3,388.8,102.4,386.6,105.1,386.6C105,386.6,105,386.6,105.1,386.6z"/>
					<path id="num_8_d" class="st12" d="M105.1,402.9c2.6,0,4.8,2.1,4.8,4.8c0,2.6-2.1,4.8-4.8,4.8c-2.6,0-4.8-2.1-4.8-4.8
						c0,0,0,0,0,0C100.3,405,102.4,402.9,105.1,402.9C105,402.9,105,402.9,105.1,402.9z"/>
					<path id="num_9_d" class="st12" d="M105.1,419.1c2.6,0,4.8,2.1,4.8,4.8c0,2.6-2.1,4.8-4.8,4.8c-2.6,0-4.8-2.1-4.8-4.8
						c0,0,0,0,0,0C100.3,421.3,102.4,419.1,105.1,419.1C105,419.1,105,419.1,105.1,419.1z"/>
					<path id="num_10_d" class="st12" d="M105.1,435.4c2.6,0,4.8,2.1,4.8,4.8s-2.1,4.8-4.8,4.8s-4.8-2.1-4.8-4.8
						S102.4,435.4,105.1,435.4L105.1,435.4z"/>
					<path id="num_11_d" class="st12" d="M105.1,451.7c2.6,0,4.8,2.2,4.8,4.8c0,2.6-2.2,4.8-4.8,4.8c-2.6,0-4.8-2.1-4.8-4.8
						C100.3,453.8,102.4,451.7,105.1,451.7C105,451.7,105,451.7,105.1,451.7z"/>
					<path id="num_12_d" class="st12" d="M105.1,467.9c2.6,0,4.8,2.1,4.8,4.8c0,2.6-2.1,4.8-4.8,4.8c-2.6,0-4.8-2.1-4.8-4.8
						c0,0,0,0,0,0C100.3,470.1,102.4,467.9,105.1,467.9C105,467.9,105,467.9,105.1,467.9z"/>
					<path id="num_13_d" class="st12" d="M105.1,484.2c2.6,0,4.8,2.1,4.8,4.8c0,2.6-2.1,4.8-4.8,4.8c-2.6,0-4.8-2.1-4.8-4.8
						c0,0,0,0,0,0C100.3,486.3,102.4,484.2,105.1,484.2C105,484.2,105,484.2,105.1,484.2z"/>
					<path id="num_14_d" class="st12" d="M105.1,500.5c2.6,0,4.8,2.1,4.8,4.8s-2.1,4.8-4.8,4.8s-4.8-2.1-4.8-4.8
						S102.4,500.5,105.1,500.5L105.1,500.5z"/>
					<path id="num_15_d" class="st12" d="M105.1,516.7c2.6,0,4.8,2.2,4.8,4.8c0,2.6-2.2,4.8-4.8,4.8c-2.6,0-4.8-2.1-4.8-4.8
						C100.3,518.9,102.4,516.7,105.1,516.7C105,516.7,105,516.7,105.1,516.7z"/>
					<path id="num_16_d" class="st12" d="M105.1,533c2.6,0,4.8,2.2,4.8,4.8c0,2.6-2.2,4.8-4.8,4.8c-2.6,0-4.8-2.1-4.8-4.8
						C100.3,535.1,102.4,533,105.1,533C105,533,105,533,105.1,533z"/>
					<path id="num_17_d" class="st12" d="M105.1,549.2c2.6,0,4.8,2.1,4.8,4.8c0,2.6-2.1,4.8-4.8,4.8s-4.8-2.1-4.8-4.8c0,0,0,0,0,0
						C100.3,551.4,102.4,549.2,105.1,549.2C105,549.2,105,549.2,105.1,549.2z"/>
					<path id="num_18_d" class="st12" d="M105.1,565.5c2.6,0,4.8,2.1,4.8,4.8s-2.1,4.8-4.8,4.8c-2.6,0-4.8-2.1-4.8-4.8l0,0
						C100.3,567.6,102.4,565.5,105.1,565.5z"/>
					<path id="num_19_d" class="st12" d="M105.1,581.8c2.6,0,4.8,2.2,4.8,4.8c0,2.6-2.2,4.8-4.8,4.8c-2.6,0-4.8-2.1-4.8-4.8
						C100.3,583.9,102.4,581.8,105.1,581.8C105,581.8,105,581.8,105.1,581.8z"/>
					<path id="num_20_d" class="st12" d="M105.1,598c2.6,0,4.8,2.2,4.8,4.8c0,2.6-2.2,4.8-4.8,4.8c-2.6,0-4.8-2.1-4.8-4.8
						C100.3,600.1,102.4,598,105.1,598C105,598,105,598,105.1,598z"/>
					<path id="num_21_d" class="st12" d="M105.1,614.3c2.6,0,4.8,2.1,4.8,4.8c0,2.6-2.1,4.8-4.8,4.8s-4.8-2.1-4.8-4.8c0,0,0,0,0,0
						C100.3,616.4,102.4,614.3,105.1,614.3C105,614.3,105,614.3,105.1,614.3z"/>
					<path id="num_22_d" class="st12" d="M105.1,630.5c2.6,0,4.8,2.1,4.8,4.8s-2.1,4.8-4.8,4.8c-2.6,0-4.8-2.1-4.8-4.8l0,0
						C100.3,632.7,102.4,630.5,105.1,630.5z"/>
					<path id="num_23_d" class="st12" d="M105.1,646.8c2.6,0,4.8,2.2,4.8,4.8c0,2.6-2.2,4.8-4.8,4.8c-2.6,0-4.8-2.1-4.8-4.8
						C100.3,649,102.4,646.8,105.1,646.8C105,646.8,105,646.8,105.1,646.8z"/>
					<path id="num_24_d" class="st12" d="M105.1,663.1c2.6,0,4.8,2.2,4.8,4.8c0,2.6-2.2,4.8-4.8,4.8c-2.6,0-4.8-2.1-4.8-4.8
						C100.3,665.2,102.4,663.1,105.1,663.1C105,663.1,105,663.1,105.1,663.1z"/>
					<path id="num_25_d" class="st12" d="M105.1,679.3c2.6,0,4.8,2.1,4.8,4.8c0,2.6-2.1,4.8-4.8,4.8s-4.8-2.1-4.8-4.8c0,0,0,0,0,0
						C100.3,681.5,102.4,679.3,105.1,679.3C105,679.3,105,679.3,105.1,679.3z"/>
					<path id="num_26_d" class="st12" d="M105.1,695.6c2.6,0,4.8,2.1,4.8,4.8s-2.1,4.8-4.8,4.8c-2.6,0-4.8-2.1-4.8-4.8l0,0
						C100.3,697.7,102.4,695.6,105.1,695.6z"/>
					<path id="num_27_d" class="st12" d="M105.1,711.9c2.6,0,4.8,2.2,4.8,4.8c0,2.6-2.2,4.8-4.8,4.8c-2.6,0-4.8-2.1-4.8-4.8
						C100.3,714,102.4,711.9,105.1,711.9C105,711.9,105,711.9,105.1,711.9z"/>
					<path id="num_28_d" class="st12" d="M105.1,728.1c2.6,0,4.8,2.2,4.8,4.8c0,2.6-2.2,4.8-4.8,4.8c-2.6,0-4.8-2.1-4.8-4.8
						C100.3,730.3,102.4,728.1,105.1,728.1C105,728.1,105,728.1,105.1,728.1z"/>
					<path id="num_29_d" class="st12" d="M105.1,744.4c2.6,0,4.8,2.1,4.8,4.8c0,2.6-2.1,4.8-4.8,4.8s-4.8-2.1-4.8-4.8c0,0,0,0,0,0
						C100.3,746.5,102.4,744.4,105.1,744.4C105,744.4,105,744.4,105.1,744.4z"/>
					<path id="num_30_d" class="st12" d="M105.1,760.7c2.6,0,4.8,2.1,4.8,4.8c0,2.6-2.1,4.8-4.8,4.8s-4.8-2.1-4.8-4.8c0,0,0,0,0,0
						C100.3,762.8,102.4,760.7,105.1,760.7C105,760.7,105,760.7,105.1,760.7z"/>
					<path id="num_31_d" class="st12" d="M212.3,289c2.6,0,4.8,2.1,4.8,4.8c0,2.6-2.1,4.8-4.8,4.8c-2.6,0-4.8-2.1-4.8-4.8
						c0,0,0,0,0,0C207.5,291.1,209.7,289,212.3,289z"/>
					
					
					
					
					
					
					
					
					
					
					
					
					
					
					
					
					
					
					
				</g>
			</g>
		</g>
		<g id="num_row_1">
			<text id="num_1" transform="matrix(1 0 0 1 36.67 296.04)" class="st1 st2 st16">1</text>
			<text id="num_2" transform="matrix(1 0 0 1 36.67 312.33)" class="st1 st2 st16">2</text>
			<text id="num_3" transform="matrix(1 0 0 1 36.67 328.62)" class="st1 st2 st16">3</text>
			<text id="num_4" transform="matrix(1 0 0 1 36.67 344.91)" class="st1 st2 st16">4</text>
			<text id="num_5" transform="matrix(1 0 0 1 36.67 361.19)" class="st1 st2 st16">5</text>
			<text id="num_6" transform="matrix(1 0 0 1 36.67 377.48)" class="st1 st2 st16">6</text>
			<text id="num_7" transform="matrix(1 0 0 1 36.67 393.77)" class="st1 st2 st16">7</text>
			<text id="num_8" transform="matrix(1 0 0 1 36.67 410.06)" class="st1 st2 st16">8</text>
			<text id="num_9" transform="matrix(1 0 0 1 36.67 426.34)" class="st1 st2 st16">9</text>
			<text id="num_10" transform="matrix(1 0 0 1 34.71 442.63)" class="st1 st2 st16">10</text>
			<text id="num_11" transform="matrix(1 0 0 1 34.97 458.92)" class="st1 st2 st16">11</text>
			<text id="num_12" transform="matrix(1 0 0 1 34.71 475.21)" class="st1 st2 st16">12</text>
			<text id="num_13" transform="matrix(1 0 0 1 34.71 491.49)" class="st1 st2 st16">13</text>
			<text id="num_14" transform="matrix(1 0 0 1 34.71 507.78)" class="st1 st2 st16">14</text>
			<text id="num_15" transform="matrix(1 0 0 1 34.71 524.07)" class="st1 st2 st16">15</text>
			<text id="num_16" transform="matrix(1 0 0 1 34.71 540.36)" class="st1 st2 st16">16</text>
			<text id="num_17" transform="matrix(1 0 0 1 34.71 556.64)" class="st1 st2 st16">17</text>
			<text id="num_18" transform="matrix(1 0 0 1 34.71 572.93)" class="st1 st2 st16">18</text>
			<text id="num_19" transform="matrix(1 0 0 1 34.71 589.22)" class="st1 st2 st16">19</text>
			<text id="num_20" transform="matrix(1 0 0 1 34.71 605.51)" class="st1 st2 st16">20</text>
			<text id="num_21" transform="matrix(1 0 0 1 34.71 621.79)" class="st1 st2 st16">21</text>
			<text id="num_22" transform="matrix(1 0 0 1 34.71 638.08)" class="st1 st2 st16">22</text>
			<text id="num_23" transform="matrix(1 0 0 1 34.71 654.37)" class="st1 st2 st16">23</text>
			<text id="num_24" transform="matrix(1 0 0 1 34.71 670.66)" class="st1 st2 st16">24</text>
			<text id="num_25" transform="matrix(1 0 0 1 34.67 686.94)" class="st1 st2 st16">25</text>
			<text id="num_26" transform="matrix(1 0 0 1 34.67 703.23)" class="st1 st2 st16">26</text>
			<text id="num_27" transform="matrix(1 0 0 1 34.67 719.52)" class="st1 st2 st16">27</text>
			<text id="num_28" transform="matrix(1 0 0 1 34.67 735.81)" class="st1 st2 st16">28</text>
			<text id="num_29" transform="matrix(1 0 0 1 34.67 752.09)" class="st1 st2 st16">29</text>
			<text id="num_30" transform="matrix(1 0 0 1 34.67 768.38)" class="st1 st2 st16">30</text>
			<text id="num_31" transform="matrix(1 0 0 1 141.97 296.04)" class="st1 st2 st16">31</text>
			
			
			
			
			
			
			
			
			
			
			
			
			
			
		</g>
	</g>
	<rect x="106.9" y="111.5" class="st17" width="245.4" height="141"/>
	<text transform="matrix(1 0 0 1 105.12 81.17)" class="st1 st18 st19">K thi: ......................................................................</text>
	<text transform="matrix(1 0 0 1 104.97 101.76)" class="st1 st18 st19">Bi thi: ............................. Ngy thi: ....../......../20....</text>
	<text transform="matrix(1 0 0 1 113.06 130.45)" class="st1 st18 st20">1. Hi ng thi: ......................................................................</text>
	<text transform="matrix(1 0 0 1 112.47 152.75)" class="st1 st18 st20">2. im thi:: ...........................................................................</text>
	<text transform="matrix(1 0 0 1 113.06 175.02)" class="st1 st18 st20">3. Phng thi s: .....................................................................</text>
	<text transform="matrix(1 0 0 1 113.06 197.15)" class="st1 st18 st20">4. H v tn th sinh: .............................................................</text>
	<text transform="matrix(1 0 0 1 113.06 219.44)" class="st1 st18 st20">5. Ngy sinh:........./......./..................(Nam/N)......................</text>
	<text transform="matrix(1 0 0 1 112.47 241.72)" class="st1 st18 st20">6. Ch k ca th sinh: ..........................................................</text>
	<text transform="matrix(1 0 0 1 396.4 79.65)" class="st1 st18 st16">7. S bo danh</text>
	<text transform="matrix(1 0 0 1 507.89 79.65)" class="st1 st18 st16">8. M </text>
	<g id="col_2">
		<rect x="140.1" y="270.4" class="st11" width="14.4" height="14.4"/>
		<rect x="140.1" y="368" class="st11" width="14.4" height="14.4"/>
		<path class="st1" d="M164.7,277.7l-0.6-1.7l-0.6,1.7H164.7z M166.4,279.6h-1l-0.4-1h-1.8l-0.4,1h-1l1.8-4.6h1L166.4,279.6z"/>
		<path class="st15" d="M164,273.3c-2.4,0-4.3,1.9-4.3,4.3c0,2.4,1.9,4.3,4.3,4.3c2.4,0,4.3-1.9,4.3-4.3c0,0,0,0,0,0
			C168.3,275.2,166.4,273.3,164,273.3z"/>
		<path class="st1" d="M212.2,276v3h0.7c0.2,0,0.4,0,0.6,0c0.1,0,0.3-0.1,0.4-0.2c0.1-0.1,0.2-0.3,0.2-0.4c0.1-0.3,0.1-0.6,0.1-0.8
			c0-0.3,0-0.5-0.1-0.8c0-0.2-0.1-0.3-0.3-0.5c-0.1-0.1-0.3-0.2-0.4-0.2c-0.2,0-0.5-0.1-0.8,0L212.2,276z M211.3,275.2h1.7
			c0.3,0,0.6,0,0.9,0.1c0.3,0.1,0.5,0.2,0.7,0.4c0.2,0.2,0.3,0.5,0.4,0.7c0.1,0.4,0.2,0.7,0.1,1.1c0,0.3,0,0.7-0.1,1
			c-0.1,0.3-0.3,0.6-0.5,0.8c-0.2,0.2-0.4,0.3-0.6,0.4c-0.3,0.1-0.5,0.1-0.8,0.1h-1.7L211.3,275.2z"/>
		
			<ellipse transform="matrix(0.1602 -0.9871 0.9871 0.1602 -95.1463 443.0923)" class="st15" cx="212.8" cy="277.5" rx="4.3" ry="4.3"/>
		<path class="st1" d="M197.7,278.1l0.9,0.3c-0.1,0.4-0.3,0.8-0.7,1.1c-0.4,0.3-0.8,0.4-1.2,0.4c-0.6,0-1.1-0.2-1.5-0.6
			c-0.4-0.5-0.6-1.1-0.6-1.7c0-0.6,0.2-1.3,0.6-1.8c0.4-0.4,1-0.7,1.6-0.6c0.5,0,1,0.2,1.4,0.5c0.2,0.2,0.4,0.5,0.5,0.8l-0.9,0.2
			c0-0.2-0.2-0.4-0.3-0.6c-0.2-0.1-0.4-0.2-0.6-0.2c-0.3,0-0.6,0.1-0.8,0.4c-0.2,0.3-0.3,0.8-0.3,1.2c0,0.4,0.1,0.9,0.3,1.2
			c0.2,0.2,0.5,0.4,0.8,0.4c0.2,0,0.5-0.1,0.6-0.2C197.5,278.6,197.6,278.3,197.7,278.1"/>
		
			<ellipse transform="matrix(0.9985 -5.529872e-02 5.529872e-02 0.9985 -15.0488 11.2942)" class="st15" cx="196.6" cy="277.6" rx="4.3" ry="4.3"/>
		<path class="st1" d="M179.7,277.8v1.2h0.9c0.2,0,0.4,0,0.6,0c0.1,0,0.2-0.1,0.3-0.2c0.1-0.1,0.1-0.2,0.1-0.4c0-0.1,0-0.3-0.1-0.4
			c-0.1-0.1-0.2-0.2-0.3-0.2c-0.3-0.1-0.5-0.1-0.8-0.1L179.7,277.8z M179.7,275.9v1.1h0.6c0.4,0,0.6,0,0.7,0c0.1,0,0.3-0.1,0.4-0.2
			c0.1-0.1,0.1-0.2,0.1-0.4c0-0.1,0-0.2-0.1-0.3c-0.1-0.1-0.2-0.1-0.3-0.1c-0.1,0-0.4,0-0.8,0L179.7,275.9z M178.8,275.2h1.8
			c0.3,0,0.5,0,0.8,0c0.3,0.1,0.7,0.3,0.8,0.6c0.1,0.2,0.1,0.4,0.1,0.5c0,0.2-0.1,0.4-0.2,0.6c-0.1,0.2-0.3,0.3-0.5,0.4
			c0.3,0.1,0.5,0.2,0.6,0.4c0.2,0.2,0.2,0.4,0.2,0.7c0,0.2-0.1,0.4-0.1,0.6c-0.1,0.2-0.2,0.3-0.4,0.5c-0.2,0.1-0.4,0.2-0.6,0.2
			c-0.2,0-0.5,0-1.1,0h-1.6L178.8,275.2z"/>
		<path class="st15" d="M180.3,273.3c-2.4,0-4.3,1.9-4.3,4.3c0,2.4,1.9,4.3,4.3,4.3c2.4,0,4.3-1.9,4.3-4.3c0,0,0,0,0,0
			C184.6,275.2,182.7,273.3,180.3,273.3z"/>
		<g id="num_row_2">
			
		</g>
	</g>
	<g>
		<rect x="131.6" y="399.8" class="st21" width="429.9" height="373.3"/>
		<g>
			<polyline class="st22" points="131.6,402.8 131.6,399.8 134.6,399.8 			"/>
			<line class="st23" x1="140.6" y1="399.8" x2="161.5" y2="399.8"/>
			<line class="st24" x1="164.5" y1="399.8" x2="555.5" y2="399.8"/>
			<polyline class="st22" points="558.5,399.8 561.5,399.8 561.5,402.8 			"/>
			<line class="st25" x1="561.5" y1="409" x2="561.5" y2="430.8"/>
			<line class="st26" x1="561.5" y1="433.9" x2="561.5" y2="766.9"/>
			<polyline class="st22" points="561.5,770 561.5,773 558.5,773 			"/>
			<line class="st23" x1="552.5" y1="773" x2="531.6" y2="773"/>
			<line class="st24" x1="528.6" y1="773" x2="137.6" y2="773"/>
			<polyline class="st22" points="134.6,773 131.6,773 131.6,770 			"/>
			<line class="st25" x1="131.6" y1="763.8" x2="131.6" y2="742"/>
			<line class="st26" x1="131.6" y1="738.9" x2="131.6" y2="405.9"/>
		</g>
	</g>
	<text transform="matrix(1.03 0 0 1 137.3496 436.4199)" class="st27 st28 st29">...............................................................................................................................................................................................................................................................................................................</text>
	<text transform="matrix(1.03 0 0 1 137.3496 454.79)" class="st27 st28 st29">................................................................................................................................................................................................................................................................................................................</text>
	<text transform="matrix(1.03 0 0 1 137.3496 473.1504)" class="st27 st28 st29">................................................................................................................................................................................................................................................................................................................</text>
	<text transform="matrix(1.03 0 0 1 137.3496 491.5195)" class="st27 st28 st29">................................................................................................................................................................................................................................................................................................................</text>
	<text transform="matrix(1.03 0 0 1 137.3496 509.8896)" class="st27 st28 st29">................................................................................................................................................................................................................................................................................................................</text>
	<text transform="matrix(1.03 0 0 1 137.3496 528.25)" class="st27 st28 st29">...............................................................................................................................................................................................................................................................................................................</text>
	<text transform="matrix(1.03 0 0 1 137.3496 546.6201)" class="st27 st28 st29">................................................................................................................................................................................................................................................................................................................</text>
	<text transform="matrix(1.03 0 0 1 137.3496 564.9902)" class="st27 st28 st29">...............................................................................................................................................................................................................................................................................................................</text>
	<text transform="matrix(1.03 0 0 1 137.3496 583.3604)" class="st27 st28 st29">................................................................................................................................................................................................................................................................................................................</text>
	<text transform="matrix(1.03 0 0 1 137.3496 601.7197)" class="st27 st28 st29">................................................................................................................................................................................................................................................................................................................</text>
	<text transform="matrix(1.03 0 0 1 137.3496 620.0898)" class="st27 st28 st29">................................................................................................................................................................................................................................................................................................................</text>
	<text transform="matrix(1.03 0 0 1 137.3496 638.46)" class="st27 st28 st29">................................................................................................................................................................................................................................................................................................................</text>
	<text transform="matrix(1.03 0 0 1 137.3496 656.8203)" class="st27 st28 st29">................................................................................................................................................................................................................................................................................................................</text>
	<text transform="matrix(1.03 0 0 1 137.3496 675.1904)" class="st27 st28 st29">................................................................................................................................................................................................................................................................................................................</text>
	<text transform="matrix(1.03 0 0 1 137.3496 693.5596)" class="st27 st28 st29">................................................................................................................................................................................................................................................................................................................</text>
	<text transform="matrix(1.03 0 0 1 137.3496 711.9199)" class="st27 st28 st29">................................................................................................................................................................................................................................................................................................................</text>
	<text transform="matrix(1.03 0 0 1 137.3496 730.29)" class="st27 st28 st29">................................................................................................................................................................................................................................................................................................................</text>
	<text transform="matrix(1.03 0 0 1 137.3496 748.6602)" class="st27 st28 st29">................................................................................................................................................................................................................................................................................................................</text>
	<text transform="matrix(1.03 0 0 1 137.3496 767.0195)" class="st27 st28 st29">................................................................................................................................................................................................................................................................................................................</text>
	<text transform="matrix(1 0 0 1 305.57 414.92)" class="st30 st31 st32">PHN T LUN</text>
	<g id="col_3">
		<rect x="247.4" y="270.4" class="st11" width="14.4" height="14.4"/>
		<rect x="247.4" y="368" class="st11" width="14.4" height="14.4"/>
		<path class="st1" d="M272,277.7l-0.6-1.7l-0.6,1.7H272z M273.7,279.6h-1l-0.4-1h-1.8l-0.4,1h-1l1.8-4.6h1L273.7,279.6z"/>
		<path class="st15" d="M271.3,273.3c-2.4,0-4.3,1.9-4.3,4.3s1.9,4.3,4.3,4.3s4.3-1.9,4.3-4.3c0,0,0,0,0,0
			C275.6,275.2,273.7,273.3,271.3,273.3z"/>
		<path class="st1" d="M319.5,276v3h0.7c0.2,0,0.4,0,0.6,0c0.1,0,0.3-0.1,0.4-0.2c0.1-0.1,0.2-0.3,0.2-0.4c0.1-0.3,0.1-0.6,0.1-0.8
			c0-0.3,0-0.5-0.1-0.8c0-0.2-0.1-0.3-0.3-0.5c-0.1-0.1-0.3-0.2-0.4-0.2c-0.2,0-0.5-0.1-0.8,0L319.5,276z M318.5,275.2h1.7
			c0.3,0,0.6,0,0.9,0.1c0.3,0.1,0.5,0.2,0.7,0.4c0.2,0.2,0.4,0.5,0.4,0.7c0.1,0.4,0.2,0.7,0.1,1.1c0,0.3,0,0.7-0.1,1
			c-0.1,0.3-0.3,0.6-0.5,0.8c-0.2,0.2-0.4,0.3-0.6,0.4c-0.3,0.1-0.5,0.1-0.8,0.1h-1.7L318.5,275.2z"/>
		<circle class="st15" cx="320.1" cy="277.5" r="4.3"/>
		<path class="st1" d="M304.9,278.1l0.9,0.3c-0.1,0.4-0.3,0.8-0.7,1.1c-0.3,0.3-0.8,0.4-1.2,0.4c-0.6,0-1.1-0.2-1.5-0.6
			c-0.4-0.5-0.6-1.1-0.6-1.7c0-0.6,0.2-1.3,0.6-1.8c0.4-0.4,1-0.7,1.5-0.6c0.5,0,1,0.2,1.4,0.5c0.2,0.2,0.4,0.5,0.5,0.8l-0.9,0.2
			c-0.1-0.5-0.5-0.8-1-0.8c-0.3,0-0.6,0.1-0.8,0.4c-0.2,0.3-0.4,0.8-0.3,1.2c0,0.4,0.1,0.9,0.3,1.2c0.2,0.2,0.5,0.4,0.8,0.4
			c0.2,0,0.5-0.1,0.6-0.2C304.7,278.6,304.8,278.3,304.9,278.1"/>
		<circle class="st15" cx="303.8" cy="277.6" r="4.3"/>
		<path class="st1" d="M287,277.8v1.2h0.9c0.2,0,0.4,0,0.6,0c0.1,0,0.2-0.1,0.3-0.2c0.1-0.1,0.1-0.2,0.1-0.4c0-0.3-0.1-0.5-0.4-0.6
			c-0.3-0.1-0.6-0.1-0.8-0.1L287,277.8z M287,275.9v1.1h0.6c0.4,0,0.6,0,0.7,0c0.1,0,0.3-0.1,0.4-0.2c0.1-0.1,0.1-0.2,0.1-0.4
			c0-0.1,0-0.2-0.1-0.3c-0.1-0.1-0.2-0.2-0.3-0.2c-0.1,0-0.4,0-0.8,0L287,275.9z M286.1,275.2h1.8c0.3,0,0.5,0,0.8,0
			c0.3,0.1,0.7,0.3,0.8,0.6c0.1,0.2,0.1,0.4,0.1,0.5c0,0.2-0.1,0.4-0.2,0.6c-0.1,0.2-0.3,0.3-0.5,0.4c0.3,0.1,0.5,0.2,0.6,0.4
			c0.2,0.2,0.2,0.4,0.2,0.7c0,0.2-0.1,0.4-0.1,0.6c-0.1,0.2-0.2,0.3-0.4,0.5c-0.2,0.1-0.4,0.2-0.6,0.2c-0.1,0-0.5,0-1.1,0H286
			L286.1,275.2z"/>
		<path class="st15" d="M287.6,273.3c-2.4,0-4.3,1.9-4.3,4.3c0,2.4,1.9,4.3,4.3,4.3c2.4,0,4.3-1.9,4.3-4.3c0,0,0,0,0,0
			C291.9,275.2,289.9,273.3,287.6,273.3C287.6,273.3,287.6,273.3,287.6,273.3z"/>
		<g id="num_row_3">
			
			
			
			
			
		</g>
	</g>
	<g id="col_4">
		<rect x="354.6" y="270.4" class="st11" width="14.4" height="14.4"/>
		<rect x="354.6" y="368" class="st11" width="14.4" height="14.4"/>
		<path class="st1" d="M379.3,277.7l-0.6-1.7l-0.6,1.7H379.3z M381,279.6h-1l-0.4-1h-1.8l-0.4,1h-1l1.8-4.6h1L381,279.6z"/>
		<path class="st15" d="M378.6,273.3c-2.4,0-4.3,1.9-4.3,4.3c0,2.4,1.9,4.3,4.3,4.3c2.4,0,4.3-1.9,4.3-4.3c0,0,0,0,0,0
			C382.9,275.2,380.9,273.3,378.6,273.3C378.6,273.3,378.6,273.3,378.6,273.3z"/>
		<path class="st1" d="M426.7,276v3h0.7c0.2,0,0.4,0,0.5,0c0.1,0,0.3-0.1,0.4-0.2c0.1-0.1,0.2-0.3,0.2-0.4c0.1-0.3,0.1-0.6,0.1-0.8
			c0-0.3,0-0.5-0.1-0.8c-0.1-0.2-0.1-0.3-0.3-0.5c-0.1-0.1-0.3-0.2-0.4-0.2c-0.3,0-0.5-0.1-0.8,0L426.7,276z M425.8,275.2h1.7
			c0.3,0,0.6,0,0.9,0.1c0.3,0.1,0.5,0.2,0.7,0.4c0.2,0.2,0.3,0.5,0.4,0.7c0.1,0.4,0.2,0.7,0.1,1.1c0,0.3,0,0.7-0.1,1
			c-0.1,0.3-0.3,0.6-0.5,0.8c-0.2,0.2-0.4,0.3-0.6,0.4c-0.3,0.1-0.5,0.1-0.8,0.1h-1.7V275.2z"/>
		<circle class="st15" cx="427.4" cy="277.5" r="4.3"/>
		<path class="st1" d="M412.2,278.1l0.9,0.3c-0.1,0.4-0.3,0.8-0.7,1.1c-0.4,0.3-0.8,0.4-1.2,0.4c-0.6,0-1.1-0.2-1.5-0.6
			c-0.4-0.5-0.6-1.1-0.6-1.7c0-0.6,0.2-1.3,0.6-1.8c0.4-0.4,1-0.7,1.5-0.6c0.5,0,1,0.2,1.4,0.5c0.2,0.2,0.4,0.5,0.5,0.8l-0.9,0.2
			c0-0.2-0.2-0.4-0.3-0.6c-0.2-0.1-0.4-0.2-0.6-0.2c-0.3,0-0.6,0.1-0.8,0.4c-0.2,0.3-0.4,0.8-0.3,1.2c0,0.4,0.1,0.9,0.3,1.2
			c0.2,0.2,0.5,0.4,0.8,0.4c0.2,0,0.5-0.1,0.6-0.2C412,278.6,412.1,278.3,412.2,278.1"/>
		<circle class="st15" cx="411.1" cy="277.6" r="4.3"/>
		<path class="st1" d="M394.2,277.8v1.2h0.9c0.2,0,0.4,0,0.6,0c0.1,0,0.2-0.1,0.3-0.2c0.1-0.1,0.1-0.2,0.1-0.4c0-0.1,0-0.3-0.1-0.4
			c-0.1-0.1-0.2-0.2-0.3-0.2c-0.3-0.1-0.5-0.1-0.8-0.1L394.2,277.8z M394.2,275.9v1.1h0.6c0.4,0,0.6,0,0.7,0c0.1,0,0.3-0.1,0.4-0.2
			c0.1-0.1,0.1-0.2,0.1-0.4c0-0.1,0-0.2-0.1-0.3c-0.1-0.1-0.2-0.2-0.4-0.2c-0.1,0-0.4,0-0.8,0L394.2,275.9z M393.3,275.2h1.8
			c0.3,0,0.5,0,0.8,0c0.3,0.1,0.6,0.3,0.8,0.6c0.1,0.2,0.1,0.4,0.1,0.5c0,0.4-0.3,0.8-0.6,1c0.3,0.1,0.5,0.2,0.6,0.4
			c0.2,0.2,0.2,0.4,0.2,0.7c0,0.2-0.1,0.4-0.1,0.6c-0.1,0.2-0.2,0.3-0.4,0.5c-0.2,0.1-0.4,0.2-0.6,0.2c-0.2,0-0.5,0-1.1,0h-1.6
			V275.2z"/>
		<path class="st15" d="M394.8,273.3c-2.4,0-4.3,1.9-4.3,4.3c0,2.4,1.9,4.3,4.3,4.3c2.4,0,4.3-1.9,4.3-4.3c0,0,0,0,0,0
			C399.1,275.2,397.2,273.3,394.8,273.3z"/>
		<g id="num_row_4">
			
		</g>
	</g>
	<g id="col_5">
		<rect x="461.9" y="270.4" class="st11" width="14.4" height="14.4"/>
		<rect x="461.9" y="368" class="st11" width="14.4" height="14.4"/>
		<path class="st1" d="M486.5,277.7l-0.6-1.7l-0.6,1.7H486.5z M488.2,279.6h-1l-0.4-1H485l-0.4,1h-1l1.8-4.6h1L488.2,279.6z"/>
		<path class="st15" d="M485.8,273.3c-2.4,0-4.3,1.9-4.3,4.3c0,2.4,1.9,4.3,4.3,4.3c2.4,0,4.3-1.9,4.3-4.3c0,0,0,0,0,0
			C490.1,275.2,488.2,273.3,485.8,273.3z"/>
		<path class="st1" d="M534,276v3h0.7c0.2,0,0.4,0,0.6,0c0.1,0,0.3-0.1,0.4-0.2c0.1-0.1,0.2-0.3,0.2-0.4c0.1-0.3,0.1-0.6,0.1-0.8
			c0-0.3,0-0.5-0.1-0.8c0-0.2-0.1-0.3-0.3-0.5c-0.1-0.1-0.3-0.2-0.4-0.2c-0.3,0-0.5-0.1-0.8,0L534,276z M533.1,275.2h1.7
			c0.3,0,0.6,0,0.9,0.1c0.3,0.1,0.5,0.2,0.7,0.4c0.2,0.2,0.3,0.5,0.4,0.7c0.1,0.4,0.2,0.7,0.2,1.1c0,0.3,0,0.7-0.1,1
			c-0.1,0.3-0.3,0.6-0.5,0.8c-0.2,0.2-0.4,0.3-0.7,0.4c-0.3,0.1-0.5,0.1-0.8,0.1h-1.7V275.2z"/>
		<circle class="st15" cx="534.6" cy="277.5" r="4.3"/>
		<path class="st1" d="M519.5,278.1l0.9,0.3c-0.1,0.4-0.3,0.8-0.7,1.1c-0.4,0.3-0.8,0.4-1.2,0.4c-0.6,0-1.1-0.2-1.5-0.6
			c-0.4-0.5-0.6-1.1-0.6-1.7c0-0.6,0.2-1.3,0.6-1.8c0.4-0.4,1-0.7,1.6-0.6c0.5,0,1,0.2,1.4,0.5c0.2,0.2,0.4,0.5,0.5,0.8l-0.9,0.2
			c0-0.2-0.2-0.4-0.3-0.6c-0.2-0.1-0.4-0.2-0.6-0.2c-0.3,0-0.6,0.1-0.8,0.4c-0.2,0.3-0.3,0.8-0.3,1.2c0,0.4,0.1,0.9,0.3,1.2
			c0.2,0.2,0.5,0.4,0.8,0.4c0.2,0,0.5-0.1,0.6-0.2C519.3,278.6,519.4,278.3,519.5,278.1"/>
		<circle class="st15" cx="518.3" cy="277.6" r="4.3"/>
		<path class="st1" d="M501.5,277.8v1.2h0.9c0.2,0,0.4,0,0.6,0c0.1,0,0.2-0.1,0.3-0.2c0.1-0.1,0.1-0.2,0.1-0.4c0-0.1,0-0.3-0.1-0.4
			c-0.1-0.1-0.2-0.2-0.3-0.2c-0.3-0.1-0.5-0.1-0.8-0.1L501.5,277.8z M501.5,275.9v1.1h0.6c0.4,0,0.6,0,0.7,0c0.1,0,0.3-0.1,0.4-0.2
			c0.1-0.1,0.1-0.2,0.1-0.4c0-0.1,0-0.2-0.1-0.3c-0.1-0.1-0.2-0.2-0.4-0.2c-0.1,0-0.4,0-0.8,0L501.5,275.9z M500.5,275.2h1.8
			c0.3,0,0.5,0,0.8,0c0.3,0.1,0.7,0.3,0.8,0.6c0.1,0.2,0.1,0.4,0.1,0.5c0,0.2-0.1,0.4-0.2,0.6c-0.1,0.2-0.3,0.3-0.5,0.4
			c0.3,0.1,0.5,0.2,0.6,0.4c0.2,0.2,0.2,0.4,0.2,0.7c0,0.2,0,0.4-0.1,0.6c-0.1,0.2-0.2,0.3-0.4,0.5c-0.2,0.1-0.4,0.2-0.6,0.2
			c-0.1,0-0.5,0-1.1,0h-1.6V275.2z"/>
		<path class="st15" d="M502.1,273.3c-2.4,0-4.3,1.9-4.3,4.3s1.9,4.3,4.3,4.3s4.3-1.9,4.3-4.3c0,0,0,0,0,0
			C506.4,275.2,504.5,273.3,502.1,273.3z"/>
		<g id="num_row_5">
		
		</g>
	</g>
</g>
<rect x="32.9" y="108.9" class="st11" width="13.4" height="13.4"/>
<path class="st12" d="M52,123.2c2.6,0,4.8,2.1,4.8,4.8s-2.1,4.8-4.8,4.8c-2.6,0-4.8-2.1-4.8-4.8l0,0C47.2,125.4,49.4,123.2,52,123.2
	z"/>
<path class="st12" d="M52,135.6c2.6,0,4.8,2.1,4.8,4.8s-2.1,4.8-4.8,4.8c-2.6,0-4.8-2.1-4.8-4.8c0,0,0,0,0,0
	C47.2,137.8,49.4,135.7,52,135.6z"/>
<path class="st12" d="M52,148.1c2.6,0,4.8,2.1,4.8,4.8s-2.1,4.8-4.8,4.8c-2.6,0-4.8-2.1-4.8-4.8l0,0C47.2,150.2,49.4,148.1,52,148.1
	z"/>
<path class="st12" d="M52,160.5c2.6,0,4.8,2.1,4.8,4.8c0,2.6-2.1,4.8-4.8,4.8c-2.6,0-4.8-2.1-4.8-4.8c0,0,0,0,0,0
	C47.2,162.7,49.4,160.5,52,160.5z"/>
<path class="st12" d="M52,173c2.6,0,4.8,2.1,4.8,4.8s-2.1,4.8-4.8,4.8c-2.6,0-4.8-2.1-4.8-4.8c0,0,0,0,0,0
	C47.2,175.1,49.4,173,52,173z"/>
<path class="st12" d="M52,185.4c2.6,0,4.8,2.1,4.8,4.8S54.6,195,52,195c-2.6,0-4.8-2.1-4.8-4.8l0,0C47.2,187.5,49.4,185.4,52,185.4z
	"/>
<path class="st12" d="M52,197.8c2.6,0,4.8,2.1,4.8,4.8s-2.1,4.8-4.8,4.8c-2.6,0-4.8-2.1-4.8-4.8c0,0,0,0,0,0
	C47.2,200,49.4,197.8,52,197.8z"/>
<path class="st12" d="M52,210.3c2.6,0,4.8,2.1,4.8,4.8s-2.1,4.8-4.8,4.8c-2.6,0-4.8-2.1-4.8-4.8l0,0C47.2,212.4,49.4,210.3,52,210.3
	z"/>
<path class="st12" d="M52,222.7c2.6,0,4.8,2.1,4.8,4.8c0,2.6-2.1,4.8-4.8,4.8c-2.6,0-4.8-2.1-4.8-4.8c0,0,0,0,0,0
	C47.2,224.9,49.4,222.7,52,222.7z"/>
<path class="st12" d="M52,235.1c2.6,0,4.8,2.1,4.8,4.8s-2.1,4.8-4.8,4.8c-2.6,0-4.8-2.1-4.8-4.8l0,0C47.2,237.3,49.4,235.1,52,235.1
	z"/>
<path class="st12" d="M64.4,123.2c2.6,0,4.8,2.1,4.8,4.8c0,2.6-2.1,4.8-4.8,4.8c-2.6,0-4.8-2.1-4.8-4.8S61.8,123.2,64.4,123.2
	L64.4,123.2z"/>
<path class="st12" d="M64.4,135.6c2.6,0,4.8,2.1,4.8,4.8s-2.1,4.8-4.8,4.8c-2.6,0-4.8-2.1-4.8-4.8c0,0,0,0,0,0
	C59.7,137.8,61.8,135.6,64.4,135.6z"/>
<path class="st12" d="M64.4,148.1c2.6,0,4.8,2.1,4.8,4.8s-2.1,4.8-4.8,4.8c-2.6,0-4.8-2.1-4.8-4.8l0,0
	C59.7,150.2,61.8,148.1,64.4,148.1z"/>
<path class="st12" d="M64.4,160.5c2.6,0,4.8,2.1,4.8,4.8c0,2.6-2.1,4.8-4.8,4.8c-2.6,0-4.8-2.1-4.8-4.8c0,0,0,0,0,0
	C59.7,162.7,61.8,160.5,64.4,160.5z"/>
<path class="st12" d="M64.4,173c2.6,0,4.8,2.1,4.8,4.8s-2.1,4.8-4.8,4.8c-2.6,0-4.8-2.1-4.8-4.8c0,0,0,0,0,0
	C59.7,175.1,61.8,173,64.4,173z"/>
<path class="st12" d="M64.4,185.4c2.6,0,4.8,2.1,4.8,4.8s-2.1,4.8-4.8,4.8c-2.6,0-4.8-2.1-4.8-4.8l0,0
	C59.7,187.5,61.8,185.4,64.4,185.4z"/>
<path class="st12" d="M64.4,197.8c2.6,0,4.8,2.1,4.8,4.8s-2.1,4.8-4.8,4.8c-2.6,0-4.8-2.1-4.8-4.8c0,0,0,0,0,0
	C59.7,200,61.8,197.8,64.4,197.8z"/>
<path class="st12" d="M64.4,210.3c2.6,0,4.8,2.1,4.8,4.8s-2.1,4.8-4.8,4.8c-2.6,0-4.8-2.1-4.8-4.8l0,0
	C59.7,212.4,61.8,210.3,64.4,210.3z"/>
<path class="st12" d="M64.4,222.7c2.6,0,4.8,2.1,4.8,4.8c0,2.6-2.1,4.8-4.8,4.8c-2.6,0-4.8-2.1-4.8-4.8c0,0,0,0,0,0
	C59.7,224.8,61.8,222.7,64.4,222.7z"/>
<path class="st12" d="M64.4,235.1c2.6,0,4.8,2.1,4.8,4.8s-2.1,4.8-4.8,4.8c-2.6,0-4.8-2.1-4.8-4.8l0,0
	C59.7,237.3,61.8,235.1,64.4,235.1z"/>
<path class="st12" d="M76.9,123.2c2.6,0,4.8,2.1,4.8,4.8c0,2.6-2.1,4.8-4.8,4.8c-2.6,0-4.8-2.1-4.8-4.8S74.2,123.2,76.9,123.2
	C76.9,123.2,76.9,123.2,76.9,123.2z"/>
<path class="st12" d="M76.9,135.6c2.6,0,4.8,2.1,4.8,4.8s-2.1,4.8-4.8,4.8c-2.6,0-4.8-2.1-4.8-4.8c0,0,0,0,0,0
	C72.1,137.8,74.2,135.6,76.9,135.6z"/>
<path class="st12" d="M76.9,148.1c2.6,0,4.8,2.1,4.8,4.8s-2.1,4.8-4.8,4.8c-2.6,0-4.8-2.1-4.8-4.8l0,0
	C72.1,150.2,74.2,148.1,76.9,148.1z"/>
<path class="st12" d="M76.9,160.5c2.6,0,4.8,2.1,4.8,4.8c0,2.6-2.1,4.8-4.8,4.8c-2.6,0-4.8-2.1-4.8-4.8c0,0,0,0,0,0
	C72.1,162.7,74.2,160.5,76.9,160.5z"/>
<path class="st12" d="M76.9,173c2.6,0,4.8,2.1,4.8,4.8s-2.1,4.8-4.8,4.8c-2.6,0-4.8-2.1-4.8-4.8c0,0,0,0,0,0
	C72.1,175.1,74.2,173,76.9,173z"/>
<path class="st12" d="M76.9,185.4c2.6,0,4.8,2.1,4.8,4.8s-2.1,4.8-4.8,4.8c-2.6,0-4.8-2.1-4.8-4.8l0,0
	C72.1,187.5,74.2,185.4,76.9,185.4z"/>
<path class="st12" d="M76.9,197.8c2.6,0,4.8,2.1,4.8,4.8s-2.1,4.8-4.8,4.8c-2.6,0-4.8-2.1-4.8-4.8c0,0,0,0,0,0
	C72.1,200,74.2,197.8,76.9,197.8z"/>
<path class="st12" d="M76.9,210.3c2.6,0,4.8,2.1,4.8,4.8s-2.1,4.8-4.8,4.8c-2.6,0-4.8-2.1-4.8-4.8l0,0
	C72.1,212.4,74.2,210.3,76.9,210.3z"/>
<path class="st12" d="M76.9,222.7c2.6,0,4.8,2.1,4.8,4.8c0,2.6-2.1,4.8-4.8,4.8c-2.6,0-4.8-2.1-4.8-4.8c0,0,0,0,0,0
	C72.1,224.8,74.2,222.7,76.9,222.7z"/>
<path class="st12" d="M76.9,235.1c2.6,0,4.8,2.1,4.8,4.8s-2.1,4.8-4.8,4.8c-2.6,0-4.8-2.1-4.8-4.8l0,0
	C72.1,237.3,74.2,235.1,76.9,235.1z"/>
<rect x="32.9" y="245.7" class="st11" width="13.4" height="13.4"/>
<text transform="matrix(1 0 0 1 38.04 129.92)" class="st1 st2 st13">0</text>
<text transform="matrix(1 0 0 1 38.04 142.36)" class="st1 st2 st13">1</text>
<text transform="matrix(1 0 0 1 38.04 154.8)" class="st1 st2 st13">2</text>
<text transform="matrix(1 0 0 1 38.04 167.23)" class="st1 st2 st13">3</text>
<text transform="matrix(1 0 0 1 38.04 179.67)" class="st1 st2 st13">4</text>
<text transform="matrix(1 0 0 1 38.04 192.1)" class="st1 st2 st13">5</text>
<text transform="matrix(1 0 0 1 38.04 204.54)" class="st1 st2 st13">6</text>
<text transform="matrix(1 0 0 1 38.04 216.98)" class="st1 st2 st13">7</text>
<text transform="matrix(1 0 0 1 38.04 229.41)" class="st1 st2 st13">8</text>
<text transform="matrix(1 0 0 1 38.04 241.85)" class="st1 st2 st13">9</text>
<rect x="45" y="83" class="st10" width="11.7" height="16.9"/>
<rect x="60.8" y="83" class="st10" width="11.7" height="16.9"/>
<rect x="72.4" y="83" class="st10" width="11.7" height="16.9"/>
<text transform="matrix(1 0 0 1 56.76 98.94)" class="st1 st18 st33">,</text>
<text transform="matrix(1 0 0 1 32.18 79.48)" class="st1 st18 st16">9. im t lun</text>
</svg>
