<svg width="35" height="35" viewBox="0 0 35 35" fill="none" xmlns="http://www.w3.org/2000/svg">
<path d="M0 11.7396C0 7.58705 0 5.51078 0.820944 3.9304C1.51274 2.59862 2.59862 1.51274 3.9304 0.820944C5.51078 0 7.58705 0 11.7396 0H23.2604C27.413 0 29.4892 0 31.0696 0.820944C32.4014 1.51274 33.4873 2.59862 34.1791 3.9304C35 5.51078 35 7.58705 35 11.7396V23.2604C35 27.413 35 29.4892 34.1791 31.0696C33.4873 32.4014 32.4014 33.4873 31.0696 34.1791C29.4892 35 27.413 35 23.2604 35H11.7396C7.58705 35 5.51078 35 3.9304 34.1791C2.59862 33.4873 1.51274 32.4014 0.820944 31.0696C0 29.4892 0 27.413 0 23.2604V11.7396Z" fill="#3F4B5B"/>
<path d="M24.3052 22.361L25.083 17.4999H20.4163V14.0971C20.4163 12.736 20.9025 11.6665 23.0413 11.6665H25.2775V7.19431C24.0136 6.99986 22.6525 6.80542 21.3886 6.80542C17.4025 6.80542 14.583 9.23598 14.583 13.611V17.4999H10.208V22.361H14.583V34.9999C16.5275 34.9999 18.4719 34.9999 20.4163 34.9999V22.361H24.3052Z" fill="white"/>
</svg>
