<svg width="90" height="25" viewBox="0 0 90 25" fill="none" xmlns="http://www.w3.org/2000/svg">
<path d="M24.6551 13.7606C25.6822 15.5474 26.7534 17.1408 27.5451 18.8583C28.843 21.664 26.6799 24.845 23.4985 24.8941C20.012 24.946 16.5245 24.946 13.036 24.8941C12.2969 24.8784 11.5749 24.6726 10.9423 24.2974C10.3096 23.9222 9.78848 23.3907 9.43095 22.756C9.07343 22.1213 8.89204 21.4056 8.90494 20.6806C8.91783 19.9556 9.12456 19.2466 9.50443 18.6245C9.59994 18.5051 9.72069 18.4074 9.85837 18.3381C9.99605 18.2688 10.1474 18.2297 10.302 18.2232C13.2038 18.1915 16.1056 18.1973 19.0074 18.1973C21.9092 18.1973 23.7162 16.8694 24.5197 14.1561C24.5315 14.0839 24.5668 14.0031 24.6551 13.7606Z" fill="white"/>
<path d="M9.57202 24.7902C7.55606 24.7902 5.51361 25.0095 3.54473 24.7382C0.701781 24.3456 -0.869787 21.0578 0.5046 18.5841C2.2449 15.4473 4.06368 12.351 5.96095 9.29511C7.57666 6.69721 11.4438 6.78381 13.0889 9.35862C13.1901 9.48518 13.2468 9.64045 13.2505 9.80123C13.2542 9.962 13.2047 10.1196 13.1095 10.2506C11.6527 12.6839 10.2842 15.1577 8.76269 17.568C7.24115 19.9783 7.63258 23.0063 9.52199 24.6603C9.54758 24.6997 9.56461 24.7439 9.57202 24.7902Z" fill="white"/>
<path d="M7.50293 6.60483C8.47118 4.97393 9.29817 3.42962 10.2635 1.98634C12.0146 -0.643317 15.9611 -0.680842 17.6504 1.98634C19.5516 4.96527 21.3469 8.0279 23.0597 11.1338C24.4812 13.7317 22.6153 16.8694 19.6635 17.1032C19.4585 17.1451 19.2451 17.1176 19.0581 17.0254C18.8711 16.9331 18.7214 16.7815 18.6334 16.5952C17.2031 14.1157 15.7316 11.665 14.2954 9.19119C12.9004 6.79246 10.6284 5.83123 7.90612 6.52401C7.82372 6.5471 7.73837 6.55865 7.50293 6.60483Z" fill="white"/>
<path d="M41.277 3.92899C39.3199 3.92899 37.763 4.59867 36.6417 5.92071C35.6176 7.12729 35.0996 8.70047 35.0996 10.5998V21.6698H37.7071V13.7693H44.838V21.6698H47.4455V10.5998C47.4455 8.70913 46.9305 7.13595 45.9152 5.93803C44.788 4.60444 43.2311 3.92899 41.277 3.92899ZM37.7071 10.9433C37.7071 6.87039 39.7437 6.40854 41.277 6.40854C42.8103 6.40854 44.8086 6.87905 44.8086 10.952V11.3157H37.7071V10.9433Z" fill="white"/>
<path d="M56.5097 12.7388C56.9269 12.3048 57.1713 11.7383 57.1983 11.1425C57.1983 10.7239 57.0335 9.36438 54.8851 9.36438H48.4488V11.7891H54.0405L48.6636 18.1857C48.1515 18.7948 47.9043 19.3403 47.9043 19.8253C47.9043 20.2583 48.0632 21.6698 50.0939 21.6698H57.4926V19.1787H51.0975L56.5097 12.7388Z" fill="white"/>
<path d="M63.5353 9.16519C62.6915 9.1518 61.8542 9.31271 61.078 9.63745C60.3017 9.96219 59.6038 10.4435 59.0296 11.0501C58.4379 11.64 57.9714 12.3393 57.6572 13.1073C57.3429 13.8753 57.1872 14.6968 57.199 15.5243C57.1859 16.3475 57.3399 17.165 57.6522 17.9292C57.9644 18.6934 58.4287 19.3889 59.0178 19.9754C59.5995 20.5728 60.2984 21.0488 61.0725 21.3746C61.8466 21.7004 62.6798 21.8693 63.5221 21.8712C64.3644 21.8731 65.1984 21.7079 65.974 21.3856C66.7496 21.0632 67.4507 20.5904 68.0352 19.9956C68.624 19.4047 69.0879 18.7055 69.4 17.9381C69.7122 17.1708 69.8664 16.3504 69.854 15.5243C69.8685 14.7012 69.7175 13.8834 69.4094 13.1176C69.1014 12.3519 68.6424 11.6532 68.0587 11.0617C67.4831 10.4513 66.7827 9.96698 66.0033 9.64019C65.2238 9.31341 64.3829 9.15155 63.5353 9.16519ZM66.1988 18.2694C65.8688 18.6423 65.459 18.9391 64.9986 19.1387C64.5382 19.3382 64.0385 19.4357 63.5353 19.424C63.0283 19.4352 62.5249 19.3376 62.0603 19.1382C61.5957 18.9387 61.1811 18.6423 60.8454 18.2694C60.135 17.512 59.7538 16.5126 59.783 15.4839C59.753 14.4572 60.1332 13.4597 60.8425 12.7041C61.1782 12.3306 61.5933 12.0336 62.0585 11.8342C62.5237 11.6347 63.0278 11.5375 63.5353 11.5495C64.0404 11.5371 64.542 11.6342 65.0044 11.8338C65.4668 12.0333 65.8786 12.3305 66.2105 12.7041C66.9152 13.4596 67.292 14.4546 67.2612 15.4781C67.2935 16.5091 66.912 17.5114 66.1988 18.2694Z" fill="white"/>
<path d="M72.9295 17.0455V11.8122H76.8054V9.36438H72.9295V6.31906H70.3896V17.135C70.3896 20.0591 72.2143 21.6698 75.5252 21.6698H76.8054V19.2451H75.3545C73.6564 19.2451 72.9295 18.5869 72.9295 17.0455Z" fill="white"/>
<path d="M89.0044 13.9396C88.7211 12.5697 87.9437 11.346 86.8148 10.493C85.7011 9.62202 84.316 9.15319 82.8917 9.16519C82.0414 9.14245 81.1957 9.29661 80.4105 9.61752C79.6253 9.93842 78.9182 10.4188 78.3359 11.027C77.173 12.245 76.5487 13.865 76.5996 15.5329C76.5805 16.3604 76.7288 17.1834 77.0359 17.9543C77.343 18.7253 77.8029 19.4288 78.3889 20.0244C78.9717 20.6264 79.6766 21.1018 80.4583 21.42C81.24 21.7382 82.081 21.8921 82.927 21.8718C84.268 21.8845 85.5767 21.4691 86.6558 20.6883V21.6698H89.1956V16.1333C89.2083 15.3976 89.1442 14.6625 89.0044 13.9396ZM86.6647 17.3082L86.129 17.8855C85.1902 18.916 84.1454 19.4154 82.9359 19.4154C82.4259 19.4353 81.9178 19.3451 81.4473 19.1511C80.9769 18.957 80.5557 18.6639 80.2136 18.2925C79.5109 17.5246 79.1422 16.5177 79.1865 15.4868C79.1486 14.4582 79.5213 13.4557 80.2253 12.6926C80.565 12.3204 80.9837 12.0259 81.4521 11.8299C81.9204 11.6339 82.4269 11.5411 82.9359 11.5581C84.1631 11.5581 85.0754 11.9796 85.7347 12.8484C86.3527 13.6538 86.6647 14.7334 86.6647 16.0583V17.3082Z" fill="white"/>
</svg>
