<svg xmlns="http://www.w3.org/2000/svg" width="105.797" height="52" viewBox="0 0 105.797 52">
  <g id="vietabank" transform="translate(0.865)">
    <g id="boundingbox" fill="rgba(255,0,0,0.1)" stroke="red" stroke-width="1" stroke-dasharray="4 4" opacity="0">
      <rect width="104" height="52" stroke="none"/>
      <rect x="0.5" y="0.5" width="103" height="51" fill="none"/>
    </g>
    <g id="Group_10404" data-name="Group 10404" transform="translate(0 16.046)">
      <path id="Union_21" data-name="Union 21" d="M64.815,10,63.452,7.446H58.984L57.585,10H55.026L60.279.16h1.807L67.407,10ZM59.836,5.69H62.53L61.2,2.712ZM42.4,10,41.035,7.446H36.566L35.168,10H32.61L37.863.16H39.67L44.991,10ZM37.419,5.69h2.694l-1.33-2.977ZM26.319,9.9V1.841H23.8V.059h7.6V1.841H28.839V9.9Zm-10.331,0V.059h6.749V1.841h-5V4.1h5V5.855h-5v2.26h5V9.9Zm-3.733,0V.059h2.353V9.9ZM4.91,9.9,0,.059H2.456L5.866,7.531,9.243.059H11.7L6.822,9.9Zm73.109,0V0h1.919V4.206L84.044,0,86.6.013,82.67,3.929,86.8,9.845h-2.5L81.226,5.368,79.938,6.651V9.9ZM67.585,9.862V0h2.037l5.2,6.328V0h1.919V9.829H74.754L69.638,3.7V9.862Zm-15.87-.017H47.171V.1l.018-.075h5.157a2.6,2.6,0,0,1,2.5,2.5,2.175,2.175,0,0,1-1.262,2.02A2.653,2.653,0,0,1,55.35,7.119c0,2.6-2.975,2.727-3.542,2.727ZM49.14,8.128h2.692s1.4-.083,1.4-1.262-1.514-1.229-1.514-1.229H49.124Zm0-4.19h2.428s1.26-.074,1.26-1.109S51.459,1.75,51.459,1.75H49.124Z" transform="translate(17.125 5.15)" fill="#1b4486" stroke="rgba(0,0,0,0)" stroke-miterlimit="10" stroke-width="1"/>
      <path id="Union_22" data-name="Union 22" d="M6.172,14.961l5.531-9.6,5.537,9.6ZM0,14.961,2.985,9.773l3.107,5.188ZM4.121,7.8,8.607,0l2.487,4.313L6.6,12.066Z" transform="translate(0 0)" fill="#ec2027" stroke="rgba(0,0,0,0)" stroke-miterlimit="10" stroke-width="1"/>
    </g>
  </g>
</svg>
