<svg width="109" height="28" viewBox="0 0 109 28" fill="none" xmlns="http://www.w3.org/2000/svg">
<g clip-path="url(#clip0_86_426)">
<path fill-rule="evenodd" clip-rule="evenodd" d="M96.0464 15.9172C91.6507 15.9172 88.0893 12.3558 88.0893 7.96014H83.7937C83.7937 14.7281 89.2785 20.2128 96.0464 20.2128C102.814 20.2128 108.299 14.7281 108.299 7.96014H104.003C104.003 12.3528 100.442 15.9172 96.0464 15.9172Z" fill="#FAA61A"/>
<path fill-rule="evenodd" clip-rule="evenodd" d="M99.9202 7.95709C99.9202 8.14821 99.7837 8.26348 99.7837 8.26348C99.7291 8.32416 98.8433 8.86717 97.8998 9.81061C96.9564 10.7541 96.4134 11.6368 96.3527 11.6945C96.3527 11.6945 96.2344 11.831 96.0433 11.831C95.8522 11.831 95.7338 11.6945 95.7338 11.6945C95.6732 11.6399 95.1302 10.7571 94.1867 9.81061C93.2433 8.86717 92.3605 8.32719 92.3059 8.26348C92.3059 8.26348 92.1664 8.14821 92.1664 7.95709H99.9202Z" fill="#FAA61A"/>
<path fill-rule="evenodd" clip-rule="evenodd" d="M96.0462 0C91.6505 0 88.0891 3.56143 88.0891 7.9571H92.1723C92.1723 7.76598 92.3118 7.6507 92.3118 7.6507C92.3664 7.59003 93.2522 7.04702 94.1957 6.10357C95.1361 5.16316 95.6821 4.27736 95.7428 4.22275C95.7428 4.22275 95.8581 4.08624 96.0522 4.08624C96.2434 4.08624 96.3617 4.22275 96.3617 4.22275C96.4223 4.27736 96.9653 5.16316 97.9088 6.10357C98.8522 7.04702 99.735 7.59003 99.7926 7.6507C99.7926 7.6507 99.9292 7.76598 99.9292 7.9571H104.012C104.003 3.56143 100.442 0 96.0462 0Z" fill="#FAA61A"/>
<path d="M0 27.6451V9.54367H3.78895V24.3476H12.0524V27.6451H0Z" fill="#FAA61A"/>
<path d="M13.5116 27.6451V9.54367H17.525H21.0106C24.5538 9.54367 26.8169 12.1344 26.8169 15.4046C26.8169 18.7021 24.5538 21.0743 21.0106 21.0743H17.792H17.3005V27.6451H13.5116ZM20.413 17.9952C22.5941 17.9952 23.4921 16.8758 23.4921 15.2953C23.4921 13.7968 22.5941 12.6774 20.413 12.6774H17.2975V17.9922H17.4613H20.413V17.9952Z" fill="#FAA61A"/>
<path d="M53.0056 27.6451C52.8964 27.3175 52.8145 26.8533 52.7872 26.4468C51.9439 27.3721 50.5242 28 48.7252 28C45.6735 28 44.2537 26.5014 44.2537 24.3203C44.2537 20.4494 46.8444 20.0156 50.4149 19.5242C52.1866 19.2785 52.678 18.9235 52.678 17.9983C52.678 17.1246 51.8074 16.6089 50.4149 16.6089C48.8071 16.6089 48.1519 17.4007 47.9911 18.5989H44.6936C44.7482 15.8171 46.2741 13.8847 50.5788 13.8847C54.8318 13.8847 56.3031 15.7929 56.3031 19.1723V27.6481H53.0056V27.6451ZM52.7599 21.0743C52.405 21.4293 51.7801 21.6204 50.4696 21.8661C48.4522 22.2483 47.797 22.8186 47.797 23.9653C47.797 24.9725 48.3976 25.4639 49.514 25.4639C51.3402 25.4639 52.7023 24.1292 52.7296 22.5487L52.7599 21.0743Z" fill="#FAA61A"/>
<path d="M66.3961 27.6451V19.5211C66.3961 17.4492 65.7954 16.8789 64.1057 16.8789C62.2522 16.8789 61.3512 17.9133 61.3512 19.958V27.6451H57.808V14.2336H61.1874V16.1963C62.0065 14.6977 63.3686 13.8787 65.5224 13.8787C68.0827 13.8787 69.9636 15.4319 69.9636 18.3502V27.6451H66.3961Z" fill="#FAA61A"/>
<path d="M79.7045 27.6451L76.7619 21.6204L75.0449 23.392V27.6451H71.4714V9.55884H75.0449V19.33L79.4588 14.2336H83.7938L79.295 19.1662L83.6846 27.6451H79.7045Z" fill="#FAA61A"/>
<path d="M41.5695 18.8082C41.5695 18.8082 41.5027 18.7385 41.3844 18.6323C41.3692 18.6171 41.351 18.605 41.3359 18.5898C41.075 18.3623 40.626 18.0195 40.1497 17.8587C40.1497 17.8587 40.8171 17.61 41.442 16.7939C41.4512 16.7788 41.4633 16.7666 41.4724 16.7515C41.4815 16.7393 41.4906 16.7272 41.4997 16.7151L41.4967 16.7181C41.9456 16.1023 42.2247 15.3287 42.2247 14.4793C42.2247 11.4548 40.3803 9.54669 36.9493 9.54669H28.3248V27.6451H36.2091C40.6139 27.6451 42.7495 25.5458 42.7495 22.2483C42.7495 20.6223 42.2824 19.5363 41.5695 18.8082ZM31.859 12.6804H36.2637C37.9777 12.6804 38.6906 13.2537 38.6906 14.6431C38.6906 15.9233 37.9261 16.6058 36.4761 16.6058H31.862V12.6804H31.859ZM36.5003 24.5629H31.859V19.6849H36.5519C38.187 19.6849 39.1881 20.3948 39.1881 21.9753C39.1881 23.4466 38.187 24.5629 36.5003 24.5629Z" fill="#FAA61A"/>
</g>
<defs>
<clipPath id="clip0_86_426">
<rect width="108.299" height="28" fill="white"/>
</clipPath>
</defs>
</svg>
