<svg xmlns="http://www.w3.org/2000/svg" width="190.5" height="62.749" viewBox="0 0 190.5 62.749"><g transform="translate(-74.315 -21.834)"><path d="M139.063,229.485c-.178,1.177-2.556,17.818-2.773,19.374h5.334c.168-1.173,2.548-17.825,2.769-19.374Z" transform="translate(-36.528 -182.893)" fill="#00427a"/><path d="M159.613,229.485c-.168,1.177-2.556,17.818-2.777,19.374h12.51c.121-.852.436-3.1.591-4.182h-7.569l.506-3.576h6.881c.119-.835.41-2.854.561-3.908h-6.881l.508-3.527h7.376c.123-.848.446-3.1.6-4.18Z" transform="translate(-13.414 -182.893)" fill="#00427a"/><path d="M136.772,240.588s4.467-10.215,4.815-11.1H148.3c0,1.354-.9,17.988-.882,19.369h-4.839l.8-13.564s-5.436,12.7-5.8,13.564h-3.817l-1.715-13.564c-.127.614-1.938,9.675-2.93,13.564h-4.807c.5-1.726,4.184-18.377,4.475-19.369h6.464Z" transform="translate(-50 -182.89)" fill="#00427a"/><path d="M155.95,240.939l3.06-7.185.992,7.185Zm4.565,4s.338,3.154.465,3.919h5.111c-.285-1.6-3.073-18.237-3.275-19.374h-6.479c-.372.812-7.765,17.472-8.64,19.374h5.2c.27-.65,1.589-3.919,1.589-3.919Z" transform="translate(-23.695 -182.893)" fill="#00427a"/><path d="M147.37,233.119h1.188a2.9,2.9,0,0,1,2.287.742,2.32,2.32,0,0,1,.427,1.938s-.166,1.483-1.139,1.949a3.647,3.647,0,0,1-1.779.467h-2.416l4.554,10.642h5.179l-3.916-8.162c2.374-.44,4.222-1.147,4.7-4.822a10.9,10.9,0,0,0,.1-1.318,4.815,4.815,0,0,0-1.067-3.277c-1.29-1.492-3.5-1.791-5.119-1.791h-7.316c-.174,1.173-2.559,17.814-2.788,19.369h4.862c.166-1.084,2.248-15.738,2.248-15.738" transform="translate(-32.062 -182.89)" fill="#00427a"/><path d="M225.152,217.834c-3.113,12.888-14.286,19.92-20.855,23.666l-.283-.38c2.7-2.189,11.94-9.01,14.894-20.311Z" transform="translate(39.663 -196)" fill="#f5821f"/><path d="M191.355,237.547c-.032-.015-1.411-.708-1.411-.708l-.015-.009-.026-.013c-.453-.261-1.519-.878-1.519-1.91a1.591,1.591,0,0,1,.561-1.241,2.2,2.2,0,0,1,1.842-.376,6.812,6.812,0,0,1,3.126,1.725c.55-1.054,1.6-3.071,1.974-3.791a8.9,8.9,0,0,0-4.524-2.019,8.384,8.384,0,0,0-6.254,1.371,6.35,6.35,0,0,0-2.414,4.382,8.21,8.21,0,0,0-.053.9,5.132,5.132,0,0,0,.642,2.616c2.879-.066,5.914-.21,8.984-.455a7.862,7.862,0,0,0-.914-.474" transform="translate(15.618 -183.327)" fill="#00427a"/><path d="M197.257,229.487c-.121.81-.491,3.358-.669,4.609a76.644,76.644,0,0,0,12.523-4.609Z" transform="translate(31.307 -182.89)" fill="#00427a"/><path d="M234.258,234.3h0c-.531.176-1.086.349-1.647.525-.117.036-.236.072-.351.1-.221.074-.455.14-.686.208-.121.04-.238.074-.368.113-.769.227-1.564.457-2.382.676-.153.036-.3.081-.461.128-.225.06-.461.123-.7.183-.178.049-.342.087-.512.13-.227.059-.463.115-.7.178-.213.055-.427.106-.633.157-.376.091-.75.183-1.126.27-.208.051-.427.1-.65.147-.1.03-.191.045-.291.07-2.193.5-4.52.965-6.985,1.388-.055.009-.106.017-.172.03-.444.072-.9.149-1.343.223-.117.015-.23.032-.34.047-.476.079-.958.153-1.439.221-.038.009-.079.009-.113.019h0c-2.644.376-5.432.714-8.362.971h-.042c-.442.038-.89.079-1.343.108a.859.859,0,0,1-.149.013q-.676.054-1.368.1a1.017,1.017,0,0,0-.121.011c-.47.03-.941.064-1.417.087a.781.781,0,0,1-.108.011c-.48.028-.958.051-1.449.07h-.057q-3.694.185-7.635.185v0c-.074,0-.142,0-.219,0-.574,0-1.164,0-1.749-.009-.119,0-.244,0-.372,0-2.112-.03-4.29-.108-6.5-.219h-.045v-.013q-5.046-.258-10.427-.865l4.133-3.876A55.87,55.87,0,0,0,181.845,237c-.629-3.742-1.181-7.034-1.271-7.518h-6.479c-.372.812-7.758,17.47-8.636,19.374h5.2c.274-.648,2.021-4.817,2.021-4.817h5.412s.529,4.052.64,4.817h5.123c-.11-.625-.608-3.549-1.175-6.938,3.642.2,7.306.247,10.71.189a1.735,1.735,0,0,1,.268.931,1.682,1.682,0,0,1-.04.355,1.518,1.518,0,0,1-.65,1.041,3.286,3.286,0,0,1-2.412.268,8.2,8.2,0,0,1-4.029-2.584c-.667,1.086-2.057,3.353-2.512,4.093a11.821,11.821,0,0,0,6.294,3.168A8.354,8.354,0,0,0,196.465,248a6.767,6.767,0,0,0,2.641-4.516,7.111,7.111,0,0,0,.1-1.539c3.655-.161,6.685-.385,8.634-.553a2.033,2.033,0,0,1,.969,1.651,2.857,2.857,0,0,1-.03.355,1.578,1.578,0,0,1-.663,1.041,3.276,3.276,0,0,1-2.408.268,8.138,8.138,0,0,1-4.025-2.584c-.667,1.086-2.059,3.353-2.516,4.093a11.815,11.815,0,0,0,6.292,3.168,8.307,8.307,0,0,0,6.15-1.385,6.71,6.71,0,0,0,2.654-4.516,6.466,6.466,0,0,0-.119-2.833c.829-.115,1.623-.24,2.384-.366-.582,4.065-1.126,7.873-1.237,8.577H227.8c.123-.852.442-3.094.6-4.186h-7.58l.514-3.572h6.87c.11-.748.353-2.442.514-3.551.937-.291,1.407-.472,1.407-.472s2.325-.7,5.334-1.813c-.434,3.037-1.762,12.312-1.942,13.594h5.414c.168-1.143,2.093-14.554,2.093-14.554h3.921c.115-.831.489-3.494.661-4.7a69.528,69.528,0,0,1-11.352,4.7" transform="translate(-3.713 -182.893)" fill="#00427a"/><path d="M185.868,238.513a8.183,8.183,0,0,0-1.645-.967l-1.409-.708-.023-.009-.019-.015c-.453-.259-1.509-.875-1.509-1.908a1.58,1.58,0,0,1,.55-1.243,2.2,2.2,0,0,1,1.838-.374,6.786,6.786,0,0,1,3.128,1.725c.55-1.058,1.6-3.071,1.974-3.791a8.912,8.912,0,0,0-4.52-2.019,8.377,8.377,0,0,0-6.254,1.371,6.306,6.306,0,0,0-2.416,4.382,6.884,6.884,0,0,0-.051.9,5.432,5.432,0,0,0,.453,2.272c.111.006.23.011.336.017,2.425.185,5.746.34,9.567.365" transform="translate(7.598 -183.327)" fill="#00427a"/><path d="M195.119,233.664H202.5c.119-.85.44-3.094.6-4.178H190.79c-.07.5-.546,3.8-1.079,7.544,1.7-.215,3.383-.465,5.036-.761Z" transform="translate(23.571 -182.891)" fill="#00427a"/><path d="M134.251,243.137a2.6,2.6,0,0,0-1.91-.627,2.921,2.921,0,0,0-1.294.287,2.176,2.176,0,0,0-.912.8h-.008v-.961h-1.152v7h1.152V246.01a3.077,3.077,0,0,1,.485-1.94,1.892,1.892,0,0,1,1.56-.6,1.511,1.511,0,0,1,1.186.417,1.824,1.824,0,0,1,.387,1.273v4.469h1.131v-4.554a2.659,2.659,0,0,0-.623-1.942" transform="translate(-44.757 -168.239)" fill="#00427a"/><path d="M141.33,243.137a2.6,2.6,0,0,0-1.91-.627,2.912,2.912,0,0,0-1.292.287,2.145,2.145,0,0,0-.91.8H137.2v-.961h-1.147v7H137.2V246.01a3.076,3.076,0,0,1,.487-1.94,1.9,1.9,0,0,1,1.566-.6,1.519,1.519,0,0,1,1.184.417,1.834,1.834,0,0,1,.38,1.273v4.469h1.133v-4.554a2.659,2.659,0,0,0-.623-1.942" transform="translate(-36.791 -168.239)" fill="#00427a"/><path d="M172.97,243.137a2.6,2.6,0,0,0-1.91-.627,2.912,2.912,0,0,0-1.292.287,2.145,2.145,0,0,0-.909.8h-.017v-.961H167.7v7h1.143V246.01a3.089,3.089,0,0,1,.489-1.94,1.909,1.909,0,0,1,1.566-.6,1.519,1.519,0,0,1,1.184.417,1.834,1.834,0,0,1,.382,1.273v4.469h1.131v-4.554a2.65,2.65,0,0,0-.623-1.942" transform="translate(-1.194 -168.239)" fill="#00427a"/><path d="M142.836,243.517a4.474,4.474,0,0,1,1.511.327v0c.185.066.351.128.351.128v-1.08a3.319,3.319,0,0,0-.825-.27,4.615,4.615,0,0,0-1.009-.106,3.084,3.084,0,0,0-2.427.952,3.951,3.951,0,0,0-.848,2.707,3.833,3.833,0,0,0,.842,2.665,3.015,3.015,0,0,0,2.348.924,4.455,4.455,0,0,0,1.919-.434v-1.022a4.88,4.88,0,0,1-1.927.468,1.745,1.745,0,0,1-1.5-.672,3.2,3.2,0,0,1-.5-1.94,3.273,3.273,0,0,1,.5-1.983,1.824,1.824,0,0,1,1.562-.663" transform="translate(-32.817 -168.235)" fill="#00427a"/><path d="M125.615,250.794h-1.174v-9.316h5.2v1.033h-4.03v3.3H129.4v1.024h-3.782Z" transform="translate(-49.859 -169.4)" fill="#00427a"/><path d="M127.43,242.065a.693.693,0,0,1,.2-.55.675.675,0,0,1,1.145.55.712.712,0,0,1-.2.557.718.718,0,0,1-.948,0,.727.727,0,0,1-.2-.557m1.239,8.889h-1.15v-7h1.15Z" transform="translate(-46.496 -169.558)" fill="#00427a"/><path d="M145.821,249.756a3.2,3.2,0,0,1-2.465-.952,3.642,3.642,0,0,1-.9-2.616,4.056,4.056,0,0,1,.835-2.684,2.794,2.794,0,0,1,2.255-.992,2.715,2.715,0,0,1,2.1.848,3.273,3.273,0,0,1,.782,2.3v.7h-4.788a2.675,2.675,0,0,0,.6,1.808,2.108,2.108,0,0,0,1.626.62,5.671,5.671,0,0,0,1.063-.1,5.849,5.849,0,0,0,1.179-.387v1.007a5.668,5.668,0,0,1-1.086.351,6.444,6.444,0,0,1-1.207.1m-.285-6.313a1.672,1.672,0,0,0-1.3.533,2.492,2.492,0,0,0-.569,1.468h3.564a2.262,2.262,0,0,0-.455-1.49,1.549,1.549,0,0,0-1.239-.512" transform="translate(-29.59 -168.237)" fill="#00427a"/><path d="M133.092,244.231a6.677,6.677,0,0,1,1.277-.578,4.274,4.274,0,0,1,1.175-.213,1.419,1.419,0,0,1,1.1.376,1.71,1.71,0,0,1,.346,1.175v.414l-1.186.045q-3.36.1-3.355,2.231a1.985,1.985,0,0,0,.582,1.53,2.32,2.32,0,0,0,1.621.542,3.205,3.205,0,0,0,1.309-.236,2.394,2.394,0,0,0,1.014-.714v.822h1.137V244.86a2.288,2.288,0,0,0-.621-1.785,2.744,2.744,0,0,0-1.885-.561,6.109,6.109,0,0,0-1.364.212,5.216,5.216,0,0,0-1.154.44v1.065m3.338,4.078a2.128,2.128,0,0,1-1.513.516,1.385,1.385,0,0,1-.944-.289,1.069,1.069,0,0,1-.329-.844,1.153,1.153,0,0,1,.55-1.062,3.709,3.709,0,0,1,1.755-.383l1.028-.045v.631a1.933,1.933,0,0,1-.548,1.475" transform="translate(-40.846 -168.235)" fill="#00427a"/><path d="M164.736,244.231a6.618,6.618,0,0,1,1.277-.578,4.259,4.259,0,0,1,1.173-.213,1.419,1.419,0,0,1,1.1.376,1.71,1.71,0,0,1,.346,1.175v.414l-1.188.045q-3.356.1-3.355,2.231a1.985,1.985,0,0,0,.582,1.53,2.326,2.326,0,0,0,1.624.542,3.194,3.194,0,0,0,1.307-.236,2.4,2.4,0,0,0,1.016-.714v.822h1.135V244.86a2.3,2.3,0,0,0-.618-1.785,2.746,2.746,0,0,0-1.883-.561,6.071,6.071,0,0,0-1.364.212,5.177,5.177,0,0,0-1.154.44v1.065m3.336,4.078a2.135,2.135,0,0,1-1.513.516,1.389,1.389,0,0,1-.944-.289,1.069,1.069,0,0,1-.329-.844,1.152,1.152,0,0,1,.548-1.062,3.713,3.713,0,0,1,1.757-.383l1.029-.045v.631a1.933,1.933,0,0,1-.548,1.475" transform="translate(-5.251 -168.235)" fill="#00427a"/><path d="M176.3,242.57l-1.424,3.972c-.091.261-.2.606-.34,1.039-.076.234-.132.421-.176.576l-2.044-5.087-.189-.5H170.9l2.813,7.025-.361.931a2.064,2.064,0,0,1-.627.931,1.426,1.426,0,0,1-.926.3,3.292,3.292,0,0,1-.765-.074v.909a4.222,4.222,0,0,0,.948.108,2.268,2.268,0,0,0,1.5-.5,3.956,3.956,0,0,0,1.048-1.662l3.013-7.969Z" transform="translate(2.405 -168.172)" fill="#00427a"/><path d="M157.648,246.123a3.9,3.9,0,0,1-.867,2.694,3.074,3.074,0,0,1-2.414.965,3.2,3.2,0,0,1-1.691-.444,2.862,2.862,0,0,1-1.133-1.279,4.377,4.377,0,0,1-.4-1.936,3.883,3.883,0,0,1,.852-2.673,3.083,3.083,0,0,1,2.414-.96,3.007,3.007,0,0,1,2.361.978,3.835,3.835,0,0,1,.873,2.656m-5.31,0a3.343,3.343,0,0,0,.519,2.021,2.072,2.072,0,0,0,3.077,0,3.3,3.3,0,0,0,.525-2.021,3.209,3.209,0,0,0-.529-2,1.858,1.858,0,0,0-1.545-.667q-2.046,0-2.046,2.665" transform="translate(-19.813 -168.263)" fill="#00427a"/><path d="M164.471,243.105a2.373,2.373,0,0,0-1.789-.616,2.868,2.868,0,0,0-1.326.306,2.384,2.384,0,0,0-.927.875h-.059a2.09,2.09,0,0,0-2.157-1.181,2.6,2.6,0,0,0-1.23.289,2.092,2.092,0,0,0-.846.8h-.011v-.963h-1.158v7.042h1.158v-3.653a3.3,3.3,0,0,1,.451-1.953,1.667,1.667,0,0,1,1.424-.6,1.349,1.349,0,0,1,1.09.416,1.9,1.9,0,0,1,.355,1.25v4.537h1.15V245.77a2.75,2.75,0,0,1,.453-1.74,1.763,1.763,0,0,1,1.447-.574q1.431,0,1.432,1.666v4.537h1.139v-4.586a2.756,2.756,0,0,0-.6-1.968" transform="translate(-15.515 -168.263)" fill="#00427a"/><path d="M151.849,242.449a2.937,2.937,0,0,0-2.361,1.005,4.075,4.075,0,0,0-.863,2.752,4.16,4.16,0,0,0,.837,2.784,2.941,2.941,0,0,0,2.374.975,7.849,7.849,0,0,0,2.238-.37v1.02a5.449,5.449,0,0,1-1.141.3,8.923,8.923,0,0,1-1.262.079,4.03,4.03,0,0,1-3.171-1.247,5.2,5.2,0,0,1-1.107-3.549,5.738,5.738,0,0,1,.527-2.525A3.843,3.843,0,0,1,149.469,242a4.707,4.707,0,0,1,2.395-.586,5.705,5.705,0,0,1,2.576.548l-.476.994a5.065,5.065,0,0,0-2.114-.51" transform="translate(-24.037 -169.47)" fill="#00427a"/><path d="M166.1,243.468a2.591,2.591,0,0,0-2.131-.954,2.829,2.829,0,0,0-1.241.261,2.493,2.493,0,0,0-.95.831v-.96h-1.145v10.172h1.145v-4.033a2.841,2.841,0,0,0,4.314.051,5.127,5.127,0,0,0,.008-5.368m-.933,4.664a1.576,1.576,0,0,1-1.377.716,1.806,1.806,0,0,1-1.539-.64,3.524,3.524,0,0,1-.474-2.063v-.221a3.047,3.047,0,0,1,.478-1.851,1.809,1.809,0,0,1,1.507-.589,1.627,1.627,0,0,1,1.4.684,3.313,3.313,0,0,1,.5,1.966,3.5,3.5,0,0,1-.5,2" transform="translate(-9.139 -168.235)" fill="#00427a"/></g></svg>