<svg id="techcombank" xmlns="http://www.w3.org/2000/svg" xmlns:xlink="http://www.w3.org/1999/xlink" width="104" height="52" viewBox="0 0 104 52">
  <defs>
    <clipPath id="clip-path">
      <rect id="Rectangle_5138" data-name="Rectangle 5138" width="78.239" height="35.43" fill="none"/>
    </clipPath>
  </defs>
  <g id="boundingbox" fill="rgba(255,0,0,0.1)" stroke="red" stroke-width="1" stroke-dasharray="4 4" opacity="0">
    <rect width="104" height="52" stroke="none"/>
    <rect x="0.5" y="0.5" width="103" height="51" fill="none"/>
  </g>
  <g id="Group_10346" data-name="Group 10346" transform="translate(12.73 8.267)">
    <path id="Path_16723" data-name="Path 16723" d="M49.243,0,38.652,10.592,49.243,21.149,54.5,15.887l-5.261-5.295L54.5,5.3ZM59.8,0,54.5,5.3l5.3,5.3-5.3,5.295,5.3,5.262L70.357,10.592Z" transform="translate(-15.384 0)" fill="#ed1c24"/>
    <path id="Path_16724" data-name="Path 16724" d="M0,46.882v1.64H1.572v5.4H3.484v-5.4H5.056v-1.64Z" transform="translate(0 -18.66)" fill="#ed1c24"/>
    <g id="Group_10349" data-name="Group 10349" transform="translate(0 0)">
      <g id="Group_10348" data-name="Group 10348" clip-path="url(#clip-path)">
        <path id="Path_16725" data-name="Path 16725" d="M22.374,46.6a3.534,3.534,0,0,0-1.4.24,2.923,2.923,0,0,0-1.128.784,3.126,3.126,0,0,0-.819,1.2,4.012,4.012,0,0,0-.24,1.469A3.94,3.94,0,0,0,19.2,52.1a3.477,3.477,0,0,0,1.2,1.332,3,3,0,0,0,.889.409,3.7,3.7,0,0,0,1.094.137,3.95,3.95,0,0,0,.889-.1,3.439,3.439,0,0,0,.923-.341V51.449a3.38,3.38,0,0,1-.786.65,1.878,1.878,0,0,1-.855.2,1.837,1.837,0,0,1-1.333-.581,1.969,1.969,0,0,1-.512-1.4,2.085,2.085,0,0,1,.512-1.469,1.737,1.737,0,0,1,1.333-.58,1.856,1.856,0,0,1,.855.205,3.3,3.3,0,0,1,.786.648V47.043a3.343,3.343,0,0,0-.923-.342,3.916,3.916,0,0,0-.889-.1" transform="translate(-7.478 -18.547)" fill="#ed1c24"/>
        <path id="Path_16726" data-name="Path 16726" d="M9.989,53.919H14.3V52.348H11.869V51.153h2.288v-1.5H11.869V48.418H14.3V46.882H9.989Z" transform="translate(-3.976 -18.66)" fill="#ed1c24"/>
        <path id="Path_16727" data-name="Path 16727" d="M34.045,49.615H31.483V46.882H29.57v7.037h1.914V51.05h2.562v2.869h1.913V46.882H34.045Z" transform="translate(-11.769 -18.66)" fill="#ed1c24"/>
        <path id="Path_16728" data-name="Path 16728" d="M45.757,46.6a3.777,3.777,0,0,0-1.4.24,3.544,3.544,0,0,0-1.128.784,3.486,3.486,0,0,0-.786,1.2,4.034,4.034,0,0,0-.273,1.469,3.947,3.947,0,0,0,.409,1.811,3.551,3.551,0,0,0,1.231,1.332,2.972,2.972,0,0,0,.889.409,3.6,3.6,0,0,0,1.058.137,4.263,4.263,0,0,0,.923-.1,3.439,3.439,0,0,0,.923-.341V51.449a4.254,4.254,0,0,1-.786.65,1.87,1.87,0,0,1-.855.2,1.726,1.726,0,0,1-1.331-.581,1.964,1.964,0,0,1-.513-1.4,2.08,2.08,0,0,1,.513-1.469,1.731,1.731,0,0,1,1.331-.58,1.848,1.848,0,0,1,.855.205,4.136,4.136,0,0,1,.786.648V47.043a3.343,3.343,0,0,0-.923-.342,4.226,4.226,0,0,0-.923-.1" transform="translate(-16.785 -18.547)" fill="#ed1c24"/>
        <path id="Path_16729" data-name="Path 16729" d="M73.68,46.882H71.8L70.709,50.5a3.954,3.954,0,0,0-.137.546,1.711,1.711,0,0,0-.068.411,4.772,4.772,0,0,0-.206-.821c0-.067-.034-.1-.034-.135l-1.058-3.621H67.292l-1.06,7.037H68.01l.411-3.041c.034-.273.067-.512.1-.786a6.1,6.1,0,0,1,.07-.786A6.3,6.3,0,0,0,68.83,50.4a1.35,1.35,0,0,1,.069.205l.957,3.313h1.3l.957-3.313a1.2,1.2,0,0,0,.034-.205,7.2,7.2,0,0,0,.273-1.094c.034.308.034.582.069.854a5.709,5.709,0,0,1,.068.718L73,53.919h1.778Z" transform="translate(-26.362 -18.66)" fill="#ed1c24"/>
        <path id="Path_16730" data-name="Path 16730" d="M58.922,47.69a3.908,3.908,0,0,0-1.23-.82,3.914,3.914,0,0,0-2.871,0,3.912,3.912,0,0,0-1.229.82,3.143,3.143,0,0,0-.82,1.2,3.212,3.212,0,0,0-.273,1.4,3.364,3.364,0,0,0,.273,1.435,3.13,3.13,0,0,0,.82,1.2,3.283,3.283,0,0,0,1.229.786,3.906,3.906,0,0,0,2.871,0,3.281,3.281,0,0,0,1.23-.786,3.123,3.123,0,0,0,.82-1.2,3.967,3.967,0,0,0,.273-1.435,3.785,3.785,0,0,0-.273-1.4,3.276,3.276,0,0,0-.82-1.2m-1.332,4.1a1.784,1.784,0,0,1-1.332.581,1.736,1.736,0,0,1-1.333-.581,2.231,2.231,0,0,1-.512-1.5,2.141,2.141,0,0,1,.512-1.469,1.677,1.677,0,0,1,1.333-.582,1.721,1.721,0,0,1,1.332.582,2.2,2.2,0,0,1,.512,1.469,2.231,2.231,0,0,1-.512,1.5" transform="translate(-20.896 -18.547)" fill="#ed1c24"/>
        <path id="Path_16731" data-name="Path 16731" d="M122.775,50.332l2.6-3.45H123.15l-2.254,3.21v-3.21h-1.879v7.037H120.9V50.777l2.324,3.142h2.39Z" transform="translate(-47.372 -18.66)" fill="#231f20"/>
        <path id="Path_16732" data-name="Path 16732" d="M110.077,50.366c0,.171.036.375.036.615.034.205.069.479.1.752a8.239,8.239,0,0,0-.41-.786c-.1-.205-.205-.375-.239-.444L106.9,46.882h-1.846v7.037H106.9V50.435a3.514,3.514,0,0,0-.034-.582,6.644,6.644,0,0,0-.069-.784c.137.274.238.546.375.784.1.205.205.377.24.445l2.664,3.621h1.846V46.882h-1.846Z" transform="translate(-41.815 -18.66)" fill="#231f20"/>
        <path id="Path_16733" data-name="Path 16733" d="M95.487,46.882H94.256l-2.425,7.037h1.913l.376-1.264h2.7l.374,1.264h1.914l-2.426-7.037Zm0,4.407H94.53l.684-2.323a2.229,2.229,0,0,0,.136-.444,2.757,2.757,0,0,1,.137-.513v.034a5.261,5.261,0,0,0,.135.581,1.427,1.427,0,0,0,.1.343l.718,2.323Z" transform="translate(-36.551 -18.66)" fill="#231f20"/>
        <path id="Path_16734" data-name="Path 16734" d="M86.021,50.128a1.828,1.828,0,0,0,.99-.547,1.337,1.337,0,0,0,.308-.957,1.628,1.628,0,0,0-.205-.82,1.594,1.594,0,0,0-.581-.58,2.837,2.837,0,0,0-.82-.273,7.025,7.025,0,0,0-1.024-.068H82.126V53.92h2.563a8.437,8.437,0,0,0,1.126-.067,2.765,2.765,0,0,0,.889-.274,1.473,1.473,0,0,0,.681-.683,1.842,1.842,0,0,0,.24-.991,1.782,1.782,0,0,0-.409-1.23,1.589,1.589,0,0,0-1.2-.547M83.9,48.283h.787a1.787,1.787,0,0,1,.579.136.662.662,0,0,1,.24.582.622.622,0,0,1-.273.546,1.564,1.564,0,0,1-.546.137H83.9Zm1.606,4.031a1.619,1.619,0,0,1-.819.171H83.9V50.948h.787a1.678,1.678,0,0,1,.853.172.75.75,0,0,1,.273.615.6.6,0,0,1-.308.58" transform="translate(-32.688 -18.66)" fill="#231f20"/>
      </g>
    </g>
  </g>
</svg>
