<?xml version="1.0" encoding="utf-8"?>
<svg version="1.1" xmlns:xlink="http://www.w3.org/1999/xlink" width="15px" height="13px" xmlns="http://www.w3.org/2000/svg">
  <g transform="matrix(1 0 0 1 -119 -256 )">
    <path d="M 6.99551569506727 9.75  L 7.46636771300448 9.75  L 8.44170403587444 8.67897727272727  L 7.16367713004484 7.27556818181818  L 6.18834080717489 8.34659090909091  L 6.18834080717489 8.86363636363637  L 6.99551569506727 8.86363636363637  L 6.99551569506727 9.75  Z M 11.1575112107623 3.40696022727273  C 11.252802690583 3.30232007575757  11.2556053811659 3.20075757575757  11.1659192825112 3.10227272727273  C 11.0762331838565 3.00378787878788  10.9837443946188 3.00686553030303  10.8884529147982 3.11150568181818  L 7.94562780269058 6.34303977272727  C 7.85033632286996 6.44767992424242  7.847533632287 6.54924242424242  7.9372197309417 6.64772727272727  C 8.02690582959641 6.74621212121212  8.11939461883408 6.74313446969697  8.21468609865471 6.63849431818182  L 11.1575112107623 3.40696022727273  Z M 11.6704035874439 8.31889204545455  C 11.7825112107623 8.36813446969697  11.8385650224215 8.45738636363637  11.8385650224215 8.58664772727273  L 11.8385650224215 10.3409090909091  C 11.8385650224215 11.0733901515152  11.6017376681614 11.6996922348485  11.1280829596413 12.2198153409091  C 10.6544282511211 12.7399384469697  10.0840807174888 13  9.41704035874439 13  L 2.42152466367713 13  C 1.75448430493274 13  1.18413677130045 12.7399384469697  0.710482062780269 12.2198153409091  C 0.23682735426009 11.6996922348485  0 11.0733901515152  0 10.3409090909091  L 0 2.65909090909091  C 0 1.92660984848485  0.23682735426009 1.30030776515151  0.710482062780269 0.78018465909091  C 1.18413677130045 0.260061553030302  1.75448430493274 0  2.42152466367713 0  L 9.41704035874439 0  C 9.77017937219731 0  10.0980941704036 0.0769412878787872  10.4007847533632 0.230823863636363  C 10.484865470852 0.273910984848484  10.5353139013453 0.344696969696969  10.5521300448431 0.443181818181818  C 10.5689461883408 0.547821969696969  10.5437219730942 0.637073863636363  10.4764573991031 0.7109375  L 10.0644618834081 1.16335227272727  C 9.9859865470852 1.24952651515151  9.89630044843049 1.27414772727273  9.79540358744395 1.23721590909091  C 9.6664798206278 1.20028409090909  9.54035874439462 1.18181818181818  9.41704035874439 1.18181818181818  L 2.42152466367713 1.18181818181818  C 2.05156950672646 1.18181818181818  1.73486547085202 1.3264678030303  1.47141255605381 1.61576704545455  C 1.20795964125561 1.90506628787879  1.0762331838565 2.25284090909091  1.0762331838565 2.65909090909091  L 1.0762331838565 10.3409090909091  C 1.0762331838565 10.7471590909091  1.20795964125561 11.0949337121212  1.47141255605381 11.3842329545455  C 1.73486547085202 11.6735321969697  2.05156950672646 11.8181818181818  2.42152466367713 11.8181818181818  L 9.41704035874439 11.8181818181818  C 9.78699551569507 11.8181818181818  10.1036995515695 11.6735321969697  10.3671524663677 11.3842329545455  C 10.6306053811659 11.0949337121212  10.762331838565 10.7471590909091  10.762331838565 10.3409090909091  L 10.762331838565 9.17755681818182  C 10.762331838565 9.09753787878788  10.7875560538117 9.02982954545455  10.8380044843049 8.97443181818182  L 11.3761210762332 8.38352272727273  C 11.460201793722 8.29119318181818  11.5582959641256 8.26964962121212  11.6704035874439 8.31889204545455  Z M 5.38116591928251 7.97727272727273  L 11.0313901345291 1.77272727272727  L 13.4529147982063 4.43181818181818  L 7.80269058295964 10.6363636363636  L 5.38116591928251 10.6363636363636  L 5.38116591928251 7.97727272727273  Z M 15 2.36363636363636  C 15 2.60984848484848  14.9215246636771 2.81912878787879  14.7645739910314 2.99147727272727  L 13.9910313901345 3.84090909090909  L 11.5695067264574 1.18181818181818  L 12.3430493273543 0.332386363636363  C 12.5 0.160037878787878  12.6905829596413 0.073863636363637  12.914798206278 0.073863636363637  C 13.1390134529148 0.073863636363637  13.3295964125561 0.160037878787878  13.4865470852018 0.332386363636363  L 14.7645739910314 1.73579545454545  C 14.9215246636771 1.90814393939394  15 2.11742424242424  15 2.36363636363636  Z " fill-rule="nonzero" fill="#2262ae" stroke="none" transform="matrix(1 0 0 1 119 256 )" />
  </g>
</svg>