<?xml version="1.0" encoding="utf-8"?>
<svg version="1.1" xmlns:xlink="http://www.w3.org/1999/xlink" width="22px" height="15px" xmlns="http://www.w3.org/2000/svg">
  <g transform="matrix(1 0 0 1 -1084 -83 )">
    <path d="M 8.73132664437012 4.27380952380952  L 8.73132664437012 10.2619047619048  L 14.6666666666667 7.28571428571429  L 8.73132664437012 4.27380952380952  Z M 3.31103678929766 0.214285714285714  C 5.36306205871423 0.0714285714285712  7.92604979561501 0  11 0  C 12.3734671125975 0  13.6999256781865 0.0178571428571428  14.979375696767 0.0535714285714284  C 16.2588257153475 0.089285714285714  17.1969528056485 0.126984126984126  17.79375696767 0.166666666666666  L 18.6889632107023 0.214285714285714  C 18.6971386101821 0.214285714285714  18.7666295057599 0.220238095238094  18.8974358974359 0.232142857142856  C 19.0282422891119 0.24404761904762  19.122259383129 0.255952380952382  19.1794871794872 0.267857142857144  C 19.2367149758454 0.279761904761905  19.3327759197324 0.297619047619048  19.4676700111483 0.321428571428572  C 19.6025641025641 0.345238095238096  19.7190635451505 0.376984126984125  19.8171683389075 0.416666666666667  C 19.9152731326644 0.456349206349205  20.0297287253809 0.507936507936506  20.1605351170569 0.571428571428571  C 20.2913415087328 0.634920634920633  20.4180602006689 0.712301587301587  20.5406911928651 0.803571428571429  C 20.6633221850613 0.894841269841268  20.7818654775177 1  20.8963210702341 1.11904761904762  C 20.9453734671126 1.16666666666667  21.0087328130806 1.24007936507936  21.0863991081382 1.33928571428571  C 21.1640654031958 1.43849206349206  21.2826086956522 1.67063492063492  21.4420289855072 2.03571428571429  C 21.6014492753623 2.40079365079365  21.709773318469 2.8015873015873  21.7670011148272 3.23809523809524  C 21.8324043106652 3.74603174603175  21.8835005574136 4.28769841269841  21.9202898550725 4.86309523809524  C 21.9570791527313 5.43849206349206  21.9795615013006 5.88888888888889  21.9877369007804 6.21428571428571  L 21.9877369007804 6.69047619047619  L 21.9877369007804 8.30952380952381  C 21.9959123002601 9.46031746031746  21.9223337049424 10.6111111111111  21.7670011148272 11.7619047619048  C 21.709773318469 12.1984126984127  21.6075808249721 12.593253968254  21.4604236343367 12.9464285714286  C 21.3132664437012 13.2996031746032  21.1824600520253 13.5436507936508  21.0680044593088 13.6785714285714  L 20.8963210702341 13.8809523809524  C 20.7818654775177 14  20.6633221850613 14.1051587301587  20.5406911928651 14.1964285714286  C 20.4180602006689 14.2876984126984  20.2913415087328 14.3630952380952  20.1605351170569 14.422619047619  C 20.0297287253809 14.4821428571429  19.9152731326644 14.531746031746  19.8171683389075 14.5714285714286  C 19.7190635451505 14.6111111111111  19.6025641025641 14.6428571428571  19.4676700111483 14.6666666666667  C 19.3327759197324 14.6904761904762  19.2346711259755 14.7083333333333  19.1733556298774 14.7202380952381  C 19.1120401337793 14.7321428571429  19.0180230397622 14.7440476190476  18.8913043478261 14.7559523809524  C 18.76458565589 14.7678571428571  18.6971386101821 14.7738095238095  18.6889632107023 14.7738095238095  C 16.6369379412858 14.9246031746032  14.073950204385 15  11 15  C 9.30769230769231 14.984126984127  7.83816425120773 14.9583333333333  6.59141583054627 14.922619047619  C 5.3446674098848 14.8869047619048  4.52508361204013 14.8571428571429  4.13266443701226 14.8333333333333  L 3.53177257525084 14.7857142857143  L 3.09030100334448 14.7380952380952  C 2.79598662207358 14.6984126984127  2.57320698625046 14.6587301587302  2.42196209587514 14.6190476190476  C 2.27071720549981 14.5793650793651  2.06224451876626 14.4960317460317  1.79654403567447 14.3690476190476  C 1.53084355258268 14.2420634920635  1.29988851727982 14.0793650793651  1.10367892976589 13.8809523809524  C 1.0546265328874 13.8333333333333  0.991267186919361 13.7599206349206  0.913600891861762 13.6607142857143  C 0.835934596804162 13.5615079365079  0.717391304347826 13.3293650793651  0.557971014492754 12.9642857142857  C 0.398550724637681 12.5992063492063  0.290226681531029 12.1984126984127  0.232998885172798 11.7619047619048  C 0.16759568933482 11.2539682539683  0.116499442586399 10.7123015873016  0.0797101449275362 10.1369047619048  C 0.0429208472686734 9.56150793650793  0.0204384986993683 9.11111111111111  0.012263099219621 8.78571428571428  L 0.012263099219621 8.30952380952381  L 0.012263099219621 6.69047619047619  C 0.00408769973987365 5.53968253968254  0.0776662950575994 4.38888888888889  0.232998885172798 3.23809523809524  C 0.290226681531029 2.8015873015873  0.392419175027871 2.40674603174603  0.539576365663322 2.05357142857143  C 0.686733556298774 1.70039682539682  0.817539947974731 1.45634920634921  0.931995540691193 1.32142857142857  L 1.10367892976589 1.11904761904762  C 1.21813452248235 1  1.33667781493868 0.894841269841268  1.45930880713489 0.803571428571429  C 1.5819397993311 0.712301587301587  1.70865849126719 0.634920634920633  1.83946488294314 0.571428571428571  C 1.9702712746191 0.507936507936506  2.08472686733556 0.456349206349205  2.18283166109253 0.416666666666667  C 2.2809364548495 0.376984126984125  2.3974358974359 0.345238095238096  2.53232998885173 0.321428571428572  C 2.66722408026756 0.297619047619048  2.76328502415459 0.279761904761905  2.82051282051282 0.267857142857144  C 2.87774061687105 0.255952380952382  2.97175771088815 0.24404761904762  3.1025641025641 0.232142857142856  C 3.23337049424006 0.220238095238094  3.30286138981791 0.214285714285714  3.31103678929766 0.214285714285714  Z " fill-rule="nonzero" fill="#ff0303" stroke="none" transform="matrix(1 0 0 1 1084 83 )" />
  </g>
</svg>