<?xml version="1.0" encoding="utf-8"?>
<!-- Generator: Adobe Illustrator 24.1.3, SVG Export Plug-In . SVG Version: 6.00 Build 0)  -->
<svg version="1.1" id="Layer_1" xmlns="http://www.w3.org/2000/svg" xmlns:xlink="http://www.w3.org/1999/xlink" x="0px" y="0px"
	viewBox="0 0 317.2 95.1" style="enable-background:new 0 0 317.2 95.1;" xml:space="preserve">
<style type="text/css">
	.st0{fill: #1e41af;}
</style>
<g>
	<g>
		<g>
			<path class="st0" d="M90.8,52c3.5,6.2,7.1,11.7,9.8,17.7c4.4,9.7-2.9,20.7-13.8,20.9c-11.8,0.2-23.7,0.2-35.5,0
				c-11-0.1-17.6-12.2-12-21.7c0.4-0.8,1.8-1.4,2.7-1.4c9.9-0.1,19.7-0.1,29.6-0.1c9.8,0,15.9-4.6,18.7-14
				C90.4,53.2,90.5,52.9,90.8,52z"/>
			<path class="st0" d="M39.6,90.3c-6.8,0-13.8,0.8-20.5-0.2c-9.7-1.4-15-12.8-10.3-21.3c5.9-10.9,12.1-21.6,18.5-32.2
				c5.5-9,18.6-8.7,24.2,0.2c0.7,1.1,0.8,1.9,0.1,3.1c-4.9,8.4-9.6,17.1-14.8,25.4c-5.3,8.4-3.8,18.8,2.5,24.6
				C39.5,89.9,39.5,90.2,39.6,90.3z"/>
			<path class="st0" d="M32.5,27.3c3.3-5.7,6.1-11,9.4-16c5.9-9.1,19.4-9.2,25.1,0c6.5,10.4,12.6,21,18.3,31.7
				c4.8,9-1.5,19.9-11.5,20.7c-1.6,0.1-2.6-0.2-3.5-1.8c-4.8-8.6-9.8-17.1-14.7-25.6c-4.7-8.3-12.5-11.6-21.7-9.2
				C33.6,27.1,33.3,27.1,32.5,27.3z"/>
		</g>
	</g>
	<g>
		<path class="st0" d="M147.3,18c-6.6,0-11.9,2.3-15.7,6.9c-3.5,4.2-5.2,9.6-5.2,16.2v38.4h8.9V52.1h24.2v27.4h8.9V41.1
			c0-6.5-1.7-12-5.2-16.2C159.2,20.3,153.9,18,147.3,18z M135.1,42.3c0-14.1,6.9-15.7,12.1-15.7c5.2,0,12.1,1.6,12.1,15.7v1.3h-24.2
			V42.3z"/>
		<path class="st0" d="M199,48.5c1.5-1.8,2.3-3.7,2.3-5.5c0-1.4-0.6-6.2-7.9-6.2h-21.8v8.4l19,0l-18.3,22.2c-1.7,2.1-2.6,4-2.6,5.7
			c0,1.5,0.5,6.4,7.4,6.4h25.2v-8.6l-21.7,0L199,48.5z"/>
		<path class="st0" d="M222.9,36.1c-6,0-11.2,2.2-15.3,6.5c-4.1,4.3-6.2,9.5-6.2,15.5c0,6,2.1,11.2,6.2,15.4
			c4.2,4.4,9.3,6.6,15.3,6.6c6,0,11.2-2.2,15.3-6.5c4.1-4.3,6.2-9.5,6.2-15.5c0-6-2.1-11.2-6.1-15.5
			C234.1,38.3,228.9,36.1,222.9,36.1z M232,67.7c-2.4,2.7-5.4,4-9.1,4c-3.7,0-6.7-1.3-9.1-4c-2.4-2.7-3.6-5.8-3.6-9.6s1.2-7,3.6-9.6
			c2.5-2.7,5.5-4,9.1-4c3.7,0,6.7,1.3,9.1,4c2.4,2.6,3.6,5.8,3.6,9.6C235.6,61.9,234.4,65,232,67.7z"/>
		<path class="st0" d="M254.8,63.4V45.3H268v-8.5h-13.2V26.3h-8.6v37.5c0,10.1,6.2,15.7,17.4,15.7h4.4V71h-4.9
			C257.3,71,254.8,68.8,254.8,63.4z"/>
		<path class="st0" d="M309.5,52.7c-1-4.8-3.5-8.9-7.4-11.9c-3.9-3.1-8.4-4.6-13.3-4.6c-6.2,0-11.4,2.2-15.5,6.4
			c-3.9,4.1-5.9,9.4-5.9,15.6c0,6.1,2.1,11.4,6.1,15.6c4.1,4.2,9.3,6.4,15.4,6.4c4.7,0,9-1.4,12.7-4.1v3.4h8.6V60.3
			C310.1,57.4,309.9,54.8,309.5,52.7z M301.5,64.3l-1.8,2c-3.2,3.6-6.7,5.3-10.9,5.3c-3.8,0-6.9-1.3-9.3-3.9
			c-2.3-2.6-3.5-5.7-3.5-9.7c0-3.9,1.2-7.1,3.5-9.7c2.4-2.6,5.4-3.9,9.2-3.9c4.2,0,7.3,1.5,9.5,4.5c2.1,2.8,3.2,6.5,3.2,11.1V64.3z"
			/>
	</g>
</g>
</svg>
