<?xml version="1.0" encoding="utf-8"?>
<!-- Generator: Adobe Illustrator 19.1.0, SVG Export Plug-In . SVG Version: 6.00 Build 0)  -->
<svg version="1.1" id="Layer_1" xmlns="http://www.w3.org/2000/svg" xmlns:xlink="http://www.w3.org/1999/xlink" x="0px" y="0px"
	 viewBox="0 0 1200 1200" enable-background="new 0 0 1200 1200" xml:space="preserve">
<g>
	<circle fill="#FC523A" cx="600" cy="592.524" r="542.524"/>
	<rect x="259.223" y="277.871" fill="#63EFFF" width="463.861" height="211.664"/>
	<rect x="725.335" y="127.004" fill="#278EB3" width="299.482" height="146.364"/>
	<path fill="#FFFFFF" d="M476.494,1120.041l-1.634-94.774c0,0-58.825-68.629-86.604-168.305
		c-27.779-99.676-24.511-138.893,53.922-155.233c3.268-130.723,6.536-285.956,6.536-285.956s6.536-44.119,49.021-39.217
		c42.485,4.902,47.387,34.315,47.387,62.094c0,27.778,1.633,155.233,1.633,155.233s66.996-29.412,98.042,21.243
		c37.583-17.974,83.335-6.536,111.114,42.484c35.949-14.706,63.728-14.706,66.996,40.851c3.268,55.557,3.268,150.331,3.268,150.331
		s-19.608,99.676-47.387,130.723c-27.778,31.046-26.144,49.021-26.144,65.361c0,16.34,4.902,65.361,4.902,65.361l-1.681,14.846
		L611.154,1150L476.494,1120.041z"/>
	<g>
		<path fill="#63EFFF" d="M1002.701,274.361c-0.205,0-0.403,0-0.609-0.009l-235.368-5.46c-14.538-0.334-26.05-12.395-25.716-26.932
			c0.335-14.333,12.053-25.725,26.316-25.725c0.206,0,0.411,0,0.616,0.009l206.594,4.792l-3.463-52.769
			c-0.96-14.513,10.038-27.045,24.55-27.997c14.229-1.148,27.053,10.03,27.997,24.551l5.356,81.485
			c0.489,7.372-2.151,14.608-7.26,19.948C1016.743,271.438,1009.869,274.361,1002.701,274.361z"/>
		<path fill="#63EFFF" d="M697.145,500.704c-0.043,0-0.077,0-0.112,0l-105.333-0.472c-14.546-0.059-26.281-11.905-26.222-26.453
			c0.06-14.494,11.839-26.213,26.333-26.213c0.034,0,0.078,0,0.111,0l78.888,0.352v-158.35c0-14.547,11.786-26.333,26.333-26.333
			c14.546,0,26.333,11.787,26.333,26.333V474.37c0,7.004-2.795,13.724-7.758,18.661
			C710.792,497.944,704.107,500.704,697.145,500.704z"/>
		<path fill="#63EFFF" d="M527.934,662.534c-14.015,0-25.664-11.041-26.291-25.167l-10.08-228.16
			c-0.642-14.53,10.612-26.831,25.142-27.474c0.402-0.017,0.796-0.025,1.182-0.025c14.015,0,25.666,11.04,26.29,25.167
			l10.081,228.159c0.643,14.531-10.612,26.831-25.142,27.473C528.714,662.526,528.32,662.534,527.934,662.534z"/>
		<path fill="#63EFFF" d="M637.046,715.114c-13.089,0-24.429-9.746-26.091-23.068l-9.311-74.541
			c-1.808-14.435,8.435-27.593,22.862-29.393c14.393-1.758,27.593,8.427,29.393,22.862l9.309,74.541
			c1.809,14.435-8.435,27.594-22.862,29.393C639.233,715.046,638.135,715.114,637.046,715.114z"/>
		<path fill="#63EFFF" d="M727.867,746.008c-14.545,0-26.333-11.787-26.333-26.333v-65.833c0-14.546,11.787-26.333,26.333-26.333
			c14.547,0,26.333,11.787,26.333,26.333v65.833C754.2,734.22,742.414,746.008,727.867,746.008z"/>
		<path fill="#63EFFF" d="M750.771,1105.739c-12.361,0-23.393-8.752-25.827-21.336c-8.787-45.38,7.046-89.037,19.725-117.924
			c4.439-10.133,9.248-20.143,14.057-30.148c10.373-21.575,20.171-41.96,25.991-63.21c16.741-61.024,0.215-129.077-14.357-189.115
			c-3.438-14.135,5.237-28.373,19.373-31.802c14.228-3.421,28.382,5.254,31.802,19.372c15.292,62.961,34.313,141.326,13.98,215.474
			c-7.088,25.844-18.395,49.357-29.324,72.099c-4.544,9.455-9.096,18.901-13.296,28.477c-15.634,35.659-20.803,63.226-16.243,86.764
			c2.76,14.282-6.567,28.099-20.848,30.859C754.114,1105.575,752.426,1105.739,750.771,1105.739z"/>
		<g>
			<g>
				<path fill="#2A1540" d="M479.717,1122.585c-6.721,0-12.456-5.117-13.089-11.949c-2.418-25.973-4.432-51.723-6.455-78.021
					c-0.481-6.232-2.358-10.124-6.686-13.896c-26.934-23.435-42.226-54.079-54.441-80.953
					c-21.671-47.652-34.692-88.703-40.965-129.188c-2.383-15.37-3.095-30.396-2.101-44.643
					c1.758-25.596,16.433-46.477,42.431-60.364c11.838-6.326,24.542-10.621,37.596-14.803c0-1.757,0.018-3.403,0.035-5.048
					l0.034-4.107l0.009-58.221c0.01-64.675,0.017-114.624-0.026-190.632c-0.009-14.975,2.135-36.903,20.752-54.399
					c16.056-15.094,45.38-19.989,65.336-10.885c21.053,9.617,32.136,27.37,32.067,51.346c-0.128,52.914-0.093,80.232-0.051,121.669
					l0.034,38.737c8.041-1.808,15.722-3.531,23.418-5.22c27.105-6,50.961,3.103,70.857,26.993
					c39.456-14.135,73.479-10.99,107.037,39.688c0.267-0.06,0.54-0.121,0.815-0.18c7.259-1.595,14.768-3.241,22.406-4.466
					c13.835-2.237,26.196,0.54,35.728,8.032c9.626,7.561,15.318,19.072,16.45,33.311l0.625,7.835
					c1.629,20.324,3.318,41.325,4.236,62.138c0.865,19.381,1.362,38.789,1.869,58.186c0.309,11.907,0.609,23.813,1.002,35.72
					c1.483,45.182-11.778,89.56-40.546,135.652c-7.921,12.695-16.055,25.244-24.309,37.724c-3.807,5.77-5.478,11.144-5.401,17.428
					c0.3,24.361,0.292,49.177-0.016,73.762c-0.096,7.217-5.966,13.003-13.167,13.003c-0.051,0-0.111,0-0.163,0
					c-7.277-0.093-13.098-6.06-13.004-13.328c0.309-24.371,0.318-48.972,0.017-73.12c-0.136-11.556,3.06-22.107,9.772-32.265
					c8.118-12.293,16.133-24.653,23.934-37.142c25.904-41.523,37.87-81.048,36.567-120.848c-0.394-11.967-0.703-23.933-1.011-35.908
					c-0.497-19.236-0.994-38.471-1.843-57.699c-0.908-20.341-2.572-41.111-4.183-61.195l-0.626-7.852
					c-0.377-4.681-1.8-11.033-6.463-14.692c-4.543-3.576-10.827-3.456-15.274-2.752c-6.909,1.114-13.733,2.614-20.958,4.2
					c-3.335,0.729-6.669,1.457-10.005,2.152c-5.495,1.165-11.057-1.304-13.946-6.086c-31.459-52.109-55.513-47.069-88.634-33.422
					c-5.324,2.194-11.469,0.669-15.163-3.78l-5.804-7.03c-13.706-16.544-27.635-22.192-45.148-18.344
					c-8.426,1.852-16.853,3.746-25.733,5.743l-12.918,2.906c-3.814,0.848-7.756-0.017-10.852-2.366
					c-3.085-2.357-4.981-5.949-5.177-9.823l-0.283-4.86c-0.231-3.609-0.437-6.995-0.437-10.381l-0.035-40.425
					c-0.041-41.47-0.076-68.807,0.052-121.765c0.034-13.613-5.1-22.038-16.663-27.319c-10.15-4.629-28.168-1.612-36.372,6.112
					c-8.735,8.211-12.464,18.738-12.455,35.196c0.042,76.016,0.034,125.973,0.026,190.649l-0.043,62.644
					c-0.026,2.066-0.052,4.123-0.017,6.199c0.128,8.048-2.881,18.669-18.02,23.52c-12.429,3.969-23.512,7.698-33.516,13.038
					c-18.087,9.669-27.439,22.417-28.579,38.968c-0.849,12.292-0.232,25.34,1.86,38.779c5.898,38.052,18.259,76.917,38.909,122.323
					c13.742,30.224,27.122,54.028,47.755,71.986c9.54,8.298,14.658,18.688,15.66,31.751c2.015,26.179,4.02,51.826,6.412,77.602
					c0.678,7.242-4.646,13.655-11.89,14.324C480.54,1122.568,480.129,1122.585,479.717,1122.585z"/>
				<path fill="#2A1540" d="M541.735,677.049c-7.268,0-13.166-5.898-13.166-13.166v-70.359c0-7.268,5.898-13.166,13.166-13.166
					c7.27,0,13.167,5.898,13.167,13.166v70.359C554.902,671.151,549.005,677.049,541.735,677.049z"/>
				<path fill="#2A1540" d="M447.967,773.998c-7.269,0-13.167-5.897-13.167-13.167v-70.359c0-7.268,5.898-13.166,13.167-13.166
					c7.269,0,13.166,5.898,13.166,13.166v70.359C461.133,768.101,455.236,773.998,447.967,773.998z"/>
				<path fill="#2A1540" d="M644.727,706.914c-7.268,0-13.167-5.897-13.167-13.167v-80.996c0-7.269,5.899-13.167,13.167-13.167
					c7.269,0,13.166,5.899,13.166,13.167v80.996C657.893,701.016,651.996,706.914,644.727,706.914z"/>
				<path fill="#2A1540" d="M751.08,738.819c-7.269,0-13.167-5.897-13.167-13.167v-70.359c0-7.268,5.897-13.166,13.167-13.166
					c7.269,0,13.166,5.898,13.166,13.166v70.359C764.246,732.921,758.349,738.819,751.08,738.819z"/>
			</g>
			<path fill="#2A1540" d="M722.475,497.321h-133.56c-7.269,0-13.167-5.899-13.167-13.167c0-7.269,5.897-13.166,13.167-13.166
				h120.393V283.732H274.787v187.256h129.9c7.269,0,13.166,5.897,13.166,13.166c0,7.268-5.897,13.167-13.166,13.167H261.621
				c-7.269,0-13.167-5.899-13.167-13.167V270.566c0-7.269,5.897-13.166,13.167-13.166h460.855c7.269,0,13.166,5.897,13.166,13.166
				v213.588C735.641,491.422,729.745,497.321,722.475,497.321z"/>
			<path fill="#2A1540" d="M1021.834,283.732H722.475c-7.27,0-13.167-5.897-13.167-13.167V131.82
				c0-7.269,5.897-13.166,13.167-13.166h299.358c7.27,0,13.166,5.897,13.166,13.166v138.745
				C1035,277.835,1029.104,283.732,1021.834,283.732z M735.641,257.4h273.026V144.987H735.641V257.4z"/>
			<g>
				<path fill="#2A1540" d="M1021.834,497.321H796.169c-7.269,0-13.167-5.899-13.167-13.167c0-7.269,5.898-13.166,13.167-13.166
					h225.665c7.27,0,13.166,5.897,13.166,13.166C1035,491.422,1029.104,497.321,1021.834,497.321z"/>
				<path fill="#2A1540" d="M1021.834,430.75H796.169c-7.269,0-13.167-5.897-13.167-13.166c0-7.27,5.898-13.167,13.167-13.167
					h225.665c7.27,0,13.166,5.897,13.166,13.167C1035,424.854,1029.104,430.75,1021.834,430.75z"/>
				<path fill="#2A1540" d="M1021.834,364.173H796.169c-7.269,0-13.167-5.898-13.167-13.166c0-7.271,5.898-13.167,13.167-13.167
					h225.665c7.27,0,13.166,5.897,13.166,13.167C1035,358.275,1029.104,364.173,1021.834,364.173z"/>
			</g>
			<g>
				<path fill="#2A1540" d="M644.727,214.359h-388.85c-7.269,0-13.167-5.897-13.167-13.166s5.897-13.167,13.167-13.167h388.85
					c7.269,0,13.166,5.898,13.166,13.167S651.996,214.359,644.727,214.359z"/>
				<path fill="#2A1540" d="M644.727,147.79h-388.85c-7.269,0-13.167-5.897-13.167-13.166c0-7.269,5.897-13.167,13.167-13.167
					h388.85c7.269,0,13.166,5.898,13.166,13.167C657.893,141.892,651.996,147.79,644.727,147.79z"/>
			</g>
		</g>
	</g>
</g>
</svg>
