<?xml version="1.0" encoding="utf-8"?>
<svg version="1.1" xmlns:xlink="http://www.w3.org/1999/xlink" width="17px" height="20px" xmlns="http://www.w3.org/2000/svg">
  <g transform="matrix(1 0 0 1 -564 -251 )">
    <path d="M 12.7942708333333 0.758928571428572  L 16.2473958333333 4.24107142857143  C 16.4539930555556 4.44940476190476  16.6310763888889 4.73214285714286  16.7786458333333 5.08928571428571  C 16.9262152777778 5.44642857142857  17 5.77380952380952  17 6.07142857142857  L 17 18.9285714285714  C 17 19.2261904761905  16.8967013888889 19.4791666666667  16.6901041666667 19.6875  C 16.4835069444444 19.8958333333333  16.2326388888889 20  15.9375 20  L 1.0625 20  C 0.767361111111111 20  0.516493055555556 19.8958333333333  0.309895833333333 19.6875  C 0.103298611111111 19.4791666666667  0 19.2261904761905  0 18.9285714285714  L 0 1.07142857142857  C 0 0.773809523809523  0.103298611111111 0.520833333333333  0.309895833333333 0.3125  C 0.516493055555556 0.104166666666667  0.767361111111111 0  1.0625 0  L 10.9791666666667 0  C 11.2743055555556 0  11.5989583333333 0.0744047619047628  11.953125 0.223214285714286  C 12.3072916666667 0.372023809523809  12.5876736111111 0.550595238095237  12.7942708333333 0.758928571428572  Z M 11.787109375 1.76339285714286  C 11.6985677083333 1.67410714285714  11.5473090277778 1.5922619047619  11.3333333333333 1.51785714285714  L 11.3333333333333 5.71428571428571  L 15.4947916666667 5.71428571428571  C 15.4210069444444 5.4985119047619  15.33984375 5.34598214285714  15.2513020833333 5.25669642857143  L 11.787109375 1.76339285714286  Z M 1.41666666666667 18.5714285714286  L 15.5833333333333 18.5714285714286  L 15.5833333333333 7.14285714285714  L 10.9791666666667 7.14285714285714  C 10.6840277777778 7.14285714285714  10.4331597222222 7.03869047619047  10.2265625 6.83035714285714  C 10.0199652777778 6.62202380952381  9.91666666666667 6.36904761904762  9.91666666666667 6.07142857142857  L 9.91666666666667 1.42857142857143  L 1.41666666666667 1.42857142857143  L 1.41666666666667 18.5714285714286  Z M 8.27864583333333 9.296875  C 8.68446180555556 10.5171130952381  9.22309027777778 11.4025297619048  9.89453125 11.953125  C 10.1380208333333 12.1465773809524  10.4479166666667 12.3549107142857  10.82421875 12.578125  C 11.2595486111111 12.5260416666667  11.6911892361111 12.5  12.119140625 12.5  C 13.2037760416667 12.5  13.8567708333333 12.6822916666667  14.078125 13.046875  C 14.1961805555556 13.2105654761905  14.2035590277778 13.4040178571429  14.1002604166667 13.6272321428571  C 14.1002604166667 13.6346726190476  14.0965711805556 13.6421130952381  14.0891927083333 13.6495535714286  L 14.0670572916667 13.671875  L 14.0670572916667 13.6830357142857  C 14.0227864583333 13.9657738095238  13.7608506944444 14.1071428571429  13.28125 14.1071428571429  C 12.9270833333333 14.1071428571429  12.5028211805556 14.0327380952381  12.0084635416667 13.8839285714286  C 11.5141059027778 13.735119047619  11.0345052083333 13.5379464285714  10.5696614583333 13.2924107142857  C 8.93901909722222 13.4709821428571  7.49283854166667 13.7797619047619  6.23111979166667 14.21875  C 5.10221354166667 16.1681547619048  4.20941840277778 17.1428571428571  3.552734375 17.1428571428571  C 3.44205729166667 17.1428571428571  3.33875868055556 17.1168154761905  3.24283854166667 17.0647321428571  L 2.97721354166667 16.9308035714286  C 2.96983506944444 16.9233630952381  2.94769965277778 16.9047619047619  2.91080729166667 16.875  C 2.83702256944444 16.8005952380952  2.81488715277778 16.6666666666667  2.84440104166667 16.4732142857143  C 2.91080729166667 16.1755952380952  3.11740451388889 15.835193452381  3.46419270833333 15.4520089285714  C 3.81098090277778 15.0688244047619  4.29796006944444 14.7098214285714  4.92513020833333 14.375  C 5.02842881944444 14.3080357142857  5.11328125 14.3303571428571  5.1796875 14.4419642857143  C 5.19444444444444 14.4568452380952  5.20182291666667 14.4717261904762  5.20182291666667 14.4866071428571  C 5.58550347222222 13.8541666666667  5.98025173611111 13.1212797619048  6.38606770833333 12.2879464285714  C 6.88780381944444 11.2760416666667  7.271484375 10.3013392857143  7.537109375 9.36383928571429  C 7.36002604166667 8.75372023809524  7.24750434027778 8.16034226190476  7.19954427083333 7.58370535714286  C 7.15158420138889 7.00706845238095  7.17556423611111 6.53273809523809  7.271484375 6.16071428571429  C 7.35264756944444 5.86309523809524  7.50759548611111 5.71428571428571  7.736328125 5.71428571428571  L 7.96875 5.71428571428571  L 7.97981770833333 5.71428571428571  C 8.14952256944444 5.71428571428571  8.27864583333333 5.77008928571429  8.3671875 5.88169642857143  C 8.5 6.03794642857143  8.533203125 6.29092261904762  8.466796875 6.640625  C 8.45203993055556 6.68526785714286  8.43728298611111 6.71502976190476  8.42252604166667 6.72991071428571  C 8.42990451388889 6.75223214285714  8.43359375 6.78199404761905  8.43359375 6.81919642857143  L 8.43359375 7.15401785714286  C 8.41883680555556 8.06919642857143  8.3671875 8.78348214285714  8.27864583333333 9.296875  Z M 4.0673828125 15.7142857142857  C 3.79806857638889 16.0416666666667  3.61545138888889 16.3169642857143  3.51953125 16.5401785714286  C 3.90321180555556 16.3616071428571  4.40863715277778 15.7738095238095  5.03580729166667 14.7767857142857  C 4.65950520833333 15.0744047619048  4.33669704861111 15.3869047619048  4.0673828125 15.7142857142857  Z M 7.92447916666667 6.25  L 7.92447916666667 6.27232142857143  C 7.81380208333333 6.58482142857143  7.80642361111111 7.07589285714286  7.90234375 7.74553571428571  C 7.90972222222222 7.69345238095238  7.935546875 7.5297619047619  7.97981770833333 7.25446428571429  C 7.97981770833333 7.23214285714286  8.00564236111111 7.07217261904762  8.05729166666667 6.77455357142857  C 8.06467013888889 6.74479166666667  8.07942708333333 6.71502976190476  8.1015625 6.68526785714286  C 8.09418402777778 6.67782738095238  8.09049479166667 6.6703869047619  8.09049479166667 6.66294642857143  C 8.08311631944444 6.64806547619047  8.07942708333333 6.63690476190476  8.07942708333333 6.62946428571429  C 8.07204861111111 6.46577380952381  8.02408854166667 6.33184523809524  7.935546875 6.22767857142857  C 7.935546875 6.23511904761905  7.93185763888889 6.24255952380952  7.92447916666667 6.25  Z M 7.05013020833333 12.7232142857143  C 6.82877604166667 13.139880952381  6.66276041666667 13.4486607142857  6.55208333333333 13.6495535714286  C 7.54817708333333 13.2477678571429  8.59592013888889 12.9464285714286  9.6953125 12.7455357142857  C 9.68055555555556 12.7380952380952  9.63259548611111 12.7027529761905  9.55143229166667 12.6395089285714  C 9.47026909722222 12.5762648809524  9.41124131944445 12.5260416666667  9.37434895833333 12.4888392857143  C 8.81358506944445 11.9903273809524  8.34505208333333 11.3355654761905  7.96875 10.5245535714286  C 7.76953125 11.1644345238095  7.46332465277778 11.8973214285714  7.05013020833333 12.7232142857143  Z M 13.7239583333333 13.5044642857143  C 13.7239583333333 13.4970238095238  13.7165798611111 13.4858630952381  13.7018229166667 13.4709821428571  C 13.5247395833333 13.2924107142857  13.0082465277778 13.203125  12.15234375 13.203125  C 12.7131076388889 13.4114583333333  13.1705729166667 13.515625  13.5247395833333 13.515625  C 13.6280381944444 13.515625  13.6944444444444 13.5119047619048  13.7239583333333 13.5044642857143  Z " fill-rule="nonzero" fill="#c20202" stroke="none" transform="matrix(1 0 0 1 564 251 )" />
  </g>
</svg>