<?xml version="1.0" encoding="utf-8"?>
<svg version="1.1" xmlns:xlink="http://www.w3.org/1999/xlink" width="65px" height="48px" xmlns="http://www.w3.org/2000/svg">
  <g transform="matrix(1 0 0 1 -722 -250 )">
    <path d="M 43.01171875 25.8579545454545  C 43.2261284722222 25.6420454545455  43.3333333333333 25.3863636363636  43.3333333333333 25.0909090909091  C 43.3333333333333 24.7727272727273  43.2317708333333 24.5113636363636  43.0286458333333 24.3068181818182  L 31.1119791666667 12.3068181818182  C 30.9088541666667 12.1022727272727  30.6493055555556 12  30.3333333333333 12  C 30.0173611111111 12  29.7578125 12.1022727272727  29.5546875 12.3068181818182  L 17.671875 24.2727272727273  C 17.4461805555556 24.5454545454545  17.3333333333333 24.8181818181818  17.3333333333333 25.0909090909091  C 17.3333333333333 25.4090909090909  17.4348958333333 25.6704545454545  17.6380208333333 25.875  C 17.8411458333333 26.0795454545455  18.1006944444445 26.1818181818182  18.4166666666667 26.1818181818182  L 26 26.1818181818182  L 26 38.1818181818182  C 26 38.4772727272727  26.1072048611111 38.7329545454545  26.3216145833333 38.9488636363636  C 26.5360243055556 39.1647727272727  26.7899305555556 39.2727272727273  27.0833333333333 39.2727272727273  L 33.5833333333333 39.2727272727273  C 33.8767361111111 39.2727272727273  34.1306423611111 39.1647727272727  34.3450520833333 38.9488636363636  C 34.5594618055556 38.7329545454545  34.6666666666667 38.4772727272727  34 38.1818181818182  L 34 26.1818181818182  L 42.25 26.1818181818182  C 42.5434027777778 26.1818181818182  42.7973090277778 26.0738636363636  43.01171875 25.8579545454545  Z M 62.1731770833333 26.7784090909091  C 64.0577256944445 29.1534090909091  65 31.8636363636364  65 34.9090909090909  C 65 38.5227272727273  63.73046875 41.6079545454545  61.19140625 44.1647727272727  C 58.65234375 46.7215909090909  55.5885416666667 48  52 48  L 15.1666666666667 48  C 10.9913194444444 48  7.41970486111111 46.5056818181818  4.45182291666667 43.5170454545455  C 1.48394097222222 40.5284090909091  0 36.9318181818182  0 32.7272727272727  C 0 29.7727272727273  0.789930555555556 27.0454545454545  2.36979166666667 24.5454545454545  C 3.94965277777778 22.0454545454545  6.07118055555556 20.1704545454545  8.734375 18.9204545454545  C 8.68923611111111 18.2386363636364  8.66666666666667 17.75  8.66666666666667 17.4545454545455  C 8.66666666666667 12.6363636363636  10.359375 8.52272727272728  13.7447916666667 5.11363636363637  C 17.1302083333333 1.70454545454546  21.2152777777778 0  26 0  C 29.5208333333333 0  32.7426215277778 0.988636363636365  35.6653645833333 2.96590909090909  C 38.5881076388889 4.94318181818182  40.7152777777778 7.56818181818182  42.046875 10.8409090909091  C 43.6493055555556 9.43181818181818  45.5225694444444 8.72727272727272  47.6666666666667 8.72727272727272  C 50.0590277777778 8.72727272727272  52.1015625 9.57954545454546  53.7942708333333 11.2840909090909  C 55.4869791666667 12.9886363636364  56.3333333333333 15.0454545454545  56.3333333333333 17.4545454545455  C 56.3333333333333 19.1818181818182  55.8706597222222 20.75  54.9453125 22.1590909090909  C 57.8793402777778 22.8636363636364  60.2886284722222 24.4034090909091  62.1731770833333 26.7784090909091  Z " fill-rule="nonzero" fill="#f39c12" stroke="none" transform="matrix(1 0 0 1 722 250 )" />
  </g>
</svg>