<svg width="23" height="23" viewBox="0 0 23 23" fill="none" xmlns="http://www.w3.org/2000/svg">
<g id="foundation:social-youtube">
<g id="Group">
<path id="Vector" d="M10.3937 16.1899C10.2336 16.4162 10.082 16.5278 9.93712 16.5278C9.84052 16.5278 9.78555 16.4712 9.76807 16.359C9.76117 16.3357 9.76117 16.2477 9.76117 16.0784V13.1436H9.03943V16.2955C9.03943 16.5772 9.06335 16.7672 9.10314 16.888C9.17513 17.0899 9.33567 17.1844 9.56843 17.1844C9.83385 17.1844 10.1066 17.0241 10.3934 16.6948V17.1297H11.1163V13.1438H10.3937V16.1899Z" fill="black"></path>
<path id="Vector_2" d="M6.41626 12.5332H7.26588V17.1297H8.06904V12.5332H8.9343V11.7801H6.41626V12.5332Z" fill="black"></path>
<path id="Vector_3" d="M11.3346 9.0482C11.5699 9.0482 11.6826 8.8619 11.6826 8.48907V6.79443C11.6826 6.42206 11.5699 6.23645 11.3346 6.23645C11.0991 6.23645 10.9861 6.42206 10.9861 6.79443V8.48907C10.9864 8.86167 11.0991 9.0482 11.3346 9.0482Z" fill="black"></path>
<path id="Vector_4" d="M13.2098 13.0951C12.9444 13.0951 12.6969 13.2404 12.4639 13.5275V11.7801H11.7415V17.1297H12.4639V16.7429C12.7049 17.0416 12.9531 17.1845 13.2098 17.1845C13.4975 17.1845 13.6907 17.0331 13.7873 16.7366C13.8354 16.5676 13.86 16.3022 13.86 15.9335V14.3463C13.86 13.9691 13.8354 13.7055 13.7873 13.5452C13.6905 13.2464 13.4975 13.0951 13.2098 13.0951ZM13.1378 15.9901C13.1378 16.35 13.0318 16.5276 12.8236 16.5276C12.7049 16.5276 12.5844 16.471 12.4637 16.3502V13.9205C12.5844 13.8016 12.7047 13.745 12.8236 13.745C13.032 13.745 13.1378 13.9295 13.1378 14.289V15.9901Z" fill="black"></path>
<path id="Vector_5" d="M15.51 13.0951C15.1415 13.0951 14.8536 13.231 14.6452 13.504C14.4916 13.7052 14.4219 14.0167 14.4219 14.4424V15.839C14.4219 16.2622 14.5005 16.577 14.6539 16.776C14.8626 17.0481 15.1501 17.1842 15.5282 17.1842C15.9054 17.1842 16.2014 17.0414 16.4015 16.7525C16.4897 16.6228 16.5474 16.4747 16.5701 16.3194C16.5765 16.247 16.5855 16.0864 16.5855 15.8541V15.7483H15.8483C15.8483 16.0381 15.8394 16.1984 15.8327 16.2378C15.7915 16.4307 15.6876 16.5273 15.51 16.5273C15.2621 16.5273 15.1415 16.3433 15.1415 15.9744V15.2679H16.5857V14.4422C16.5857 14.0162 16.5133 13.705 16.3622 13.5038C16.16 13.2308 15.8725 13.0951 15.51 13.0951ZM15.8635 14.6669H15.1415V14.2982C15.1415 13.9297 15.2621 13.7453 15.5036 13.7453C15.7425 13.7453 15.8635 13.9297 15.8635 14.2982V14.6669Z" fill="black"></path>
<path id="Vector_6" d="M18.17 3.22H4.82997C3.94447 3.22 3.21997 3.9445 3.21997 4.83V18.17C3.21997 19.0555 3.94447 19.78 4.82997 19.78H18.17C19.0555 19.78 19.78 19.0555 19.78 18.17V4.83C19.78 3.9445 19.0555 3.22 18.17 3.22ZM13.0134 5.6281H13.7409V8.59326C13.7409 8.76484 13.7409 8.85385 13.7498 8.87731C13.7659 8.99047 13.823 9.0482 13.921 9.0482C14.0668 9.0482 14.2202 8.93504 14.3819 8.70642V5.6281H15.1119V9.6554H14.3819V9.2161C14.0914 9.54937 13.8142 9.71129 13.5481 9.71129C13.3131 9.71129 13.1509 9.61584 13.078 9.4116C13.0378 9.28993 13.0134 9.09696 13.0134 8.81268V5.6281ZM10.2564 6.94094C10.2564 6.51061 10.3297 6.19574 10.485 5.99219C10.6869 5.71711 10.9712 5.57934 11.3346 5.57934C11.7003 5.57934 11.9841 5.71711 12.1863 5.99219C12.339 6.19574 12.4128 6.51061 12.4128 6.94094V8.35199C12.4128 8.77979 12.3392 9.09719 12.1863 9.29936C11.9841 9.57375 11.7005 9.71152 11.3346 9.71152C10.971 9.71152 10.6867 9.57375 10.485 9.29936C10.3297 9.09719 10.2564 8.77979 10.2564 8.35199V6.94094ZM8.30458 4.25086L8.87935 6.37307L9.43112 4.25086H10.2495L9.2761 7.46672V9.6554H8.4665V7.46672C8.39336 7.07848 8.23144 6.51038 7.972 5.75667C7.80134 5.25527 7.62355 4.75157 7.45312 4.25086H8.30458ZM17.2668 17.3691C17.1209 18.0046 16.6007 18.4734 15.9751 18.5431C14.493 18.7087 12.9931 18.7096 11.5 18.7087C10.0066 18.7096 8.50675 18.7087 7.02486 18.5431C6.39903 18.4731 5.87969 18.0044 5.73364 17.3691C5.52549 16.4639 5.52549 15.4758 5.52549 14.5443C5.52549 13.6119 5.52779 12.6245 5.73617 11.719C5.88199 11.0837 6.40156 10.6152 7.02739 10.5453C8.50928 10.3792 10.0091 10.3787 11.5025 10.3792C12.9957 10.3787 14.4955 10.3792 15.9776 10.5453C16.603 10.6152 17.123 11.0837 17.2691 11.719C17.4772 12.6247 17.4761 13.6119 17.4761 14.5443C17.4763 15.4758 17.4751 16.4639 17.2668 17.3691Z" fill="black"></path>
</g>
</g>
</svg>