<svg width="51" height="70" viewBox="0 0 51 70" fill="none" xmlns="http://www.w3.org/2000/svg">
<path fill-rule="evenodd" clip-rule="evenodd" d="M38.58 21.2179L25.1094 7.74732C22.7146 5.35255 18.6255 6.44824 17.7489 9.71956L12.8183 28.1207C11.9418 31.392 14.9353 34.3855 18.2066 33.509L36.6078 28.5784C39.8791 27.7018 40.9747 23.6127 38.58 21.2179ZM25.8871 6.9696C22.8936 3.97613 17.7822 5.34574 16.6865 9.43489L11.756 27.8361C10.6603 31.9252 14.4021 35.667 18.4913 34.5713L36.8924 29.6408C40.9816 28.5451 42.3512 23.4336 39.3577 20.4402L25.8871 6.9696Z" fill="#0261AB"/>
<path fill-rule="evenodd" clip-rule="evenodd" d="M47.2079 65.9104L44.6965 56.622C44.25 54.9707 42.1834 54.422 40.9766 55.6343L34.1883 62.4534C32.9815 63.6657 33.5396 65.7298 35.1929 66.1688L44.4926 68.6381C46.1459 69.0771 47.6544 67.5617 47.2079 65.9104ZM45.2328 56.477C44.6747 54.4129 42.0914 53.727 40.5829 55.2423L33.7946 62.0615C32.2861 63.5769 32.9837 66.157 35.0503 66.7057L44.3501 69.175C46.4167 69.7237 48.3023 67.8295 47.7442 65.7654L45.2328 56.477Z" fill="#0261AB"/>
<path d="M10.6318 7.77937C11.7275 3.69023 16.839 2.32061 19.8324 5.31408L33.303 18.7847C36.2965 21.7781 34.9269 26.8896 30.8377 27.9853L12.4366 32.9158C8.34742 34.0115 4.60558 30.2697 5.70126 26.1805L10.6318 7.77937Z" fill="#58F4FF"/>
</svg>
