<svg width="47" height="49" viewBox="0 0 47 49" fill="none" xmlns="http://www.w3.org/2000/svg">
<path d="M13.7851 13.6057C13.78 8.92144 18.8476 5.98824 22.9068 8.32592L41.1734 18.8455C45.2326 21.1831 45.239 27.0384 41.1849 29.385L22.9414 39.9445C18.8873 42.2911 13.8133 39.369 13.8082 34.6848L13.7851 13.6057Z" fill="#58F4FF"/>
<path fill-rule="evenodd" clip-rule="evenodd" d="M37.2517 26.0182L19.419 15.726C16.2488 13.8962 12.2866 16.1846 12.2871 19.845L12.2902 40.4347C12.2907 44.095 16.2535 46.3822 19.4233 44.5515L37.253 34.2541C40.4227 32.4234 40.422 27.8479 37.2517 26.0182ZM20.0132 14.6964C16.0504 12.4092 11.0977 15.2696 11.0984 19.8451L11.1014 40.4348C11.1021 45.0103 16.0556 47.8693 20.0178 45.5809L37.8475 35.2835C41.8096 32.9951 41.8088 27.2758 37.846 24.9886L20.0132 14.6964Z" fill="#0261AB"/>
</svg>
