<svg width="28" height="28" viewBox="0 0 28 28" fill="none" xmlns="http://www.w3.org/2000/svg">
<path d="M26.1773 0.774414H1.77484C1.18799 0.774414 0.713867 1.24854 0.713867 1.83539V26.2378C0.713867 26.8247 1.18799 27.2988 1.77484 27.2988H26.1773C26.7641 27.2988 27.2383 26.8247 27.2383 26.2378V1.83539C27.2383 1.24854 26.7641 0.774414 26.1773 0.774414ZM23.1137 8.51622H20.9951C19.334 8.51622 19.0124 9.30532 19.0124 10.4658V13.0221H22.9778L22.4606 17.0239H19.0124V27.2988H14.8779V17.0272H11.4198V13.0221H14.8779V10.0712C14.8779 6.64625 16.97 4.7796 20.0269 4.7796C21.4924 4.7796 22.749 4.88901 23.117 4.93874V8.51622H23.1137Z" fill="white"/>
</svg>
