<svg width="27" height="27" viewBox="0 0 27 27" fill="none" xmlns="http://www.w3.org/2000/svg">
<path d="M24.4241 0.0502319H3.50168C2.11287 0.0502319 0.976562 1.18654 0.976562 2.57535V23.4978C0.976562 24.8866 2.11287 26.0229 3.50168 26.0229H24.4241C25.8129 26.0229 26.9492 24.8866 26.9492 23.4978V2.57535C26.9492 1.18654 25.8129 0.0502319 24.4241 0.0502319ZM16.3365 3.82709H17.4775V8.47765C17.4775 8.74675 17.4775 8.88635 17.4916 8.92315C17.5168 9.10063 17.6063 9.19117 17.76 9.19117C17.9887 9.19117 18.2293 9.01369 18.4829 8.65513V3.82709H19.6278V10.1435H18.4829V9.45451C18.0273 9.97721 17.5926 10.2312 17.1752 10.2312C16.8066 10.2312 16.5522 10.0815 16.4379 9.76113C16.3748 9.5703 16.3365 9.26765 16.3365 8.82178V3.82709ZM12.0124 5.88615C12.0124 5.21122 12.1275 4.71738 12.371 4.39813C12.6877 3.9667 13.1336 3.75062 13.7035 3.75062C14.2771 3.75062 14.7222 3.9667 15.0393 4.39813C15.2789 4.71738 15.3946 5.21122 15.3946 5.88615V8.09924C15.3946 8.7702 15.2792 9.26801 15.0393 9.58509C14.7222 10.0154 14.2775 10.2315 13.7035 10.2315C13.1332 10.2315 12.6874 10.0154 12.371 9.58509C12.1275 9.26801 12.0124 8.7702 12.0124 8.09924V5.88615ZM8.95126 1.66703L9.85273 4.9955L10.7181 1.66703H12.0016L10.475 6.71078V10.1435H9.20521V6.71078C9.0905 6.10187 8.83654 5.21086 8.42964 4.02874C8.16198 3.24235 7.88313 2.45234 7.61583 1.66703H8.95126ZM23.0075 22.2417C22.7788 23.2384 21.9629 23.9736 20.9817 24.0829C18.6571 24.3426 16.3048 24.3441 13.9629 24.3426C11.6207 24.3441 9.26834 24.3426 6.94415 24.0829C5.9626 23.9732 5.14806 23.2381 4.919 22.2417C4.59254 20.8219 4.59254 19.2722 4.59254 17.8112C4.59254 16.3488 4.59614 14.8002 4.92297 13.38C5.15167 12.3836 5.96656 11.6488 6.94812 11.5392C9.27231 11.2787 11.6246 11.278 13.9669 11.2787C16.3087 11.278 18.6611 11.2787 20.9856 11.5392C21.9665 11.6488 22.7821 12.3836 23.0111 13.38C23.3376 14.8006 23.3358 16.3488 23.3358 17.8112C23.3362 19.2722 23.3344 20.8219 23.0075 22.2417Z" fill="white"/>
</svg>
