<svg width="35" height="35" viewBox="0 0 35 35" fill="none" xmlns="http://www.w3.org/2000/svg">
<path d="M0 11.7396C0 7.58705 0 5.51078 0.820944 3.9304C1.51274 2.59862 2.59862 1.51274 3.9304 0.820944C5.51078 0 7.58705 0 11.7396 0H23.2604C27.413 0 29.4892 0 31.0696 0.820944C32.4014 1.51274 33.4873 2.59862 34.1791 3.9304C35 5.51078 35 7.58705 35 11.7396V23.2604C35 27.413 35 29.4892 34.1791 31.0696C33.4873 32.4014 32.4014 33.4873 31.0696 34.1791C29.4892 35 27.413 35 23.2604 35H11.7396C7.58705 35 5.51078 35 3.9304 34.1791C2.59862 33.4873 1.51274 32.4014 0.820944 31.0696C0 29.4892 0 27.413 0 23.2604V11.7396Z" fill="#3F4B5B"/>
<path fill-rule="evenodd" clip-rule="evenodd" d="M27.7707 8.58294C28.8951 8.88566 29.7816 9.77219 30.0843 10.8966C30.6465 12.9507 30.6249 17.232 30.6249 17.232C30.6249 17.232 30.6249 21.4917 30.0843 23.5458C29.7816 24.6702 28.8951 25.5567 27.7707 25.8594C25.7165 26.4 17.4999 26.4 17.4999 26.4C17.4999 26.4 9.30496 26.4 7.22919 25.8378C6.10481 25.5351 5.21828 24.6486 4.91557 23.5242C4.375 21.4917 4.375 17.2104 4.375 17.2104C4.375 17.2104 4.375 12.9507 4.91557 10.8966C5.21828 9.77219 6.12643 8.86404 7.22919 8.56132C9.28334 8.02075 17.4999 8.02075 17.4999 8.02075C17.4999 8.02075 25.7165 8.02075 27.7707 8.58294ZM21.7163 17.0602L14.8836 20.9956V13.1249L21.7163 17.0602Z" fill="white"/>
</svg>
