<?xml version="1.0" encoding="UTF-8"?><!DOCTYPE svg PUBLIC "-//W3C//DTD SVG 1.0//EN" "http://www.w3.org/TR/2001/REC-SVG-20010904/DTD/svg10.dtd" []><svg xmlns="http://www.w3.org/2000/svg" xmlns:xlink="http://www.w3.org/1999/xlink" data-name="Layer 1" height="104" viewBox="0 0 336.39 103.93" width="336"><path d="M100.42,56.47c3.49,6.19,7.13,11.71,9.82,17.66,4.41,9.72-2.94,20.74-13.75,20.91q-17.77.27-35.55,0a14.35,14.35,0,0,1-12-21.72,3.64,3.64,0,0,1,2.71-1.39c9.86-.11,19.72-.09,29.58-.09s16-4.6,18.73-14C100,57.59,100.12,57.31,100.42,56.47Z" fill="#2361ae"/><path d="M49.17,94.68c-6.85,0-13.79.76-20.48-.18-9.66-1.36-15-12.75-10.33-21.32Q27.23,56.88,36.9,41c5.49-9,18.63-8.7,24.22.22a2.58,2.58,0,0,1,.07,3.09c-4.95,8.43-9.6,17-14.77,25.35S42.58,88.5,49,94.23A1.18,1.18,0,0,1,49.17,94.68Z" fill="#2361ae"/><path d="M42.14,31.68c3.29-5.65,6.1-11,9.38-16,5.95-9.11,19.36-9.24,25.1,0C83.08,26,89.18,36.61,95,47.37c4.83,9-1.51,19.87-11.54,20.68a3.15,3.15,0,0,1-3.5-1.76C75.1,57.7,70.1,49.21,65.22,40.64,60.48,32.33,52.76,29,43.51,31.4,43.23,31.48,42.94,31.52,42.14,31.68Z" fill="#2361ae"/><path d="M156.9,22.41c-6.65,0-11.94,2.32-15.75,6.9-3.48,4.18-5.24,9.63-5.24,16.21V83.87h8.86V56.5H169V83.87h8.86V45.52c0-6.55-1.75-12-5.2-16.15C168.83,24.75,163.54,22.41,156.9,22.41Zm-12.13,24.3C144.77,32.6,151.69,31,156.9,31s12,1.63,12,15.74V48H144.77Z" fill="#2361ae"/><path d="M208.66,52.93A8.62,8.62,0,0,0,211,47.4c0-1.45-.56-6.16-7.86-6.16H181.27v8.4h19L182,71.8c-1.74,2.11-2.58,4-2.58,5.68,0,1.5.54,6.39,7.44,6.39H212V75.24H190.27Z" fill="#2361ae"/><path d="M232.53,40.55a20.44,20.44,0,0,0-15.31,6.53A21.67,21.67,0,0,0,211,62.58,21.49,21.49,0,0,0,217.18,78a21.23,21.23,0,0,0,30.64.07A21.7,21.7,0,0,0,254,62.58a21.69,21.69,0,0,0-6.1-15.46A20.48,20.48,0,0,0,232.53,40.55Zm9.05,31.54a11.62,11.62,0,0,1-9.05,4,11.84,11.84,0,0,1-9.14-4,13.69,13.69,0,0,1-3.61-9.65,13.64,13.64,0,0,1,3.6-9.63,11.82,11.82,0,0,1,9.15-4,11.67,11.67,0,0,1,9.09,4,13.64,13.64,0,0,1,3.57,9.61A13.64,13.64,0,0,1,241.58,72.09Z" fill="#2361ae"/><path d="M264.45,67.85V49.72h13.17V41.24H264.45V30.69h-8.63V68.16c0,10.13,6.2,15.71,17.45,15.71h4.35v-8.4h-4.93C266.92,75.47,264.45,73.19,264.45,67.85Z" fill="#2361ae"/><path d="M319.07,57.09a20.12,20.12,0,0,0-7.44-11.94,21.09,21.09,0,0,0-13.33-4.6A20.47,20.47,0,0,0,282.82,47a21.88,21.88,0,0,0-5.9,15.61A21.7,21.7,0,0,0,283,78.17a20.57,20.57,0,0,0,15.42,6.4,21,21,0,0,0,12.67-4.1v3.4h8.63V64.69A37.39,37.39,0,0,0,319.07,57.09Zm-7.95,11.67-1.82,2c-3.19,3.57-6.74,5.3-10.85,5.3a11.83,11.83,0,0,1-9.25-3.89,13.69,13.69,0,0,1-3.49-9.72,13.69,13.69,0,0,1,3.53-9.68,11.82,11.82,0,0,1,9.21-3.93c4.17,0,7.27,1.46,9.51,4.47,2.1,2.79,3.16,6.53,3.16,11.12Z" fill="#2361ae"/></svg>